<?xml version="1.0" encoding="utf-8"?>
<!-- Generator: Adobe Illustrator 24.2.0, SVG Export Plug-In . SVG Version: 6.00 Build 0)  -->
<svg version="1.1" xmlns="http://www.w3.org/2000/svg" xmlns:xlink="http://www.w3.org/1999/xlink" x="0px" y="0px"
	 viewBox="0 0 110 130" style="enable-background:new 0 0 110 130;" xml:space="preserve">
<style type="text/css">
	.st0{fill:#F2F2F2;}
	.st1{fill:#BFBFBF;}
	.st2{fill:#F3CF07;stroke:#000000;stroke-width:5;stroke-miterlimit:10;}
	.st3{fill:none;stroke:#000000;stroke-width:5;stroke-miterlimit:10;}
	.st4{fill:#3A92FF;stroke:#000000;stroke-width:5;stroke-miterlimit:10;}
	.st5{fill:none;stroke:#000000;stroke-width:6;stroke-miterlimit:10;}
	.st6{fill:#FF5439;stroke:#000000;stroke-width:5;stroke-miterlimit:10;}
</style>
<g id="fondos">
	<rect x="264.6" y="-2376.4" class="st0" width="1920" height="1080"/>
	<g>
		<text transform="matrix(1 0 0 1 1648.028 -1396.7998)" style="font-family:'SpaceGrotesk-Bold'; font-size:28.8087px;">Para una ciudadanía constituyente</text>
		<g>
			<path d="M2126.5-1387.6c0.1,0.5-0.1,1-0.9,1.4c-0.4,0.2-0.8,0.3-1.4,0.4c-0.5,0-1,0.1-1.5,0.1c-2.2,0.1-4.5,0.1-6.7,0.3
				c-2.2,0.2-4.2-0.1-6.3-0.2c-0.2,0-0.3-0.1-0.5-0.2c-1.9,0.1-3.8,0.2-5.7,0.2c-1.1,0-2.2,0.1-3.3-0.1c-0.6-0.1-1.4,0-2.1,0h0
				c-1.4,0.1-2.9,0.1-4.3,0.2c-0.9,0-1.8,0-2.7-0.1c-0.8-0.1-1.6-0.1-2.4,0c-1.9,0.1-3.9,0.2-5.8,0.1c-1.8,0-3.6-0.1-5.5,0
				c-1.8,0.1-3.7,0.2-5.5,0.2c-1,0-2,0.1-3-0.1c-0.6-0.1-1.2-0.1-1.8,0c-1.5,0-3.1,0.1-4.6,0.2c-2.3,0.1-4.5,0.2-6.7,0
				c-0.8-0.1-1.6,0-2.5,0c-1.5,0-2.9,0.4-4.2,0.3c-1.4-0.1-2.9,0-4.3,0c-1.5,0-3.1,0.2-4.6-0.1c-0.6-0.1-1.2,0-1.8,0
				c-1.6,0.1-3.3,0.1-4.9,0.2v0c-2.6,0.1-5.1,0.2-7.7,0.3c-1.3,0.1-2.6,0.1-3.9-0.1c-0.9-0.1-1.8,0-2.7,0c-1.1,0-2.2,0.1-3.3-0.1
				c-0.8-0.1-1.6,0-2.4,0c-5,0.2-10,0.4-15,0.6c-0.6,0-1.2,0-1.8,0c-0.3,0-0.5-0.2-0.8-0.2c-0.6,0.2-1.2,0.4-2,0.3
				c-1.2-0.1-2.4,0-3.6-0.1c-1.2-0.1-2.4,0.1-3.7,0.1c-1.1,0-2.2,0.1-3.4,0.1c-1.2,0.1-2.5,0.1-3.7,0.2c-1.5,0.1-3.1,0.1-4.6,0.2
				c-0.9,0-1.8,0.1-2.7-0.1c-0.5-0.1-1-0.1-1.5-0.1c-2,0.1-4.1,0.1-6.1,0.3c-0.3,0-0.6,0.1-0.9,0c-2.4-0.1-4.9,0.1-7.3,0.2
				c-2.7,0.1-5.4,0.2-8,0.3c-1.4,0.1-2.8,0.2-4.2-0.1c-0.6-0.1-1.4,0-2.1,0c-1.3,0.1-2.4-0.1-3.6-0.2c-0.6-0.1-1.1-0.3-1.4-0.6
				c-0.4-0.3-0.5-0.6-0.3-0.9c0.2-0.5,0.9-0.9,1.5-1.3c0.1-0.1,0.4-0.1,0.5-0.1c0.9-0.1,1.8-0.1,2.8-0.2c1.4-0.1,2.8,0,4.2-0.4
				c0.5-0.1,1.2-0.2,1.8-0.1c1.9,0.3,3.8,0.1,5.7,0c0.6,0,1.2,0,1.8,0c0.3,0,0.5,0.1,0.8,0.2c1.3-0.1,2.6-0.2,4-0.2
				c1.3,0,2.7-0.1,4-0.1c0.9,0,1.8-0.2,2.7,0c1.2-0.2,2.4-0.2,3.6,0c0.6,0.1,1.5,0,2.1-0.2c1-0.2,2-0.3,3-0.3
				c1.2-0.1,2.5-0.1,3.7-0.2c1.8-0.1,3.5-0.1,5.2,0c1.2,0.1,2.5,0.1,3.7-0.1c1.6-0.2,3.1-0.1,4.6-0.1c1.4-0.1,2.9-0.1,4.3-0.2
				c0.4,0,0.8,0.1,1.1,0.2c0,0,0,0,0,0c0.6-0.1,1.1-0.4,1.7-0.2c0.9,0.2,1.8,0.1,2.7,0.1c2.6-0.1,5.1-0.2,7.7-0.3c1,0,2-0.1,3.1,0
				c0.5,0,1-0.1,1.5-0.1c0.5,0,1.1-0.1,1.5,0c1,0.2,2,0.1,3,0.1c1.3,0,2.7-0.1,4-0.2c1.8-0.1,3.6,0,5.5-0.2c0.4-0.1,1,0.1,1.4,0.2
				c0.8,0,1.6-0.1,2.4-0.1c0.5,0,1,0,1.3,0.3c0.2,0,0.4,0,0.6,0l0,0l0,0c7.1-0.3,14.1-0.6,21.2-0.9c0.8,0,1.6-0.1,2.5-0.1
				c0.4,0,0.8,0.1,1.1,0.3h0c2.4-0.1,4.7-0.2,7.1-0.3c1.3-0.1,2.6-0.1,4,0.1c0.8,0.1,1.6,0,2.4,0c4-0.2,8-0.3,12-0.5
				c1.1,0,2.2-0.1,3.3,0.1c0.6,0.1,1.2,0,1.8,0c1.3,0,2.7-0.1,4-0.2c2.7-0.1,5.5-0.2,8.2-0.3c1,0,2-0.1,3-0.3c0.3-0.1,0.8,0,1.2,0.1
				c0.3-0.1,0.6-0.2,0.9-0.2c1.9,0.1,3.9-0.1,5.8-0.1c0.4,0,0.8,0,1.2,0c0.3,0,0.5,0.1,0.8,0.2c0.6,0,1.2,0,1.8-0.1
				c2.4-0.2,4.6,0.1,6.6,0.6c0.1,0,0.1,0.1,0.2,0.1c0.3,0,0.6,0,0.9,0.1c0.5,0.1,1,0.3,1.6,0.5
				C2125.9-1388.4,2126.4-1388.1,2126.5-1387.6z M2123.9-1387.5c0.1,0,0.1,0,0.2-0.1c0,0,0,0,0,0
				C2124-1387.5,2124-1387.5,2123.9-1387.5C2123.9-1387.5,2123.9-1387.5,2123.9-1387.5z"/>
		</g>
	</g>
	<rect x="270.2" y="-1190.9" class="st0" width="1920" height="1080"/>
	<rect x="432.4" y="-1413.8" width="36.9" height="5.6"/>
	<rect x="387.9" y="-1413.8" width="36.9" height="5.6"/>
	<rect x="476.9" y="-1413.8" width="36.9" height="5.6"/>
	<rect x="435.2" y="-230.9" width="36.9" height="5.6"/>
	<rect x="390.7" y="-230.9" class="st1" width="36.9" height="5.6"/>
	<rect x="479.7" y="-230.9" class="st1" width="36.9" height="5.6"/>
	<rect x="266" y="-16.5" class="st0" width="1920" height="1080"/>
	<g>
		<text transform="matrix(1 0 0 1 1649.4259 993.1176)" style="font-family:'SpaceGrotesk-Bold'; font-size:28.8087px;">Para una ciudadanía constituyente</text>
		<g>
			<path d="M2127.9,1002.3c0.1,0.5-0.1,1-0.9,1.4c-0.4,0.2-0.8,0.3-1.4,0.4c-0.5,0-1,0.1-1.5,0.1c-2.2,0.1-4.5,0.1-6.7,0.3
				c-2.2,0.2-4.2-0.1-6.3-0.2c-0.2,0-0.3-0.1-0.5-0.2c-1.9,0.1-3.8,0.2-5.7,0.2c-1.1,0-2.2,0.1-3.3-0.1c-0.6-0.1-1.4,0-2.1,0h0
				c-1.4,0.1-2.9,0.1-4.3,0.2c-0.9,0-1.8,0-2.7-0.1c-0.8-0.1-1.6-0.1-2.4,0c-1.9,0.1-3.9,0.2-5.8,0.1c-1.8,0-3.6-0.1-5.5,0
				c-1.8,0.1-3.7,0.2-5.5,0.2c-1,0-2,0.1-3-0.1c-0.6-0.1-1.2-0.1-1.8,0c-1.5,0-3.1,0.1-4.6,0.2c-2.3,0.1-4.5,0.2-6.7,0
				c-0.8-0.1-1.6,0-2.5,0c-1.5,0-2.9,0.4-4.2,0.3c-1.4-0.1-2.9,0-4.3,0c-1.5,0-3.1,0.2-4.6-0.1c-0.6-0.1-1.2,0-1.8,0
				c-1.6,0.1-3.3,0.1-4.9,0.2l0,0c-2.6,0.1-5.1,0.2-7.7,0.3c-1.3,0.1-2.6,0.1-3.9-0.1c-0.9-0.1-1.8,0-2.7,0c-1.1,0-2.2,0.1-3.3-0.1
				c-0.8-0.1-1.6,0-2.4,0c-5,0.2-10,0.4-15,0.6c-0.6,0-1.2,0-1.8,0c-0.3,0-0.5-0.2-0.8-0.2c-0.6,0.2-1.2,0.4-2,0.3
				c-1.2-0.1-2.4,0-3.6-0.1c-1.2-0.1-2.4,0.1-3.7,0.1c-1.1,0-2.2,0.1-3.4,0.1c-1.2,0.1-2.5,0.1-3.7,0.2c-1.5,0.1-3.1,0.1-4.6,0.2
				c-0.9,0-1.8,0.1-2.7-0.1c-0.5-0.1-1-0.1-1.5-0.1c-2,0.1-4.1,0.1-6.1,0.3c-0.3,0-0.6,0.1-0.9,0c-2.4-0.1-4.9,0.1-7.3,0.2
				c-2.7,0.1-5.4,0.2-8,0.3c-1.4,0.1-2.8,0.2-4.2-0.1c-0.6-0.1-1.4,0-2.1,0c-1.3,0.1-2.4-0.1-3.6-0.2c-0.6-0.1-1.1-0.3-1.4-0.6
				c-0.4-0.3-0.5-0.6-0.3-0.9c0.2-0.5,0.9-0.9,1.5-1.3c0.1-0.1,0.4-0.1,0.5-0.1c0.9-0.1,1.8-0.1,2.8-0.2c1.4-0.1,2.8,0,4.2-0.4
				c0.5-0.1,1.2-0.2,1.8-0.1c1.9,0.3,3.8,0.1,5.7,0c0.6,0,1.2,0,1.8,0c0.3,0,0.5,0.1,0.8,0.2c1.3-0.1,2.6-0.2,4-0.2
				c1.3,0,2.7-0.1,4-0.1c0.9,0,1.8-0.2,2.7,0c1.2-0.2,2.4-0.2,3.6,0c0.6,0.1,1.5,0,2.1-0.2c1-0.2,2-0.3,3-0.3
				c1.2-0.1,2.5-0.1,3.7-0.2c1.8-0.1,3.5-0.1,5.2,0c1.2,0.1,2.5,0.1,3.7-0.1c1.6-0.2,3.1-0.1,4.6-0.1c1.4-0.1,2.9-0.1,4.3-0.2
				c0.4,0,0.8,0.1,1.1,0.2c0,0,0,0,0,0c0.6-0.1,1.1-0.4,1.7-0.2c0.9,0.2,1.8,0.1,2.7,0.1c2.6-0.1,5.1-0.2,7.7-0.3c1,0,2-0.1,3.1,0
				c0.5,0,1-0.1,1.5-0.1c0.5,0,1.1-0.1,1.5,0c1,0.2,2,0.1,3,0.1c1.3,0,2.7-0.1,4-0.2c1.8-0.1,3.6,0,5.5-0.2c0.4-0.1,1,0.1,1.4,0.2
				c0.8,0,1.6-0.1,2.4-0.1c0.5,0,1,0,1.3,0.3c0.2,0,0.4,0,0.6,0l0,0l0,0c7.1-0.3,14.1-0.6,21.2-0.9c0.8,0,1.6-0.1,2.5-0.1
				c0.4,0,0.8,0.1,1.1,0.3h0c2.4-0.1,4.7-0.2,7.1-0.3c1.3-0.1,2.6-0.1,4,0.1c0.8,0.1,1.6,0,2.4,0c4-0.2,8-0.3,12-0.5
				c1.1,0,2.2-0.1,3.3,0.1c0.6,0.1,1.2,0,1.8,0c1.3,0,2.7-0.1,4-0.2c2.7-0.1,5.5-0.2,8.2-0.3c1,0,2-0.1,3-0.3c0.3-0.1,0.8,0,1.2,0.1
				c0.3-0.1,0.6-0.2,0.9-0.2c1.9,0.1,3.9-0.1,5.8-0.1c0.4,0,0.8,0,1.2,0c0.3,0,0.5,0.1,0.8,0.2c0.6,0,1.2,0,1.8-0.1
				c2.4-0.2,4.6,0.1,6.6,0.6c0.1,0,0.1,0.1,0.2,0.1c0.3,0,0.6,0,0.9,0.1c0.5,0.1,1,0.3,1.6,0.5
				C2127.3,1001.5,2127.8,1001.8,2127.9,1002.3z M2125.3,1002.5c0.1,0,0.1,0,0.2-0.1c0,0,0,0,0,0
				C2125.4,1002.4,2125.4,1002.4,2125.3,1002.5C2125.3,1002.4,2125.3,1002.4,2125.3,1002.5z"/>
		</g>
	</g>
	<rect x="432.4" y="-1413.8" class="st1" width="36.9" height="5.6"/>
	<rect x="387.9" y="-1413.8" width="36.9" height="5.6"/>
	<rect x="476.9" y="-1413.8" class="st1" width="36.9" height="5.6"/>
	<rect x="431.9" y="943.7" class="st1" width="36.9" height="5.6"/>
	<rect x="387.4" y="943.7" class="st1" width="36.9" height="5.6"/>
	<rect x="476.4" y="943.7" width="36.9" height="5.6"/>
	<text transform="matrix(1 0 0 1 1326.8771 -1087.2021)" style="font-family:'SpaceGrotesk-Bold'; font-size:27px;">Quiénes somos</text>
	<text transform="matrix(1 0 0 1 1555.6132 -1087.2021)" style="font-family:'SpaceGrotesk-Bold'; font-size:27px;">Infórmate</text>
	<text transform="matrix(1 0 0 1 1720.8948 -1087.2021)" style="font-family:'SpaceGrotesk-Bold'; font-size:27px;">Actívate</text>
	<text transform="matrix(1 0 0 1 1870.2271 -1087.2021)" style="font-family:'SpaceGrotesk-Bold'; font-size:27px;">Contexto Factual</text>
	<text transform="matrix(1 0 0 1 1324.8771 85.7768)" style="font-family:'SpaceGrotesk-Bold'; font-size:27px;">Quiénes somos</text>
	<text transform="matrix(1 0 0 1 1553.6132 85.7768)" style="font-family:'SpaceGrotesk-Bold'; font-size:27px;">Infórmate</text>
	<text transform="matrix(1 0 0 1 1718.8948 85.7768)" style="font-family:'SpaceGrotesk-Bold'; font-size:27px;">Actívate</text>
	<text transform="matrix(1 0 0 1 1868.2271 85.7768)" style="font-family:'SpaceGrotesk-Bold'; font-size:27px;">Contexto Factual</text>
</g>
<g id="Capa_1">
	<text transform="matrix(1 0 0 1 1325.3458 -2270.3374)" style="font-family:'SpaceGrotesk-Bold'; font-size:27px;">Quiénes somos</text>
	<text transform="matrix(1 0 0 1 1554.0819 -2270.3374)" style="font-family:'SpaceGrotesk-Bold'; font-size:27px;">Infórmate</text>
	<text transform="matrix(1 0 0 1 1719.3635 -2270.3374)" style="font-family:'SpaceGrotesk-Bold'; font-size:27px;">Actívate</text>
	<text transform="matrix(1 0 0 1 1868.6958 -2270.3374)" style="font-family:'SpaceGrotesk-Bold'; font-size:27px;">Contexto Factual</text>
	<g>
		<g>
			<path d="M348.6-2288.1c7,0,11.2,4.1,12.4,9.7l-6.2,1.3c-0.4-3-2.2-5.5-6.1-5.5s-6.8,2.8-6.8,7.7c0,4.9,2.9,7.7,6.8,7.7
				s5.7-2.3,6.3-5.5l6.2,1.5c-1.4,5.5-5.5,9.6-12.6,9.6c-7.3,0-13.1-5.5-13.1-13.3C335.5-2282.6,341.3-2288.1,348.6-2288.1z"/>
			<path d="M378-2288.1c7.5,0,13.2,5.1,13.2,13.3c0,8.2-5.7,13.3-13.2,13.3c-7.5,0-13.2-5.1-13.2-13.3
				C364.8-2283,370.5-2288.1,378-2288.1z M378-2267.1c4,0,6.8-2.8,6.8-7.7c0-4.9-2.8-7.7-6.8-7.7s-6.8,2.8-6.8,7.7
				C371.2-2269.9,374-2267.1,378-2267.1z"/>
			<path d="M402.9-2287.4v3.7h0.5c1-2.1,3.1-4.2,7.8-4.2c5.9,0,9.8,4.3,9.8,10.5v15h-6.4v-14.7c0-3.8-1.9-5.7-5.4-5.7
				c-3.9,0-6.2,2.7-6.2,7.4v13h-6.4v-25.1H402.9z"/>
			<path d="M424.4-2287.4h6.3v-7.8h6.4v7.8h6.9v5.2h-6.9v13.3c0,1,0.5,1.5,1.4,1.5h4.9v5.2h-7.1c-3.3,0-5.6-2.2-5.6-5.7v-14.3h-6.3
				V-2287.4z"/>
			<path d="M460.1-2288.1c7.4,0,12.2,5.3,12.2,13v2.2H454c0.2,3.4,2.8,5.9,6.4,5.9c3.5,0,5-1.9,5.9-3.8l5.2,2.7
				c-1.4,2.7-4.4,6.6-11.3,6.6c-7.5,0-12.7-5.3-12.7-13.3C447.5-2282.8,452.7-2288.1,460.1-2288.1z M465.8-2277.7
				c-0.3-2.9-2.5-4.9-5.8-4.9c-3.4,0-5.6,2.1-6,4.9H465.8z"/>
			<path d="M481.9-2287.4l5.9,8.7h0.5l5.9-8.7h7.4l-8.8,12.5l8.9,12.7h-7.5l-5.9-8.8h-0.5l-5.9,8.8h-7.5l8.9-12.7l-8.8-12.5H481.9z"
				/>
			<path d="M503.9-2287.4h6.3v-7.8h6.4v7.8h6.9v5.2h-6.9v13.3c0,1,0.5,1.5,1.4,1.5h4.9v5.2h-7.1c-3.3,0-5.6-2.2-5.6-5.7v-14.3h-6.3
				V-2287.4z"/>
			<path d="M540.1-2288.1c7.5,0,13.2,5.1,13.2,13.3c0,8.2-5.7,13.3-13.2,13.3s-13.2-5.1-13.2-13.3
				C526.9-2283,532.6-2288.1,540.1-2288.1z M540.1-2267.1c4,0,6.8-2.8,6.8-7.7c0-4.9-2.8-7.7-6.8-7.7s-6.8,2.8-6.8,7.7
				C533.3-2269.9,536.2-2267.1,540.1-2267.1z"/>
			<path d="M559.8-2278h38.1v5.8h-38.1V-2278z"/>
		</g>
		<g>
			<g>
				<g>
					<path d="M586.2-2297c0.8,0.2,1.4,0.3,1.9,0.6c0.2,0.2,0.4,0.3,0.4,0.4c0,0.1,0,0.2-0.1,0.4c-0.1,0.5-0.3,1.1-0.3,1.6
						c0,0.5-0.6,0.9-1,1.4c0,0-0.2,0-0.3,0c-0.1,0.5-0.2,0.9-0.3,1.4c-0.1,0.3-0.1,0.5-0.5,0.7c-0.2,0.1-0.2,0.3-0.3,0.5v0
						c-0.1,0.3-0.2,0.7-0.2,1c0,0.2-0.2,0.4-0.4,0.6c-0.2,0.1-0.3,0.3-0.3,0.5c-0.1,0.5-0.2,0.9-0.5,1.4c-0.2,0.4-0.6,0.8-0.6,1.2
						c0,0.5-0.2,0.9-0.3,1.3c-0.1,0.2-0.1,0.5-0.5,0.7c-0.2,0.1-0.2,0.3-0.3,0.4c-0.1,0.4-0.2,0.7-0.2,1.1c-0.1,0.5-0.2,1.1-0.7,1.5
						c-0.2,0.2-0.1,0.4-0.2,0.6c-0.2,0.3,0.3,0.8,0,1.1c-0.3,0.3-0.3,0.6-0.4,1c-0.1,0.4-0.1,0.7-0.6,1c-0.2,0.1-0.2,0.3-0.2,0.4
						c-0.1,0.4-0.2,0.8-0.3,1.2v0c-0.1,0.6-0.3,1.2-0.4,1.8c-0.1,0.3-0.1,0.6-0.5,0.9c-0.3,0.2-0.2,0.4-0.3,0.6
						c-0.1,0.3-0.1,0.5-0.5,0.7c-0.2,0.1-0.2,0.4-0.3,0.5c-0.3,1.2-0.5,2.4-0.8,3.6c0,0.1-0.1,0.3-0.2,0.4c0,0.1-0.3,0.1-0.4,0.1
						c0.2,0.2,0.4,0.4,0.3,0.6c-0.2,0.2-0.3,0.5-0.5,0.8c-0.2,0.3-0.2,0.6-0.2,0.9c-0.1,0.3-0.1,0.5-0.2,0.8
						c-0.1,0.3-0.1,0.6-0.2,0.9c-0.1,0.4-0.2,0.7-0.2,1.1c0,0.2-0.1,0.4-0.4,0.6c-0.2,0.1-0.2,0.2-0.3,0.3c-0.1,0.5-0.3,0.9-0.2,1.5
						c0,0.1,0,0.2,0,0.2c-0.4,0.5-0.4,1.1-0.5,1.7c-0.1,0.6-0.3,1.3-0.4,1.9c-0.1,0.3-0.1,0.7-0.6,0.9c-0.2,0.1-0.2,0.3-0.2,0.5
						c0,0.3-0.4,0.5-0.8,0.7c-0.2,0.1-0.5,0.1-1,0.1c-0.4,0-0.9-0.1-1.4-0.2c-0.7-0.2-1.2-0.5-1.7-0.7c-0.1-0.1-0.2-0.1-0.1-0.2
						c0-0.2,0-0.4,0.1-0.7c0-0.3,0.2-0.7-0.1-1.1c-0.1-0.2-0.1-0.3,0-0.4c0.6-0.3,0.6-0.8,0.7-1.3c0-0.1,0.1-0.3,0.2-0.4
						c0-0.1,0.3-0.1,0.4-0.1c0-0.3,0-0.7,0.2-0.9c0.2-0.3,0.1-0.7,0.3-0.9c0.2-0.2-0.1-0.5,0.2-0.6c-0.2-0.3,0-0.6,0.3-0.8
						c0.2-0.1,0.2-0.3,0-0.5c-0.2-0.3-0.2-0.5-0.1-0.8c0.1-0.3,0.2-0.6,0.2-0.9c0-0.4,0.2-0.8,0.6-1.2c0.2-0.3,0.4-0.5,0.3-0.9
						c-0.1-0.4,0.3-0.7,0.3-1.1c0-0.4,0.1-0.7,0.2-1c0-0.1,0.2-0.1,0.5-0.2h0c-0.1-0.2-0.4-0.4-0.2-0.5c0.4-0.1,0.4-0.4,0.4-0.6
						c0.1-0.6,0.2-1.2,0.4-1.8c0.1-0.2,0.2-0.5,0.3-0.7c0.1-0.1,0-0.2,0-0.4c0-0.1,0-0.3,0.2-0.3c0.4-0.2,0.4-0.4,0.5-0.7
						c0.1-0.3,0.2-0.6,0.2-1c0-0.5,0.5-0.8,0.4-1.3c0-0.1,0.3-0.2,0.5-0.3c0-0.2,0.1-0.4,0.1-0.6c0-0.1,0.2-0.2,0.5-0.2
						c0,0,0-0.1,0-0.1h0c0.4-1.7,0.7-3.4,1.1-5.1c0-0.2,0.1-0.4,0.2-0.6c0-0.1,0.2-0.1,0.5-0.2l0,0c0.1-0.6,0.2-1.1,0.4-1.7
						c0.1-0.3,0.1-0.6,0.5-0.9c0.2-0.1,0.2-0.4,0.3-0.6c0.2-1,0.4-1.9,0.6-2.9c0.1-0.3,0.1-0.5,0.5-0.7c0.2-0.1,0.2-0.3,0.2-0.4
						c0.1-0.3,0.2-0.6,0.2-0.9c0.1-0.7,0.3-1.3,0.4-2c0-0.2,0.1-0.5,0-0.8c-0.1-0.1,0.2-0.2,0.2-0.2c-0.1-0.1-0.2-0.2-0.2-0.3
						c0.4-0.4,0.3-0.9,0.5-1.3c0-0.1,0-0.2,0.1-0.3c0.1-0.1,0.3-0.1,0.4-0.1c0-0.1,0.1-0.3,0.1-0.4c-0.1-0.6,0.7-1,1.6-1.3
						c0,0,0.1,0,0.2,0c0.1-0.1,0.1-0.1,0.2-0.2c0.3-0.1,0.6-0.1,0.9-0.2C585-2297.1,585.5-2297.1,586.2-2297z M586.2-2296.3
						C586.2-2296.3,586.1-2296.4,586.2-2296.3C586.1-2296.4,586.1-2296.4,586.2-2296.3C586.1-2296.4,586.1-2296.4,586.2-2296.3
						C586.2-2296.3,586.2-2296.3,586.2-2296.3z"/>
				</g>
			</g>
		</g>
	</g>
	<rect x="376.8" y="-2029" style="fill:none;" width="1631.5" height="641.7"/>
	<text transform="matrix(1 0 0 1 376.8006 -2004.9429)"><tspan x="0" y="0" style="font-family:'Karla-Bold'; font-size:35px;">Declaración</tspan><tspan x="0" y="72" style="font-family:'SpaceGrotesk-Bold'; font-size:60px; letter-spacing:1;">Contexto es una iniciativa que busca contribuir a un </tspan><tspan x="0" y="144" style="font-family:'SpaceGrotesk-Bold'; font-size:60px; letter-spacing:1;">proceso constituyente participativo, transparente, </tspan><tspan x="0" y="216" style="font-family:'SpaceGrotesk-Bold'; font-size:60px; letter-spacing:1;">informado y democrático que garantice la </tspan><tspan x="0" y="288" style="font-family:'SpaceGrotesk-Bold'; font-size:60px; letter-spacing:1;">representación y participación de diversos sectores </tspan><tspan x="0" y="360" style="font-family:'SpaceGrotesk-Bold'; font-size:60px; letter-spacing:1;">sociales en el proceso político que se inicia en Chile. </tspan></text>
	<g>
		<g>
			<path d="M354.1-1102.5c7,0,11.2,4.1,12.4,9.7l-6.2,1.3c-0.4-3-2.2-5.5-6.1-5.5c-3.9,0-6.8,2.8-6.8,7.7c0,4.9,2.9,7.7,6.8,7.7
				c3.9,0,5.7-2.3,6.3-5.5l6.2,1.5c-1.4,5.5-5.5,9.6-12.6,9.6c-7.3,0-13.1-5.5-13.1-13.3C341.1-1097,346.9-1102.5,354.1-1102.5z"/>
			<path d="M383.6-1102.5c7.5,0,13.2,5.1,13.2,13.3c0,8.2-5.7,13.3-13.2,13.3c-7.5,0-13.2-5.1-13.2-13.3
				C370.4-1097.4,376.1-1102.5,383.6-1102.5z M383.6-1081.5c4,0,6.8-2.8,6.8-7.7c0-4.9-2.8-7.7-6.8-7.7s-6.8,2.8-6.8,7.7
				C376.8-1084.4,379.6-1081.5,383.6-1081.5z"/>
			<path d="M408.5-1101.8v3.7h0.5c1-2.1,3.1-4.2,7.8-4.2c5.9,0,9.8,4.3,9.8,10.5v15h-6.4v-14.7c0-3.8-1.9-5.7-5.4-5.7
				c-3.9,0-6.2,2.7-6.2,7.4v13h-6.4v-25.1H408.5z"/>
			<path d="M430-1101.8h6.3v-7.8h6.4v7.8h6.9v5.2h-6.9v13.3c0,1,0.5,1.5,1.4,1.5h4.9v5.2h-7.1c-3.3,0-5.6-2.2-5.6-5.7v-14.3H430
				V-1101.8z"/>
			<path d="M465.7-1102.5c7.4,0,12.2,5.3,12.2,13v2.2h-18.3c0.2,3.4,2.8,5.9,6.4,5.9c3.5,0,5-1.9,5.9-3.8l5.2,2.7
				c-1.4,2.7-4.4,6.6-11.3,6.6c-7.5,0-12.7-5.3-12.7-13.3C453-1097.2,458.3-1102.5,465.7-1102.5z M471.4-1092.1
				c-0.3-2.9-2.5-4.9-5.8-4.9c-3.4,0-5.6,2.1-6,4.9H471.4z"/>
			<path d="M487.4-1101.8l5.9,8.7h0.5l5.9-8.7h7.4l-8.8,12.5l8.9,12.7h-7.5l-5.9-8.8h-0.5l-5.9,8.8h-7.5l8.9-12.7l-8.8-12.5H487.4z"
				/>
			<path d="M509.5-1101.8h6.3v-7.8h6.4v7.8h6.9v5.2h-6.9v13.3c0,1,0.5,1.5,1.4,1.5h4.9v5.2h-7.1c-3.3,0-5.6-2.2-5.6-5.7v-14.3h-6.3
				V-1101.8z"/>
			<path d="M545.7-1102.5c7.5,0,13.2,5.1,13.2,13.3c0,8.2-5.7,13.3-13.2,13.3s-13.2-5.1-13.2-13.3
				C532.5-1097.4,538.2-1102.5,545.7-1102.5z M545.7-1081.5c4,0,6.8-2.8,6.8-7.7c0-4.9-2.8-7.7-6.8-7.7s-6.8,2.8-6.8,7.7
				C538.9-1084.4,541.8-1081.5,545.7-1081.5z"/>
			<path d="M565.4-1092.5h38.1v5.8h-38.1V-1092.5z"/>
		</g>
		<g>
			<g>
				<g>
					<path d="M591.8-1111.4c0.8,0.2,1.4,0.3,1.9,0.6c0.2,0.2,0.4,0.3,0.4,0.4c0,0.1,0,0.2-0.1,0.4c-0.1,0.5-0.3,1.1-0.3,1.6
						c0,0.5-0.6,0.9-1,1.4c0,0-0.2,0-0.3,0c-0.1,0.5-0.2,0.9-0.3,1.4c-0.1,0.3-0.1,0.5-0.5,0.7c-0.2,0.1-0.2,0.3-0.3,0.5h0
						c-0.1,0.3-0.1,0.7-0.2,1c0,0.2-0.2,0.4-0.4,0.6c-0.2,0.1-0.3,0.3-0.3,0.5c-0.1,0.5-0.2,0.9-0.5,1.4c-0.2,0.4-0.6,0.8-0.6,1.2
						c0,0.5-0.2,0.9-0.3,1.3c-0.1,0.2-0.1,0.5-0.5,0.7c-0.2,0.1-0.2,0.3-0.3,0.4c-0.1,0.4-0.2,0.7-0.2,1.1c-0.1,0.5-0.2,1.1-0.7,1.5
						c-0.2,0.2-0.1,0.4-0.2,0.6c-0.2,0.3,0.3,0.8,0,1.1c-0.3,0.3-0.3,0.6-0.4,1c-0.1,0.4-0.1,0.7-0.6,1c-0.2,0.1-0.2,0.3-0.2,0.4
						c-0.1,0.4-0.2,0.8-0.3,1.2c-0.1,0.6-0.3,1.2-0.4,1.8c-0.1,0.3-0.1,0.6-0.5,0.9c-0.3,0.2-0.2,0.4-0.3,0.6
						c-0.1,0.3-0.1,0.5-0.5,0.7c-0.2,0.1-0.2,0.4-0.3,0.5c-0.3,1.2-0.5,2.4-0.8,3.6c0,0.1-0.1,0.3-0.2,0.4c0,0.1-0.3,0.1-0.4,0.1
						c0.2,0.2,0.4,0.4,0.3,0.6c-0.2,0.2-0.3,0.5-0.5,0.8c-0.2,0.3-0.2,0.6-0.2,0.9c-0.1,0.3-0.1,0.5-0.2,0.8
						c-0.1,0.3-0.1,0.6-0.2,0.9c-0.1,0.4-0.2,0.7-0.2,1.1c0,0.2-0.1,0.4-0.4,0.6c-0.2,0.1-0.2,0.2-0.3,0.3c-0.1,0.5-0.3,0.9-0.2,1.5
						c0,0.1,0,0.2,0,0.2c-0.4,0.5-0.3,1.1-0.5,1.7c-0.1,0.6-0.3,1.3-0.4,1.9c-0.1,0.3-0.1,0.7-0.6,0.9c-0.2,0.1-0.2,0.3-0.2,0.5
						c0,0.3-0.4,0.5-0.8,0.7c-0.2,0.1-0.5,0.1-1,0.1c-0.4,0-0.9-0.1-1.4-0.2c-0.7-0.2-1.2-0.5-1.7-0.7c-0.1-0.1-0.2-0.1-0.1-0.2
						c0-0.2,0-0.4,0.1-0.7c0-0.3,0.2-0.7-0.1-1.1c-0.1-0.2-0.1-0.3,0-0.4c0.6-0.3,0.6-0.8,0.7-1.3c0-0.1,0.1-0.3,0.2-0.4
						c0-0.1,0.3-0.1,0.4-0.1c0-0.3,0-0.7,0.2-0.9c0.2-0.3,0.1-0.7,0.3-0.9c0.2-0.2-0.1-0.5,0.2-0.6c-0.2-0.3,0-0.6,0.3-0.8
						c0.2-0.1,0.2-0.3,0-0.5c-0.2-0.3-0.2-0.5-0.1-0.8c0.1-0.3,0.2-0.6,0.2-0.9c0-0.4,0.2-0.8,0.6-1.2c0.2-0.3,0.4-0.5,0.3-0.9
						c-0.1-0.4,0.3-0.7,0.3-1.1c0-0.4,0.1-0.7,0.2-1c0-0.1,0.2-0.1,0.5-0.2c-0.1-0.2-0.4-0.4-0.2-0.5c0.4-0.1,0.4-0.4,0.4-0.6
						c0.1-0.6,0.2-1.2,0.4-1.8c0.1-0.2,0.2-0.5,0.3-0.7c0.1-0.1,0-0.3,0-0.4c0-0.1,0-0.3,0.2-0.3c0.4-0.2,0.4-0.4,0.5-0.7
						c0.1-0.3,0.2-0.6,0.2-1c0-0.5,0.5-0.8,0.4-1.3c0-0.1,0.3-0.2,0.5-0.3c0-0.2,0.1-0.4,0.1-0.6c0-0.1,0.2-0.2,0.5-0.2
						c0,0,0-0.1,0-0.1h0l0,0c0.4-1.7,0.7-3.4,1.1-5.1c0-0.2,0.1-0.4,0.2-0.6c0-0.1,0.2-0.1,0.5-0.2v0c0.1-0.6,0.2-1.1,0.4-1.7
						c0.1-0.3,0.1-0.6,0.5-0.9c0.2-0.1,0.2-0.4,0.3-0.6c0.2-1,0.4-1.9,0.6-2.9c0.1-0.3,0.1-0.5,0.5-0.7c0.2-0.1,0.2-0.3,0.2-0.4
						c0.1-0.3,0.2-0.6,0.2-0.9l0,0c0.1-0.7,0.3-1.3,0.4-2c0-0.2,0.1-0.5,0-0.8c-0.1-0.1,0.2-0.2,0.2-0.2c-0.1-0.1-0.2-0.2-0.2-0.3
						c0.4-0.4,0.3-0.9,0.5-1.3c0-0.1,0-0.2,0.1-0.3c0.1-0.1,0.3-0.1,0.4-0.1c0-0.1,0.1-0.3,0.1-0.4c-0.1-0.6,0.7-1,1.6-1.3
						c0,0,0.1,0,0.2,0c0.1-0.1,0.1-0.1,0.2-0.2c0.3-0.1,0.6-0.1,0.9-0.2C590.6-1111.5,591.1-1111.5,591.8-1111.4z M591.8-1110.8
						C591.8-1110.8,591.7-1110.8,591.8-1110.8C591.7-1110.8,591.7-1110.8,591.8-1110.8C591.7-1110.8,591.7-1110.8,591.8-1110.8
						C591.7-1110.8,591.8-1110.8,591.8-1110.8z"/>
				</g>
			</g>
		</g>
	</g>
	<rect x="382.4" y="-843.4" style="fill:none;" width="1690.2" height="522.9"/>
	<text transform="matrix(1 0 0 1 382.3919 -819.3922)"><tspan x="0" y="0" style="font-family:'Karla-Bold'; font-size:35px;">Noticia</tspan><tspan x="0" y="72" style="font-family:'SpaceGrotesk-Bold'; font-size:60px; letter-spacing:1;">Campaña por un Plebiscito Seguro y Participativo</tspan><tspan x="0" y="150" style="font-family:'SpaceGrotesk-Regular'; font-size:50px; letter-spacing:1;">Más de 200 personas y organizaciones han suscrito a la iniciativa </tspan><tspan x="0" y="210" style="font-family:'SpaceGrotesk-Regular'; font-size:50px; letter-spacing:1;">impulsada por Contexto, para promover un Plebiscito Seguro y </tspan><tspan x="0" y="270" style="font-family:'SpaceGrotesk-Regular'; font-size:50px; letter-spacing:1;">Participativo.  </tspan><tspan x="0" y="347" style="font-family:'Karla-Bold'; font-size:35px;">Seguir leyendo.. </tspan></text>
	<g>
		<g>
			<path d="M350,71.9c7,0,11.2,4.1,12.4,9.7l-6.2,1.3c-0.4-3-2.2-5.5-6.1-5.5c-3.9,0-6.8,2.8-6.8,7.7c0,4.9,2.9,7.7,6.8,7.7
				c3.9,0,5.7-2.3,6.3-5.5l6.2,1.5c-1.4,5.5-5.5,9.6-12.6,9.6c-7.3,0-13.1-5.5-13.1-13.3C336.9,77.3,342.7,71.9,350,71.9z"/>
			<path d="M379.4,71.9c7.5,0,13.2,5.1,13.2,13.3c0,8.2-5.7,13.3-13.2,13.3c-7.5,0-13.2-5.1-13.2-13.3
				C366.2,76.9,371.9,71.9,379.4,71.9z M379.4,92.8c4,0,6.8-2.8,6.8-7.7c0-4.9-2.8-7.7-6.8-7.7c-4,0-6.8,2.8-6.8,7.7
				C372.6,90,375.4,92.8,379.4,92.8z"/>
			<path d="M404.3,72.6v3.7h0.5c1-2.1,3.1-4.2,7.8-4.2c5.9,0,9.8,4.3,9.8,10.5v15h-6.4V83c0-3.8-1.9-5.7-5.4-5.7
				c-3.9,0-6.2,2.7-6.2,7.4v13H398V72.6H404.3z"/>
			<path d="M425.8,72.6h6.3v-7.8h6.4v7.8h6.9v5.2h-6.9V91c0,1,0.5,1.5,1.4,1.5h4.9v5.2h-7.1c-3.3,0-5.6-2.2-5.6-5.7V77.7h-6.3V72.6z
				"/>
			<path d="M461.5,71.9c7.4,0,12.2,5.3,12.2,13V87h-18.3c0.2,3.4,2.8,5.9,6.4,5.9c3.5,0,5-1.9,5.9-3.8l5.2,2.7
				c-1.4,2.7-4.4,6.6-11.3,6.6c-7.5,0-12.7-5.3-12.7-13.3C448.8,77.1,454.1,71.9,461.5,71.9z M467.2,82.2c-0.3-2.9-2.5-4.9-5.8-4.9
				c-3.4,0-5.6,2.1-6,4.9H467.2z"/>
			<path d="M483.2,72.6l5.9,8.7h0.5l5.9-8.7h7.4L494.2,85l8.9,12.7h-7.5l-5.9-8.8h-0.5l-5.9,8.8h-7.5l8.9-12.7l-8.8-12.5H483.2z"/>
			<path d="M505.3,72.6h6.3v-7.8h6.4v7.8h6.9v5.2H518V91c0,1,0.5,1.5,1.4,1.5h4.9v5.2h-7.1c-3.3,0-5.6-2.2-5.6-5.7V77.7h-6.3V72.6z"
				/>
			<path d="M541.5,71.9c7.5,0,13.2,5.1,13.2,13.3c0,8.2-5.7,13.3-13.2,13.3s-13.2-5.1-13.2-13.3C528.3,76.9,534,71.9,541.5,71.9z
				 M541.5,92.8c4,0,6.8-2.8,6.8-7.7c0-4.9-2.8-7.7-6.8-7.7s-6.8,2.8-6.8,7.7C534.7,90,537.6,92.8,541.5,92.8z"/>
			<path d="M561.2,81.9h38.1v5.8h-38.1V81.9z"/>
		</g>
		<g>
			<g>
				<g>
					<path d="M587.6,63c0.8,0.2,1.4,0.3,1.9,0.6c0.2,0.2,0.4,0.3,0.4,0.4c0,0.1,0,0.2-0.1,0.4c-0.1,0.5-0.3,1.1-0.3,1.6
						c0,0.5-0.6,0.9-1,1.4c0,0-0.2,0-0.3,0c-0.1,0.5-0.2,0.9-0.3,1.4c-0.1,0.3-0.1,0.5-0.5,0.7c-0.2,0.1-0.2,0.3-0.3,0.5
						c-0.1,0.3-0.2,0.7-0.2,1c0,0.2-0.2,0.4-0.4,0.6c-0.2,0.1-0.3,0.3-0.3,0.5c-0.1,0.5-0.2,0.9-0.5,1.4c-0.2,0.4-0.6,0.8-0.6,1.2
						c0,0.5-0.2,0.9-0.3,1.3c-0.1,0.2-0.1,0.5-0.5,0.7c-0.2,0.1-0.2,0.3-0.3,0.4c-0.1,0.4-0.2,0.7-0.2,1.1c-0.1,0.5-0.2,1.1-0.7,1.5
						c-0.2,0.2-0.1,0.4-0.2,0.6c-0.2,0.3,0.3,0.8,0,1.1c-0.3,0.3-0.3,0.6-0.4,1c-0.1,0.4-0.1,0.7-0.6,1c-0.2,0.1-0.2,0.3-0.2,0.4
						c-0.1,0.4-0.2,0.8-0.3,1.2h0c-0.1,0.6-0.3,1.2-0.4,1.8c-0.1,0.3-0.1,0.6-0.5,0.9c-0.3,0.2-0.2,0.4-0.3,0.6
						c-0.1,0.3-0.1,0.5-0.5,0.7c-0.2,0.1-0.2,0.4-0.3,0.5c-0.3,1.2-0.5,2.4-0.8,3.6c0,0.1-0.1,0.3-0.2,0.4c0,0.1-0.3,0.1-0.4,0.1
						c0.2,0.2,0.4,0.4,0.3,0.6c-0.2,0.2-0.3,0.5-0.5,0.8c-0.2,0.3-0.2,0.6-0.2,0.9c-0.1,0.3-0.1,0.5-0.2,0.8
						c-0.1,0.3-0.1,0.6-0.2,0.9c-0.1,0.4-0.2,0.7-0.2,1.1c0,0.2-0.1,0.4-0.4,0.6c-0.2,0.1-0.2,0.2-0.3,0.3c-0.1,0.5-0.3,0.9-0.2,1.5
						c0,0.1,0,0.2,0,0.2c-0.4,0.5-0.4,1.1-0.5,1.7c-0.1,0.6-0.3,1.3-0.4,1.9c-0.1,0.3-0.1,0.7-0.6,0.9c-0.2,0.1-0.2,0.3-0.2,0.5
						c0,0.3-0.4,0.5-0.8,0.7c-0.2,0.1-0.5,0.1-1,0.1c-0.4,0-0.9-0.1-1.4-0.2c-0.7-0.2-1.2-0.5-1.7-0.7c-0.1-0.1-0.2-0.1-0.1-0.2
						c0-0.2,0-0.4,0.1-0.7c0-0.3,0.2-0.7-0.1-1.1c-0.1-0.2-0.1-0.3,0-0.4c0.6-0.3,0.6-0.8,0.7-1.3c0-0.1,0.1-0.3,0.2-0.4
						c0-0.1,0.3-0.1,0.4-0.1c0-0.3,0-0.7,0.2-0.9c0.2-0.3,0.1-0.7,0.3-0.9c0.2-0.2-0.1-0.5,0.2-0.6c-0.2-0.3,0-0.6,0.3-0.8
						c0.2-0.1,0.2-0.3,0-0.5c-0.2-0.3-0.2-0.5-0.1-0.8c0.1-0.3,0.2-0.6,0.2-0.9c0-0.4,0.2-0.8,0.6-1.2c0.2-0.3,0.4-0.5,0.3-0.9
						c-0.1-0.4,0.3-0.7,0.3-1.1c0-0.4,0.1-0.7,0.2-1c0-0.1,0.2-0.1,0.5-0.2c-0.1-0.2-0.4-0.4-0.2-0.5c0.4-0.1,0.4-0.4,0.4-0.6
						c0.1-0.6,0.2-1.2,0.4-1.8c0.1-0.2,0.2-0.5,0.3-0.7c0.1-0.1,0-0.3,0-0.4c0-0.1,0-0.3,0.2-0.3c0.4-0.2,0.4-0.4,0.5-0.7
						c0.1-0.3,0.2-0.6,0.2-1c0-0.5,0.5-0.8,0.4-1.3c0-0.1,0.3-0.2,0.5-0.3c0-0.2,0.1-0.4,0.1-0.6c0-0.1,0.2-0.2,0.5-0.2
						c0,0,0-0.1,0-0.1c0.4-1.7,0.7-3.4,1.1-5.1c0-0.2,0.1-0.4,0.2-0.6c0-0.1,0.2-0.1,0.5-0.2c0.1-0.6,0.2-1.1,0.4-1.7
						c0.1-0.3,0.1-0.6,0.5-0.9c0.2-0.1,0.2-0.4,0.3-0.6c0.2-1,0.4-1.9,0.6-2.9c0.1-0.3,0.1-0.5,0.5-0.7c0.2-0.1,0.2-0.3,0.2-0.4
						c0.1-0.3,0.2-0.6,0.2-0.9c0.1-0.7,0.3-1.3,0.4-2c0-0.2,0.1-0.5,0-0.8c-0.1-0.1,0.2-0.2,0.2-0.2c-0.1-0.1-0.2-0.2-0.2-0.3
						c0.4-0.4,0.3-0.9,0.5-1.3c0-0.1,0-0.2,0.1-0.3c0.1-0.1,0.3-0.1,0.4-0.1c0-0.1,0.1-0.3,0.1-0.4c-0.1-0.6,0.7-1,1.6-1.3
						c0,0,0.1,0,0.2,0c0.1-0.1,0.1-0.1,0.2-0.2c0.3-0.1,0.6-0.1,0.9-0.2C586.4,62.8,586.9,62.8,587.6,63z M587.6,63.6
						C587.6,63.6,587.5,63.6,587.6,63.6C587.5,63.5,587.5,63.5,587.6,63.6C587.5,63.6,587.5,63.6,587.6,63.6
						C587.5,63.6,587.6,63.6,587.6,63.6z"/>
				</g>
			</g>
		</g>
	</g>
	<rect x="378.2" y="351" style="fill:none;" width="1690.2" height="483.7"/>
	<text transform="matrix(1 0 0 1 378.1978 374.9743)"><tspan x="0" y="0" style="font-family:'Karla-Bold'; font-size:35px;">Documentos Destacados</tspan><tspan x="0" y="72" style="font-family:'SpaceGrotesk-Bold'; font-size:60px; letter-spacing:1;">Cómo se han redactado las Constituciones en Chile</tspan><tspan x="0" y="150" style="font-family:'SpaceGrotesk-Regular'; font-size:50px; letter-spacing:1;">En este documento se explica el modo en que se hicieron las 10 </tspan><tspan x="0" y="210" style="font-family:'SpaceGrotesk-Regular'; font-size:50px; letter-spacing:1;">constituciones que han regido en Chile desde su independencia. </tspan><tspan x="0" y="270" style="font-family:'SpaceGrotesk-Regular'; font-size:50px; letter-spacing:1;">Además, se da cuenta del contexto en que surgieron y los </tspan><tspan x="0" y="330" style="font-family:'SpaceGrotesk-Regular'; font-size:50px; letter-spacing:1;">mecanismos para escribirla. </tspan><tspan x="0" y="416.6" style="font-family:'Karla-Bold'; font-size:35px;">Leer más</tspan><tspan x="149.9" y="416.6" style="font-family:'MyriadPro-Regular'; font-size:35px;">…</tspan></text>
	<g>
		<g>
			<polygon class="st2" points="460.2,303.8 382,303.8 382,197.6 433.7,197.6 446.9,210.9 460.2,224.1 			"/>
			<polyline class="st3" points="433.7,197.6 433.7,223.6 460.2,223.6 			"/>
		</g>
		<g>
			<g>
				<polyline class="st3" points="434.9,254.5 421.1,268.3 407.2,254.5 				"/>
				<line class="st3" x1="421.1" y1="268.3" x2="421.1" y2="234.3"/>
			</g>
			<line class="st3" x1="405.9" y1="277.2" x2="436.2" y2="277.2"/>
		</g>
	</g>
	<g>
		<rect x="381.5" y="-2141" class="st4" width="73.2" height="73.2"/>
		<polyline class="st5" points="396.8,-2099.4 415.7,-2085.7 439.4,-2123.2 		"/>
	</g>
	<g>
		<path class="st6" d="M490.8-904.4c0,0-15.9,32.7-53.2,32.7s-53.2-32.7-53.2-32.7s15.9-32.7,53.2-32.7S490.8-904.4,490.8-904.4z"/>
		<circle class="st3" cx="437.6" cy="-905.3" r="15.9"/>
	</g>
	<g>
		<text transform="matrix(1 0 0 1 1653.6201 -181.2489)" style="font-family:'SpaceGrotesk-Bold'; font-size:28.8087px;">Para una ciudadanía constituyente</text>
		<g>
			<path d="M2132.1-172.1c0.1,0.5-0.1,1-0.9,1.4c-0.4,0.2-0.8,0.3-1.4,0.4c-0.5,0-1,0.1-1.5,0.1c-2.2,0.1-4.5,0.1-6.7,0.3
				c-2.2,0.2-4.2-0.1-6.3-0.2c-0.2,0-0.3-0.1-0.5-0.2c-1.9,0.1-3.8,0.2-5.7,0.2c-1.1,0-2.2,0.1-3.3-0.1c-0.6-0.1-1.4,0-2.1,0h0
				c-1.4,0.1-2.9,0.1-4.3,0.2c-0.9,0-1.8,0-2.7-0.1c-0.8-0.1-1.6-0.1-2.4,0c-1.9,0.1-3.9,0.2-5.8,0.1c-1.8,0-3.6-0.1-5.5,0
				c-1.8,0.1-3.7,0.2-5.5,0.2c-1,0-2,0.1-3-0.1c-0.6-0.1-1.2-0.1-1.8,0c-1.5,0-3.1,0.1-4.6,0.2c-2.3,0.1-4.5,0.2-6.7,0
				c-0.8-0.1-1.6,0-2.5,0c-1.5,0-2.9,0.4-4.2,0.3c-1.4-0.1-2.9,0-4.3,0c-1.5,0-3.1,0.2-4.6-0.1c-0.6-0.1-1.2,0-1.8,0
				c-1.6,0.1-3.3,0.1-4.9,0.2l0,0c-2.6,0.1-5.1,0.2-7.7,0.3c-1.3,0.1-2.6,0.1-3.9-0.1c-0.9-0.1-1.8,0-2.7,0c-1.1,0-2.2,0.1-3.3-0.1
				c-0.8-0.1-1.6,0-2.4,0c-5,0.2-10,0.4-15,0.6c-0.6,0-1.2,0-1.8,0c-0.3,0-0.5-0.2-0.8-0.2c-0.6,0.2-1.2,0.4-2,0.3
				c-1.2-0.1-2.4,0-3.6-0.1c-1.2-0.1-2.4,0.1-3.7,0.1c-1.1,0-2.2,0.1-3.4,0.1c-1.2,0.1-2.5,0.1-3.7,0.2c-1.5,0.1-3.1,0.1-4.6,0.2
				c-0.9,0-1.8,0.1-2.7-0.1c-0.5-0.1-1-0.1-1.5-0.1c-2,0.1-4.1,0.1-6.1,0.3c-0.3,0-0.6,0.1-0.9,0c-2.4-0.1-4.9,0.1-7.3,0.2
				c-2.7,0.1-5.4,0.2-8,0.3c-1.4,0.1-2.8,0.2-4.2-0.1c-0.6-0.1-1.4,0-2.1,0c-1.3,0.1-2.4-0.1-3.6-0.2c-0.6-0.1-1.1-0.3-1.4-0.6
				c-0.4-0.3-0.5-0.6-0.3-0.9c0.2-0.5,0.9-0.9,1.5-1.3c0.1-0.1,0.4-0.1,0.5-0.1c0.9-0.1,1.8-0.1,2.8-0.2c1.4-0.1,2.8,0,4.2-0.4
				c0.5-0.1,1.2-0.2,1.8-0.1c1.9,0.3,3.8,0.1,5.7,0c0.6,0,1.2,0,1.8,0c0.3,0,0.5,0.1,0.8,0.2c1.3-0.1,2.6-0.2,4-0.2
				c1.3,0,2.7-0.1,4-0.1c0.9,0,1.8-0.2,2.7,0c1.2-0.2,2.4-0.2,3.6,0c0.6,0.1,1.5,0,2.1-0.2c1-0.2,2-0.3,3-0.3
				c1.2-0.1,2.5-0.1,3.7-0.2c1.8-0.1,3.5-0.1,5.2,0c1.2,0.1,2.5,0.1,3.7-0.1c1.6-0.2,3.1-0.1,4.6-0.1c1.4-0.1,2.9-0.1,4.3-0.2
				c0.4,0,0.8,0.1,1.1,0.2c0,0,0,0,0,0c0.6-0.1,1.1-0.4,1.7-0.2c0.9,0.2,1.8,0.1,2.7,0.1c2.6-0.1,5.1-0.2,7.7-0.3c1,0,2-0.1,3.1,0
				c0.5,0,1-0.1,1.5-0.1c0.5,0,1.1-0.1,1.5,0c1,0.2,2,0.1,3,0.1c1.3,0,2.7-0.1,4-0.2c1.8-0.1,3.6,0,5.5-0.2c0.4-0.1,1,0.1,1.4,0.2
				c0.8,0,1.6-0.1,2.4-0.1c0.5,0,1,0,1.3,0.3c0.2,0,0.4,0,0.6,0l0,0l0,0c7.1-0.3,14.1-0.6,21.2-0.9c0.8,0,1.6-0.1,2.5-0.1
				c0.4,0,0.8,0.1,1.1,0.3h0c2.4-0.1,4.7-0.2,7.1-0.3c1.3-0.1,2.6-0.1,4,0.1c0.8,0.1,1.6,0,2.4,0c4-0.2,8-0.3,12-0.5
				c1.1,0,2.2-0.1,3.3,0.1c0.6,0.1,1.2,0,1.8,0c1.3,0,2.7-0.1,4-0.2c2.7-0.1,5.5-0.2,8.2-0.3c1,0,2-0.1,3-0.3c0.3-0.1,0.8,0,1.2,0.1
				c0.3-0.1,0.6-0.2,0.9-0.2c1.9,0.1,3.9-0.1,5.8-0.1c0.4,0,0.8,0,1.2,0c0.3,0,0.5,0.1,0.8,0.2c0.6,0,1.2,0,1.8-0.1
				c2.4-0.2,4.6,0.1,6.6,0.6c0.1,0,0.1,0.1,0.2,0.1c0.3,0,0.6,0,0.9,0.1c0.5,0.1,1,0.3,1.6,0.5
				C2131.5-172.9,2132-172.6,2132.1-172.1z M2129.5-171.9c0.1,0,0.1,0,0.2-0.1c0,0,0,0,0,0C2129.6-172,2129.6-172,2129.5-171.9
				C2129.5-171.9,2129.5-171.9,2129.5-171.9z"/>
		</g>
	</g>
	<g>
		<g>
			<polygon class="st2" points="94.1,118.1 15.9,118.1 15.9,11.9 67.6,11.9 80.8,25.2 94.1,38.4 			"/>
			<polyline class="st3" points="67.6,11.9 67.6,37.9 94.1,37.9 			"/>
		</g>
		<g>
			<g>
				<polyline class="st3" points="68.9,68.7 55,82.6 41.1,68.7 				"/>
				<line class="st3" x1="55" y1="82.6" x2="55" y2="48.5"/>
			</g>
			<line class="st3" x1="39.9" y1="91.5" x2="70.1" y2="91.5"/>
		</g>
	</g>
	<g>
		<path class="st6" d="M123.3-93c0,0-15.9,32.7-53.2,32.7S16.9-93,16.9-93s15.9-32.7,53.2-32.7S123.3-93,123.3-93z"/>
		<circle class="st3" cx="70.1" cy="-93.9" r="15.9"/>
	</g>
	<g>
		<rect x="-193.8" y="49.2" class="st4" width="73.2" height="73.2"/>
		<polyline class="st5" points="-178.5,90.8 -159.6,104.5 -135.9,67 		"/>
	</g>
</g>
<g id="texto">
</g>
</svg>
