<?xml version="1.0" encoding="utf-8"?>
<!-- Generator: Adobe Illustrator 24.2.0, SVG Export Plug-In . SVG Version: 6.00 Build 0)  -->
<svg version="1.1" id="Capa_1" xmlns="http://www.w3.org/2000/svg" xmlns:xlink="http://www.w3.org/1999/xlink" x="0px" y="0px"
	 viewBox="0 0 112 70.4" style="enable-background:new 0 0 112 70.4;" xml:space="preserve">
<style type="text/css">
	.st0{fill:#F3CF07;stroke:#000000;stroke-width:5;stroke-miterlimit:10;}
	.st1{fill:none;stroke:#000000;stroke-width:5;stroke-miterlimit:10;}
	.st2{fill:#FF5439;stroke:#000000;stroke-width:5;stroke-miterlimit:10;}
	.st3{fill:#3A92FF;stroke:#000000;stroke-width:5;stroke-miterlimit:10;}
	.st4{fill:none;stroke:#000000;stroke-width:6;stroke-miterlimit:10;}
</style>
<g>
	<g>
		<polygon class="st0" points="129.4,-173.5 51.2,-173.5 51.2,-279.7 102.9,-279.7 116.2,-266.5 129.4,-253.2 		"/>
		<polyline class="st1" points="102.9,-279.7 102.9,-253.8 129.4,-253.8 		"/>
	</g>
	<g>
		<g>
			<polyline class="st1" points="104.2,-222.9 90.3,-209 76.5,-222.9 			"/>
			<line class="st1" x1="90.3" y1="-209" x2="90.3" y2="-243.1"/>
		</g>
		<line class="st1" x1="75.2" y1="-200.1" x2="105.5" y2="-200.1"/>
	</g>
</g>
<g>
	<path class="st2" d="M109.2,35.2c0,0-15.9,32.7-53.2,32.7S2.8,35.2,2.8,35.2S18.7,2.5,56,2.5S109.2,35.2,109.2,35.2z"/>
	<circle class="st1" cx="56" cy="34.3" r="15.9"/>
</g>
<g>
	<rect x="51.3" y="-124.5" class="st3" width="78" height="78"/>
	<polyline class="st4" points="67.6,-80.2 87.7,-65.5 112.9,-105.5 	"/>
</g>
</svg>
