<?xml version="1.0" encoding="utf-8"?>
<!-- Generator: Adobe Illustrator 24.2.0, SVG Export Plug-In . SVG Version: 6.00 Build 0)  -->
<svg version="1.1" xmlns="http://www.w3.org/2000/svg" xmlns:xlink="http://www.w3.org/1999/xlink" x="0px" y="0px"
	 viewBox="0 0 137.9 95.1" style="enable-background:new 0 0 137.9 95.1;" xml:space="preserve">
<style type="text/css">
	.st0{fill:#F2F2F2;}
	.st1{fill:#BFBFBF;}
	.st2{fill:#F3CF07;stroke:#000000;stroke-width:5;stroke-miterlimit:10;}
	.st3{fill:none;stroke:#000000;stroke-width:5;stroke-miterlimit:10;}
	.st4{fill:#3A92FF;stroke:#000000;stroke-width:5;stroke-miterlimit:10;}
	.st5{fill:none;stroke:#000000;stroke-width:6;stroke-miterlimit:10;}
	.st6{fill:#FF5439;stroke:#000000;stroke-width:5;stroke-miterlimit:10;}
</style>
<g id="fondos">
	<rect x="264.6" y="-2386.4" class="st0" width="1920" height="1080"/>
	<g>
		<text transform="matrix(1 0 0 1 1648.028 -1406.7998)" style="font-family:'SpaceGrotesk-Bold'; font-size:28.8087px;">Para una ciudadanía constituyente</text>
		<g>
			<path d="M2126.5-1397.6c0.1,0.5-0.1,1-0.9,1.4c-0.4,0.2-0.8,0.3-1.4,0.4c-0.5,0-1,0.1-1.5,0.1c-2.2,0.1-4.5,0.1-6.7,0.3
				c-2.2,0.2-4.2-0.1-6.3-0.2c-0.2,0-0.3-0.1-0.5-0.2c-1.9,0.1-3.8,0.2-5.7,0.2c-1.1,0-2.2,0.1-3.3-0.1c-0.6-0.1-1.4,0-2.1,0h0
				c-1.4,0.1-2.9,0.1-4.3,0.2c-0.9,0-1.8,0-2.7-0.1c-0.8-0.1-1.6-0.1-2.4,0c-1.9,0.1-3.9,0.2-5.8,0.1c-1.8,0-3.6-0.1-5.5,0
				c-1.8,0.1-3.7,0.2-5.5,0.2c-1,0-2,0.1-3-0.1c-0.6-0.1-1.2-0.1-1.8,0c-1.5,0-3.1,0.1-4.6,0.2c-2.3,0.1-4.5,0.2-6.7,0
				c-0.8-0.1-1.6,0-2.5,0c-1.5,0-2.9,0.4-4.2,0.3c-1.4-0.1-2.9,0-4.3,0c-1.5,0-3.1,0.2-4.6-0.1c-0.6-0.1-1.2,0-1.8,0
				c-1.6,0.1-3.3,0.1-4.9,0.2v0c-2.6,0.1-5.1,0.2-7.7,0.3c-1.3,0.1-2.6,0.1-3.9-0.1c-0.9-0.1-1.8,0-2.7,0c-1.1,0-2.2,0.1-3.3-0.1
				c-0.8-0.1-1.6,0-2.4,0c-5,0.2-10,0.4-15,0.6c-0.6,0-1.2,0-1.8,0c-0.3,0-0.5-0.2-0.8-0.2c-0.6,0.2-1.2,0.4-2,0.3
				c-1.2-0.1-2.4,0-3.6-0.1c-1.2-0.1-2.4,0.1-3.7,0.1c-1.1,0-2.2,0.1-3.4,0.1c-1.2,0.1-2.5,0.1-3.7,0.2c-1.5,0.1-3.1,0.1-4.6,0.2
				c-0.9,0-1.8,0.1-2.7-0.1c-0.5-0.1-1-0.1-1.5-0.1c-2,0.1-4.1,0.1-6.1,0.3c-0.3,0-0.6,0.1-0.9,0c-2.4-0.1-4.9,0.1-7.3,0.2
				c-2.7,0.1-5.4,0.2-8,0.3c-1.4,0.1-2.8,0.2-4.2-0.1c-0.6-0.1-1.4,0-2.1,0c-1.3,0.1-2.4-0.1-3.6-0.2c-0.6-0.1-1.1-0.3-1.4-0.6
				c-0.4-0.3-0.5-0.6-0.3-0.9c0.2-0.5,0.9-0.9,1.5-1.3c0.1-0.1,0.4-0.1,0.5-0.1c0.9-0.1,1.8-0.1,2.8-0.2c1.4-0.1,2.8,0,4.2-0.4
				c0.5-0.1,1.2-0.2,1.8-0.1c1.9,0.3,3.8,0.1,5.7,0c0.6,0,1.2,0,1.8,0c0.3,0,0.5,0.1,0.8,0.2c1.3-0.1,2.6-0.2,4-0.2
				c1.3,0,2.7-0.1,4-0.1c0.9,0,1.8-0.2,2.7,0c1.2-0.2,2.4-0.2,3.6,0c0.6,0.1,1.5,0,2.1-0.2c1-0.2,2-0.3,3-0.3
				c1.2-0.1,2.5-0.1,3.7-0.2c1.8-0.1,3.5-0.1,5.2,0c1.2,0.1,2.5,0.1,3.7-0.1c1.6-0.2,3.1-0.1,4.6-0.1c1.4-0.1,2.9-0.1,4.3-0.2
				c0.4,0,0.8,0.1,1.1,0.2c0,0,0,0,0,0c0.6-0.1,1.1-0.4,1.7-0.2c0.9,0.2,1.8,0.1,2.7,0.1c2.6-0.1,5.1-0.2,7.7-0.3c1,0,2-0.1,3.1,0
				c0.5,0,1-0.1,1.5-0.1c0.5,0,1.1-0.1,1.5,0c1,0.2,2,0.1,3,0.1c1.3,0,2.7-0.1,4-0.2c1.8-0.1,3.6,0,5.5-0.2c0.4-0.1,1,0.1,1.4,0.2
				c0.8,0,1.6-0.1,2.4-0.1c0.5,0,1,0,1.3,0.3c0.2,0,0.4,0,0.6,0l0,0l0,0c7.1-0.3,14.1-0.6,21.2-0.9c0.8,0,1.6-0.1,2.5-0.1
				c0.4,0,0.8,0.1,1.1,0.3h0c2.4-0.1,4.7-0.2,7.1-0.3c1.3-0.1,2.6-0.1,4,0.1c0.8,0.1,1.6,0,2.4,0c4-0.2,8-0.3,12-0.5
				c1.1,0,2.2-0.1,3.3,0.1c0.6,0.1,1.2,0,1.8,0c1.3,0,2.7-0.1,4-0.2c2.7-0.1,5.5-0.2,8.2-0.3c1,0,2-0.1,3-0.3c0.3-0.1,0.8,0,1.2,0.1
				c0.3-0.1,0.6-0.2,0.9-0.2c1.9,0.1,3.9-0.1,5.8-0.1c0.4,0,0.8,0,1.2,0c0.3,0,0.5,0.1,0.8,0.2c0.6,0,1.2,0,1.8-0.1
				c2.4-0.2,4.6,0.1,6.6,0.6c0.1,0,0.1,0.1,0.2,0.1c0.3,0,0.6,0,0.9,0.1c0.5,0.1,1,0.3,1.6,0.5
				C2125.9-1398.4,2126.4-1398.1,2126.5-1397.6z M2123.9-1397.5c0.1,0,0.1,0,0.2-0.1c0,0,0,0,0,0
				C2124-1397.5,2124-1397.5,2123.9-1397.5C2123.9-1397.5,2123.9-1397.5,2123.9-1397.5z"/>
		</g>
	</g>
	<rect x="270.2" y="-1200.9" class="st0" width="1920" height="1080"/>
	<rect x="432.4" y="-1423.8" width="36.9" height="5.6"/>
	<rect x="387.9" y="-1423.8" width="36.9" height="5.6"/>
	<rect x="476.9" y="-1423.8" width="36.9" height="5.6"/>
	<rect x="435.2" y="-240.9" width="36.9" height="5.6"/>
	<rect x="390.7" y="-240.9" class="st1" width="36.9" height="5.6"/>
	<rect x="479.7" y="-240.9" class="st1" width="36.9" height="5.6"/>
	<rect x="266" y="-26.5" class="st0" width="1920" height="1080"/>
	<g>
		<text transform="matrix(1 0 0 1 1649.4259 983.1176)" style="font-family:'SpaceGrotesk-Bold'; font-size:28.8087px;">Para una ciudadanía constituyente</text>
		<g>
			<path d="M2127.9,992.3c0.1,0.5-0.1,1-0.9,1.4c-0.4,0.2-0.8,0.3-1.4,0.4c-0.5,0-1,0.1-1.5,0.1c-2.2,0.1-4.5,0.1-6.7,0.3
				c-2.2,0.2-4.2-0.1-6.3-0.2c-0.2,0-0.3-0.1-0.5-0.2c-1.9,0.1-3.8,0.2-5.7,0.2c-1.1,0-2.2,0.1-3.3-0.1c-0.6-0.1-1.4,0-2.1,0h0
				c-1.4,0.1-2.9,0.1-4.3,0.2c-0.9,0-1.8,0-2.7-0.1c-0.8-0.1-1.6-0.1-2.4,0c-1.9,0.1-3.9,0.2-5.8,0.1c-1.8,0-3.6-0.1-5.5,0
				c-1.8,0.1-3.7,0.2-5.5,0.2c-1,0-2,0.1-3-0.1c-0.6-0.1-1.2-0.1-1.8,0c-1.5,0-3.1,0.1-4.6,0.2c-2.3,0.1-4.5,0.2-6.7,0
				c-0.8-0.1-1.6,0-2.5,0c-1.5,0-2.9,0.4-4.2,0.3c-1.4-0.1-2.9,0-4.3,0c-1.5,0-3.1,0.2-4.6-0.1c-0.6-0.1-1.2,0-1.8,0
				c-1.6,0.1-3.3,0.1-4.9,0.2l0,0c-2.6,0.1-5.1,0.2-7.7,0.3c-1.3,0.1-2.6,0.1-3.9-0.1c-0.9-0.1-1.8,0-2.7,0c-1.1,0-2.2,0.1-3.3-0.1
				c-0.8-0.1-1.6,0-2.4,0c-5,0.2-10,0.4-15,0.6c-0.6,0-1.2,0-1.8,0c-0.3,0-0.5-0.2-0.8-0.2c-0.6,0.2-1.2,0.4-2,0.3
				c-1.2-0.1-2.4,0-3.6-0.1c-1.2-0.1-2.4,0.1-3.7,0.1c-1.1,0-2.2,0.1-3.4,0.1c-1.2,0.1-2.5,0.1-3.7,0.2c-1.5,0.1-3.1,0.1-4.6,0.2
				c-0.9,0-1.8,0.1-2.7-0.1c-0.5-0.1-1-0.1-1.5-0.1c-2,0.1-4.1,0.1-6.1,0.3c-0.3,0-0.6,0.1-0.9,0c-2.4-0.1-4.9,0.1-7.3,0.2
				c-2.7,0.1-5.4,0.2-8,0.3c-1.4,0.1-2.8,0.2-4.2-0.1c-0.6-0.1-1.4,0-2.1,0c-1.3,0.1-2.4-0.1-3.6-0.2c-0.6-0.1-1.1-0.3-1.4-0.6
				c-0.4-0.3-0.5-0.6-0.3-0.9c0.2-0.5,0.9-0.9,1.5-1.3c0.1-0.1,0.4-0.1,0.5-0.1c0.9-0.1,1.8-0.1,2.8-0.2c1.4-0.1,2.8,0,4.2-0.4
				c0.5-0.1,1.2-0.2,1.8-0.1c1.9,0.3,3.8,0.1,5.7,0c0.6,0,1.2,0,1.8,0c0.3,0,0.5,0.1,0.8,0.2c1.3-0.1,2.6-0.2,4-0.2
				c1.3,0,2.7-0.1,4-0.1c0.9,0,1.8-0.2,2.7,0c1.2-0.2,2.4-0.2,3.6,0c0.6,0.1,1.5,0,2.1-0.2c1-0.2,2-0.3,3-0.3
				c1.2-0.1,2.5-0.1,3.7-0.2c1.8-0.1,3.5-0.1,5.2,0c1.2,0.1,2.5,0.1,3.7-0.1c1.6-0.2,3.1-0.1,4.6-0.1c1.4-0.1,2.9-0.1,4.3-0.2
				c0.4,0,0.8,0.1,1.1,0.2c0,0,0,0,0,0c0.6-0.1,1.1-0.4,1.7-0.2c0.9,0.2,1.8,0.1,2.7,0.1c2.6-0.1,5.1-0.2,7.7-0.3c1,0,2-0.1,3.1,0
				c0.5,0,1-0.1,1.5-0.1c0.5,0,1.1-0.1,1.5,0c1,0.2,2,0.1,3,0.1c1.3,0,2.7-0.1,4-0.2c1.8-0.1,3.6,0,5.5-0.2c0.4-0.1,1,0.1,1.4,0.2
				c0.8,0,1.6-0.1,2.4-0.1c0.5,0,1,0,1.3,0.3c0.2,0,0.4,0,0.6,0l0,0l0,0c7.1-0.3,14.1-0.6,21.2-0.9c0.8,0,1.6-0.1,2.5-0.1
				c0.4,0,0.8,0.1,1.1,0.3h0c2.4-0.1,4.7-0.2,7.1-0.3c1.3-0.1,2.6-0.1,4,0.1c0.8,0.1,1.6,0,2.4,0c4-0.2,8-0.3,12-0.5
				c1.1,0,2.2-0.1,3.3,0.1c0.6,0.1,1.2,0,1.8,0c1.3,0,2.7-0.1,4-0.2c2.7-0.1,5.5-0.2,8.2-0.3c1,0,2-0.1,3-0.3c0.3-0.1,0.8,0,1.2,0.1
				c0.3-0.1,0.6-0.2,0.9-0.2c1.9,0.1,3.9-0.1,5.8-0.1c0.4,0,0.8,0,1.2,0c0.3,0,0.5,0.1,0.8,0.2c0.6,0,1.2,0,1.8-0.1
				c2.4-0.2,4.6,0.1,6.6,0.6c0.1,0,0.1,0.1,0.2,0.1c0.3,0,0.6,0,0.9,0.1c0.5,0.1,1,0.3,1.6,0.5
				C2127.3,991.5,2127.8,991.8,2127.9,992.3z M2125.3,992.5c0.1,0,0.1,0,0.2-0.1c0,0,0,0,0,0
				C2125.4,992.4,2125.4,992.4,2125.3,992.5C2125.3,992.4,2125.3,992.4,2125.3,992.5z"/>
		</g>
	</g>
	<rect x="432.4" y="-1423.8" class="st1" width="36.9" height="5.6"/>
	<rect x="387.9" y="-1423.8" width="36.9" height="5.6"/>
	<rect x="476.9" y="-1423.8" class="st1" width="36.9" height="5.6"/>
	<rect x="431.9" y="933.7" class="st1" width="36.9" height="5.6"/>
	<rect x="387.4" y="933.7" class="st1" width="36.9" height="5.6"/>
	<rect x="476.4" y="933.7" width="36.9" height="5.6"/>
	<text transform="matrix(1 0 0 1 1326.8771 -1097.2021)" style="font-family:'SpaceGrotesk-Bold'; font-size:27px;">Quiénes somos</text>
	<text transform="matrix(1 0 0 1 1555.6132 -1097.2021)" style="font-family:'SpaceGrotesk-Bold'; font-size:27px;">Infórmate</text>
	<text transform="matrix(1 0 0 1 1720.8948 -1097.2021)" style="font-family:'SpaceGrotesk-Bold'; font-size:27px;">Actívate</text>
	<text transform="matrix(1 0 0 1 1870.2271 -1097.2021)" style="font-family:'SpaceGrotesk-Bold'; font-size:27px;">Contexto Factual</text>
	<text transform="matrix(1 0 0 1 1324.8771 75.7768)" style="font-family:'SpaceGrotesk-Bold'; font-size:27px;">Quiénes somos</text>
	<text transform="matrix(1 0 0 1 1553.6132 75.7768)" style="font-family:'SpaceGrotesk-Bold'; font-size:27px;">Infórmate</text>
	<text transform="matrix(1 0 0 1 1718.8948 75.7768)" style="font-family:'SpaceGrotesk-Bold'; font-size:27px;">Actívate</text>
	<text transform="matrix(1 0 0 1 1868.2271 75.7768)" style="font-family:'SpaceGrotesk-Bold'; font-size:27px;">Contexto Factual</text>
</g>
<g id="Capa_1">
	<text transform="matrix(1 0 0 1 1325.3458 -2280.3374)" style="font-family:'SpaceGrotesk-Bold'; font-size:27px;">Quiénes somos</text>
	<text transform="matrix(1 0 0 1 1554.0819 -2280.3374)" style="font-family:'SpaceGrotesk-Bold'; font-size:27px;">Infórmate</text>
	<text transform="matrix(1 0 0 1 1719.3635 -2280.3374)" style="font-family:'SpaceGrotesk-Bold'; font-size:27px;">Actívate</text>
	<text transform="matrix(1 0 0 1 1868.6958 -2280.3374)" style="font-family:'SpaceGrotesk-Bold'; font-size:27px;">Contexto Factual</text>
	<g>
		<g>
			<path d="M348.6-2298.1c7,0,11.2,4.1,12.4,9.7l-6.2,1.3c-0.4-3-2.2-5.5-6.1-5.5s-6.8,2.8-6.8,7.7c0,4.9,2.9,7.7,6.8,7.7
				s5.7-2.3,6.3-5.5l6.2,1.5c-1.4,5.5-5.5,9.6-12.6,9.6c-7.3,0-13.1-5.5-13.1-13.3C335.5-2292.6,341.3-2298.1,348.6-2298.1z"/>
			<path d="M378-2298.1c7.5,0,13.2,5.1,13.2,13.3c0,8.2-5.7,13.3-13.2,13.3c-7.5,0-13.2-5.1-13.2-13.3
				C364.8-2293,370.5-2298.1,378-2298.1z M378-2277.1c4,0,6.8-2.8,6.8-7.7c0-4.9-2.8-7.7-6.8-7.7s-6.8,2.8-6.8,7.7
				C371.2-2279.9,374-2277.1,378-2277.1z"/>
			<path d="M402.9-2297.4v3.7h0.5c1-2.1,3.1-4.2,7.8-4.2c5.9,0,9.8,4.3,9.8,10.5v15h-6.4v-14.7c0-3.8-1.9-5.7-5.4-5.7
				c-3.9,0-6.2,2.7-6.2,7.4v13h-6.4v-25.1H402.9z"/>
			<path d="M424.4-2297.4h6.3v-7.8h6.4v7.8h6.9v5.2h-6.9v13.3c0,1,0.5,1.5,1.4,1.5h4.9v5.2h-7.1c-3.3,0-5.6-2.2-5.6-5.7v-14.3h-6.3
				V-2297.4z"/>
			<path d="M460.1-2298.1c7.4,0,12.2,5.3,12.2,13v2.2H454c0.2,3.4,2.8,5.9,6.4,5.9c3.5,0,5-1.9,5.9-3.8l5.2,2.7
				c-1.4,2.7-4.4,6.6-11.3,6.6c-7.5,0-12.7-5.3-12.7-13.3C447.5-2292.8,452.7-2298.1,460.1-2298.1z M465.8-2287.7
				c-0.3-2.9-2.5-4.9-5.8-4.9c-3.4,0-5.6,2.1-6,4.9H465.8z"/>
			<path d="M481.9-2297.4l5.9,8.7h0.5l5.9-8.7h7.4l-8.8,12.5l8.9,12.7h-7.5l-5.9-8.8h-0.5l-5.9,8.8h-7.5l8.9-12.7l-8.8-12.5H481.9z"
				/>
			<path d="M503.9-2297.4h6.3v-7.8h6.4v7.8h6.9v5.2h-6.9v13.3c0,1,0.5,1.5,1.4,1.5h4.9v5.2h-7.1c-3.3,0-5.6-2.2-5.6-5.7v-14.3h-6.3
				V-2297.4z"/>
			<path d="M540.1-2298.1c7.5,0,13.2,5.1,13.2,13.3c0,8.2-5.7,13.3-13.2,13.3s-13.2-5.1-13.2-13.3
				C526.9-2293,532.6-2298.1,540.1-2298.1z M540.1-2277.1c4,0,6.8-2.8,6.8-7.7c0-4.9-2.8-7.7-6.8-7.7s-6.8,2.8-6.8,7.7
				C533.3-2279.9,536.2-2277.1,540.1-2277.1z"/>
			<path d="M559.8-2288h38.1v5.8h-38.1V-2288z"/>
		</g>
		<g>
			<g>
				<g>
					<path d="M586.2-2307c0.8,0.2,1.4,0.3,1.9,0.6c0.2,0.2,0.4,0.3,0.4,0.4c0,0.1,0,0.2-0.1,0.4c-0.1,0.5-0.3,1.1-0.3,1.6
						c0,0.5-0.6,0.9-1,1.4c0,0-0.2,0-0.3,0c-0.1,0.5-0.2,0.9-0.3,1.4c-0.1,0.3-0.1,0.5-0.5,0.7c-0.2,0.1-0.2,0.3-0.3,0.5v0
						c-0.1,0.3-0.2,0.7-0.2,1c0,0.2-0.2,0.4-0.4,0.6c-0.2,0.1-0.3,0.3-0.3,0.5c-0.1,0.5-0.2,0.9-0.5,1.4c-0.2,0.4-0.6,0.8-0.6,1.2
						c0,0.5-0.2,0.9-0.3,1.3c-0.1,0.2-0.1,0.5-0.5,0.7c-0.2,0.1-0.2,0.3-0.3,0.4c-0.1,0.4-0.2,0.7-0.2,1.1c-0.1,0.5-0.2,1.1-0.7,1.5
						c-0.2,0.2-0.1,0.4-0.2,0.6c-0.2,0.3,0.3,0.8,0,1.1c-0.3,0.3-0.3,0.6-0.4,1c-0.1,0.4-0.1,0.7-0.6,1c-0.2,0.1-0.2,0.3-0.2,0.4
						c-0.1,0.4-0.2,0.8-0.3,1.2v0c-0.1,0.6-0.3,1.2-0.4,1.8c-0.1,0.3-0.1,0.6-0.5,0.9c-0.3,0.2-0.2,0.4-0.3,0.6
						c-0.1,0.3-0.1,0.5-0.5,0.7c-0.2,0.1-0.2,0.4-0.3,0.5c-0.3,1.2-0.5,2.4-0.8,3.6c0,0.1-0.1,0.3-0.2,0.4c0,0.1-0.3,0.1-0.4,0.1
						c0.2,0.2,0.4,0.4,0.3,0.6c-0.2,0.2-0.3,0.5-0.5,0.8c-0.2,0.3-0.2,0.6-0.2,0.9c-0.1,0.3-0.1,0.5-0.2,0.8
						c-0.1,0.3-0.1,0.6-0.2,0.9c-0.1,0.4-0.2,0.7-0.2,1.1c0,0.2-0.1,0.4-0.4,0.6c-0.2,0.1-0.2,0.2-0.3,0.3c-0.1,0.5-0.3,0.9-0.2,1.5
						c0,0.1,0,0.2,0,0.2c-0.4,0.5-0.4,1.1-0.5,1.7c-0.1,0.6-0.3,1.3-0.4,1.9c-0.1,0.3-0.1,0.7-0.6,0.9c-0.2,0.1-0.2,0.3-0.2,0.5
						c0,0.3-0.4,0.5-0.8,0.7c-0.2,0.1-0.5,0.1-1,0.1c-0.4,0-0.9-0.1-1.4-0.2c-0.7-0.2-1.2-0.5-1.7-0.7c-0.1-0.1-0.2-0.1-0.1-0.2
						c0-0.2,0-0.4,0.1-0.7c0-0.3,0.2-0.7-0.1-1.1c-0.1-0.2-0.1-0.3,0-0.4c0.6-0.3,0.6-0.8,0.7-1.3c0-0.1,0.1-0.3,0.2-0.4
						c0-0.1,0.3-0.1,0.4-0.1c0-0.3,0-0.7,0.2-0.9c0.2-0.3,0.1-0.7,0.3-0.9c0.2-0.2-0.1-0.5,0.2-0.6c-0.2-0.3,0-0.6,0.3-0.8
						c0.2-0.1,0.2-0.3,0-0.5c-0.2-0.3-0.2-0.5-0.1-0.8c0.1-0.3,0.2-0.6,0.2-0.9c0-0.4,0.2-0.8,0.6-1.2c0.2-0.3,0.4-0.5,0.3-0.9
						c-0.1-0.4,0.3-0.7,0.3-1.1c0-0.4,0.1-0.7,0.2-1c0-0.1,0.2-0.1,0.5-0.2h0c-0.1-0.2-0.4-0.4-0.2-0.5c0.4-0.1,0.4-0.4,0.4-0.6
						c0.1-0.6,0.2-1.2,0.4-1.8c0.1-0.2,0.2-0.5,0.3-0.7c0.1-0.1,0-0.2,0-0.4c0-0.1,0-0.3,0.2-0.3c0.4-0.2,0.4-0.4,0.5-0.7
						c0.1-0.3,0.2-0.6,0.2-1c0-0.5,0.5-0.8,0.4-1.3c0-0.1,0.3-0.2,0.5-0.3c0-0.2,0.1-0.4,0.1-0.6c0-0.1,0.2-0.2,0.5-0.2
						c0,0,0-0.1,0-0.1h0c0.4-1.7,0.7-3.4,1.1-5.1c0-0.2,0.1-0.4,0.2-0.6c0-0.1,0.2-0.1,0.5-0.2l0,0c0.1-0.6,0.2-1.1,0.4-1.7
						c0.1-0.3,0.1-0.6,0.5-0.9c0.2-0.1,0.2-0.4,0.3-0.6c0.2-1,0.4-1.9,0.6-2.9c0.1-0.3,0.1-0.5,0.5-0.7c0.2-0.1,0.2-0.3,0.2-0.4
						c0.1-0.3,0.2-0.6,0.2-0.9c0.1-0.7,0.3-1.3,0.4-2c0-0.2,0.1-0.5,0-0.8c-0.1-0.1,0.2-0.2,0.2-0.2c-0.1-0.1-0.2-0.2-0.2-0.3
						c0.4-0.4,0.3-0.9,0.5-1.3c0-0.1,0-0.2,0.1-0.3c0.1-0.1,0.3-0.1,0.4-0.1c0-0.1,0.1-0.3,0.1-0.4c-0.1-0.6,0.7-1,1.6-1.3
						c0,0,0.1,0,0.2,0c0.1-0.1,0.1-0.1,0.2-0.2c0.3-0.1,0.6-0.1,0.9-0.2C585-2307.1,585.5-2307.1,586.2-2307z M586.2-2306.3
						C586.2-2306.3,586.1-2306.4,586.2-2306.3C586.1-2306.4,586.1-2306.4,586.2-2306.3C586.1-2306.4,586.1-2306.4,586.2-2306.3
						C586.2-2306.3,586.2-2306.3,586.2-2306.3z"/>
				</g>
			</g>
		</g>
	</g>
	<rect x="376.8" y="-2039" style="fill:none;" width="1631.5" height="641.7"/>
	<text transform="matrix(1 0 0 1 376.8006 -2014.9429)"><tspan x="0" y="0" style="font-family:'Karla-Bold'; font-size:35px;">Declaración</tspan><tspan x="0" y="72" style="font-family:'SpaceGrotesk-Bold'; font-size:60px; letter-spacing:1;">Contexto es una iniciativa que busca contribuir a un </tspan><tspan x="0" y="144" style="font-family:'SpaceGrotesk-Bold'; font-size:60px; letter-spacing:1;">proceso constituyente participativo, transparente, </tspan><tspan x="0" y="216" style="font-family:'SpaceGrotesk-Bold'; font-size:60px; letter-spacing:1;">informado y democrático que garantice la </tspan><tspan x="0" y="288" style="font-family:'SpaceGrotesk-Bold'; font-size:60px; letter-spacing:1;">representación y participación de diversos sectores </tspan><tspan x="0" y="360" style="font-family:'SpaceGrotesk-Bold'; font-size:60px; letter-spacing:1;">sociales en el proceso político que se inicia en Chile. </tspan></text>
	<g>
		<g>
			<path d="M354.1-1112.5c7,0,11.2,4.1,12.4,9.7l-6.2,1.3c-0.4-3-2.2-5.5-6.1-5.5c-3.9,0-6.8,2.8-6.8,7.7c0,4.9,2.9,7.7,6.8,7.7
				c3.9,0,5.7-2.3,6.3-5.5l6.2,1.5c-1.4,5.5-5.5,9.6-12.6,9.6c-7.3,0-13.1-5.5-13.1-13.3C341.1-1107,346.9-1112.5,354.1-1112.5z"/>
			<path d="M383.6-1112.5c7.5,0,13.2,5.1,13.2,13.3c0,8.2-5.7,13.3-13.2,13.3c-7.5,0-13.2-5.1-13.2-13.3
				C370.4-1107.4,376.1-1112.5,383.6-1112.5z M383.6-1091.5c4,0,6.8-2.8,6.8-7.7c0-4.9-2.8-7.7-6.8-7.7s-6.8,2.8-6.8,7.7
				C376.8-1094.4,379.6-1091.5,383.6-1091.5z"/>
			<path d="M408.5-1111.8v3.7h0.5c1-2.1,3.1-4.2,7.8-4.2c5.9,0,9.8,4.3,9.8,10.5v15h-6.4v-14.7c0-3.8-1.9-5.7-5.4-5.7
				c-3.9,0-6.2,2.7-6.2,7.4v13h-6.4v-25.1H408.5z"/>
			<path d="M430-1111.8h6.3v-7.8h6.4v7.8h6.9v5.2h-6.9v13.3c0,1,0.5,1.5,1.4,1.5h4.9v5.2h-7.1c-3.3,0-5.6-2.2-5.6-5.7v-14.3H430
				V-1111.8z"/>
			<path d="M465.7-1112.5c7.4,0,12.2,5.3,12.2,13v2.2h-18.3c0.2,3.4,2.8,5.9,6.4,5.9c3.5,0,5-1.9,5.9-3.8l5.2,2.7
				c-1.4,2.7-4.4,6.6-11.3,6.6c-7.5,0-12.7-5.3-12.7-13.3C453-1107.2,458.3-1112.5,465.7-1112.5z M471.4-1102.1
				c-0.3-2.9-2.5-4.9-5.8-4.9c-3.4,0-5.6,2.1-6,4.9H471.4z"/>
			<path d="M487.4-1111.8l5.9,8.7h0.5l5.9-8.7h7.4l-8.8,12.5l8.9,12.7h-7.5l-5.9-8.8h-0.5l-5.9,8.8h-7.5l8.9-12.7l-8.8-12.5H487.4z"
				/>
			<path d="M509.5-1111.8h6.3v-7.8h6.4v7.8h6.9v5.2h-6.9v13.3c0,1,0.5,1.5,1.4,1.5h4.9v5.2h-7.1c-3.3,0-5.6-2.2-5.6-5.7v-14.3h-6.3
				V-1111.8z"/>
			<path d="M545.7-1112.5c7.5,0,13.2,5.1,13.2,13.3c0,8.2-5.7,13.3-13.2,13.3s-13.2-5.1-13.2-13.3
				C532.5-1107.4,538.2-1112.5,545.7-1112.5z M545.7-1091.5c4,0,6.8-2.8,6.8-7.7c0-4.9-2.8-7.7-6.8-7.7s-6.8,2.8-6.8,7.7
				C538.9-1094.4,541.8-1091.5,545.7-1091.5z"/>
			<path d="M565.4-1102.5h38.1v5.8h-38.1V-1102.5z"/>
		</g>
		<g>
			<g>
				<g>
					<path d="M591.8-1121.4c0.8,0.2,1.4,0.3,1.9,0.6c0.2,0.2,0.4,0.3,0.4,0.4c0,0.1,0,0.2-0.1,0.4c-0.1,0.5-0.3,1.1-0.3,1.6
						c0,0.5-0.6,0.9-1,1.4c0,0-0.2,0-0.3,0c-0.1,0.5-0.2,0.9-0.3,1.4c-0.1,0.3-0.1,0.5-0.5,0.7c-0.2,0.1-0.2,0.3-0.3,0.5h0
						c-0.1,0.3-0.1,0.7-0.2,1c0,0.2-0.2,0.4-0.4,0.6c-0.2,0.1-0.3,0.3-0.3,0.5c-0.1,0.5-0.2,0.9-0.5,1.4c-0.2,0.4-0.6,0.8-0.6,1.2
						c0,0.5-0.2,0.9-0.3,1.3c-0.1,0.2-0.1,0.5-0.5,0.7c-0.2,0.1-0.2,0.3-0.3,0.4c-0.1,0.4-0.2,0.7-0.2,1.1c-0.1,0.5-0.2,1.1-0.7,1.5
						c-0.2,0.2-0.1,0.4-0.2,0.6c-0.2,0.3,0.3,0.8,0,1.1c-0.3,0.3-0.3,0.6-0.4,1c-0.1,0.4-0.1,0.7-0.6,1c-0.2,0.1-0.2,0.3-0.2,0.4
						c-0.1,0.4-0.2,0.8-0.3,1.2c-0.1,0.6-0.3,1.2-0.4,1.8c-0.1,0.3-0.1,0.6-0.5,0.9c-0.3,0.2-0.2,0.4-0.3,0.6
						c-0.1,0.3-0.1,0.5-0.5,0.7c-0.2,0.1-0.2,0.4-0.3,0.5c-0.3,1.2-0.5,2.4-0.8,3.6c0,0.1-0.1,0.3-0.2,0.4c0,0.1-0.3,0.1-0.4,0.1
						c0.2,0.2,0.4,0.4,0.3,0.6c-0.2,0.2-0.3,0.5-0.5,0.8c-0.2,0.3-0.2,0.6-0.2,0.9c-0.1,0.3-0.1,0.5-0.2,0.8
						c-0.1,0.3-0.1,0.6-0.2,0.9c-0.1,0.4-0.2,0.7-0.2,1.1c0,0.2-0.1,0.4-0.4,0.6c-0.2,0.1-0.2,0.2-0.3,0.3c-0.1,0.5-0.3,0.9-0.2,1.5
						c0,0.1,0,0.2,0,0.2c-0.4,0.5-0.3,1.1-0.5,1.7c-0.1,0.6-0.3,1.3-0.4,1.9c-0.1,0.3-0.1,0.7-0.6,0.9c-0.2,0.1-0.2,0.3-0.2,0.5
						c0,0.3-0.4,0.5-0.8,0.7c-0.2,0.1-0.5,0.1-1,0.1c-0.4,0-0.9-0.1-1.4-0.2c-0.7-0.2-1.2-0.5-1.7-0.7c-0.1-0.1-0.2-0.1-0.1-0.2
						c0-0.2,0-0.4,0.1-0.7c0-0.3,0.2-0.7-0.1-1.1c-0.1-0.2-0.1-0.3,0-0.4c0.6-0.3,0.6-0.8,0.7-1.3c0-0.1,0.1-0.3,0.2-0.4
						c0-0.1,0.3-0.1,0.4-0.1c0-0.3,0-0.7,0.2-0.9c0.2-0.3,0.1-0.7,0.3-0.9c0.2-0.2-0.1-0.5,0.2-0.6c-0.2-0.3,0-0.6,0.3-0.8
						c0.2-0.1,0.2-0.3,0-0.5c-0.2-0.3-0.2-0.5-0.1-0.8c0.1-0.3,0.2-0.6,0.2-0.9c0-0.4,0.2-0.8,0.6-1.2c0.2-0.3,0.4-0.5,0.3-0.9
						c-0.1-0.4,0.3-0.7,0.3-1.1c0-0.4,0.1-0.7,0.2-1c0-0.1,0.2-0.1,0.5-0.2c-0.1-0.2-0.4-0.4-0.2-0.5c0.4-0.1,0.4-0.4,0.4-0.6
						c0.1-0.6,0.2-1.2,0.4-1.8c0.1-0.2,0.2-0.5,0.3-0.7c0.1-0.1,0-0.3,0-0.4c0-0.1,0-0.3,0.2-0.3c0.4-0.2,0.4-0.4,0.5-0.7
						c0.1-0.3,0.2-0.6,0.2-1c0-0.5,0.5-0.8,0.4-1.3c0-0.1,0.3-0.2,0.5-0.3c0-0.2,0.1-0.4,0.1-0.6c0-0.1,0.2-0.2,0.5-0.2
						c0,0,0-0.1,0-0.1h0l0,0c0.4-1.7,0.7-3.4,1.1-5.1c0-0.2,0.1-0.4,0.2-0.6c0-0.1,0.2-0.1,0.5-0.2v0c0.1-0.6,0.2-1.1,0.4-1.7
						c0.1-0.3,0.1-0.6,0.5-0.9c0.2-0.1,0.2-0.4,0.3-0.6c0.2-1,0.4-1.9,0.6-2.9c0.1-0.3,0.1-0.5,0.5-0.7c0.2-0.1,0.2-0.3,0.2-0.4
						c0.1-0.3,0.2-0.6,0.2-0.9l0,0c0.1-0.7,0.3-1.3,0.4-2c0-0.2,0.1-0.5,0-0.8c-0.1-0.1,0.2-0.2,0.2-0.2c-0.1-0.1-0.2-0.2-0.2-0.3
						c0.4-0.4,0.3-0.9,0.5-1.3c0-0.1,0-0.2,0.1-0.3c0.1-0.1,0.3-0.1,0.4-0.1c0-0.1,0.1-0.3,0.1-0.4c-0.1-0.6,0.7-1,1.6-1.3
						c0,0,0.1,0,0.2,0c0.1-0.1,0.1-0.1,0.2-0.2c0.3-0.1,0.6-0.1,0.9-0.2C590.6-1121.5,591.1-1121.5,591.8-1121.4z M591.8-1120.8
						C591.8-1120.8,591.7-1120.8,591.8-1120.8C591.7-1120.8,591.7-1120.8,591.8-1120.8C591.7-1120.8,591.7-1120.8,591.8-1120.8
						C591.7-1120.8,591.8-1120.8,591.8-1120.8z"/>
				</g>
			</g>
		</g>
	</g>
	<rect x="382.4" y="-853.4" style="fill:none;" width="1690.2" height="522.9"/>
	<text transform="matrix(1 0 0 1 382.3919 -829.3922)"><tspan x="0" y="0" style="font-family:'Karla-Bold'; font-size:35px;">Noticia</tspan><tspan x="0" y="72" style="font-family:'SpaceGrotesk-Bold'; font-size:60px; letter-spacing:1;">Campaña por un Plebiscito Seguro y Participativo</tspan><tspan x="0" y="150" style="font-family:'SpaceGrotesk-Regular'; font-size:50px; letter-spacing:1;">Más de 200 personas y organizaciones han suscrito a la iniciativa </tspan><tspan x="0" y="210" style="font-family:'SpaceGrotesk-Regular'; font-size:50px; letter-spacing:1;">impulsada por Contexto, para promover un Plebiscito Seguro y </tspan><tspan x="0" y="270" style="font-family:'SpaceGrotesk-Regular'; font-size:50px; letter-spacing:1;">Participativo.  </tspan><tspan x="0" y="347" style="font-family:'Karla-Bold'; font-size:35px;">Seguir leyendo.. </tspan></text>
	<g>
		<g>
			<path d="M350,61.9c7,0,11.2,4.1,12.4,9.7l-6.2,1.3c-0.4-3-2.2-5.5-6.1-5.5c-3.9,0-6.8,2.8-6.8,7.7c0,4.9,2.9,7.7,6.8,7.7
				c3.9,0,5.7-2.3,6.3-5.5l6.2,1.5c-1.4,5.5-5.5,9.6-12.6,9.6c-7.3,0-13.1-5.5-13.1-13.3C336.9,67.3,342.7,61.9,350,61.9z"/>
			<path d="M379.4,61.9c7.5,0,13.2,5.1,13.2,13.3c0,8.2-5.7,13.3-13.2,13.3c-7.5,0-13.2-5.1-13.2-13.3
				C366.2,66.9,371.9,61.9,379.4,61.9z M379.4,82.8c4,0,6.8-2.8,6.8-7.7c0-4.9-2.8-7.7-6.8-7.7c-4,0-6.8,2.8-6.8,7.7
				C372.6,80,375.4,82.8,379.4,82.8z"/>
			<path d="M404.3,62.6v3.7h0.5c1-2.1,3.1-4.2,7.8-4.2c5.9,0,9.8,4.3,9.8,10.5v15h-6.4V73c0-3.8-1.9-5.7-5.4-5.7
				c-3.9,0-6.2,2.7-6.2,7.4v13H398V62.6H404.3z"/>
			<path d="M425.8,62.6h6.3v-7.8h6.4v7.8h6.9v5.2h-6.9V81c0,1,0.5,1.5,1.4,1.5h4.9v5.2h-7.1c-3.3,0-5.6-2.2-5.6-5.7V67.7h-6.3V62.6z
				"/>
			<path d="M461.5,61.9c7.4,0,12.2,5.3,12.2,13V77h-18.3c0.2,3.4,2.8,5.9,6.4,5.9c3.5,0,5-1.9,5.9-3.8l5.2,2.7
				c-1.4,2.7-4.4,6.6-11.3,6.6c-7.5,0-12.7-5.3-12.7-13.3C448.8,67.1,454.1,61.9,461.5,61.9z M467.2,72.2c-0.3-2.9-2.5-4.9-5.8-4.9
				c-3.4,0-5.6,2.1-6,4.9H467.2z"/>
			<path d="M483.2,62.6l5.9,8.7h0.5l5.9-8.7h7.4L494.2,75l8.9,12.7h-7.5l-5.9-8.8h-0.5l-5.9,8.8h-7.5l8.9-12.7l-8.8-12.5H483.2z"/>
			<path d="M505.3,62.6h6.3v-7.8h6.4v7.8h6.9v5.2H518V81c0,1,0.5,1.5,1.4,1.5h4.9v5.2h-7.1c-3.3,0-5.6-2.2-5.6-5.7V67.7h-6.3V62.6z"
				/>
			<path d="M541.5,61.9c7.5,0,13.2,5.1,13.2,13.3c0,8.2-5.7,13.3-13.2,13.3s-13.2-5.1-13.2-13.3C528.3,66.9,534,61.9,541.5,61.9z
				 M541.5,82.8c4,0,6.8-2.8,6.8-7.7c0-4.9-2.8-7.7-6.8-7.7s-6.8,2.8-6.8,7.7C534.7,80,537.6,82.8,541.5,82.8z"/>
			<path d="M561.2,71.9h38.1v5.8h-38.1V71.9z"/>
		</g>
		<g>
			<g>
				<g>
					<path d="M587.6,53c0.8,0.2,1.4,0.3,1.9,0.6c0.2,0.2,0.4,0.3,0.4,0.4c0,0.1,0,0.2-0.1,0.4c-0.1,0.5-0.3,1.1-0.3,1.6
						c0,0.5-0.6,0.9-1,1.4c0,0-0.2,0-0.3,0c-0.1,0.5-0.2,0.9-0.3,1.4c-0.1,0.3-0.1,0.5-0.5,0.7c-0.2,0.1-0.2,0.3-0.3,0.5
						c-0.1,0.3-0.2,0.7-0.2,1c0,0.2-0.2,0.4-0.4,0.6c-0.2,0.1-0.3,0.3-0.3,0.5c-0.1,0.5-0.2,0.9-0.5,1.4c-0.2,0.4-0.6,0.8-0.6,1.2
						c0,0.5-0.2,0.9-0.3,1.3c-0.1,0.2-0.1,0.5-0.5,0.7c-0.2,0.1-0.2,0.3-0.3,0.4c-0.1,0.4-0.2,0.7-0.2,1.1c-0.1,0.5-0.2,1.1-0.7,1.5
						c-0.2,0.2-0.1,0.4-0.2,0.6c-0.2,0.3,0.3,0.8,0,1.1c-0.3,0.3-0.3,0.6-0.4,1c-0.1,0.4-0.1,0.7-0.6,1c-0.2,0.1-0.2,0.3-0.2,0.4
						c-0.1,0.4-0.2,0.8-0.3,1.2h0c-0.1,0.6-0.3,1.2-0.4,1.8c-0.1,0.3-0.1,0.6-0.5,0.9c-0.3,0.2-0.2,0.4-0.3,0.6
						c-0.1,0.3-0.1,0.5-0.5,0.7c-0.2,0.1-0.2,0.4-0.3,0.5c-0.3,1.2-0.5,2.4-0.8,3.6c0,0.1-0.1,0.3-0.2,0.4c0,0.1-0.3,0.1-0.4,0.1
						c0.2,0.2,0.4,0.4,0.3,0.6c-0.2,0.2-0.3,0.5-0.5,0.8c-0.2,0.3-0.2,0.6-0.2,0.9c-0.1,0.3-0.1,0.5-0.2,0.8
						c-0.1,0.3-0.1,0.6-0.2,0.9c-0.1,0.4-0.2,0.7-0.2,1.1c0,0.2-0.1,0.4-0.4,0.6c-0.2,0.1-0.2,0.2-0.3,0.3c-0.1,0.5-0.3,0.9-0.2,1.5
						c0,0.1,0,0.2,0,0.2c-0.4,0.5-0.4,1.1-0.5,1.7c-0.1,0.6-0.3,1.3-0.4,1.9c-0.1,0.3-0.1,0.7-0.6,0.9c-0.2,0.1-0.2,0.3-0.2,0.5
						c0,0.3-0.4,0.5-0.8,0.7c-0.2,0.1-0.5,0.1-1,0.1c-0.4,0-0.9-0.1-1.4-0.2c-0.7-0.2-1.2-0.5-1.7-0.7c-0.1-0.1-0.2-0.1-0.1-0.2
						c0-0.2,0-0.4,0.1-0.7c0-0.3,0.2-0.7-0.1-1.1c-0.1-0.2-0.1-0.3,0-0.4c0.6-0.3,0.6-0.8,0.7-1.3c0-0.1,0.1-0.3,0.2-0.4
						c0-0.1,0.3-0.1,0.4-0.1c0-0.3,0-0.7,0.2-0.9c0.2-0.3,0.1-0.7,0.3-0.9c0.2-0.2-0.1-0.5,0.2-0.6c-0.2-0.3,0-0.6,0.3-0.8
						c0.2-0.1,0.2-0.3,0-0.5c-0.2-0.3-0.2-0.5-0.1-0.8c0.1-0.3,0.2-0.6,0.2-0.9c0-0.4,0.2-0.8,0.6-1.2c0.2-0.3,0.4-0.5,0.3-0.9
						c-0.1-0.4,0.3-0.7,0.3-1.1c0-0.4,0.1-0.7,0.2-1c0-0.1,0.2-0.1,0.5-0.2c-0.1-0.2-0.4-0.4-0.2-0.5c0.4-0.1,0.4-0.4,0.4-0.6
						c0.1-0.6,0.2-1.2,0.4-1.8c0.1-0.2,0.2-0.5,0.3-0.7c0.1-0.1,0-0.3,0-0.4c0-0.1,0-0.3,0.2-0.3c0.4-0.2,0.4-0.4,0.5-0.7
						c0.1-0.3,0.2-0.6,0.2-1c0-0.5,0.5-0.8,0.4-1.3c0-0.1,0.3-0.2,0.5-0.3c0-0.2,0.1-0.4,0.1-0.6c0-0.1,0.2-0.2,0.5-0.2
						c0,0,0-0.1,0-0.1c0.4-1.7,0.7-3.4,1.1-5.1c0-0.2,0.1-0.4,0.2-0.6c0-0.1,0.2-0.1,0.5-0.2c0.1-0.6,0.2-1.1,0.4-1.7
						c0.1-0.3,0.1-0.6,0.5-0.9c0.2-0.1,0.2-0.4,0.3-0.6c0.2-1,0.4-1.9,0.6-2.9c0.1-0.3,0.1-0.5,0.5-0.7c0.2-0.1,0.2-0.3,0.2-0.4
						c0.1-0.3,0.2-0.6,0.2-0.9c0.1-0.7,0.3-1.3,0.4-2c0-0.2,0.1-0.5,0-0.8c-0.1-0.1,0.2-0.2,0.2-0.2c-0.1-0.1-0.2-0.2-0.2-0.3
						c0.4-0.4,0.3-0.9,0.5-1.3c0-0.1,0-0.2,0.1-0.3c0.1-0.1,0.3-0.1,0.4-0.1c0-0.1,0.1-0.3,0.1-0.4c-0.1-0.6,0.7-1,1.6-1.3
						c0,0,0.1,0,0.2,0c0.1-0.1,0.1-0.1,0.2-0.2c0.3-0.1,0.6-0.1,0.9-0.2C586.4,52.8,586.9,52.8,587.6,53z M587.6,53.6
						C587.6,53.6,587.5,53.6,587.6,53.6C587.5,53.5,587.5,53.5,587.6,53.6C587.5,53.6,587.5,53.6,587.6,53.6
						C587.5,53.6,587.6,53.6,587.6,53.6z"/>
				</g>
			</g>
		</g>
	</g>
	<rect x="378.2" y="341" style="fill:none;" width="1690.2" height="483.7"/>
	<text transform="matrix(1 0 0 1 378.1978 364.9743)"><tspan x="0" y="0" style="font-family:'Karla-Bold'; font-size:35px;">Documentos Destacados</tspan><tspan x="0" y="72" style="font-family:'SpaceGrotesk-Bold'; font-size:60px; letter-spacing:1;">Cómo se han redactado las Constituciones en Chile</tspan><tspan x="0" y="150" style="font-family:'SpaceGrotesk-Regular'; font-size:50px; letter-spacing:1;">En este documento se explica el modo en que se hicieron las 10 </tspan><tspan x="0" y="210" style="font-family:'SpaceGrotesk-Regular'; font-size:50px; letter-spacing:1;">constituciones que han regido en Chile desde su independencia. </tspan><tspan x="0" y="270" style="font-family:'SpaceGrotesk-Regular'; font-size:50px; letter-spacing:1;">Además, se da cuenta del contexto en que surgieron y los </tspan><tspan x="0" y="330" style="font-family:'SpaceGrotesk-Regular'; font-size:50px; letter-spacing:1;">mecanismos para escribirla. </tspan><tspan x="0" y="416.6" style="font-family:'Karla-Bold'; font-size:35px;">Leer más</tspan><tspan x="149.9" y="416.6" style="font-family:'MyriadPro-Regular'; font-size:35px;">…</tspan></text>
	<g>
		<g>
			<polygon class="st2" points="460.2,293.8 382,293.8 382,187.6 433.7,187.6 446.9,200.9 460.2,214.1 			"/>
			<polyline class="st3" points="433.7,187.6 433.7,213.6 460.2,213.6 			"/>
		</g>
		<g>
			<g>
				<polyline class="st3" points="434.9,244.5 421.1,258.3 407.2,244.5 				"/>
				<line class="st3" x1="421.1" y1="258.3" x2="421.1" y2="224.3"/>
			</g>
			<line class="st3" x1="405.9" y1="267.2" x2="436.2" y2="267.2"/>
		</g>
	</g>
	<g>
		<rect x="381.5" y="-2151" class="st4" width="73.2" height="73.2"/>
		<polyline class="st5" points="396.8,-2109.4 415.7,-2095.7 439.4,-2133.2 		"/>
	</g>
	<g>
		<path class="st6" d="M490.8-914.4c0,0-15.9,32.7-53.2,32.7s-53.2-32.7-53.2-32.7s15.9-32.7,53.2-32.7S490.8-914.4,490.8-914.4z"/>
		<circle class="st3" cx="437.6" cy="-915.3" r="15.9"/>
	</g>
	<g>
		<text transform="matrix(1 0 0 1 1653.6201 -191.2489)" style="font-family:'SpaceGrotesk-Bold'; font-size:28.8087px;">Para una ciudadanía constituyente</text>
		<g>
			<path d="M2132.1-182.1c0.1,0.5-0.1,1-0.9,1.4c-0.4,0.2-0.8,0.3-1.4,0.4c-0.5,0-1,0.1-1.5,0.1c-2.2,0.1-4.5,0.1-6.7,0.3
				c-2.2,0.2-4.2-0.1-6.3-0.2c-0.2,0-0.3-0.1-0.5-0.2c-1.9,0.1-3.8,0.2-5.7,0.2c-1.1,0-2.2,0.1-3.3-0.1c-0.6-0.1-1.4,0-2.1,0h0
				c-1.4,0.1-2.9,0.1-4.3,0.2c-0.9,0-1.8,0-2.7-0.1c-0.8-0.1-1.6-0.1-2.4,0c-1.9,0.1-3.9,0.2-5.8,0.1c-1.8,0-3.6-0.1-5.5,0
				c-1.8,0.1-3.7,0.2-5.5,0.2c-1,0-2,0.1-3-0.1c-0.6-0.1-1.2-0.1-1.8,0c-1.5,0-3.1,0.1-4.6,0.2c-2.3,0.1-4.5,0.2-6.7,0
				c-0.8-0.1-1.6,0-2.5,0c-1.5,0-2.9,0.4-4.2,0.3c-1.4-0.1-2.9,0-4.3,0c-1.5,0-3.1,0.2-4.6-0.1c-0.6-0.1-1.2,0-1.8,0
				c-1.6,0.1-3.3,0.1-4.9,0.2l0,0c-2.6,0.1-5.1,0.2-7.7,0.3c-1.3,0.1-2.6,0.1-3.9-0.1c-0.9-0.1-1.8,0-2.7,0c-1.1,0-2.2,0.1-3.3-0.1
				c-0.8-0.1-1.6,0-2.4,0c-5,0.2-10,0.4-15,0.6c-0.6,0-1.2,0-1.8,0c-0.3,0-0.5-0.2-0.8-0.2c-0.6,0.2-1.2,0.4-2,0.3
				c-1.2-0.1-2.4,0-3.6-0.1c-1.2-0.1-2.4,0.1-3.7,0.1c-1.1,0-2.2,0.1-3.4,0.1c-1.2,0.1-2.5,0.1-3.7,0.2c-1.5,0.1-3.1,0.1-4.6,0.2
				c-0.9,0-1.8,0.1-2.7-0.1c-0.5-0.1-1-0.1-1.5-0.1c-2,0.1-4.1,0.1-6.1,0.3c-0.3,0-0.6,0.1-0.9,0c-2.4-0.1-4.9,0.1-7.3,0.2
				c-2.7,0.1-5.4,0.2-8,0.3c-1.4,0.1-2.8,0.2-4.2-0.1c-0.6-0.1-1.4,0-2.1,0c-1.3,0.1-2.4-0.1-3.6-0.2c-0.6-0.1-1.1-0.3-1.4-0.6
				c-0.4-0.3-0.5-0.6-0.3-0.9c0.2-0.5,0.9-0.9,1.5-1.3c0.1-0.1,0.4-0.1,0.5-0.1c0.9-0.1,1.8-0.1,2.8-0.2c1.4-0.1,2.8,0,4.2-0.4
				c0.5-0.1,1.2-0.2,1.8-0.1c1.9,0.3,3.8,0.1,5.7,0c0.6,0,1.2,0,1.8,0c0.3,0,0.5,0.1,0.8,0.2c1.3-0.1,2.6-0.2,4-0.2
				c1.3,0,2.7-0.1,4-0.1c0.9,0,1.8-0.2,2.7,0c1.2-0.2,2.4-0.2,3.6,0c0.6,0.1,1.5,0,2.1-0.2c1-0.2,2-0.3,3-0.3
				c1.2-0.1,2.5-0.1,3.7-0.2c1.8-0.1,3.5-0.1,5.2,0c1.2,0.1,2.5,0.1,3.7-0.1c1.6-0.2,3.1-0.1,4.6-0.1c1.4-0.1,2.9-0.1,4.3-0.2
				c0.4,0,0.8,0.1,1.1,0.2c0,0,0,0,0,0c0.6-0.1,1.1-0.4,1.7-0.2c0.9,0.2,1.8,0.1,2.7,0.1c2.6-0.1,5.1-0.2,7.7-0.3c1,0,2-0.1,3.1,0
				c0.5,0,1-0.1,1.5-0.1c0.5,0,1.1-0.1,1.5,0c1,0.2,2,0.1,3,0.1c1.3,0,2.7-0.1,4-0.2c1.8-0.1,3.6,0,5.5-0.2c0.4-0.1,1,0.1,1.4,0.2
				c0.8,0,1.6-0.1,2.4-0.1c0.5,0,1,0,1.3,0.3c0.2,0,0.4,0,0.6,0l0,0l0,0c7.1-0.3,14.1-0.6,21.2-0.9c0.8,0,1.6-0.1,2.5-0.1
				c0.4,0,0.8,0.1,1.1,0.3h0c2.4-0.1,4.7-0.2,7.1-0.3c1.3-0.1,2.6-0.1,4,0.1c0.8,0.1,1.6,0,2.4,0c4-0.2,8-0.3,12-0.5
				c1.1,0,2.2-0.1,3.3,0.1c0.6,0.1,1.2,0,1.8,0c1.3,0,2.7-0.1,4-0.2c2.7-0.1,5.5-0.2,8.2-0.3c1,0,2-0.1,3-0.3c0.3-0.1,0.8,0,1.2,0.1
				c0.3-0.1,0.6-0.2,0.9-0.2c1.9,0.1,3.9-0.1,5.8-0.1c0.4,0,0.8,0,1.2,0c0.3,0,0.5,0.1,0.8,0.2c0.6,0,1.2,0,1.8-0.1
				c2.4-0.2,4.6,0.1,6.6,0.6c0.1,0,0.1,0.1,0.2,0.1c0.3,0,0.6,0,0.9,0.1c0.5,0.1,1,0.3,1.6,0.5
				C2131.5-182.9,2132-182.6,2132.1-182.1z M2129.5-181.9c0.1,0,0.1,0,0.2-0.1c0,0,0,0,0,0C2129.6-182,2129.6-182,2129.5-181.9
				C2129.5-181.9,2129.5-181.9,2129.5-181.9z"/>
		</g>
	</g>
	<g>
		<g>
			<polygon class="st2" points="-42.4,-13.5 -120.6,-13.5 -120.6,-119.7 -68.9,-119.7 -55.6,-106.5 -42.4,-93.2 			"/>
			<polyline class="st3" points="-68.9,-119.7 -68.9,-93.8 -42.4,-93.8 			"/>
		</g>
		<g>
			<g>
				<polyline class="st3" points="-67.6,-62.9 -81.5,-49 -95.3,-62.9 				"/>
				<line class="st3" x1="-81.5" y1="-49" x2="-81.5" y2="-83.1"/>
			</g>
			<line class="st3" x1="-96.6" y1="-40.1" x2="-66.3" y2="-40.1"/>
		</g>
	</g>
	<g>
		<path class="st6" d="M122.2,47.6c0,0-15.9,32.7-53.2,32.7S15.8,47.6,15.8,47.6S31.7,14.9,69,14.9S122.2,47.6,122.2,47.6z"/>
		<circle class="st3" cx="69" cy="46.7" r="15.9"/>
	</g>
	<g>
		<rect x="-155.9" class="st4" width="78" height="78"/>
		<polyline class="st5" points="-139.6,44.3 -119.5,59 -94.3,19 		"/>
	</g>
</g>
<g id="texto">
</g>
</svg>
