<?xml version="1.0" encoding="utf-8"?>
<!-- Generator: Adobe Illustrator 24.2.0, SVG Export Plug-In . SVG Version: 6.00 Build 0)  -->
<svg version="1.1" id="Capa_1" xmlns="http://www.w3.org/2000/svg" xmlns:xlink="http://www.w3.org/1999/xlink" x="0px" y="0px"
	 viewBox="0 0 83 83" style="enable-background:new 0 0 83 83;" xml:space="preserve">
<style type="text/css">
	.st0{fill:#F3CF07;stroke:#000000;stroke-width:5;stroke-miterlimit:10;}
	.st1{fill:none;stroke:#000000;stroke-width:5;stroke-miterlimit:10;}
	.st2{fill:#FF5439;stroke:#000000;stroke-width:5;stroke-miterlimit:10;}
	.st3{fill:#3A92FF;stroke:#000000;stroke-width:5;stroke-miterlimit:10;}
	.st4{fill:none;stroke:#000000;stroke-width:6;stroke-miterlimit:10;}
</style>
<g>
	<g>
		<polygon class="st0" points="80.6,-46.5 2.4,-46.5 2.4,-152.7 54.1,-152.7 67.4,-139.5 80.6,-126.2 		"/>
		<polyline class="st1" points="54.1,-152.7 54.1,-126.8 80.6,-126.8 		"/>
	</g>
	<g>
		<g>
			<polyline class="st1" points="55.4,-95.9 41.5,-82 27.7,-95.9 			"/>
			<line class="st1" x1="41.5" y1="-82" x2="41.5" y2="-116.1"/>
		</g>
		<line class="st1" x1="26.4" y1="-73.1" x2="56.7" y2="-73.1"/>
	</g>
</g>
<g>
	<path class="st2" d="M60.4,162.2c0,0-15.9,32.7-53.2,32.7S-46,162.2-46,162.2s15.9-32.7,53.2-32.7S60.4,162.2,60.4,162.2z"/>
	<circle class="st1" cx="7.2" cy="161.3" r="15.9"/>
</g>
<g>
	<rect x="2.5" y="2.5" class="st3" width="78" height="78"/>
	<polyline class="st4" points="18.8,46.8 38.9,61.5 64.1,21.5 	"/>
</g>
</svg>
