<?xml version="1.0" encoding="utf-8"?>
<!-- Generator: Adobe Illustrator 24.2.0, SVG Export Plug-In . SVG Version: 6.00 Build 0)  -->
<svg version="1.1" id="Capa_1" xmlns="http://www.w3.org/2000/svg" xmlns:xlink="http://www.w3.org/1999/xlink" x="0px" y="0px"
	 viewBox="0 0 83.2 111.2" style="enable-background:new 0 0 83.2 111.2;" xml:space="preserve">
<style type="text/css">
	.st0{fill:#F3CF07;stroke:#000000;stroke-width:5;stroke-miterlimit:10;}
	.st1{fill:none;stroke:#000000;stroke-width:5;stroke-miterlimit:10;}
	.st2{fill:#FF5439;stroke:#000000;stroke-width:5;stroke-miterlimit:10;}
	.st3{fill:#3A92FF;stroke:#000000;stroke-width:5;stroke-miterlimit:10;}
	.st4{fill:none;stroke:#000000;stroke-width:6;stroke-miterlimit:10;}
</style>
<g>
	<g>
		<polygon class="st0" points="80.7,108.7 2.5,108.7 2.5,2.5 54.2,2.5 67.5,15.7 80.7,29 		"/>
		<polyline class="st1" points="54.2,2.5 54.2,28.4 80.7,28.4 		"/>
	</g>
	<g>
		<g>
			<polyline class="st1" points="55.5,59.3 41.6,73.2 27.8,59.3 			"/>
			<line class="st1" x1="41.6" y1="73.2" x2="41.6" y2="39.1"/>
		</g>
		<line class="st1" x1="26.5" y1="82.1" x2="56.8" y2="82.1"/>
	</g>
</g>
<g>
	<path class="st2" d="M60.5,317.4c0,0-15.9,32.7-53.2,32.7s-53.2-32.7-53.2-32.7s15.9-32.7,53.2-32.7S60.5,317.4,60.5,317.4z"/>
	<circle class="st1" cx="7.3" cy="316.5" r="15.9"/>
</g>
<g>
	<rect x="2.6" y="157.7" class="st3" width="78" height="78"/>
	<polyline class="st4" points="18.9,202 39,216.7 64.2,176.7 	"/>
</g>
</svg>
