<svg width="111" height="72" viewBox="0 0 111 72" fill="none" xmlns="http://www.w3.org/2000/svg">
<path d="M39.6506 54.6931V61.3296L46.2871 54.6931H58.1319V1H1V54.6931H39.6506Z" fill="white" stroke="black" stroke-width="2" stroke-miterlimit="10"/>
<path d="M96.4672 62.3015V68.938L103.1 62.3015H109.477V8.6084H52.345V62.3015H96.4672Z" fill="white" stroke="black" stroke-width="2" stroke-miterlimit="10"/>
<path d="M80.8014 22.2153C86.0283 22.2153 89.9308 25.3092 89.9308 29.872V30.0204C89.9308 34.3643 87.1337 36.1338 84.5185 37.2727L83.8544 37.5657C82.9715 37.9701 82.6748 38.4486 82.6748 39.517V40.4741H77.8152V39.1498C77.8152 36.6458 78.6981 35.0618 81.0166 34.0305L81.6806 33.7374C83.8915 32.7432 85.0675 31.9345 85.0675 30.0909C85.0675 28.1025 83.3722 26.7782 80.7977 26.7782C78.1453 26.7782 76.157 28.1025 76.157 30.6065V31.4894H71.2974V30.3839C71.3011 25.3092 75.5004 22.2153 80.8014 22.2153ZM80.2487 42.9558C82.237 42.9558 83.7469 44.3915 83.7469 46.454C83.7469 48.5166 82.237 49.9522 80.2487 49.9522C78.2603 49.9522 76.7505 48.5166 76.7505 46.454C76.7505 44.3915 78.2603 42.9558 80.2487 42.9558Z" fill="white" stroke="black" stroke-width="2" stroke-miterlimit="10"/>
<path d="M28.0691 40.8341C22.8422 40.8341 18.9397 37.7403 18.9397 33.1774V33.029C18.9397 28.6851 21.7368 26.9156 24.352 25.7767L25.0161 25.4837C25.8989 25.0793 26.1957 24.6008 26.1957 23.5324V22.5753H31.0553V23.8997C31.0553 26.4037 30.1724 27.9877 27.8539 29.0189L27.1899 29.312C24.979 30.3062 23.803 31.1149 23.803 32.9586C23.803 34.9469 25.4983 36.2713 28.0728 36.2713C30.7252 36.2713 32.7135 34.9469 32.7135 32.4429V31.56H37.5731V32.6655C37.5694 37.744 33.3701 40.8341 28.0691 40.8341ZM28.6218 20.0973C26.6335 20.0973 25.1236 18.6617 25.1236 16.5991C25.1236 14.5366 26.6335 13.101 28.6218 13.101C30.6102 13.101 32.12 14.5366 32.12 16.5991C32.12 18.6617 30.6102 20.0973 28.6218 20.0973Z" fill="white" stroke="black" stroke-width="2" stroke-miterlimit="10"/>
</svg>
