<svg width="112" height="73" viewBox="0 0 112 73" fill="none" xmlns="http://www.w3.org/2000/svg">
<path d="M40.6506 55.6931V62.3296L47.2871 55.6931H59.1319V2H2V55.6931H40.6506Z" fill="white" stroke="black" stroke-width="2.5" stroke-miterlimit="10"/>
<path d="M97.4672 63.3015V69.938L104.1 63.3015H110.477V9.6084H53.345V63.3015H97.4672Z" fill="white" stroke="black" stroke-width="2.5" stroke-miterlimit="10"/>
<path d="M81.8014 23.2153C87.0283 23.2153 90.9308 26.3092 90.9308 30.872V31.0204C90.9308 35.3643 88.1337 37.1338 85.5185 38.2727L84.8544 38.5657C83.9715 38.9701 83.6748 39.4486 83.6748 40.517V41.4741H78.8152V40.1498C78.8152 37.6458 79.6981 36.0618 82.0166 35.0305L82.6806 34.7374C84.8915 33.7432 86.0675 32.9345 86.0675 31.0909C86.0675 29.1025 84.3722 27.7782 81.7977 27.7782C79.1453 27.7782 77.157 29.1025 77.157 31.6065V32.4894H72.2974V31.3839C72.3011 26.3092 76.5004 23.2153 81.8014 23.2153ZM81.2487 43.9558C83.237 43.9558 84.7469 45.3915 84.7469 47.454C84.7469 49.5166 83.237 50.9522 81.2487 50.9522C79.2603 50.9522 77.7505 49.5166 77.7505 47.454C77.7505 45.3915 79.2603 43.9558 81.2487 43.9558Z" fill="white" stroke="black" stroke-width="2.5" stroke-miterlimit="10"/>
<path d="M29.0691 41.8341C23.8422 41.8341 19.9397 38.7403 19.9397 34.1774V34.029C19.9397 29.6851 22.7368 27.9156 25.352 26.7767L26.0161 26.4837C26.8989 26.0793 27.1957 25.6008 27.1957 24.5324V23.5753H32.0553V24.8997C32.0553 27.4037 31.1724 28.9877 28.8539 30.0189L28.1899 30.312C25.979 31.3062 24.803 32.1149 24.803 33.9586C24.803 35.9469 26.4983 37.2713 29.0728 37.2713C31.7252 37.2713 33.7135 35.9469 33.7135 33.4429V32.56H38.5731V33.6655C38.5694 38.744 34.3701 41.8341 29.0691 41.8341ZM29.6218 21.0973C27.6335 21.0973 26.1236 19.6617 26.1236 17.5991C26.1236 15.5366 27.6335 14.101 29.6218 14.101C31.6102 14.101 33.12 15.5366 33.12 17.5991C33.12 19.6617 31.6102 21.0973 29.6218 21.0973Z" fill="white" stroke="black" stroke-width="2.5" stroke-miterlimit="10"/>
</svg>
