<svg width="215" height="164" viewBox="0 0 215 164" fill="none" xmlns="http://www.w3.org/2000/svg">
<g clip-path="url(#clip0)">
<path d="M89.4454 107.246V116.423L98.6223 107.246H115.001V33H36V107.246H89.4454Z" fill="white" stroke="black" stroke-width="5" stroke-miterlimit="10"/>
<path d="M168.011 117.767V126.944L177.182 117.767H186V43.5209H106.999V117.767H168.011Z" fill="white" stroke="black" stroke-width="5" stroke-miterlimit="10"/>
<path d="M146.348 62.3362C153.576 62.3362 158.972 66.6143 158.972 72.9237V73.1289C158.972 79.1356 155.104 81.5825 151.488 83.1573L150.57 83.5625C149.349 84.1216 148.939 84.7833 148.939 86.2607V87.5841H142.219V85.7528C142.219 82.2904 143.44 80.1 146.646 78.674L147.564 78.2687C150.621 76.894 152.247 75.7758 152.247 73.2263C152.247 70.4769 149.903 68.6456 146.343 68.6456C142.675 68.6456 139.926 70.4769 139.926 73.9394V75.1602H133.206V73.6316C133.211 66.6143 139.018 62.3362 146.348 62.3362ZM145.584 91.0158C148.333 91.0158 150.421 93.001 150.421 95.853C150.421 98.7051 148.333 100.69 145.584 100.69C142.834 100.69 140.747 98.7051 140.747 95.853C140.747 93.001 142.834 91.0158 145.584 91.0158Z" fill="white" stroke="black" stroke-width="5" stroke-miterlimit="10"/>
<path d="M73.4307 88.0817C66.2031 88.0817 60.8068 83.8036 60.8068 77.4942V77.289C60.8068 71.2823 64.6745 68.8354 68.2909 67.2607L69.2091 66.8554C70.4299 66.2963 70.8403 65.6346 70.8403 64.1572V62.8338H77.5601V64.6651C77.5601 68.1276 76.3392 70.3179 73.1332 71.7439L72.215 72.1492C69.1578 73.5239 67.5317 74.6422 67.5317 77.1916C67.5317 79.941 69.8759 81.7723 73.4359 81.7723C77.1035 81.7723 79.853 79.941 79.853 76.4786V75.2577H86.5728V76.7863C86.5677 83.8088 80.7609 88.0817 73.4307 88.0817ZM74.195 59.4072C71.4456 59.4072 69.3578 57.4221 69.3578 54.57C69.3578 51.7179 71.4456 49.7328 74.195 49.7328C76.9445 49.7328 79.0323 51.7179 79.0323 54.57C79.0323 57.4221 76.9445 59.4072 74.195 59.4072Z" fill="white" stroke="black" stroke-width="5" stroke-miterlimit="10"/>
</g>
<defs>
<clipPath id="clip0">
<rect width="215" height="164" fill="white"/>
</clipPath>
</defs>
</svg>
