<svg width="175" height="167" viewBox="0 0 175 167" fill="none" xmlns="http://www.w3.org/2000/svg">
<g clip-path="url(#clip0)">
<path d="M81.271 133.559C109.84 133.559 132.999 111.147 132.999 83.5C132.999 55.8531 109.84 33.4408 81.271 33.4408C52.7023 33.4408 29.5427 55.8531 29.5427 83.5C29.5427 111.147 52.7023 133.559 81.271 133.559Z" stroke="black" stroke-width="5" stroke-miterlimit="10"/>
<path d="M72.9657 34.5367C49.2613 63.3047 49.4106 104.366 73.4047 132.99" stroke="black" stroke-width="5" stroke-miterlimit="10"/>
<path d="M90.9987 34.5367C114.475 63.0328 114.554 103.593 91.2357 132.174" stroke="black" stroke-width="5" stroke-miterlimit="10"/>
<path d="M116.59 45.5138C95.1863 57.0431 69.0763 57.2979 47.4526 46.2954" stroke="black" stroke-width="5" stroke-miterlimit="10"/>
<path d="M47.4526 120.135C68.8568 108.606 94.9668 108.351 116.59 119.354" stroke="black" stroke-width="5" stroke-miterlimit="10"/>
<path d="M29.5427 83.5H132.999" stroke="black" stroke-width="5" stroke-miterlimit="10"/>
<path d="M81.9822 33.7297V133.27" stroke="black" stroke-width="5" stroke-miterlimit="10"/>
<path d="M134.035 85.4711L101.148 73.7209L112.807 105.709L119.549 99.2858L136.274 115.709L144.017 108.326L127.293 91.9027L134.035 85.4711Z" fill="white" stroke="black" stroke-width="5" stroke-miterlimit="10"/>
</g>
<defs>
<clipPath id="clip0">
<rect width="175" height="167" fill="white"/>
</clipPath>
</defs>
</svg>
