<?xml version="1.0" encoding="utf-8"?>
<!-- Generator: Adobe Illustrator 24.2.0, SVG Export Plug-In . SVG Version: 6.00 Build 0)  -->
<svg version="1.1" id="Capa_1" xmlns="http://www.w3.org/2000/svg" xmlns:xlink="http://www.w3.org/1999/xlink" x="0px" y="0px"
	 viewBox="0 0 108 106.6" style="enable-background:new 0 0 108 106.6;" xml:space="preserve">
<style type="text/css">
	.st0{fill:none;stroke:#000000;stroke-width:6.5;stroke-miterlimit:10;}
	.st1{fill:#FFFFFF;stroke:#000000;stroke-width:6.5;stroke-miterlimit:10;}
	.st2{fill:#FFFFFF;}
	.st3{stroke:#000000;stroke-width:6.5;stroke-miterlimit:10;}
	.st4{fill:#1D1D1B;}
	.st5{fill:#FFFFFF;stroke:#1D1D1B;stroke-width:6.5;stroke-miterlimit:10;}
	.st6{fill:#1D1D1B;stroke:#1D1D1B;stroke-width:6.5;stroke-miterlimit:10;}
	.st7{fill:none;stroke:#1D1D1B;stroke-width:6.5;stroke-miterlimit:10;}
	.st8{fill:#FC5439;stroke:#000000;stroke-width:6.5;stroke-miterlimit:10;}
	.st9{fill:#3A90FD;stroke:#000000;stroke-width:6.5;stroke-miterlimit:10;}
	.st10{fill:#F1CD08;stroke:#000000;stroke-width:6.5;stroke-miterlimit:10;}
</style>
<g>
	<path class="st0" d="M-2630.76,90.27V15.93c0-4.23,3.43-7.65,7.65-7.65h54.6v77.9"/>
	<path class="st0" d="M-2607.19,97.01h38.68V83.52h-55.51c-3.72,0-6.74,3.02-6.74,6.74v0c0,3.72,3.02,6.74,6.74,6.74h1.52"/>
	<rect x="-2613.1" y="29.05" class="st0" width="26.92" height="15.7"/>
	<polygon class="st0" points="-2609.38,110.16 -2614.64,115.47 -2619.9,110.16 -2619.9,93.21 -2609.38,93.21 	"/>
</g>
<polygon class="st0" points="-2961.47,52.89 -2997.14,17.22 -2997.14,32.72 -3054.26,32.72 -3054.26,74.46 -2997.14,74.46 
	-2997.14,88.56 "/>
<g>
	<polyline class="st0" points="-2788.53,26.27 -2764.89,26.27 -2764.89,97.47 -2841.76,97.47 -2841.76,26.27 -2811.62,26.27 	"/>
	<polygon class="st0" points="-2806.27,38.08 -2814.85,29.5 -2793.66,8.31 -2782.11,19.86 -2800.34,38.08 	"/>
	<polyline class="st0" points="-2816.22,38.08 -2806.27,38.08 -2800.34,38.08 -2790.43,38.08 	"/>
</g>
<g>
	<polygon class="st0" points="-3176.69,-1.41 -3252.71,50.15 -3260.44,69.56 -3239.55,69.56 -3163.53,18 	"/>
	<line class="st0" x1="-3252.71" y1="50.15" x2="-3239.55" y2="69.56"/>
</g>
<g>
	<g>
		<path class="st1" d="M-2390.87,85.85h24.01c19.62,0,35.53-15.91,35.53-35.53v0c0-19.62-15.91-35.53-35.53-35.53l-3.72,0h-78.89
			c-4.91,0-8.88,3.98-8.88,8.88v0c0,4.91,3.98,8.88,8.88,8.88h68.05v0"/>
		<path class="st1" d="M-2381.43,32.56h-21.09c-4.91,0-8.88,3.98-8.88,8.88v0c0,4.91,3.98,8.88,8.88,8.88h19.4h1.7
			c4.91,0,8.88-3.98,8.88-8.88v0C-2372.55,36.54-2376.52,32.56-2381.43,32.56z"/>
		<path class="st1" d="M-2380.79,50.32h-21.1c-4.91,0-8.88,3.98-8.88,8.88v0c0,4.91,3.98,8.88,8.88,8.88h19.4h1.7
			c4.91,0,8.88-3.98,8.88-8.88v0C-2371.91,54.3-2375.89,50.32-2380.79,50.32z"/>
		<path class="st1" d="M-2380.79,68.09h-21.1c-4.91,0-8.88,3.98-8.88,8.88v0c0,4.91,3.98,8.88,8.88,8.88h19.4h1.7
			c4.91,0,8.88-3.98,8.88-8.88v0C-2371.91,72.06-2375.89,68.09-2380.79,68.09z"/>
	</g>
	<path class="st1" d="M-2367.34,16.67l-11.69,23.48c-2.15,4.41-0.32,9.73,4.09,11.88v0c4.41,2.15,9.73,0.32,11.88-4.09l8.54-17.14"
		/>
</g>
<g>
	<ellipse class="st2" cx="-2185.61" cy="55.9" rx="28.07" ry="18.08"/>
	<g>
		<path class="st1" d="M-2166.25,51.17V36.54c0-3.72,3.01-6.73,6.73-6.73l0,0c3.72,0,6.73,3.01,6.73,6.73v22.75
			c0,18.59-15.07,33.66-33.66,33.66l0,0c-18.59,0-33.66-15.07-33.66-33.66V36.18l0,0c7.43,0,13.45,6.02,13.45,13.45v8.75l0,0
			c7.42,0,13.44,6.02,13.44,13.44v0.83"/>
		<path class="st1" d="M-2166.32,51.17V18.4c0-3.72-3.01-6.73-6.73-6.73l0,0c-3.72,0-6.73,3.01-6.73,6.73v25.15"/>
		<path class="st1" d="M-2179.77,47.34V11.57c0-3.72-3.01-6.73-6.73-6.73l0,0c-3.72,0-6.73,3.01-6.73,6.73v25.15"/>
		<path class="st1" d="M-2193.22,46.56V16.79c0-3.72-3.01-6.73-6.73-6.73l0,0c-3.72,0-6.73,3.01-6.73,6.73v37.79"/>
	</g>
</g>
<g>
	<line class="st0" x1="-2000.33" y1="-163.45" x2="-1923.78" y2="-182.43"/>
	<circle class="st1" cx="-2000.33" cy="-163.45" r="25.98"/>
	<line class="st0" x1="-1846.97" y1="-163.44" x2="-1923.53" y2="-182.42"/>
	<circle class="st1" cx="-1846.97" cy="-163.45" r="25.98"/>
	<circle class="st1" cx="-1923.78" cy="-182.43" r="25.98"/>
</g>
<g>
	<circle class="st0" cx="-1777.8" cy="47.34" r="35.6"/>
	<g>
		<circle class="st3" cx="-1791.57" cy="40.3" r="1.69"/>
		<circle class="st3" cx="-1764.04" cy="40.3" r="1.69"/>
	</g>
	<path class="st0" d="M-1790.29,55.3c6.9,6.9,18.07,6.9,24.98,0"/>
</g>
<g>
	<line class="st0" x1="-1545" y1="14.7" x2="-1545" y2="86.55"/>
	<line class="st0" x1="-1615.31" y1="50.62" x2="-1666.23" y2="50.62"/>
	<line class="st0" x1="-1505.39" y1="50.62" x2="-1556.31" y2="50.62"/>
	<rect x="-1634.71" y="31.37" class="st1" width="89.71" height="38.51"/>
	<line class="st0" x1="-1507.01" y1="34.86" x2="-1507.01" y2="66.38"/>
	<line class="st0" x1="-1593.49" y1="32.11" x2="-1593.49" y2="47.06"/>
	<line class="st0" x1="-1579.86" y1="33.32" x2="-1579.86" y2="54.74"/>
</g>
<circle class="st1" cx="1066.32" cy="50.66" r="35.26"/>
<g>
	<rect x="-1408.82" y="4.49" class="st1" width="70.6" height="50.69"/>
	<line class="st1" x1="-1408.82" y1="-3.23" x2="-1408.82" y2="86.16"/>
	<rect x="-1408.82" y="29.84" class="st1" width="70.6" height="25.35"/>
	<rect x="-1408.82" y="4.49" class="st1" width="25.35" height="25.35"/>
</g>
<g transform="translate(0,-952.36218)">
	<path class="st1" d="M-1199.88,1025.69c0,18.4,13.01,33.32,29.05,33.32s29.05-14.92,29.05-33.32c0-18.4-13.96-38.93-29.05-56.24
		C-1170.83,969.45-1199.88,1002.47-1199.88,1025.69z"/>
</g>
<g>
	<polyline class="st1" points="-1022.89,47.76 -978.16,3.03 -933.43,47.76 	"/>
	<path class="st1" d="M-978.16,40.01"/>
	<polygon class="st1" points="-947.87,91.66 -1008.45,91.66 -1008.45,33.35 -978.16,3.03 -947.87,33.35 	"/>
	<polyline class="st0" points="-991.28,91.66 -991.28,56.31 -965.04,56.31 -965.04,91.66 	"/>
</g>
<g>
	<circle class="st1" cx="462.09" cy="52.89" r="35.29"/>
	<polyline class="st1" points="448.53,52.51 456.71,62.31 475.65,43.47 	"/>
</g>
<g>
	<g>
		<g>
			<rect x="-797.37" y="22.09" class="st0" width="69.54" height="69.54"/>
			<g>
				<line class="st1" x1="-782.45" y1="11.29" x2="-782.45" y2="32.88"/>
				<line class="st1" x1="-742.75" y1="11.29" x2="-742.75" y2="32.88"/>
			</g>
		</g>
		<line class="st1" x1="-797.37" y1="44.79" x2="-727.83" y2="44.79"/>
	</g>
	<g>
		<path class="st4" d="M-762,57.04v4.07l-6.81,5.54v0.42h0.91c3.4,0,6.46,2.35,6.46,6.81c0,4.98-3.79,8.21-9.26,8.21
			c-5.86,0-9.4-3.47-9.4-8.35v-0.98h4.63v0.84c0,2.39,1.65,4.35,4.77,4.35c2.91,0,4.63-1.72,4.63-4.07s-1.65-3.51-4-3.51h-4.28
			v-4.14l6.07-4.98h-11.12v-4.21H-762z"/>
		<path class="st4" d="M-746.63,57.04V81.6h-4.63V61.95h-0.42l-3.44,6.18h-4.84l6.32-11.09H-746.63z"/>
	</g>
</g>
<g>
	<g>
		<circle class="st1" cx="-560.27" cy="56.81" r="34.11"/>
		<g>
			<path class="st1" d="M-565.74,23.45c-15.63,19.6-15.53,47.58,0.29,67.07"/>
			<path class="st1" d="M-553.85,23.45c15.48,19.42,15.53,47.05,0.16,66.52"/>
		</g>
		<line class="st1" x1="-594.37" y1="56.81" x2="-526.16" y2="56.81"/>
		<line class="st1" x1="-559.8" y1="22.9" x2="-559.8" y2="90.72"/>
	</g>
</g>
<g>
	<circle class="st1" cx="-367.8" cy="33.16" r="22.82"/>
	<line class="st1" x1="-367.8" y1="55.98" x2="-367.8" y2="99.32"/>
	<line class="st1" x1="-385.89" y1="75.17" x2="-349.7" y2="75.17"/>
</g>
<g>
	<circle class="st1" cx="-155.33" cy="43.72" r="22.82"/>
	<line class="st1" x1="-139.11" y1="27.03" x2="-99.48" y2="-12.61"/>
	<polyline class="st0" points="-125.9,-12.61 -99.48,-12.61 -99.48,13.82 	"/>
</g>
<path class="st1" d="M98.45,60.23V48.19L61.86,35.05l0.48-18.57c0.09-2.9-1.09-5.69-3.23-7.65l0,0c-3.79-3.47-9.61-3.48-13.41-0.01
	l-0.01,0.01c-2.15,1.96-3.34,4.76-3.24,7.66l0.48,18.55L9.27,47.21v12.04l34.33-6.35l1.48,23.62l-12.3,10.06v8.46l20.03-9.74
	l20.03,9.74v-8.46L59.74,76.01l1.45-22.86L98.45,60.23z"/>
<g>
	<g>
		<g>
			<g>
				<g>
					<g>
						<rect x="1442.69" y="31.6" class="st2" width="79.95" height="61.47"/>
						<rect x="1442.69" y="31.6" class="st0" width="79.95" height="61.47"/>
					</g>
				</g>
			</g>
		</g>
		<path class="st1" d="M1501.79,80.87h-38.24c-4.08,0-7.39-3.31-7.39-7.39V51.18c0-4.08,3.31-7.39,7.39-7.39h38.24
			c4.08,0,7.39,3.31,7.39,7.39v22.31C1509.18,77.56,1505.87,80.87,1501.79,80.87z"/>
		<g>
			<line class="st1" x1="1457.08" y1="5.15" x2="1483.25" y2="31.32"/>
			<line class="st1" x1="1508.25" y1="5.15" x2="1482.08" y2="31.32"/>
		</g>
	</g>
</g>
<g>
	<polygon class="st1" points="290.42,95.52 225.53,95.52 225.53,7.4 268.43,7.4 279.43,18.4 290.42,29.39 	"/>
	<polyline class="st1" points="268.43,7.4 268.43,28.94 290.42,28.94 	"/>
</g>
<g>
	
		<rect x="850.26" y="35.82" transform="matrix(-1.836970e-16 1 -1 -1.836970e-16 914.181 -798.7261)" class="st1" width="12.39" height="43.82"/>
	<rect x="833.32" y="7.1" class="st1" width="12.39" height="88.26"/>
	<rect x="871.74" y="51.53" class="st1" width="12.39" height="43.82"/>
</g>
<g>
	<g>
		<polygon class="st1" points="698.74,92.94 633.68,92.94 633.68,4.6 676.69,4.6 687.71,15.62 698.74,26.65 		"/>
		<polyline class="st1" points="676.69,4.6 676.69,26.19 698.74,26.19 		"/>
	</g>
	<line class="st1" x1="649.37" y1="46.41" x2="681.38" y2="46.41"/>
	<line class="st1" x1="649.1" y1="59.66" x2="681.11" y2="59.66"/>
	<line class="st1" x1="649.1" y1="72.9" x2="681.11" y2="72.9"/>
</g>
<g>
	<g>
		<path class="st4" d="M1076.34,55.74v0.37c0,4.38-3.02,7.11-7.37,7.77v3.94h-4.42v-3.9c-5.08-0.7-8.25-3.98-8.25-9.28v-0.81h4.86
			v0.59c0,2.39,1.07,4.13,3.39,4.79v-7c-4.68-1.14-7.29-3.13-7.29-7.37v-0.22c0-4.02,3.09-6.67,7.29-7.26v-3.87h4.42v4.01
			c4.16,0.81,7,3.65,7,7.92v1.11h-4.86v-0.74c0-1.84-0.77-2.95-2.14-3.54v6.15C1073.72,49.55,1076.34,51.54,1076.34,55.74z
			 M1064.55,47.41v-5.38c-1.47,0.44-2.36,1.44-2.36,2.65C1062.19,46.2,1063.11,46.9,1064.55,47.41z M1071.4,56.11
			c0-1.47-0.85-2.28-2.43-2.84v5.93C1070.59,58.65,1071.4,57.43,1071.4,56.11z"/>
	</g>
</g>
<g>
	<circle class="st5" cx="3907.5" cy="-209.4" r="35.69"/>
	<g>
		<circle class="st6" cx="3893.7" cy="-216.46" r="1.7"/>
		<circle class="st6" cx="3921.3" cy="-216.46" r="1.7"/>
	</g>
	<path class="st7" d="M3894.98-201.42c6.92,6.92,18.12,6.92,25.04,0"/>
</g>
<g>
	<circle class="st5" cx="3971.36" cy="-209.4" r="35.69"/>
	<g>
		<circle class="st6" cx="3957.56" cy="-216.46" r="1.7"/>
		<circle class="st6" cx="3985.16" cy="-216.46" r="1.7"/>
	</g>
	<path class="st7" d="M3958.84-201.42c6.92,6.92,18.12,6.92,25.04,0"/>
</g>
<g>
	<circle class="st5" cx="4035.22" cy="-209.4" r="35.69"/>
	<g>
		<circle class="st6" cx="4021.42" cy="-216.46" r="1.7"/>
		<circle class="st6" cx="4049.02" cy="-216.46" r="1.7"/>
	</g>
	<path class="st7" d="M4022.7-201.42c6.92,6.92,18.12,6.92,25.04,0"/>
</g>
<polygon class="st1" points="1286.46,70.22 1304.42,87.86 1304.42,70.22 1322.06,70.22 1304.42,52.26 1322.06,34.3 1304.42,34.3 
	1304.42,16.66 1286.46,34.3 1268.5,16.66 1268.5,34.3 1250.86,34.3 1268.5,52.26 1250.86,70.22 1268.5,70.22 1268.5,87.86 "/>
<path class="st0" d="M4326.46,27.99c-19.42-11.08-39.69,1.39-38.74,22.03c1.04,22.68,19.59,51.75,37.54,44.64
	c2.43-0.97,5.14-0.97,7.57,0c17.94,7.11,36.49-21.97,37.54-44.64c0.95-20.59-19.24-33.06-38.63-22.09L4326.46,27.99z"/>
<path class="st0" d="M4336.15,6.71c-8.08,8.08-9.27,20.42-3.57,29.75"/>
<path class="st0" d="M4541.57,10.72c-15.65,1.49-19.56,16.36-22.4,32.85c-0.54,3.15-2.3,6.02-4.34,9.34
	c-3.7,6.02-8.29,13.51-5.89,25.26c1.08,5.52,4.51,10.3,9.39,13.1c6.38,3.78,15.19,4.62,22.99,2.21c1.59-0.51,3.3-0.44,4.84,0.2
	c3.02,1.27,6.28,1.91,9.56,1.88c3.96,0.01,7.88-0.85,11.47-2.52c6.07-2.82,10.57-8.21,12.26-14.69c3.27-11.72-1.68-19.37-5.65-25.52
	c-2.06-3.18-4-6.18-4.53-9.27c-2.83-16.42-6.72-31.25-22.22-32.84L4541.57,10.72z"/>
<path class="st0" d="M4550.33-6.16c-8.32,8.32-10.13,20.68-5.43,30.75"/>
<g>
	<rect x="3066.01" y="15.63" class="st1" width="99.16" height="71.2"/>
	<rect x="3066.01" y="51.23" class="st8" width="99.16" height="35.6"/>
	<rect x="3066.01" y="15.63" class="st9" width="35.6" height="35.6"/>
</g>
<polygon class="st1" points="4155.59,88.33 4104.55,96.02 4104.55,7.15 4155.59,-0.54 "/>
<rect x="4104.55" y="8.11" class="st1" width="63.23" height="88.87"/>
<g>
	<polygon class="st0" points="3503.46,101.88 3503.46,113.03 3492.31,101.88 3472.39,101.88 3472.39,11.59 3568.46,11.59 
		3568.46,101.88 	"/>
</g>
<g>
	<g>
		<circle class="st0" cx="3295.18" cy="38.99" r="20.4"/>
		<line class="st0" x1="3310.23" y1="54.04" x2="3317.96" y2="61.78"/>
	</g>
	
		<rect x="3324" y="56.69" transform="matrix(0.7071 -0.7071 0.7071 0.7071 923.1615 2375.9504)" class="st0" width="11.21" height="33.86"/>
</g>
<g>
	<path class="st0" d="M2910.54,44.75c-0.63,4.55-2.69,8.93-6.18,12.43c-8.52,8.52-22.33,8.52-30.85,0c-8.52-8.52-8.52-22.33,0-30.85
		c8.52-8.52,22.33-8.52,30.85,0C2909.38,31.35,2911.44,38.21,2910.54,44.75"/>
	<polyline class="st0" points="2911.54,44.59 2944.79,82.82 2931.32,96.29 2893.09,63.04 	"/>
	<line class="st0" x1="2937.53" y1="90.08" x2="2955.83" y2="108.38"/>
	<line class="st0" x1="2873.51" y1="57.18" x2="2903.57" y2="27.12"/>
</g>
<g>
	<rect x="3695.29" y="6.9" class="st0" width="65.29" height="88.66"/>
	<g>
		<polyline class="st0" points="3707.78,29.9 3713.66,34.19 3721.06,22.48 		"/>
		<polyline class="st0" points="3734.8,53.55 3740.69,57.85 3748.09,46.13 		"/>
		<g>
			<line class="st0" x1="3747.86" y1="23.66" x2="3735.03" y2="36.49"/>
			<line class="st0" x1="3735.03" y1="23.66" x2="3747.86" y2="36.49"/>
		</g>
		<g>
			<line class="st0" x1="3720.83" y1="67.15" x2="3708.01" y2="79.98"/>
			<line class="st0" x1="3708.01" y1="67.15" x2="3720.83" y2="79.98"/>
		</g>
		<line class="st0" x1="3708.57" y1="51.99" x2="3720.27" y2="51.99"/>
		<line class="st0" x1="3735.6" y1="73.57" x2="3747.29" y2="73.57"/>
	</g>
</g>
<polygon class="st0" points="2707.36,18.48 2718.92,41.92 2744.79,45.67 2726.07,63.92 2730.49,89.68 2707.36,77.51 2684.22,89.68 
	2688.64,63.92 2669.93,45.67 2695.79,41.92 "/>
<g>
	<rect x="2445.18" y="26.47" class="st0" width="116.13" height="71.69"/>
	<polyline class="st0" points="2445.28,26.47 2504.05,62.31 2561.2,26.47 	"/>
</g>
<g>
	<g>
		<polygon class="st0" points="2288.58,98.01 2223.17,98.01 2223.17,9.19 2266.41,9.19 2277.49,20.28 2288.58,31.36 		"/>
		<polyline class="st0" points="2266.41,9.19 2266.41,30.9 2288.58,30.9 		"/>
	</g>
	<line class="st0" x1="2238.96" y1="51.23" x2="2271.13" y2="51.23"/>
	<line class="st10" x1="2238.68" y1="64.54" x2="2270.85" y2="64.54"/>
	<line class="st10" x1="2238.68" y1="77.86" x2="2270.85" y2="77.86"/>
</g>
<g>
	<g>
		<polygon class="st0" points="2375.08,98.01 2309.67,98.01 2309.67,9.19 2352.91,9.19 2364,20.28 2375.08,31.36 		"/>
		<polyline class="st0" points="2352.91,9.19 2352.91,30.9 2375.08,30.9 		"/>
	</g>
	<line class="st0" x1="2325.46" y1="51.23" x2="2357.63" y2="51.23"/>
	<line class="st10" x1="2325.18" y1="64.54" x2="2357.36" y2="64.54"/>
	<line class="st10" x1="2325.18" y1="77.86" x2="2357.36" y2="77.86"/>
</g>
<polyline class="st0" points="2327.27,28.96 2333.17,33.27 2340.58,21.53 "/>
<g>
	<line class="st0" x1="2252.5" y1="20.97" x2="2239.65" y2="33.83"/>
	<line class="st0" x1="2239.65" y1="20.97" x2="2252.5" y2="33.83"/>
</g>
<g>
	<g>
		<g>
			<polygon class="st0" points="2057.12,88.18 2121.53,88.18 2121.53,-0.61 2078.95,-0.61 2068.04,10.47 2057.12,21.55 			"/>
			<polyline class="st0" points="2078.95,-0.61 2078.95,21.09 2057.12,21.09 			"/>
		</g>
	</g>
</g>
<g>
	<g>
		<circle class="st1" cx="2110.11" cy="36.41" r="20.88"/>
		<line class="st1" x1="2125.52" y1="51.82" x2="2133.43" y2="59.74"/>
	</g>
	
		<rect x="2139.61" y="54.53" transform="matrix(0.7071 -0.7071 0.7071 0.7071 577.5453 1538.042)" class="st1" width="11.48" height="34.67"/>
</g>
<g>
	<path class="st0" d="M1949.29,54.37c0,0-17.48,41.31-58.39,41.31s-58.39-41.31-58.39-41.31V53.6c0,0,12.46-21.34,25.4-27.36
		c12.94-6.02,32.99,4.23,32.99,4.23l0,0c0,0,19.92-10.25,32.87-4.23s25.4,27.36,25.4,27.36L1949.29,54.37z"/>
	<path class="st0" d="M1832.5,53.6c0,0,48.67,12.89,116.79,0.77"/>
</g>
<g>
	<path class="st0" d="M1731.57,58.6c0,0-17.47,35.88-58.34,35.88s-58.34-35.88-58.34-35.88s17.47-35.88,58.34-35.88
		S1731.57,58.6,1731.57,58.6z"/>
	<circle class="st0" cx="1673.23" cy="57.61" r="17.39"/>
</g>
<g>
	<circle class="st5" cx="4748.51" cy="56.18" r="35.69"/>
	<g>
		<circle class="st6" cx="4734.71" cy="49.12" r="1.7"/>
		<circle class="st6" cx="4762.31" cy="49.12" r="1.7"/>
	</g>
	<path class="st7" d="M4735.99,64.16c6.92,6.92,18.12,6.92,25.04,0"/>
</g>
<g>
	<circle class="st1" cx="4960.03" cy="31.22" r="22.82"/>
	<line class="st1" x1="4960.03" y1="54.04" x2="4960.03" y2="97.38"/>
	<line class="st1" x1="4941.93" y1="73.23" x2="4978.13" y2="73.23"/>
</g>
<g>
	<circle class="st1" cx="5137.89" cy="72.93" r="22.82"/>
	<line class="st1" x1="5154.1" y1="56.24" x2="5193.74" y2="16.61"/>
	<polyline class="st0" points="5167.31,16.61 5193.74,16.61 5193.74,43.03 	"/>
</g>
</svg>
