<?xml version="1.0" encoding="utf-8"?>
<!-- Generator: Adobe Illustrator 24.2.0, SVG Export Plug-In . SVG Version: 6.00 Build 0)  -->
<svg version="1.1" id="Capa_1" xmlns="http://www.w3.org/2000/svg" xmlns:xlink="http://www.w3.org/1999/xlink" x="0px" y="0px"
	 viewBox="0 0 113.79 82.77" style="enable-background:new 0 0 113.79 82.77;" xml:space="preserve">
<style type="text/css">
	.st0{fill:none;stroke:#000000;stroke-width:6.5;stroke-miterlimit:10;}
	.st1{fill:#FFFFFF;stroke:#000000;stroke-width:6.5;stroke-miterlimit:10;}
	.st2{fill:#FFFFFF;}
	.st3{stroke:#000000;stroke-width:6.5;stroke-miterlimit:10;}
	.st4{fill:#1D1D1B;}
	.st5{fill:#FFFFFF;stroke:#1D1D1B;stroke-width:6.5;stroke-miterlimit:10;}
	.st6{fill:#1D1D1B;stroke:#1D1D1B;stroke-width:6.5;stroke-miterlimit:10;}
	.st7{fill:none;stroke:#1D1D1B;stroke-width:6.5;stroke-miterlimit:10;}
	.st8{fill:#FC5439;stroke:#000000;stroke-width:6.5;stroke-miterlimit:10;}
	.st9{fill:#3A90FD;stroke:#000000;stroke-width:6.5;stroke-miterlimit:10;}
	.st10{fill:#F1CD08;stroke:#000000;stroke-width:6.5;stroke-miterlimit:10;}
</style>
<g>
	<path class="st0" d="M-5689.48,83.36V9.03c0-4.23,3.43-7.65,7.65-7.65h54.6v77.9"/>
	<path class="st0" d="M-5665.91,90.11h38.68V76.62h-55.51c-3.72,0-6.74,3.02-6.74,6.74v0c0,3.72,3.02,6.74,6.74,6.74h1.52"/>
	<rect x="-5671.81" y="22.14" class="st0" width="26.92" height="15.7"/>
	<polygon class="st0" points="-5668.09,103.26 -5673.35,108.56 -5678.61,103.26 -5678.61,86.3 -5668.09,86.3 	"/>
</g>
<polygon class="st0" points="-6020.18,45.99 -6055.86,10.31 -6055.86,25.82 -6112.98,25.82 -6112.98,67.55 -6055.86,67.55 
	-6055.86,81.66 "/>
<g>
	<polyline class="st0" points="-5847.25,19.37 -5823.61,19.37 -5823.61,90.57 -5900.47,90.57 -5900.47,19.37 -5870.34,19.37 	"/>
	<polygon class="st0" points="-5864.98,31.18 -5873.56,22.6 -5852.37,1.41 -5840.83,12.95 -5859.06,31.18 	"/>
	<polyline class="st0" points="-5874.94,31.18 -5864.98,31.18 -5859.06,31.18 -5849.15,31.18 	"/>
</g>
<g>
	<polygon class="st0" points="-6235.4,-8.31 -6311.42,43.25 -6319.15,62.66 -6298.26,62.65 -6222.24,11.1 	"/>
	<line class="st0" x1="-6311.42" y1="43.25" x2="-6298.26" y2="62.65"/>
</g>
<g>
	<g>
		<path class="st1" d="M-5449.59,78.95h24.01c19.62,0,35.53-15.91,35.53-35.53v0c0-19.62-15.91-35.53-35.53-35.53l-3.72,0h-78.89
			c-4.91,0-8.88,3.98-8.88,8.88v0c0,4.91,3.98,8.88,8.88,8.88h68.05v0"/>
		<path class="st1" d="M-5440.14,25.66h-21.1c-4.9,0-8.88,3.98-8.88,8.88v0c0,4.91,3.98,8.88,8.88,8.88h19.4h1.7
			c4.91,0,8.88-3.98,8.88-8.88v0C-5431.26,29.63-5435.24,25.66-5440.14,25.66z"/>
		<path class="st1" d="M-5439.51,43.42h-21.09c-4.91,0-8.88,3.98-8.88,8.88v0c0,4.91,3.98,8.88,8.88,8.88h19.4h1.7
			c4.91,0,8.88-3.98,8.88-8.88v0C-5430.63,47.4-5434.6,43.42-5439.51,43.42z"/>
		<path class="st1" d="M-5439.51,61.18h-21.09c-4.91,0-8.88,3.98-8.88,8.88v0c0,4.91,3.98,8.88,8.88,8.88h19.4h1.7
			c4.91,0,8.88-3.98,8.88-8.88v0C-5430.63,65.16-5434.6,61.18-5439.51,61.18z"/>
	</g>
	<path class="st1" d="M-5426.06,9.77l-11.69,23.48c-2.15,4.41-0.32,9.73,4.09,11.88v0c4.41,2.15,9.73,0.32,11.88-4.09l8.54-17.14"/>
</g>
<g>
	<ellipse class="st2" cx="-5244.33" cy="49" rx="28.07" ry="18.08"/>
	<g>
		<path class="st1" d="M-5224.96,44.27V29.63c0-3.72,3.01-6.73,6.73-6.73h0c3.71,0,6.73,3.01,6.73,6.73v22.75
			c0,18.59-15.07,33.66-33.66,33.66l0,0c-18.59,0-33.66-15.07-33.66-33.66V29.28l0,0c7.43,0,13.45,6.02,13.45,13.45v8.75l0,0
			c7.42,0,13.44,6.02,13.44,13.44v0.83"/>
		<path class="st1" d="M-5225.03,44.27V11.49c0-3.72-3.01-6.73-6.73-6.73l0,0c-3.72,0-6.73,3.01-6.73,6.73v25.15"/>
		<path class="st1" d="M-5238.48,40.44V4.67c0-3.72-3.01-6.73-6.73-6.73l0,0c-3.72,0-6.73,3.01-6.73,6.73v25.15"/>
		<path class="st1" d="M-5251.94,39.66V9.88c0-3.72-3.01-6.73-6.73-6.73l0,0c-3.72,0-6.73,3.01-6.73,6.73v37.79"/>
	</g>
</g>
<g>
	<line class="st0" x1="-5059.05" y1="-170.36" x2="-4982.49" y2="-189.33"/>
	<circle class="st1" cx="-5059.05" cy="-170.36" r="25.98"/>
	<line class="st0" x1="-4905.69" y1="-170.34" x2="-4982.24" y2="-189.32"/>
	<circle class="st1" cx="-4905.69" cy="-170.36" r="25.98"/>
	<circle class="st1" cx="-4982.49" cy="-189.33" r="25.98"/>
</g>
<g>
	<circle class="st0" cx="-4836.52" cy="40.44" r="35.6"/>
	<g>
		<circle class="st3" cx="-4850.29" cy="33.4" r="1.69"/>
		<circle class="st3" cx="-4822.75" cy="33.4" r="1.69"/>
	</g>
	<path class="st0" d="M-4849.01,48.4c6.9,6.9,18.07,6.9,24.98,0"/>
</g>
<g>
	<line class="st0" x1="-4603.71" y1="7.8" x2="-4603.71" y2="79.65"/>
	<line class="st0" x1="-4674.03" y1="43.72" x2="-4724.94" y2="43.72"/>
	<line class="st0" x1="-4564.1" y1="43.72" x2="-4615.02" y2="43.72"/>
	<rect x="-4693.42" y="24.46" class="st1" width="89.71" height="38.51"/>
	<line class="st0" x1="-4565.72" y1="27.96" x2="-4565.72" y2="59.48"/>
	<line class="st0" x1="-4652.2" y1="25.21" x2="-4652.2" y2="40.16"/>
	<line class="st0" x1="-4638.57" y1="26.42" x2="-4638.57" y2="47.84"/>
</g>
<circle class="st1" cx="-1992.4" cy="45.64" r="35.26"/>
<g>
	<rect x="-4467.53" y="-2.41" class="st1" width="70.6" height="50.69"/>
	<line class="st1" x1="-4467.53" y1="-10.14" x2="-4467.53" y2="79.26"/>
	<rect x="-4467.53" y="22.94" class="st1" width="70.6" height="25.35"/>
	<rect x="-4467.53" y="-2.41" class="st1" width="25.35" height="25.35"/>
</g>
<g transform="translate(0,-952.36218)">
	<path class="st1" d="M-4258.59,1018.79c0,18.4,13.01,33.32,29.05,33.32c16.03,0,29.05-14.92,29.05-33.32
		c0-18.4-13.96-38.93-29.05-56.24C-4229.54,962.55-4258.59,995.57-4258.59,1018.79z"/>
</g>
<g>
	<polyline class="st1" points="-4081.61,40.86 -4036.87,-3.88 -3992.14,40.86 	"/>
	<path class="st1" d="M-4036.87,33.11"/>
	<polygon class="st1" points="-4006.58,84.76 -4067.16,84.76 -4067.16,26.45 -4036.87,-3.88 -4006.58,26.45 	"/>
	<polyline class="st0" points="-4049.99,84.76 -4049.99,49.41 -4023.76,49.41 -4023.76,84.76 	"/>
</g>
<g>
	<circle class="st1" cx="-2596.62" cy="45.99" r="35.29"/>
	<polyline class="st1" points="-2610.18,45.6 -2602,55.41 -2583.07,36.57 	"/>
</g>
<g>
	<g>
		<g>
			<rect x="-3856.08" y="15.19" class="st0" width="69.54" height="69.54"/>
			<g>
				<line class="st1" x1="-3841.17" y1="4.39" x2="-3841.17" y2="25.98"/>
				<line class="st1" x1="-3801.46" y1="4.39" x2="-3801.46" y2="25.98"/>
			</g>
		</g>
		<line class="st1" x1="-3856.08" y1="37.89" x2="-3786.54" y2="37.89"/>
	</g>
	<g>
		<path class="st4" d="M-3820.71,50.14v4.07l-6.81,5.54v0.42h0.91c3.4,0,6.46,2.35,6.46,6.81c0,4.98-3.79,8.21-9.26,8.21
			c-5.86,0-9.4-3.47-9.4-8.35v-0.98h4.63v0.84c0,2.39,1.65,4.35,4.77,4.35c2.91,0,4.63-1.72,4.63-4.07s-1.65-3.51-4-3.51h-4.28
			v-4.14l6.07-4.98h-11.12v-4.21H-3820.71z"/>
		<path class="st4" d="M-3805.34,50.14V74.7h-4.63V55.05h-0.42l-3.44,6.18h-4.84l6.32-11.09H-3805.34z"/>
	</g>
</g>
<g>
	<g>
		<circle class="st1" cx="-3618.98" cy="49.91" r="34.11"/>
		<g>
			<path class="st1" d="M-3624.46,16.55c-15.63,19.6-15.53,47.58,0.29,67.07"/>
			<path class="st1" d="M-3612.57,16.55c15.48,19.42,15.53,47.05,0.16,66.52"/>
		</g>
		<line class="st1" x1="-3653.09" y1="49.91" x2="-3584.88" y2="49.91"/>
		<line class="st1" x1="-3618.51" y1="16" x2="-3618.51" y2="83.82"/>
	</g>
</g>
<g>
	<circle class="st1" cx="-3426.51" cy="26.26" r="22.82"/>
	<line class="st1" x1="-3426.51" y1="49.08" x2="-3426.51" y2="92.42"/>
	<line class="st1" x1="-3444.61" y1="68.27" x2="-3408.41" y2="68.27"/>
</g>
<g>
	<circle class="st1" cx="-3214.04" cy="36.82" r="22.82"/>
	<line class="st1" x1="-3197.83" y1="20.13" x2="-3158.19" y2="-19.51"/>
	<polyline class="st0" points="-3184.61,-19.51 -3158.19,-19.51 -3158.19,6.92 	"/>
</g>
<path class="st1" d="M-2960.26,53.33V41.29l-36.59-13.14l0.48-18.57c0.09-2.9-1.09-5.69-3.23-7.65v0
	c-3.79-3.47-9.61-3.48-13.41-0.01l-0.01,0.01c-2.15,1.96-3.34,4.76-3.24,7.66l0.48,18.55l-33.67,12.17v12.04l34.33-6.35l1.48,23.62
	l-12.3,10.06v8.46l20.03-9.74l20.03,9.74v-8.46l-13.09-10.58l1.44-22.86L-2960.26,53.33z"/>
<g>
	<g>
		<g>
			<g>
				<g>
					<g>
						<rect x="-1616.02" y="26.49" class="st2" width="79.95" height="61.47"/>
						<rect x="-1616.02" y="26.49" class="st0" width="79.95" height="61.47"/>
					</g>
				</g>
			</g>
		</g>
		<path class="st1" d="M-1556.93,75.77h-38.24c-4.08,0-7.39-3.31-7.39-7.39V46.07c0-4.08,3.31-7.39,7.39-7.39h38.24
			c4.08,0,7.39,3.31,7.39,7.39v22.31C-1549.54,72.46-1552.85,75.77-1556.93,75.77z"/>
		<g>
			<line class="st1" x1="-1601.63" y1="0.04" x2="-1575.46" y2="26.21"/>
			<line class="st1" x1="-1550.46" y1="0.04" x2="-1576.63" y2="26.21"/>
		</g>
	</g>
</g>
<g>
	<polygon class="st1" points="-2768.29,88.62 -2833.19,88.62 -2833.19,0.5 -2790.29,0.5 -2779.29,11.5 -2768.29,22.49 	"/>
	<polyline class="st1" points="-2790.29,0.5 -2790.29,22.03 -2768.29,22.03 	"/>
</g>
<g>
	
		<rect x="-2208.46" y="28.91" transform="matrix(-1.836970e-16 1 -1 -1.836970e-16 -2151.4355 2253.0859)" class="st1" width="12.39" height="43.82"/>
	<rect x="-2225.39" y="0.2" class="st1" width="12.39" height="88.26"/>
	<rect x="-2186.98" y="44.63" class="st1" width="12.39" height="43.82"/>
</g>
<g>
	<g>
		<polygon class="st1" points="-2359.98,87.77 -2425.04,87.77 -2425.04,-0.58 -2382.03,-0.58 -2371,10.45 -2359.98,21.47 		"/>
		<polyline class="st1" points="-2382.03,-0.58 -2382.03,21.01 -2359.98,21.01 		"/>
	</g>
	<line class="st1" x1="-2409.34" y1="41.24" x2="-2377.33" y2="41.24"/>
	<line class="st1" x1="-2409.62" y1="54.48" x2="-2377.61" y2="54.48"/>
	<line class="st1" x1="-2409.62" y1="67.73" x2="-2377.61" y2="67.73"/>
</g>
<g>
	<g>
		<path class="st4" d="M-1982.38,50.72v0.37c0,4.38-3.02,7.11-7.37,7.77v3.94h-4.42v-3.9c-5.08-0.7-8.25-3.98-8.25-9.28v-0.81h4.86
			v0.59c0,2.39,1.07,4.13,3.39,4.79v-7c-4.68-1.14-7.29-3.13-7.29-7.37V39.6c0-4.02,3.09-6.67,7.29-7.26v-3.87h4.42v4.01
			c4.16,0.81,7,3.65,7,7.92v1.11h-4.86v-0.74c0-1.84-0.77-2.95-2.14-3.54v6.15C-1984.99,44.53-1982.38,46.52-1982.38,50.72z
			 M-1994.16,42.4v-5.38c-1.47,0.44-2.36,1.44-2.36,2.65C-1996.52,41.18-1995.6,41.88-1994.16,42.4z M-1987.31,51.09
			c0-1.47-0.85-2.28-2.43-2.84v5.93C-1988.12,53.63-1987.31,52.42-1987.31,51.09z"/>
	</g>
</g>
<g>
	<circle class="st5" cx="848.79" cy="-216.3" r="35.69"/>
	<g>
		<circle class="st6" cx="834.99" cy="-223.36" r="1.7"/>
		<circle class="st6" cx="862.59" cy="-223.36" r="1.7"/>
	</g>
	<path class="st7" d="M836.27-208.32c6.92,6.92,18.12,6.92,25.04,0"/>
</g>
<g>
	<circle class="st5" cx="912.65" cy="-216.3" r="35.69"/>
	<g>
		<circle class="st6" cx="898.85" cy="-223.36" r="1.7"/>
		<circle class="st6" cx="926.45" cy="-223.36" r="1.7"/>
	</g>
	<path class="st7" d="M900.13-208.32c6.92,6.92,18.12,6.92,25.04,0"/>
</g>
<g>
	<circle class="st5" cx="976.51" cy="-216.3" r="35.69"/>
	<g>
		<circle class="st6" cx="962.71" cy="-223.36" r="1.7"/>
		<circle class="st6" cx="990.31" cy="-223.36" r="1.7"/>
	</g>
	<path class="st7" d="M963.99-208.32c6.92,6.92,18.12,6.92,25.04,0"/>
</g>
<polygon class="st1" points="-1772.25,63.32 -1754.29,80.96 -1754.29,63.32 -1736.65,63.32 -1754.29,45.36 -1736.65,27.4 
	-1754.29,27.4 -1754.29,9.76 -1772.25,27.4 -1790.22,9.76 -1790.22,27.4 -1807.85,27.4 -1790.22,45.36 -1807.85,63.32 
	-1790.22,63.32 -1790.22,80.96 "/>
<path class="st0" d="M1267.75,21.08c-19.42-11.08-39.69,1.39-38.74,22.03c1.04,22.68,19.59,51.75,37.54,44.64
	c2.43-0.97,5.14-0.97,7.57,0c17.95,7.11,36.49-21.97,37.54-44.64c0.95-20.59-19.24-33.06-38.63-22.09L1267.75,21.08z"/>
<path class="st0" d="M1277.44-0.19c-8.08,8.08-9.27,20.42-3.57,29.75"/>
<path class="st0" d="M1482.86,3.82c-15.65,1.49-19.56,16.36-22.4,32.85c-0.54,3.15-2.3,6.02-4.34,9.34
	c-3.7,6.02-8.29,13.51-5.89,25.26c1.08,5.52,4.51,10.3,9.39,13.1c6.38,3.78,15.19,4.62,22.99,2.21c1.59-0.51,3.3-0.44,4.84,0.2
	c3.02,1.27,6.28,1.91,9.56,1.88c3.96,0.01,7.88-0.85,11.47-2.52c6.07-2.82,10.57-8.21,12.26-14.69c3.27-11.72-1.68-19.37-5.65-25.52
	c-2.06-3.18-4-6.18-4.53-9.27c-2.83-16.42-6.72-31.25-22.22-32.84L1482.86,3.82z"/>
<path class="st0" d="M1491.61-13.06c-8.32,8.32-10.13,20.68-5.43,30.75"/>
<g>
	<rect x="7.29" y="8.73" class="st1" width="99.16" height="71.2"/>
	<rect x="7.29" y="44.33" class="st8" width="99.16" height="35.6"/>
	<rect x="7.29" y="8.73" class="st9" width="35.6" height="35.6"/>
</g>
<polygon class="st1" points="1096.88,81.43 1045.84,89.11 1045.84,0.24 1096.88,-7.44 "/>
<rect x="1045.84" y="1.21" class="st1" width="63.23" height="88.87"/>
<g>
	<polygon class="st0" points="444.75,94.97 444.75,106.13 433.59,94.97 413.67,94.97 413.67,4.69 509.74,4.69 509.74,94.97 	"/>
</g>
<g>
	<g>
		<circle class="st0" cx="236.46" cy="32.09" r="20.4"/>
		<line class="st0" x1="251.51" y1="47.14" x2="259.25" y2="54.88"/>
	</g>
	
		<rect x="265.29" y="49.79" transform="matrix(0.7071 -0.7071 0.7071 0.7071 32.1654 211.0913)" class="st0" width="11.21" height="33.86"/>
</g>
<g>
	<path class="st0" d="M-148.17,37.84c-0.63,4.55-2.69,8.93-6.18,12.43c-8.52,8.52-22.33,8.52-30.85,0c-8.52-8.52-8.52-22.33,0-30.85
		c8.52-8.52,22.33-8.52,30.85,0C-149.33,24.45-147.27,31.31-148.17,37.84"/>
	<polyline class="st0" points="-147.17,37.68 -113.92,75.92 -127.39,89.39 -165.63,56.14 	"/>
	<line class="st0" x1="-121.19" y1="83.18" x2="-102.89" y2="101.48"/>
	<line class="st0" x1="-185.21" y1="50.27" x2="-155.15" y2="20.21"/>
</g>
<g>
	<rect x="636.57" class="st0" width="65.29" height="88.66"/>
	<g>
		<polyline class="st0" points="649.06,22.99 654.95,27.29 662.35,15.58 		"/>
		<polyline class="st0" points="676.09,46.65 681.97,50.94 689.37,39.23 		"/>
		<g>
			<line class="st0" x1="689.14" y1="16.76" x2="676.32" y2="29.58"/>
			<line class="st0" x1="676.32" y1="16.76" x2="689.14" y2="29.58"/>
		</g>
		<g>
			<line class="st0" x1="662.12" y1="60.25" x2="649.29" y2="73.08"/>
			<line class="st0" x1="649.29" y1="60.25" x2="662.12" y2="73.08"/>
		</g>
		<line class="st0" x1="649.86" y1="45.09" x2="661.55" y2="45.09"/>
		<line class="st0" x1="676.88" y1="66.66" x2="688.58" y2="66.66"/>
	</g>
</g>
<polygon class="st0" points="-351.36,11.58 -339.79,35.01 -313.93,38.77 -332.64,57.01 -328.22,82.77 -351.36,70.61 -374.49,82.77 
	-370.07,57.01 -388.79,38.77 -362.92,35.01 "/>
<g>
	<rect x="-613.54" y="19.57" class="st0" width="116.13" height="71.69"/>
	<polyline class="st0" points="-613.43,19.57 -554.67,55.41 -497.51,19.57 	"/>
</g>
<g>
	<g>
		<polygon class="st0" points="-770.14,91.11 -835.54,91.11 -835.54,2.29 -792.3,2.29 -781.22,13.37 -770.14,24.46 		"/>
		<polyline class="st0" points="-792.3,2.29 -792.3,23.99 -770.14,23.99 		"/>
	</g>
	<line class="st0" x1="-819.76" y1="44.33" x2="-787.58" y2="44.33"/>
	<line class="st10" x1="-820.04" y1="57.64" x2="-787.86" y2="57.64"/>
	<line class="st10" x1="-820.04" y1="70.96" x2="-787.86" y2="70.96"/>
</g>
<g>
	<g>
		<polygon class="st0" points="-683.63,91.11 -749.04,91.11 -749.04,2.29 -705.8,2.29 -694.72,13.37 -683.63,24.46 		"/>
		<polyline class="st0" points="-705.8,2.29 -705.8,23.99 -683.63,23.99 		"/>
	</g>
	<line class="st0" x1="-733.26" y1="44.33" x2="-701.08" y2="44.33"/>
	<line class="st10" x1="-733.54" y1="57.64" x2="-701.36" y2="57.64"/>
	<line class="st10" x1="-733.54" y1="70.96" x2="-701.36" y2="70.96"/>
</g>
<polyline class="st0" points="-731.44,22.06 -725.55,26.37 -718.13,14.63 "/>
<g>
	<line class="st0" x1="-806.22" y1="14.07" x2="-819.07" y2="26.92"/>
	<line class="st0" x1="-819.07" y1="14.07" x2="-806.22" y2="26.92"/>
</g>
<g>
	<g>
		<g>
			<polygon class="st0" points="-1001.59,81.28 -937.18,81.28 -937.18,-7.51 -979.76,-7.51 -990.68,3.57 -1001.59,14.65 			"/>
			<polyline class="st0" points="-979.76,-7.51 -979.76,14.19 -1001.59,14.19 			"/>
		</g>
	</g>
</g>
<g>
	<g>
		<circle class="st1" cx="-948.61" cy="29.51" r="20.88"/>
		<line class="st1" x1="-933.2" y1="44.92" x2="-925.28" y2="52.84"/>
	</g>
	
		<rect x="-919.1" y="47.63" transform="matrix(0.7071 -0.7071 0.7071 0.7071 -313.4507 -626.8172)" class="st1" width="11.48" height="34.67"/>
</g>
<g>
	<path class="st0" d="M-1109.43,47.47c0,0-17.48,41.31-58.39,41.31s-58.39-41.31-58.39-41.31V46.7c0,0,12.46-21.34,25.4-27.36
		s32.99,4.23,32.99,4.23l0,0c0,0,19.92-10.25,32.87-4.23c12.94,6.02,25.4,27.36,25.4,27.36L-1109.43,47.47z"/>
	<path class="st0" d="M-1226.21,46.7c0,0,48.67,12.89,116.79,0.77"/>
</g>
<g>
	<path class="st0" d="M-1327.15,47.01c0,0-17.47,35.88-58.34,35.88s-58.34-35.88-58.34-35.88s17.47-35.88,58.34-35.88
		S-1327.15,47.01-1327.15,47.01z"/>
	<circle class="st0" cx="-1385.48" cy="46.02" r="17.39"/>
</g>
<g>
	<circle class="st5" cx="1689.79" cy="49.28" r="35.69"/>
	<g>
		<circle class="st6" cx="1675.99" cy="42.22" r="1.7"/>
		<circle class="st6" cx="1703.59" cy="42.22" r="1.7"/>
	</g>
	<path class="st7" d="M1677.27,57.26c6.92,6.92,18.12,6.92,25.04,0"/>
</g>
<g>
	<circle class="st1" cx="1901.31" cy="24.32" r="22.82"/>
	<line class="st1" x1="1901.31" y1="47.14" x2="1901.31" y2="90.48"/>
	<line class="st1" x1="1883.22" y1="66.33" x2="1919.41" y2="66.33"/>
</g>
<g>
	<circle class="st1" cx="2079.17" cy="66.03" r="22.82"/>
	<line class="st1" x1="2095.39" y1="49.34" x2="2135.02" y2="9.7"/>
	<polyline class="st0" points="2108.6,9.7 2135.02,9.7 2135.02,36.13 	"/>
</g>
</svg>
