<?xml version="1.0" encoding="utf-8"?>
<!-- Generator: Adobe Illustrator 24.2.0, SVG Export Plug-In . SVG Version: 6.00 Build 0)  -->
<svg version="1.1" id="Capa_1" xmlns="http://www.w3.org/2000/svg" xmlns:xlink="http://www.w3.org/1999/xlink" x="0px" y="0px"
	 viewBox="0 0 89.68 87.85" style="enable-background:new 0 0 89.68 87.85;" xml:space="preserve">
<style type="text/css">
	.st0{fill:none;stroke:#000000;stroke-width:6.5;stroke-miterlimit:10;}
	.st1{fill:#FFFFFF;stroke:#000000;stroke-width:6.5;stroke-miterlimit:10;}
	.st2{fill:#FFFFFF;}
	.st3{stroke:#000000;stroke-width:6.5;stroke-miterlimit:10;}
	.st4{fill:#1D1D1B;}
	.st5{fill:#FFFFFF;stroke:#1D1D1B;stroke-width:6.5;stroke-miterlimit:10;}
	.st6{fill:#1D1D1B;stroke:#1D1D1B;stroke-width:6.5;stroke-miterlimit:10;}
	.st7{fill:none;stroke:#1D1D1B;stroke-width:6.5;stroke-miterlimit:10;}
	.st8{fill:#FC5439;stroke:#000000;stroke-width:6.5;stroke-miterlimit:10;}
	.st9{fill:#3A90FD;stroke:#000000;stroke-width:6.5;stroke-miterlimit:10;}
	.st10{fill:#F1CD08;stroke:#000000;stroke-width:6.5;stroke-miterlimit:10;}
</style>
<g>
	<path class="st0" d="M-1213.26,91.96V17.62c0-4.23,3.43-7.65,7.65-7.65h54.6v77.9"/>
	<path class="st0" d="M-1189.69,98.7h38.68V85.22h-55.51c-3.72,0-6.74,3.02-6.74,6.74v0c0,3.72,3.02,6.74,6.74,6.74h1.52"/>
	<rect x="-1195.6" y="30.74" class="st0" width="26.92" height="15.7"/>
	<polygon class="st0" points="-1191.88,111.85 -1197.14,117.16 -1202.4,111.85 -1202.4,94.9 -1191.88,94.9 	"/>
</g>
<polygon class="st0" points="-1543.97,54.58 -1579.64,18.91 -1579.64,34.41 -1636.76,34.41 -1636.76,76.15 -1579.64,76.15 
	-1579.64,90.26 "/>
<g>
	<polyline class="st0" points="-1371.03,27.97 -1347.39,27.97 -1347.39,99.16 -1424.26,99.16 -1424.26,27.97 -1394.12,27.97 	"/>
	<polygon class="st0" points="-1388.77,39.78 -1397.35,31.19 -1376.16,10 -1364.61,21.55 -1382.84,39.78 	"/>
	<polyline class="st0" points="-1398.72,39.78 -1388.77,39.78 -1382.84,39.78 -1372.93,39.78 	"/>
</g>
<g>
	<polygon class="st0" points="-1759.19,0.28 -1835.21,51.84 -1842.94,71.25 -1822.05,71.25 -1746.03,19.69 	"/>
	<line class="st0" x1="-1835.21" y1="51.84" x2="-1822.05" y2="71.25"/>
</g>
<g>
	<g>
		<path class="st1" d="M-973.37,87.54h24.01c19.62,0,35.53-15.91,35.53-35.53v0c0-19.62-15.91-35.53-35.53-35.53l-3.72,0h-78.89
			c-4.91,0-8.88,3.98-8.88,8.88v0c0,4.91,3.98,8.88,8.88,8.88h68.05v0"/>
		<path class="st1" d="M-963.93,34.25h-21.1c-4.91,0-8.88,3.98-8.88,8.88v0c0,4.91,3.98,8.88,8.88,8.88h19.4h1.7
			c4.91,0,8.88-3.98,8.88-8.88v0C-955.05,38.23-959.02,34.25-963.93,34.25z"/>
		<path class="st1" d="M-963.29,52.02h-21.1c-4.91,0-8.88,3.98-8.88,8.88v0c0,4.91,3.98,8.88,8.88,8.88h19.4h1.7
			c4.91,0,8.88-3.98,8.88-8.88v0C-954.41,55.99-958.39,52.02-963.29,52.02z"/>
		<path class="st1" d="M-963.29,69.78h-21.1c-4.91,0-8.88,3.98-8.88,8.88v0c0,4.91,3.98,8.88,8.88,8.88h19.4h1.7
			c4.91,0,8.88-3.98,8.88-8.88v0C-954.41,73.76-958.39,69.78-963.29,69.78z"/>
	</g>
	<path class="st1" d="M-949.84,18.37l-11.69,23.48c-2.15,4.41-0.32,9.73,4.09,11.88v0c4.41,2.15,9.73,0.32,11.88-4.09l8.54-17.14"/>
</g>
<g>
	<ellipse class="st2" cx="-768.11" cy="57.6" rx="28.07" ry="18.08"/>
	<g>
		<path class="st1" d="M-748.75,52.86V38.23c0-3.72,3.01-6.73,6.73-6.73l0,0c3.72,0,6.73,3.01,6.73,6.73v22.75
			c0,18.59-15.07,33.66-33.66,33.66h0c-18.59,0-33.66-15.07-33.66-33.66V37.87h0c7.43,0,13.45,6.02,13.45,13.45v8.75h0
			c7.42,0,13.44,6.02,13.44,13.44v0.83"/>
		<path class="st1" d="M-748.82,52.86V20.09c0-3.72-3.01-6.73-6.73-6.73l0,0c-3.72,0-6.73,3.01-6.73,6.73v25.15"/>
		<path class="st1" d="M-762.27,49.04V13.27c0-3.72-3.01-6.73-6.73-6.73l0,0c-3.72,0-6.73,3.01-6.73,6.73v25.15"/>
		<path class="st1" d="M-775.72,48.25V18.48c0-3.72-3.01-6.73-6.73-6.73l0,0c-3.72,0-6.73,3.01-6.73,6.73v37.79"/>
	</g>
</g>
<g>
	<line class="st0" x1="-582.83" y1="-161.76" x2="-506.28" y2="-180.74"/>
	<circle class="st1" cx="-582.83" cy="-161.76" r="25.98"/>
	<line class="st0" x1="-429.47" y1="-161.75" x2="-506.03" y2="-180.72"/>
	<circle class="st1" cx="-429.47" cy="-161.76" r="25.98"/>
	<circle class="st1" cx="-506.28" cy="-180.74" r="25.98"/>
</g>
<g>
	<circle class="st0" cx="-360.3" cy="49.04" r="35.6"/>
	<g>
		<circle class="st3" cx="-374.07" cy="41.99" r="1.69"/>
		<circle class="st3" cx="-346.54" cy="41.99" r="1.69"/>
	</g>
	<path class="st0" d="M-372.79,57c6.9,6.9,18.07,6.9,24.98,0"/>
</g>
<g>
	<line class="st0" x1="-127.5" y1="16.39" x2="-127.5" y2="88.24"/>
	<line class="st0" x1="-197.81" y1="52.32" x2="-248.73" y2="52.32"/>
	<line class="st0" x1="-87.89" y1="52.32" x2="-138.81" y2="52.32"/>
	<rect x="-217.21" y="33.06" class="st1" width="89.71" height="38.51"/>
	<line class="st0" x1="-89.51" y1="36.56" x2="-89.51" y2="68.08"/>
	<line class="st0" x1="-175.99" y1="33.81" x2="-175.99" y2="48.76"/>
	<line class="st0" x1="-162.36" y1="35.02" x2="-162.36" y2="56.44"/>
</g>
<circle class="st1" cx="2483.82" cy="52.35" r="35.26"/>
<g>
	<rect x="8.68" y="6.19" class="st1" width="70.6" height="50.69"/>
	<line class="st1" x1="8.68" y1="-1.54" x2="8.68" y2="87.85"/>
	<rect x="8.68" y="31.53" class="st1" width="70.6" height="25.35"/>
	<rect x="8.68" y="6.19" class="st1" width="25.35" height="25.35"/>
</g>
<g transform="translate(0,-952.36218)">
	<path class="st1" d="M217.62,1027.39c0,18.4,13.01,33.32,29.05,33.32s29.05-14.92,29.05-33.32s-13.96-38.93-29.05-56.24
		C246.67,971.15,217.62,1004.16,217.62,1027.39z"/>
</g>
<g>
	<polyline class="st1" points="394.61,49.45 439.34,4.72 484.07,49.45 	"/>
	<path class="st1" d="M439.34,41.7"/>
	<polygon class="st1" points="469.63,93.35 409.05,93.35 409.05,35.04 439.34,4.72 469.63,35.04 	"/>
	<polyline class="st0" points="426.22,93.35 426.22,58 452.46,58 452.46,93.35 	"/>
</g>
<g>
	<circle class="st1" cx="1879.59" cy="54.58" r="35.29"/>
	<polyline class="st1" points="1866.03,54.2 1874.21,64 1893.15,45.16 	"/>
</g>
<g>
	<g>
		<g>
			<rect x="620.13" y="23.78" class="st0" width="69.54" height="69.54"/>
			<g>
				<line class="st1" x1="635.05" y1="12.99" x2="635.05" y2="34.58"/>
				<line class="st1" x1="674.75" y1="12.99" x2="674.75" y2="34.58"/>
			</g>
		</g>
		<line class="st1" x1="620.13" y1="46.49" x2="689.67" y2="46.49"/>
	</g>
	<g>
		<path class="st4" d="M655.5,58.73v4.07l-6.81,5.54v0.42h0.91c3.4,0,6.46,2.35,6.46,6.81c0,4.98-3.79,8.21-9.26,8.21
			c-5.86,0-9.4-3.47-9.4-8.35v-0.98h4.63v0.84c0,2.39,1.65,4.35,4.77,4.35c2.91,0,4.63-1.72,4.63-4.07s-1.65-3.51-4-3.51h-4.28
			v-4.14l6.07-4.98H638.1v-4.21H655.5z"/>
		<path class="st4" d="M670.87,58.73V83.3h-4.63V63.64h-0.42l-3.44,6.18h-4.84l6.32-11.09H670.87z"/>
	</g>
</g>
<g>
	<g>
		<circle class="st1" cx="857.23" cy="58.51" r="34.11"/>
		<g>
			<path class="st1" d="M851.76,25.15c-15.63,19.6-15.53,47.58,0.29,67.07"/>
			<path class="st1" d="M863.65,25.15c15.48,19.42,15.53,47.05,0.16,66.52"/>
		</g>
		<line class="st1" x1="823.13" y1="58.51" x2="891.34" y2="58.51"/>
		<line class="st1" x1="857.7" y1="24.6" x2="857.7" y2="92.41"/>
	</g>
</g>
<g>
	<circle class="st1" cx="1049.7" cy="35.65" r="22.82"/>
	<line class="st1" x1="1049.7" y1="58.47" x2="1049.7" y2="101.8"/>
	<line class="st1" x1="1031.6" y1="77.66" x2="1067.8" y2="77.66"/>
</g>
<g>
	<circle class="st1" cx="1262.17" cy="45.41" r="22.82"/>
	<line class="st1" x1="1278.39" y1="28.72" x2="1318.02" y2="-10.91"/>
	<polyline class="st0" points="1291.6,-10.91 1318.02,-10.91 1318.02,15.51 	"/>
</g>
<path class="st1" d="M1515.95,61.92V49.88l-36.59-13.14l0.48-18.57c0.09-2.9-1.09-5.69-3.23-7.65v0c-3.79-3.47-9.61-3.48-13.41-0.01
	l-0.01,0.01c-2.15,1.96-3.34,4.76-3.24,7.66l0.48,18.55l-33.67,12.17v12.04l34.33-6.35l1.48,23.62l-12.3,10.06v8.46l20.03-9.74
	l20.03,9.74v-8.46l-13.09-10.58l1.44-22.86L1515.95,61.92z"/>
<g>
	<g>
		<g>
			<g>
				<g>
					<g>
						<rect x="2860.19" y="33.29" class="st2" width="79.95" height="61.47"/>
						<rect x="2860.19" y="33.29" class="st0" width="79.95" height="61.47"/>
					</g>
				</g>
			</g>
		</g>
		<path class="st1" d="M2919.29,82.57h-38.24c-4.08,0-7.39-3.31-7.39-7.39V52.87c0-4.08,3.31-7.39,7.39-7.39h38.24
			c4.08,0,7.39,3.31,7.39,7.39v22.31C2926.68,79.26,2923.37,82.57,2919.29,82.57z"/>
		<g>
			<line class="st1" x1="2874.58" y1="6.84" x2="2900.75" y2="33.01"/>
			<line class="st1" x1="2925.75" y1="6.84" x2="2899.58" y2="33.01"/>
		</g>
	</g>
</g>
<g>
	<polygon class="st1" points="1707.92,97.22 1643.03,97.22 1643.03,9.09 1685.93,9.09 1696.93,20.09 1707.92,31.09 	"/>
	<polyline class="st1" points="1685.93,9.09 1685.93,30.63 1707.92,30.63 	"/>
</g>
<g>
	
		<rect x="2267.76" y="37.51" transform="matrix(-1.836970e-16 1 -1 -1.836970e-16 2333.374 -2214.5332)" class="st1" width="12.39" height="43.82"/>
	<rect x="2250.82" y="8.79" class="st1" width="12.39" height="88.26"/>
	<rect x="2289.24" y="53.22" class="st1" width="12.39" height="43.82"/>
</g>
<g>
	<g>
		<polygon class="st1" points="2116.24,94.64 2051.18,94.64 2051.18,6.29 2094.19,6.29 2105.21,17.32 2116.24,28.34 		"/>
		<polyline class="st1" points="2094.19,6.29 2094.19,27.88 2116.24,27.88 		"/>
	</g>
	<line class="st1" x1="2066.87" y1="48.11" x2="2098.88" y2="48.11"/>
	<line class="st1" x1="2066.6" y1="61.35" x2="2098.61" y2="61.35"/>
	<line class="st1" x1="2066.6" y1="74.6" x2="2098.61" y2="74.6"/>
</g>
<g>
	<g>
		<path class="st4" d="M2493.84,57.43v0.37c0,4.38-3.02,7.11-7.37,7.77v3.94h-4.42v-3.9c-5.08-0.7-8.25-3.98-8.25-9.28v-0.81h4.86
			v0.59c0,2.39,1.07,4.13,3.39,4.79v-7c-4.68-1.14-7.29-3.13-7.29-7.37v-0.22c0-4.02,3.09-6.67,7.29-7.26v-3.87h4.42v4.01
			c4.16,0.81,7,3.65,7,7.92v1.11h-4.86v-0.74c0-1.84-0.77-2.95-2.14-3.54v6.15C2491.22,51.24,2493.84,53.23,2493.84,57.43z
			 M2482.05,49.11v-5.38c-1.47,0.44-2.36,1.44-2.36,2.65C2479.69,47.89,2480.61,48.59,2482.05,49.11z M2488.9,57.8
			c0-1.47-0.85-2.28-2.43-2.84v5.93C2488.09,60.34,2488.9,59.13,2488.9,57.8z"/>
	</g>
</g>
<g>
	<circle class="st5" cx="5325" cy="-207.7" r="35.69"/>
	<g>
		<circle class="st6" cx="5311.2" cy="-214.76" r="1.7"/>
		<circle class="st6" cx="5338.8" cy="-214.76" r="1.7"/>
	</g>
	<path class="st7" d="M5312.48-199.72c6.92,6.92,18.12,6.92,25.04,0"/>
</g>
<g>
	<circle class="st5" cx="5388.86" cy="-207.7" r="35.69"/>
	<g>
		<circle class="st6" cx="5375.06" cy="-214.76" r="1.7"/>
		<circle class="st6" cx="5402.66" cy="-214.76" r="1.7"/>
	</g>
	<path class="st7" d="M5376.34-199.72c6.92,6.92,18.12,6.92,25.04,0"/>
</g>
<g>
	<circle class="st5" cx="5452.72" cy="-207.7" r="35.69"/>
	<g>
		<circle class="st6" cx="5438.92" cy="-214.76" r="1.7"/>
		<circle class="st6" cx="5466.52" cy="-214.76" r="1.7"/>
	</g>
	<path class="st7" d="M5440.2-199.72c6.92,6.92,18.12,6.92,25.04,0"/>
</g>
<polygon class="st1" points="2703.96,71.91 2721.92,89.55 2721.92,71.91 2739.56,71.91 2721.92,53.96 2739.56,35.99 2721.92,35.99 
	2721.92,18.36 2703.96,35.99 2686,18.36 2686,35.99 2668.36,35.99 2686,53.96 2668.36,71.91 2686,71.91 2686,89.55 "/>
<path class="st0" d="M5743.96,29.68c-19.42-11.08-39.69,1.39-38.74,22.03c1.04,22.68,19.59,51.75,37.54,44.64
	c2.43-0.97,5.14-0.97,7.57,0c17.94,7.11,36.49-21.97,37.54-44.64c0.95-20.59-19.24-33.06-38.63-22.09L5743.96,29.68z"/>
<path class="st0" d="M5753.65,8.4c-8.08,8.08-9.27,20.42-3.57,29.75"/>
<path class="st0" d="M5959.07,12.41c-15.65,1.49-19.56,16.36-22.4,32.85c-0.54,3.15-2.3,6.02-4.34,9.34
	c-3.7,6.02-8.29,13.51-5.89,25.26c1.08,5.52,4.51,10.3,9.39,13.1c6.38,3.78,15.19,4.62,22.99,2.21c1.59-0.51,3.3-0.44,4.84,0.2
	c3.02,1.27,6.28,1.91,9.56,1.88c3.96,0.01,7.88-0.85,11.47-2.52c6.07-2.82,10.57-8.21,12.26-14.69c3.27-11.72-1.68-19.37-5.65-25.52
	c-2.06-3.18-4-6.18-4.53-9.27c-2.83-16.42-6.72-31.25-22.22-32.84L5959.07,12.41z"/>
<path class="st0" d="M5967.83-4.47c-8.32,8.32-10.13,20.68-5.43,30.75"/>
<g>
	<rect x="4483.51" y="17.33" class="st1" width="99.16" height="71.2"/>
	<rect x="4483.51" y="52.92" class="st8" width="99.16" height="35.6"/>
	<rect x="4483.51" y="17.33" class="st9" width="35.6" height="35.6"/>
</g>
<polygon class="st1" points="5573.09,90.02 5522.05,97.71 5522.05,8.84 5573.09,1.15 "/>
<rect x="5522.05" y="9.8" class="st1" width="63.23" height="88.87"/>
<g>
	<polygon class="st0" points="4920.96,103.57 4920.96,114.73 4909.81,103.57 4889.89,103.57 4889.89,13.28 4985.96,13.28 
		4985.96,103.57 	"/>
</g>
<g>
	<g>
		<circle class="st0" cx="4712.68" cy="40.69" r="20.4"/>
		<line class="st0" x1="4727.73" y1="55.74" x2="4735.46" y2="63.47"/>
	</g>
	
		<rect x="4741.5" y="58.38" transform="matrix(0.7071 -0.7071 0.7071 0.7071 1337.1405 3378.7703)" class="st0" width="11.21" height="33.86"/>
</g>
<g>
	<path class="st0" d="M4328.04,46.44c-0.63,4.55-2.69,8.93-6.18,12.43c-8.52,8.52-22.33,8.52-30.85,0c-8.52-8.52-8.52-22.33,0-30.85
		c8.52-8.52,22.33-8.52,30.85,0C4326.88,33.04,4328.94,39.91,4328.04,46.44"/>
	<polyline class="st0" points="4329.04,46.28 4362.29,84.51 4348.82,97.98 4310.59,64.74 	"/>
	<line class="st0" x1="4355.03" y1="91.77" x2="4373.33" y2="110.07"/>
	<line class="st0" x1="4291.01" y1="58.87" x2="4321.07" y2="28.81"/>
</g>
<g>
	<rect x="5112.79" y="8.6" class="st0" width="65.29" height="88.66"/>
	<g>
		<polyline class="st0" points="5125.28,31.59 5131.16,35.89 5138.56,24.17 		"/>
		<polyline class="st0" points="5152.3,55.24 5158.19,59.54 5165.58,47.83 		"/>
		<g>
			<line class="st0" x1="5165.36" y1="25.35" x2="5152.53" y2="38.18"/>
			<line class="st0" x1="5152.53" y1="25.35" x2="5165.36" y2="38.18"/>
		</g>
		<g>
			<line class="st0" x1="5138.33" y1="68.85" x2="5125.51" y2="81.67"/>
			<line class="st0" x1="5125.51" y1="68.85" x2="5138.33" y2="81.67"/>
		</g>
		<line class="st0" x1="5126.07" y1="53.68" x2="5137.77" y2="53.68"/>
		<line class="st0" x1="5153.1" y1="75.26" x2="5164.79" y2="75.26"/>
	</g>
</g>
<polygon class="st0" points="4124.86,20.17 4136.42,43.61 4162.29,47.37 4143.57,65.61 4147.99,91.37 4124.86,79.21 4101.72,91.37 
	4106.14,65.61 4087.43,47.37 4113.29,43.61 "/>
<g>
	<rect x="3862.68" y="28.16" class="st0" width="116.13" height="71.69"/>
	<polyline class="st0" points="3862.78,28.16 3921.55,64 3978.7,28.16 	"/>
</g>
<g>
	<g>
		<polygon class="st0" points="3706.08,99.7 3640.67,99.7 3640.67,10.88 3683.91,10.88 3694.99,21.97 3706.08,33.05 		"/>
		<polyline class="st0" points="3683.91,10.88 3683.91,32.59 3706.08,32.59 		"/>
	</g>
	<line class="st0" x1="3656.46" y1="52.92" x2="3688.63" y2="52.92"/>
	<line class="st10" x1="3656.18" y1="66.24" x2="3688.35" y2="66.24"/>
	<line class="st10" x1="3656.18" y1="79.55" x2="3688.35" y2="79.55"/>
</g>
<g>
	<g>
		<polygon class="st0" points="3792.58,99.7 3727.17,99.7 3727.17,10.88 3770.41,10.88 3781.5,21.97 3792.58,33.05 		"/>
		<polyline class="st0" points="3770.41,10.88 3770.41,32.59 3792.58,32.59 		"/>
	</g>
	<line class="st0" x1="3742.96" y1="52.92" x2="3775.13" y2="52.92"/>
	<line class="st10" x1="3742.68" y1="66.24" x2="3774.86" y2="66.24"/>
	<line class="st10" x1="3742.68" y1="79.55" x2="3774.86" y2="79.55"/>
</g>
<polyline class="st0" points="3744.77,30.65 3750.67,34.96 3758.08,23.22 "/>
<g>
	<line class="st0" x1="3670" y1="22.67" x2="3657.15" y2="35.52"/>
	<line class="st0" x1="3657.15" y1="22.67" x2="3670" y2="35.52"/>
</g>
<g>
	<g>
		<g>
			<polygon class="st0" points="3474.62,89.87 3539.03,89.87 3539.03,1.08 3496.45,1.08 3485.54,12.16 3474.62,23.24 			"/>
			<polyline class="st0" points="3496.45,1.08 3496.45,22.78 3474.62,22.78 			"/>
		</g>
	</g>
</g>
<g>
	<g>
		<circle class="st1" cx="3527.61" cy="38.11" r="20.88"/>
		<line class="st1" x1="3543.02" y1="53.51" x2="3550.93" y2="61.43"/>
	</g>
	
		<rect x="3557.11" y="56.22" transform="matrix(0.7071 -0.7071 0.7071 0.7071 991.5244 2540.8618)" class="st1" width="11.48" height="34.67"/>
</g>
<g>
	<path class="st0" d="M3366.79,56.06c0,0-17.49,41.31-58.39,41.31c-40.91,0-58.39-41.31-58.39-41.31v-0.77
		c0,0,12.46-21.34,25.4-27.36c12.94-6.02,32.99,4.23,32.99,4.23l0,0c0,0,19.92-10.25,32.87-4.23s25.4,27.36,25.4,27.36
		L3366.79,56.06z"/>
	<path class="st0" d="M3250,55.29c0,0,48.67,12.89,116.79,0.77"/>
</g>
<g>
	<path class="st0" d="M3149.07,60.29c0,0-17.47,35.88-58.34,35.88c-40.87,0-58.34-35.88-58.34-35.88s17.47-35.88,58.34-35.88
		C3131.6,24.41,3149.07,60.29,3149.07,60.29z"/>
	<circle class="st0" cx="3090.73" cy="59.31" r="17.39"/>
</g>
<g>
	<circle class="st5" cx="6166.01" cy="57.87" r="35.69"/>
	<g>
		<circle class="st6" cx="6152.21" cy="50.81" r="1.7"/>
		<circle class="st6" cx="6179.81" cy="50.81" r="1.7"/>
	</g>
	<path class="st7" d="M6153.49,65.85c6.92,6.92,18.12,6.92,25.04,0"/>
</g>
<g>
	<circle class="st1" cx="6377.53" cy="32.91" r="22.82"/>
	<line class="st1" x1="6377.53" y1="55.73" x2="6377.53" y2="99.07"/>
	<line class="st1" x1="6359.43" y1="74.92" x2="6395.63" y2="74.92"/>
</g>
<g>
	<circle class="st1" cx="6555.39" cy="74.62" r="22.82"/>
	<line class="st1" x1="6571.6" y1="57.93" x2="6611.24" y2="18.3"/>
	<polyline class="st0" points="6584.81,18.3 6611.24,18.3 6611.24,44.72 	"/>
</g>
</svg>
