<?xml version="1.0" encoding="utf-8"?>
<!-- Generator: Adobe Illustrator 24.2.0, SVG Export Plug-In . SVG Version: 6.00 Build 0)  -->
<svg version="1.1" id="Capa_1" xmlns="http://www.w3.org/2000/svg" xmlns:xlink="http://www.w3.org/1999/xlink" x="0px" y="0px"
	 viewBox="0 0 123.39 77.83" style="enable-background:new 0 0 123.39 77.83;" xml:space="preserve">
<style type="text/css">
	.st0{fill:none;stroke:#000000;stroke-width:6.5;stroke-miterlimit:10;}
	.st1{fill:#FFFFFF;stroke:#000000;stroke-width:6.5;stroke-miterlimit:10;}
	.st2{fill:#FFFFFF;}
	.st3{stroke:#000000;stroke-width:6.5;stroke-miterlimit:10;}
	.st4{fill:#1D1D1B;}
	.st5{fill:#FFFFFF;stroke:#1D1D1B;stroke-width:6.5;stroke-miterlimit:10;}
	.st6{fill:#1D1D1B;stroke:#1D1D1B;stroke-width:6.5;stroke-miterlimit:10;}
	.st7{fill:none;stroke:#1D1D1B;stroke-width:6.5;stroke-miterlimit:10;}
	.st8{fill:#FC5439;stroke:#000000;stroke-width:6.5;stroke-miterlimit:10;}
	.st9{fill:#3A90FD;stroke:#000000;stroke-width:6.5;stroke-miterlimit:10;}
	.st10{fill:#F1CD08;stroke:#000000;stroke-width:6.5;stroke-miterlimit:10;}
</style>
<g>
	<path class="st0" d="M-4460.02,69.18V-5.16c0-4.23,3.43-7.65,7.65-7.65h54.6v77.9"/>
	<path class="st0" d="M-4436.45,75.92h38.68V62.43h-55.51c-3.72,0-6.74,3.02-6.74,6.74v0c0,3.72,3.02,6.74,6.74,6.74h1.52"/>
	<rect x="-4442.35" y="7.95" class="st0" width="26.92" height="15.7"/>
	<polygon class="st0" points="-4438.63,89.07 -4443.89,94.37 -4449.15,89.07 -4449.15,72.12 -4438.63,72.12 	"/>
</g>
<polygon class="st0" points="-4790.72,31.8 -4826.39,-3.87 -4826.39,11.63 -4883.52,11.63 -4883.52,53.36 -4826.39,53.36 
	-4826.39,67.47 "/>
<g>
	<polyline class="st0" points="-4617.79,5.18 -4594.15,5.18 -4594.15,76.38 -4671.01,76.38 -4671.01,5.18 -4640.88,5.18 	"/>
	<polygon class="st0" points="-4635.52,16.99 -4644.1,8.41 -4622.91,-12.78 -4611.37,-1.24 -4629.6,16.99 	"/>
	<polyline class="st0" points="-4645.48,16.99 -4635.52,16.99 -4629.6,16.99 -4619.69,16.99 	"/>
</g>
<g>
	<polygon class="st0" points="-5005.94,-22.5 -5081.96,29.06 -5089.69,48.47 -5068.8,48.47 -4992.78,-3.09 	"/>
	<line class="st0" x1="-5081.96" y1="29.06" x2="-5068.8" y2="48.47"/>
</g>
<g>
	<g>
		<path class="st1" d="M-4220.13,64.76h24.01c19.62,0,35.53-15.91,35.53-35.53v0c0-19.62-15.91-35.53-35.53-35.53l-3.72,0l-78.89,0
			c-4.9,0-8.88,3.98-8.88,8.88v0c0,4.91,3.98,8.88,8.88,8.88h68.05v0"/>
		<path class="st1" d="M-4210.68,11.47h-21.1c-4.91,0-8.88,3.98-8.88,8.88v0c0,4.91,3.98,8.88,8.88,8.88h19.4h1.7
			c4.91,0,8.88-3.98,8.88-8.88v0C-4201.8,15.44-4205.78,11.47-4210.68,11.47z"/>
		<path class="st1" d="M-4210.05,29.23h-21.1c-4.9,0-8.88,3.98-8.88,8.88v0c0,4.91,3.98,8.88,8.88,8.88h19.4h1.7
			c4.91,0,8.88-3.98,8.88-8.88v0C-4201.16,33.21-4205.14,29.23-4210.05,29.23z"/>
		<path class="st1" d="M-4210.05,46.99h-21.1c-4.9,0-8.88,3.98-8.88,8.88v0c0,4.91,3.98,8.88,8.88,8.88h19.4h1.7
			c4.91,0,8.88-3.98,8.88-8.88v0C-4201.16,50.97-4205.14,46.99-4210.05,46.99z"/>
	</g>
	<path class="st1" d="M-4196.6-4.42l-11.69,23.48c-2.15,4.41-0.32,9.73,4.09,11.88v0c4.41,2.15,9.73,0.32,11.88-4.09l8.54-17.14"/>
</g>
<g>
	<ellipse class="st2" cx="-4014.87" cy="34.81" rx="28.07" ry="18.08"/>
	<g>
		<path class="st1" d="M-3995.5,30.08V15.44c0-3.72,3.01-6.73,6.73-6.73l0,0c3.72,0,6.73,3.01,6.73,6.73V38.2
			c0,18.59-15.07,33.66-33.66,33.66l0,0c-18.59,0-33.66-15.07-33.66-33.66V15.09l0,0c7.43,0,13.45,6.02,13.45,13.45v8.75l0,0
			c7.42,0,13.44,6.02,13.44,13.44v0.83"/>
		<path class="st1" d="M-3995.57,30.08V-2.69c0-3.72-3.01-6.73-6.73-6.73l0,0c-3.72,0-6.73,3.01-6.73,6.73v25.15"/>
		<path class="st1" d="M-4009.02,26.25V-9.52c0-3.72-3.01-6.73-6.73-6.73l0,0c-3.72,0-6.73,3.01-6.73,6.73v25.15"/>
		<path class="st1" d="M-4022.48,25.47V-4.3c0-3.72-3.01-6.73-6.73-6.73h0c-3.72,0-6.73,3.01-6.73,6.73v37.79"/>
	</g>
</g>
<g>
	<line class="st0" x1="-3829.59" y1="-184.55" x2="-3753.03" y2="-203.52"/>
	<circle class="st1" cx="-3829.59" cy="-184.55" r="25.98"/>
	<line class="st0" x1="-3676.23" y1="-184.53" x2="-3752.78" y2="-203.51"/>
	<circle class="st1" cx="-3676.23" cy="-184.55" r="25.98"/>
	<circle class="st1" cx="-3753.03" cy="-203.52" r="25.98"/>
</g>
<g>
	<circle class="st0" cx="-3607.06" cy="26.25" r="35.6"/>
	<g>
		<circle class="st3" cx="-3620.83" cy="19.21" r="1.69"/>
		<circle class="st3" cx="-3593.29" cy="19.21" r="1.69"/>
	</g>
	<path class="st0" d="M-3619.55,34.21c6.9,6.9,18.07,6.9,24.98,0"/>
</g>
<g>
	<line class="st0" x1="-3374.25" y1="-6.39" x2="-3374.25" y2="65.46"/>
	<line class="st0" x1="-3444.56" y1="29.53" x2="-3495.48" y2="29.53"/>
	<line class="st0" x1="-3334.64" y1="29.53" x2="-3385.56" y2="29.53"/>
	<rect x="-3463.96" y="10.28" class="st1" width="89.71" height="38.51"/>
	<line class="st0" x1="-3336.26" y1="13.77" x2="-3336.26" y2="45.29"/>
	<line class="st0" x1="-3422.74" y1="11.02" x2="-3422.74" y2="25.97"/>
	<line class="st0" x1="-3409.11" y1="12.23" x2="-3409.11" y2="33.65"/>
</g>
<circle class="st1" cx="-762.93" cy="31.45" r="35.26"/>
<g>
	<rect x="-3238.07" y="-16.6" class="st1" width="70.6" height="50.69"/>
	<line class="st1" x1="-3238.07" y1="-24.33" x2="-3238.07" y2="65.07"/>
	<rect x="-3238.07" y="8.75" class="st1" width="70.6" height="25.35"/>
	<rect x="-3238.07" y="-16.6" class="st1" width="25.35" height="25.35"/>
</g>
<g transform="translate(0,-952.36218)">
	<path class="st1" d="M-3029.13,1004.6c0,18.4,13.01,33.32,29.05,33.32c16.03,0,29.05-14.92,29.05-33.32s-13.96-38.93-29.05-56.24
		C-3000.08,948.36-3029.13,981.38-3029.13,1004.6z"/>
</g>
<g>
	<polyline class="st1" points="-2852.15,26.67 -2807.41,-18.06 -2762.68,26.67 	"/>
	<path class="st1" d="M-2807.41,18.92"/>
	<polygon class="st1" points="-2777.12,70.57 -2837.7,70.57 -2837.7,12.26 -2807.41,-18.06 -2777.12,12.26 	"/>
	<polyline class="st0" points="-2820.53,70.57 -2820.53,35.22 -2794.29,35.22 -2794.29,70.57 	"/>
</g>
<g>
	<circle class="st1" cx="-1367.16" cy="31.8" r="35.29"/>
	<polyline class="st1" points="-1380.72,31.42 -1372.54,41.22 -1353.6,22.38 	"/>
</g>
<g>
	<g>
		<g>
			<rect x="-2626.62" y="1" class="st0" width="69.54" height="69.54"/>
			<g>
				<line class="st1" x1="-2611.71" y1="-9.8" x2="-2611.71" y2="11.79"/>
				<line class="st1" x1="-2572" y1="-9.8" x2="-2572" y2="11.79"/>
			</g>
		</g>
		<line class="st1" x1="-2626.62" y1="23.7" x2="-2557.08" y2="23.7"/>
	</g>
	<g>
		<path class="st4" d="M-2591.25,35.95v4.07l-6.81,5.54v0.42h0.91c3.4,0,6.46,2.35,6.46,6.81c0,4.98-3.79,8.21-9.26,8.21
			c-5.86,0-9.4-3.47-9.4-8.35v-0.98h4.63v0.84c0,2.39,1.65,4.35,4.77,4.35c2.91,0,4.63-1.72,4.63-4.07c0-2.35-1.65-3.51-4-3.51
			h-4.28v-4.14l6.07-4.98h-11.12v-4.21H-2591.25z"/>
		<path class="st4" d="M-2575.88,35.95v24.56h-4.63V40.86h-0.42l-3.44,6.18h-4.84l6.32-11.09H-2575.88z"/>
	</g>
</g>
<g>
	<g>
		<circle class="st1" cx="-2389.52" cy="35.72" r="34.11"/>
		<g>
			<path class="st1" d="M-2395,2.36c-15.63,19.6-15.53,47.58,0.29,67.07"/>
			<path class="st1" d="M-2383.11,2.36c15.48,19.42,15.53,47.05,0.16,66.52"/>
		</g>
		<line class="st1" x1="-2423.63" y1="35.72" x2="-2355.42" y2="35.72"/>
		<line class="st1" x1="-2389.05" y1="1.81" x2="-2389.05" y2="69.63"/>
	</g>
</g>
<g>
	<circle class="st1" cx="-2197.05" cy="12.07" r="22.82"/>
	<line class="st1" x1="-2197.05" y1="34.89" x2="-2197.05" y2="78.23"/>
	<line class="st1" x1="-2215.15" y1="54.08" x2="-2178.95" y2="54.08"/>
</g>
<g>
	<circle class="st1" cx="-1984.58" cy="22.63" r="22.82"/>
	<line class="st1" x1="-1968.37" y1="5.94" x2="-1928.73" y2="-33.7"/>
	<polyline class="st0" points="-1955.15,-33.7 -1928.73,-33.7 -1928.73,-7.27 	"/>
</g>
<path class="st1" d="M-1730.8,39.14V27.1l-36.59-13.14l0.48-18.57c0.09-2.9-1.09-5.69-3.23-7.65v0c-3.79-3.47-9.61-3.48-13.41-0.01
	l-0.01,0.01c-2.15,1.96-3.34,4.76-3.24,7.66l0.48,18.55l-33.67,12.17v12.04l34.33-6.35l1.48,23.62l-12.3,10.06v8.46l20.03-9.74
	l20.03,9.74V65.5l-13.09-10.58l1.44-22.86L-1730.8,39.14z"/>
<g>
	<g>
		<g>
			<g>
				<g>
					<g>
						<rect x="-386.56" y="12.3" class="st2" width="79.95" height="61.47"/>
						<rect x="-386.56" y="12.3" class="st0" width="79.95" height="61.47"/>
					</g>
				</g>
			</g>
		</g>
		<path class="st1" d="M-327.47,61.58h-38.24c-4.08,0-7.39-3.31-7.39-7.39V31.88c0-4.08,3.31-7.39,7.39-7.39h38.24
			c4.08,0,7.39,3.31,7.39,7.39v22.31C-320.07,58.27-323.38,61.58-327.47,61.58z"/>
		<g>
			<line class="st1" x1="-372.17" y1="-14.15" x2="-346" y2="12.02"/>
			<line class="st1" x1="-321" y1="-14.15" x2="-347.17" y2="12.02"/>
		</g>
	</g>
</g>
<g>
	<polygon class="st1" points="-1538.83,74.43 -1603.73,74.43 -1603.73,-13.69 -1560.83,-13.69 -1549.83,-2.69 -1538.83,8.3 	"/>
	<polyline class="st1" points="-1560.83,-13.69 -1560.83,7.85 -1538.83,7.85 	"/>
</g>
<g>
	
		<rect x="-979" y="14.72" transform="matrix(-1.836970e-16 1 -1 -1.836970e-16 -936.1638 1009.4362)" class="st1" width="12.39" height="43.82"/>
	<rect x="-995.93" y="-13.99" class="st1" width="12.39" height="88.26"/>
	<rect x="-957.52" y="30.44" class="st1" width="12.39" height="43.82"/>
</g>
<g>
	<g>
		<polygon class="st1" points="-1130.52,73.58 -1195.58,73.58 -1195.58,-14.77 -1152.57,-14.77 -1141.54,-3.74 -1130.52,7.28 		"/>
		<polyline class="st1" points="-1152.57,-14.77 -1152.57,6.82 -1130.52,6.82 		"/>
	</g>
	<line class="st1" x1="-1179.88" y1="27.05" x2="-1147.87" y2="27.05"/>
	<line class="st1" x1="-1180.16" y1="40.29" x2="-1148.15" y2="40.29"/>
	<line class="st1" x1="-1180.16" y1="53.54" x2="-1148.15" y2="53.54"/>
</g>
<g>
	<g>
		<path class="st4" d="M-752.92,36.53v0.37c0,4.38-3.02,7.11-7.37,7.77v3.94h-4.42v-3.9c-5.08-0.7-8.25-3.98-8.25-9.28v-0.81h4.86
			v0.59c0,2.39,1.07,4.13,3.39,4.79v-7c-4.68-1.14-7.29-3.13-7.29-7.37v-0.22c0-4.02,3.09-6.67,7.29-7.26v-3.87h4.42v4.01
			c4.16,0.81,7,3.65,7,7.92v1.11h-4.86v-0.74c0-1.84-0.77-2.95-2.14-3.54v6.15C-755.53,30.34-752.92,32.33-752.92,36.53z
			 M-764.7,28.21v-5.38c-1.47,0.44-2.36,1.44-2.36,2.65C-767.06,26.99-766.14,27.69-764.7,28.21z M-757.85,36.9
			c0-1.47-0.85-2.28-2.43-2.84v5.93C-758.66,39.44-757.85,38.23-757.85,36.9z"/>
	</g>
</g>
<g>
	<circle class="st5" cx="2078.25" cy="-230.49" r="35.69"/>
	<g>
		<circle class="st6" cx="2064.45" cy="-237.55" r="1.7"/>
		<circle class="st6" cx="2092.05" cy="-237.55" r="1.7"/>
	</g>
	<path class="st7" d="M2065.73-222.51c6.92,6.92,18.12,6.92,25.04,0"/>
</g>
<g>
	<circle class="st5" cx="2142.11" cy="-230.49" r="35.69"/>
	<g>
		<circle class="st6" cx="2128.31" cy="-237.55" r="1.7"/>
		<circle class="st6" cx="2155.91" cy="-237.55" r="1.7"/>
	</g>
	<path class="st7" d="M2129.59-222.51c6.92,6.92,18.12,6.92,25.04,0"/>
</g>
<g>
	<circle class="st5" cx="2205.97" cy="-230.49" r="35.69"/>
	<g>
		<circle class="st6" cx="2192.17" cy="-237.55" r="1.7"/>
		<circle class="st6" cx="2219.77" cy="-237.55" r="1.7"/>
	</g>
	<path class="st7" d="M2193.45-222.51c6.92,6.92,18.12,6.92,25.04,0"/>
</g>
<polygon class="st1" points="-542.79,49.13 -524.83,66.77 -524.83,49.13 -507.19,49.13 -524.83,31.17 -507.19,13.21 -524.83,13.21 
	-524.83,-4.43 -542.79,13.21 -560.76,-4.43 -560.76,13.21 -578.39,13.21 -560.76,31.17 -578.39,49.13 -560.76,49.13 -560.76,66.77 
	"/>
<path class="st0" d="M2497.21,6.89c-19.42-11.08-39.69,1.39-38.74,22.03c1.04,22.68,19.59,51.75,37.54,44.64
	c2.43-0.97,5.14-0.97,7.57,0c17.95,7.11,36.49-21.97,37.54-44.64c0.95-20.59-19.24-33.06-38.63-22.09L2497.21,6.89z"/>
<path class="st0" d="M2506.9-14.38c-8.08,8.08-9.27,20.42-3.57,29.75"/>
<path class="st0" d="M2712.32-10.37c-15.65,1.49-19.56,16.36-22.4,32.85c-0.54,3.15-2.3,6.02-4.34,9.34
	c-3.7,6.02-8.29,13.51-5.89,25.26c1.08,5.52,4.51,10.3,9.39,13.1c6.38,3.78,15.19,4.62,22.99,2.21c1.59-0.51,3.3-0.44,4.84,0.2
	c3.02,1.27,6.28,1.91,9.56,1.88c3.96,0.01,7.88-0.85,11.47-2.52c6.07-2.82,10.57-8.21,12.26-14.69c3.27-11.72-1.68-19.37-5.65-25.52
	c-2.06-3.18-4-6.18-4.53-9.27c-2.83-16.42-6.72-31.25-22.22-32.84L2712.32-10.37z"/>
<path class="st0" d="M2721.07-27.25c-8.32,8.32-10.13,20.68-5.43,30.75"/>
<g>
	<rect x="1236.75" y="-5.46" class="st1" width="99.16" height="71.2"/>
	<rect x="1236.75" y="30.14" class="st8" width="99.16" height="35.6"/>
	<rect x="1236.75" y="-5.46" class="st9" width="35.6" height="35.6"/>
</g>
<polygon class="st1" points="2326.34,67.24 2275.3,74.93 2275.3,-13.95 2326.34,-21.63 "/>
<rect x="2275.3" y="-12.98" class="st1" width="63.23" height="88.87"/>
<g>
	<polygon class="st0" points="1674.21,80.79 1674.21,91.94 1663.05,80.79 1643.13,80.79 1643.13,-9.5 1739.2,-9.5 1739.2,80.79 	"/>
</g>
<g>
	<g>
		<circle class="st0" cx="1465.93" cy="17.9" r="20.4"/>
		<line class="st0" x1="1480.97" y1="32.95" x2="1488.71" y2="40.69"/>
	</g>
	
		<rect x="1494.75" y="35.6" transform="matrix(0.7071 -0.7071 0.7071 0.7071 402.2993 1076.2955)" class="st0" width="11.21" height="33.86"/>
</g>
<g>
	<path class="st0" d="M1081.29,23.66c-0.63,4.55-2.69,8.93-6.18,12.43c-8.52,8.52-22.33,8.52-30.85,0s-8.52-22.33,0-30.85
		s22.33-8.52,30.85,0C1080.13,10.26,1082.19,17.12,1081.29,23.66"/>
	<polyline class="st0" points="1082.29,23.49 1115.54,61.73 1102.07,75.2 1063.83,41.95 	"/>
	<line class="st0" x1="1108.27" y1="68.99" x2="1126.57" y2="87.29"/>
	<line class="st0" x1="1044.25" y1="36.08" x2="1074.31" y2="6.02"/>
</g>
<g>
	<rect x="1866.03" y="-14.19" class="st0" width="65.29" height="88.66"/>
	<g>
		<polyline class="st0" points="1878.53,8.8 1884.41,13.1 1891.81,1.39 		"/>
		<polyline class="st0" points="1905.55,32.46 1911.43,36.76 1918.83,25.04 		"/>
		<g>
			<line class="st0" x1="1918.6" y1="2.57" x2="1905.78" y2="15.4"/>
			<line class="st0" x1="1905.78" y1="2.57" x2="1918.6" y2="15.4"/>
		</g>
		<g>
			<line class="st0" x1="1891.58" y1="46.06" x2="1878.75" y2="58.89"/>
			<line class="st0" x1="1878.75" y1="46.06" x2="1891.58" y2="58.89"/>
		</g>
		<line class="st0" x1="1879.32" y1="30.9" x2="1891.01" y2="30.9"/>
		<line class="st0" x1="1906.34" y1="52.48" x2="1918.04" y2="52.48"/>
	</g>
</g>
<polygon class="st0" points="878.1,-2.61 889.67,20.82 915.53,24.58 896.82,42.83 901.24,68.58 878.1,56.42 854.97,68.58 
	859.39,42.83 840.67,24.58 866.54,20.82 "/>
<g>
	<rect x="615.92" y="5.38" class="st0" width="116.13" height="71.69"/>
	<polyline class="st0" points="616.03,5.38 674.79,41.22 731.95,5.38 	"/>
</g>
<g>
	<g>
		<polygon class="st0" points="459.32,76.92 393.92,76.92 393.92,-11.9 437.16,-11.9 448.24,-0.82 459.32,10.27 		"/>
		<polyline class="st0" points="437.16,-11.9 437.16,9.81 459.32,9.81 		"/>
	</g>
	<line class="st0" x1="409.7" y1="30.14" x2="441.88" y2="30.14"/>
	<line class="st10" x1="409.42" y1="43.45" x2="441.6" y2="43.45"/>
	<line class="st10" x1="409.42" y1="56.77" x2="441.6" y2="56.77"/>
</g>
<g>
	<g>
		<polygon class="st0" points="545.83,76.92 480.42,76.92 480.42,-11.9 523.66,-11.9 534.74,-0.82 545.83,10.27 		"/>
		<polyline class="st0" points="523.66,-11.9 523.66,9.81 545.83,9.81 		"/>
	</g>
	<line class="st0" x1="496.2" y1="30.14" x2="528.38" y2="30.14"/>
	<line class="st10" x1="495.93" y1="43.45" x2="528.1" y2="43.45"/>
	<line class="st10" x1="495.93" y1="56.77" x2="528.1" y2="56.77"/>
</g>
<polyline class="st0" points="498.02,7.87 503.91,12.18 511.33,0.44 "/>
<g>
	<line class="st0" x1="423.25" y1="-0.12" x2="410.39" y2="12.73"/>
	<line class="st0" x1="410.39" y1="-0.12" x2="423.25" y2="12.73"/>
</g>
<g>
	<g>
		<g>
			<polygon class="st0" points="227.87,67.09 292.28,67.09 292.28,-21.7 249.7,-21.7 238.79,-10.62 227.87,0.46 			"/>
			<polyline class="st0" points="249.7,-21.7 249.7,0 227.87,0 			"/>
		</g>
	</g>
</g>
<g>
	<g>
		<circle class="st1" cx="280.86" cy="15.32" r="20.88"/>
		<line class="st1" x1="296.26" y1="30.73" x2="304.18" y2="38.65"/>
	</g>
	
		<rect x="310.36" y="33.44" transform="matrix(0.7071 -0.7071 0.7071 0.7071 56.6832 238.387)" class="st1" width="11.48" height="34.67"/>
</g>
<g>
	<path class="st0" d="M120.04,33.28c0,0-17.48,41.31-58.39,41.31S3.25,33.28,3.25,33.28v-0.77c0,0,12.46-21.34,25.4-27.36
		s32.99,4.23,32.99,4.23l0,0c0,0,19.92-10.25,32.87-4.23s25.4,27.36,25.4,27.36L120.04,33.28z"/>
	<path class="st0" d="M3.25,32.51c0,0,48.67,12.89,116.79,0.77"/>
</g>
<g>
	<path class="st0" d="M-97.68,32.82c0,0-17.47,35.88-58.34,35.88s-58.34-35.88-58.34-35.88s17.47-35.88,58.34-35.88
		S-97.68,32.82-97.68,32.82z"/>
	<circle class="st0" cx="-156.02" cy="31.84" r="17.39"/>
</g>
<g>
	<circle class="st5" cx="2919.25" cy="35.09" r="35.69"/>
	<g>
		<circle class="st6" cx="2905.45" cy="28.03" r="1.7"/>
		<circle class="st6" cx="2933.06" cy="28.03" r="1.7"/>
	</g>
	<path class="st7" d="M2906.73,43.07c6.92,6.92,18.12,6.92,25.04,0"/>
</g>
<g>
	<circle class="st1" cx="3130.77" cy="10.13" r="22.82"/>
	<line class="st1" x1="3130.77" y1="32.95" x2="3130.77" y2="76.29"/>
	<line class="st1" x1="3112.68" y1="52.14" x2="3148.87" y2="52.14"/>
</g>
<g>
	<circle class="st1" cx="3308.63" cy="51.84" r="22.82"/>
	<line class="st1" x1="3324.85" y1="35.15" x2="3364.48" y2="-4.49"/>
	<polyline class="st0" points="3338.06,-4.49 3364.48,-4.49 3364.48,21.94 	"/>
</g>
</svg>
