<?xml version="1.0" encoding="utf-8"?>
<!-- Generator: Adobe Illustrator 24.2.0, SVG Export Plug-In . SVG Version: 6.00 Build 0)  -->
<svg version="1.1" id="Capa_1" xmlns="http://www.w3.org/2000/svg" xmlns:xlink="http://www.w3.org/1999/xlink" x="0px" y="0px"
	 viewBox="0 0 84.86 88.98" style="enable-background:new 0 0 84.86 88.98;" xml:space="preserve">
<style type="text/css">
	.st0{fill:none;stroke:#000000;stroke-width:6.5;stroke-miterlimit:10;}
	.st1{fill:#FFFFFF;stroke:#000000;stroke-width:6.5;stroke-miterlimit:10;}
	.st2{fill:#FFFFFF;}
	.st3{stroke:#000000;stroke-width:6.5;stroke-miterlimit:10;}
	.st4{fill:#1D1D1B;}
	.st5{fill:#FFFFFF;stroke:#1D1D1B;stroke-width:6.5;stroke-miterlimit:10;}
	.st6{fill:#1D1D1B;stroke:#1D1D1B;stroke-width:6.5;stroke-miterlimit:10;}
	.st7{fill:none;stroke:#1D1D1B;stroke-width:6.5;stroke-miterlimit:10;}
	.st8{fill:#FC5439;stroke:#000000;stroke-width:6.5;stroke-miterlimit:10;}
	.st9{fill:#3A90FD;stroke:#000000;stroke-width:6.5;stroke-miterlimit:10;}
	.st10{fill:#F1CD08;stroke:#000000;stroke-width:6.5;stroke-miterlimit:10;}
</style>
<g>
	<path class="st0" d="M-1824.62,79.13V4.79c0-4.23,3.43-7.65,7.65-7.65h54.6v77.9"/>
	<path class="st0" d="M-1801.05,85.87h38.68V72.39h-55.51c-3.72,0-6.74,3.02-6.74,6.74v0c0,3.72,3.02,6.74,6.74,6.74h1.52"/>
	<rect x="-1806.95" y="17.91" class="st0" width="26.92" height="15.7"/>
	<polygon class="st0" points="-1803.24,99.03 -1808.49,104.33 -1813.75,99.03 -1813.75,82.07 -1803.24,82.07 	"/>
</g>
<polygon class="st0" points="-2155.33,41.75 -2191,6.08 -2191,21.59 -2248.12,21.59 -2248.12,63.32 -2191,63.32 -2191,77.43 "/>
<g>
	<polyline class="st0" points="-1982.39,15.14 -1958.75,15.14 -1958.75,86.33 -2035.62,86.33 -2035.62,15.14 -2005.48,15.14 	"/>
	<polygon class="st0" points="-2000.12,26.95 -2008.71,18.37 -1987.51,-2.83 -1975.97,8.72 -1994.2,26.95 	"/>
	<polyline class="st0" points="-2010.08,26.95 -2000.12,26.95 -1994.2,26.95 -1984.29,26.95 	"/>
</g>
<g>
	<polygon class="st0" points="-2370.55,-12.54 -2446.57,39.01 -2454.29,58.42 -2433.4,58.42 -2357.38,6.86 	"/>
	<line class="st0" x1="-2446.57" y1="39.01" x2="-2433.4" y2="58.42"/>
</g>
<g>
	<g>
		<path class="st1" d="M-1584.73,74.71h24.01c19.62,0,35.53-15.91,35.53-35.53v0c0-19.62-15.91-35.53-35.53-35.53l-3.72,0l-78.89,0
			c-4.91,0-8.88,3.98-8.88,8.88v0c0,4.91,3.98,8.88,8.88,8.88h68.05v0"/>
		<path class="st1" d="M-1575.29,21.42h-21.1c-4.91,0-8.88,3.98-8.88,8.88v0c0,4.91,3.98,8.88,8.88,8.88h19.4h1.7
			c4.91,0,8.88-3.98,8.88-8.88v0C-1566.41,25.4-1570.38,21.42-1575.29,21.42z"/>
		<path class="st1" d="M-1574.65,39.19h-21.09c-4.91,0-8.88,3.98-8.88,8.88v0c0,4.91,3.98,8.88,8.88,8.88h19.4h1.7
			c4.91,0,8.88-3.98,8.88-8.88v0C-1565.77,43.16-1569.74,39.19-1574.65,39.19z"/>
		<path class="st1" d="M-1574.65,56.95h-21.09c-4.91,0-8.88,3.98-8.88,8.88v0c0,4.91,3.98,8.88,8.88,8.88h19.4h1.7
			c4.91,0,8.88-3.98,8.88-8.88v0C-1565.77,60.93-1569.74,56.95-1574.65,56.95z"/>
	</g>
	<path class="st1" d="M-1561.2,5.54l-11.69,23.48c-2.15,4.41-0.32,9.73,4.09,11.88v0c4.41,2.15,9.73,0.32,11.88-4.09l8.54-17.14"/>
</g>
<g>
	<ellipse class="st2" cx="-1379.47" cy="44.77" rx="28.07" ry="18.08"/>
	<g>
		<path class="st1" d="M-1360.11,40.03V25.4c0-3.72,3.01-6.73,6.73-6.73l0,0c3.72,0,6.73,3.01,6.73,6.73v22.75
			c0,18.59-15.07,33.66-33.66,33.66h0c-18.59,0-33.66-15.07-33.66-33.66V25.04l0,0c7.43,0,13.45,6.02,13.45,13.45v8.75l0,0
			c7.42,0,13.44,6.02,13.44,13.44v0.83"/>
		<path class="st1" d="M-1360.17,40.03V7.26c0-3.72-3.01-6.73-6.73-6.73l0,0c-3.72,0-6.73,3.01-6.73,6.73v25.15"/>
		<path class="st1" d="M-1373.63,36.21V0.44c0-3.72-3.01-6.73-6.73-6.73l0,0c-3.72,0-6.73,3.01-6.73,6.73v25.15"/>
		<path class="st1" d="M-1387.08,35.42V5.65c0-3.72-3.01-6.73-6.73-6.73l0,0c-3.72,0-6.73,3.01-6.73,6.73v37.79"/>
	</g>
</g>
<g>
	<line class="st0" x1="-1194.19" y1="-174.59" x2="-1117.63" y2="-193.57"/>
	<circle class="st1" cx="-1194.19" cy="-174.59" r="25.98"/>
	<line class="st0" x1="-1040.83" y1="-174.57" x2="-1117.39" y2="-193.55"/>
	<circle class="st1" cx="-1040.83" cy="-174.59" r="25.98"/>
	<circle class="st1" cx="-1117.63" cy="-193.57" r="25.98"/>
</g>
<g>
	<circle class="st0" cx="-971.66" cy="36.21" r="35.6"/>
	<g>
		<circle class="st3" cx="-985.43" cy="29.17" r="1.69"/>
		<circle class="st3" cx="-957.89" cy="29.17" r="1.69"/>
	</g>
	<path class="st0" d="M-984.15,44.17c6.9,6.9,18.07,6.9,24.98,0"/>
</g>
<g>
	<line class="st0" x1="-738.85" y1="3.56" x2="-738.85" y2="75.41"/>
	<line class="st0" x1="-809.17" y1="39.49" x2="-860.09" y2="39.49"/>
	<line class="st0" x1="-699.25" y1="39.49" x2="-750.17" y2="39.49"/>
	<rect x="-828.57" y="20.23" class="st1" width="89.71" height="38.51"/>
	<line class="st0" x1="-700.86" y1="23.73" x2="-700.86" y2="55.25"/>
	<line class="st0" x1="-787.35" y1="20.98" x2="-787.35" y2="35.93"/>
	<line class="st0" x1="-773.72" y1="22.19" x2="-773.72" y2="43.61"/>
</g>
<circle class="st1" cx="1872.46" cy="39.52" r="35.26"/>
<g>
	<rect x="-602.67" y="-6.64" class="st1" width="70.6" height="50.69"/>
	<line class="st1" x1="-602.67" y1="-14.37" x2="-602.67" y2="75.02"/>
	<rect x="-602.67" y="18.7" class="st1" width="70.6" height="25.35"/>
	<rect x="-602.67" y="-6.64" class="st1" width="25.35" height="25.35"/>
</g>
<g transform="translate(0,-952.36218)">
	<path class="st1" d="M-393.73,1014.56c0,18.4,13.01,33.32,29.05,33.32s29.05-14.92,29.05-33.32c0-18.4-13.96-38.93-29.05-56.24
		C-364.69,958.32-393.73,991.33-393.73,1014.56z"/>
</g>
<g>
	<polyline class="st1" points="-216.75,36.63 -172.02,-8.11 -127.28,36.63 	"/>
	<path class="st1" d="M-172.02,28.87"/>
	<polygon class="st1" points="-141.73,80.52 -202.31,80.52 -202.31,22.21 -172.02,-8.11 -141.73,22.21 	"/>
	<polyline class="st0" points="-185.13,80.52 -185.13,45.17 -158.9,45.17 -158.9,80.52 	"/>
</g>
<g>
	<circle class="st1" cx="1268.23" cy="41.75" r="35.29"/>
	<polyline class="st1" points="1254.67,41.37 1262.86,51.18 1281.79,32.33 	"/>
</g>
<g>
	<g>
		<g>
			<rect x="8.77" y="10.95" class="st0" width="69.54" height="69.54"/>
			<g>
				<line class="st1" x1="23.69" y1="0.16" x2="23.69" y2="21.75"/>
				<line class="st1" x1="63.4" y1="0.16" x2="63.4" y2="21.75"/>
			</g>
		</g>
		<line class="st1" x1="8.77" y1="33.66" x2="78.31" y2="33.66"/>
	</g>
	<g>
		<path class="st4" d="M44.15,45.9v4.07l-6.81,5.54v0.42h0.91c3.4,0,6.46,2.35,6.46,6.81c0,4.98-3.79,8.21-9.26,8.21
			c-5.86,0-9.4-3.47-9.4-8.35v-0.98h4.63v0.84c0,2.39,1.65,4.35,4.77,4.35c2.91,0,4.63-1.72,4.63-4.07s-1.65-3.51-4-3.51h-4.28V55.1
			l6.07-4.98H26.74V45.9H44.15z"/>
		<path class="st4" d="M59.51,45.9v24.56h-4.63V50.82h-0.42l-3.44,6.18h-4.84L52.5,45.9H59.51z"/>
	</g>
</g>
<g>
	<g>
		<circle class="st1" cx="245.88" cy="45.68" r="34.11"/>
		<g>
			<path class="st1" d="M240.4,12.32c-15.63,19.6-15.53,47.58,0.29,67.07"/>
			<path class="st1" d="M252.29,12.32c15.48,19.42,15.53,47.05,0.16,66.52"/>
		</g>
		<line class="st1" x1="211.77" y1="45.68" x2="279.98" y2="45.68"/>
		<line class="st1" x1="246.34" y1="11.77" x2="246.34" y2="79.59"/>
	</g>
</g>
<g>
	<circle class="st1" cx="438.35" cy="22.82" r="22.82"/>
	<line class="st1" x1="438.35" y1="45.64" x2="438.35" y2="88.98"/>
	<line class="st1" x1="420.25" y1="64.83" x2="456.45" y2="64.83"/>
</g>
<g>
	<circle class="st1" cx="650.82" cy="32.58" r="22.82"/>
	<line class="st1" x1="667.03" y1="15.89" x2="706.67" y2="-23.74"/>
	<polyline class="st0" points="680.24,-23.74 706.67,-23.74 706.67,2.68 	"/>
</g>
<path class="st1" d="M904.6,49.1V37.05L868,23.91l0.48-18.57c0.09-2.9-1.09-5.69-3.23-7.65l0,0c-3.79-3.47-9.61-3.48-13.41-0.01
	l-0.01,0.01c-2.15,1.96-3.34,4.76-3.24,7.66l0.48,18.55l-33.67,12.17v12.04l34.33-6.35l1.48,23.62l-12.3,10.06v8.46l20.03-9.74
	l20.03,9.74v-8.46l-13.09-10.58l1.45-22.86L904.6,49.1z"/>
<g>
	<g>
		<g>
			<g>
				<g>
					<g>
						<rect x="2248.83" y="20.46" class="st2" width="79.95" height="61.47"/>
						<rect x="2248.83" y="20.46" class="st0" width="79.95" height="61.47"/>
					</g>
				</g>
			</g>
		</g>
		<path class="st1" d="M2307.93,69.74h-38.24c-4.08,0-7.39-3.31-7.39-7.39V40.04c0-4.08,3.31-7.39,7.39-7.39h38.24
			c4.08,0,7.39,3.31,7.39,7.39v22.31C2315.32,66.43,2312.01,69.74,2307.93,69.74z"/>
		<g>
			<line class="st1" x1="2263.22" y1="-5.99" x2="2289.39" y2="20.18"/>
			<line class="st1" x1="2314.39" y1="-5.99" x2="2288.23" y2="20.18"/>
		</g>
	</g>
</g>
<g>
	<polygon class="st1" points="1096.57,84.39 1031.67,84.39 1031.67,-3.73 1074.57,-3.73 1085.57,7.26 1096.57,18.26 	"/>
	<polyline class="st1" points="1074.57,-3.73 1074.57,17.8 1096.57,17.8 	"/>
</g>
<g>
	
		<rect x="1656.4" y="24.68" transform="matrix(-1.836970e-16 1 -1 -1.836970e-16 1709.1884 -1616.0045)" class="st1" width="12.39" height="43.82"/>
	<rect x="1639.46" y="-4.04" class="st1" width="12.39" height="88.26"/>
	<rect x="1677.88" y="40.4" class="st1" width="12.39" height="43.82"/>
</g>
<g>
	<g>
		<polygon class="st1" points="1504.88,81.81 1439.82,81.81 1439.82,-6.54 1482.83,-6.54 1493.85,4.49 1504.88,15.51 		"/>
		<polyline class="st1" points="1482.83,-6.54 1482.83,15.05 1504.88,15.05 		"/>
	</g>
	<line class="st1" x1="1455.52" y1="35.28" x2="1487.52" y2="35.28"/>
	<line class="st1" x1="1455.24" y1="48.52" x2="1487.25" y2="48.52"/>
	<line class="st1" x1="1455.24" y1="61.77" x2="1487.25" y2="61.77"/>
</g>
<g>
	<g>
		<path class="st4" d="M1882.48,44.6v0.37c0,4.38-3.02,7.11-7.37,7.77v3.94h-4.42v-3.9c-5.08-0.7-8.25-3.98-8.25-9.28v-0.81h4.86
			v0.59c0,2.39,1.07,4.13,3.39,4.79v-7c-4.68-1.14-7.29-3.13-7.29-7.37v-0.22c0-4.02,3.09-6.67,7.29-7.26v-3.87h4.42v4.01
			c4.16,0.81,7,3.65,7,7.92v1.11h-4.86v-0.74c0-1.84-0.77-2.95-2.14-3.54v6.15C1879.87,38.41,1882.48,40.4,1882.48,44.6z
			 M1870.69,36.28V30.9c-1.47,0.44-2.36,1.44-2.36,2.65C1868.34,35.06,1869.26,35.76,1870.69,36.28z M1877.54,44.97
			c0-1.47-0.85-2.28-2.43-2.84v5.93C1876.74,47.51,1877.54,46.3,1877.54,44.97z"/>
	</g>
</g>
<g>
	<circle class="st5" cx="4713.65" cy="-220.53" r="35.69"/>
	<g>
		<circle class="st6" cx="4699.84" cy="-227.59" r="1.7"/>
		<circle class="st6" cx="4727.45" cy="-227.59" r="1.7"/>
	</g>
	<path class="st7" d="M4701.13-212.55c6.92,6.92,18.12,6.92,25.04,0"/>
</g>
<g>
	<circle class="st5" cx="4777.5" cy="-220.53" r="35.69"/>
	<g>
		<circle class="st6" cx="4763.7" cy="-227.59" r="1.7"/>
		<circle class="st6" cx="4791.31" cy="-227.59" r="1.7"/>
	</g>
	<path class="st7" d="M4764.98-212.55c6.92,6.92,18.12,6.92,25.04,0"/>
</g>
<g>
	<circle class="st5" cx="4841.36" cy="-220.53" r="35.69"/>
	<g>
		<circle class="st6" cx="4827.56" cy="-227.59" r="1.7"/>
		<circle class="st6" cx="4855.17" cy="-227.59" r="1.7"/>
	</g>
	<path class="st7" d="M4828.84-212.55c6.92,6.92,18.12,6.92,25.04,0"/>
</g>
<polygon class="st1" points="2092.6,59.09 2110.57,76.72 2110.57,59.09 2128.2,59.09 2110.57,41.13 2128.2,23.16 2110.57,23.16 
	2110.57,5.53 2092.6,23.16 2074.64,5.53 2074.64,23.16 2057,23.16 2074.64,41.13 2057,59.09 2074.64,59.09 2074.64,76.72 "/>
<path class="st0" d="M5132.61,16.85c-19.42-11.08-39.69,1.39-38.74,22.03c1.04,22.68,19.59,51.75,37.54,44.64
	c2.43-0.97,5.14-0.97,7.57,0c17.95,7.11,36.5-21.97,37.54-44.64c0.95-20.59-19.24-33.06-38.63-22.09L5132.61,16.85z"/>
<path class="st0" d="M5142.29-4.43c-8.08,8.08-9.27,20.42-3.57,29.75"/>
<path class="st0" d="M5347.71-0.42c-15.65,1.49-19.56,16.36-22.4,32.85c-0.54,3.15-2.3,6.02-4.34,9.34
	c-3.7,6.02-8.29,13.51-5.89,25.26c1.08,5.52,4.51,10.3,9.39,13.1c6.38,3.78,15.19,4.62,22.99,2.21c1.59-0.51,3.3-0.44,4.84,0.2
	c3.02,1.27,6.28,1.91,9.56,1.88c3.96,0.01,7.88-0.85,11.47-2.52c6.07-2.82,10.57-8.21,12.26-14.69c3.27-11.72-1.68-19.37-5.65-25.52
	c-2.06-3.18-4-6.18-4.53-9.27c-2.83-16.42-6.72-31.25-22.22-32.84L5347.71-0.42z"/>
<path class="st0" d="M5356.47-17.3c-8.32,8.32-10.13,20.68-5.43,30.75"/>
<g>
	<rect x="3872.15" y="4.5" class="st1" width="99.16" height="71.2"/>
	<rect x="3872.15" y="40.09" class="st8" width="99.16" height="35.6"/>
	<rect x="3872.15" y="4.5" class="st9" width="35.6" height="35.6"/>
</g>
<polygon class="st1" points="4961.74,77.2 4910.69,84.88 4910.69,-3.99 4961.74,-11.68 "/>
<rect x="4910.69" y="-3.03" class="st1" width="63.23" height="88.87"/>
<g>
	<polygon class="st0" points="4309.61,90.74 4309.61,101.9 4298.45,90.74 4278.53,90.74 4278.53,0.45 4374.6,0.45 4374.6,90.74 	"/>
</g>
<g>
	<g>
		<circle class="st0" cx="4101.32" cy="27.86" r="20.4"/>
		<line class="st0" x1="4116.37" y1="42.91" x2="4124.11" y2="50.64"/>
	</g>
	
		<rect x="4130.14" y="45.55" transform="matrix(0.7071 -0.7071 0.7071 0.7071 1167.1493 2942.718)" class="st0" width="11.21" height="33.86"/>
</g>
<g>
	<path class="st0" d="M3716.68,33.61c-0.63,4.55-2.69,8.93-6.18,12.43c-8.52,8.52-22.33,8.52-30.85,0c-8.52-8.52-8.52-22.33,0-30.85
		c8.52-8.52,22.33-8.52,30.85,0C3715.52,20.21,3717.59,27.08,3716.68,33.61"/>
	<polyline class="st0" points="3717.69,33.45 3750.93,71.68 3737.46,85.15 3699.23,51.91 	"/>
	<line class="st0" x1="3743.67" y1="78.95" x2="3761.97" y2="97.24"/>
	<line class="st0" x1="3679.65" y1="46.04" x2="3709.71" y2="15.98"/>
</g>
<g>
	<rect x="4501.43" y="-4.23" class="st0" width="65.29" height="88.66"/>
	<g>
		<polyline class="st0" points="4513.92,18.76 4519.8,23.06 4527.2,11.34 		"/>
		<polyline class="st0" points="4540.95,42.41 4546.83,46.71 4554.23,35 		"/>
		<g>
			<line class="st0" x1="4554" y1="12.52" x2="4541.17" y2="25.35"/>
			<line class="st0" x1="4541.17" y1="12.52" x2="4554" y2="25.35"/>
		</g>
		<g>
			<line class="st0" x1="4526.98" y1="56.02" x2="4514.15" y2="68.84"/>
			<line class="st0" x1="4514.15" y1="56.02" x2="4526.98" y2="68.84"/>
		</g>
		<line class="st0" x1="4514.72" y1="40.85" x2="4526.41" y2="40.85"/>
		<line class="st0" x1="4541.74" y1="62.43" x2="4553.43" y2="62.43"/>
	</g>
</g>
<polygon class="st0" points="3513.5,7.34 3525.07,30.78 3550.93,34.54 3532.21,52.78 3536.63,78.54 3513.5,66.38 3490.37,78.54 
	3494.78,52.78 3476.07,34.54 3501.93,30.78 "/>
<g>
	<rect x="3251.32" y="15.33" class="st0" width="116.13" height="71.69"/>
	<polyline class="st0" points="3251.42,15.33 3310.19,51.18 3367.34,15.33 	"/>
</g>
<g>
	<g>
		<polygon class="st0" points="3094.72,86.87 3029.32,86.87 3029.32,-1.94 3072.55,-1.94 3083.64,9.14 3094.72,20.22 		"/>
		<polyline class="st0" points="3072.55,-1.94 3072.55,19.76 3094.72,19.76 		"/>
	</g>
	<line class="st0" x1="3045.1" y1="40.09" x2="3077.28" y2="40.09"/>
	<line class="st10" x1="3044.82" y1="53.41" x2="3077" y2="53.41"/>
	<line class="st10" x1="3044.82" y1="66.72" x2="3077" y2="66.72"/>
</g>
<g>
	<g>
		<polygon class="st0" points="3181.22,86.87 3115.82,86.87 3115.82,-1.94 3159.05,-1.94 3170.14,9.14 3181.22,20.22 		"/>
		<polyline class="st0" points="3159.05,-1.94 3159.05,19.76 3181.22,19.76 		"/>
	</g>
	<line class="st0" x1="3131.6" y1="40.09" x2="3163.78" y2="40.09"/>
	<line class="st10" x1="3131.32" y1="53.41" x2="3163.5" y2="53.41"/>
	<line class="st10" x1="3131.32" y1="66.72" x2="3163.5" y2="66.72"/>
</g>
<polyline class="st0" points="3133.42,17.83 3139.31,22.13 3146.72,10.4 "/>
<g>
	<line class="st0" x1="3058.64" y1="9.84" x2="3045.79" y2="22.69"/>
	<line class="st0" x1="3045.79" y1="9.84" x2="3058.64" y2="22.69"/>
</g>
<g>
	<g>
		<g>
			<polygon class="st0" points="2863.27,77.04 2927.68,77.04 2927.68,-11.75 2885.1,-11.75 2874.18,-0.67 2863.27,10.41 			"/>
			<polyline class="st0" points="2885.1,-11.75 2885.1,9.95 2863.27,9.95 			"/>
		</g>
	</g>
</g>
<g>
	<g>
		<circle class="st1" cx="2916.25" cy="25.28" r="20.88"/>
		<line class="st1" x1="2931.66" y1="40.68" x2="2939.58" y2="48.6"/>
	</g>
	
		<rect x="2945.76" y="43.39" transform="matrix(0.7071 -0.7071 0.7071 0.7071 821.5331 2104.8096)" class="st1" width="11.48" height="34.67"/>
</g>
<g>
	<path class="st0" d="M2755.43,43.23c0,0-17.48,41.31-58.39,41.31s-58.39-41.31-58.39-41.31v-0.77c0,0,12.46-21.34,25.4-27.36
		s32.99,4.23,32.99,4.23l0,0c0,0,19.92-10.25,32.87-4.23s25.4,27.36,25.4,27.36L2755.43,43.23z"/>
	<path class="st0" d="M2638.65,42.46c0,0,48.67,12.89,116.79,0.77"/>
</g>
<g>
	<path class="st0" d="M2537.71,47.46c0,0-17.47,35.88-58.34,35.88c-40.87,0-58.34-35.88-58.34-35.88s17.47-35.88,58.34-35.88
		C2520.24,11.58,2537.71,47.46,2537.71,47.46z"/>
	<circle class="st0" cx="2479.37" cy="46.48" r="17.39"/>
</g>
<g>
	<circle class="st5" cx="5554.65" cy="45.04" r="35.69"/>
	<g>
		<circle class="st6" cx="5540.85" cy="37.98" r="1.7"/>
		<circle class="st6" cx="5568.45" cy="37.98" r="1.7"/>
	</g>
	<path class="st7" d="M5542.13,53.02c6.92,6.92,18.12,6.92,25.04,0"/>
</g>
<g>
	<circle class="st1" cx="5766.17" cy="20.09" r="22.82"/>
	<line class="st1" x1="5766.17" y1="42.91" x2="5766.17" y2="86.24"/>
	<line class="st1" x1="5748.07" y1="62.09" x2="5784.27" y2="62.09"/>
</g>
<g>
	<circle class="st1" cx="5944.03" cy="61.8" r="22.82"/>
	<line class="st1" x1="5960.24" y1="45.11" x2="5999.88" y2="5.47"/>
	<polyline class="st0" points="5973.45,5.47 5999.88,5.47 5999.88,31.89 	"/>
</g>
</svg>
