<?xml version="1.0" encoding="utf-8"?>
<!-- Generator: Adobe Illustrator 24.2.0, SVG Export Plug-In . SVG Version: 6.00 Build 0)  -->
<svg version="1.1" id="Capa_1" xmlns="http://www.w3.org/2000/svg" xmlns:xlink="http://www.w3.org/1999/xlink" x="0px" y="0px"
	 viewBox="0 0 84.32 88.1" style="enable-background:new 0 0 84.32 88.1;" xml:space="preserve">
<style type="text/css">
	.st0{fill:none;stroke:#000000;stroke-width:6.5;stroke-miterlimit:10;}
	.st1{fill:#FFFFFF;stroke:#000000;stroke-width:6.5;stroke-miterlimit:10;}
	.st2{fill:#FFFFFF;}
	.st3{stroke:#000000;stroke-width:6.5;stroke-miterlimit:10;}
	.st4{fill:#1D1D1B;}
	.st5{fill:#FFFFFF;stroke:#1D1D1B;stroke-width:6.5;stroke-miterlimit:10;}
	.st6{fill:#1D1D1B;stroke:#1D1D1B;stroke-width:6.5;stroke-miterlimit:10;}
	.st7{fill:none;stroke:#1D1D1B;stroke-width:6.5;stroke-miterlimit:10;}
	.st8{fill:#FC5439;stroke:#000000;stroke-width:6.5;stroke-miterlimit:10;}
	.st9{fill:#3A90FD;stroke:#000000;stroke-width:6.5;stroke-miterlimit:10;}
	.st10{fill:#F1CD08;stroke:#000000;stroke-width:6.5;stroke-miterlimit:10;}
</style>
<g>
	<path class="st0" d="M-809.76,85.42V11.08c0-4.23,3.43-7.65,7.65-7.65h54.6v77.9"/>
	<path class="st0" d="M-786.2,92.16h38.68V78.68h-55.51c-3.72,0-6.74,3.02-6.74,6.74v0c0,3.72,3.02,6.74,6.74,6.74h1.52"/>
	<rect x="-792.1" y="24.2" class="st0" width="26.92" height="15.7"/>
	<polygon class="st0" points="-788.38,105.32 -793.64,110.62 -798.9,105.32 -798.9,88.36 -788.38,88.36 	"/>
</g>
<polygon class="st0" points="-1140.47,48.04 -1176.14,12.37 -1176.14,27.88 -1233.27,27.88 -1233.27,69.61 -1176.14,69.61 
	-1176.14,83.72 "/>
<g>
	<polyline class="st0" points="-967.53,21.43 -943.9,21.43 -943.9,92.62 -1020.76,92.62 -1020.76,21.43 -990.63,21.43 	"/>
	<polygon class="st0" points="-985.27,33.24 -993.85,24.66 -972.66,3.46 -961.11,15.01 -979.35,33.24 	"/>
	<polyline class="st0" points="-995.22,33.24 -985.27,33.24 -979.34,33.24 -969.43,33.24 	"/>
</g>
<g>
	<polygon class="st0" points="-1355.69,-6.25 -1431.71,45.3 -1439.44,64.71 -1418.55,64.71 -1342.53,13.15 	"/>
	<line class="st0" x1="-1431.71" y1="45.3" x2="-1418.55" y2="64.71"/>
</g>
<g>
	<g>
		<path class="st1" d="M-569.87,81h24.01c19.62,0,35.53-15.91,35.53-35.53v0c0-19.62-15.91-35.53-35.53-35.53l-3.72,0h-78.89
			c-4.91,0-8.88,3.98-8.88,8.88v0c0,4.91,3.98,8.88,8.88,8.88h68.05v0"/>
		<path class="st1" d="M-560.43,27.71h-21.1c-4.91,0-8.88,3.98-8.88,8.88v0c0,4.91,3.98,8.88,8.88,8.88h19.4h1.7
			c4.91,0,8.88-3.98,8.88-8.88v0C-551.55,31.69-555.53,27.71-560.43,27.71z"/>
		<path class="st1" d="M-559.79,45.48h-21.1c-4.91,0-8.88,3.98-8.88,8.88v0c0,4.91,3.98,8.88,8.88,8.88h19.4h1.7
			c4.91,0,8.88-3.98,8.88-8.88v0C-550.91,49.45-554.89,45.48-559.79,45.48z"/>
		<path class="st1" d="M-559.79,63.24h-21.1c-4.91,0-8.88,3.98-8.88,8.88v0c0,4.91,3.98,8.88,8.88,8.88h19.4h1.7
			c4.91,0,8.88-3.98,8.88-8.88v0C-550.91,67.22-554.89,63.24-559.79,63.24z"/>
	</g>
	<path class="st1" d="M-546.35,11.83l-11.69,23.48c-2.15,4.41-0.32,9.73,4.09,11.88l0,0c4.41,2.15,9.73,0.32,11.88-4.09l8.54-17.14"
		/>
</g>
<g>
	<ellipse class="st2" cx="-364.61" cy="51.06" rx="28.07" ry="18.08"/>
	<g>
		<path class="st1" d="M-345.25,46.32V31.69c0-3.72,3.01-6.73,6.73-6.73l0,0c3.72,0,6.73,3.01,6.73,6.73v22.75
			c0,18.59-15.07,33.66-33.66,33.66h0c-18.59,0-33.66-15.07-33.66-33.66V31.33h0c7.43,0,13.45,6.02,13.45,13.45v8.75l0,0
			c7.42,0,13.44,6.02,13.44,13.44v0.83"/>
		<path class="st1" d="M-345.32,46.32V13.55c0-3.72-3.01-6.73-6.73-6.73h0c-3.72,0-6.73,3.01-6.73,6.73V38.7"/>
		<path class="st1" d="M-358.77,42.5V6.73c0-3.72-3.01-6.73-6.73-6.73l0,0c-3.72,0-6.73,3.01-6.73,6.73v25.15"/>
		<path class="st1" d="M-372.23,41.71V11.94c0-3.72-3.01-6.73-6.73-6.73l0,0c-3.72,0-6.73,3.01-6.73,6.73v37.79"/>
	</g>
</g>
<g>
	<line class="st0" x1="-179.34" y1="-168.3" x2="-102.78" y2="-187.28"/>
	<circle class="st1" cx="-179.34" cy="-168.3" r="25.98"/>
	<line class="st0" x1="-25.98" y1="-168.28" x2="-102.53" y2="-187.26"/>
	<circle class="st1" cx="-25.98" cy="-168.3" r="25.98"/>
	<circle class="st1" cx="-102.78" cy="-187.28" r="25.98"/>
</g>
<g>
	<circle class="st0" cx="43.19" cy="42.5" r="35.6"/>
	<g>
		<circle class="st3" cx="29.43" cy="35.46" r="1.69"/>
		<circle class="st3" cx="56.96" cy="35.46" r="1.69"/>
	</g>
	<path class="st0" d="M30.7,50.46c6.9,6.9,18.07,6.9,24.98,0"/>
</g>
<g>
	<line class="st0" x1="282.75" y1="6.57" x2="282.75" y2="78.42"/>
	<line class="st0" x1="212.44" y1="42.5" x2="161.52" y2="42.5"/>
	<line class="st0" x1="322.36" y1="42.5" x2="271.44" y2="42.5"/>
	<rect x="193.04" y="23.24" class="st1" width="89.71" height="38.51"/>
	<line class="st0" x1="320.74" y1="26.74" x2="320.74" y2="58.26"/>
	<line class="st0" x1="234.26" y1="23.99" x2="234.26" y2="38.94"/>
	<line class="st0" x1="247.89" y1="25.2" x2="247.89" y2="46.62"/>
</g>
<circle class="st1" cx="2887.32" cy="45.81" r="35.26"/>
<g>
	<rect x="412.18" y="-0.35" class="st1" width="70.6" height="50.69"/>
	<line class="st1" x1="412.18" y1="-8.08" x2="412.18" y2="81.31"/>
	<rect x="412.18" y="24.99" class="st1" width="70.6" height="25.35"/>
	<rect x="412.18" y="-0.35" class="st1" width="25.35" height="25.35"/>
</g>
<g transform="translate(0,-952.36218)">
	<path class="st1" d="M621.12,1020.85c0,18.4,13.01,33.32,29.05,33.32c16.03,0,29.05-14.92,29.05-33.32s-13.96-38.93-29.05-56.24
		C650.17,964.61,621.12,997.62,621.12,1020.85z"/>
</g>
<g>
	<polyline class="st1" points="798.1,42.92 842.84,-1.82 887.57,42.92 	"/>
	<path class="st1" d="M842.84,35.16"/>
	<polygon class="st1" points="873.13,86.81 812.55,86.81 812.55,28.5 842.84,-1.82 873.13,28.5 	"/>
	<polyline class="st0" points="829.72,86.81 829.72,51.46 855.96,51.46 855.96,86.81 	"/>
</g>
<g>
	<circle class="st1" cx="2283.09" cy="48.04" r="35.29"/>
	<polyline class="st1" points="2269.53,47.66 2277.71,57.47 2296.65,38.62 	"/>
</g>
<g>
	<g>
		<g>
			<rect x="1023.63" y="17.24" class="st0" width="69.54" height="69.54"/>
			<g>
				<line class="st1" x1="1038.54" y1="6.45" x2="1038.54" y2="28.04"/>
				<line class="st1" x1="1078.25" y1="6.45" x2="1078.25" y2="28.04"/>
			</g>
		</g>
		<line class="st1" x1="1023.63" y1="39.95" x2="1093.17" y2="39.95"/>
	</g>
	<g>
		<path class="st4" d="M1059,52.19v4.07l-6.81,5.54v0.42h0.91c3.4,0,6.46,2.35,6.46,6.81c0,4.98-3.79,8.21-9.26,8.21
			c-5.86,0-9.4-3.47-9.4-8.35v-0.98h4.63v0.84c0,2.39,1.65,4.35,4.77,4.35c2.91,0,4.63-1.72,4.63-4.07c0-2.35-1.65-3.51-4-3.51
			h-4.28v-4.14l6.07-4.98h-11.12v-4.21H1059z"/>
		<path class="st4" d="M1074.37,52.19v24.56h-4.63V57.11h-0.42l-3.44,6.18h-4.84l6.32-11.09H1074.37z"/>
	</g>
</g>
<g>
	<g>
		<circle class="st1" cx="1260.73" cy="51.97" r="34.11"/>
		<g>
			<path class="st1" d="M1255.25,18.61c-15.63,19.6-15.53,47.58,0.29,67.07"/>
			<path class="st1" d="M1267.14,18.61c15.48,19.42,15.53,47.05,0.16,66.52"/>
		</g>
		<line class="st1" x1="1226.62" y1="51.97" x2="1294.84" y2="51.97"/>
		<line class="st1" x1="1261.2" y1="18.06" x2="1261.2" y2="85.88"/>
	</g>
</g>
<g>
	<circle class="st1" cx="1453.2" cy="29.11" r="22.82"/>
	<line class="st1" x1="1453.2" y1="51.93" x2="1453.2" y2="95.27"/>
	<line class="st1" x1="1435.1" y1="71.12" x2="1471.3" y2="71.12"/>
</g>
<g>
	<circle class="st1" cx="1665.67" cy="38.87" r="22.82"/>
	<line class="st1" x1="1681.89" y1="22.18" x2="1721.52" y2="-17.45"/>
	<polyline class="st0" points="1695.1,-17.45 1721.52,-17.45 1721.52,8.97 	"/>
</g>
<path class="st1" d="M1919.45,55.39V43.34l-36.59-13.14l0.48-18.57c0.09-2.9-1.09-5.69-3.23-7.65v0c-3.79-3.47-9.61-3.48-13.41-0.01
	l-0.01,0.01c-2.15,1.96-3.34,4.76-3.24,7.66l0.48,18.55l-33.67,12.17v12.04l34.33-6.35l1.48,23.62l-12.3,10.06v8.46l20.03-9.74
	l20.03,9.74v-8.46l-13.09-10.58l1.45-22.86L1919.45,55.39z"/>
<g>
	<g>
		<g>
			<g>
				<g>
					<g>
						<rect x="3263.69" y="26.75" class="st2" width="79.95" height="61.47"/>
						<rect x="3263.69" y="26.75" class="st0" width="79.95" height="61.47"/>
					</g>
				</g>
			</g>
		</g>
		<path class="st1" d="M3322.78,76.03h-38.24c-4.08,0-7.39-3.31-7.39-7.39V46.33c0-4.08,3.31-7.39,7.39-7.39h38.24
			c4.08,0,7.39,3.31,7.39,7.39v22.31C3330.18,72.72,3326.87,76.03,3322.78,76.03z"/>
		<g>
			<line class="st1" x1="3278.08" y1="0.3" x2="3304.25" y2="26.47"/>
			<line class="st1" x1="3329.25" y1="0.3" x2="3303.08" y2="26.47"/>
		</g>
	</g>
</g>
<g>
	<polygon class="st1" points="2111.42,90.68 2046.53,90.68 2046.53,2.55 2089.43,2.55 2100.42,13.55 2111.42,24.55 	"/>
	<polyline class="st1" points="2089.43,2.55 2089.43,24.09 2111.42,24.09 	"/>
</g>
<g>
	
		<rect x="2671.26" y="30.97" transform="matrix(-1.836970e-16 1 -1 -1.836970e-16 2730.3333 -2624.5698)" class="st1" width="12.39" height="43.82"/>
	<rect x="2654.32" y="2.25" class="st1" width="12.39" height="88.26"/>
	<rect x="2692.73" y="46.69" class="st1" width="12.39" height="43.82"/>
</g>
<g>
	<g>
		<polygon class="st1" points="2519.73,88.1 2454.67,88.1 2454.67,-0.25 2497.68,-0.25 2508.71,10.78 2519.73,21.8 		"/>
		<polyline class="st1" points="2497.68,-0.25 2497.68,21.34 2519.73,21.34 		"/>
	</g>
	<line class="st1" x1="2470.37" y1="41.57" x2="2502.38" y2="41.57"/>
	<line class="st1" x1="2470.1" y1="54.81" x2="2502.1" y2="54.81"/>
	<line class="st1" x1="2470.1" y1="68.06" x2="2502.1" y2="68.06"/>
</g>
<g>
	<g>
		<path class="st4" d="M2897.34,50.89v0.37c0,4.38-3.02,7.11-7.37,7.77v3.94h-4.42v-3.9c-5.08-0.7-8.25-3.98-8.25-9.28v-0.81h4.86
			v0.59c0,2.39,1.07,4.13,3.39,4.79v-7c-4.68-1.14-7.29-3.13-7.29-7.37v-0.22c0-4.02,3.09-6.67,7.29-7.26v-3.87h4.42v4.01
			c4.16,0.81,7,3.65,7,7.92v1.11h-4.86v-0.74c0-1.84-0.77-2.95-2.14-3.54v6.15C2894.72,44.7,2897.34,46.69,2897.34,50.89z
			 M2885.55,42.57v-5.38c-1.47,0.44-2.36,1.44-2.36,2.65C2883.19,41.35,2884.11,42.05,2885.55,42.57z M2892.4,51.26
			c0-1.47-0.85-2.28-2.43-2.84v5.93C2891.59,53.8,2892.4,52.59,2892.4,51.26z"/>
	</g>
</g>
<g>
	<circle class="st5" cx="5728.5" cy="-214.24" r="35.69"/>
	<g>
		<circle class="st6" cx="5714.7" cy="-221.3" r="1.7"/>
		<circle class="st6" cx="5742.3" cy="-221.3" r="1.7"/>
	</g>
	<path class="st7" d="M5715.98-206.26c6.92,6.92,18.12,6.92,25.04,0"/>
</g>
<g>
	<circle class="st5" cx="5792.36" cy="-214.24" r="35.69"/>
	<g>
		<circle class="st6" cx="5778.56" cy="-221.3" r="1.7"/>
		<circle class="st6" cx="5806.16" cy="-221.3" r="1.7"/>
	</g>
	<path class="st7" d="M5779.84-206.26c6.92,6.92,18.12,6.92,25.04,0"/>
</g>
<g>
	<circle class="st5" cx="5856.22" cy="-214.24" r="35.69"/>
	<g>
		<circle class="st6" cx="5842.42" cy="-221.3" r="1.7"/>
		<circle class="st6" cx="5870.02" cy="-221.3" r="1.7"/>
	</g>
	<path class="st7" d="M5843.7-206.26c6.92,6.92,18.12,6.92,25.04,0"/>
</g>
<polygon class="st1" points="3107.46,65.38 3125.42,83.01 3125.42,65.38 3143.06,65.38 3125.42,47.42 3143.06,29.45 3125.42,29.45 
	3125.42,11.82 3107.46,29.45 3089.5,11.82 3089.5,29.45 3071.86,29.45 3089.5,47.42 3071.86,65.38 3089.5,65.38 3089.5,83.01 "/>
<path class="st0" d="M6147.46,23.14c-19.42-11.08-39.69,1.39-38.74,22.03c1.04,22.68,19.59,51.75,37.54,44.64
	c2.43-0.97,5.14-0.97,7.57,0c17.95,7.11,36.5-21.97,37.54-44.64c0.95-20.59-19.24-33.06-38.63-22.09L6147.46,23.14z"/>
<path class="st0" d="M6157.15,1.86c-8.08,8.08-9.27,20.42-3.57,29.75"/>
<path class="st0" d="M6362.57,5.87c-15.65,1.49-19.56,16.36-22.4,32.85c-0.54,3.15-2.3,6.02-4.34,9.34
	c-3.7,6.02-8.29,13.51-5.89,25.26c1.08,5.52,4.51,10.3,9.39,13.1c6.38,3.78,15.19,4.62,22.99,2.21c1.59-0.51,3.3-0.44,4.84,0.2
	c3.02,1.27,6.28,1.91,9.56,1.88c3.96,0.01,7.88-0.85,11.47-2.52c6.07-2.82,10.57-8.21,12.26-14.69c3.27-11.72-1.68-19.37-5.65-25.52
	c-2.06-3.18-4-6.18-4.53-9.27c-2.83-16.42-6.72-31.25-22.22-32.84L6362.57,5.87z"/>
<path class="st0" d="M6371.33-11.01c-8.32,8.32-10.13,20.68-5.43,30.75"/>
<g>
	<rect x="4887.01" y="10.79" class="st1" width="99.16" height="71.2"/>
	<rect x="4887.01" y="46.38" class="st8" width="99.16" height="35.6"/>
	<rect x="4887.01" y="10.79" class="st9" width="35.6" height="35.6"/>
</g>
<polygon class="st1" points="5976.59,83.49 5925.55,91.17 5925.55,2.3 5976.59,-5.39 "/>
<rect x="5925.55" y="3.26" class="st1" width="63.23" height="88.87"/>
<g>
	<polygon class="st0" points="5324.46,97.03 5324.46,108.19 5313.3,97.03 5293.38,97.03 5293.38,6.74 5389.45,6.74 5389.45,97.03 	
		"/>
</g>
<g>
	<g>
		<circle class="st0" cx="5116.18" cy="34.15" r="20.4"/>
		<line class="st0" x1="5131.23" y1="49.2" x2="5138.96" y2="56.93"/>
	</g>
	
		<rect x="5145" y="51.84" transform="matrix(0.7071 -0.7071 0.7071 0.7071 1459.9459 3662.1711)" class="st0" width="11.21" height="33.86"/>
</g>
<g>
	<path class="st0" d="M4731.54,39.9c-0.63,4.55-2.69,8.93-6.18,12.43c-8.52,8.52-22.33,8.52-30.85,0c-8.52-8.52-8.52-22.33,0-30.85
		c8.52-8.52,22.33-8.52,30.85,0C4730.38,26.5,4732.44,33.37,4731.54,39.9"/>
	<polyline class="st0" points="4732.54,39.74 4765.79,77.97 4752.32,91.44 4714.08,58.2 	"/>
	<line class="st0" x1="4758.53" y1="85.24" x2="4776.82" y2="103.53"/>
	<line class="st0" x1="4694.5" y1="52.33" x2="4724.56" y2="22.27"/>
</g>
<g>
	<rect x="5516.29" y="2.06" class="st0" width="65.29" height="88.66"/>
	<g>
		<polyline class="st0" points="5528.78,25.05 5534.66,29.35 5542.06,17.63 		"/>
		<polyline class="st0" points="5555.8,48.7 5561.68,53 5569.08,41.29 		"/>
		<g>
			<line class="st0" x1="5568.86" y1="18.81" x2="5556.03" y2="31.64"/>
			<line class="st0" x1="5556.03" y1="18.81" x2="5568.86" y2="31.64"/>
		</g>
		<g>
			<line class="st0" x1="5541.83" y1="62.31" x2="5529" y2="75.13"/>
			<line class="st0" x1="5529" y1="62.31" x2="5541.83" y2="75.13"/>
		</g>
		<line class="st0" x1="5529.57" y1="47.14" x2="5541.26" y2="47.14"/>
		<line class="st0" x1="5556.6" y1="68.72" x2="5568.29" y2="68.72"/>
	</g>
</g>
<polygon class="st0" points="4528.35,13.63 4539.92,37.07 4565.78,40.83 4547.07,59.07 4551.49,84.83 4528.35,72.67 4505.22,84.83 
	4509.64,59.07 4490.92,40.83 4516.79,37.07 "/>
<g>
	<rect x="4266.17" y="21.62" class="st0" width="116.13" height="71.69"/>
	<polyline class="st0" points="4266.28,21.62 4325.05,57.47 4382.2,21.62 	"/>
</g>
<g>
	<g>
		<polygon class="st0" points="4109.58,93.16 4044.17,93.16 4044.17,4.35 4087.41,4.35 4098.49,15.43 4109.58,26.51 		"/>
		<polyline class="st0" points="4087.41,4.35 4087.41,26.05 4109.58,26.05 		"/>
	</g>
	<line class="st0" x1="4059.95" y1="46.38" x2="4092.13" y2="46.38"/>
	<line class="st10" x1="4059.68" y1="59.7" x2="4091.85" y2="59.7"/>
	<line class="st10" x1="4059.68" y1="73.01" x2="4091.85" y2="73.01"/>
</g>
<g>
	<g>
		<polygon class="st0" points="4196.08,93.16 4130.67,93.16 4130.67,4.35 4173.91,4.35 4184.99,15.43 4196.08,26.51 		"/>
		<polyline class="st0" points="4173.91,4.35 4173.91,26.05 4196.08,26.05 		"/>
	</g>
	<line class="st0" x1="4146.45" y1="46.38" x2="4178.63" y2="46.38"/>
	<line class="st10" x1="4146.18" y1="59.7" x2="4178.35" y2="59.7"/>
	<line class="st10" x1="4146.18" y1="73.01" x2="4178.35" y2="73.01"/>
</g>
<polyline class="st0" points="4148.27,24.12 4154.16,28.42 4161.58,16.69 "/>
<g>
	<line class="st0" x1="4073.5" y1="16.13" x2="4060.65" y2="28.98"/>
	<line class="st0" x1="4060.65" y1="16.13" x2="4073.5" y2="28.98"/>
</g>
<g>
	<g>
		<g>
			<polygon class="st0" points="3878.12,83.33 3942.53,83.33 3942.53,-5.46 3899.95,-5.46 3889.04,5.62 3878.12,16.7 			"/>
			<polyline class="st0" points="3899.95,-5.46 3899.95,16.24 3878.12,16.24 			"/>
		</g>
	</g>
</g>
<g>
	<g>
		<circle class="st1" cx="3931.11" cy="31.57" r="20.88"/>
		<line class="st1" x1="3946.51" y1="46.97" x2="3954.43" y2="54.89"/>
	</g>
	
		<rect x="3960.61" y="49.68" transform="matrix(0.7071 -0.7071 0.7071 0.7071 1114.3297 2824.2627)" class="st1" width="11.48" height="34.67"/>
</g>
<g>
	<path class="st0" d="M3770.29,49.52c0,0-17.48,41.31-58.39,41.31s-58.39-41.31-58.39-41.31v-0.77c0,0,12.46-21.34,25.4-27.36
		s32.99,4.23,32.99,4.23l0,0c0,0,19.92-10.25,32.87-4.23c12.94,6.02,25.4,27.36,25.4,27.36L3770.29,49.52z"/>
	<path class="st0" d="M3653.5,48.75c0,0,48.67,12.89,116.79,0.77"/>
</g>
<g>
	<path class="st0" d="M3552.57,53.75c0,0-17.47,35.88-58.34,35.88c-40.87,0-58.34-35.88-58.34-35.88s17.47-35.88,58.34-35.88
		C3535.1,17.87,3552.57,53.75,3552.57,53.75z"/>
	<circle class="st0" cx="3494.23" cy="52.77" r="17.39"/>
</g>
<g>
	<circle class="st5" cx="6569.51" cy="51.33" r="35.69"/>
	<g>
		<circle class="st6" cx="6555.7" cy="44.27" r="1.7"/>
		<circle class="st6" cx="6583.31" cy="44.27" r="1.7"/>
	</g>
	<path class="st7" d="M6556.99,59.31c6.92,6.92,18.12,6.92,25.04,0"/>
</g>
<g>
	<circle class="st1" cx="6781.03" cy="26.38" r="22.82"/>
	<line class="st1" x1="6781.03" y1="49.2" x2="6781.03" y2="92.53"/>
	<line class="st1" x1="6762.93" y1="68.38" x2="6799.13" y2="68.38"/>
</g>
<g>
	<circle class="st1" cx="6958.88" cy="68.09" r="22.82"/>
	<line class="st1" x1="6975.1" y1="51.4" x2="7014.73" y2="11.76"/>
	<polyline class="st0" points="6988.31,11.76 7014.73,11.76 7014.73,38.18 	"/>
</g>
</svg>
