<?xml version="1.0" encoding="utf-8"?>
<!-- Generator: Adobe Illustrator 24.2.0, SVG Export Plug-In . SVG Version: 6.00 Build 0)  -->
<svg version="1.1" id="Capa_1" xmlns="http://www.w3.org/2000/svg" xmlns:xlink="http://www.w3.org/1999/xlink" x="0px" y="0px"
	 viewBox="0 0 101.25 103.58" style="enable-background:new 0 0 101.25 103.58;" xml:space="preserve">
<style type="text/css">
	.st0{fill:none;stroke:#000000;stroke-width:6.5;stroke-miterlimit:10;}
	.st1{fill:#FFFFFF;stroke:#000000;stroke-width:6.5;stroke-miterlimit:10;}
	.st2{fill:#FFFFFF;}
	.st3{stroke:#000000;stroke-width:6.5;stroke-miterlimit:10;}
	.st4{fill:#1D1D1B;}
	.st5{fill:#FFFFFF;stroke:#1D1D1B;stroke-width:6.5;stroke-miterlimit:10;}
	.st6{fill:#1D1D1B;stroke:#1D1D1B;stroke-width:6.5;stroke-miterlimit:10;}
	.st7{fill:none;stroke:#1D1D1B;stroke-width:6.5;stroke-miterlimit:10;}
	.st8{fill:#FC5439;stroke:#000000;stroke-width:6.5;stroke-miterlimit:10;}
	.st9{fill:#3A90FD;stroke:#000000;stroke-width:6.5;stroke-miterlimit:10;}
	.st10{fill:#F1CD08;stroke:#000000;stroke-width:6.5;stroke-miterlimit:10;}
</style>
<g>
	<path class="st0" d="M-1600.9,93.73V19.39c0-4.23,3.43-7.65,7.65-7.65h54.6v77.9"/>
	<path class="st0" d="M-1577.34,100.48h38.68V86.99h-55.51c-3.72,0-6.74,3.02-6.74,6.74v0c0,3.72,3.02,6.74,6.74,6.74h1.52"/>
	<rect x="-1583.24" y="32.51" class="st0" width="26.92" height="15.7"/>
	<polygon class="st0" points="-1579.52,113.63 -1584.78,118.93 -1590.04,113.63 -1590.04,96.67 -1579.52,96.67 	"/>
</g>
<polygon class="st0" points="-1931.61,56.36 -1967.28,20.68 -1967.28,36.19 -2024.41,36.19 -2024.41,77.92 -1967.28,77.92 
	-1967.28,92.03 "/>
<g>
	<polyline class="st0" points="-1758.68,29.74 -1735.04,29.74 -1735.04,100.94 -1811.9,100.94 -1811.9,29.74 -1781.77,29.74 	"/>
	<polygon class="st0" points="-1776.41,41.55 -1784.99,32.97 -1763.8,11.77 -1752.26,23.32 -1770.49,41.55 	"/>
	<polyline class="st0" points="-1786.36,41.55 -1776.41,41.55 -1770.49,41.55 -1760.57,41.55 	"/>
</g>
<g>
	<polygon class="st0" points="-2146.83,2.06 -2222.85,53.61 -2230.58,73.02 -2209.69,73.02 -2133.67,21.46 	"/>
	<line class="st0" x1="-2222.85" y1="53.61" x2="-2209.69" y2="73.02"/>
</g>
<g>
	<g>
		<path class="st1" d="M-1361.02,89.31h24.01c19.62,0,35.53-15.91,35.53-35.53v0c0-19.62-15.91-35.53-35.53-35.53l-3.72,0h-78.89
			c-4.91,0-8.88,3.98-8.88,8.88v0c0,4.91,3.98,8.88,8.88,8.88h68.05v0"/>
		<path class="st1" d="M-1351.57,36.02h-21.1c-4.91,0-8.88,3.98-8.88,8.88v0c0,4.91,3.98,8.88,8.88,8.88h19.4h1.7
			c4.91,0,8.88-3.98,8.88-8.88v0C-1342.69,40-1346.67,36.02-1351.57,36.02z"/>
		<path class="st1" d="M-1350.94,53.79h-21.1c-4.91,0-8.88,3.98-8.88,8.88v0c0,4.91,3.98,8.88,8.88,8.88h19.4h1.7
			c4.91,0,8.88-3.98,8.88-8.88v0C-1342.05,57.76-1346.03,53.79-1350.94,53.79z"/>
		<path class="st1" d="M-1350.94,71.55h-21.1c-4.91,0-8.88,3.98-8.88,8.88v0c0,4.91,3.98,8.88,8.88,8.88h19.4h1.7
			c4.91,0,8.88-3.98,8.88-8.88v0C-1342.05,75.53-1346.03,71.55-1350.94,71.55z"/>
	</g>
	<path class="st1" d="M-1337.49,20.14l-11.69,23.48c-2.15,4.41-0.32,9.73,4.09,11.88v0c4.41,2.15,9.73,0.32,11.88-4.09l8.54-17.14"
		/>
</g>
<g>
	<ellipse class="st2" cx="-1155.76" cy="59.37" rx="28.07" ry="18.08"/>
	<g>
		<path class="st1" d="M-1136.39,54.63V40c0-3.72,3.01-6.73,6.73-6.73l0,0c3.72,0,6.73,3.01,6.73,6.73v22.75
			c0,18.59-15.07,33.66-33.66,33.66h0c-18.59,0-33.66-15.07-33.66-33.66V39.64l0,0c7.43,0,13.45,6.02,13.45,13.45v8.75h0
			c7.42,0,13.44,6.02,13.44,13.44v0.83"/>
		<path class="st1" d="M-1136.46,54.63V21.86c0-3.72-3.01-6.73-6.73-6.73l0,0c-3.72,0-6.73,3.01-6.73,6.73v25.15"/>
		<path class="st1" d="M-1149.91,50.81V15.04c0-3.72-3.01-6.73-6.73-6.73l0,0c-3.72,0-6.73,3.01-6.73,6.73v25.15"/>
		<path class="st1" d="M-1163.37,50.02V20.25c0-3.72-3.01-6.73-6.73-6.73l0,0c-3.72,0-6.73,3.01-6.73,6.73v37.79"/>
	</g>
</g>
<g>
	<line class="st0" x1="-970.48" y1="-159.99" x2="-893.92" y2="-178.97"/>
	<circle class="st1" cx="-970.48" cy="-159.99" r="25.98"/>
	<line class="st0" x1="-817.12" y1="-159.97" x2="-893.67" y2="-178.95"/>
	<circle class="st1" cx="-817.12" cy="-159.99" r="25.98"/>
	<circle class="st1" cx="-893.92" cy="-178.97" r="25.98"/>
</g>
<g>
	<circle class="st0" cx="-747.95" cy="50.81" r="35.6"/>
	<g>
		<circle class="st3" cx="-761.72" cy="43.77" r="1.69"/>
		<circle class="st3" cx="-734.18" cy="43.77" r="1.69"/>
	</g>
	<path class="st0" d="M-760.44,58.77c6.9,6.9,18.07,6.9,24.98,0"/>
</g>
<g>
	<line class="st0" x1="-515.14" y1="18.16" x2="-515.14" y2="90.02"/>
	<line class="st0" x1="-585.45" y1="54.09" x2="-636.37" y2="54.09"/>
	<line class="st0" x1="-475.53" y1="54.09" x2="-526.45" y2="54.09"/>
	<rect x="-604.85" y="34.83" class="st1" width="89.71" height="38.51"/>
	<line class="st0" x1="-477.15" y1="38.33" x2="-477.15" y2="69.85"/>
	<line class="st0" x1="-563.63" y1="35.58" x2="-563.63" y2="50.53"/>
	<line class="st0" x1="-550" y1="36.79" x2="-550" y2="58.21"/>
</g>
<circle class="st1" cx="2096.18" cy="54.12" r="35.26"/>
<g>
	<rect x="-378.96" y="7.96" class="st1" width="70.6" height="50.69"/>
	<line class="st1" x1="-378.96" y1="0.23" x2="-378.96" y2="89.62"/>
	<rect x="-378.96" y="33.3" class="st1" width="70.6" height="25.35"/>
	<rect x="-378.96" y="7.96" class="st1" width="25.35" height="25.35"/>
</g>
<g transform="translate(0,-952.36218)">
	<path class="st1" d="M-170.02,1029.16c0,18.4,13.01,33.32,29.05,33.32s29.05-14.92,29.05-33.32c0-18.4-13.96-38.93-29.05-56.24
		C-140.97,972.92-170.02,1005.94-170.02,1029.16z"/>
</g>
<g>
	<polyline class="st1" points="6.96,51.23 51.7,6.49 96.43,51.23 	"/>
	<path class="st1" d="M51.7,43.47"/>
	<polygon class="st1" points="81.99,95.13 21.41,95.13 21.41,36.81 51.7,6.49 81.99,36.81 	"/>
	<polyline class="st0" points="38.58,95.13 38.58,59.77 64.82,59.77 64.82,95.13 	"/>
</g>
<g>
	<circle class="st1" cx="1491.95" cy="56.35" r="35.29"/>
	<polyline class="st1" points="1478.39,55.97 1486.57,65.78 1505.51,46.93 	"/>
</g>
<g>
	<g>
		<g>
			<rect x="232.49" y="25.55" class="st0" width="69.54" height="69.54"/>
			<g>
				<line class="st1" x1="247.4" y1="14.76" x2="247.4" y2="36.35"/>
				<line class="st1" x1="287.11" y1="14.76" x2="287.11" y2="36.35"/>
			</g>
		</g>
		<line class="st1" x1="232.49" y1="48.26" x2="302.03" y2="48.26"/>
	</g>
	<g>
		<path class="st4" d="M267.86,60.5v4.07l-6.81,5.54v0.42h0.91c3.4,0,6.46,2.35,6.46,6.81c0,4.98-3.79,8.21-9.26,8.21
			c-5.86,0-9.4-3.47-9.4-8.35v-0.98h4.63v0.84c0,2.39,1.65,4.35,4.77,4.35c2.91,0,4.63-1.72,4.63-4.07s-1.65-3.51-4-3.51h-4.28V69.7
			l6.07-4.98h-11.12V60.5H267.86z"/>
		<path class="st4" d="M283.23,60.5v24.56h-4.63V65.42h-0.42l-3.44,6.18h-4.84l6.32-11.09H283.23z"/>
	</g>
</g>
<g>
	<g>
		<circle class="st1" cx="469.59" cy="60.28" r="34.11"/>
		<g>
			<path class="st1" d="M464.11,26.92c-15.63,19.6-15.53,47.58,0.29,67.07"/>
			<path class="st1" d="M476,26.92c15.48,19.42,15.53,47.05,0.16,66.52"/>
		</g>
		<line class="st1" x1="435.48" y1="60.28" x2="503.7" y2="60.28"/>
		<line class="st1" x1="470.06" y1="26.37" x2="470.06" y2="94.19"/>
	</g>
</g>
<g>
	<circle class="st1" cx="662.06" cy="37.42" r="22.82"/>
	<line class="st1" x1="662.06" y1="60.24" x2="662.06" y2="103.58"/>
	<line class="st1" x1="643.96" y1="79.43" x2="680.16" y2="79.43"/>
</g>
<g>
	<circle class="st1" cx="874.53" cy="47.18" r="22.82"/>
	<line class="st1" x1="890.75" y1="30.49" x2="930.38" y2="-9.14"/>
	<polyline class="st0" points="903.96,-9.14 930.38,-9.14 930.38,17.28 	"/>
</g>
<path class="st1" d="M1128.31,63.7V51.66l-36.59-13.14l0.48-18.57c0.09-2.9-1.09-5.69-3.23-7.65v0c-3.79-3.47-9.61-3.48-13.41-0.01
	l-0.01,0.01c-2.15,1.96-3.34,4.76-3.24,7.66l0.48,18.55l-33.67,12.17v12.04l34.33-6.35l1.48,23.62l-12.3,10.06v8.46l20.03-9.74
	l20.03,9.74v-8.46l-13.09-10.58l1.45-22.86L1128.31,63.7z"/>
<g>
	<g>
		<g>
			<g>
				<g>
					<g>
						<rect x="2472.55" y="35.06" class="st2" width="79.95" height="61.47"/>
						<rect x="2472.55" y="35.06" class="st0" width="79.95" height="61.47"/>
					</g>
				</g>
			</g>
		</g>
		<path class="st1" d="M2531.64,84.34h-38.24c-4.08,0-7.39-3.31-7.39-7.39V54.64c0-4.08,3.31-7.39,7.39-7.39h38.24
			c4.08,0,7.39,3.31,7.39,7.39v22.31C2539.04,81.03,2535.73,84.34,2531.64,84.34z"/>
		<g>
			<line class="st1" x1="2486.94" y1="8.61" x2="2513.11" y2="34.78"/>
			<line class="st1" x1="2538.11" y1="8.61" x2="2511.94" y2="34.78"/>
		</g>
	</g>
</g>
<g>
	<polygon class="st1" points="1320.28,98.99 1255.39,98.99 1255.39,10.87 1298.29,10.87 1309.28,21.86 1320.28,32.86 	"/>
	<polyline class="st1" points="1298.29,10.87 1298.29,32.4 1320.28,32.4 	"/>
</g>
<g>
	
		<rect x="1880.11" y="39.28" transform="matrix(-1.836970e-16 1 -1 -1.836970e-16 1947.5033 -1825.118)" class="st1" width="12.39" height="43.82"/>
	<rect x="1863.18" y="10.57" class="st1" width="12.39" height="88.26"/>
	<rect x="1901.59" y="55" class="st1" width="12.39" height="43.82"/>
</g>
<g>
	<g>
		<polygon class="st1" points="1728.59,96.41 1663.53,96.41 1663.53,8.06 1706.54,8.06 1717.57,19.09 1728.59,30.11 		"/>
		<polyline class="st1" points="1706.54,8.06 1706.54,29.65 1728.59,29.65 		"/>
	</g>
	<line class="st1" x1="1679.23" y1="49.88" x2="1711.24" y2="49.88"/>
	<line class="st1" x1="1678.96" y1="63.12" x2="1710.96" y2="63.12"/>
	<line class="st1" x1="1678.96" y1="76.37" x2="1710.96" y2="76.37"/>
</g>
<g>
	<g>
		<path class="st4" d="M2106.19,59.2v0.37c0,4.38-3.02,7.11-7.37,7.77v3.94h-4.42v-3.9c-5.08-0.7-8.25-3.98-8.25-9.28v-0.81h4.86
			v0.59c0,2.39,1.07,4.13,3.39,4.79v-7c-4.68-1.14-7.29-3.13-7.29-7.37v-0.22c0-4.02,3.09-6.67,7.29-7.26v-3.87h4.42v4.01
			c4.16,0.81,7,3.65,7,7.92v1.11h-4.86v-0.74c0-1.84-0.77-2.95-2.14-3.54v6.15C2103.58,53.02,2106.19,55,2106.19,59.2z
			 M2094.41,50.88V45.5c-1.47,0.44-2.36,1.44-2.36,2.65C2092.05,49.66,2092.97,50.36,2094.41,50.88z M2101.26,59.57
			c0-1.47-0.85-2.28-2.43-2.84v5.93C2100.45,62.11,2101.26,60.9,2101.26,59.57z"/>
	</g>
</g>
<g>
	<circle class="st5" cx="4937.36" cy="-205.93" r="35.69"/>
	<g>
		<circle class="st6" cx="4923.56" cy="-212.99" r="1.7"/>
		<circle class="st6" cx="4951.16" cy="-212.99" r="1.7"/>
	</g>
	<path class="st7" d="M4924.84-197.95c6.92,6.92,18.12,6.92,25.04,0"/>
</g>
<g>
	<circle class="st5" cx="5001.22" cy="-205.93" r="35.69"/>
	<g>
		<circle class="st6" cx="4987.42" cy="-212.99" r="1.7"/>
		<circle class="st6" cx="5015.02" cy="-212.99" r="1.7"/>
	</g>
	<path class="st7" d="M4988.7-197.95c6.92,6.92,18.12,6.92,25.04,0"/>
</g>
<g>
	<circle class="st5" cx="5065.08" cy="-205.93" r="35.69"/>
	<g>
		<circle class="st6" cx="5051.28" cy="-212.99" r="1.7"/>
		<circle class="st6" cx="5078.88" cy="-212.99" r="1.7"/>
	</g>
	<path class="st7" d="M5052.56-197.95c6.92,6.92,18.12,6.92,25.04,0"/>
</g>
<polygon class="st1" points="2316.32,73.69 2334.28,91.32 2334.28,73.69 2351.92,73.69 2334.28,55.73 2351.92,37.76 2334.28,37.76 
	2334.28,20.13 2316.32,37.76 2298.35,20.13 2298.35,37.76 2280.72,37.76 2298.35,55.73 2280.72,73.69 2298.35,73.69 2298.35,91.32 
	"/>
<path class="st0" d="M5356.32,31.45c-19.42-11.08-39.69,1.39-38.74,22.03c1.05,22.68,19.59,51.75,37.54,44.64
	c2.43-0.97,5.14-0.97,7.57,0c17.95,7.11,36.5-21.97,37.54-44.64c0.95-20.59-19.24-33.06-38.63-22.09L5356.32,31.45z"/>
<path class="st0" d="M5366.01,10.17c-8.08,8.08-9.27,20.42-3.57,29.75"/>
<path class="st0" d="M5571.43,14.18c-15.65,1.49-19.56,16.36-22.4,32.85c-0.54,3.15-2.3,6.02-4.34,9.34
	c-3.7,6.02-8.29,13.51-5.89,25.26c1.08,5.52,4.51,10.3,9.39,13.1c6.38,3.78,15.19,4.62,22.99,2.21c1.59-0.51,3.3-0.44,4.84,0.2
	c3.02,1.27,6.28,1.91,9.56,1.88c3.96,0.01,7.88-0.85,11.47-2.52c6.07-2.82,10.57-8.21,12.26-14.69c3.27-11.72-1.68-19.37-5.65-25.52
	c-2.06-3.18-4-6.18-4.53-9.27c-2.83-16.42-6.72-31.25-22.22-32.84L5571.43,14.18z"/>
<path class="st0" d="M5580.19-2.7c-8.32,8.32-10.13,20.68-5.43,30.75"/>
<g>
	<rect x="4095.86" y="19.1" class="st1" width="99.16" height="71.2"/>
	<rect x="4095.86" y="54.7" class="st8" width="99.16" height="35.6"/>
	<rect x="4095.86" y="19.1" class="st9" width="35.6" height="35.6"/>
</g>
<polygon class="st1" points="5185.45,91.8 5134.41,99.48 5134.41,10.61 5185.45,2.93 "/>
<rect x="5134.41" y="11.57" class="st1" width="63.23" height="88.87"/>
<g>
	<polygon class="st0" points="4533.32,105.34 4533.32,116.5 4522.16,105.34 4502.24,105.34 4502.24,15.06 4598.31,15.06 
		4598.31,105.34 	"/>
</g>
<g>
	<g>
		<circle class="st0" cx="4325.04" cy="42.46" r="20.4"/>
		<line class="st0" x1="4340.09" y1="57.51" x2="4347.82" y2="65.24"/>
	</g>
	
		<rect x="4353.86" y="60.15" transform="matrix(0.7071 -0.7071 0.7071 0.7071 1222.3494 3105.1843)" class="st0" width="11.21" height="33.86"/>
</g>
<g>
	<path class="st0" d="M3940.4,48.21c-0.63,4.55-2.69,8.93-6.18,12.43c-8.52,8.52-22.33,8.52-30.85,0s-8.52-22.33,0-30.85
		s22.33-8.52,30.85,0C3939.24,34.81,3941.3,41.68,3940.4,48.21"/>
	<polyline class="st0" points="3941.4,48.05 3974.65,86.28 3961.18,99.75 3922.94,66.51 	"/>
	<line class="st0" x1="3967.39" y1="93.55" x2="3985.68" y2="111.85"/>
	<line class="st0" x1="3903.36" y1="60.64" x2="3933.42" y2="30.58"/>
</g>
<g>
	<rect x="4725.15" y="10.37" class="st0" width="65.29" height="88.66"/>
	<g>
		<polyline class="st0" points="4737.64,33.36 4743.52,37.66 4750.92,25.95 		"/>
		<polyline class="st0" points="4764.66,57.01 4770.54,61.31 4777.94,49.6 		"/>
		<g>
			<line class="st0" x1="4777.72" y1="27.12" x2="4764.89" y2="39.95"/>
			<line class="st0" x1="4764.89" y1="27.12" x2="4777.72" y2="39.95"/>
		</g>
		<g>
			<line class="st0" x1="4750.69" y1="70.62" x2="4737.86" y2="83.45"/>
			<line class="st0" x1="4737.86" y1="70.62" x2="4750.69" y2="83.45"/>
		</g>
		<line class="st0" x1="4738.43" y1="55.46" x2="4750.12" y2="55.46"/>
		<line class="st0" x1="4765.45" y1="77.03" x2="4777.15" y2="77.03"/>
	</g>
</g>
<polygon class="st0" points="3737.21,21.94 3748.78,45.38 3774.64,49.14 3755.93,67.38 3760.35,93.14 3737.21,80.98 3714.08,93.14 
	3718.5,67.38 3699.78,49.14 3725.65,45.38 "/>
<g>
	<rect x="3475.03" y="29.93" class="st0" width="116.13" height="71.69"/>
	<polyline class="st0" points="3475.14,29.93 3533.91,65.78 3591.06,29.93 	"/>
</g>
<g>
	<g>
		<polygon class="st0" points="3318.44,101.47 3253.03,101.47 3253.03,12.66 3296.27,12.66 3307.35,23.74 3318.44,34.82 		"/>
		<polyline class="st0" points="3296.27,12.66 3296.27,34.36 3318.44,34.36 		"/>
	</g>
	<line class="st0" x1="3268.81" y1="54.7" x2="3300.99" y2="54.7"/>
	<line class="st10" x1="3268.53" y1="68.01" x2="3300.71" y2="68.01"/>
	<line class="st10" x1="3268.53" y1="81.32" x2="3300.71" y2="81.32"/>
</g>
<g>
	<g>
		<polygon class="st0" points="3404.94,101.47 3339.53,101.47 3339.53,12.66 3382.77,12.66 3393.85,23.74 3404.94,34.82 		"/>
		<polyline class="st0" points="3382.77,12.66 3382.77,34.36 3404.94,34.36 		"/>
	</g>
	<line class="st0" x1="3355.31" y1="54.7" x2="3387.49" y2="54.7"/>
	<line class="st10" x1="3355.04" y1="68.01" x2="3387.21" y2="68.01"/>
	<line class="st10" x1="3355.04" y1="81.32" x2="3387.21" y2="81.32"/>
</g>
<polyline class="st0" points="3357.13,32.43 3363.02,36.73 3370.44,25 "/>
<g>
	<line class="st0" x1="3282.36" y1="24.44" x2="3269.5" y2="37.29"/>
	<line class="st0" x1="3269.5" y1="24.44" x2="3282.36" y2="37.29"/>
</g>
<g>
	<g>
		<g>
			<polygon class="st0" points="3086.98,91.64 3151.39,91.64 3151.39,2.85 3108.81,2.85 3097.9,13.94 3086.98,25.02 			"/>
			<polyline class="st0" points="3108.81,2.85 3108.81,24.55 3086.98,24.55 			"/>
		</g>
	</g>
</g>
<g>
	<g>
		<circle class="st1" cx="3139.97" cy="39.88" r="20.88"/>
		<line class="st1" x1="3155.37" y1="55.29" x2="3163.29" y2="63.2"/>
	</g>
	
		<rect x="3169.47" y="57.99" transform="matrix(0.7071 -0.7071 0.7071 0.7071 876.7333 2267.2759)" class="st1" width="11.48" height="34.67"/>
</g>
<g>
	<path class="st0" d="M2979.15,57.83c0,0-17.49,41.31-58.39,41.31s-58.39-41.31-58.39-41.31v-0.77c0,0,12.46-21.34,25.4-27.36
		c12.94-6.02,32.99,4.23,32.99,4.23l0,0c0,0,19.92-10.25,32.87-4.23c12.94,6.02,25.4,27.36,25.4,27.36L2979.15,57.83z"/>
	<path class="st0" d="M2862.36,57.06c0,0,48.67,12.89,116.79,0.77"/>
</g>
<g>
	<path class="st0" d="M2761.43,62.06c0,0-17.47,35.88-58.34,35.88c-40.87,0-58.34-35.88-58.34-35.88s17.47-35.88,58.34-35.88
		C2743.96,26.18,2761.43,62.06,2761.43,62.06z"/>
	<circle class="st0" cx="2703.09" cy="61.08" r="17.39"/>
</g>
<g>
	<circle class="st5" cx="5778.36" cy="59.64" r="35.69"/>
	<g>
		<circle class="st6" cx="5764.56" cy="52.58" r="1.7"/>
		<circle class="st6" cx="5792.17" cy="52.58" r="1.7"/>
	</g>
	<path class="st7" d="M5765.84,67.62c6.92,6.92,18.12,6.92,25.04,0"/>
</g>
<g>
	<circle class="st1" cx="5989.89" cy="34.69" r="22.82"/>
	<line class="st1" x1="5989.89" y1="57.51" x2="5989.89" y2="100.84"/>
	<line class="st1" x1="5971.79" y1="76.69" x2="6007.98" y2="76.69"/>
</g>
<g>
	<circle class="st1" cx="6167.74" cy="76.4" r="22.82"/>
	<line class="st1" x1="6183.96" y1="59.71" x2="6223.59" y2="20.07"/>
	<polyline class="st0" points="6197.17,20.07 6223.59,20.07 6223.59,46.49 	"/>
</g>
</svg>
