<?xml version="1.0" encoding="utf-8"?>
<!-- Generator: Adobe Illustrator 24.2.0, SVG Export Plug-In . SVG Version: 6.00 Build 0)  -->
<svg version="1.1" id="Capa_1" xmlns="http://www.w3.org/2000/svg" xmlns:xlink="http://www.w3.org/1999/xlink" x="0px" y="0px"
	 viewBox="0 0 110.89 116.92" style="enable-background:new 0 0 110.89 116.92;" xml:space="preserve">
<style type="text/css">
	.st0{fill:none;stroke:#000000;stroke-width:6.5;stroke-miterlimit:10;}
	.st1{fill:#FFFFFF;stroke:#000000;stroke-width:6.5;stroke-miterlimit:10;}
	.st2{fill:#FFFFFF;}
	.st3{stroke:#000000;stroke-width:6.5;stroke-miterlimit:10;}
	.st4{fill:#1D1D1B;}
	.st5{fill:#FFFFFF;stroke:#1D1D1B;stroke-width:6.5;stroke-miterlimit:10;}
	.st6{fill:#1D1D1B;stroke:#1D1D1B;stroke-width:6.5;stroke-miterlimit:10;}
	.st7{fill:none;stroke:#1D1D1B;stroke-width:6.5;stroke-miterlimit:10;}
	.st8{fill:#FC5439;stroke:#000000;stroke-width:6.5;stroke-miterlimit:10;}
	.st9{fill:#3A90FD;stroke:#000000;stroke-width:6.5;stroke-miterlimit:10;}
	.st10{fill:#F1CD08;stroke:#000000;stroke-width:6.5;stroke-miterlimit:10;}
</style>
<g>
	<path class="st0" d="M-6095.44,83.36V9.03c0-4.23,3.43-7.65,7.65-7.65h54.6v77.9"/>
	<path class="st0" d="M-6071.87,90.11h38.68V76.62h-55.51c-3.72,0-6.74,3.02-6.74,6.74v0c0,3.72,3.02,6.74,6.74,6.74h1.52"/>
	<rect x="-6077.77" y="22.14" class="st0" width="26.92" height="15.7"/>
	<polygon class="st0" points="-6074.06,103.26 -6079.32,108.56 -6084.57,103.26 -6084.57,86.3 -6074.06,86.3 	"/>
</g>
<polygon class="st0" points="-6426.15,45.99 -6461.82,10.31 -6461.82,25.82 -6518.94,25.82 -6518.94,67.55 -6461.82,67.55 
	-6461.82,81.66 "/>
<g>
	<polyline class="st0" points="-6253.21,19.37 -6229.57,19.37 -6229.57,90.57 -6306.44,90.57 -6306.44,19.37 -6276.3,19.37 	"/>
	<polygon class="st0" points="-6270.94,31.18 -6279.53,22.6 -6258.34,1.41 -6246.79,12.95 -6265.02,31.18 	"/>
	<polyline class="st0" points="-6280.9,31.18 -6270.94,31.18 -6265.02,31.18 -6255.11,31.18 	"/>
</g>
<g>
	<polygon class="st0" points="-6641.37,-8.31 -6717.39,43.25 -6725.11,62.66 -6704.22,62.65 -6628.21,11.1 	"/>
	<line class="st0" x1="-6717.39" y1="43.25" x2="-6704.22" y2="62.65"/>
</g>
<g>
	<g>
		<path class="st1" d="M-5855.55,78.95h24.01c19.62,0,35.53-15.91,35.53-35.53v0c0-19.62-15.91-35.53-35.53-35.53l-3.72,0h-78.89
			c-4.91,0-8.88,3.98-8.88,8.88v0c0,4.91,3.98,8.88,8.88,8.88h68.05v0"/>
		<path class="st1" d="M-5846.11,25.66h-21.09c-4.91,0-8.88,3.98-8.88,8.88v0c0,4.91,3.98,8.88,8.88,8.88h19.4h1.7
			c4.91,0,8.88-3.98,8.88-8.88v0C-5837.23,29.63-5841.2,25.66-5846.11,25.66z"/>
		<path class="st1" d="M-5845.47,43.42h-21.1c-4.91,0-8.88,3.98-8.88,8.88v0c0,4.91,3.98,8.88,8.88,8.88h19.4h1.7
			c4.9,0,8.88-3.98,8.88-8.88v0C-5836.59,47.4-5840.57,43.42-5845.47,43.42z"/>
		<path class="st1" d="M-5845.47,61.18h-21.1c-4.91,0-8.88,3.98-8.88,8.88v0c0,4.91,3.98,8.88,8.88,8.88h19.4h1.7
			c4.9,0,8.88-3.98,8.88-8.88v0C-5836.59,65.16-5840.57,61.18-5845.47,61.18z"/>
	</g>
	<path class="st1" d="M-5832.02,9.77l-11.69,23.48c-2.15,4.41-0.32,9.73,4.09,11.88v0c4.41,2.15,9.73,0.32,11.88-4.09l8.54-17.14"/>
</g>
<g>
	<ellipse class="st2" cx="-5650.29" cy="49" rx="28.07" ry="18.08"/>
	<g>
		<path class="st1" d="M-5630.93,44.27V29.63c0-3.72,3.01-6.73,6.73-6.73l0,0c3.72,0,6.73,3.01,6.73,6.73v22.75
			c0,18.59-15.07,33.66-33.66,33.66l0,0c-18.59,0-33.66-15.07-33.66-33.66V29.28l0,0c7.43,0,13.45,6.02,13.45,13.45v8.75l0,0
			c7.42,0,13.44,6.02,13.44,13.44v0.83"/>
		<path class="st1" d="M-5630.99,44.27V11.49c0-3.72-3.01-6.73-6.73-6.73l0,0c-3.72,0-6.73,3.01-6.73,6.73v25.15"/>
		<path class="st1" d="M-5644.45,40.44V4.67c0-3.72-3.01-6.73-6.73-6.73l0,0c-3.72,0-6.73,3.01-6.73,6.73v25.15"/>
		<path class="st1" d="M-5657.9,39.66V9.88c0-3.72-3.01-6.73-6.73-6.73l0,0c-3.72,0-6.73,3.01-6.73,6.73v37.79"/>
	</g>
</g>
<g>
	<line class="st0" x1="-5465.01" y1="-170.36" x2="-5388.46" y2="-189.33"/>
	<circle class="st1" cx="-5465.01" cy="-170.36" r="25.98"/>
	<line class="st0" x1="-5311.65" y1="-170.34" x2="-5388.21" y2="-189.32"/>
	<circle class="st1" cx="-5311.65" cy="-170.36" r="25.98"/>
	<circle class="st1" cx="-5388.46" cy="-189.33" r="25.98"/>
</g>
<g>
	<circle class="st0" cx="-5242.48" cy="40.44" r="35.6"/>
	<g>
		<circle class="st3" cx="-5256.25" cy="33.4" r="1.69"/>
		<circle class="st3" cx="-5228.72" cy="33.4" r="1.69"/>
	</g>
	<path class="st0" d="M-5254.97,48.4c6.9,6.9,18.07,6.9,24.98,0"/>
</g>
<g>
	<line class="st0" x1="-5009.67" y1="7.8" x2="-5009.67" y2="79.65"/>
	<line class="st0" x1="-5079.99" y1="43.72" x2="-5130.91" y2="43.72"/>
	<line class="st0" x1="-4970.07" y1="43.72" x2="-5020.99" y2="43.72"/>
	<rect x="-5099.39" y="24.46" class="st1" width="89.71" height="38.51"/>
	<line class="st0" x1="-4971.69" y1="27.96" x2="-4971.69" y2="59.48"/>
	<line class="st0" x1="-5058.17" y1="25.21" x2="-5058.17" y2="40.16"/>
	<line class="st0" x1="-5044.54" y1="26.42" x2="-5044.54" y2="47.84"/>
</g>
<circle class="st1" cx="-2398.36" cy="45.64" r="35.26"/>
<g>
	<rect x="-4873.5" y="-2.41" class="st1" width="70.6" height="50.69"/>
	<line class="st1" x1="-4873.5" y1="-10.14" x2="-4873.5" y2="79.26"/>
	<rect x="-4873.5" y="22.94" class="st1" width="70.6" height="25.35"/>
	<rect x="-4873.5" y="-2.41" class="st1" width="25.35" height="25.35"/>
</g>
<g transform="translate(0,-952.36218)">
	<path class="st1" d="M-4664.56,1018.79c0,18.4,13.01,33.32,29.05,33.32s29.05-14.92,29.05-33.32c0-18.4-13.96-38.93-29.05-56.24
		C-4635.51,962.55-4664.56,995.57-4664.56,1018.79z"/>
</g>
<g>
	<polyline class="st1" points="-4487.57,40.86 -4442.84,-3.88 -4398.1,40.86 	"/>
	<path class="st1" d="M-4442.84,33.11"/>
	<polygon class="st1" points="-4412.55,84.76 -4473.13,84.76 -4473.13,26.45 -4442.84,-3.88 -4412.55,26.45 	"/>
	<polyline class="st0" points="-4455.96,84.76 -4455.96,49.41 -4429.72,49.41 -4429.72,84.76 	"/>
</g>
<g>
	<circle class="st1" cx="-3002.59" cy="45.99" r="35.29"/>
	<polyline class="st1" points="-3016.15,45.6 -3007.96,55.41 -2989.03,36.57 	"/>
</g>
<g>
	<g>
		<g>
			<rect x="-4262.05" y="15.19" class="st0" width="69.54" height="69.54"/>
			<g>
				<line class="st1" x1="-4247.13" y1="4.39" x2="-4247.13" y2="25.98"/>
				<line class="st1" x1="-4207.42" y1="4.39" x2="-4207.42" y2="25.98"/>
			</g>
		</g>
		<line class="st1" x1="-4262.05" y1="37.89" x2="-4192.51" y2="37.89"/>
	</g>
	<g>
		<path class="st4" d="M-4226.68,50.14v4.07l-6.81,5.54v0.42h0.91c3.4,0,6.46,2.35,6.46,6.81c0,4.98-3.79,8.21-9.26,8.21
			c-5.86,0-9.4-3.47-9.4-8.35v-0.98h4.63v0.84c0,2.39,1.65,4.35,4.77,4.35c2.91,0,4.63-1.72,4.63-4.07s-1.65-3.51-4-3.51h-4.28
			v-4.14l6.07-4.98h-11.12v-4.21H-4226.68z"/>
		<path class="st4" d="M-4211.31,50.14V74.7h-4.63V55.05h-0.42l-3.44,6.18h-4.84l6.32-11.09H-4211.31z"/>
	</g>
</g>
<g>
	<g>
		<circle class="st1" cx="-4024.95" cy="49.91" r="34.11"/>
		<g>
			<path class="st1" d="M-4030.42,16.55c-15.63,19.6-15.53,47.58,0.29,67.07"/>
			<path class="st1" d="M-4018.53,16.55c15.48,19.42,15.53,47.05,0.16,66.52"/>
		</g>
		<line class="st1" x1="-4059.05" y1="49.91" x2="-3990.84" y2="49.91"/>
		<line class="st1" x1="-4024.48" y1="16" x2="-4024.48" y2="83.82"/>
	</g>
</g>
<g>
	<circle class="st1" cx="-3832.48" cy="26.26" r="22.82"/>
	<line class="st1" x1="-3832.48" y1="49.08" x2="-3832.48" y2="92.42"/>
	<line class="st1" x1="-3850.57" y1="68.27" x2="-3814.38" y2="68.27"/>
</g>
<g>
	<circle class="st1" cx="-3620" cy="36.82" r="22.82"/>
	<line class="st1" x1="-3603.79" y1="20.13" x2="-3564.15" y2="-19.51"/>
	<polyline class="st0" points="-3590.58,-19.51 -3564.15,-19.51 -3564.15,6.92 	"/>
</g>
<path class="st1" d="M-3366.23,53.33V41.29l-36.59-13.14l0.48-18.57c0.09-2.9-1.09-5.69-3.23-7.65v0
	c-3.79-3.47-9.61-3.48-13.41-0.01l-0.01,0.01c-2.15,1.96-3.34,4.76-3.24,7.66l0.48,18.55l-33.67,12.17v12.04l34.33-6.35l1.48,23.62
	l-12.3,10.06v8.46l20.03-9.74l20.03,9.74v-8.46l-13.09-10.58l1.45-22.86L-3366.23,53.33z"/>
<g>
	<g>
		<g>
			<g>
				<g>
					<g>
						<rect x="-2021.99" y="26.49" class="st2" width="79.95" height="61.47"/>
						<rect x="-2021.99" y="26.49" class="st0" width="79.95" height="61.47"/>
					</g>
				</g>
			</g>
		</g>
		<path class="st1" d="M-1962.89,75.77h-38.24c-4.08,0-7.39-3.31-7.39-7.39V46.07c0-4.08,3.31-7.39,7.39-7.39h38.24
			c4.08,0,7.39,3.31,7.39,7.39v22.31C-1955.5,72.46-1958.81,75.77-1962.89,75.77z"/>
		<g>
			<line class="st1" x1="-2007.6" y1="0.04" x2="-1981.43" y2="26.21"/>
			<line class="st1" x1="-1956.43" y1="0.04" x2="-1982.6" y2="26.21"/>
		</g>
	</g>
</g>
<g>
	<polygon class="st1" points="-3174.26,88.62 -3239.15,88.62 -3239.15,0.5 -3196.25,0.5 -3185.25,11.5 -3174.26,22.49 	"/>
	<polyline class="st1" points="-3196.25,0.5 -3196.25,22.03 -3174.26,22.03 	"/>
</g>
<g>
	
		<rect x="-2614.42" y="28.91" transform="matrix(-1.836970e-16 1 -1 -1.836970e-16 -2557.3999 2659.0503)" class="st1" width="12.39" height="43.82"/>
	<rect x="-2631.36" y="0.2" class="st1" width="12.39" height="88.26"/>
	<rect x="-2592.94" y="44.63" class="st1" width="12.39" height="43.82"/>
</g>
<g>
	<g>
		<polygon class="st1" points="-2765.94,87.77 -2831,87.77 -2831,-0.58 -2787.99,-0.58 -2776.97,10.45 -2765.94,21.47 		"/>
		<polyline class="st1" points="-2787.99,-0.58 -2787.99,21.01 -2765.94,21.01 		"/>
	</g>
	<line class="st1" x1="-2815.3" y1="41.24" x2="-2783.3" y2="41.24"/>
	<line class="st1" x1="-2815.58" y1="54.48" x2="-2783.57" y2="54.48"/>
	<line class="st1" x1="-2815.58" y1="67.73" x2="-2783.57" y2="67.73"/>
</g>
<g>
	<g>
		<path class="st4" d="M-2388.34,50.72v0.37c0,4.38-3.02,7.11-7.37,7.77v3.94h-4.42v-3.9c-5.08-0.7-8.25-3.98-8.25-9.28v-0.81h4.86
			v0.59c0,2.39,1.07,4.13,3.39,4.79v-7c-4.68-1.14-7.29-3.13-7.29-7.37V39.6c0-4.02,3.09-6.67,7.29-7.26v-3.87h4.42v4.01
			c4.16,0.81,7,3.65,7,7.92v1.11h-4.86v-0.74c0-1.84-0.77-2.95-2.14-3.54v6.15C-2390.96,44.53-2388.34,46.52-2388.34,50.72z
			 M-2400.13,42.4v-5.38c-1.47,0.44-2.36,1.44-2.36,2.65C-2402.49,41.18-2401.57,41.88-2400.13,42.4z M-2393.28,51.09
			c0-1.47-0.85-2.28-2.43-2.84v5.93C-2394.09,53.63-2393.28,52.42-2393.28,51.09z"/>
	</g>
</g>
<g>
	<circle class="st5" cx="442.82" cy="-216.3" r="35.69"/>
	<g>
		<circle class="st6" cx="429.02" cy="-223.36" r="1.7"/>
		<circle class="st6" cx="456.63" cy="-223.36" r="1.7"/>
	</g>
	<path class="st7" d="M430.3-208.32c6.92,6.92,18.12,6.92,25.04,0"/>
</g>
<g>
	<circle class="st5" cx="506.68" cy="-216.3" r="35.69"/>
	<g>
		<circle class="st6" cx="492.88" cy="-223.36" r="1.7"/>
		<circle class="st6" cx="520.48" cy="-223.36" r="1.7"/>
	</g>
	<path class="st7" d="M494.16-208.32c6.92,6.92,18.12,6.92,25.04,0"/>
</g>
<g>
	<circle class="st5" cx="570.54" cy="-216.3" r="35.69"/>
	<g>
		<circle class="st6" cx="556.74" cy="-223.36" r="1.7"/>
		<circle class="st6" cx="584.34" cy="-223.36" r="1.7"/>
	</g>
	<path class="st7" d="M558.02-208.32c6.92,6.92,18.12,6.92,25.04,0"/>
</g>
<polygon class="st1" points="-2178.22,63.32 -2160.25,80.96 -2160.25,63.32 -2142.62,63.32 -2160.25,45.36 -2142.62,27.4 
	-2160.25,27.4 -2160.25,9.76 -2178.22,27.4 -2196.18,9.76 -2196.18,27.4 -2213.82,27.4 -2196.18,45.36 -2213.82,63.32 
	-2196.18,63.32 -2196.18,80.96 "/>
<path class="st0" d="M861.79,21.08c-19.42-11.08-39.69,1.39-38.74,22.03c1.04,22.68,19.59,51.75,37.54,44.64
	c2.43-0.97,5.14-0.97,7.57,0c17.95,7.11,36.49-21.97,37.54-44.64c0.95-20.59-19.24-33.06-38.63-22.09L861.79,21.08z"/>
<path class="st0" d="M871.47-0.19c-8.08,8.08-9.27,20.42-3.57,29.75"/>
<path class="st0" d="M1076.89,3.82c-15.65,1.49-19.56,16.36-22.4,32.85c-0.54,3.15-2.3,6.02-4.34,9.34
	c-3.7,6.02-8.29,13.51-5.89,25.26c1.08,5.52,4.51,10.3,9.39,13.1c6.38,3.78,15.19,4.62,22.99,2.21c1.59-0.51,3.3-0.44,4.84,0.2
	c3.02,1.27,6.28,1.91,9.56,1.88c3.96,0.01,7.88-0.85,11.47-2.52c6.07-2.82,10.57-8.21,12.26-14.69c3.27-11.72-1.68-19.37-5.65-25.52
	c-2.06-3.18-4-6.18-4.53-9.27c-2.83-16.42-6.72-31.25-22.22-32.84L1076.89,3.82z"/>
<path class="st0" d="M1085.65-13.06c-8.32,8.32-10.13,20.68-5.43,30.75"/>
<g>
	<rect x="-398.67" y="8.73" class="st1" width="99.16" height="71.2"/>
	<rect x="-398.67" y="44.33" class="st8" width="99.16" height="35.6"/>
	<rect x="-398.67" y="8.73" class="st9" width="35.6" height="35.6"/>
</g>
<polygon class="st1" points="690.91,81.43 639.87,89.11 639.87,0.24 690.91,-7.44 "/>
<rect x="639.87" y="1.21" class="st1" width="63.23" height="88.87"/>
<g>
	<polygon class="st0" points="38.78,94.97 38.78,106.13 27.63,94.97 7.71,94.97 7.71,4.69 103.78,4.69 103.78,94.97 	"/>
</g>
<g>
	<g>
		<circle class="st0" cx="-169.5" cy="32.09" r="20.4"/>
		<line class="st0" x1="-154.45" y1="47.14" x2="-146.72" y2="54.88"/>
	</g>
	
		<rect x="-140.68" y="49.79" transform="matrix(0.7071 -0.7071 0.7071 0.7071 -86.7388 -75.9688)" class="st0" width="11.21" height="33.86"/>
</g>
<g>
	<path class="st0" d="M-554.14,37.84c-0.63,4.55-2.69,8.93-6.18,12.43c-8.52,8.52-22.33,8.52-30.85,0c-8.52-8.52-8.52-22.33,0-30.85
		c8.52-8.52,22.33-8.52,30.85,0C-555.3,24.45-553.24,31.31-554.14,37.84"/>
	<polyline class="st0" points="-553.13,37.68 -519.89,75.92 -533.36,89.39 -571.59,56.14 	"/>
	<line class="st0" x1="-527.15" y1="83.18" x2="-508.85" y2="101.48"/>
	<line class="st0" x1="-591.17" y1="50.27" x2="-561.11" y2="20.21"/>
</g>
<g>
	<rect x="230.61" class="st0" width="65.29" height="88.66"/>
	<g>
		<polyline class="st0" points="243.1,22.99 248.98,27.29 256.38,15.58 		"/>
		<polyline class="st0" points="270.13,46.65 276.01,50.94 283.41,39.23 		"/>
		<g>
			<line class="st0" x1="283.18" y1="16.76" x2="270.35" y2="29.58"/>
			<line class="st0" x1="270.35" y1="16.76" x2="283.18" y2="29.58"/>
		</g>
		<g>
			<line class="st0" x1="256.15" y1="60.25" x2="243.33" y2="73.08"/>
			<line class="st0" x1="243.33" y1="60.25" x2="256.15" y2="73.08"/>
		</g>
		<line class="st0" x1="243.89" y1="45.09" x2="255.59" y2="45.09"/>
		<line class="st0" x1="270.92" y1="66.66" x2="282.61" y2="66.66"/>
	</g>
</g>
<polygon class="st0" points="-757.32,11.58 -745.76,35.01 -719.89,38.77 -738.61,57.01 -734.19,82.77 -757.32,70.61 -780.46,82.77 
	-776.04,57.01 -794.75,38.77 -768.89,35.01 "/>
<g>
	<rect x="-1019.5" y="19.57" class="st0" width="116.13" height="71.69"/>
	<polyline class="st0" points="-1019.4,19.57 -960.63,55.41 -903.48,19.57 	"/>
</g>
<g>
	<g>
		<polygon class="st0" points="-1176.1,91.11 -1241.51,91.11 -1241.51,2.29 -1198.27,2.29 -1187.18,13.37 -1176.1,24.46 		"/>
		<polyline class="st0" points="-1198.27,2.29 -1198.27,23.99 -1176.1,23.99 		"/>
	</g>
	<line class="st0" x1="-1225.72" y1="44.33" x2="-1193.55" y2="44.33"/>
	<line class="st10" x1="-1226" y1="57.64" x2="-1193.82" y2="57.64"/>
	<line class="st10" x1="-1226" y1="70.96" x2="-1193.82" y2="70.96"/>
</g>
<g>
	<g>
		<polygon class="st0" points="-1089.6,91.11 -1155,91.11 -1155,2.29 -1111.77,2.29 -1100.68,13.37 -1089.6,24.46 		"/>
		<polyline class="st0" points="-1111.77,2.29 -1111.77,23.99 -1089.6,23.99 		"/>
	</g>
	<line class="st0" x1="-1139.22" y1="44.33" x2="-1107.05" y2="44.33"/>
	<line class="st10" x1="-1139.5" y1="57.64" x2="-1107.32" y2="57.64"/>
	<line class="st10" x1="-1139.5" y1="70.96" x2="-1107.32" y2="70.96"/>
</g>
<polyline class="st0" points="-1137.41,22.06 -1131.51,26.37 -1124.1,14.63 "/>
<g>
	<line class="st0" x1="-1212.18" y1="14.07" x2="-1225.03" y2="26.92"/>
	<line class="st0" x1="-1225.03" y1="14.07" x2="-1212.18" y2="26.92"/>
</g>
<g>
	<g>
		<g>
			<polygon class="st0" points="-1407.56,81.28 -1343.14,81.28 -1343.14,-7.51 -1385.72,-7.51 -1396.64,3.57 -1407.56,14.65 			"/>
			<polyline class="st0" points="-1385.72,-7.51 -1385.72,14.19 -1407.56,14.19 			"/>
		</g>
	</g>
</g>
<g>
	<g>
		<circle class="st1" cx="-1354.57" cy="29.51" r="20.88"/>
		<line class="st1" x1="-1339.16" y1="44.92" x2="-1331.24" y2="52.84"/>
	</g>
	
		<rect x="-1325.06" y="47.63" transform="matrix(0.7071 -0.7071 0.7071 0.7071 -432.3549 -913.8773)" class="st1" width="11.48" height="34.67"/>
</g>
<g>
	<path class="st0" d="M-1515.39,47.47c0,0-17.48,41.31-58.39,41.31s-58.39-41.31-58.39-41.31V46.7c0,0,12.46-21.34,25.4-27.36
		c12.94-6.02,32.99,4.23,32.99,4.23l0,0c0,0,19.92-10.25,32.87-4.23s25.4,27.36,25.4,27.36L-1515.39,47.47z"/>
	<path class="st0" d="M-1632.18,46.7c0,0,48.67,12.89,116.79,0.77"/>
</g>
<g>
	<path class="st0" d="M-1733.11,47.01c0,0-17.47,35.88-58.34,35.88s-58.34-35.88-58.34-35.88s17.47-35.88,58.34-35.88
		S-1733.11,47.01-1733.11,47.01z"/>
	<circle class="st0" cx="-1791.45" cy="46.02" r="17.39"/>
</g>
<g>
	<circle class="st5" cx="1283.83" cy="49.28" r="35.69"/>
	<g>
		<circle class="st6" cx="1270.03" cy="42.22" r="1.7"/>
		<circle class="st6" cx="1297.63" cy="42.22" r="1.7"/>
	</g>
	<path class="st7" d="M1271.31,57.26c6.92,6.92,18.12,6.92,25.04,0"/>
</g>
<g>
	<circle class="st1" cx="1495.35" cy="24.32" r="22.82"/>
	<line class="st1" x1="1495.35" y1="47.14" x2="1495.35" y2="90.48"/>
	<line class="st1" x1="1477.25" y1="66.33" x2="1513.45" y2="66.33"/>
</g>
<g>
	<circle class="st1" cx="1673.21" cy="66.03" r="22.82"/>
	<line class="st1" x1="1689.42" y1="49.34" x2="1729.06" y2="9.7"/>
	<polyline class="st0" points="1702.63,9.7 1729.06,9.7 1729.06,36.13 	"/>
</g>
</svg>
