<?xml version="1.0" encoding="utf-8"?>
<!-- Generator: Adobe Illustrator 24.2.0, SVG Export Plug-In . SVG Version: 6.00 Build 0)  -->
<svg version="1.1" id="Capa_1" xmlns="http://www.w3.org/2000/svg" xmlns:xlink="http://www.w3.org/1999/xlink" x="0px" y="0px"
	 viewBox="0 0 84.86 88.47" style="enable-background:new 0 0 84.86 88.47;" xml:space="preserve">
<style type="text/css">
	.st0{fill:none;stroke:#000000;stroke-width:6.5;stroke-miterlimit:10;}
	.st1{fill:#FFFFFF;stroke:#000000;stroke-width:6.5;stroke-miterlimit:10;}
	.st2{fill:#FFFFFF;}
	.st3{stroke:#000000;stroke-width:6.5;stroke-miterlimit:10;}
	.st4{fill:#1D1D1B;}
	.st5{fill:#FFFFFF;stroke:#1D1D1B;stroke-width:6.5;stroke-miterlimit:10;}
	.st6{fill:#1D1D1B;stroke:#1D1D1B;stroke-width:6.5;stroke-miterlimit:10;}
	.st7{fill:none;stroke:#1D1D1B;stroke-width:6.5;stroke-miterlimit:10;}
	.st8{fill:#FC5439;stroke:#000000;stroke-width:6.5;stroke-miterlimit:10;}
	.st9{fill:#3A90FD;stroke:#000000;stroke-width:6.5;stroke-miterlimit:10;}
	.st10{fill:#F1CD08;stroke:#000000;stroke-width:6.5;stroke-miterlimit:10;}
</style>
<g>
	<path class="st0" d="M-3050.23,82.87V8.53c0-4.23,3.43-7.65,7.65-7.65h54.6v77.9"/>
	<path class="st0" d="M-3026.66,89.61h38.68V76.12h-55.51c-3.72,0-6.74,3.02-6.74,6.74v0c0,3.72,3.02,6.74,6.74,6.74h1.52"/>
	<rect x="-3032.56" y="21.65" class="st0" width="26.92" height="15.7"/>
	<polygon class="st0" points="-3028.84,102.76 -3034.1,108.06 -3039.36,102.76 -3039.36,85.81 -3028.84,85.81 	"/>
</g>
<polygon class="st0" points="-3380.93,45.49 -3416.61,9.82 -3416.61,25.32 -3473.73,25.32 -3473.73,67.06 -3416.61,67.06 
	-3416.61,81.16 "/>
<g>
	<polyline class="st0" points="-3208,18.87 -3184.36,18.87 -3184.36,90.07 -3261.22,90.07 -3261.22,18.87 -3231.09,18.87 	"/>
	<polygon class="st0" points="-3225.73,30.68 -3234.31,22.1 -3213.12,0.91 -3201.58,12.45 -3219.81,30.68 	"/>
	<polyline class="st0" points="-3235.69,30.68 -3225.73,30.68 -3219.81,30.68 -3209.9,30.68 	"/>
</g>
<g>
	<polygon class="st0" points="-3596.15,-8.81 -3672.17,42.75 -3679.9,62.16 -3659.01,62.16 -3582.99,10.6 	"/>
	<line class="st0" x1="-3672.17" y1="42.75" x2="-3659.01" y2="62.16"/>
</g>
<g>
	<g>
		<path class="st1" d="M-2810.34,78.45h24.01c19.62,0,35.53-15.91,35.53-35.53v0c0-19.62-15.91-35.53-35.53-35.53l-3.72,0l-78.89,0
			c-4.91,0-8.88,3.98-8.88,8.88v0c0,4.91,3.98,8.88,8.88,8.88h68.05v0"/>
		<path class="st1" d="M-2800.89,25.16h-21.09c-4.91,0-8.88,3.98-8.88,8.88v0c0,4.91,3.98,8.88,8.88,8.88h19.4h1.7
			c4.91,0,8.88-3.98,8.88-8.88v0C-2792.01,29.14-2795.99,25.16-2800.89,25.16z"/>
		<path class="st1" d="M-2800.26,42.92h-21.1c-4.91,0-8.88,3.98-8.88,8.88v0c0,4.91,3.98,8.88,8.88,8.88h19.4h1.7
			c4.91,0,8.88-3.98,8.88-8.88v0C-2791.38,46.9-2795.35,42.92-2800.26,42.92z"/>
		<path class="st1" d="M-2800.26,60.69h-21.1c-4.91,0-8.88,3.98-8.88,8.88v0c0,4.91,3.98,8.88,8.88,8.88h19.4h1.7
			c4.91,0,8.88-3.98,8.88-8.88v0C-2791.38,64.66-2795.35,60.69-2800.26,60.69z"/>
	</g>
	<path class="st1" d="M-2786.81,9.27l-11.69,23.48c-2.15,4.41-0.32,9.73,4.09,11.88v0c4.41,2.15,9.73,0.32,11.88-4.09l8.54-17.14"/>
</g>
<g>
	<ellipse class="st2" cx="-2605.08" cy="48.5" rx="28.07" ry="18.08"/>
	<g>
		<path class="st1" d="M-2585.71,43.77V29.14c0-3.72,3.01-6.73,6.73-6.73l0,0c3.72,0,6.73,3.01,6.73,6.73v22.75
			c0,18.59-15.07,33.66-33.66,33.66l0,0c-18.59,0-33.66-15.07-33.66-33.66V28.78l0,0c7.43,0,13.45,6.02,13.45,13.45v8.75l0,0
			c7.42,0,13.44,6.02,13.44,13.44v0.83"/>
		<path class="st1" d="M-2585.78,43.77V11c0-3.72-3.01-6.73-6.73-6.73l0,0c-3.72,0-6.73,3.01-6.73,6.73v25.15"/>
		<path class="st1" d="M-2599.23,39.94V4.17c0-3.72-3.01-6.73-6.73-6.73l0,0c-3.72,0-6.73,3.01-6.73,6.73v25.15"/>
		<path class="st1" d="M-2612.69,39.16V9.39c0-3.72-3.01-6.73-6.73-6.73l0,0c-3.72,0-6.73,3.01-6.73,6.73v37.79"/>
	</g>
</g>
<g>
	<line class="st0" x1="-2419.8" y1="-170.85" x2="-2343.24" y2="-189.83"/>
	<circle class="st1" cx="-2419.8" cy="-170.85" r="25.98"/>
	<line class="st0" x1="-2266.44" y1="-170.84" x2="-2342.99" y2="-189.82"/>
	<circle class="st1" cx="-2266.44" cy="-170.85" r="25.98"/>
	<circle class="st1" cx="-2343.24" cy="-189.83" r="25.98"/>
</g>
<g>
	<circle class="st0" cx="-2197.27" cy="39.94" r="35.6"/>
	<g>
		<circle class="st3" cx="-2211.04" cy="32.9" r="1.69"/>
		<circle class="st3" cx="-2183.5" cy="32.9" r="1.69"/>
	</g>
	<path class="st0" d="M-2209.76,47.9c6.9,6.9,18.07,6.9,24.98,0"/>
</g>
<g>
	<line class="st0" x1="-1964.46" y1="7.3" x2="-1964.46" y2="79.15"/>
	<line class="st0" x1="-2034.78" y1="43.22" x2="-2085.69" y2="43.22"/>
	<line class="st0" x1="-1924.86" y1="43.22" x2="-1975.77" y2="43.22"/>
	<rect x="-2054.17" y="23.97" class="st1" width="89.71" height="38.51"/>
	<line class="st0" x1="-1926.47" y1="27.46" x2="-1926.47" y2="58.98"/>
	<line class="st0" x1="-2012.95" y1="24.71" x2="-2012.95" y2="39.66"/>
	<line class="st0" x1="-1999.32" y1="25.92" x2="-1999.32" y2="47.34"/>
</g>
<circle class="st1" cx="646.85" cy="43.25" r="35.26"/>
<g>
	<rect x="-1828.28" y="-2.91" class="st1" width="70.6" height="50.69"/>
	<line class="st1" x1="-1828.28" y1="-10.63" x2="-1828.28" y2="78.76"/>
	<rect x="-1828.28" y="22.44" class="st1" width="70.6" height="25.35"/>
	<rect x="-1828.28" y="-2.91" class="st1" width="25.35" height="25.35"/>
</g>
<g transform="translate(0,-952.36218)">
	<path class="st1" d="M-1619.34,1018.29c0,18.4,13.01,33.32,29.05,33.32c16.03,0,29.05-14.92,29.05-33.32
		c0-18.4-13.96-38.93-29.05-56.24C-1590.29,962.05-1619.34,995.07-1619.34,1018.29z"/>
</g>
<g>
	<polyline class="st1" points="-1442.36,40.36 -1397.62,-4.37 -1352.89,40.36 	"/>
	<path class="st1" d="M-1397.62,32.61"/>
	<polygon class="st1" points="-1367.33,84.26 -1427.91,84.26 -1427.91,25.95 -1397.62,-4.37 -1367.33,25.95 	"/>
	<polyline class="st0" points="-1410.74,84.26 -1410.74,48.91 -1384.51,48.91 -1384.51,84.26 	"/>
</g>
<g>
	<circle class="st1" cx="42.63" cy="45.49" r="35.29"/>
	<polyline class="st1" points="29.07,45.11 37.25,54.91 56.18,36.07 	"/>
</g>
<g>
	<g>
		<g>
			<rect x="-1216.83" y="14.69" class="st0" width="69.54" height="69.54"/>
			<g>
				<line class="st1" x1="-1201.92" y1="3.89" x2="-1201.92" y2="25.48"/>
				<line class="st1" x1="-1162.21" y1="3.89" x2="-1162.21" y2="25.48"/>
			</g>
		</g>
		<line class="st1" x1="-1216.83" y1="37.39" x2="-1147.29" y2="37.39"/>
	</g>
	<g>
		<path class="st4" d="M-1181.46,49.64v4.07l-6.81,5.54v0.42h0.91c3.4,0,6.46,2.35,6.46,6.81c0,4.98-3.79,8.21-9.26,8.21
			c-5.86,0-9.4-3.47-9.4-8.35v-0.98h4.63v0.84c0,2.39,1.65,4.35,4.77,4.35c2.91,0,4.63-1.72,4.63-4.07s-1.65-3.51-4-3.51h-4.28
			v-4.14l6.07-4.98h-11.12v-4.21H-1181.46z"/>
		<path class="st4" d="M-1166.09,49.64V74.2h-4.63V54.55h-0.42l-3.44,6.18h-4.84l6.32-11.09H-1166.09z"/>
	</g>
</g>
<g>
	<g>
		<circle class="st1" cx="-979.73" cy="49.41" r="34.11"/>
		<g>
			<path class="st1" d="M-985.21,16.05c-15.63,19.6-15.53,47.58,0.29,67.07"/>
			<path class="st1" d="M-973.32,16.05c15.48,19.42,15.53,47.05,0.16,66.52"/>
		</g>
		<line class="st1" x1="-1013.84" y1="49.41" x2="-945.63" y2="49.41"/>
		<line class="st1" x1="-979.26" y1="15.5" x2="-979.26" y2="83.32"/>
	</g>
</g>
<g>
	<circle class="st1" cx="-787.26" cy="25.76" r="22.82"/>
	<line class="st1" x1="-787.26" y1="48.58" x2="-787.26" y2="91.92"/>
	<line class="st1" x1="-805.36" y1="67.77" x2="-769.16" y2="67.77"/>
</g>
<g>
	<circle class="st1" cx="-574.79" cy="36.32" r="22.82"/>
	<line class="st1" x1="-558.58" y1="19.63" x2="-518.94" y2="-20.01"/>
	<polyline class="st0" points="-545.36,-20.01 -518.94,-20.01 -518.94,6.42 	"/>
</g>
<path class="st1" d="M-321.01,52.83V40.79l-36.59-13.14l0.48-18.57c0.09-2.9-1.09-5.69-3.23-7.65v0c-3.79-3.47-9.61-3.48-13.41-0.01
	l-0.01,0.01c-2.15,1.96-3.34,4.76-3.24,7.66l0.48,18.55l-33.67,12.17v12.04l34.33-6.35l1.48,23.62l-12.3,10.06v8.46l20.03-9.74
	l20.03,9.74v-8.46l-13.09-10.58l1.45-22.86L-321.01,52.83z"/>
<g>
	<g>
		<g>
			<g>
				<g>
					<g>
						<rect x="1023.23" y="24.19" class="st2" width="79.95" height="61.47"/>
						<rect x="1023.23" y="24.19" class="st0" width="79.95" height="61.47"/>
					</g>
				</g>
			</g>
		</g>
		<path class="st1" d="M1082.32,73.47h-38.24c-4.08,0-7.39-3.31-7.39-7.39V43.78c0-4.08,3.31-7.39,7.39-7.39h38.24
			c4.08,0,7.39,3.31,7.39,7.39v22.31C1089.71,70.16,1086.4,73.47,1082.32,73.47z"/>
		<g>
			<line class="st1" x1="1037.62" y1="-2.25" x2="1063.79" y2="23.92"/>
			<line class="st1" x1="1088.79" y1="-2.25" x2="1062.62" y2="23.92"/>
		</g>
	</g>
</g>
<g>
	<polygon class="st1" points="-129.04,88.12 -193.94,88.12 -193.94,0 -151.04,0 -140.04,11 -129.04,21.99 	"/>
	<polyline class="st1" points="-151.04,0 -151.04,21.54 -129.04,21.54 	"/>
</g>
<g>
	
		<rect x="430.79" y="28.41" transform="matrix(-1.836970e-16 1 -1 -1.836970e-16 487.316 -386.6625)" class="st1" width="12.39" height="43.82"/>
	<rect x="413.86" y="-0.3" class="st1" width="12.39" height="88.26"/>
	<rect x="452.27" y="44.13" class="st1" width="12.39" height="43.82"/>
</g>
<g>
	<g>
		<polygon class="st1" points="279.27,85.54 214.21,85.54 214.21,-2.8 257.22,-2.8 268.25,8.22 279.27,19.25 		"/>
		<polyline class="st1" points="257.22,-2.8 257.22,18.79 279.27,18.79 		"/>
	</g>
	<line class="st1" x1="229.91" y1="39.01" x2="261.92" y2="39.01"/>
	<line class="st1" x1="229.63" y1="52.26" x2="261.64" y2="52.26"/>
	<line class="st1" x1="229.63" y1="65.5" x2="261.64" y2="65.5"/>
</g>
<g>
	<g>
		<path class="st4" d="M656.87,48.34v0.37c0,4.38-3.02,7.11-7.37,7.77v3.94h-4.42v-3.9c-5.08-0.7-8.25-3.98-8.25-9.28v-0.81h4.86
			v0.59c0,2.39,1.07,4.13,3.39,4.79v-7c-4.68-1.14-7.29-3.13-7.29-7.37v-0.22c0-4.02,3.09-6.67,7.29-7.26v-3.87h4.42v4.01
			c4.16,0.81,7,3.65,7,7.92v1.11h-4.86v-0.74c0-1.84-0.77-2.95-2.14-3.54v6.15C654.26,42.15,656.87,44.14,656.87,48.34z
			 M645.09,40.01v-5.38c-1.47,0.44-2.36,1.44-2.36,2.65C642.73,38.8,643.65,39.5,645.09,40.01z M651.94,48.71
			c0-1.47-0.85-2.28-2.43-2.84v5.93C651.13,51.25,651.94,50.03,651.94,48.71z"/>
	</g>
</g>
<g>
	<circle class="st5" cx="3488.04" cy="-216.8" r="35.69"/>
	<g>
		<circle class="st6" cx="3474.24" cy="-223.86" r="1.7"/>
		<circle class="st6" cx="3501.84" cy="-223.86" r="1.7"/>
	</g>
	<path class="st7" d="M3475.52-208.82c6.92,6.92,18.12,6.92,25.04,0"/>
</g>
<g>
	<circle class="st5" cx="3551.9" cy="-216.8" r="35.69"/>
	<g>
		<circle class="st6" cx="3538.1" cy="-223.86" r="1.7"/>
		<circle class="st6" cx="3565.7" cy="-223.86" r="1.7"/>
	</g>
	<path class="st7" d="M3539.38-208.82c6.92,6.92,18.12,6.92,25.04,0"/>
</g>
<g>
	<circle class="st5" cx="3615.76" cy="-216.8" r="35.69"/>
	<g>
		<circle class="st6" cx="3601.96" cy="-223.86" r="1.7"/>
		<circle class="st6" cx="3629.56" cy="-223.86" r="1.7"/>
	</g>
	<path class="st7" d="M3603.24-208.82c6.92,6.92,18.12,6.92,25.04,0"/>
</g>
<polygon class="st1" points="867,62.82 884.96,80.46 884.96,62.82 902.6,62.82 884.96,44.86 902.6,26.9 884.96,26.9 884.96,9.26 
	867,26.9 849.03,9.26 849.03,26.9 831.4,26.9 849.03,44.86 831.4,62.82 849.03,62.82 849.03,80.46 "/>
<path class="st0" d="M3907,20.59c-19.42-11.08-39.69,1.39-38.74,22.03c1.05,22.68,19.59,51.75,37.54,44.64
	c2.43-0.97,5.14-0.97,7.57,0c17.95,7.11,36.49-21.97,37.54-44.64c0.95-20.59-19.24-33.06-38.63-22.09L3907,20.59z"/>
<path class="st0" d="M3916.69-0.69c-8.08,8.08-9.27,20.42-3.57,29.75"/>
<path class="st0" d="M4122.1,3.32c-15.65,1.49-19.56,16.36-22.4,32.85c-0.54,3.15-2.3,6.02-4.34,9.34
	c-3.7,6.02-8.29,13.51-5.89,25.26c1.08,5.52,4.51,10.3,9.39,13.1c6.38,3.78,15.19,4.62,22.99,2.21c1.59-0.51,3.3-0.44,4.84,0.2
	c3.02,1.27,6.28,1.91,9.56,1.88c3.96,0.01,7.88-0.85,11.47-2.52c6.07-2.82,10.57-8.21,12.26-14.69c3.27-11.72-1.68-19.37-5.65-25.52
	c-2.06-3.18-4-6.18-4.53-9.27c-2.83-16.42-6.72-31.25-22.22-32.84L4122.1,3.32z"/>
<path class="st0" d="M4130.86-13.56c-8.32,8.32-10.13,20.68-5.43,30.75"/>
<g>
	<rect x="2646.54" y="8.23" class="st1" width="99.16" height="71.2"/>
	<rect x="2646.54" y="43.83" class="st8" width="99.16" height="35.6"/>
	<rect x="2646.54" y="8.23" class="st9" width="35.6" height="35.6"/>
</g>
<polygon class="st1" points="3736.13,80.93 3685.09,88.62 3685.09,-0.26 3736.13,-7.94 "/>
<rect x="3685.09" y="0.71" class="st1" width="63.23" height="88.87"/>
<g>
	<polygon class="st0" points="3084,94.48 3084,105.63 3072.84,94.48 3052.92,94.48 3052.92,4.19 3148.99,4.19 3148.99,94.48 	"/>
</g>
<g>
	<g>
		<circle class="st0" cx="2875.71" cy="31.59" r="20.4"/>
		<line class="st0" x1="2890.76" y1="46.64" x2="2898.5" y2="54.38"/>
	</g>
	
		<rect x="2904.54" y="49.29" transform="matrix(0.7071 -0.7071 0.7071 0.7071 805.5363 2077.1768)" class="st0" width="11.21" height="33.86"/>
</g>
<g>
	<path class="st0" d="M2491.08,37.35c-0.63,4.55-2.69,8.93-6.18,12.43c-8.52,8.52-22.33,8.52-30.85,0c-8.52-8.52-8.52-22.33,0-30.85
		c8.52-8.52,22.33-8.52,30.85,0C2489.92,23.95,2491.98,30.81,2491.08,37.35"/>
	<polyline class="st0" points="2492.08,37.18 2525.33,75.42 2511.86,88.89 2473.62,55.64 	"/>
	<line class="st0" x1="2518.06" y1="82.68" x2="2536.36" y2="100.98"/>
	<line class="st0" x1="2454.04" y1="49.78" x2="2484.1" y2="19.71"/>
</g>
<g>
	<rect x="3275.82" y="-0.5" class="st0" width="65.29" height="88.66"/>
	<g>
		<polyline class="st0" points="3288.31,22.49 3294.2,26.79 3301.6,15.08 		"/>
		<polyline class="st0" points="3315.34,46.15 3321.22,50.45 3328.62,38.73 		"/>
		<g>
			<line class="st0" x1="3328.39" y1="16.26" x2="3315.57" y2="29.09"/>
			<line class="st0" x1="3315.57" y1="16.26" x2="3328.39" y2="29.09"/>
		</g>
		<g>
			<line class="st0" x1="3301.37" y1="59.75" x2="3288.54" y2="72.58"/>
			<line class="st0" x1="3288.54" y1="59.75" x2="3301.37" y2="72.58"/>
		</g>
		<line class="st0" x1="3289.11" y1="44.59" x2="3300.8" y2="44.59"/>
		<line class="st0" x1="3316.13" y1="66.17" x2="3327.83" y2="66.17"/>
	</g>
</g>
<polygon class="st0" points="2287.89,11.08 2299.46,34.51 2325.32,38.27 2306.61,56.52 2311.03,82.27 2287.89,70.11 2264.76,82.27 
	2269.18,56.52 2250.46,38.27 2276.33,34.51 "/>
<g>
	<rect x="2025.71" y="19.07" class="st0" width="116.13" height="71.69"/>
	<polyline class="st0" points="2025.82,19.07 2084.58,54.91 2141.74,19.07 	"/>
</g>
<g>
	<g>
		<polygon class="st0" points="1869.11,90.61 1803.71,90.61 1803.71,1.79 1846.95,1.79 1858.03,12.87 1869.11,23.96 		"/>
		<polyline class="st0" points="1846.95,1.79 1846.95,23.5 1869.11,23.5 		"/>
	</g>
	<line class="st0" x1="1819.49" y1="43.83" x2="1851.67" y2="43.83"/>
	<line class="st10" x1="1819.21" y1="57.14" x2="1851.39" y2="57.14"/>
	<line class="st10" x1="1819.21" y1="70.46" x2="1851.39" y2="70.46"/>
</g>
<g>
	<g>
		<polygon class="st0" points="1955.62,90.61 1890.21,90.61 1890.21,1.79 1933.45,1.79 1944.53,12.87 1955.62,23.96 		"/>
		<polyline class="st0" points="1933.45,1.79 1933.45,23.5 1955.62,23.5 		"/>
	</g>
	<line class="st0" x1="1905.99" y1="43.83" x2="1938.17" y2="43.83"/>
	<line class="st10" x1="1905.71" y1="57.14" x2="1937.89" y2="57.14"/>
	<line class="st10" x1="1905.71" y1="70.46" x2="1937.89" y2="70.46"/>
</g>
<polyline class="st0" points="1907.81,21.56 1913.7,25.87 1921.12,14.13 "/>
<g>
	<line class="st0" x1="1833.03" y1="13.57" x2="1820.18" y2="26.42"/>
	<line class="st0" x1="1820.18" y1="13.57" x2="1833.03" y2="26.42"/>
</g>
<g>
	<g>
		<g>
			<polygon class="st0" points="1637.66,80.78 1702.07,80.78 1702.07,-8.01 1659.49,-8.01 1648.57,3.07 1637.66,14.15 			"/>
			<polyline class="st0" points="1659.49,-8.01 1659.49,13.69 1637.66,13.69 			"/>
		</g>
	</g>
</g>
<g>
	<g>
		<circle class="st1" cx="1690.64" cy="29.01" r="20.88"/>
		<line class="st1" x1="1706.05" y1="44.42" x2="1713.97" y2="52.34"/>
	</g>
	
		<rect x="1720.15" y="47.13" transform="matrix(0.7071 -0.7071 0.7071 0.7071 459.9202 1239.2683)" class="st1" width="11.48" height="34.67"/>
</g>
<g>
	<path class="st0" d="M1529.82,46.97c0,0-17.48,41.31-58.39,41.31s-58.39-41.31-58.39-41.31V46.2c0,0,12.46-21.34,25.4-27.36
		s32.99,4.23,32.99,4.23l0,0c0,0,19.92-10.25,32.87-4.23c12.94,6.02,25.4,27.36,25.4,27.36L1529.82,46.97z"/>
	<path class="st0" d="M1413.04,46.2c0,0,48.67,12.89,116.79,0.77"/>
</g>
<g>
	<path class="st0" d="M1312.1,51.2c0,0-17.47,35.88-58.34,35.88s-58.34-35.88-58.34-35.88s17.47-35.88,58.34-35.88
		S1312.1,51.2,1312.1,51.2z"/>
	<circle class="st0" cx="1253.77" cy="50.21" r="17.39"/>
</g>
<g>
	<circle class="st5" cx="4329.04" cy="48.78" r="35.69"/>
	<g>
		<circle class="st6" cx="4315.24" cy="41.72" r="1.7"/>
		<circle class="st6" cx="4342.84" cy="41.72" r="1.7"/>
	</g>
	<path class="st7" d="M4316.52,56.76c6.92,6.92,18.12,6.92,25.04,0"/>
</g>
<g>
	<circle class="st1" cx="4540.56" cy="23.82" r="22.82"/>
	<line class="st1" x1="4540.56" y1="46.64" x2="4540.56" y2="89.98"/>
	<line class="st1" x1="4522.47" y1="65.83" x2="4558.66" y2="65.83"/>
</g>
<g>
	<circle class="st1" cx="4718.42" cy="65.53" r="22.82"/>
	<line class="st1" x1="4734.64" y1="48.84" x2="4774.27" y2="9.21"/>
	<polyline class="st0" points="4747.85,9.21 4774.27,9.21 4774.27,35.63 	"/>
</g>
</svg>
