<?xml version="1.0" encoding="utf-8"?>
<!-- Generator: Adobe Illustrator 24.2.0, SVG Export Plug-In . SVG Version: 6.00 Build 0)  -->
<svg version="1.1" id="Capa_1" xmlns="http://www.w3.org/2000/svg" xmlns:xlink="http://www.w3.org/1999/xlink" x="0px" y="0px"
	 viewBox="0 0 167.79 104.18" style="enable-background:new 0 0 167.79 104.18;" xml:space="preserve">
<style type="text/css">
	.st0{fill:none;stroke:#000000;stroke-width:6.5;stroke-miterlimit:10;}
	.st1{fill:#FFFFFF;stroke:#000000;stroke-width:6.5;stroke-miterlimit:10;}
	.st2{fill:#FFFFFF;}
	.st3{stroke:#000000;stroke-width:6.5;stroke-miterlimit:10;}
	.st4{fill:#1D1D1B;}
	.st5{fill:#FFFFFF;stroke:#1D1D1B;stroke-width:6.5;stroke-miterlimit:10;}
	.st6{fill:#1D1D1B;stroke:#1D1D1B;stroke-width:6.5;stroke-miterlimit:10;}
	.st7{fill:none;stroke:#1D1D1B;stroke-width:6.5;stroke-miterlimit:10;}
	.st8{fill:#FC5439;stroke:#000000;stroke-width:6.5;stroke-miterlimit:10;}
	.st9{fill:#3A90FD;stroke:#000000;stroke-width:6.5;stroke-miterlimit:10;}
	.st10{fill:#F1CD08;stroke:#000000;stroke-width:6.5;stroke-miterlimit:10;}
</style>
<g>
	<path class="st0" d="M-4846.69,90.88V16.54c0-4.23,3.43-7.65,7.65-7.65h54.6v77.9"/>
	<path class="st0" d="M-4823.12,97.62h38.68V84.13h-55.51c-3.72,0-6.74,3.02-6.74,6.74v0c0,3.72,3.02,6.74,6.74,6.74h1.52"/>
	<rect x="-4829.02" y="29.66" class="st0" width="26.92" height="15.7"/>
	<polygon class="st0" points="-4825.31,110.77 -4830.57,116.08 -4835.82,110.77 -4835.82,93.82 -4825.31,93.82 	"/>
</g>
<polygon class="st0" points="-5177.4,53.5 -5213.07,17.83 -5213.07,33.33 -5270.19,33.33 -5270.19,75.07 -5213.07,75.07 
	-5213.07,89.17 "/>
<g>
	<polyline class="st0" points="-5004.46,26.88 -4980.82,26.88 -4980.82,98.08 -5057.69,98.08 -5057.69,26.88 -5027.55,26.88 	"/>
	<polygon class="st0" points="-5022.19,38.69 -5030.78,30.11 -5009.59,8.92 -4998.04,20.47 -5016.27,38.69 	"/>
	<polyline class="st0" points="-5032.15,38.69 -5022.19,38.69 -5016.27,38.69 -5006.36,38.69 	"/>
</g>
<g>
	<polygon class="st0" points="-5392.62,-0.8 -5468.64,50.76 -5476.36,70.17 -5455.47,70.17 -5379.46,18.61 	"/>
	<line class="st0" x1="-5468.64" y1="50.76" x2="-5455.47" y2="70.17"/>
</g>
<g>
	<g>
		<path class="st1" d="M-4606.8,86.46h24.01c19.62,0,35.53-15.91,35.53-35.53v0c0-19.62-15.91-35.53-35.53-35.53l-3.72,0h-78.89
			c-4.91,0-8.88,3.98-8.88,8.88v0c0,4.91,3.98,8.88,8.88,8.88h68.05v0"/>
		<path class="st1" d="M-4597.36,33.17h-21.09c-4.91,0-8.88,3.98-8.88,8.88v0c0,4.91,3.98,8.88,8.88,8.88h19.4h1.7
			c4.91,0,8.88-3.98,8.88-8.88v0C-4588.48,37.15-4592.45,33.17-4597.36,33.17z"/>
		<path class="st1" d="M-4596.72,50.93h-21.1c-4.91,0-8.88,3.98-8.88,8.88v0c0,4.91,3.98,8.88,8.88,8.88h19.4h1.7
			c4.9,0,8.88-3.98,8.88-8.88v0C-4587.84,54.91-4591.82,50.93-4596.72,50.93z"/>
		<path class="st1" d="M-4596.72,68.7h-21.1c-4.91,0-8.88,3.98-8.88,8.88v0c0,4.91,3.98,8.88,8.88,8.88h19.4h1.7
			c4.9,0,8.88-3.98,8.88-8.88v0C-4587.84,72.67-4591.82,68.7-4596.72,68.7z"/>
	</g>
	<path class="st1" d="M-4583.27,17.28l-11.69,23.48c-2.15,4.41-0.32,9.73,4.09,11.88v0c4.41,2.15,9.73,0.32,11.88-4.09l8.54-17.14"
		/>
</g>
<g>
	<ellipse class="st2" cx="-4401.54" cy="56.51" rx="28.07" ry="18.08"/>
	<g>
		<path class="st1" d="M-4382.18,51.78V37.15c0-3.72,3.01-6.73,6.73-6.73l0,0c3.72,0,6.73,3.01,6.73,6.73V59.9
			c0,18.59-15.07,33.66-33.66,33.66l0,0c-18.59,0-33.66-15.07-33.66-33.66V36.79l0,0c7.43,0,13.45,6.02,13.45,13.45v8.75l0,0
			c7.42,0,13.44,6.02,13.44,13.44v0.83"/>
		<path class="st1" d="M-4382.24,51.78V19.01c0-3.72-3.01-6.73-6.73-6.73l0,0c-3.72,0-6.73,3.01-6.73,6.73v25.15"/>
		<path class="st1" d="M-4395.7,47.95V12.18c0-3.72-3.01-6.73-6.73-6.73l0,0c-3.72,0-6.73,3.01-6.73,6.73v25.15"/>
		<path class="st1" d="M-4409.15,47.17V17.4c0-3.72-3.01-6.73-6.73-6.73l0,0c-3.72,0-6.73,3.01-6.73,6.73v37.79"/>
	</g>
</g>
<g>
	<line class="st0" x1="-4216.26" y1="-162.84" x2="-4139.71" y2="-181.82"/>
	<circle class="st1" cx="-4216.26" cy="-162.84" r="25.98"/>
	<line class="st0" x1="-4062.9" y1="-162.83" x2="-4139.46" y2="-181.81"/>
	<circle class="st1" cx="-4062.9" cy="-162.84" r="25.98"/>
	<circle class="st1" cx="-4139.71" cy="-181.82" r="25.98"/>
</g>
<g>
	<circle class="st0" cx="-3993.73" cy="47.95" r="35.6"/>
	<g>
		<circle class="st3" cx="-4007.5" cy="40.91" r="1.69"/>
		<circle class="st3" cx="-3979.97" cy="40.91" r="1.69"/>
	</g>
	<path class="st0" d="M-4006.22,55.91c6.9,6.9,18.07,6.9,24.98,0"/>
</g>
<g>
	<line class="st0" x1="-3760.92" y1="15.31" x2="-3760.92" y2="87.16"/>
	<line class="st0" x1="-3831.24" y1="51.23" x2="-3882.16" y2="51.23"/>
	<line class="st0" x1="-3721.32" y1="51.23" x2="-3772.24" y2="51.23"/>
	<rect x="-3850.64" y="31.98" class="st1" width="89.71" height="38.51"/>
	<line class="st0" x1="-3722.94" y1="35.47" x2="-3722.94" y2="67"/>
	<line class="st0" x1="-3809.42" y1="32.72" x2="-3809.42" y2="47.67"/>
	<line class="st0" x1="-3795.79" y1="33.93" x2="-3795.79" y2="55.35"/>
</g>
<circle class="st1" cx="-1149.61" cy="53.15" r="35.26"/>
<g>
	<rect x="-3624.75" y="5.1" class="st1" width="70.6" height="50.69"/>
	<line class="st1" x1="-3624.75" y1="-2.62" x2="-3624.75" y2="86.77"/>
	<rect x="-3624.75" y="30.45" class="st1" width="70.6" height="25.35"/>
	<rect x="-3624.75" y="5.1" class="st1" width="25.35" height="25.35"/>
</g>
<g transform="translate(0,-952.36218)">
	<path class="st1" d="M-3415.81,1026.3c0,18.4,13.01,33.32,29.05,33.32c16.03,0,29.05-14.92,29.05-33.32s-13.96-38.93-29.05-56.24
		C-3386.76,970.06-3415.81,1003.08-3415.81,1026.3z"/>
</g>
<g>
	<polyline class="st1" points="-3238.82,48.37 -3194.09,3.64 -3149.35,48.37 	"/>
	<path class="st1" d="M-3194.09,40.62"/>
	<polygon class="st1" points="-3163.8,92.27 -3224.38,92.27 -3224.38,33.96 -3194.09,3.64 -3163.8,33.96 	"/>
	<polyline class="st0" points="-3207.21,92.27 -3207.21,56.92 -3180.97,56.92 -3180.97,92.27 	"/>
</g>
<g>
	<circle class="st1" cx="-1753.84" cy="53.5" r="35.29"/>
	<polyline class="st1" points="-1767.4,53.12 -1759.21,62.92 -1740.28,44.08 	"/>
</g>
<g>
	<g>
		<g>
			<rect x="-3013.3" y="22.7" class="st0" width="69.54" height="69.54"/>
			<g>
				<line class="st1" x1="-2998.38" y1="11.91" x2="-2998.38" y2="33.49"/>
				<line class="st1" x1="-2958.67" y1="11.91" x2="-2958.67" y2="33.49"/>
			</g>
		</g>
		<line class="st1" x1="-3013.3" y1="45.4" x2="-2943.76" y2="45.4"/>
	</g>
	<g>
		<path class="st4" d="M-2977.93,57.65v4.07l-6.81,5.54v0.42h0.91c3.4,0,6.46,2.35,6.46,6.81c0,4.98-3.79,8.21-9.26,8.21
			c-5.86,0-9.4-3.47-9.4-8.35v-0.98h4.63v0.84c0,2.39,1.65,4.35,4.77,4.35c2.91,0,4.63-1.72,4.63-4.07s-1.65-3.51-4-3.51h-4.28
			v-4.14l6.07-4.98h-11.12v-4.21H-2977.93z"/>
		<path class="st4" d="M-2962.56,57.65v24.56h-4.63V62.56h-0.42l-3.44,6.18h-4.84l6.32-11.09H-2962.56z"/>
	</g>
</g>
<g>
	<g>
		<circle class="st1" cx="-2776.2" cy="57.42" r="34.11"/>
		<g>
			<path class="st1" d="M-2781.67,24.07c-15.63,19.6-15.53,47.58,0.29,67.07"/>
			<path class="st1" d="M-2769.78,24.06c15.48,19.42,15.53,47.05,0.16,66.52"/>
		</g>
		<line class="st1" x1="-2810.3" y1="57.42" x2="-2742.09" y2="57.42"/>
		<line class="st1" x1="-2775.73" y1="23.51" x2="-2775.73" y2="91.33"/>
	</g>
</g>
<g>
	<circle class="st1" cx="-2583.73" cy="33.77" r="22.82"/>
	<line class="st1" x1="-2583.73" y1="56.59" x2="-2583.73" y2="99.93"/>
	<line class="st1" x1="-2601.82" y1="75.78" x2="-2565.63" y2="75.78"/>
</g>
<g>
	<circle class="st1" cx="-2371.25" cy="44.33" r="22.82"/>
	<line class="st1" x1="-2355.04" y1="27.64" x2="-2315.4" y2="-12"/>
	<polyline class="st0" points="-2341.83,-12 -2315.4,-12 -2315.4,14.43 	"/>
</g>
<path class="st1" d="M-2117.48,60.84V48.8l-36.59-13.14l0.48-18.57c0.09-2.9-1.09-5.69-3.23-7.65v0c-3.79-3.47-9.61-3.48-13.41-0.01
	l-0.01,0.01c-2.15,1.96-3.34,4.76-3.24,7.66l0.48,18.55l-33.67,12.17v12.04l34.33-6.35l1.48,23.62l-12.3,10.06v8.46l20.03-9.74
	l20.03,9.74V87.2l-13.09-10.58l1.45-22.86L-2117.48,60.84z"/>
<g>
	<g>
		<g>
			<g>
				<g>
					<g>
						<rect x="-773.24" y="34" class="st2" width="79.95" height="61.47"/>
						<rect x="-773.24" y="34" class="st0" width="79.95" height="61.47"/>
					</g>
				</g>
			</g>
		</g>
		<path class="st1" d="M-714.14,83.28h-38.24c-4.08,0-7.39-3.31-7.39-7.39V53.59c0-4.08,3.31-7.39,7.39-7.39h38.24
			c4.08,0,7.39,3.31,7.39,7.39v22.31C-706.75,79.97-710.06,83.28-714.14,83.28z"/>
		<g>
			<line class="st1" x1="-758.85" y1="7.56" x2="-732.68" y2="33.72"/>
			<line class="st1" x1="-707.68" y1="7.56" x2="-733.85" y2="33.72"/>
		</g>
	</g>
</g>
<g>
	<polygon class="st1" points="-1925.51,96.13 -1990.4,96.13 -1990.4,8.01 -1947.5,8.01 -1936.5,19.01 -1925.51,30.01 	"/>
	<polyline class="st1" points="-1947.5,8.01 -1947.5,29.55 -1925.51,29.55 	"/>
</g>
<g>
	
		<rect x="-1365.67" y="36.43" transform="matrix(-1.836970e-16 1 -1 -1.836970e-16 -1301.1373 1417.8127)" class="st1" width="12.39" height="43.82"/>
	<rect x="-1382.61" y="7.71" class="st1" width="12.39" height="88.26"/>
	<rect x="-1344.19" y="52.14" class="st1" width="12.39" height="43.82"/>
</g>
<g>
	<g>
		<polygon class="st1" points="-1517.19,95.28 -1582.25,95.28 -1582.25,6.93 -1539.24,6.93 -1528.22,17.96 -1517.19,28.98 		"/>
		<polyline class="st1" points="-1539.24,6.93 -1539.24,28.52 -1517.19,28.52 		"/>
	</g>
	<line class="st1" x1="-1566.55" y1="48.75" x2="-1534.55" y2="48.75"/>
	<line class="st1" x1="-1566.83" y1="61.99" x2="-1534.82" y2="61.99"/>
	<line class="st1" x1="-1566.83" y1="75.24" x2="-1534.82" y2="75.24"/>
</g>
<g>
	<g>
		<path class="st4" d="M-1139.59,58.23v0.37c0,4.38-3.02,7.11-7.37,7.77v3.94h-4.42v-3.9c-5.08-0.7-8.25-3.98-8.25-9.28v-0.81h4.86
			v0.59c0,2.39,1.07,4.13,3.39,4.79v-7c-4.68-1.14-7.29-3.13-7.29-7.37v-0.22c0-4.02,3.09-6.67,7.29-7.26v-3.87h4.42V40
			c4.16,0.81,7,3.65,7,7.92v1.11h-4.86v-0.74c0-1.84-0.77-2.95-2.14-3.54v6.15C-1142.21,52.05-1139.59,54.03-1139.59,58.23z
			 M-1151.38,49.91v-5.38c-1.47,0.44-2.36,1.44-2.36,2.65C-1153.74,48.69-1152.82,49.39-1151.38,49.91z M-1144.53,58.6
			c0-1.47-0.85-2.28-2.43-2.84v5.93C-1145.34,61.14-1144.53,59.93-1144.53,58.6z"/>
	</g>
</g>
<g>
	<circle class="st5" cx="1691.57" cy="-208.79" r="35.69"/>
	<g>
		<circle class="st6" cx="1677.77" cy="-215.84" r="1.7"/>
		<circle class="st6" cx="1705.38" cy="-215.84" r="1.7"/>
	</g>
	<path class="st7" d="M1679.05-200.81c6.92,6.92,18.12,6.92,25.04,0"/>
</g>
<g>
	<circle class="st5" cx="1755.43" cy="-208.79" r="35.69"/>
	<g>
		<circle class="st6" cx="1741.63" cy="-215.84" r="1.7"/>
		<circle class="st6" cx="1769.23" cy="-215.84" r="1.7"/>
	</g>
	<path class="st7" d="M1742.91-200.81c6.92,6.92,18.12,6.92,25.04,0"/>
</g>
<g>
	<circle class="st5" cx="1819.29" cy="-208.79" r="35.69"/>
	<g>
		<circle class="st6" cx="1805.49" cy="-215.84" r="1.7"/>
		<circle class="st6" cx="1833.09" cy="-215.84" r="1.7"/>
	</g>
	<path class="st7" d="M1806.77-200.81c6.92,6.92,18.12,6.92,25.04,0"/>
</g>
<polygon class="st1" points="-929.47,70.83 -911.5,88.47 -911.5,70.83 -893.87,70.83 -911.5,52.87 -893.87,34.91 -911.5,34.91 
	-911.5,17.27 -929.47,34.91 -947.43,17.27 -947.43,34.91 -965.07,34.91 -947.43,52.87 -965.07,70.83 -947.43,70.83 -947.43,88.47 
	"/>
<path class="st0" d="M2110.53,28.6c-19.42-11.08-39.69,1.39-38.74,22.03c1.04,22.68,19.59,51.75,37.54,44.64
	c2.43-0.97,5.14-0.97,7.57,0c17.95,7.11,36.49-21.97,37.54-44.64c0.95-20.59-19.24-33.06-38.63-22.09L2110.53,28.6z"/>
<path class="st0" d="M2120.22,7.32c-8.08,8.08-9.27,20.42-3.57,29.75"/>
<path class="st0" d="M2325.64,11.33c-15.65,1.49-19.56,16.36-22.4,32.85c-0.54,3.15-2.3,6.02-4.34,9.34
	c-3.7,6.02-8.29,13.51-5.89,25.26c1.08,5.52,4.51,10.3,9.39,13.1c6.38,3.78,15.19,4.62,22.99,2.21c1.59-0.51,3.3-0.44,4.84,0.2
	c3.02,1.27,6.28,1.91,9.56,1.88c3.96,0.01,7.88-0.85,11.47-2.52c6.07-2.82,10.57-8.21,12.26-14.69c3.27-11.72-1.68-19.37-5.65-25.52
	c-2.06-3.18-4-6.18-4.53-9.27c-2.83-16.42-6.72-31.25-22.22-32.84L2325.64,11.33z"/>
<path class="st0" d="M2334.4-5.55c-8.32,8.32-10.13,20.68-5.43,30.75"/>
<g>
	<rect x="850.08" y="16.24" class="st1" width="99.16" height="71.2"/>
	<rect x="850.08" y="51.84" class="st8" width="99.16" height="35.6"/>
	<rect x="850.08" y="16.24" class="st9" width="35.6" height="35.6"/>
</g>
<polygon class="st1" points="1939.66,88.94 1888.62,96.63 1888.62,7.76 1939.66,0.07 "/>
<rect x="1888.62" y="8.72" class="st1" width="63.23" height="88.87"/>
<g>
	<polygon class="st0" points="1287.53,102.49 1287.53,113.64 1276.38,102.49 1256.46,102.49 1256.46,12.2 1352.53,12.2 
		1352.53,102.49 	"/>
</g>
<g>
	<g>
		<circle class="st0" cx="1079.25" cy="39.6" r="20.4"/>
		<line class="st0" x1="1094.3" y1="54.65" x2="1102.03" y2="62.39"/>
	</g>
	
		<rect x="1108.07" y="57.3" transform="matrix(0.7071 -0.7071 0.7071 0.7071 273.6995 809.2311)" class="st0" width="11.21" height="33.86"/>
</g>
<g>
	<path class="st0" d="M694.61,45.36c-0.63,4.55-2.69,8.93-6.18,12.43c-8.52,8.52-22.33,8.52-30.85,0c-8.52-8.52-8.52-22.33,0-30.85
		c8.52-8.52,22.33-8.52,30.85,0C693.45,31.96,695.51,38.82,694.61,45.36"/>
	<polyline class="st0" points="695.62,45.2 728.86,83.43 715.39,96.9 677.16,63.65 	"/>
	<line class="st0" x1="721.6" y1="90.69" x2="739.9" y2="108.99"/>
	<line class="st0" x1="657.58" y1="57.79" x2="687.64" y2="27.73"/>
</g>
<g>
	<rect x="1479.36" y="7.51" class="st0" width="65.29" height="88.66"/>
	<g>
		<polyline class="st0" points="1491.85,30.51 1497.73,34.8 1505.13,23.09 		"/>
		<polyline class="st0" points="1518.88,54.16 1524.76,58.46 1532.16,46.74 		"/>
		<g>
			<line class="st0" x1="1531.93" y1="24.27" x2="1519.1" y2="37.1"/>
			<line class="st0" x1="1519.1" y1="24.27" x2="1531.93" y2="37.1"/>
		</g>
		<g>
			<line class="st0" x1="1504.9" y1="67.76" x2="1492.08" y2="80.59"/>
			<line class="st0" x1="1492.08" y1="67.76" x2="1504.9" y2="80.59"/>
		</g>
		<line class="st0" x1="1492.64" y1="52.6" x2="1504.34" y2="52.6"/>
		<line class="st0" x1="1519.67" y1="74.18" x2="1531.36" y2="74.18"/>
	</g>
</g>
<polygon class="st0" points="491.43,19.09 502.99,42.53 528.86,46.28 510.14,64.53 514.56,90.29 491.43,78.12 468.29,90.29 
	472.71,64.53 454,46.28 479.86,42.53 "/>
<g>
	<rect x="229.25" y="27.08" class="st0" width="116.13" height="71.69"/>
	<polyline class="st0" points="229.35,27.08 288.12,62.92 345.27,27.08 	"/>
</g>
<g>
	<g>
		<polygon class="st0" points="72.65,98.62 7.24,98.62 7.24,9.8 50.48,9.8 61.57,20.89 72.65,31.97 		"/>
		<polyline class="st0" points="50.48,9.8 50.48,31.51 72.65,31.51 		"/>
	</g>
	<line class="st0" x1="23.03" y1="51.84" x2="55.2" y2="51.84"/>
	<line class="st10" x1="22.75" y1="65.16" x2="54.93" y2="65.16"/>
	<line class="st10" x1="22.75" y1="78.47" x2="54.93" y2="78.47"/>
</g>
<g>
	<g>
		<polygon class="st0" points="159.15,98.62 93.75,98.62 93.75,9.8 136.98,9.8 148.07,20.89 159.15,31.97 		"/>
		<polyline class="st0" points="136.98,9.8 136.98,31.51 159.15,31.51 		"/>
	</g>
	<line class="st0" x1="109.53" y1="51.84" x2="141.7" y2="51.84"/>
	<line class="st10" x1="109.25" y1="65.16" x2="141.43" y2="65.16"/>
	<line class="st10" x1="109.25" y1="78.47" x2="141.43" y2="78.47"/>
</g>
<polyline class="st0" points="111.35,29.57 117.24,33.88 124.65,22.14 "/>
<g>
	<line class="st0" x1="36.57" y1="21.58" x2="23.72" y2="34.44"/>
	<line class="st0" x1="23.72" y1="21.58" x2="36.57" y2="34.44"/>
</g>
<g>
	<g>
		<g>
			<polygon class="st0" points="-158.81,88.79 -94.39,88.79 -94.39,0 -136.97,0 -147.89,11.08 -158.81,22.16 			"/>
			<polyline class="st0" points="-136.97,0 -136.97,21.7 -158.81,21.7 			"/>
		</g>
	</g>
</g>
<g>
	<g>
		<circle class="st1" cx="-105.82" cy="37.02" r="20.88"/>
		<line class="st1" x1="-90.41" y1="52.43" x2="-82.49" y2="60.35"/>
	</g>
	
		<rect x="-76.31" y="55.14" transform="matrix(0.7071 -0.7071 0.7071 0.7071 -71.9166 -28.6774)" class="st1" width="11.48" height="34.67"/>
</g>
<g>
	<path class="st0" d="M-266.64,54.98c0,0-17.48,41.31-58.39,41.31s-58.39-41.31-58.39-41.31v-0.77c0,0,12.46-21.34,25.4-27.36
		s32.99,4.23,32.99,4.23l0,0c0,0,19.92-10.25,32.87-4.23c12.94,6.02,25.4,27.36,25.4,27.36L-266.64,54.98z"/>
	<path class="st0" d="M-383.43,54.21c0,0,48.67,12.89,116.79,0.77"/>
</g>
<g>
	<path class="st0" d="M-484.36,54.52c0,0-17.47,35.88-58.34,35.88s-58.34-35.88-58.34-35.88s17.47-35.88,58.34-35.88
		S-484.36,54.52-484.36,54.52z"/>
	<circle class="st0" cx="-542.7" cy="53.54" r="17.39"/>
</g>
<g>
	<circle class="st5" cx="2532.58" cy="56.79" r="35.69"/>
	<g>
		<circle class="st6" cx="2518.78" cy="49.73" r="1.7"/>
		<circle class="st6" cx="2546.38" cy="49.73" r="1.7"/>
	</g>
	<path class="st7" d="M2520.06,64.77c6.92,6.92,18.12,6.92,25.04,0"/>
</g>
<g>
	<circle class="st1" cx="2744.1" cy="31.83" r="22.82"/>
	<line class="st1" x1="2744.1" y1="54.65" x2="2744.1" y2="97.99"/>
	<line class="st1" x1="2726" y1="73.84" x2="2762.2" y2="73.84"/>
</g>
<g>
	<circle class="st1" cx="2921.96" cy="73.54" r="22.82"/>
	<line class="st1" x1="2938.17" y1="56.85" x2="2977.81" y2="17.22"/>
	<polyline class="st0" points="2951.38,17.22 2977.81,17.22 2977.81,43.64 	"/>
</g>
</svg>
