<?xml version="1.0" encoding="utf-8"?>
<!-- Generator: Adobe Illustrator 24.2.0, SVG Export Plug-In . SVG Version: 6.00 Build 0)  -->
<svg version="1.1" id="Capa_1" xmlns="http://www.w3.org/2000/svg" xmlns:xlink="http://www.w3.org/1999/xlink" x="0px" y="0px"
	 viewBox="0 0 81.96 102.18" style="enable-background:new 0 0 81.96 102.18;" xml:space="preserve">
<style type="text/css">
	.st0{fill:none;stroke:#000000;stroke-width:6.5;stroke-miterlimit:10;}
	.st1{fill:#FFFFFF;stroke:#000000;stroke-width:6.5;stroke-miterlimit:10;}
	.st2{fill:#FFFFFF;}
	.st3{stroke:#000000;stroke-width:6.5;stroke-miterlimit:10;}
	.st4{fill:#1D1D1B;}
	.st5{fill:#FFFFFF;stroke:#1D1D1B;stroke-width:6.5;stroke-miterlimit:10;}
	.st6{fill:#1D1D1B;stroke:#1D1D1B;stroke-width:6.5;stroke-miterlimit:10;}
	.st7{fill:none;stroke:#1D1D1B;stroke-width:6.5;stroke-miterlimit:10;}
	.st8{fill:#FC5439;stroke:#000000;stroke-width:6.5;stroke-miterlimit:10;}
	.st9{fill:#3A90FD;stroke:#000000;stroke-width:6.5;stroke-miterlimit:10;}
	.st10{fill:#F1CD08;stroke:#000000;stroke-width:6.5;stroke-miterlimit:10;}
</style>
<g>
	<path class="st0" d="M-6317.23,90.81V16.47c0-4.23,3.43-7.65,7.65-7.65h54.6v77.9"/>
	<path class="st0" d="M-6293.66,97.55h38.68V84.06h-55.51c-3.72,0-6.74,3.02-6.74,6.74v0c0,3.72,3.02,6.74,6.74,6.74h1.52"/>
	<rect x="-6299.56" y="29.59" class="st0" width="26.92" height="15.7"/>
	<polygon class="st0" points="-6295.84,110.7 -6301.1,116.01 -6306.36,110.7 -6306.36,93.75 -6295.84,93.75 	"/>
</g>
<polygon class="st0" points="-6647.93,53.43 -6683.61,17.76 -6683.61,33.26 -6740.73,33.26 -6740.73,75 -6683.61,75 -6683.61,89.1 
	"/>
<g>
	<polyline class="st0" points="-6475,26.81 -6451.36,26.81 -6451.36,98.01 -6528.22,98.01 -6528.22,26.81 -6498.09,26.81 	"/>
	<polygon class="st0" points="-6492.73,38.62 -6501.31,30.04 -6480.12,8.85 -6468.58,20.4 -6486.81,38.62 	"/>
	<polyline class="st0" points="-6502.69,38.62 -6492.73,38.62 -6486.81,38.62 -6476.9,38.62 	"/>
</g>
<g>
	<polygon class="st0" points="-6863.15,-0.87 -6939.17,50.69 -6946.9,70.1 -6926.01,70.1 -6849.99,18.54 	"/>
	<line class="st0" x1="-6939.17" y1="50.69" x2="-6926.01" y2="70.1"/>
</g>
<g>
	<g>
		<path class="st1" d="M-6077.34,86.39h24.01c19.62,0,35.53-15.91,35.53-35.53v0c0-19.62-15.91-35.53-35.53-35.53l-3.72,0h-78.89
			c-4.91,0-8.88,3.98-8.88,8.88v0c0,4.91,3.98,8.88,8.88,8.88h68.05v0"/>
		<path class="st1" d="M-6067.89,33.1h-21.1c-4.9,0-8.88,3.98-8.88,8.88v0c0,4.91,3.98,8.88,8.88,8.88h19.4h1.7
			c4.91,0,8.88-3.98,8.88-8.88v0C-6059.01,37.08-6062.99,33.1-6067.89,33.1z"/>
		<path class="st1" d="M-6067.26,50.86h-21.09c-4.91,0-8.88,3.98-8.88,8.88v0c0,4.91,3.98,8.88,8.88,8.88h19.4h1.7
			c4.91,0,8.88-3.98,8.88-8.88v0C-6058.38,54.84-6062.35,50.86-6067.26,50.86z"/>
		<path class="st1" d="M-6067.26,68.63h-21.09c-4.91,0-8.88,3.98-8.88,8.88v0c0,4.91,3.98,8.88,8.88,8.88h19.4h1.7
			c4.91,0,8.88-3.98,8.88-8.88v0C-6058.38,72.6-6062.35,68.63-6067.26,68.63z"/>
	</g>
	<path class="st1" d="M-6053.81,17.21l-11.69,23.48c-2.15,4.41-0.32,9.73,4.09,11.88v0c4.41,2.15,9.73,0.32,11.88-4.09l8.54-17.14"
		/>
</g>
<g>
	<ellipse class="st2" cx="-5872.08" cy="56.44" rx="28.07" ry="18.08"/>
	<g>
		<path class="st1" d="M-5852.71,51.71V37.08c0-3.72,3.01-6.73,6.73-6.73h0c3.71,0,6.73,3.01,6.73,6.73v22.75
			c0,18.59-15.07,33.66-33.66,33.66l0,0c-18.59,0-33.66-15.07-33.66-33.66V36.72l0,0c7.43,0,13.45,6.02,13.45,13.45v8.75l0,0
			c7.42,0,13.44,6.02,13.44,13.44v0.83"/>
		<path class="st1" d="M-5852.78,51.71V18.94c0-3.72-3.01-6.73-6.73-6.73l0,0c-3.72,0-6.73,3.01-6.73,6.73v25.15"/>
		<path class="st1" d="M-5866.23,47.88V12.11c0-3.72-3.01-6.73-6.73-6.73l0,0c-3.72,0-6.73,3.01-6.73,6.73v25.15"/>
		<path class="st1" d="M-5879.69,47.1V17.33c0-3.72-3.01-6.73-6.73-6.73l0,0c-3.72,0-6.73,3.01-6.73,6.73v37.79"/>
	</g>
</g>
<g>
	<line class="st0" x1="-5686.8" y1="-162.91" x2="-5610.24" y2="-181.89"/>
	<circle class="st1" cx="-5686.8" cy="-162.91" r="25.98"/>
	<line class="st0" x1="-5533.44" y1="-162.9" x2="-5609.99" y2="-181.88"/>
	<circle class="st1" cx="-5533.44" cy="-162.91" r="25.98"/>
	<circle class="st1" cx="-5610.24" cy="-181.89" r="25.98"/>
</g>
<g>
	<circle class="st0" cx="-5464.27" cy="47.88" r="35.6"/>
	<g>
		<circle class="st3" cx="-5478.04" cy="40.84" r="1.69"/>
		<circle class="st3" cx="-5450.5" cy="40.84" r="1.69"/>
	</g>
	<path class="st0" d="M-5476.76,55.84c6.9,6.9,18.07,6.9,24.98,0"/>
</g>
<g>
	<line class="st0" x1="-5231.46" y1="15.24" x2="-5231.46" y2="87.09"/>
	<line class="st0" x1="-5301.78" y1="51.16" x2="-5352.69" y2="51.16"/>
	<line class="st0" x1="-5191.85" y1="51.16" x2="-5242.77" y2="51.16"/>
	<rect x="-5321.17" y="31.91" class="st1" width="89.71" height="38.51"/>
	<line class="st0" x1="-5193.47" y1="35.4" x2="-5193.47" y2="66.93"/>
	<line class="st0" x1="-5279.95" y1="32.65" x2="-5279.95" y2="47.6"/>
	<line class="st0" x1="-5266.32" y1="33.86" x2="-5266.32" y2="55.28"/>
</g>
<circle class="st1" cx="-2620.15" cy="53.08" r="35.26"/>
<g>
	<rect x="-5095.28" y="5.03" class="st1" width="70.6" height="50.69"/>
	<line class="st1" x1="-5095.28" y1="-2.69" x2="-5095.28" y2="86.7"/>
	<rect x="-5095.28" y="30.38" class="st1" width="70.6" height="25.35"/>
	<rect x="-5095.28" y="5.03" class="st1" width="25.35" height="25.35"/>
</g>
<g transform="translate(0,-952.36218)">
	<path class="st1" d="M-4886.34,1026.23c0,18.4,13.01,33.32,29.05,33.32c16.03,0,29.05-14.92,29.05-33.32
		c0-18.4-13.96-38.93-29.05-56.24C-4857.29,969.99-4886.34,1003.01-4886.34,1026.23z"/>
</g>
<g>
	<polyline class="st1" points="-4709.36,48.3 -4664.62,3.57 -4619.89,48.3 	"/>
	<path class="st1" d="M-4664.62,40.55"/>
	<polygon class="st1" points="-4634.33,92.2 -4694.91,92.2 -4694.91,33.89 -4664.62,3.57 -4634.33,33.89 	"/>
	<polyline class="st0" points="-4677.74,92.2 -4677.74,56.85 -4651.51,56.85 -4651.51,92.2 	"/>
</g>
<g>
	<circle class="st1" cx="-3224.37" cy="53.43" r="35.29"/>
	<polyline class="st1" points="-3237.93,53.05 -3229.75,62.85 -3210.82,44.01 	"/>
</g>
<g>
	<g>
		<g>
			<rect x="-4483.83" y="22.63" class="st0" width="69.54" height="69.54"/>
			<g>
				<line class="st1" x1="-4468.92" y1="11.83" x2="-4468.92" y2="33.42"/>
				<line class="st1" x1="-4429.21" y1="11.83" x2="-4429.21" y2="33.42"/>
			</g>
		</g>
		<line class="st1" x1="-4483.83" y1="45.33" x2="-4414.29" y2="45.33"/>
	</g>
	<g>
		<path class="st4" d="M-4448.46,57.58v4.07l-6.81,5.54v0.42h0.91c3.4,0,6.46,2.35,6.46,6.81c0,4.98-3.79,8.21-9.26,8.21
			c-5.86,0-9.4-3.47-9.4-8.35V73.3h4.63v0.84c0,2.39,1.65,4.35,4.77,4.35c2.91,0,4.63-1.72,4.63-4.07s-1.65-3.51-4-3.51h-4.28v-4.14
			l6.07-4.98h-11.12v-4.21H-4448.46z"/>
		<path class="st4" d="M-4433.09,57.58v24.56h-4.63V62.49h-0.42l-3.44,6.18h-4.84l6.32-11.09H-4433.09z"/>
	</g>
</g>
<g>
	<g>
		<circle class="st1" cx="-4246.73" cy="57.35" r="34.11"/>
		<g>
			<path class="st1" d="M-4252.21,24c-15.63,19.6-15.53,47.58,0.29,67.07"/>
			<path class="st1" d="M-4240.32,23.99c15.48,19.42,15.53,47.05,0.16,66.52"/>
		</g>
		<line class="st1" x1="-4280.84" y1="57.35" x2="-4212.63" y2="57.35"/>
		<line class="st1" x1="-4246.26" y1="23.44" x2="-4246.26" y2="91.26"/>
	</g>
</g>
<g>
	<circle class="st1" cx="-4054.26" cy="33.7" r="22.82"/>
	<line class="st1" x1="-4054.26" y1="56.52" x2="-4054.26" y2="99.86"/>
	<line class="st1" x1="-4072.36" y1="75.71" x2="-4036.16" y2="75.71"/>
</g>
<g>
	<circle class="st1" cx="-3841.79" cy="44.26" r="22.82"/>
	<line class="st1" x1="-3825.58" y1="27.57" x2="-3785.94" y2="-12.07"/>
	<polyline class="st0" points="-3812.36,-12.07 -3785.94,-12.07 -3785.94,14.36 	"/>
</g>
<path class="st1" d="M-3588.01,60.77V48.73l-36.59-13.14l0.48-18.57c0.09-2.9-1.09-5.69-3.23-7.65v0
	c-3.79-3.47-9.61-3.48-13.41-0.01l-0.01,0.01c-2.15,1.96-3.34,4.76-3.24,7.66l0.48,18.55l-33.67,12.17v12.04l34.33-6.35l1.48,23.62
	l-12.3,10.06v8.46l20.03-9.74l20.03,9.74v-8.46l-13.09-10.58l1.44-22.86L-3588.01,60.77z"/>
<g>
	<g>
		<g>
			<g>
				<g>
					<g>
						<rect x="-2243.77" y="33.93" class="st2" width="79.95" height="61.47"/>
						<rect x="-2243.77" y="33.93" class="st0" width="79.95" height="61.47"/>
					</g>
				</g>
			</g>
		</g>
		<path class="st1" d="M-2184.68,83.21h-38.24c-4.08,0-7.39-3.31-7.39-7.39V53.51c0-4.08,3.31-7.39,7.39-7.39h38.24
			c4.08,0,7.39,3.31,7.39,7.39v22.31C-2177.29,79.9-2180.6,83.21-2184.68,83.21z"/>
		<g>
			<line class="st1" x1="-2229.38" y1="7.49" x2="-2203.21" y2="33.65"/>
			<line class="st1" x1="-2178.21" y1="7.49" x2="-2204.38" y2="33.65"/>
		</g>
	</g>
</g>
<g>
	<polygon class="st1" points="-3396.04,96.06 -3460.94,96.06 -3460.94,7.94 -3418.04,7.94 -3407.04,18.94 -3396.04,29.94 	"/>
	<polyline class="st1" points="-3418.04,7.94 -3418.04,29.48 -3396.04,29.48 	"/>
</g>
<g>
	
		<rect x="-2836.21" y="36.36" transform="matrix(-1.836970e-16 1 -1 -1.836970e-16 -2771.7432 2888.2783)" class="st1" width="12.39" height="43.82"/>
	<rect x="-2853.14" y="7.64" class="st1" width="12.39" height="88.26"/>
	<rect x="-2814.73" y="52.07" class="st1" width="12.39" height="43.82"/>
</g>
<g>
	<g>
		<polygon class="st1" points="-2987.73,95.21 -3052.79,95.21 -3052.79,6.86 -3009.78,6.86 -2998.75,17.89 -2987.73,28.91 		"/>
		<polyline class="st1" points="-3009.78,6.86 -3009.78,28.45 -2987.73,28.45 		"/>
	</g>
	<line class="st1" x1="-3037.09" y1="48.68" x2="-3005.08" y2="48.68"/>
	<line class="st1" x1="-3037.37" y1="61.92" x2="-3005.36" y2="61.92"/>
	<line class="st1" x1="-3037.37" y1="75.17" x2="-3005.36" y2="75.17"/>
</g>
<g>
	<g>
		<path class="st4" d="M-2610.13,58.16v0.37c0,4.38-3.02,7.11-7.37,7.77v3.94h-4.42v-3.9c-5.08-0.7-8.25-3.98-8.25-9.28v-0.81h4.86
			v0.59c0,2.39,1.07,4.13,3.39,4.79v-7c-4.68-1.14-7.29-3.13-7.29-7.37v-0.22c0-4.02,3.09-6.67,7.29-7.26v-3.87h4.42v4.01
			c4.16,0.81,7,3.65,7,7.92v1.11h-4.86v-0.74c0-1.84-0.77-2.95-2.14-3.54v6.15C-2612.74,51.97-2610.13,53.96-2610.13,58.16z
			 M-2621.91,49.84v-5.38c-1.47,0.44-2.36,1.44-2.36,2.65C-2624.27,48.62-2623.35,49.32-2621.91,49.84z M-2615.06,58.53
			c0-1.47-0.85-2.28-2.43-2.84v5.93C-2615.87,61.07-2615.06,59.86-2615.06,58.53z"/>
	</g>
</g>
<g>
	<circle class="st5" cx="221.04" cy="-208.86" r="35.69"/>
	<g>
		<circle class="st6" cx="207.24" cy="-215.91" r="1.7"/>
		<circle class="st6" cx="234.84" cy="-215.91" r="1.7"/>
	</g>
	<path class="st7" d="M208.52-200.88c6.92,6.92,18.12,6.92,25.04,0"/>
</g>
<g>
	<circle class="st5" cx="284.9" cy="-208.86" r="35.69"/>
	<g>
		<circle class="st6" cx="271.1" cy="-215.91" r="1.7"/>
		<circle class="st6" cx="298.7" cy="-215.91" r="1.7"/>
	</g>
	<path class="st7" d="M272.38-200.88c6.92,6.92,18.12,6.92,25.04,0"/>
</g>
<g>
	<circle class="st5" cx="348.76" cy="-208.86" r="35.69"/>
	<g>
		<circle class="st6" cx="334.96" cy="-215.91" r="1.7"/>
		<circle class="st6" cx="362.56" cy="-215.91" r="1.7"/>
	</g>
	<path class="st7" d="M336.24-200.88c6.92,6.92,18.12,6.92,25.04,0"/>
</g>
<polygon class="st1" points="-2400,70.76 -2382.04,88.4 -2382.04,70.76 -2364.4,70.76 -2382.04,52.8 -2364.4,34.84 -2382.04,34.84 
	-2382.04,17.2 -2400,34.84 -2417.97,17.2 -2417.97,34.84 -2435.6,34.84 -2417.97,52.8 -2435.6,70.76 -2417.97,70.76 -2417.97,88.4 
	"/>
<path class="st0" d="M640,28.53c-19.42-11.08-39.69,1.39-38.74,22.03c1.04,22.68,19.59,51.75,37.54,44.64
	c2.43-0.97,5.14-0.97,7.57,0c17.95,7.11,36.49-21.97,37.54-44.64c0.95-20.59-19.24-33.06-38.63-22.09L640,28.53z"/>
<path class="st0" d="M649.69,7.25c-8.08,8.08-9.27,20.42-3.57,29.75"/>
<path class="st0" d="M855.11,11.26c-15.65,1.49-19.56,16.36-22.4,32.85c-0.54,3.15-2.3,6.02-4.34,9.34
	c-3.7,6.02-8.29,13.51-5.89,25.26c1.08,5.52,4.51,10.3,9.39,13.1c6.38,3.78,15.19,4.62,22.99,2.21c1.59-0.51,3.3-0.44,4.84,0.2
	c3.02,1.27,6.28,1.91,9.56,1.88c3.96,0.01,7.88-0.85,11.47-2.52c6.07-2.82,10.57-8.21,12.26-14.69c3.27-11.72-1.68-19.37-5.65-25.52
	c-2.06-3.18-4-6.18-4.53-9.27c-2.83-16.42-6.72-31.25-22.22-32.84L855.11,11.26z"/>
<path class="st0" d="M863.86-5.62c-8.32,8.32-10.13,20.68-5.43,30.75"/>
<g>
	<rect x="-620.46" y="16.17" class="st1" width="99.16" height="71.2"/>
	<rect x="-620.46" y="51.77" class="st8" width="99.16" height="35.6"/>
	<rect x="-620.46" y="16.17" class="st9" width="35.6" height="35.6"/>
</g>
<polygon class="st1" points="469.13,88.87 418.09,96.56 418.09,7.69 469.13,0 "/>
<rect x="418.09" y="8.65" class="st1" width="63.23" height="88.87"/>
<g>
	<polygon class="st0" points="-183,102.42 -183,113.57 -194.16,102.42 -214.08,102.42 -214.08,12.13 -118.01,12.13 -118.01,102.42 	
		"/>
</g>
<g>
	<g>
		<circle class="st0" cx="-391.29" cy="39.53" r="20.4"/>
		<line class="st0" x1="-376.24" y1="54.58" x2="-368.5" y2="62.32"/>
	</g>
	
		<rect x="-362.46" y="57.23" transform="matrix(0.7071 -0.7071 0.7071 0.7071 -156.9609 -230.6152)" class="st0" width="11.21" height="33.86"/>
</g>
<g>
	<path class="st0" d="M-775.92,45.29c-0.63,4.55-2.69,8.93-6.18,12.43c-8.52,8.52-22.33,8.52-30.85,0c-8.52-8.52-8.52-22.33,0-30.85
		c8.52-8.52,22.33-8.52,30.85,0C-777.08,31.89-775.02,38.75-775.92,45.29"/>
	<polyline class="st0" points="-774.92,45.13 -741.67,83.36 -755.14,96.83 -793.38,63.58 	"/>
	<line class="st0" x1="-748.94" y1="90.62" x2="-730.64" y2="108.92"/>
	<line class="st0" x1="-812.96" y1="57.72" x2="-782.9" y2="27.66"/>
</g>
<g>
	<rect x="8.82" y="7.44" class="st0" width="65.29" height="88.66"/>
	<g>
		<polyline class="st0" points="21.31,30.44 27.2,34.73 34.6,23.02 		"/>
		<polyline class="st0" points="48.34,54.09 54.22,58.39 61.62,46.67 		"/>
		<g>
			<line class="st0" x1="61.39" y1="24.2" x2="48.57" y2="37.03"/>
			<line class="st0" x1="48.57" y1="24.2" x2="61.39" y2="37.03"/>
		</g>
		<g>
			<line class="st0" x1="34.37" y1="67.69" x2="21.54" y2="80.52"/>
			<line class="st0" x1="21.54" y1="67.69" x2="34.37" y2="80.52"/>
		</g>
		<line class="st0" x1="22.11" y1="52.53" x2="33.8" y2="52.53"/>
		<line class="st0" x1="49.13" y1="74.11" x2="60.83" y2="74.11"/>
	</g>
</g>
<polygon class="st0" points="-979.11,19.02 -967.54,42.46 -941.68,46.21 -960.39,64.46 -955.97,90.22 -979.11,78.05 -1002.24,90.22 
	-997.82,64.46 -1016.54,46.21 -990.67,42.46 "/>
<g>
	<rect x="-1241.29" y="27.01" class="st0" width="116.13" height="71.69"/>
	<polyline class="st0" points="-1241.18,27.01 -1182.42,62.85 -1125.26,27.01 	"/>
</g>
<g>
	<g>
		<polygon class="st0" points="-1397.89,98.55 -1463.29,98.55 -1463.29,9.73 -1420.05,9.73 -1408.97,20.82 -1397.89,31.9 		"/>
		<polyline class="st0" points="-1420.05,9.73 -1420.05,31.44 -1397.89,31.44 		"/>
	</g>
	<line class="st0" x1="-1447.51" y1="51.77" x2="-1415.33" y2="51.77"/>
	<line class="st10" x1="-1447.79" y1="65.09" x2="-1415.61" y2="65.09"/>
	<line class="st10" x1="-1447.79" y1="78.4" x2="-1415.61" y2="78.4"/>
</g>
<g>
	<g>
		<polygon class="st0" points="-1311.38,98.55 -1376.79,98.55 -1376.79,9.73 -1333.55,9.73 -1322.47,20.82 -1311.38,31.9 		"/>
		<polyline class="st0" points="-1333.55,9.73 -1333.55,31.44 -1311.38,31.44 		"/>
	</g>
	<line class="st0" x1="-1361.01" y1="51.77" x2="-1328.83" y2="51.77"/>
	<line class="st10" x1="-1361.29" y1="65.09" x2="-1329.11" y2="65.09"/>
	<line class="st10" x1="-1361.29" y1="78.4" x2="-1329.11" y2="78.4"/>
</g>
<polyline class="st0" points="-1359.19,29.5 -1353.3,33.81 -1345.88,22.07 "/>
<g>
	<line class="st0" x1="-1433.97" y1="21.51" x2="-1446.82" y2="34.37"/>
	<line class="st0" x1="-1446.82" y1="21.51" x2="-1433.97" y2="34.37"/>
</g>
<g>
	<g>
		<g>
			<polygon class="st0" points="-1629.34,88.72 -1564.93,88.72 -1564.93,-0.07 -1607.51,-0.07 -1618.43,11.01 -1629.34,22.09 			"/>
			<polyline class="st0" points="-1607.51,-0.07 -1607.51,21.63 -1629.34,21.63 			"/>
		</g>
	</g>
</g>
<g>
	<g>
		<circle class="st1" cx="-1576.36" cy="36.95" r="20.88"/>
		<line class="st1" x1="-1560.95" y1="52.36" x2="-1553.03" y2="60.28"/>
	</g>
	
		<rect x="-1546.85" y="55.07" transform="matrix(0.7071 -0.7071 0.7071 0.7071 -502.577 -1068.5237)" class="st1" width="11.48" height="34.67"/>
</g>
<g>
	<path class="st0" d="M-1737.18,54.91c0,0-17.48,41.31-58.39,41.31s-58.39-41.31-58.39-41.31v-0.77c0,0,12.46-21.34,25.4-27.36
		s32.99,4.23,32.99,4.23l0,0c0,0,19.92-10.25,32.87-4.23c12.94,6.02,25.4,27.36,25.4,27.36L-1737.18,54.91z"/>
	<path class="st0" d="M-1853.96,54.14c0,0,48.67,12.89,116.79,0.77"/>
</g>
<g>
	<path class="st0" d="M-1954.9,54.45c0,0-17.47,35.88-58.34,35.88s-58.34-35.88-58.34-35.88s17.47-35.88,58.34-35.88
		S-1954.9,54.45-1954.9,54.45z"/>
	<circle class="st0" cx="-2013.23" cy="53.47" r="17.39"/>
</g>
<g>
	<circle class="st5" cx="1062.04" cy="56.72" r="35.69"/>
	<g>
		<circle class="st6" cx="1048.24" cy="49.66" r="1.7"/>
		<circle class="st6" cx="1075.84" cy="49.66" r="1.7"/>
	</g>
	<path class="st7" d="M1049.52,64.7c6.92,6.92,18.12,6.92,25.04,0"/>
</g>
<g>
	<circle class="st1" cx="1273.56" cy="31.76" r="22.82"/>
	<line class="st1" x1="1273.56" y1="54.58" x2="1273.56" y2="97.92"/>
	<line class="st1" x1="1255.47" y1="73.77" x2="1291.66" y2="73.77"/>
</g>
<g>
	<circle class="st1" cx="1451.42" cy="73.47" r="22.82"/>
	<line class="st1" x1="1467.64" y1="56.78" x2="1507.27" y2="17.15"/>
	<polyline class="st0" points="1480.85,17.15 1507.27,17.15 1507.27,43.57 	"/>
</g>
</svg>
