<?xml version="1.0" encoding="utf-8"?>
<!-- Generator: Adobe Illustrator 24.2.0, SVG Export Plug-In . SVG Version: 6.00 Build 0)  -->
<svg version="1.1" id="Capa_1" xmlns="http://www.w3.org/2000/svg" xmlns:xlink="http://www.w3.org/1999/xlink" x="0px" y="0px"
	 viewBox="0 0 219.31 81" style="enable-background:new 0 0 219.31 81;" xml:space="preserve">
<style type="text/css">
	.st0{fill:none;stroke:#000000;stroke-width:6.5;stroke-miterlimit:10;}
	.st1{fill:#FFFFFF;stroke:#000000;stroke-width:6.5;stroke-miterlimit:10;}
	.st2{fill:#FFFFFF;}
	.st3{stroke:#000000;stroke-width:6.5;stroke-miterlimit:10;}
	.st4{fill:#1D1D1B;}
	.st5{fill:#FFFFFF;stroke:#1D1D1B;stroke-width:6.5;stroke-miterlimit:10;}
	.st6{fill:#1D1D1B;stroke:#1D1D1B;stroke-width:6.5;stroke-miterlimit:10;}
	.st7{fill:none;stroke:#1D1D1B;stroke-width:6.5;stroke-miterlimit:10;}
	.st8{fill:#FC5439;stroke:#000000;stroke-width:6.5;stroke-miterlimit:10;}
	.st9{fill:#3A90FD;stroke:#000000;stroke-width:6.5;stroke-miterlimit:10;}
	.st10{fill:#F1CD08;stroke:#000000;stroke-width:6.5;stroke-miterlimit:10;}
</style>
<g>
	<path class="st0" d="M-598.05,303.95v-74.34c0-4.23,3.43-7.65,7.65-7.65h54.6v77.9"/>
	<path class="st0" d="M-574.48,310.69h38.68V297.2h-55.51c-3.72,0-6.74,3.02-6.74,6.74l0,0c0,3.72,3.02,6.74,6.74,6.74h1.52"/>
	<rect x="-580.38" y="242.73" class="st0" width="26.92" height="15.7"/>
	<polygon class="st0" points="-576.67,323.84 -581.92,329.15 -587.18,323.84 -587.18,306.89 -576.67,306.89 	"/>
</g>
<polygon class="st0" points="-928.75,266.57 -964.43,230.9 -964.43,246.4 -1021.55,246.4 -1021.55,288.14 -964.43,288.14 
	-964.43,302.24 "/>
<g>
	<polyline class="st0" points="-755.82,239.95 -732.18,239.95 -732.18,311.15 -809.04,311.15 -809.04,239.95 -778.91,239.95 	"/>
	<polygon class="st0" points="-773.55,251.76 -782.14,243.18 -760.94,221.99 -749.4,233.54 -767.63,251.76 	"/>
	<polyline class="st0" points="-783.51,251.76 -773.55,251.76 -767.63,251.76 -757.72,251.76 	"/>
</g>
<g>
	<polygon class="st0" points="-1143.98,212.27 -1219.99,263.83 -1227.72,283.24 -1206.83,283.24 -1130.81,231.68 	"/>
	<line class="st0" x1="-1219.99" y1="263.83" x2="-1206.83" y2="283.24"/>
</g>
<g>
	<g>
		<path class="st1" d="M-358.16,299.53h24.01c19.62,0,35.53-15.91,35.53-35.53v0c0-19.62-15.91-35.53-35.53-35.53l-3.72,0h-78.89
			c-4.91,0-8.88,3.98-8.88,8.88v0c0,4.91,3.98,8.88,8.88,8.88h68.05v0"/>
		<path class="st1" d="M-348.72,246.24h-21.1c-4.91,0-8.88,3.98-8.88,8.88v0c0,4.91,3.98,8.88,8.88,8.88h19.4h1.7
			c4.91,0,8.88-3.98,8.88-8.88v0C-339.83,250.22-343.81,246.24-348.72,246.24z"/>
		<path class="st1" d="M-348.08,264h-21.1c-4.91,0-8.88,3.98-8.88,8.88l0,0c0,4.91,3.98,8.88,8.88,8.88h19.4h1.7
			c4.91,0,8.88-3.98,8.88-8.88l0,0C-339.2,267.98-343.17,264-348.08,264z"/>
		<path class="st1" d="M-348.08,281.77h-21.1c-4.91,0-8.88,3.98-8.88,8.88v0c0,4.91,3.98,8.88,8.88,8.88h19.4h1.7
			c4.91,0,8.88-3.98,8.88-8.88v0C-339.2,285.74-343.17,281.77-348.08,281.77z"/>
	</g>
	<path class="st1" d="M-334.63,230.35l-11.69,23.48c-2.15,4.41-0.32,9.73,4.09,11.88l0,0c4.41,2.15,9.73,0.32,11.88-4.09l8.54-17.14
		"/>
</g>
<g>
	<ellipse class="st2" cx="-152.9" cy="269.58" rx="28.07" ry="18.08"/>
	<g>
		<path class="st1" d="M-133.53,264.85v-14.63c0-3.72,3.01-6.73,6.73-6.73h0c3.72,0,6.73,3.01,6.73,6.73v22.75
			c0,18.59-15.07,33.66-33.66,33.66h0c-18.59,0-33.66-15.07-33.66-33.66v-23.11h0c7.43,0,13.45,6.02,13.45,13.45v8.75h0
			c7.42,0,13.44,6.02,13.44,13.44v0.83"/>
		<path class="st1" d="M-133.6,264.85v-32.77c0-3.72-3.01-6.73-6.73-6.73h0c-3.72,0-6.73,3.01-6.73,6.73v25.15"/>
		<path class="st1" d="M-147.06,261.02v-35.77c0-3.72-3.01-6.73-6.73-6.73h0c-3.72,0-6.73,3.01-6.73,6.73v25.15"/>
		<path class="st1" d="M-160.51,260.24v-29.77c0-3.72-3.01-6.73-6.73-6.73h0c-3.72,0-6.73,3.01-6.73,6.73v37.79"/>
	</g>
</g>
<g>
	<line class="st0" x1="32.38" y1="50.23" x2="108.94" y2="31.25"/>
	<circle class="st1" cx="32.38" cy="50.23" r="25.98"/>
	<line class="st0" x1="185.74" y1="50.24" x2="109.18" y2="31.26"/>
	<circle class="st1" cx="185.74" cy="50.23" r="25.98"/>
	<circle class="st1" cx="108.94" cy="31.25" r="25.98"/>
</g>
<g>
	<circle class="st0" cx="254.91" cy="261.02" r="35.6"/>
	<g>
		<circle class="st3" cx="241.14" cy="253.98" r="1.69"/>
		<circle class="st3" cx="268.68" cy="253.98" r="1.69"/>
	</g>
	<path class="st0" d="M242.42,268.98c6.9,6.9,18.07,6.9,24.98,0"/>
</g>
<g>
	<line class="st0" x1="494.47" y1="225.1" x2="494.47" y2="296.95"/>
	<line class="st0" x1="424.15" y1="261.02" x2="373.23" y2="261.02"/>
	<line class="st0" x1="534.07" y1="261.02" x2="483.15" y2="261.02"/>
	<rect x="404.76" y="241.77" class="st1" width="89.71" height="38.51"/>
	<line class="st0" x1="532.46" y1="245.26" x2="532.46" y2="276.78"/>
	<line class="st0" x1="445.98" y1="242.51" x2="445.98" y2="257.46"/>
	<line class="st0" x1="459.61" y1="243.72" x2="459.61" y2="265.14"/>
</g>
<circle class="st1" cx="3099.03" cy="264.33" r="35.26"/>
<g>
	<rect x="623.9" y="218.17" class="st1" width="70.6" height="50.69"/>
	<line class="st1" x1="623.9" y1="210.45" x2="623.9" y2="299.84"/>
	<rect x="623.9" y="243.52" class="st1" width="70.6" height="25.35"/>
	<rect x="623.9" y="218.17" class="st1" width="25.35" height="25.35"/>
</g>
<g transform="translate(0,-952.36218)">
	<path class="st1" d="M832.84,1239.37c0,18.4,13.01,33.32,29.05,33.32c16.03,0,29.05-14.92,29.05-33.32s-13.96-38.93-29.05-56.24
		C861.88,1183.13,832.84,1216.15,832.84,1239.37z"/>
</g>
<g>
	<polyline class="st1" points="1009.82,261.44 1054.55,216.71 1099.29,261.44 	"/>
	<path class="st1" d="M1054.55,253.69"/>
	<polygon class="st1" points="1084.84,305.34 1024.26,305.34 1024.26,247.03 1054.55,216.71 1084.84,247.03 	"/>
	<polyline class="st0" points="1041.44,305.34 1041.44,269.99 1067.67,269.99 1067.67,305.34 	"/>
</g>
<g>
	<circle class="st1" cx="2494.8" cy="266.57" r="35.29"/>
	<polyline class="st1" points="2481.25,266.19 2489.43,275.99 2508.36,257.15 	"/>
</g>
<g>
	<g>
		<g>
			<rect x="1235.34" y="235.77" class="st0" width="69.54" height="69.54"/>
			<g>
				<line class="st1" x1="1250.26" y1="224.97" x2="1250.26" y2="246.56"/>
				<line class="st1" x1="1289.97" y1="224.97" x2="1289.97" y2="246.56"/>
			</g>
		</g>
		<line class="st1" x1="1235.34" y1="258.47" x2="1304.88" y2="258.47"/>
	</g>
	<g>
		<path class="st4" d="M1270.72,270.72v4.07l-6.81,5.54v0.42h0.91c3.4,0,6.46,2.35,6.46,6.81c0,4.98-3.79,8.21-9.26,8.21
			c-5.86,0-9.4-3.47-9.4-8.35v-0.98h4.63v0.84c0,2.39,1.65,4.35,4.77,4.35c2.91,0,4.63-1.72,4.63-4.07c0-2.35-1.65-3.51-4-3.51
			h-4.28v-4.14l6.07-4.98h-11.12v-4.21H1270.72z"/>
		<path class="st4" d="M1286.09,270.72v24.56h-4.63v-19.65h-0.42l-3.44,6.18h-4.84l6.32-11.09H1286.09z"/>
	</g>
</g>
<g>
	<g>
		<circle class="st1" cx="1472.45" cy="270.49" r="34.11"/>
		<g>
			<path class="st1" d="M1466.97,237.13c-15.63,19.6-15.53,47.58,0.29,67.07"/>
			<path class="st1" d="M1478.86,237.13c15.48,19.42,15.53,47.05,0.16,66.52"/>
		</g>
		<line class="st1" x1="1438.34" y1="270.49" x2="1506.55" y2="270.49"/>
		<line class="st1" x1="1472.92" y1="236.58" x2="1472.92" y2="304.4"/>
	</g>
</g>
<g>
	<circle class="st1" cx="1664.92" cy="247.63" r="22.82"/>
	<line class="st1" x1="1664.92" y1="270.45" x2="1664.92" y2="313.79"/>
	<line class="st1" x1="1646.82" y1="289.64" x2="1683.02" y2="289.64"/>
</g>
<g>
	<circle class="st1" cx="1877.39" cy="257.4" r="22.82"/>
	<line class="st1" x1="1893.6" y1="240.71" x2="1933.24" y2="201.07"/>
	<polyline class="st0" points="1906.81,201.07 1933.24,201.07 1933.24,227.5 	"/>
</g>
<path class="st1" d="M2131.17,273.91v-12.04l-36.59-13.14l0.48-18.57c0.09-2.9-1.09-5.69-3.23-7.65v0
	c-3.79-3.47-9.61-3.48-13.41-0.01l-0.01,0.01c-2.15,1.96-3.34,4.76-3.24,7.66l0.48,18.55l-33.67,12.17v12.04l34.33-6.35l1.48,23.62
	l-12.3,10.06v8.46l20.03-9.74l20.03,9.74v-8.46l-13.09-10.58l1.45-22.86L2131.17,273.91z"/>
<g>
	<g>
		<g>
			<g>
				<g>
					<g>
						<rect x="3475.4" y="245.28" class="st2" width="79.95" height="61.47"/>
						<rect x="3475.4" y="245.28" class="st0" width="79.95" height="61.47"/>
					</g>
				</g>
			</g>
		</g>
		<path class="st1" d="M3534.5,294.55h-38.24c-4.08,0-7.39-3.31-7.39-7.39v-22.31c0-4.08,3.31-7.39,7.39-7.39h38.24
			c4.08,0,7.39,3.31,7.39,7.39v22.31C3541.89,291.24,3538.58,294.55,3534.5,294.55z"/>
		<g>
			<line class="st1" x1="3489.79" y1="218.83" x2="3515.96" y2="245"/>
			<line class="st1" x1="3540.97" y1="218.83" x2="3514.8" y2="245"/>
		</g>
	</g>
</g>
<g>
	<polygon class="st1" points="2323.14,309.2 2258.24,309.2 2258.24,221.08 2301.14,221.08 2312.14,232.08 2323.14,243.07 	"/>
	<polyline class="st1" points="2301.14,221.08 2301.14,242.62 2323.14,242.62 	"/>
</g>
<g>
	
		<rect x="2882.97" y="249.5" transform="matrix(-1.836970e-16 1 -1 -1.836970e-16 3160.5747 -2617.761)" class="st1" width="12.39" height="43.82"/>
	<rect x="2866.04" y="220.78" class="st1" width="12.39" height="88.26"/>
	<rect x="2904.45" y="265.21" class="st1" width="12.39" height="43.82"/>
</g>
<g>
	<g>
		<polygon class="st1" points="2731.45,306.62 2666.39,306.62 2666.39,218.28 2709.4,218.28 2720.42,229.3 2731.45,240.33 		"/>
		<polyline class="st1" points="2709.4,218.28 2709.4,239.87 2731.45,239.87 		"/>
	</g>
	<line class="st1" x1="2682.09" y1="260.09" x2="2714.1" y2="260.09"/>
	<line class="st1" x1="2681.81" y1="273.34" x2="2713.82" y2="273.34"/>
	<line class="st1" x1="2681.81" y1="286.58" x2="2713.82" y2="286.58"/>
</g>
<g>
	<g>
		<path class="st4" d="M3109.05,269.42v0.37c0,4.38-3.02,7.11-7.37,7.77v3.94h-4.42v-3.9c-5.08-0.7-8.25-3.98-8.25-9.28v-0.81h4.86
			v0.59c0,2.39,1.07,4.13,3.39,4.79v-7c-4.68-1.14-7.29-3.13-7.29-7.37v-0.22c0-4.02,3.09-6.67,7.29-7.26v-3.87h4.42v4.01
			c4.16,0.81,7,3.65,7,7.92v1.11h-4.86v-0.74c0-1.84-0.77-2.95-2.14-3.54v6.15C3106.44,263.23,3109.05,265.22,3109.05,269.42z
			 M3097.26,261.09v-5.38c-1.47,0.44-2.36,1.44-2.36,2.65C3094.91,259.88,3095.83,260.58,3097.26,261.09z M3104.12,269.79
			c0-1.47-0.85-2.28-2.43-2.84v5.93C3103.31,272.33,3104.12,271.11,3104.12,269.79z"/>
	</g>
</g>
<g>
	<circle class="st5" cx="5940.22" cy="4.28" r="35.69"/>
	<g>
		<circle class="st6" cx="5926.41" cy="-2.78" r="1.7"/>
		<circle class="st6" cx="5954.02" cy="-2.78" r="1.7"/>
	</g>
	<path class="st7" d="M5927.7,12.26c6.92,6.92,18.12,6.92,25.04,0"/>
</g>
<g>
	<circle class="st5" cx="6004.08" cy="4.28" r="35.69"/>
	<g>
		<circle class="st6" cx="5990.27" cy="-2.78" r="1.7"/>
		<circle class="st6" cx="6017.88" cy="-2.78" r="1.7"/>
	</g>
	<path class="st7" d="M5991.56,12.26c6.92,6.92,18.12,6.92,25.04,0"/>
</g>
<g>
	<circle class="st5" cx="6067.94" cy="4.28" r="35.69"/>
	<g>
		<circle class="st6" cx="6054.13" cy="-2.78" r="1.7"/>
		<circle class="st6" cx="6081.74" cy="-2.78" r="1.7"/>
	</g>
	<path class="st7" d="M6055.42,12.26c6.92,6.92,18.12,6.92,25.04,0"/>
</g>
<polygon class="st1" points="3319.17,283.9 3337.14,301.54 3337.14,283.9 3354.77,283.9 3337.14,265.94 3354.77,247.98 
	3337.14,247.98 3337.14,230.34 3319.17,247.98 3301.21,230.34 3301.21,247.98 3283.57,247.98 3301.21,265.94 3283.57,283.9 
	3301.21,283.9 3301.21,301.54 "/>
<path class="st0" d="M6359.18,241.67c-19.42-11.08-39.69,1.39-38.74,22.03c1.04,22.68,19.59,51.75,37.54,44.64
	c2.43-0.97,5.14-0.97,7.57,0c17.95,7.11,36.5-21.97,37.54-44.64c0.95-20.59-19.24-33.06-38.63-22.09L6359.18,241.67z"/>
<path class="st0" d="M6368.87,220.39c-8.08,8.08-9.27,20.42-3.57,29.75"/>
<path class="st0" d="M6574.28,224.4c-15.65,1.49-19.56,16.36-22.4,32.85c-0.54,3.15-2.3,6.02-4.34,9.34
	c-3.7,6.02-8.29,13.51-5.89,25.26c1.08,5.52,4.51,10.3,9.39,13.1c6.38,3.78,15.19,4.62,22.99,2.21c1.59-0.51,3.3-0.44,4.84,0.2
	c3.02,1.27,6.28,1.91,9.56,1.88c3.96,0.01,7.88-0.85,11.47-2.52c6.07-2.82,10.57-8.21,12.26-14.69c3.27-11.72-1.68-19.37-5.65-25.52
	c-2.06-3.18-4-6.18-4.53-9.27c-2.83-16.42-6.72-31.25-22.22-32.84L6574.28,224.4z"/>
<path class="st0" d="M6583.04,207.52c-8.32,8.32-10.13,20.68-5.43,30.75"/>
<g>
	<rect x="5098.72" y="229.31" class="st1" width="99.16" height="71.2"/>
	<rect x="5098.72" y="264.91" class="st8" width="99.16" height="35.6"/>
	<rect x="5098.72" y="229.31" class="st9" width="35.6" height="35.6"/>
</g>
<polygon class="st1" points="6188.31,302.01 6137.26,309.7 6137.26,220.82 6188.31,213.14 "/>
<rect x="6137.26" y="221.79" class="st1" width="63.23" height="88.87"/>
<g>
	<polygon class="st0" points="5536.18,315.56 5536.18,326.71 5525.02,315.56 5505.1,315.56 5505.1,225.27 5601.17,225.27 
		5601.17,315.56 	"/>
</g>
<g>
	<g>
		<circle class="st0" cx="5327.89" cy="252.67" r="20.4"/>
		<line class="st0" x1="5342.94" y1="267.72" x2="5350.68" y2="275.46"/>
	</g>
	
		<rect x="5356.71" y="270.37" transform="matrix(0.7071 -0.7071 0.7071 0.7071 1367.4354 3875.8818)" class="st0" width="11.21" height="33.86"/>
</g>
<g>
	<path class="st0" d="M4943.26,258.43c-0.63,4.55-2.69,8.93-6.18,12.43c-8.52,8.52-22.33,8.52-30.85,0
		c-8.52-8.52-8.52-22.33,0-30.85c8.52-8.52,22.33-8.52,30.85,0C4942.1,245.03,4944.16,251.89,4943.26,258.43"/>
	<polyline class="st0" points="4944.26,258.26 4977.5,296.5 4964.03,309.97 4925.8,276.72 	"/>
	<line class="st0" x1="4970.24" y1="303.76" x2="4988.54" y2="322.06"/>
	<line class="st0" x1="4906.22" y1="270.86" x2="4936.28" y2="240.79"/>
</g>
<g>
	<rect x="5728" y="220.58" class="st0" width="65.29" height="88.66"/>
	<g>
		<polyline class="st0" points="5740.49,243.58 5746.37,247.87 5753.77,236.16 		"/>
		<polyline class="st0" points="5767.52,267.23 5773.4,271.53 5780.8,259.81 		"/>
		<g>
			<line class="st0" x1="5780.57" y1="237.34" x2="5767.75" y2="250.17"/>
			<line class="st0" x1="5767.75" y1="237.34" x2="5780.57" y2="250.17"/>
		</g>
		<g>
			<line class="st0" x1="5753.55" y1="280.83" x2="5740.72" y2="293.66"/>
			<line class="st0" x1="5740.72" y1="280.83" x2="5753.55" y2="293.66"/>
		</g>
		<line class="st0" x1="5741.29" y1="265.67" x2="5752.98" y2="265.67"/>
		<line class="st0" x1="5768.31" y1="287.25" x2="5780.01" y2="287.25"/>
	</g>
</g>
<polygon class="st0" points="4740.07,232.16 4751.64,255.6 4777.5,259.35 4758.79,277.6 4763.2,303.35 4740.07,291.19 
	4716.94,303.35 4721.36,277.6 4702.64,259.35 4728.5,255.6 "/>
<g>
	<rect x="4477.89" y="240.15" class="st0" width="116.13" height="71.69"/>
	<polyline class="st0" points="4478,240.15 4536.76,275.99 4593.92,240.15 	"/>
</g>
<g>
	<g>
		<polygon class="st0" points="4321.29,311.69 4255.89,311.69 4255.89,222.87 4299.13,222.87 4310.21,233.95 4321.29,245.04 		"/>
		<polyline class="st0" points="4299.13,222.87 4299.13,244.58 4321.29,244.58 		"/>
	</g>
	<line class="st0" x1="4271.67" y1="264.91" x2="4303.85" y2="264.91"/>
	<line class="st10" x1="4271.39" y1="278.22" x2="4303.57" y2="278.22"/>
	<line class="st10" x1="4271.39" y1="291.54" x2="4303.57" y2="291.54"/>
</g>
<g>
	<g>
		<polygon class="st0" points="4407.79,311.69 4342.39,311.69 4342.39,222.87 4385.63,222.87 4396.71,233.95 4407.79,245.04 		"/>
		<polyline class="st0" points="4385.63,222.87 4385.63,244.58 4407.79,244.58 		"/>
	</g>
	<line class="st0" x1="4358.17" y1="264.91" x2="4390.35" y2="264.91"/>
	<line class="st10" x1="4357.89" y1="278.22" x2="4390.07" y2="278.22"/>
	<line class="st10" x1="4357.89" y1="291.54" x2="4390.07" y2="291.54"/>
</g>
<polyline class="st0" points="4359.99,242.64 4365.88,246.95 4373.29,235.21 "/>
<g>
	<line class="st0" x1="4285.21" y1="234.65" x2="4272.36" y2="247.5"/>
	<line class="st0" x1="4272.36" y1="234.65" x2="4285.21" y2="247.5"/>
</g>
<g>
	<g>
		<g>
			<polygon class="st0" points="4089.84,301.86 4154.25,301.86 4154.25,213.07 4111.67,213.07 4100.75,224.15 4089.84,235.23 			"/>
			<polyline class="st0" points="4111.67,213.07 4111.67,234.77 4089.84,234.77 			"/>
		</g>
	</g>
</g>
<g>
	<g>
		<circle class="st1" cx="4142.82" cy="250.09" r="20.88"/>
		<line class="st1" x1="4158.23" y1="265.5" x2="4166.15" y2="273.42"/>
	</g>
	
		<rect x="4172.33" y="268.21" transform="matrix(0.7071 -0.7071 0.7071 0.7071 1021.8193 3037.9734)" class="st1" width="11.48" height="34.67"/>
</g>
<g>
	<path class="st0" d="M3982,268.05c0,0-17.48,41.31-58.39,41.31s-58.39-41.31-58.39-41.31v-0.77c0,0,12.46-21.34,25.4-27.36
		c12.94-6.02,32.99,4.23,32.99,4.23l0,0c0,0,19.92-10.25,32.87-4.23c12.94,6.02,25.4,27.36,25.4,27.36L3982,268.05z"/>
	<path class="st0" d="M3865.22,267.28c0,0,48.67,12.89,116.79,0.77"/>
</g>
<g>
	<path class="st0" d="M3764.28,272.28c0,0-17.47,35.88-58.34,35.88c-40.87,0-58.34-35.88-58.34-35.88s17.47-35.88,58.34-35.88
		C3746.81,236.39,3764.28,272.28,3764.28,272.28z"/>
	<circle class="st0" cx="3705.95" cy="271.29" r="17.39"/>
</g>
<g>
	<circle class="st5" cx="6781.22" cy="269.86" r="35.69"/>
	<g>
		<circle class="st6" cx="6767.42" cy="262.8" r="1.7"/>
		<circle class="st6" cx="6795.02" cy="262.8" r="1.7"/>
	</g>
	<path class="st7" d="M6768.7,277.84c6.92,6.92,18.12,6.92,25.04,0"/>
</g>
<g>
	<circle class="st1" cx="6992.74" cy="244.9" r="22.82"/>
	<line class="st1" x1="6992.74" y1="267.72" x2="6992.74" y2="311.06"/>
	<line class="st1" x1="6974.64" y1="286.91" x2="7010.84" y2="286.91"/>
</g>
<g>
	<circle class="st1" cx="7170.6" cy="286.61" r="22.82"/>
	<line class="st1" x1="7186.81" y1="269.92" x2="7226.45" y2="230.29"/>
	<polyline class="st0" points="7200.03,230.29 7226.45,230.29 7226.45,256.71 	"/>
</g>
</svg>
