<?xml version="1.0" encoding="utf-8"?>
<!-- Generator: Adobe Illustrator 24.2.0, SVG Export Plug-In . SVG Version: 6.00 Build 0)  -->
<svg version="1.1" id="Capa_1" xmlns="http://www.w3.org/2000/svg" xmlns:xlink="http://www.w3.org/1999/xlink" x="0px" y="0px"
	 viewBox="0 0 138.86 85.42" style="enable-background:new 0 0 138.86 85.42;" xml:space="preserve">
<style type="text/css">
	.st0{fill:none;stroke:#000000;stroke-width:6.5;stroke-miterlimit:10;}
	.st1{fill:#FFFFFF;stroke:#000000;stroke-width:6.5;stroke-miterlimit:10;}
	.st2{fill:#FFFFFF;}
	.st3{stroke:#000000;stroke-width:6.5;stroke-miterlimit:10;}
	.st4{fill:#1D1D1B;}
	.st5{fill:#FFFFFF;stroke:#1D1D1B;stroke-width:6.5;stroke-miterlimit:10;}
	.st6{fill:#1D1D1B;stroke:#1D1D1B;stroke-width:6.5;stroke-miterlimit:10;}
	.st7{fill:none;stroke:#1D1D1B;stroke-width:6.5;stroke-miterlimit:10;}
	.st8{fill:#FC5439;stroke:#000000;stroke-width:6.5;stroke-miterlimit:10;}
	.st9{fill:#3A90FD;stroke:#000000;stroke-width:6.5;stroke-miterlimit:10;}
	.st10{fill:#F1CD08;stroke:#000000;stroke-width:6.5;stroke-miterlimit:10;}
</style>
<g>
	<path class="st0" d="M-166.05,84.37V10.03c0-4.23,3.43-7.65,7.65-7.65h54.6v77.9"/>
	<path class="st0" d="M-142.48,91.11h38.68V77.63h-55.51c-3.72,0-6.74,3.02-6.74,6.74v0c0,3.72,3.02,6.74,6.74,6.74h1.52"/>
	<rect x="-148.38" y="23.15" class="st0" width="26.92" height="15.7"/>
	<polygon class="st0" points="-144.67,104.27 -149.92,109.57 -155.18,104.27 -155.18,87.31 -144.67,87.31 	"/>
</g>
<polygon class="st0" points="-496.75,46.99 -532.43,11.32 -532.43,26.83 -589.55,26.83 -589.55,68.56 -532.43,68.56 -532.43,82.67 
	"/>
<g>
	<polyline class="st0" points="-323.82,20.38 -300.18,20.38 -300.18,91.57 -377.04,91.57 -377.04,20.38 -346.91,20.38 	"/>
	<polygon class="st0" points="-341.55,32.19 -350.14,23.61 -328.94,2.41 -317.4,13.96 -335.63,32.19 	"/>
	<polyline class="st0" points="-351.51,32.19 -341.55,32.19 -335.63,32.19 -325.72,32.19 	"/>
</g>
<g>
	<polygon class="st0" points="-711.98,-7.3 -787.99,44.25 -795.72,63.66 -774.83,63.66 -698.81,12.1 	"/>
	<line class="st0" x1="-787.99" y1="44.25" x2="-774.83" y2="63.66"/>
</g>
<g>
	<g>
		<path class="st1" d="M73.84,79.95h24.01c19.62,0,35.53-15.91,35.53-35.53v0c0-19.62-15.91-35.53-35.53-35.53l-3.72,0H15.24
			c-4.91,0-8.88,3.98-8.88,8.88v0c0,4.91,3.98,8.88,8.88,8.88l68.05,0v0"/>
		<path class="st1" d="M83.28,26.66h-21.1c-4.91,0-8.88,3.98-8.88,8.88v0c0,4.91,3.98,8.88,8.88,8.88h19.4h1.7
			c4.91,0,8.88-3.98,8.88-8.88v0C92.17,30.64,88.19,26.66,83.28,26.66z"/>
		<path class="st1" d="M83.92,44.43h-21.1c-4.91,0-8.88,3.98-8.88,8.88v0c0,4.91,3.98,8.88,8.88,8.88h19.4h1.7
			c4.91,0,8.88-3.98,8.88-8.88v0C92.8,48.4,88.83,44.43,83.92,44.43z"/>
		<path class="st1" d="M83.92,62.19h-21.1c-4.91,0-8.88,3.98-8.88,8.88v0c0,4.91,3.98,8.88,8.88,8.88h19.4h1.7
			c4.91,0,8.88-3.98,8.88-8.88v0C92.8,66.17,88.83,62.19,83.92,62.19z"/>
	</g>
	<path class="st1" d="M97.37,10.78L85.68,34.26c-2.15,4.41-0.32,9.73,4.09,11.88l0,0c4.41,2.15,9.73,0.32,11.88-4.09l8.54-17.14"/>
</g>
<g>
	<ellipse class="st2" cx="279.1" cy="50.01" rx="28.07" ry="18.08"/>
	<g>
		<path class="st1" d="M298.47,45.27V30.64c0-3.72,3.01-6.73,6.73-6.73h0c3.72,0,6.73,3.01,6.73,6.73v22.75
			c0,18.59-15.07,33.66-33.66,33.66h0c-18.59,0-33.66-15.07-33.66-33.66V30.28h0c7.43,0,13.45,6.02,13.45,13.45v8.75l0,0
			c7.42,0,13.44,6.02,13.44,13.44v0.83"/>
		<path class="st1" d="M298.4,45.27V12.5c0-3.72-3.01-6.73-6.73-6.73l0,0c-3.72,0-6.73,3.01-6.73,6.73v25.15"/>
		<path class="st1" d="M284.94,41.45V5.68c0-3.72-3.01-6.73-6.73-6.73h0c-3.72,0-6.73,3.01-6.73,6.73v25.15"/>
		<path class="st1" d="M271.49,40.66V10.89c0-3.72-3.01-6.73-6.73-6.73h0c-3.72,0-6.73,3.01-6.73,6.73v37.79"/>
	</g>
</g>
<g>
	<line class="st0" x1="464.38" y1="-169.35" x2="540.94" y2="-188.33"/>
	<circle class="st1" cx="464.38" cy="-169.35" r="25.98"/>
	<line class="st0" x1="617.74" y1="-169.33" x2="541.18" y2="-188.31"/>
	<circle class="st1" cx="617.74" cy="-169.35" r="25.98"/>
	<circle class="st1" cx="540.94" cy="-188.33" r="25.98"/>
</g>
<g>
	<circle class="st0" cx="686.91" cy="41.45" r="35.6"/>
	<g>
		<circle class="st3" cx="673.14" cy="34.41" r="1.69"/>
		<circle class="st3" cx="700.68" cy="34.41" r="1.69"/>
	</g>
	<path class="st0" d="M674.42,49.41c6.9,6.9,18.07,6.9,24.98,0"/>
</g>
<g>
	<line class="st0" x1="926.47" y1="5.52" x2="926.47" y2="77.37"/>
	<line class="st0" x1="856.15" y1="41.45" x2="805.23" y2="41.45"/>
	<line class="st0" x1="966.07" y1="41.45" x2="915.15" y2="41.45"/>
	<rect x="836.76" y="22.19" class="st1" width="89.71" height="38.51"/>
	<line class="st0" x1="964.46" y1="25.69" x2="964.46" y2="57.21"/>
	<line class="st0" x1="877.98" y1="22.94" x2="877.98" y2="37.89"/>
	<line class="st0" x1="891.61" y1="24.15" x2="891.61" y2="45.57"/>
</g>
<circle class="st1" cx="3531.03" cy="44.76" r="35.26"/>
<g>
	<rect x="1055.9" y="-1.4" class="st1" width="70.6" height="50.69"/>
	<line class="st1" x1="1055.9" y1="-9.13" x2="1055.9" y2="80.26"/>
	<rect x="1055.9" y="23.94" class="st1" width="70.6" height="25.35"/>
	<rect x="1055.9" y="-1.4" class="st1" width="25.35" height="25.35"/>
</g>
<g transform="translate(0,-952.36218)">
	<path class="st1" d="M1264.84,1019.8c0,18.4,13.01,33.32,29.05,33.32s29.05-14.92,29.05-33.32c0-18.4-13.96-38.93-29.05-56.24
		C1293.88,963.56,1264.84,996.57,1264.84,1019.8z"/>
</g>
<g>
	<polyline class="st1" points="1441.82,41.87 1486.55,-2.87 1531.29,41.87 	"/>
	<path class="st1" d="M1486.55,34.11"/>
	<polygon class="st1" points="1516.84,85.76 1456.26,85.76 1456.26,27.45 1486.55,-2.87 1516.84,27.45 	"/>
	<polyline class="st0" points="1473.44,85.76 1473.44,50.41 1499.67,50.41 1499.67,85.76 	"/>
</g>
<g>
	<circle class="st1" cx="2926.8" cy="46.99" r="35.29"/>
	<polyline class="st1" points="2913.25,46.61 2921.43,56.42 2940.36,37.57 	"/>
</g>
<g>
	<g>
		<g>
			<rect x="1667.34" y="16.19" class="st0" width="69.54" height="69.54"/>
			<g>
				<line class="st1" x1="1682.26" y1="5.4" x2="1682.26" y2="26.99"/>
				<line class="st1" x1="1721.97" y1="5.4" x2="1721.97" y2="26.99"/>
			</g>
		</g>
		<line class="st1" x1="1667.34" y1="38.9" x2="1736.88" y2="38.9"/>
	</g>
	<g>
		<path class="st4" d="M1702.72,51.14v4.07l-6.81,5.54v0.42h0.91c3.4,0,6.46,2.35,6.46,6.81c0,4.98-3.79,8.21-9.26,8.21
			c-5.86,0-9.4-3.47-9.4-8.35v-0.98h4.63v0.84c0,2.39,1.65,4.35,4.77,4.35c2.91,0,4.63-1.72,4.63-4.07s-1.65-3.51-4-3.51h-4.28
			v-4.14l6.07-4.98h-11.12v-4.21H1702.72z"/>
		<path class="st4" d="M1718.09,51.14v24.56h-4.63V56.06h-0.42l-3.44,6.18h-4.84l6.32-11.09H1718.09z"/>
	</g>
</g>
<g>
	<g>
		<circle class="st1" cx="1904.45" cy="50.92" r="34.11"/>
		<g>
			<path class="st1" d="M1898.97,17.56c-15.63,19.6-15.53,47.58,0.29,67.07"/>
			<path class="st1" d="M1910.86,17.56c15.48,19.42,15.53,47.05,0.16,66.52"/>
		</g>
		<line class="st1" x1="1870.34" y1="50.92" x2="1938.55" y2="50.92"/>
		<line class="st1" x1="1904.92" y1="17.01" x2="1904.92" y2="84.83"/>
	</g>
</g>
<g>
	<circle class="st1" cx="2096.92" cy="28.06" r="22.82"/>
	<line class="st1" x1="2096.92" y1="50.88" x2="2096.92" y2="94.22"/>
	<line class="st1" x1="2078.82" y1="70.07" x2="2115.02" y2="70.07"/>
</g>
<g>
	<circle class="st1" cx="2309.39" cy="37.82" r="22.82"/>
	<line class="st1" x1="2325.6" y1="21.13" x2="2365.24" y2="-18.5"/>
	<polyline class="st0" points="2338.81,-18.5 2365.24,-18.5 2365.24,7.92 	"/>
</g>
<path class="st1" d="M2563.17,54.34V42.29l-36.59-13.14l0.48-18.57c0.09-2.9-1.09-5.69-3.23-7.65v0c-3.79-3.47-9.61-3.48-13.41-0.01
	l-0.01,0.01c-2.15,1.96-3.34,4.76-3.24,7.66l0.48,18.55l-33.67,12.17v12.04l34.33-6.35l1.48,23.62l-12.3,10.06v8.46l20.03-9.74
	l20.03,9.74v-8.46l-13.09-10.58l1.45-22.86L2563.17,54.34z"/>
<g>
	<g>
		<g>
			<g>
				<g>
					<g>
						<rect x="3907.4" y="25.7" class="st2" width="79.95" height="61.47"/>
						<rect x="3907.4" y="25.7" class="st0" width="79.95" height="61.47"/>
					</g>
				</g>
			</g>
		</g>
		<path class="st1" d="M3966.5,74.98h-38.24c-4.08,0-7.39-3.31-7.39-7.39V45.28c0-4.08,3.31-7.39,7.39-7.39h38.24
			c4.08,0,7.39,3.31,7.39,7.39v22.31C3973.89,71.67,3970.58,74.98,3966.5,74.98z"/>
		<g>
			<line class="st1" x1="3921.79" y1="-0.75" x2="3947.96" y2="25.42"/>
			<line class="st1" x1="3972.97" y1="-0.75" x2="3946.8" y2="25.42"/>
		</g>
	</g>
</g>
<g>
	<polygon class="st1" points="2755.14,89.63 2690.24,89.63 2690.24,1.51 2733.14,1.51 2744.14,12.5 2755.14,23.5 	"/>
	<polyline class="st1" points="2733.14,1.51 2733.14,23.04 2755.14,23.04 	"/>
</g>
<g>
	
		<rect x="3314.97" y="29.92" transform="matrix(-1.836970e-16 1 -1 -1.836970e-16 3372.9998 -3269.3359)" class="st1" width="12.39" height="43.82"/>
	<rect x="3298.04" y="1.2" class="st1" width="12.39" height="88.26"/>
	<rect x="3336.45" y="45.64" class="st1" width="12.39" height="43.82"/>
</g>
<g>
	<g>
		<polygon class="st1" points="3163.45,87.05 3098.39,87.05 3098.39,-1.3 3141.4,-1.3 3152.42,9.73 3163.45,20.75 		"/>
		<polyline class="st1" points="3141.4,-1.3 3141.4,20.29 3163.45,20.29 		"/>
	</g>
	<line class="st1" x1="3114.09" y1="40.52" x2="3146.1" y2="40.52"/>
	<line class="st1" x1="3113.81" y1="53.76" x2="3145.82" y2="53.76"/>
	<line class="st1" x1="3113.81" y1="67.01" x2="3145.82" y2="67.01"/>
</g>
<g>
	<g>
		<path class="st4" d="M3541.05,49.84v0.37c0,4.38-3.02,7.11-7.37,7.77v3.94h-4.42v-3.9c-5.08-0.7-8.25-3.98-8.25-9.28v-0.81h4.86
			v0.59c0,2.39,1.07,4.13,3.39,4.79v-7c-4.68-1.14-7.29-3.13-7.29-7.37v-0.22c0-4.02,3.09-6.67,7.29-7.26v-3.87h4.42v4.01
			c4.16,0.81,7,3.65,7,7.92v1.11h-4.86V39.9c0-1.84-0.77-2.95-2.14-3.54v6.15C3538.44,43.65,3541.05,45.64,3541.05,49.84z
			 M3529.26,41.52v-5.38c-1.47,0.44-2.36,1.44-2.36,2.65C3526.91,40.3,3527.83,41,3529.26,41.52z M3536.12,50.21
			c0-1.47-0.85-2.28-2.43-2.84v5.93C3535.31,52.75,3536.12,51.54,3536.12,50.21z"/>
	</g>
</g>
<g>
	<circle class="st5" cx="6372.22" cy="-215.29" r="35.69"/>
	<g>
		<circle class="st6" cx="6358.41" cy="-222.35" r="1.7"/>
		<circle class="st6" cx="6386.02" cy="-222.35" r="1.7"/>
	</g>
	<path class="st7" d="M6359.7-207.31c6.92,6.92,18.12,6.92,25.04,0"/>
</g>
<g>
	<circle class="st5" cx="6436.08" cy="-215.29" r="35.69"/>
	<g>
		<circle class="st6" cx="6422.27" cy="-222.35" r="1.7"/>
		<circle class="st6" cx="6449.88" cy="-222.35" r="1.7"/>
	</g>
	<path class="st7" d="M6423.56-207.31c6.92,6.92,18.12,6.92,25.04,0"/>
</g>
<g>
	<circle class="st5" cx="6499.94" cy="-215.29" r="35.69"/>
	<g>
		<circle class="st6" cx="6486.13" cy="-222.35" r="1.7"/>
		<circle class="st6" cx="6513.74" cy="-222.35" r="1.7"/>
	</g>
	<path class="st7" d="M6487.42-207.31c6.92,6.92,18.12,6.92,25.04,0"/>
</g>
<polygon class="st1" points="3751.17,64.33 3769.14,81.96 3769.14,64.33 3786.77,64.33 3769.14,46.37 3786.77,28.4 3769.14,28.4 
	3769.14,10.77 3751.17,28.4 3733.21,10.77 3733.21,28.4 3715.57,28.4 3733.21,46.37 3715.57,64.33 3733.21,64.33 3733.21,81.96 "/>
<path class="st0" d="M6791.18,22.09c-19.42-11.08-39.69,1.39-38.74,22.03c1.04,22.68,19.59,51.75,37.54,44.64
	c2.43-0.97,5.14-0.97,7.57,0c17.95,7.11,36.5-21.97,37.54-44.64c0.95-20.59-19.24-33.06-38.63-22.09L6791.18,22.09z"/>
<path class="st0" d="M6800.87,0.81c-8.08,8.08-9.27,20.42-3.57,29.75"/>
<path class="st0" d="M7006.28,4.82c-15.65,1.49-19.56,16.36-22.4,32.85c-0.54,3.15-2.3,6.02-4.34,9.34
	c-3.7,6.02-8.29,13.51-5.89,25.26c1.08,5.52,4.51,10.3,9.39,13.1c6.38,3.78,15.19,4.62,22.99,2.21c1.59-0.51,3.3-0.44,4.84,0.2
	c3.02,1.27,6.28,1.91,9.56,1.88c3.96,0.01,7.88-0.85,11.47-2.52c6.07-2.82,10.57-8.21,12.26-14.69c3.27-11.72-1.68-19.37-5.65-25.52
	c-2.06-3.18-4-6.18-4.53-9.27c-2.83-16.42-6.72-31.25-22.22-32.84L7006.28,4.82z"/>
<path class="st0" d="M7015.04-12.06c-8.32,8.32-10.13,20.68-5.43,30.75"/>
<g>
	<rect x="5530.72" y="9.74" class="st1" width="99.16" height="71.2"/>
	<rect x="5530.72" y="45.33" class="st8" width="99.16" height="35.6"/>
	<rect x="5530.72" y="9.74" class="st9" width="35.6" height="35.6"/>
</g>
<polygon class="st1" points="6620.31,82.44 6569.26,90.12 6569.26,1.25 6620.31,-6.44 "/>
<rect x="6569.26" y="2.21" class="st1" width="63.23" height="88.87"/>
<g>
	<polygon class="st0" points="5968.18,95.98 5968.18,107.14 5957.02,95.98 5937.1,95.98 5937.1,5.69 6033.17,5.69 6033.17,95.98 	
		"/>
</g>
<g>
	<g>
		<circle class="st0" cx="5759.89" cy="33.1" r="20.4"/>
		<line class="st0" x1="5774.94" y1="48.15" x2="5782.68" y2="55.88"/>
	</g>
	
		<rect x="5788.71" y="50.79" transform="matrix(0.7071 -0.7071 0.7071 0.7071 1649.2284 4117.04)" class="st0" width="11.21" height="33.86"/>
</g>
<g>
	<path class="st0" d="M5375.26,38.85c-0.63,4.55-2.69,8.93-6.18,12.43c-8.52,8.52-22.33,8.52-30.85,0c-8.52-8.52-8.52-22.33,0-30.85
		c8.52-8.52,22.33-8.52,30.85,0C5374.1,25.45,5376.16,32.32,5375.26,38.85"/>
	<polyline class="st0" points="5376.26,38.69 5409.5,76.92 5396.03,90.39 5357.8,57.15 	"/>
	<line class="st0" x1="5402.24" y1="84.19" x2="5420.54" y2="102.48"/>
	<line class="st0" x1="5338.22" y1="51.28" x2="5368.28" y2="21.22"/>
</g>
<g>
	<rect x="6160" y="1.01" class="st0" width="65.29" height="88.66"/>
	<g>
		<polyline class="st0" points="6172.49,24 6178.37,28.3 6185.77,16.58 		"/>
		<polyline class="st0" points="6199.52,47.65 6205.4,51.95 6212.8,40.24 		"/>
		<g>
			<line class="st0" x1="6212.57" y1="17.76" x2="6199.75" y2="30.59"/>
			<line class="st0" x1="6199.75" y1="17.76" x2="6212.57" y2="30.59"/>
		</g>
		<g>
			<line class="st0" x1="6185.55" y1="61.26" x2="6172.72" y2="74.08"/>
			<line class="st0" x1="6172.72" y1="61.26" x2="6185.55" y2="74.08"/>
		</g>
		<line class="st0" x1="6173.29" y1="46.09" x2="6184.98" y2="46.09"/>
		<line class="st0" x1="6200.31" y1="67.67" x2="6212.01" y2="67.67"/>
	</g>
</g>
<polygon class="st0" points="5172.07,12.58 5183.64,36.02 5209.5,39.78 5190.79,58.02 5195.2,83.78 5172.07,71.62 5148.94,83.78 
	5153.36,58.02 5134.64,39.78 5160.5,36.02 "/>
<g>
	<rect x="4909.89" y="20.57" class="st0" width="116.13" height="71.69"/>
	<polyline class="st0" points="4910,20.57 4968.76,56.42 5025.92,20.57 	"/>
</g>
<g>
	<g>
		<polygon class="st0" points="4753.29,92.11 4687.89,92.11 4687.89,3.3 4731.13,3.3 4742.21,14.38 4753.29,25.46 		"/>
		<polyline class="st0" points="4731.13,3.3 4731.13,25 4753.29,25 		"/>
	</g>
	<line class="st0" x1="4703.67" y1="45.33" x2="4735.85" y2="45.33"/>
	<line class="st10" x1="4703.39" y1="58.65" x2="4735.57" y2="58.65"/>
	<line class="st10" x1="4703.39" y1="71.96" x2="4735.57" y2="71.96"/>
</g>
<g>
	<g>
		<polygon class="st0" points="4839.79,92.11 4774.39,92.11 4774.39,3.3 4817.63,3.3 4828.71,14.38 4839.79,25.46 		"/>
		<polyline class="st0" points="4817.63,3.3 4817.63,25 4839.79,25 		"/>
	</g>
	<line class="st0" x1="4790.17" y1="45.33" x2="4822.35" y2="45.33"/>
	<line class="st10" x1="4789.89" y1="58.65" x2="4822.07" y2="58.65"/>
	<line class="st10" x1="4789.89" y1="71.96" x2="4822.07" y2="71.96"/>
</g>
<polyline class="st0" points="4791.99,23.07 4797.88,27.37 4805.29,15.64 "/>
<g>
	<line class="st0" x1="4717.21" y1="15.08" x2="4704.36" y2="27.93"/>
	<line class="st0" x1="4704.36" y1="15.08" x2="4717.21" y2="27.93"/>
</g>
<g>
	<g>
		<g>
			<polygon class="st0" points="4521.84,82.28 4586.25,82.28 4586.25,-6.51 4543.67,-6.51 4532.75,4.57 4521.84,15.65 			"/>
			<polyline class="st0" points="4543.67,-6.51 4543.67,15.19 4521.84,15.19 			"/>
		</g>
	</g>
</g>
<g>
	<g>
		<circle class="st1" cx="4574.82" cy="30.52" r="20.88"/>
		<line class="st1" x1="4590.23" y1="45.92" x2="4598.15" y2="53.84"/>
	</g>
	
		<rect x="4604.33" y="48.63" transform="matrix(0.7071 -0.7071 0.7071 0.7071 1303.6123 3279.1313)" class="st1" width="11.48" height="34.67"/>
</g>
<g>
	<path class="st0" d="M4414,48.47c0,0-17.48,41.31-58.39,41.31s-58.39-41.31-58.39-41.31V47.7c0,0,12.46-21.34,25.4-27.36
		c12.94-6.02,32.99,4.23,32.99,4.23l0,0c0,0,19.92-10.25,32.87-4.23c12.94,6.02,25.4,27.36,25.4,27.36L4414,48.47z"/>
	<path class="st0" d="M4297.22,47.7c0,0,48.67,12.89,116.79,0.77"/>
</g>
<g>
	<path class="st0" d="M4196.28,52.7c0,0-17.47,35.88-58.34,35.88c-40.87,0-58.34-35.88-58.34-35.88s17.47-35.88,58.34-35.88
		C4178.81,16.82,4196.28,52.7,4196.28,52.7z"/>
	<circle class="st0" cx="4137.95" cy="51.72" r="17.39"/>
</g>
<g>
	<circle class="st5" cx="7213.22" cy="50.28" r="35.69"/>
	<g>
		<circle class="st6" cx="7199.42" cy="43.22" r="1.7"/>
		<circle class="st6" cx="7227.02" cy="43.22" r="1.7"/>
	</g>
	<path class="st7" d="M7200.7,58.26c6.92,6.92,18.12,6.92,25.04,0"/>
</g>
<g>
	<circle class="st1" cx="7424.74" cy="25.33" r="22.82"/>
	<line class="st1" x1="7424.74" y1="48.15" x2="7424.74" y2="91.48"/>
	<line class="st1" x1="7406.64" y1="67.33" x2="7442.84" y2="67.33"/>
</g>
<g>
	<circle class="st1" cx="7602.6" cy="67.04" r="22.82"/>
	<line class="st1" x1="7618.81" y1="50.35" x2="7658.45" y2="10.71"/>
	<polyline class="st0" points="7632.03,10.71 7658.45,10.71 7658.45,37.13 	"/>
</g>
</svg>
