<?xml version="1.0" encoding="utf-8"?>
<!-- Generator: Adobe Illustrator 24.2.0, SVG Export Plug-In . SVG Version: 6.00 Build 0)  -->
<svg version="1.1" id="Capa_1" xmlns="http://www.w3.org/2000/svg" xmlns:xlink="http://www.w3.org/1999/xlink" x="0px" y="0px"
	 viewBox="0 0 79.07 99.82" style="enable-background:new 0 0 79.07 99.82;" xml:space="preserve">
<style type="text/css">
	.st0{fill:none;stroke:#000000;stroke-width:6.5;stroke-miterlimit:10;}
	.st1{fill:#FFFFFF;stroke:#000000;stroke-width:6.5;stroke-miterlimit:10;}
	.st2{fill:#FFFFFF;}
	.st3{stroke:#000000;stroke-width:6.5;stroke-miterlimit:10;}
	.st4{fill:#1D1D1B;}
	.st5{fill:#FFFFFF;stroke:#1D1D1B;stroke-width:6.5;stroke-miterlimit:10;}
	.st6{fill:#1D1D1B;stroke:#1D1D1B;stroke-width:6.5;stroke-miterlimit:10;}
	.st7{fill:none;stroke:#1D1D1B;stroke-width:6.5;stroke-miterlimit:10;}
	.st8{fill:#FC5439;stroke:#000000;stroke-width:6.5;stroke-miterlimit:10;}
	.st9{fill:#3A90FD;stroke:#000000;stroke-width:6.5;stroke-miterlimit:10;}
	.st10{fill:#F1CD08;stroke:#000000;stroke-width:6.5;stroke-miterlimit:10;}
</style>
<g>
	<path class="st0" d="M-3257.55,88.54V14.2c0-4.23,3.43-7.65,7.65-7.65h54.6v77.9"/>
	<path class="st0" d="M-3233.98,95.28h38.68V81.8h-55.51c-3.72,0-6.74,3.02-6.74,6.74v0c0,3.72,3.02,6.74,6.74,6.74h1.52"/>
	<rect x="-3239.88" y="27.32" class="st0" width="26.92" height="15.7"/>
	<polygon class="st0" points="-3236.17,108.44 -3241.42,113.74 -3246.68,108.44 -3246.68,91.48 -3236.17,91.48 	"/>
</g>
<polygon class="st0" points="-3588.25,51.17 -3623.93,15.49 -3623.93,31 -3681.05,31 -3681.05,72.73 -3623.93,72.73 -3623.93,86.84 
	"/>
<g>
	<polyline class="st0" points="-3415.32,24.55 -3391.68,24.55 -3391.68,95.74 -3468.54,95.74 -3468.54,24.55 -3438.41,24.55 	"/>
	<polygon class="st0" points="-3433.05,36.36 -3441.64,27.78 -3420.44,6.58 -3408.9,18.13 -3427.13,36.36 	"/>
	<polyline class="st0" points="-3443.01,36.36 -3433.05,36.36 -3427.13,36.36 -3417.22,36.36 	"/>
</g>
<g>
	<polygon class="st0" points="-3803.48,-3.13 -3879.49,48.42 -3887.22,67.83 -3866.33,67.83 -3790.31,16.27 	"/>
	<line class="st0" x1="-3879.49" y1="48.42" x2="-3866.33" y2="67.83"/>
</g>
<g>
	<g>
		<path class="st1" d="M-3017.66,84.12h24.01c19.62,0,35.53-15.91,35.53-35.53v0c0-19.62-15.91-35.53-35.53-35.53l-3.72,0h-78.89
			c-4.91,0-8.88,3.98-8.88,8.88v0c0,4.91,3.98,8.88,8.88,8.88h68.05v0"/>
		<path class="st1" d="M-3008.22,30.83h-21.1c-4.91,0-8.88,3.98-8.88,8.88v0c0,4.91,3.98,8.88,8.88,8.88h19.4h1.7
			c4.91,0,8.88-3.98,8.88-8.88v0C-2999.33,34.81-3003.31,30.83-3008.22,30.83z"/>
		<path class="st1" d="M-3007.58,48.6h-21.09c-4.91,0-8.88,3.98-8.88,8.88v0c0,4.91,3.98,8.88,8.88,8.88h19.4h1.7
			c4.91,0,8.88-3.98,8.88-8.88v0C-2998.7,52.57-3002.67,48.6-3007.58,48.6z"/>
		<path class="st1" d="M-3007.58,66.36h-21.09c-4.91,0-8.88,3.98-8.88,8.88v0c0,4.91,3.98,8.88,8.88,8.88h19.4h1.7
			c4.91,0,8.88-3.98,8.88-8.88v0C-2998.7,70.34-3002.67,66.36-3007.58,66.36z"/>
	</g>
	<path class="st1" d="M-2994.13,14.95l-11.69,23.48c-2.15,4.41-0.32,9.73,4.09,11.88v0c4.41,2.15,9.73,0.32,11.88-4.09l8.54-17.14"
		/>
</g>
<g>
	<ellipse class="st2" cx="-2812.4" cy="54.18" rx="28.07" ry="18.08"/>
	<g>
		<path class="st1" d="M-2793.03,49.44V34.81c0-3.72,3.01-6.73,6.73-6.73l0,0c3.72,0,6.73,3.01,6.73,6.73v22.75
			c0,18.59-15.07,33.66-33.66,33.66l0,0c-18.59,0-33.66-15.07-33.66-33.66V34.45l0,0c7.43,0,13.45,6.02,13.45,13.45v8.75l0,0
			c7.42,0,13.44,6.02,13.44,13.44v0.83"/>
		<path class="st1" d="M-2793.1,49.44V16.67c0-3.72-3.01-6.73-6.73-6.73l0,0c-3.72,0-6.73,3.01-6.73,6.73v25.15"/>
		<path class="st1" d="M-2806.56,45.62V9.85c0-3.72-3.01-6.73-6.73-6.73l0,0c-3.72,0-6.73,3.01-6.73,6.73v25.15"/>
		<path class="st1" d="M-2820.01,44.83V15.06c0-3.72-3.01-6.73-6.73-6.73l0,0c-3.72,0-6.73,3.01-6.73,6.73v37.79"/>
	</g>
</g>
<g>
	<line class="st0" x1="-2627.12" y1="-165.18" x2="-2550.56" y2="-184.16"/>
	<circle class="st1" cx="-2627.12" cy="-165.18" r="25.98"/>
	<line class="st0" x1="-2473.76" y1="-165.16" x2="-2550.32" y2="-184.14"/>
	<circle class="st1" cx="-2473.76" cy="-165.18" r="25.98"/>
	<circle class="st1" cx="-2550.56" cy="-184.16" r="25.98"/>
</g>
<g>
	<circle class="st0" cx="-2404.59" cy="45.62" r="35.6"/>
	<g>
		<circle class="st3" cx="-2418.36" cy="38.58" r="1.69"/>
		<circle class="st3" cx="-2390.82" cy="38.58" r="1.69"/>
	</g>
	<path class="st0" d="M-2417.08,53.58c6.9,6.9,18.07,6.9,24.98,0"/>
</g>
<g>
	<line class="st0" x1="-2171.78" y1="12.97" x2="-2171.78" y2="84.82"/>
	<line class="st0" x1="-2242.1" y1="48.9" x2="-2293.02" y2="48.9"/>
	<line class="st0" x1="-2132.18" y1="48.9" x2="-2183.1" y2="48.9"/>
	<rect x="-2261.49" y="29.64" class="st1" width="89.71" height="38.51"/>
	<line class="st0" x1="-2133.79" y1="33.14" x2="-2133.79" y2="64.66"/>
	<line class="st0" x1="-2220.27" y1="30.39" x2="-2220.27" y2="45.34"/>
	<line class="st0" x1="-2206.64" y1="31.6" x2="-2206.64" y2="53.02"/>
</g>
<circle class="st1" cx="439.53" cy="48.93" r="35.26"/>
<g>
	<rect x="-2035.6" y="2.77" class="st1" width="70.6" height="50.69"/>
	<line class="st1" x1="-2035.6" y1="-4.96" x2="-2035.6" y2="84.43"/>
	<rect x="-2035.6" y="28.11" class="st1" width="70.6" height="25.35"/>
	<rect x="-2035.6" y="2.77" class="st1" width="25.35" height="25.35"/>
</g>
<g transform="translate(0,-952.36218)">
	<path class="st1" d="M-1826.66,1023.97c0,18.4,13.01,33.32,29.05,33.32s29.05-14.92,29.05-33.32c0-18.4-13.96-38.93-29.05-56.24
		C-1797.62,967.73-1826.66,1000.75-1826.66,1023.97z"/>
</g>
<g>
	<polyline class="st1" points="-1649.68,46.04 -1604.95,1.3 -1560.21,46.04 	"/>
	<path class="st1" d="M-1604.95,38.28"/>
	<polygon class="st1" points="-1574.66,89.94 -1635.24,89.94 -1635.24,31.62 -1604.95,1.3 -1574.66,31.62 	"/>
	<polyline class="st0" points="-1618.06,89.94 -1618.06,54.58 -1591.83,54.58 -1591.83,89.94 	"/>
</g>
<g>
	<circle class="st1" cx="-164.7" cy="51.16" r="35.29"/>
	<polyline class="st1" points="-178.25,50.78 -170.07,60.59 -151.14,41.74 	"/>
</g>
<g>
	<g>
		<g>
			<rect x="-1424.16" y="20.36" class="st0" width="69.54" height="69.54"/>
			<g>
				<line class="st1" x1="-1409.24" y1="9.57" x2="-1409.24" y2="31.16"/>
				<line class="st1" x1="-1369.53" y1="9.57" x2="-1369.53" y2="31.16"/>
			</g>
		</g>
		<line class="st1" x1="-1424.16" y1="43.07" x2="-1354.62" y2="43.07"/>
	</g>
	<g>
		<path class="st4" d="M-1388.78,55.31v4.07l-6.81,5.54v0.42h0.91c3.4,0,6.46,2.35,6.46,6.81c0,4.98-3.79,8.21-9.26,8.21
			c-5.86,0-9.4-3.47-9.4-8.35v-0.98h4.63v0.84c0,2.39,1.65,4.35,4.77,4.35c2.91,0,4.63-1.72,4.63-4.07s-1.65-3.51-4-3.51h-4.28
			v-4.14l6.07-4.98h-11.12v-4.21H-1388.78z"/>
		<path class="st4" d="M-1373.41,55.31v24.56h-4.63V60.23h-0.42l-3.44,6.18h-4.84l6.32-11.09H-1373.41z"/>
	</g>
</g>
<g>
	<g>
		<circle class="st1" cx="-1187.05" cy="55.09" r="34.11"/>
		<g>
			<path class="st1" d="M-1192.53,21.73c-15.63,19.6-15.53,47.58,0.29,67.07"/>
			<path class="st1" d="M-1180.64,21.73c15.48,19.42,15.53,47.05,0.16,66.52"/>
		</g>
		<line class="st1" x1="-1221.16" y1="55.09" x2="-1152.95" y2="55.09"/>
		<line class="st1" x1="-1186.58" y1="21.18" x2="-1186.58" y2="89"/>
	</g>
</g>
<g>
	<circle class="st1" cx="-994.58" cy="31.44" r="22.82"/>
	<line class="st1" x1="-994.58" y1="54.26" x2="-994.58" y2="97.6"/>
	<line class="st1" x1="-1012.68" y1="73.45" x2="-976.48" y2="73.45"/>
</g>
<g>
	<circle class="st1" cx="-782.11" cy="41.99" r="22.82"/>
	<line class="st1" x1="-765.9" y1="25.3" x2="-726.26" y2="-14.33"/>
	<polyline class="st0" points="-752.69,-14.33 -726.26,-14.33 -726.26,12.09 	"/>
</g>
<path class="st1" d="M-528.33,58.51V46.47l-36.59-13.14l0.48-18.57c0.09-2.9-1.09-5.69-3.23-7.65v0c-3.79-3.47-9.61-3.48-13.41-0.01
	l-0.01,0.01c-2.15,1.96-3.34,4.76-3.24,7.66l0.48,18.55l-33.67,12.17v12.04l34.33-6.35l1.48,23.62l-12.3,10.06v8.46l20.03-9.74
	l20.03,9.74v-8.46l-13.09-10.58l1.45-22.86L-528.33,58.51z"/>
<g>
	<g>
		<g>
			<g>
				<g>
					<g>
						<rect x="815.9" y="29.87" class="st2" width="79.95" height="61.47"/>
						<rect x="815.9" y="29.87" class="st0" width="79.95" height="61.47"/>
					</g>
				</g>
			</g>
		</g>
		<path class="st1" d="M875,79.15h-38.24c-4.08,0-7.39-3.31-7.39-7.39V49.45c0-4.08,3.31-7.39,7.39-7.39H875
			c4.08,0,7.39,3.31,7.39,7.39v22.31C882.39,75.84,879.08,79.15,875,79.15z"/>
		<g>
			<line class="st1" x1="830.29" y1="3.42" x2="856.46" y2="29.59"/>
			<line class="st1" x1="881.47" y1="3.42" x2="855.3" y2="29.59"/>
		</g>
	</g>
</g>
<g>
	<polygon class="st1" points="-336.36,93.8 -401.26,93.8 -401.26,5.68 -358.36,5.68 -347.36,16.67 -336.36,27.67 	"/>
	<polyline class="st1" points="-358.36,5.68 -358.36,27.21 -336.36,27.21 	"/>
</g>
<g>
	
		<rect x="223.47" y="34.09" transform="matrix(-1.836970e-16 1 -1 -1.836970e-16 285.6702 -173.6655)" class="st1" width="12.39" height="43.82"/>
	<rect x="206.54" y="5.38" class="st1" width="12.39" height="88.26"/>
	<rect x="244.95" y="49.81" class="st1" width="12.39" height="43.82"/>
</g>
<g>
	<g>
		<polygon class="st1" points="71.95,92.94 6.89,92.94 6.89,4.6 49.9,4.6 60.92,15.62 71.95,26.65 		"/>
		<polyline class="st1" points="49.9,4.6 49.9,26.19 71.95,26.19 		"/>
	</g>
	<line class="st1" x1="22.59" y1="46.41" x2="54.6" y2="46.41"/>
	<line class="st1" x1="22.31" y1="59.66" x2="54.32" y2="59.66"/>
	<line class="st1" x1="22.31" y1="72.9" x2="54.32" y2="72.9"/>
</g>
<g>
	<g>
		<path class="st4" d="M449.55,54.01v0.37c0,4.38-3.02,7.11-7.37,7.77v3.94h-4.42v-3.9c-5.08-0.7-8.25-3.98-8.25-9.28V52.1h4.86
			v0.59c0,2.39,1.07,4.13,3.39,4.79v-7c-4.68-1.14-7.29-3.13-7.29-7.37v-0.22c0-4.02,3.09-6.67,7.29-7.26v-3.87h4.42v4.01
			c4.16,0.81,7,3.65,7,7.92v1.11h-4.86v-0.74c0-1.84-0.77-2.95-2.14-3.54v6.15C446.94,47.83,449.55,49.81,449.55,54.01z
			 M437.76,45.69v-5.38c-1.47,0.44-2.36,1.44-2.36,2.65C435.41,44.47,436.33,45.17,437.76,45.69z M444.62,54.38
			c0-1.47-0.85-2.28-2.43-2.84v5.93C443.81,56.92,444.62,55.71,444.62,54.38z"/>
	</g>
</g>
<g>
	<circle class="st5" cx="3280.72" cy="-211.12" r="35.69"/>
	<g>
		<circle class="st6" cx="3266.91" cy="-218.18" r="1.7"/>
		<circle class="st6" cx="3294.52" cy="-218.18" r="1.7"/>
	</g>
	<path class="st7" d="M3268.2-203.14c6.92,6.92,18.12,6.92,25.04,0"/>
</g>
<g>
	<circle class="st5" cx="3344.58" cy="-211.12" r="35.69"/>
	<g>
		<circle class="st6" cx="3330.77" cy="-218.18" r="1.7"/>
		<circle class="st6" cx="3358.38" cy="-218.18" r="1.7"/>
	</g>
	<path class="st7" d="M3332.06-203.14c6.92,6.92,18.12,6.92,25.04,0"/>
</g>
<g>
	<circle class="st5" cx="3408.44" cy="-211.12" r="35.69"/>
	<g>
		<circle class="st6" cx="3394.63" cy="-218.18" r="1.7"/>
		<circle class="st6" cx="3422.24" cy="-218.18" r="1.7"/>
	</g>
	<path class="st7" d="M3395.92-203.14c6.92,6.92,18.12,6.92,25.04,0"/>
</g>
<polygon class="st1" points="659.67,68.5 677.64,86.13 677.64,68.5 695.27,68.5 677.64,50.54 695.27,32.57 677.64,32.57 
	677.64,14.94 659.67,32.57 641.71,14.94 641.71,32.57 624.07,32.57 641.71,50.54 624.07,68.5 641.71,68.5 641.71,86.13 "/>
<path class="st0" d="M3699.68,26.26c-19.42-11.08-39.69,1.39-38.74,22.03c1.04,22.68,19.59,51.75,37.54,44.64
	c2.43-0.97,5.14-0.97,7.57,0c17.95,7.11,36.49-21.97,37.54-44.64c0.95-20.59-19.24-33.06-38.63-22.09L3699.68,26.26z"/>
<path class="st0" d="M3709.37,4.98c-8.08,8.08-9.27,20.42-3.57,29.75"/>
<path class="st0" d="M3914.78,8.99c-15.65,1.49-19.56,16.36-22.4,32.85c-0.54,3.15-2.3,6.02-4.34,9.34
	c-3.7,6.02-8.29,13.51-5.89,25.26c1.08,5.52,4.51,10.3,9.39,13.1c6.38,3.78,15.19,4.62,22.99,2.21c1.59-0.51,3.3-0.44,4.84,0.2
	c3.02,1.27,6.28,1.91,9.56,1.88c3.96,0.01,7.88-0.85,11.47-2.52c6.07-2.82,10.57-8.21,12.26-14.69c3.27-11.72-1.68-19.37-5.65-25.52
	c-2.06-3.18-4-6.18-4.53-9.27c-2.83-16.42-6.72-31.25-22.22-32.84L3914.78,8.99z"/>
<path class="st0" d="M3923.54-7.89c-8.32,8.32-10.13,20.68-5.43,30.75"/>
<g>
	<rect x="2439.22" y="13.91" class="st1" width="99.16" height="71.2"/>
	<rect x="2439.22" y="49.51" class="st8" width="99.16" height="35.6"/>
	<rect x="2439.22" y="13.91" class="st9" width="35.6" height="35.6"/>
</g>
<polygon class="st1" points="3528.81,86.61 3477.76,94.29 3477.76,5.42 3528.81,-2.27 "/>
<rect x="3477.76" y="6.38" class="st1" width="63.23" height="88.87"/>
<g>
	<polygon class="st0" points="2876.68,100.15 2876.68,111.31 2865.52,100.15 2845.6,100.15 2845.6,9.87 2941.67,9.87 
		2941.67,100.15 	"/>
</g>
<g>
	<g>
		<circle class="st0" cx="2668.39" cy="37.27" r="20.4"/>
		<line class="st0" x1="2683.44" y1="52.32" x2="2691.18" y2="60.05"/>
	</g>
	
		<rect x="2697.21" y="54.96" transform="matrix(0.7071 -0.7071 0.7071 0.7071 740.8 1932.2408)" class="st0" width="11.21" height="33.86"/>
</g>
<g>
	<path class="st0" d="M2283.76,43.02c-0.63,4.55-2.69,8.93-6.18,12.43c-8.52,8.52-22.33,8.52-30.85,0s-8.52-22.33,0-30.85
		s22.33-8.52,30.85,0C2282.6,29.62,2284.66,36.49,2283.76,43.02"/>
	<polyline class="st0" points="2284.76,42.86 2318,81.09 2304.53,94.56 2266.3,61.32 	"/>
	<line class="st0" x1="2310.74" y1="88.36" x2="2329.04" y2="106.66"/>
	<line class="st0" x1="2246.72" y1="55.45" x2="2276.78" y2="25.39"/>
</g>
<g>
	<rect x="3068.5" y="5.18" class="st0" width="65.29" height="88.66"/>
	<g>
		<polyline class="st0" points="3080.99,28.17 3086.87,32.47 3094.27,20.75 		"/>
		<polyline class="st0" points="3108.02,51.82 3113.9,56.12 3121.3,44.41 		"/>
		<g>
			<line class="st0" x1="3121.07" y1="21.93" x2="3108.25" y2="34.76"/>
			<line class="st0" x1="3108.25" y1="21.93" x2="3121.07" y2="34.76"/>
		</g>
		<g>
			<line class="st0" x1="3094.05" y1="65.43" x2="3081.22" y2="78.26"/>
			<line class="st0" x1="3081.22" y1="65.43" x2="3094.05" y2="78.26"/>
		</g>
		<line class="st0" x1="3081.79" y1="50.27" x2="3093.48" y2="50.27"/>
		<line class="st0" x1="3108.81" y1="71.84" x2="3120.51" y2="71.84"/>
	</g>
</g>
<polygon class="st0" points="2080.57,16.75 2092.14,40.19 2118,43.95 2099.29,62.19 2103.7,87.95 2080.57,75.79 2057.44,87.95 
	2061.86,62.19 2043.14,43.95 2069,40.19 "/>
<g>
	<rect x="1818.39" y="24.74" class="st0" width="116.13" height="71.69"/>
	<polyline class="st0" points="1818.5,24.74 1877.26,60.59 1934.42,24.74 	"/>
</g>
<g>
	<g>
		<polygon class="st0" points="1661.79,96.28 1596.39,96.28 1596.39,7.47 1639.63,7.47 1650.71,18.55 1661.79,29.63 		"/>
		<polyline class="st0" points="1639.63,7.47 1639.63,29.17 1661.79,29.17 		"/>
	</g>
	<line class="st0" x1="1612.17" y1="49.51" x2="1644.35" y2="49.51"/>
	<line class="st10" x1="1611.89" y1="62.82" x2="1644.07" y2="62.82"/>
	<line class="st10" x1="1611.89" y1="76.13" x2="1644.07" y2="76.13"/>
</g>
<g>
	<g>
		<polygon class="st0" points="1748.29,96.28 1682.89,96.28 1682.89,7.47 1726.13,7.47 1737.21,18.55 1748.29,29.63 		"/>
		<polyline class="st0" points="1726.13,7.47 1726.13,29.17 1748.29,29.17 		"/>
	</g>
	<line class="st0" x1="1698.67" y1="49.51" x2="1730.85" y2="49.51"/>
	<line class="st10" x1="1698.39" y1="62.82" x2="1730.57" y2="62.82"/>
	<line class="st10" x1="1698.39" y1="76.13" x2="1730.57" y2="76.13"/>
</g>
<polyline class="st0" points="1700.49,27.24 1706.38,31.54 1713.79,19.81 "/>
<g>
	<line class="st0" x1="1625.71" y1="19.25" x2="1612.86" y2="32.1"/>
	<line class="st0" x1="1612.86" y1="19.25" x2="1625.71" y2="32.1"/>
</g>
<g>
	<g>
		<g>
			<polygon class="st0" points="1430.34,86.45 1494.75,86.45 1494.75,-2.34 1452.17,-2.34 1441.25,8.74 1430.34,19.82 			"/>
			<polyline class="st0" points="1452.17,-2.34 1452.17,19.36 1430.34,19.36 			"/>
		</g>
	</g>
</g>
<g>
	<g>
		<circle class="st1" cx="1483.32" cy="34.69" r="20.88"/>
		<line class="st1" x1="1498.73" y1="50.1" x2="1506.65" y2="58.01"/>
	</g>
	
		<rect x="1512.83" y="52.8" transform="matrix(0.7071 -0.7071 0.7071 0.7071 395.1839 1094.3323)" class="st1" width="11.48" height="34.67"/>
</g>
<g>
	<path class="st0" d="M1322.5,52.64c0,0-17.48,41.31-58.39,41.31c-40.91,0-58.39-41.31-58.39-41.31v-0.77
		c0,0,12.46-21.34,25.4-27.36s32.99,4.23,32.99,4.23l0,0c0,0,19.92-10.25,32.87-4.23c12.94,6.02,25.4,27.36,25.4,27.36L1322.5,52.64
		z"/>
	<path class="st0" d="M1205.72,51.87c0,0,48.67,12.89,116.79,0.77"/>
</g>
<g>
	<path class="st0" d="M1104.78,56.87c0,0-17.47,35.88-58.34,35.88c-40.87,0-58.34-35.88-58.34-35.88s17.47-35.88,58.34-35.88
		C1087.31,20.99,1104.78,56.87,1104.78,56.87z"/>
	<circle class="st0" cx="1046.45" cy="55.89" r="17.39"/>
</g>
<g>
	<circle class="st5" cx="4121.72" cy="54.45" r="35.69"/>
	<g>
		<circle class="st6" cx="4107.92" cy="47.39" r="1.7"/>
		<circle class="st6" cx="4135.52" cy="47.39" r="1.7"/>
	</g>
	<path class="st7" d="M4109.2,62.43c6.92,6.92,18.12,6.92,25.04,0"/>
</g>
<g>
	<circle class="st1" cx="4333.24" cy="29.5" r="22.82"/>
	<line class="st1" x1="4333.24" y1="52.32" x2="4333.24" y2="95.65"/>
	<line class="st1" x1="4315.14" y1="71.5" x2="4351.34" y2="71.5"/>
</g>
<g>
	<circle class="st1" cx="4511.1" cy="71.21" r="22.82"/>
	<line class="st1" x1="4527.31" y1="54.52" x2="4566.95" y2="14.88"/>
	<polyline class="st0" points="4540.53,14.88 4566.95,14.88 4566.95,41.3 	"/>
</g>
</svg>
