<?xml version="1.0" encoding="utf-8"?>
<!-- Generator: Adobe Illustrator 24.2.0, SVG Export Plug-In . SVG Version: 6.00 Build 0)  -->
<svg version="1.1" id="Capa_1" xmlns="http://www.w3.org/2000/svg" xmlns:xlink="http://www.w3.org/1999/xlink" x="0px" y="0px"
	 viewBox="0 0 78.11 99.82" style="enable-background:new 0 0 78.11 99.82;" xml:space="preserve">
<style type="text/css">
	.st0{fill:none;stroke:#000000;stroke-width:6.5;stroke-miterlimit:10;}
	.st1{fill:#FFFFFF;stroke:#000000;stroke-width:6.5;stroke-miterlimit:10;}
	.st2{fill:#FFFFFF;}
	.st3{stroke:#000000;stroke-width:6.5;stroke-miterlimit:10;}
	.st4{fill:#1D1D1B;}
	.st5{fill:#FFFFFF;stroke:#1D1D1B;stroke-width:6.5;stroke-miterlimit:10;}
	.st6{fill:#1D1D1B;stroke:#1D1D1B;stroke-width:6.5;stroke-miterlimit:10;}
	.st7{fill:none;stroke:#1D1D1B;stroke-width:6.5;stroke-miterlimit:10;}
	.st8{fill:#FC5439;stroke:#000000;stroke-width:6.5;stroke-miterlimit:10;}
	.st9{fill:#3A90FD;stroke:#000000;stroke-width:6.5;stroke-miterlimit:10;}
	.st10{fill:#F1CD08;stroke:#000000;stroke-width:6.5;stroke-miterlimit:10;}
</style>
<g>
	<path class="st0" d="M-2849.65,90.27V15.93c0-4.23,3.43-7.65,7.65-7.65h54.6v77.9"/>
	<path class="st0" d="M-2826.09,97.01h38.68V83.52h-55.51c-3.72,0-6.74,3.02-6.74,6.74v0c0,3.72,3.02,6.74,6.74,6.74h1.52"/>
	<rect x="-2831.99" y="29.05" class="st0" width="26.92" height="15.7"/>
	<polygon class="st0" points="-2828.27,110.16 -2833.53,115.47 -2838.79,110.16 -2838.79,93.21 -2828.27,93.21 	"/>
</g>
<polygon class="st0" points="-3180.36,52.89 -3216.03,17.22 -3216.03,32.72 -3273.16,32.72 -3273.16,74.46 -3216.03,74.46 
	-3216.03,88.56 "/>
<g>
	<polyline class="st0" points="-3007.43,26.27 -2983.79,26.27 -2983.79,97.47 -3060.65,97.47 -3060.65,26.27 -3030.52,26.27 	"/>
	<polygon class="st0" points="-3025.16,38.08 -3033.74,29.5 -3012.55,8.31 -3001.01,19.86 -3019.24,38.08 	"/>
	<polyline class="st0" points="-3035.11,38.08 -3025.16,38.08 -3019.24,38.08 -3009.32,38.08 	"/>
</g>
<g>
	<polygon class="st0" points="-3395.58,-1.41 -3471.6,50.15 -3479.33,69.56 -3458.44,69.56 -3382.42,18 	"/>
	<line class="st0" x1="-3471.6" y1="50.15" x2="-3458.44" y2="69.56"/>
</g>
<g>
	<g>
		<path class="st1" d="M-2609.76,85.85h24.01c19.62,0,35.53-15.91,35.53-35.53v0c0-19.62-15.91-35.53-35.53-35.53l-3.72,0h-78.89
			c-4.91,0-8.88,3.98-8.88,8.88v0c0,4.91,3.98,8.88,8.88,8.88h68.05v0"/>
		<path class="st1" d="M-2600.32,32.56h-21.1c-4.91,0-8.88,3.98-8.88,8.88v0c0,4.91,3.98,8.88,8.88,8.88h19.4h1.7
			c4.91,0,8.88-3.98,8.88-8.88v0C-2591.44,36.54-2595.42,32.56-2600.32,32.56z"/>
		<path class="st1" d="M-2599.69,50.32h-21.09c-4.91,0-8.88,3.98-8.88,8.88v0c0,4.91,3.98,8.88,8.88,8.88h19.4h1.7
			c4.91,0,8.88-3.98,8.88-8.88v0C-2590.8,54.3-2594.78,50.32-2599.69,50.32z"/>
		<path class="st1" d="M-2599.69,68.09h-21.09c-4.91,0-8.88,3.98-8.88,8.88v0c0,4.91,3.98,8.88,8.88,8.88h19.4h1.7
			c4.91,0,8.88-3.98,8.88-8.88v0C-2590.8,72.06-2594.78,68.09-2599.69,68.09z"/>
	</g>
	<path class="st1" d="M-2586.24,16.67l-11.69,23.48c-2.15,4.41-0.32,9.73,4.09,11.88v0c4.41,2.15,9.73,0.32,11.88-4.09l8.54-17.14"
		/>
</g>
<g>
	<ellipse class="st2" cx="-2404.51" cy="55.9" rx="28.07" ry="18.08"/>
	<g>
		<path class="st1" d="M-2385.14,51.17V36.54c0-3.72,3.01-6.73,6.73-6.73l0,0c3.72,0,6.73,3.01,6.73,6.73v22.75
			c0,18.59-15.07,33.66-33.66,33.66l0,0c-18.59,0-33.66-15.07-33.66-33.66V36.18l0,0c7.43,0,13.45,6.02,13.45,13.45v8.75l0,0
			c7.42,0,13.44,6.02,13.44,13.44v0.83"/>
		<path class="st1" d="M-2385.21,51.17V18.4c0-3.72-3.01-6.73-6.73-6.73l0,0c-3.72,0-6.73,3.01-6.73,6.73v25.15"/>
		<path class="st1" d="M-2398.66,47.34V11.57c0-3.72-3.01-6.73-6.73-6.73l0,0c-3.72,0-6.73,3.01-6.73,6.73v25.15"/>
		<path class="st1" d="M-2412.12,46.56V16.79c0-3.72-3.01-6.73-6.73-6.73l0,0c-3.72,0-6.73,3.01-6.73,6.73v37.79"/>
	</g>
</g>
<g>
	<line class="st0" x1="-2219.23" y1="-163.45" x2="-2142.67" y2="-182.43"/>
	<circle class="st1" cx="-2219.23" cy="-163.45" r="25.98"/>
	<line class="st0" x1="-2065.87" y1="-163.44" x2="-2142.42" y2="-182.42"/>
	<circle class="st1" cx="-2065.87" cy="-163.45" r="25.98"/>
	<circle class="st1" cx="-2142.67" cy="-182.43" r="25.98"/>
</g>
<g>
	<circle class="st0" cx="-1996.7" cy="47.34" r="35.6"/>
	<g>
		<circle class="st3" cx="-2010.47" cy="40.3" r="1.69"/>
		<circle class="st3" cx="-1982.93" cy="40.3" r="1.69"/>
	</g>
	<path class="st0" d="M-2009.19,55.3c6.9,6.9,18.07,6.9,24.98,0"/>
</g>
<g>
	<line class="st0" x1="-1763.89" y1="14.7" x2="-1763.89" y2="86.55"/>
	<line class="st0" x1="-1834.2" y1="50.62" x2="-1885.12" y2="50.62"/>
	<line class="st0" x1="-1724.28" y1="50.62" x2="-1775.2" y2="50.62"/>
	<rect x="-1853.6" y="31.37" class="st1" width="89.71" height="38.51"/>
	<line class="st0" x1="-1725.9" y1="34.86" x2="-1725.9" y2="66.38"/>
	<line class="st0" x1="-1812.38" y1="32.11" x2="-1812.38" y2="47.06"/>
	<line class="st0" x1="-1798.75" y1="33.32" x2="-1798.75" y2="54.74"/>
</g>
<circle class="st1" cx="847.43" cy="50.66" r="35.26"/>
<g>
	<rect x="-1627.71" y="4.49" class="st1" width="70.6" height="50.69"/>
	<line class="st1" x1="-1627.71" y1="-3.23" x2="-1627.71" y2="86.16"/>
	<rect x="-1627.71" y="29.84" class="st1" width="70.6" height="25.35"/>
	<rect x="-1627.71" y="4.49" class="st1" width="25.35" height="25.35"/>
</g>
<g transform="translate(0,-952.36218)">
	<path class="st1" d="M-1418.77,1025.69c0,18.4,13.01,33.32,29.05,33.32c16.03,0,29.05-14.92,29.05-33.32
		c0-18.4-13.96-38.93-29.05-56.24C-1389.72,969.45-1418.77,1002.47-1418.77,1025.69z"/>
</g>
<g>
	<polyline class="st1" points="-1241.79,47.76 -1197.05,3.03 -1152.32,47.76 	"/>
	<path class="st1" d="M-1197.05,40.01"/>
	<polygon class="st1" points="-1166.76,91.66 -1227.34,91.66 -1227.34,33.35 -1197.05,3.03 -1166.76,33.35 	"/>
	<polyline class="st0" points="-1210.17,91.66 -1210.17,56.31 -1183.93,56.31 -1183.93,91.66 	"/>
</g>
<g>
	<circle class="st1" cx="243.2" cy="52.89" r="35.29"/>
	<polyline class="st1" points="229.64,52.51 237.82,62.31 256.76,43.47 	"/>
</g>
<g>
	<g>
		<g>
			<rect x="-1016.26" y="22.09" class="st0" width="69.54" height="69.54"/>
			<g>
				<line class="st1" x1="-1001.35" y1="11.29" x2="-1001.35" y2="32.88"/>
				<line class="st1" x1="-961.64" y1="11.29" x2="-961.64" y2="32.88"/>
			</g>
		</g>
		<line class="st1" x1="-1016.26" y1="44.79" x2="-946.72" y2="44.79"/>
	</g>
	<g>
		<path class="st4" d="M-980.89,57.04v4.07l-6.81,5.54v0.42h0.91c3.4,0,6.46,2.35,6.46,6.81c0,4.98-3.79,8.21-9.26,8.21
			c-5.86,0-9.4-3.47-9.4-8.35v-0.98h4.63v0.84c0,2.39,1.65,4.35,4.77,4.35c2.91,0,4.63-1.72,4.63-4.07s-1.65-3.51-4-3.51h-4.28
			v-4.14l6.07-4.98h-11.12v-4.21H-980.89z"/>
		<path class="st4" d="M-965.52,57.04V81.6h-4.63V61.95h-0.42l-3.44,6.18h-4.84l6.32-11.09H-965.52z"/>
	</g>
</g>
<g>
	<g>
		<circle class="st1" cx="-779.16" cy="56.81" r="34.11"/>
		<g>
			<path class="st1" d="M-784.64,23.45c-15.63,19.6-15.53,47.58,0.29,67.07"/>
			<path class="st1" d="M-772.75,23.45c15.48,19.42,15.53,47.05,0.16,66.52"/>
		</g>
		<line class="st1" x1="-813.27" y1="56.81" x2="-745.05" y2="56.81"/>
		<line class="st1" x1="-778.69" y1="22.9" x2="-778.69" y2="90.72"/>
	</g>
</g>
<g>
	<circle class="st1" cx="-586.69" cy="33.16" r="22.82"/>
	<line class="st1" x1="-586.69" y1="55.98" x2="-586.69" y2="99.32"/>
	<line class="st1" x1="-604.79" y1="75.17" x2="-568.59" y2="75.17"/>
</g>
<g>
	<circle class="st1" cx="-374.22" cy="43.72" r="22.82"/>
	<line class="st1" x1="-358" y1="27.03" x2="-318.37" y2="-12.61"/>
	<polyline class="st0" points="-344.79,-12.61 -318.37,-12.61 -318.37,13.82 	"/>
</g>
<path class="st1" d="M-120.44,60.23V48.19l-36.59-13.14l0.48-18.57c0.09-2.9-1.09-5.69-3.23-7.65l0,0
	c-3.79-3.47-9.61-3.48-13.41-0.01l-0.01,0.01c-2.15,1.96-3.34,4.76-3.24,7.66l0.48,18.55l-33.67,12.17v12.04l34.33-6.35l1.48,23.62
	l-12.3,10.06v8.46l20.03-9.74l20.03,9.74v-8.46l-13.09-10.58l1.45-22.86L-120.44,60.23z"/>
<g>
	<g>
		<g>
			<g>
				<g>
					<g>
						<rect x="1223.8" y="31.6" class="st2" width="79.95" height="61.47"/>
						<rect x="1223.8" y="31.6" class="st0" width="79.95" height="61.47"/>
					</g>
				</g>
			</g>
		</g>
		<path class="st1" d="M1282.89,80.87h-38.24c-4.08,0-7.39-3.31-7.39-7.39V51.18c0-4.08,3.31-7.39,7.39-7.39h38.24
			c4.08,0,7.39,3.31,7.39,7.39v22.31C1290.29,77.56,1286.98,80.87,1282.89,80.87z"/>
		<g>
			<line class="st1" x1="1238.19" y1="5.15" x2="1264.36" y2="31.32"/>
			<line class="st1" x1="1289.36" y1="5.15" x2="1263.19" y2="31.32"/>
		</g>
	</g>
</g>
<g>
	<polygon class="st1" points="71.53,95.52 6.64,95.52 6.64,7.4 49.54,7.4 60.53,18.4 71.53,29.39 	"/>
	<polyline class="st1" points="49.54,7.4 49.54,28.94 71.53,28.94 	"/>
</g>
<g>
	
		<rect x="631.36" y="35.82" transform="matrix(-1.836970e-16 1 -1 -1.836970e-16 695.2881 -579.8333)" class="st1" width="12.39" height="43.82"/>
	<rect x="614.43" y="7.1" class="st1" width="12.39" height="88.26"/>
	<rect x="652.84" y="51.53" class="st1" width="12.39" height="43.82"/>
</g>
<g>
	<g>
		<polygon class="st1" points="479.84,92.94 414.78,92.94 414.78,4.6 457.79,4.6 468.82,15.62 479.84,26.65 		"/>
		<polyline class="st1" points="457.79,4.6 457.79,26.19 479.84,26.19 		"/>
	</g>
	<line class="st1" x1="430.48" y1="46.41" x2="462.49" y2="46.41"/>
	<line class="st1" x1="430.21" y1="59.66" x2="462.21" y2="59.66"/>
	<line class="st1" x1="430.21" y1="72.9" x2="462.21" y2="72.9"/>
</g>
<g>
	<g>
		<path class="st4" d="M857.44,55.74v0.37c0,4.38-3.02,7.11-7.37,7.77v3.94h-4.42v-3.9c-5.08-0.7-8.25-3.98-8.25-9.28v-0.81h4.86
			v0.59c0,2.39,1.07,4.13,3.39,4.79v-7c-4.68-1.14-7.29-3.13-7.29-7.37v-0.22c0-4.02,3.09-6.67,7.29-7.26v-3.87h4.42v4.01
			c4.16,0.81,7,3.65,7,7.92v1.11h-4.86v-0.74c0-1.84-0.77-2.95-2.14-3.54v6.15C854.83,49.55,857.44,51.54,857.44,55.74z
			 M845.66,47.41v-5.38c-1.47,0.44-2.36,1.44-2.36,2.65C843.3,46.2,844.22,46.9,845.66,47.41z M852.51,56.11
			c0-1.47-0.85-2.28-2.43-2.84v5.93C851.7,58.65,852.51,57.43,852.51,56.11z"/>
	</g>
</g>
<g>
	<circle class="st5" cx="3688.61" cy="-209.4" r="35.69"/>
	<g>
		<circle class="st6" cx="3674.81" cy="-216.46" r="1.7"/>
		<circle class="st6" cx="3702.41" cy="-216.46" r="1.7"/>
	</g>
	<path class="st7" d="M3676.09-201.42c6.92,6.92,18.12,6.92,25.04,0"/>
</g>
<g>
	<circle class="st5" cx="3752.47" cy="-209.4" r="35.69"/>
	<g>
		<circle class="st6" cx="3738.67" cy="-216.46" r="1.7"/>
		<circle class="st6" cx="3766.27" cy="-216.46" r="1.7"/>
	</g>
	<path class="st7" d="M3739.95-201.42c6.92,6.92,18.12,6.92,25.04,0"/>
</g>
<g>
	<circle class="st5" cx="3816.33" cy="-209.4" r="35.69"/>
	<g>
		<circle class="st6" cx="3802.53" cy="-216.46" r="1.7"/>
		<circle class="st6" cx="3830.13" cy="-216.46" r="1.7"/>
	</g>
	<path class="st7" d="M3803.81-201.42c6.92,6.92,18.12,6.92,25.04,0"/>
</g>
<polygon class="st1" points="1067.57,70.22 1085.53,87.86 1085.53,70.22 1103.17,70.22 1085.53,52.26 1103.17,34.3 1085.53,34.3 
	1085.53,16.66 1067.57,34.3 1049.6,16.66 1049.6,34.3 1031.97,34.3 1049.6,52.26 1031.97,70.22 1049.6,70.22 1049.6,87.86 "/>
<path class="st0" d="M4107.57,27.99c-19.42-11.08-39.69,1.39-38.74,22.03c1.04,22.68,19.59,51.75,37.54,44.64
	c2.43-0.97,5.14-0.97,7.57,0c17.95,7.11,36.5-21.97,37.54-44.64c0.95-20.59-19.24-33.06-38.63-22.09L4107.57,27.99z"/>
<path class="st0" d="M4117.26,6.71c-8.08,8.08-9.27,20.42-3.57,29.75"/>
<path class="st0" d="M4322.68,10.72c-15.65,1.49-19.56,16.36-22.4,32.85c-0.54,3.15-2.3,6.02-4.34,9.34
	c-3.7,6.02-8.29,13.51-5.89,25.26c1.08,5.52,4.51,10.3,9.39,13.1c6.38,3.78,15.19,4.62,22.99,2.21c1.59-0.51,3.3-0.44,4.84,0.2
	c3.02,1.27,6.28,1.91,9.56,1.88c3.96,0.01,7.88-0.85,11.47-2.52c6.07-2.82,10.57-8.21,12.26-14.69c3.27-11.72-1.68-19.37-5.65-25.52
	c-2.06-3.18-4-6.18-4.53-9.27c-2.83-16.42-6.72-31.25-22.22-32.84L4322.68,10.72z"/>
<path class="st0" d="M4331.44-6.16c-8.32,8.32-10.13,20.68-5.43,30.75"/>
<g>
	<rect x="2847.11" y="15.63" class="st1" width="99.16" height="71.2"/>
	<rect x="2847.11" y="51.23" class="st8" width="99.16" height="35.6"/>
	<rect x="2847.11" y="15.63" class="st9" width="35.6" height="35.6"/>
</g>
<polygon class="st1" points="3936.7,88.33 3885.66,96.02 3885.66,7.15 3936.7,-0.54 "/>
<rect x="3885.66" y="8.11" class="st1" width="63.23" height="88.87"/>
<g>
	<polygon class="st0" points="3284.57,101.88 3284.57,113.03 3273.41,101.88 3253.49,101.88 3253.49,11.59 3349.56,11.59 
		3349.56,101.88 	"/>
</g>
<g>
	<g>
		<circle class="st0" cx="3076.29" cy="38.99" r="20.4"/>
		<line class="st0" x1="3091.34" y1="54.04" x2="3099.07" y2="61.78"/>
	</g>
	
		<rect x="3105.11" y="56.69" transform="matrix(0.7071 -0.7071 0.7071 0.7071 859.0493 2221.1699)" class="st0" width="11.21" height="33.86"/>
</g>
<g>
	<path class="st0" d="M2691.65,44.75c-0.63,4.55-2.69,8.93-6.18,12.43c-8.52,8.52-22.33,8.52-30.85,0s-8.52-22.33,0-30.85
		s22.33-8.52,30.85,0C2690.49,31.35,2692.55,38.21,2691.65,44.75"/>
	<polyline class="st0" points="2692.65,44.59 2725.9,82.82 2712.43,96.29 2674.19,63.04 	"/>
	<line class="st0" x1="2718.64" y1="90.08" x2="2736.93" y2="108.38"/>
	<line class="st0" x1="2654.61" y1="57.18" x2="2684.67" y2="27.12"/>
</g>
<g>
	<rect x="3476.4" y="6.9" class="st0" width="65.29" height="88.66"/>
	<g>
		<polyline class="st0" points="3488.89,29.9 3494.77,34.19 3502.17,22.48 		"/>
		<polyline class="st0" points="3515.91,53.55 3521.79,57.85 3529.19,46.13 		"/>
		<g>
			<line class="st0" x1="3528.97" y1="23.66" x2="3516.14" y2="36.49"/>
			<line class="st0" x1="3516.14" y1="23.66" x2="3528.97" y2="36.49"/>
		</g>
		<g>
			<line class="st0" x1="3501.94" y1="67.15" x2="3489.11" y2="79.98"/>
			<line class="st0" x1="3489.11" y1="67.15" x2="3501.94" y2="79.98"/>
		</g>
		<line class="st0" x1="3489.68" y1="51.99" x2="3501.37" y2="51.99"/>
		<line class="st0" x1="3516.7" y1="73.57" x2="3528.4" y2="73.57"/>
	</g>
</g>
<polygon class="st0" points="2488.46,18.48 2500.03,41.92 2525.89,45.67 2507.18,63.92 2511.6,89.68 2488.46,77.51 2465.33,89.68 
	2469.75,63.92 2451.03,45.67 2476.9,41.92 "/>
<g>
	<rect x="2226.28" y="26.47" class="st0" width="116.13" height="71.69"/>
	<polyline class="st0" points="2226.39,26.47 2285.16,62.31 2342.31,26.47 	"/>
</g>
<g>
	<g>
		<polygon class="st0" points="2069.69,98.01 2004.28,98.01 2004.28,9.19 2047.52,9.19 2058.6,20.28 2069.69,31.36 		"/>
		<polyline class="st0" points="2047.52,9.19 2047.52,30.9 2069.69,30.9 		"/>
	</g>
	<line class="st0" x1="2020.06" y1="51.23" x2="2052.24" y2="51.23"/>
	<line class="st10" x1="2019.78" y1="64.54" x2="2051.96" y2="64.54"/>
	<line class="st10" x1="2019.78" y1="77.86" x2="2051.96" y2="77.86"/>
</g>
<g>
	<g>
		<polygon class="st0" points="2156.19,98.01 2090.78,98.01 2090.78,9.19 2134.02,9.19 2145.1,20.28 2156.19,31.36 		"/>
		<polyline class="st0" points="2134.02,9.19 2134.02,30.9 2156.19,30.9 		"/>
	</g>
	<line class="st0" x1="2106.56" y1="51.23" x2="2138.74" y2="51.23"/>
	<line class="st10" x1="2106.29" y1="64.54" x2="2138.46" y2="64.54"/>
	<line class="st10" x1="2106.29" y1="77.86" x2="2138.46" y2="77.86"/>
</g>
<polyline class="st0" points="2108.38,28.96 2114.27,33.27 2121.69,21.53 "/>
<g>
	<line class="st0" x1="2033.61" y1="20.97" x2="2020.75" y2="33.83"/>
	<line class="st0" x1="2020.75" y1="20.97" x2="2033.61" y2="33.83"/>
</g>
<g>
	<g>
		<g>
			<polygon class="st0" points="1838.23,88.18 1902.64,88.18 1902.64,-0.61 1860.06,-0.61 1849.15,10.47 1838.23,21.55 			"/>
			<polyline class="st0" points="1860.06,-0.61 1860.06,21.09 1838.23,21.09 			"/>
		</g>
	</g>
</g>
<g>
	<g>
		<circle class="st1" cx="1891.22" cy="36.41" r="20.88"/>
		<line class="st1" x1="1906.62" y1="51.82" x2="1914.54" y2="59.74"/>
	</g>
	
		<rect x="1920.72" y="54.53" transform="matrix(0.7071 -0.7071 0.7071 0.7071 513.4331 1383.2614)" class="st1" width="11.48" height="34.67"/>
</g>
<g>
	<path class="st0" d="M1730.4,54.37c0,0-17.48,41.31-58.39,41.31s-58.39-41.31-58.39-41.31V53.6c0,0,12.46-21.34,25.4-27.36
		s32.99,4.23,32.99,4.23l0,0c0,0,19.92-10.25,32.87-4.23c12.94,6.02,25.4,27.36,25.4,27.36L1730.4,54.37z"/>
	<path class="st0" d="M1613.61,53.6c0,0,48.67,12.89,116.79,0.77"/>
</g>
<g>
	<path class="st0" d="M1512.68,58.6c0,0-17.47,35.88-58.34,35.88S1396,58.6,1396,58.6s17.47-35.88,58.34-35.88
		S1512.68,58.6,1512.68,58.6z"/>
	<circle class="st0" cx="1454.34" cy="57.61" r="17.39"/>
</g>
<g>
	<circle class="st5" cx="4529.61" cy="56.18" r="35.69"/>
	<g>
		<circle class="st6" cx="4515.81" cy="49.12" r="1.7"/>
		<circle class="st6" cx="4543.42" cy="49.12" r="1.7"/>
	</g>
	<path class="st7" d="M4517.09,64.16c6.92,6.92,18.12,6.92,25.04,0"/>
</g>
<g>
	<circle class="st1" cx="4741.14" cy="31.22" r="22.82"/>
	<line class="st1" x1="4741.14" y1="54.04" x2="4741.14" y2="97.38"/>
	<line class="st1" x1="4723.04" y1="73.23" x2="4759.23" y2="73.23"/>
</g>
<g>
	<circle class="st1" cx="4918.99" cy="72.93" r="22.82"/>
	<line class="st1" x1="4935.21" y1="56.24" x2="4974.84" y2="16.61"/>
	<polyline class="st0" points="4948.42,16.61 4974.84,16.61 4974.84,43.03 	"/>
</g>
</svg>
