<?xml version="1.0" encoding="utf-8"?>
<!-- Generator: Adobe Illustrator 24.2.0, SVG Export Plug-In . SVG Version: 6.00 Build 0)  -->
<svg version="1.1" id="Capa_1" xmlns="http://www.w3.org/2000/svg" xmlns:xlink="http://www.w3.org/1999/xlink" x="0px" y="0px"
	 viewBox="0 0 90.64 87.1" style="enable-background:new 0 0 90.64 87.1;" xml:space="preserve">
<style type="text/css">
	.st0{fill:none;stroke:#000000;stroke-width:6.5;stroke-miterlimit:10;}
	.st1{fill:#FFFFFF;stroke:#000000;stroke-width:6.5;stroke-miterlimit:10;}
	.st2{fill:#FFFFFF;}
	.st3{stroke:#000000;stroke-width:6.5;stroke-miterlimit:10;}
	.st4{fill:#1D1D1B;}
	.st5{fill:#FFFFFF;stroke:#1D1D1B;stroke-width:6.5;stroke-miterlimit:10;}
	.st6{fill:#1D1D1B;stroke:#1D1D1B;stroke-width:6.5;stroke-miterlimit:10;}
	.st7{fill:none;stroke:#1D1D1B;stroke-width:6.5;stroke-miterlimit:10;}
	.st8{fill:#FC5439;stroke:#000000;stroke-width:6.5;stroke-miterlimit:10;}
	.st9{fill:#3A90FD;stroke:#000000;stroke-width:6.5;stroke-miterlimit:10;}
	.st10{fill:#F1CD08;stroke:#000000;stroke-width:6.5;stroke-miterlimit:10;}
</style>
<g>
	<path class="st0" d="M-5293.15,81.08V6.74c0-4.23,3.43-7.65,7.65-7.65h54.6v77.9"/>
	<path class="st0" d="M-5269.59,87.82h38.68V74.33h-55.51c-3.72,0-6.74,3.02-6.74,6.74v0c0,3.72,3.02,6.74,6.74,6.74h1.52"/>
	<rect x="-5275.49" y="19.85" class="st0" width="26.92" height="15.7"/>
	<polygon class="st0" points="-5271.77,100.97 -5277.03,106.27 -5282.29,100.97 -5282.29,84.02 -5271.77,84.02 	"/>
</g>
<polygon class="st0" points="-5623.86,43.7 -5659.53,8.02 -5659.53,23.53 -5716.66,23.53 -5716.66,65.26 -5659.53,65.26 
	-5659.53,79.37 "/>
<g>
	<polyline class="st0" points="-5450.93,17.08 -5427.29,17.08 -5427.29,88.28 -5504.15,88.28 -5504.15,17.08 -5474.02,17.08 	"/>
	<polygon class="st0" points="-5468.66,28.89 -5477.24,20.31 -5456.05,-0.88 -5444.51,10.66 -5462.74,28.89 	"/>
	<polyline class="st0" points="-5478.61,28.89 -5468.66,28.89 -5462.74,28.89 -5452.82,28.89 	"/>
</g>
<g>
	<polygon class="st0" points="-5839.08,-10.6 -5915.1,40.96 -5922.83,60.37 -5901.94,60.37 -5825.92,8.81 	"/>
	<line class="st0" x1="-5915.1" y1="40.96" x2="-5901.94" y2="60.37"/>
</g>
<g>
	<g>
		<path class="st1" d="M-5053.27,76.66h24.01c19.62,0,35.53-15.91,35.53-35.53v0c0-19.62-15.91-35.53-35.53-35.53l-3.72,0h-78.89
			c-4.91,0-8.88,3.98-8.88,8.88v0c0,4.91,3.98,8.88,8.88,8.88l68.05,0v0"/>
		<path class="st1" d="M-5043.82,23.37h-21.09c-4.91,0-8.88,3.98-8.88,8.88v0c0,4.91,3.98,8.88,8.88,8.88h19.4h1.7
			c4.91,0,8.88-3.98,8.88-8.88v0C-5034.94,27.34-5038.92,23.37-5043.82,23.37z"/>
		<path class="st1" d="M-5043.19,41.13h-21.1c-4.91,0-8.88,3.98-8.88,8.88v0c0,4.91,3.98,8.88,8.88,8.88h19.4h1.7
			c4.9,0,8.88-3.98,8.88-8.88v0C-5034.3,45.11-5038.28,41.13-5043.19,41.13z"/>
		<path class="st1" d="M-5043.19,58.89h-21.1c-4.91,0-8.88,3.98-8.88,8.88v0c0,4.91,3.98,8.88,8.88,8.88h19.4h1.7
			c4.9,0,8.88-3.98,8.88-8.88v0C-5034.3,62.87-5038.28,58.89-5043.19,58.89z"/>
	</g>
	<path class="st1" d="M-5029.74,7.48l-11.69,23.48c-2.15,4.41-0.32,9.73,4.09,11.88v0c4.41,2.15,9.73,0.32,11.88-4.09l8.54-17.14"/>
</g>
<g>
	<ellipse class="st2" cx="-4848.01" cy="46.71" rx="28.07" ry="18.08"/>
	<g>
		<path class="st1" d="M-4828.64,41.98V27.34c0-3.72,3.01-6.73,6.73-6.73l0,0c3.72,0,6.73,3.01,6.73,6.73V50.1
			c0,18.59-15.07,33.66-33.66,33.66l0,0c-18.59,0-33.66-15.07-33.66-33.66V26.99l0,0c7.43,0,13.45,6.02,13.45,13.45v8.75l0,0
			c7.42,0,13.44,6.02,13.44,13.44v0.83"/>
		<path class="st1" d="M-4828.71,41.98V9.21c0-3.72-3.01-6.73-6.73-6.73l0,0c-3.72,0-6.73,3.01-6.73,6.73v25.15"/>
		<path class="st1" d="M-4842.16,38.15V2.38c0-3.72-3.01-6.73-6.73-6.73l0,0c-3.72,0-6.73,3.01-6.73,6.73v25.15"/>
		<path class="st1" d="M-4855.62,37.37V7.6c0-3.72-3.01-6.73-6.73-6.73l0,0c-3.72,0-6.73,3.01-6.73,6.73v37.79"/>
	</g>
</g>
<g>
	<line class="st0" x1="-4662.73" y1="-172.65" x2="-4586.17" y2="-191.62"/>
	<circle class="st1" cx="-4662.73" cy="-172.65" r="25.98"/>
	<line class="st0" x1="-4509.37" y1="-172.63" x2="-4585.92" y2="-191.61"/>
	<circle class="st1" cx="-4509.37" cy="-172.65" r="25.98"/>
	<circle class="st1" cx="-4586.17" cy="-191.62" r="25.98"/>
</g>
<g>
	<circle class="st0" cx="-4440.2" cy="38.15" r="35.6"/>
	<g>
		<circle class="st3" cx="-4453.97" cy="31.11" r="1.69"/>
		<circle class="st3" cx="-4426.43" cy="31.11" r="1.69"/>
	</g>
	<path class="st0" d="M-4452.69,46.11c6.9,6.9,18.07,6.9,24.98,0"/>
</g>
<g>
	<line class="st0" x1="-4207.39" y1="5.51" x2="-4207.39" y2="77.36"/>
	<line class="st0" x1="-4277.7" y1="41.43" x2="-4328.62" y2="41.43"/>
	<line class="st0" x1="-4167.78" y1="41.43" x2="-4218.7" y2="41.43"/>
	<rect x="-4297.1" y="22.18" class="st1" width="89.71" height="38.51"/>
	<line class="st0" x1="-4169.4" y1="25.67" x2="-4169.4" y2="57.19"/>
	<line class="st0" x1="-4255.88" y1="22.92" x2="-4255.88" y2="37.87"/>
	<line class="st0" x1="-4242.25" y1="24.13" x2="-4242.25" y2="45.55"/>
</g>
<circle class="st1" cx="-1596.07" cy="43.35" r="35.26"/>
<g>
	<rect x="-4071.21" y="-4.7" class="st1" width="70.6" height="50.69"/>
	<line class="st1" x1="-4071.21" y1="-12.43" x2="-4071.21" y2="76.97"/>
	<rect x="-4071.21" y="20.65" class="st1" width="70.6" height="25.35"/>
	<rect x="-4071.21" y="-4.7" class="st1" width="25.35" height="25.35"/>
</g>
<g transform="translate(0,-952.36218)">
	<path class="st1" d="M-3862.27,1016.5c0,18.4,13.01,33.32,29.05,33.32c16.03,0,29.05-14.92,29.05-33.32s-13.96-38.93-29.05-56.24
		C-3833.22,960.26-3862.27,993.28-3862.27,1016.5z"/>
</g>
<g>
	<polyline class="st1" points="-3685.29,38.57 -3640.55,-6.17 -3595.82,38.57 	"/>
	<path class="st1" d="M-3640.55,30.82"/>
	<polygon class="st1" points="-3610.26,82.47 -3670.84,82.47 -3670.84,24.16 -3640.55,-6.17 -3610.26,24.16 	"/>
	<polyline class="st0" points="-3653.67,82.47 -3653.67,47.12 -3627.43,47.12 -3627.43,82.47 	"/>
</g>
<g>
	<circle class="st1" cx="-2200.3" cy="43.7" r="35.29"/>
	<polyline class="st1" points="-2213.86,43.32 -2205.68,53.12 -2186.74,34.28 	"/>
</g>
<g>
	<g>
		<g>
			<rect x="-3459.76" y="12.9" class="st0" width="69.54" height="69.54"/>
			<g>
				<line class="st1" x1="-3444.85" y1="2.1" x2="-3444.85" y2="23.69"/>
				<line class="st1" x1="-3405.14" y1="2.1" x2="-3405.14" y2="23.69"/>
			</g>
		</g>
		<line class="st1" x1="-3459.76" y1="35.6" x2="-3390.22" y2="35.6"/>
	</g>
	<g>
		<path class="st4" d="M-3424.39,47.85v4.07l-6.81,5.54v0.42h0.91c3.4,0,6.46,2.35,6.46,6.81c0,4.98-3.79,8.21-9.26,8.21
			c-5.86,0-9.4-3.47-9.4-8.35v-0.98h4.63v0.84c0,2.39,1.65,4.35,4.77,4.35c2.91,0,4.63-1.72,4.63-4.07c0-2.35-1.65-3.51-4-3.51
			h-4.28v-4.14l6.07-4.98h-11.12v-4.21H-3424.39z"/>
		<path class="st4" d="M-3409.02,47.85v24.56h-4.63V52.76h-0.42l-3.44,6.18h-4.84l6.32-11.09H-3409.02z"/>
	</g>
</g>
<g>
	<g>
		<circle class="st1" cx="-3222.66" cy="47.62" r="34.11"/>
		<g>
			<path class="st1" d="M-3228.14,14.26c-15.63,19.6-15.53,47.58,0.29,67.07"/>
			<path class="st1" d="M-3216.25,14.26c15.48,19.42,15.53,47.05,0.16,66.52"/>
		</g>
		<line class="st1" x1="-3256.77" y1="47.62" x2="-3188.55" y2="47.62"/>
		<line class="st1" x1="-3222.19" y1="13.71" x2="-3222.19" y2="81.53"/>
	</g>
</g>
<g>
	<circle class="st1" cx="-3030.19" cy="23.97" r="22.82"/>
	<line class="st1" x1="-3030.19" y1="46.79" x2="-3030.19" y2="90.13"/>
	<line class="st1" x1="-3048.29" y1="65.98" x2="-3012.09" y2="65.98"/>
</g>
<g>
	<circle class="st1" cx="-2817.72" cy="34.53" r="22.82"/>
	<line class="st1" x1="-2801.5" y1="17.84" x2="-2761.87" y2="-21.8"/>
	<polyline class="st0" points="-2788.29,-21.8 -2761.87,-21.8 -2761.87,4.63 	"/>
</g>
<path class="st1" d="M-2563.94,51.04V39l-36.59-13.14l0.48-18.57c0.09-2.9-1.09-5.69-3.23-7.65v0c-3.79-3.47-9.61-3.48-13.41-0.01
	l-0.01,0.01c-2.15,1.96-3.34,4.76-3.24,7.66l0.48,18.55l-33.67,12.17v12.04l34.33-6.35l1.48,23.62l-12.3,10.06v8.46l20.03-9.74
	l20.03,9.74V77.4l-13.09-10.58l1.45-22.86L-2563.94,51.04z"/>
<g>
	<g>
		<g>
			<g>
				<g>
					<g>
						<rect x="-1219.7" y="24.2" class="st2" width="79.95" height="61.47"/>
						<rect x="-1219.7" y="24.2" class="st0" width="79.95" height="61.47"/>
					</g>
				</g>
			</g>
		</g>
		<path class="st1" d="M-1160.61,73.48h-38.24c-4.08,0-7.39-3.31-7.39-7.39V43.78c0-4.08,3.31-7.39,7.39-7.39h38.24
			c4.08,0,7.39,3.31,7.39,7.39v22.31C-1153.21,70.17-1156.52,73.48-1160.61,73.48z"/>
		<g>
			<line class="st1" x1="-1205.31" y1="-2.25" x2="-1179.14" y2="23.92"/>
			<line class="st1" x1="-1154.14" y1="-2.25" x2="-1180.31" y2="23.92"/>
		</g>
	</g>
</g>
<g>
	<polygon class="st1" points="-2371.97,86.33 -2436.86,86.33 -2436.86,-1.79 -2393.96,-1.79 -2382.97,9.21 -2371.97,20.2 	"/>
	<polyline class="st1" points="-2393.96,-1.79 -2393.96,19.75 -2371.97,19.75 	"/>
</g>
<g>
	
		<rect x="-1812.14" y="26.62" transform="matrix(-1.836970e-16 1 -1 -1.836970e-16 -1757.4032 1854.4755)" class="st1" width="12.39" height="43.82"/>
	<rect x="-1829.07" y="-2.09" class="st1" width="12.39" height="88.26"/>
	<rect x="-1790.66" y="42.34" class="st1" width="12.39" height="43.82"/>
</g>
<g>
	<g>
		<polygon class="st1" points="-1963.66,85.48 -2028.72,85.48 -2028.72,-2.87 -1985.71,-2.87 -1974.68,8.16 -1963.66,19.18 		"/>
		<polyline class="st1" points="-1985.71,-2.87 -1985.71,18.72 -1963.66,18.72 		"/>
	</g>
	<line class="st1" x1="-2013.02" y1="38.95" x2="-1981.01" y2="38.95"/>
	<line class="st1" x1="-2013.29" y1="52.19" x2="-1981.29" y2="52.19"/>
	<line class="st1" x1="-2013.29" y1="65.44" x2="-1981.29" y2="65.44"/>
</g>
<g>
	<g>
		<path class="st4" d="M-1586.06,48.43v0.37c0,4.38-3.02,7.11-7.37,7.77v3.94h-4.42v-3.9c-5.08-0.7-8.25-3.98-8.25-9.28v-0.81h4.86
			v0.59c0,2.39,1.07,4.13,3.39,4.79v-7c-4.68-1.14-7.29-3.13-7.29-7.37v-0.22c0-4.02,3.09-6.67,7.29-7.26v-3.87h4.42v4.01
			c4.16,0.81,7,3.65,7,7.92v1.11h-4.86v-0.74c0-1.84-0.77-2.95-2.14-3.54v6.15C-1588.67,42.24-1586.06,44.23-1586.06,48.43z
			 M-1597.84,40.11v-5.38c-1.47,0.44-2.36,1.44-2.36,2.65C-1600.2,38.89-1599.28,39.59-1597.84,40.11z M-1590.99,48.8
			c0-1.47-0.85-2.28-2.43-2.84v5.93C-1591.8,51.34-1590.99,50.13-1590.99,48.8z"/>
	</g>
</g>
<g>
	<circle class="st5" cx="1245.11" cy="-218.59" r="35.69"/>
	<g>
		<circle class="st6" cx="1231.31" cy="-225.65" r="1.7"/>
		<circle class="st6" cx="1258.91" cy="-225.65" r="1.7"/>
	</g>
	<path class="st7" d="M1232.59-210.61c6.92,6.92,18.12,6.92,25.04,0"/>
</g>
<g>
	<circle class="st5" cx="1308.97" cy="-218.59" r="35.69"/>
	<g>
		<circle class="st6" cx="1295.17" cy="-225.65" r="1.7"/>
		<circle class="st6" cx="1322.77" cy="-225.65" r="1.7"/>
	</g>
	<path class="st7" d="M1296.45-210.61c6.92,6.92,18.12,6.92,25.04,0"/>
</g>
<g>
	<circle class="st5" cx="1372.83" cy="-218.59" r="35.69"/>
	<g>
		<circle class="st6" cx="1359.03" cy="-225.65" r="1.7"/>
		<circle class="st6" cx="1386.63" cy="-225.65" r="1.7"/>
	</g>
	<path class="st7" d="M1360.31-210.61c6.92,6.92,18.12,6.92,25.04,0"/>
</g>
<polygon class="st1" points="-1375.93,61.03 -1357.97,78.67 -1357.97,61.03 -1340.33,61.03 -1357.97,43.07 -1340.33,25.11 
	-1357.97,25.11 -1357.97,7.47 -1375.93,25.11 -1393.9,7.47 -1393.9,25.11 -1411.53,25.11 -1393.9,43.07 -1411.53,61.03 
	-1393.9,61.03 -1393.9,78.67 "/>
<path class="st0" d="M1664.07,18.79c-19.42-11.08-39.69,1.39-38.74,22.03c1.04,22.68,19.59,51.75,37.54,44.64
	c2.43-0.97,5.14-0.97,7.57,0c17.95,7.11,36.49-21.97,37.54-44.64c0.95-20.59-19.24-33.06-38.63-22.09L1664.07,18.79z"/>
<path class="st0" d="M1673.76-2.48c-8.08,8.08-9.27,20.42-3.57,29.75"/>
<path class="st0" d="M1879.18,1.53c-15.65,1.49-19.56,16.36-22.4,32.85c-0.54,3.15-2.3,6.02-4.34,9.34
	c-3.7,6.02-8.29,13.51-5.89,25.26c1.08,5.52,4.51,10.3,9.39,13.1c6.38,3.78,15.19,4.62,22.99,2.21c1.59-0.51,3.3-0.44,4.84,0.2
	c3.02,1.27,6.28,1.91,9.56,1.88c3.96,0.01,7.88-0.85,11.47-2.52c6.07-2.82,10.57-8.21,12.26-14.69c3.27-11.72-1.68-19.37-5.65-25.52
	c-2.06-3.18-4-6.18-4.53-9.27c-2.83-16.42-6.72-31.25-22.22-32.84L1879.18,1.53z"/>
<path class="st0" d="M1887.94-15.35c-8.32,8.32-10.13,20.68-5.43,30.75"/>
<g>
	<rect x="403.61" y="6.44" class="st1" width="99.16" height="71.2"/>
	<rect x="403.61" y="42.04" class="st8" width="99.16" height="35.6"/>
	<rect x="403.61" y="6.44" class="st9" width="35.6" height="35.6"/>
</g>
<polygon class="st1" points="1493.2,79.14 1442.16,86.83 1442.16,-2.05 1493.2,-9.73 "/>
<rect x="1442.16" y="-1.08" class="st1" width="63.23" height="88.87"/>
<g>
	<polygon class="st0" points="841.07,92.69 841.07,103.84 829.91,92.69 809.99,92.69 809.99,2.4 906.06,2.4 906.06,92.69 	"/>
</g>
<g>
	<g>
		<circle class="st0" cx="632.79" cy="29.8" r="20.4"/>
		<line class="st0" x1="647.84" y1="44.85" x2="655.57" y2="52.59"/>
	</g>
	
		<rect x="661.61" y="47.5" transform="matrix(0.7071 -0.7071 0.7071 0.7071 149.8639 490.6624)" class="st0" width="11.21" height="33.86"/>
</g>
<g>
	<path class="st0" d="M248.15,35.56c-0.63,4.55-2.69,8.93-6.18,12.43c-8.52,8.52-22.33,8.52-30.85,0s-8.52-22.33,0-30.85
		s22.33-8.52,30.85,0C246.99,22.16,249.05,29.02,248.15,35.56"/>
	<polyline class="st0" points="249.15,35.39 282.4,73.63 268.93,87.1 230.69,53.85 	"/>
	<line class="st0" x1="275.13" y1="80.89" x2="293.43" y2="99.19"/>
	<line class="st0" x1="211.11" y1="47.98" x2="241.17" y2="17.92"/>
</g>
<g>
	<rect x="1032.9" y="-2.29" class="st0" width="65.29" height="88.66"/>
	<g>
		<polyline class="st0" points="1045.39,20.7 1051.27,25 1058.67,13.29 		"/>
		<polyline class="st0" points="1072.41,44.36 1078.29,48.66 1085.69,36.94 		"/>
		<g>
			<line class="st0" x1="1085.47" y1="14.47" x2="1072.64" y2="27.3"/>
			<line class="st0" x1="1072.64" y1="14.47" x2="1085.47" y2="27.3"/>
		</g>
		<g>
			<line class="st0" x1="1058.44" y1="57.96" x2="1045.61" y2="70.79"/>
			<line class="st0" x1="1045.61" y1="57.96" x2="1058.44" y2="70.79"/>
		</g>
		<line class="st0" x1="1046.18" y1="42.8" x2="1057.87" y2="42.8"/>
		<line class="st0" x1="1073.2" y1="64.38" x2="1084.9" y2="64.38"/>
	</g>
</g>
<polygon class="st0" points="44.96,9.29 56.53,32.72 82.39,36.48 63.68,54.73 68.1,80.48 44.96,68.32 21.83,80.48 26.25,54.73 
	7.53,36.48 33.4,32.72 "/>
<g>
	<rect x="-217.22" y="17.28" class="st0" width="116.13" height="71.69"/>
	<polyline class="st0" points="-217.11,17.28 -158.34,53.12 -101.19,17.28 	"/>
</g>
<g>
	<g>
		<polygon class="st0" points="-373.81,88.82 -439.22,88.82 -439.22,0 -395.98,0 -384.9,11.08 -373.81,22.17 		"/>
		<polyline class="st0" points="-395.98,0 -395.98,21.71 -373.81,21.71 		"/>
	</g>
	<line class="st0" x1="-423.44" y1="42.04" x2="-391.26" y2="42.04"/>
	<line class="st10" x1="-423.72" y1="55.35" x2="-391.54" y2="55.35"/>
	<line class="st10" x1="-423.72" y1="68.67" x2="-391.54" y2="68.67"/>
</g>
<g>
	<g>
		<polygon class="st0" points="-287.31,88.82 -352.72,88.82 -352.72,0 -309.48,0 -298.4,11.08 -287.31,22.17 		"/>
		<polyline class="st0" points="-309.48,0 -309.48,21.71 -287.31,21.71 		"/>
	</g>
	<line class="st0" x1="-336.94" y1="42.04" x2="-304.76" y2="42.04"/>
	<line class="st10" x1="-337.21" y1="55.35" x2="-305.04" y2="55.35"/>
	<line class="st10" x1="-337.21" y1="68.67" x2="-305.04" y2="68.67"/>
</g>
<polyline class="st0" points="-335.12,19.77 -329.23,24.08 -321.81,12.34 "/>
<g>
	<line class="st0" x1="-409.89" y1="11.78" x2="-422.75" y2="24.63"/>
	<line class="st0" x1="-422.75" y1="11.78" x2="-409.89" y2="24.63"/>
</g>
<g>
	<g>
		<g>
			<polygon class="st0" points="-605.27,78.99 -540.86,78.99 -540.86,-9.8 -583.44,-9.8 -594.35,1.28 -605.27,12.36 			"/>
			<polyline class="st0" points="-583.44,-9.8 -583.44,11.9 -605.27,11.9 			"/>
		</g>
	</g>
</g>
<g>
	<g>
		<circle class="st1" cx="-552.28" cy="27.22" r="20.88"/>
		<line class="st1" x1="-536.88" y1="42.63" x2="-528.96" y2="50.55"/>
	</g>
	
		<rect x="-522.78" y="45.34" transform="matrix(0.7071 -0.7071 0.7071 0.7071 -195.7522 -347.2461)" class="st1" width="11.48" height="34.67"/>
</g>
<g>
	<path class="st0" d="M-713.1,45.18c0,0-17.48,41.31-58.39,41.31c-40.91,0-58.39-41.31-58.39-41.31v-0.77
		c0,0,12.46-21.34,25.4-27.36c12.94-6.02,32.99,4.23,32.99,4.23l0,0c0,0,19.92-10.25,32.87-4.23c12.94,6.02,25.4,27.36,25.4,27.36
		L-713.1,45.18z"/>
	<path class="st0" d="M-829.89,44.41c0,0,48.67,12.89,116.79,0.77"/>
</g>
<g>
	<path class="st0" d="M-930.82,44.72c0,0-17.47,35.88-58.34,35.88s-58.34-35.88-58.34-35.88s17.47-35.88,58.34-35.88
		S-930.82,44.72-930.82,44.72z"/>
	<circle class="st0" cx="-989.16" cy="43.73" r="17.39"/>
</g>
<g>
	<circle class="st5" cx="2086.11" cy="46.99" r="35.69"/>
	<g>
		<circle class="st6" cx="2072.31" cy="39.93" r="1.7"/>
		<circle class="st6" cx="2099.92" cy="39.93" r="1.7"/>
	</g>
	<path class="st7" d="M2073.59,54.97c6.92,6.92,18.12,6.92,25.04,0"/>
</g>
<g>
	<circle class="st1" cx="2297.64" cy="22.03" r="22.82"/>
	<line class="st1" x1="2297.64" y1="44.85" x2="2297.64" y2="88.19"/>
	<line class="st1" x1="2279.54" y1="64.04" x2="2315.73" y2="64.04"/>
</g>
<g>
	<circle class="st1" cx="2475.49" cy="63.74" r="22.82"/>
	<line class="st1" x1="2491.71" y1="47.05" x2="2531.34" y2="7.41"/>
	<polyline class="st0" points="2504.92,7.41 2531.34,7.41 2531.34,33.84 	"/>
</g>
</svg>
