<?xml version="1.0" encoding="utf-8"?>
<!-- Generator: Adobe Illustrator 24.2.0, SVG Export Plug-In . SVG Version: 6.00 Build 0)  -->
<svg version="1.1" id="Capa_1" xmlns="http://www.w3.org/2000/svg" xmlns:xlink="http://www.w3.org/1999/xlink" x="0px" y="0px"
	 viewBox="0 0 93.54 95.48" style="enable-background:new 0 0 93.54 95.48;" xml:space="preserve">
<style type="text/css">
	.st0{fill:none;stroke:#000000;stroke-width:6.5;stroke-miterlimit:10;}
	.st1{fill:#FFFFFF;stroke:#000000;stroke-width:6.5;stroke-miterlimit:10;}
	.st2{fill:#FFFFFF;}
	.st3{stroke:#000000;stroke-width:6.5;stroke-miterlimit:10;}
	.st4{fill:#1D1D1B;}
	.st5{fill:#FFFFFF;stroke:#1D1D1B;stroke-width:6.5;stroke-miterlimit:10;}
	.st6{fill:#1D1D1B;stroke:#1D1D1B;stroke-width:6.5;stroke-miterlimit:10;}
	.st7{fill:none;stroke:#1D1D1B;stroke-width:6.5;stroke-miterlimit:10;}
	.st8{fill:#FC5439;stroke:#000000;stroke-width:6.5;stroke-miterlimit:10;}
	.st9{fill:#3A90FD;stroke:#000000;stroke-width:6.5;stroke-miterlimit:10;}
	.st10{fill:#F1CD08;stroke:#000000;stroke-width:6.5;stroke-miterlimit:10;}
</style>
<g>
	<path class="st0" d="M-3868.9,85.93V11.59c0-4.23,3.43-7.65,7.65-7.65h54.6v77.9"/>
	<path class="st0" d="M-3845.34,92.67h38.68V79.18h-55.51c-3.72,0-6.74,3.02-6.74,6.74v0c0,3.72,3.02,6.74,6.74,6.74h1.52"/>
	<rect x="-3851.24" y="24.7" class="st0" width="26.92" height="15.7"/>
	<polygon class="st0" points="-3847.52,105.82 -3852.78,111.12 -3858.04,105.82 -3858.04,88.87 -3847.52,88.87 	"/>
</g>
<polygon class="st0" points="-4199.61,48.55 -4235.28,12.88 -4235.28,28.38 -4292.41,28.38 -4292.41,70.11 -4235.28,70.11 
	-4235.28,84.22 "/>
<g>
	<polyline class="st0" points="-4026.68,21.93 -4003.04,21.93 -4003.04,93.13 -4079.9,93.13 -4079.9,21.93 -4049.77,21.93 	"/>
	<polygon class="st0" points="-4044.41,33.74 -4052.99,25.16 -4031.8,3.97 -4020.26,15.51 -4038.49,33.74 	"/>
	<polyline class="st0" points="-4054.36,33.74 -4044.41,33.74 -4038.49,33.74 -4028.57,33.74 	"/>
</g>
<g>
	<polygon class="st0" points="-4414.83,-5.75 -4490.85,45.81 -4498.58,65.22 -4477.69,65.22 -4401.67,13.66 	"/>
	<line class="st0" x1="-4490.85" y1="45.81" x2="-4477.69" y2="65.22"/>
</g>
<g>
	<g>
		<path class="st1" d="M-3629.01,81.51h24.01c19.62,0,35.53-15.91,35.53-35.53v0c0-19.62-15.91-35.53-35.53-35.53l-3.72,0h-78.89
			c-4.91,0-8.88,3.98-8.88,8.88v0c0,4.91,3.98,8.88,8.88,8.88h68.05v0"/>
		<path class="st1" d="M-3619.57,28.22h-21.1c-4.91,0-8.88,3.98-8.88,8.88v0c0,4.91,3.98,8.88,8.88,8.88h19.4h1.7
			c4.91,0,8.88-3.98,8.88-8.88v0C-3610.69,32.19-3614.67,28.22-3619.57,28.22z"/>
		<path class="st1" d="M-3618.94,45.98h-21.09c-4.91,0-8.88,3.98-8.88,8.88v0c0,4.91,3.98,8.88,8.88,8.88h19.4h1.7
			c4.91,0,8.88-3.98,8.88-8.88v0C-3610.05,49.96-3614.03,45.98-3618.94,45.98z"/>
		<path class="st1" d="M-3618.94,63.74h-21.09c-4.91,0-8.88,3.98-8.88,8.88v0c0,4.91,3.98,8.88,8.88,8.88h19.4h1.7
			c4.91,0,8.88-3.98,8.88-8.88v0C-3610.05,67.72-3614.03,63.74-3618.94,63.74z"/>
	</g>
	<path class="st1" d="M-3605.49,12.33l-11.69,23.48c-2.15,4.41-0.32,9.73,4.09,11.88v0c4.41,2.15,9.73,0.32,11.88-4.09l8.54-17.14"
		/>
</g>
<g>
	<ellipse class="st2" cx="-3423.76" cy="51.56" rx="28.07" ry="18.08"/>
	<g>
		<path class="st1" d="M-3404.39,46.83V32.19c0-3.72,3.01-6.73,6.73-6.73l0,0c3.72,0,6.73,3.01,6.73,6.73v22.75
			c0,18.59-15.07,33.66-33.66,33.66l0,0c-18.59,0-33.66-15.07-33.66-33.66V31.84l0,0c7.43,0,13.45,6.02,13.45,13.45v8.75l0,0
			c7.42,0,13.44,6.02,13.44,13.44v0.83"/>
		<path class="st1" d="M-3404.46,46.83V14.06c0-3.72-3.01-6.73-6.73-6.73l0,0c-3.72,0-6.73,3.01-6.73,6.73V39.2"/>
		<path class="st1" d="M-3417.91,43V7.23c0-3.72-3.01-6.73-6.73-6.73l0,0c-3.72,0-6.73,3.01-6.73,6.73v25.15"/>
		<path class="st1" d="M-3431.37,42.22V12.45c0-3.72-3.01-6.73-6.73-6.73l0,0c-3.72,0-6.73,3.01-6.73,6.73v37.79"/>
	</g>
</g>
<g>
	<line class="st0" x1="-3238.48" y1="-167.79" x2="-3161.92" y2="-186.77"/>
	<circle class="st1" cx="-3238.48" cy="-167.79" r="25.98"/>
	<line class="st0" x1="-3085.12" y1="-167.78" x2="-3161.67" y2="-186.76"/>
	<circle class="st1" cx="-3085.12" cy="-167.79" r="25.98"/>
	<circle class="st1" cx="-3161.92" cy="-186.77" r="25.98"/>
</g>
<g>
	<circle class="st0" cx="-3015.95" cy="43" r="35.6"/>
	<g>
		<circle class="st3" cx="-3029.72" cy="35.96" r="1.69"/>
		<circle class="st3" cx="-3002.18" cy="35.96" r="1.69"/>
	</g>
	<path class="st0" d="M-3028.44,50.96c6.9,6.9,18.07,6.9,24.98,0"/>
</g>
<g>
	<line class="st0" x1="-2783.14" y1="10.36" x2="-2783.14" y2="82.21"/>
	<line class="st0" x1="-2853.45" y1="46.28" x2="-2904.37" y2="46.28"/>
	<line class="st0" x1="-2743.53" y1="46.28" x2="-2794.45" y2="46.28"/>
	<rect x="-2872.85" y="27.03" class="st1" width="89.71" height="38.51"/>
	<line class="st0" x1="-2745.15" y1="30.52" x2="-2745.15" y2="62.04"/>
	<line class="st0" x1="-2831.63" y1="27.77" x2="-2831.63" y2="42.72"/>
	<line class="st0" x1="-2818" y1="28.98" x2="-2818" y2="50.4"/>
</g>
<circle class="st1" cx="-171.82" cy="48.2" r="35.26"/>
<g>
	<rect x="-2646.96" y="0.15" class="st1" width="70.6" height="50.69"/>
	<line class="st1" x1="-2646.96" y1="-7.58" x2="-2646.96" y2="81.82"/>
	<rect x="-2646.96" y="25.5" class="st1" width="70.6" height="25.35"/>
	<rect x="-2646.96" y="0.15" class="st1" width="25.35" height="25.35"/>
</g>
<g transform="translate(0,-952.36218)">
	<path class="st1" d="M-2438.02,1021.35c0,18.4,13.01,33.32,29.05,33.32c16.03,0,29.05-14.92,29.05-33.32
		c0-18.4-13.96-38.93-29.05-56.24C-2408.97,965.11-2438.02,998.13-2438.02,1021.35z"/>
</g>
<g>
	<polyline class="st1" points="-2261.04,43.42 -2216.3,-1.31 -2171.57,43.42 	"/>
	<path class="st1" d="M-2216.3,35.67"/>
	<polygon class="st1" points="-2186.01,87.32 -2246.59,87.32 -2246.59,29.01 -2216.3,-1.31 -2186.01,29.01 	"/>
	<polyline class="st0" points="-2229.42,87.32 -2229.42,51.97 -2203.18,51.97 -2203.18,87.32 	"/>
</g>
<g>
	<circle class="st1" cx="-776.05" cy="48.55" r="35.29"/>
	<polyline class="st1" points="-789.61,48.17 -781.43,57.97 -762.49,39.13 	"/>
</g>
<g>
	<g>
		<g>
			<rect x="-2035.51" y="17.75" class="st0" width="69.54" height="69.54"/>
			<g>
				<line class="st1" x1="-2020.6" y1="6.95" x2="-2020.6" y2="28.54"/>
				<line class="st1" x1="-1980.89" y1="6.95" x2="-1980.89" y2="28.54"/>
			</g>
		</g>
		<line class="st1" x1="-2035.51" y1="40.45" x2="-1965.97" y2="40.45"/>
	</g>
	<g>
		<path class="st4" d="M-2000.14,52.7v4.07l-6.81,5.54v0.42h0.91c3.4,0,6.46,2.35,6.46,6.81c0,4.98-3.79,8.21-9.26,8.21
			c-5.86,0-9.4-3.47-9.4-8.35v-0.98h4.63v0.84c0,2.39,1.65,4.35,4.77,4.35c2.91,0,4.63-1.72,4.63-4.07s-1.65-3.51-4-3.51h-4.28
			v-4.14l6.07-4.98h-11.12V52.7H-2000.14z"/>
		<path class="st4" d="M-1984.77,52.7v24.56h-4.63V57.61h-0.42l-3.44,6.18h-4.84l6.32-11.09H-1984.77z"/>
	</g>
</g>
<g>
	<g>
		<circle class="st1" cx="-1798.41" cy="52.47" r="34.11"/>
		<g>
			<path class="st1" d="M-1803.89,19.11c-15.63,19.6-15.53,47.58,0.29,67.07"/>
			<path class="st1" d="M-1792,19.11c15.48,19.42,15.53,47.05,0.16,66.52"/>
		</g>
		<line class="st1" x1="-1832.52" y1="52.47" x2="-1764.3" y2="52.47"/>
		<line class="st1" x1="-1797.94" y1="18.56" x2="-1797.94" y2="86.38"/>
	</g>
</g>
<g>
	<circle class="st1" cx="-1605.94" cy="28.82" r="22.82"/>
	<line class="st1" x1="-1605.94" y1="51.64" x2="-1605.94" y2="94.98"/>
	<line class="st1" x1="-1624.04" y1="70.83" x2="-1587.84" y2="70.83"/>
</g>
<g>
	<circle class="st1" cx="-1393.47" cy="39.38" r="22.82"/>
	<line class="st1" x1="-1377.25" y1="22.69" x2="-1337.62" y2="-16.95"/>
	<polyline class="st0" points="-1364.04,-16.95 -1337.62,-16.95 -1337.62,9.48 	"/>
</g>
<path class="st1" d="M-1139.69,55.89V43.85l-36.59-13.14l0.48-18.57c0.09-2.9-1.09-5.69-3.23-7.65v0
	c-3.79-3.47-9.61-3.48-13.41-0.01l-0.01,0.01c-2.15,1.96-3.34,4.76-3.24,7.66l0.48,18.55l-33.67,12.17v12.04l34.33-6.35l1.48,23.62
	l-12.3,10.06v8.46l20.03-9.74l20.03,9.74v-8.46l-13.09-10.58l1.45-22.86L-1139.69,55.89z"/>
<g>
	<g>
		<g>
			<g>
				<g>
					<g>
						<rect x="204.55" y="27.25" class="st2" width="79.95" height="61.47"/>
						<rect x="204.55" y="27.25" class="st0" width="79.95" height="61.47"/>
					</g>
				</g>
			</g>
		</g>
		<path class="st1" d="M263.64,76.53H225.4c-4.08,0-7.39-3.31-7.39-7.39V46.84c0-4.08,3.31-7.39,7.39-7.39h38.24
			c4.08,0,7.39,3.31,7.39,7.39v22.31C271.04,73.22,267.73,76.53,263.64,76.53z"/>
		<g>
			<line class="st1" x1="218.94" y1="0.81" x2="245.11" y2="26.98"/>
			<line class="st1" x1="270.11" y1="0.81" x2="243.94" y2="26.98"/>
		</g>
	</g>
</g>
<g>
	<polygon class="st1" points="-947.72,91.18 -1012.61,91.18 -1012.61,3.06 -969.71,3.06 -958.72,14.06 -947.72,25.05 	"/>
	<polyline class="st1" points="-969.71,3.06 -969.71,24.6 -947.72,24.6 	"/>
</g>
<g>
	
		<rect x="-387.89" y="31.47" transform="matrix(-1.836970e-16 1 -1 -1.836970e-16 -328.3029 435.0757)" class="st1" width="12.39" height="43.82"/>
	<rect x="-404.82" y="2.76" class="st1" width="12.39" height="88.26"/>
	<rect x="-366.41" y="47.19" class="st1" width="12.39" height="43.82"/>
</g>
<g>
	<g>
		<polygon class="st1" points="-539.41,90.33 -604.47,90.33 -604.47,1.98 -561.46,1.98 -550.43,13.01 -539.41,24.03 		"/>
		<polyline class="st1" points="-561.46,1.98 -561.46,23.57 -539.41,23.57 		"/>
	</g>
	<line class="st1" x1="-588.77" y1="43.8" x2="-556.76" y2="43.8"/>
	<line class="st1" x1="-589.04" y1="57.04" x2="-557.04" y2="57.04"/>
	<line class="st1" x1="-589.04" y1="70.29" x2="-557.04" y2="70.29"/>
</g>
<g>
	<g>
		<path class="st4" d="M-161.81,53.28v0.37c0,4.38-3.02,7.11-7.37,7.77v3.94h-4.42v-3.9c-5.08-0.7-8.25-3.98-8.25-9.28v-0.81h4.86
			v0.59c0,2.39,1.07,4.13,3.39,4.79v-7c-4.68-1.14-7.29-3.13-7.29-7.37v-0.22c0-4.02,3.09-6.67,7.29-7.26v-3.87h4.42v4.01
			c4.16,0.81,7,3.65,7,7.92v1.11h-4.86v-0.74c0-1.84-0.77-2.95-2.14-3.54v6.15C-164.42,47.09-161.81,49.08-161.81,53.28z
			 M-173.59,44.96v-5.38c-1.47,0.44-2.36,1.44-2.36,2.65C-175.95,43.74-175.03,44.44-173.59,44.96z M-166.74,53.65
			c0-1.47-0.85-2.28-2.43-2.84v5.93C-167.55,56.19-166.74,54.98-166.74,53.65z"/>
	</g>
</g>
<g>
	<circle class="st5" cx="2669.36" cy="-213.74" r="35.69"/>
	<g>
		<circle class="st6" cx="2655.56" cy="-220.8" r="1.7"/>
		<circle class="st6" cx="2683.16" cy="-220.8" r="1.7"/>
	</g>
	<path class="st7" d="M2656.84-205.76c6.92,6.92,18.12,6.92,25.04,0"/>
</g>
<g>
	<circle class="st5" cx="2733.22" cy="-213.74" r="35.69"/>
	<g>
		<circle class="st6" cx="2719.42" cy="-220.8" r="1.7"/>
		<circle class="st6" cx="2747.02" cy="-220.8" r="1.7"/>
	</g>
	<path class="st7" d="M2720.7-205.76c6.92,6.92,18.12,6.92,25.04,0"/>
</g>
<g>
	<circle class="st5" cx="2797.08" cy="-213.74" r="35.69"/>
	<g>
		<circle class="st6" cx="2783.28" cy="-220.8" r="1.7"/>
		<circle class="st6" cx="2810.88" cy="-220.8" r="1.7"/>
	</g>
	<path class="st7" d="M2784.56-205.76c6.92,6.92,18.12,6.92,25.04,0"/>
</g>
<polygon class="st1" points="48.32,65.88 66.28,83.52 66.28,65.88 83.92,65.88 66.28,47.92 83.92,29.96 66.28,29.96 66.28,12.32 
	48.32,29.96 30.35,12.32 30.35,29.96 12.72,29.96 30.35,47.92 12.72,65.88 30.35,65.88 30.35,83.52 "/>
<path class="st0" d="M3088.32,23.65c-19.42-11.08-39.69,1.39-38.74,22.03c1.04,22.68,19.59,51.75,37.54,44.64
	c2.43-0.97,5.14-0.97,7.57,0c17.95,7.11,36.49-21.97,37.54-44.64c0.95-20.59-19.24-33.06-38.63-22.09L3088.32,23.65z"/>
<path class="st0" d="M3098.01,2.37c-8.08,8.08-9.27,20.42-3.57,29.75"/>
<path class="st0" d="M3303.43,6.38c-15.65,1.49-19.56,16.36-22.4,32.85c-0.54,3.15-2.3,6.02-4.34,9.34
	c-3.7,6.02-8.29,13.51-5.89,25.26c1.08,5.52,4.51,10.3,9.39,13.1c6.38,3.78,15.19,4.62,22.99,2.21c1.59-0.51,3.3-0.44,4.84,0.2
	c3.02,1.27,6.28,1.91,9.56,1.88c3.96,0.01,7.88-0.85,11.47-2.52c6.07-2.82,10.57-8.21,12.26-14.69c3.27-11.72-1.68-19.37-5.65-25.52
	c-2.06-3.18-4-6.18-4.53-9.27c-2.83-16.42-6.72-31.25-22.22-32.84L3303.43,6.38z"/>
<path class="st0" d="M3312.19-10.5c-8.32,8.32-10.13,20.68-5.43,30.75"/>
<g>
	<rect x="1827.86" y="11.29" class="st1" width="99.16" height="71.2"/>
	<rect x="1827.86" y="46.89" class="st8" width="99.16" height="35.6"/>
	<rect x="1827.86" y="11.29" class="st9" width="35.6" height="35.6"/>
</g>
<polygon class="st1" points="2917.45,83.99 2866.41,91.68 2866.41,2.8 2917.45,-4.88 "/>
<rect x="2866.41" y="3.77" class="st1" width="63.23" height="88.87"/>
<g>
	<polygon class="st0" points="2265.32,97.54 2265.32,108.69 2254.16,97.54 2234.24,97.54 2234.24,7.25 2330.31,7.25 2330.31,97.54 	
		"/>
</g>
<g>
	<g>
		<circle class="st0" cx="2057.04" cy="34.65" r="20.4"/>
		<line class="st0" x1="2072.09" y1="49.7" x2="2079.82" y2="57.44"/>
	</g>
	
		<rect x="2085.86" y="52.35" transform="matrix(0.7071 -0.7071 0.7071 0.7071 563.5874 1499.1798)" class="st0" width="11.21" height="33.86"/>
</g>
<g>
	<path class="st0" d="M1672.4,40.41c-0.63,4.55-2.69,8.93-6.18,12.43c-8.52,8.52-22.33,8.52-30.85,0s-8.52-22.33,0-30.85
		s22.33-8.52,30.85,0C1671.24,27.01,1673.3,33.87,1672.4,40.41"/>
	<polyline class="st0" points="1673.4,40.24 1706.65,78.48 1693.18,91.95 1654.94,58.7 	"/>
	<line class="st0" x1="1699.39" y1="85.74" x2="1717.68" y2="104.04"/>
	<line class="st0" x1="1635.36" y1="52.83" x2="1665.42" y2="22.77"/>
</g>
<g>
	<rect x="2457.15" y="2.56" class="st0" width="65.29" height="88.66"/>
	<g>
		<polyline class="st0" points="2469.64,25.55 2475.52,29.85 2482.92,18.14 		"/>
		<polyline class="st0" points="2496.66,49.21 2502.54,53.51 2509.94,41.79 		"/>
		<g>
			<line class="st0" x1="2509.72" y1="19.32" x2="2496.89" y2="32.15"/>
			<line class="st0" x1="2496.89" y1="19.32" x2="2509.72" y2="32.15"/>
		</g>
		<g>
			<line class="st0" x1="2482.69" y1="62.81" x2="2469.86" y2="75.64"/>
			<line class="st0" x1="2469.86" y1="62.81" x2="2482.69" y2="75.64"/>
		</g>
		<line class="st0" x1="2470.43" y1="47.65" x2="2482.12" y2="47.65"/>
		<line class="st0" x1="2497.45" y1="69.23" x2="2509.15" y2="69.23"/>
	</g>
</g>
<polygon class="st0" points="1469.21,14.14 1480.78,37.57 1506.64,41.33 1487.93,59.58 1492.35,85.33 1469.21,73.17 1446.08,85.33 
	1450.5,59.58 1431.78,41.33 1457.65,37.57 "/>
<g>
	<rect x="1207.03" y="22.13" class="st0" width="116.13" height="71.69"/>
	<polyline class="st0" points="1207.14,22.13 1265.91,57.97 1323.06,22.13 	"/>
</g>
<g>
	<g>
		<polygon class="st0" points="1050.44,93.67 985.03,93.67 985.03,4.85 1028.27,4.85 1039.35,15.93 1050.44,27.02 		"/>
		<polyline class="st0" points="1028.27,4.85 1028.27,26.56 1050.44,26.56 		"/>
	</g>
	<line class="st0" x1="1000.81" y1="46.89" x2="1032.99" y2="46.89"/>
	<line class="st10" x1="1000.53" y1="60.2" x2="1032.71" y2="60.2"/>
	<line class="st10" x1="1000.53" y1="73.52" x2="1032.71" y2="73.52"/>
</g>
<g>
	<g>
		<polygon class="st0" points="1136.94,93.67 1071.53,93.67 1071.53,4.85 1114.77,4.85 1125.85,15.93 1136.94,27.02 		"/>
		<polyline class="st0" points="1114.77,4.85 1114.77,26.56 1136.94,26.56 		"/>
	</g>
	<line class="st0" x1="1087.31" y1="46.89" x2="1119.49" y2="46.89"/>
	<line class="st10" x1="1087.04" y1="60.2" x2="1119.21" y2="60.2"/>
	<line class="st10" x1="1087.04" y1="73.52" x2="1119.21" y2="73.52"/>
</g>
<polyline class="st0" points="1089.13,24.62 1095.02,28.93 1102.44,17.19 "/>
<g>
	<line class="st0" x1="1014.36" y1="16.63" x2="1001.5" y2="29.48"/>
	<line class="st0" x1="1001.5" y1="16.63" x2="1014.36" y2="29.48"/>
</g>
<g>
	<g>
		<g>
			<polygon class="st0" points="818.98,83.84 883.39,83.84 883.39,-4.95 840.81,-4.95 829.9,6.13 818.98,17.21 			"/>
			<polyline class="st0" points="840.81,-4.95 840.81,16.75 818.98,16.75 			"/>
		</g>
	</g>
</g>
<g>
	<g>
		<circle class="st1" cx="871.97" cy="32.07" r="20.88"/>
		<line class="st1" x1="887.37" y1="47.48" x2="895.29" y2="55.4"/>
	</g>
	
		<rect x="901.47" y="50.19" transform="matrix(0.7071 -0.7071 0.7071 0.7071 217.9713 661.2713)" class="st1" width="11.48" height="34.67"/>
</g>
<g>
	<path class="st0" d="M711.15,50.03c0,0-17.48,41.31-58.39,41.31c-40.91,0-58.39-41.31-58.39-41.31v-0.77
		c0,0,12.46-21.34,25.4-27.36c12.94-6.02,32.99,4.23,32.99,4.23l0,0c0,0,19.92-10.25,32.87-4.23c12.94,6.02,25.4,27.36,25.4,27.36
		L711.15,50.03z"/>
	<path class="st0" d="M594.36,49.26c0,0,48.67,12.89,116.79,0.77"/>
</g>
<g>
	<path class="st0" d="M493.43,54.26c0,0-17.47,35.88-58.34,35.88s-58.34-35.88-58.34-35.88s17.47-35.88,58.34-35.88
		S493.43,54.26,493.43,54.26z"/>
	<circle class="st0" cx="435.09" cy="53.27" r="17.39"/>
</g>
<g>
	<circle class="st5" cx="3510.36" cy="51.84" r="35.69"/>
	<g>
		<circle class="st6" cx="3496.56" cy="44.78" r="1.7"/>
		<circle class="st6" cx="3524.17" cy="44.78" r="1.7"/>
	</g>
	<path class="st7" d="M3497.84,59.82c6.92,6.92,18.12,6.92,25.04,0"/>
</g>
<g>
	<circle class="st1" cx="3721.89" cy="26.88" r="22.82"/>
	<line class="st1" x1="3721.89" y1="49.7" x2="3721.89" y2="93.04"/>
	<line class="st1" x1="3703.79" y1="68.89" x2="3739.98" y2="68.89"/>
</g>
<g>
	<circle class="st1" cx="3899.74" cy="68.59" r="22.82"/>
	<line class="st1" x1="3915.96" y1="51.9" x2="3955.59" y2="12.26"/>
	<polyline class="st0" points="3929.17,12.26 3955.59,12.26 3955.59,38.69 	"/>
</g>
</svg>
