<?xml version="1.0" encoding="utf-8"?>
<!-- Generator: Adobe Illustrator 24.2.0, SVG Export Plug-In . SVG Version: 6.00 Build 0)  -->
<svg version="1.1" id="Capa_1" xmlns="http://www.w3.org/2000/svg" xmlns:xlink="http://www.w3.org/1999/xlink" x="0px" y="0px"
	 viewBox="0 0 109.93 93.47" style="enable-background:new 0 0 109.93 93.47;" xml:space="preserve">
<style type="text/css">
	.st0{fill:none;stroke:#000000;stroke-width:6.5;stroke-miterlimit:10;}
	.st1{fill:#FFFFFF;stroke:#000000;stroke-width:6.5;stroke-miterlimit:10;}
	.st2{fill:#FFFFFF;}
	.st3{stroke:#000000;stroke-width:6.5;stroke-miterlimit:10;}
	.st4{fill:#1D1D1B;}
	.st5{fill:#FFFFFF;stroke:#1D1D1B;stroke-width:6.5;stroke-miterlimit:10;}
	.st6{fill:#1D1D1B;stroke:#1D1D1B;stroke-width:6.5;stroke-miterlimit:10;}
	.st7{fill:none;stroke:#1D1D1B;stroke-width:6.5;stroke-miterlimit:10;}
	.st8{fill:#FC5439;stroke:#000000;stroke-width:6.5;stroke-miterlimit:10;}
	.st9{fill:#3A90FD;stroke:#000000;stroke-width:6.5;stroke-miterlimit:10;}
	.st10{fill:#F1CD08;stroke:#000000;stroke-width:6.5;stroke-miterlimit:10;}
</style>
<g>
	<path class="st0" d="M430.85,86.27V11.93c0-4.23,3.43-7.65,7.65-7.65h54.6v77.9"/>
	<path class="st0" d="M454.41,93.01h38.68V79.52h-55.51c-3.72,0-6.74,3.02-6.74,6.74v0c0,3.72,3.02,6.74,6.74,6.74h1.52"/>
	<rect x="448.51" y="25.05" class="st0" width="26.92" height="15.7"/>
	<polygon class="st0" points="452.23,106.16 446.97,111.46 441.71,106.16 441.71,89.21 452.23,89.21 	"/>
</g>
<polygon class="st0" points="100.14,48.89 64.47,13.22 64.47,28.72 7.34,28.72 7.34,70.45 64.47,70.45 64.47,84.56 "/>
<g>
	<polyline class="st0" points="273.07,22.27 296.71,22.27 296.71,93.47 219.85,93.47 219.85,22.27 249.98,22.27 	"/>
	<polygon class="st0" points="255.34,34.08 246.76,25.5 267.95,4.31 279.49,15.85 261.26,34.08 	"/>
	<polyline class="st0" points="245.39,34.08 255.34,34.08 261.26,34.08 271.18,34.08 	"/>
</g>
<g>
	<polygon class="st0" points="-115.08,-5.41 -191.1,46.15 -198.83,65.56 -177.94,65.56 -101.92,14 	"/>
	<line class="st0" x1="-191.1" y1="46.15" x2="-177.94" y2="65.56"/>
</g>
<g>
	<g>
		<path class="st1" d="M670.74,80.8h24.01c19.62,0,35.53-15.91,35.53-35.53v0c0-19.62-15.91-35.53-35.53-35.53l-3.72,0l-78.89,0
			c-4.91,0-8.88,3.98-8.88,8.88v0c0,4.91,3.98,8.88,8.88,8.88h68.05v0"/>
		<path class="st1" d="M680.18,27.51h-21.1c-4.91,0-8.88,3.98-8.88,8.88v0c0,4.91,3.98,8.88,8.88,8.88h19.4h1.7
			c4.91,0,8.88-3.98,8.88-8.88v0C689.06,31.49,685.08,27.51,680.18,27.51z"/>
		<path class="st1" d="M680.81,45.27h-21.1c-4.91,0-8.88,3.98-8.88,8.88v0c0,4.91,3.98,8.88,8.88,8.88h19.4h1.7
			c4.91,0,8.88-3.98,8.88-8.88v0C689.7,49.25,685.72,45.27,680.81,45.27z"/>
		<path class="st1" d="M680.81,63.04h-21.1c-4.91,0-8.88,3.98-8.88,8.88v0c0,4.91,3.98,8.88,8.88,8.88h19.4h1.7
			c4.91,0,8.88-3.98,8.88-8.88v0C689.7,67.01,685.72,63.04,680.81,63.04z"/>
	</g>
	<path class="st1" d="M694.26,11.62l-11.69,23.48c-2.15,4.41-0.32,9.73,4.09,11.88v0c4.41,2.15,9.73,0.32,11.88-4.09l8.54-17.14"/>
</g>
<g>
	<ellipse class="st2" cx="875.99" cy="51.9" rx="28.07" ry="18.08"/>
	<g>
		<path class="st1" d="M895.36,47.17V32.54c0-3.72,3.01-6.73,6.73-6.73l0,0c3.72,0,6.73,3.01,6.73,6.73v22.75
			c0,18.59-15.07,33.66-33.66,33.66h0c-18.59,0-33.66-15.07-33.66-33.66V32.18l0,0c7.43,0,13.45,6.02,13.45,13.45v8.75l0,0
			c7.42,0,13.44,6.02,13.44,13.44v0.83"/>
		<path class="st1" d="M895.29,47.17V14.4c0-3.72-3.01-6.73-6.73-6.73l0,0c-3.72,0-6.73,3.01-6.73,6.73v25.15"/>
		<path class="st1" d="M881.84,43.34V7.57c0-3.72-3.01-6.73-6.73-6.73l0,0c-3.72,0-6.73,3.01-6.73,6.73v25.15"/>
		<path class="st1" d="M868.38,42.56V12.79c0-3.72-3.01-6.73-6.73-6.73l0,0c-3.72,0-6.73,3.01-6.73,6.73v37.79"/>
	</g>
</g>
<g>
	<line class="st0" x1="1061.27" y1="-167.45" x2="1137.83" y2="-186.43"/>
	<circle class="st1" cx="1061.27" cy="-167.45" r="25.98"/>
	<line class="st0" x1="1214.63" y1="-167.44" x2="1138.08" y2="-186.42"/>
	<circle class="st1" cx="1214.63" cy="-167.45" r="25.98"/>
	<circle class="st1" cx="1137.83" cy="-186.43" r="25.98"/>
</g>
<g>
	<circle class="st0" cx="1283.8" cy="43.34" r="35.6"/>
	<g>
		<circle class="st3" cx="1270.03" cy="36.3" r="1.69"/>
		<circle class="st3" cx="1297.57" cy="36.3" r="1.69"/>
	</g>
	<path class="st0" d="M1271.31,51.3c6.9,6.9,18.07,6.9,24.98,0"/>
</g>
<g>
	<line class="st0" x1="1523.36" y1="7.42" x2="1523.36" y2="79.27"/>
	<line class="st0" x1="1453.05" y1="43.34" x2="1402.13" y2="43.34"/>
	<line class="st0" x1="1562.97" y1="43.34" x2="1512.05" y2="43.34"/>
	<rect x="1433.65" y="24.09" class="st1" width="89.71" height="38.51"/>
	<line class="st0" x1="1561.35" y1="27.58" x2="1561.35" y2="59.1"/>
	<line class="st0" x1="1474.87" y1="24.83" x2="1474.87" y2="39.78"/>
	<line class="st0" x1="1488.5" y1="26.04" x2="1488.5" y2="47.46"/>
</g>
<circle class="st1" cx="4127.93" cy="46.65" r="35.26"/>
<g>
	<rect x="1652.79" y="0.49" class="st1" width="70.6" height="50.69"/>
	<line class="st1" x1="1652.79" y1="-7.23" x2="1652.79" y2="82.16"/>
	<rect x="1652.79" y="25.84" class="st1" width="70.6" height="25.35"/>
	<rect x="1652.79" y="0.49" class="st1" width="25.35" height="25.35"/>
</g>
<g transform="translate(0,-952.36218)">
	<path class="st1" d="M1861.73,1021.69c0,18.4,13.01,33.32,29.05,33.32c16.03,0,29.05-14.92,29.05-33.32s-13.96-38.93-29.05-56.24
		C1890.78,965.45,1861.73,998.47,1861.73,1021.69z"/>
</g>
<g>
	<polyline class="st1" points="2038.71,43.76 2083.45,-0.97 2128.18,43.76 	"/>
	<path class="st1" d="M2083.45,36.01"/>
	<polygon class="st1" points="2113.74,87.66 2053.16,87.66 2053.16,29.35 2083.45,-0.97 2113.74,29.35 	"/>
	<polyline class="st0" points="2070.33,87.66 2070.33,52.31 2096.57,52.31 2096.57,87.66 	"/>
</g>
<g>
	<circle class="st1" cx="3523.7" cy="48.89" r="35.29"/>
	<polyline class="st1" points="3510.14,48.51 3518.32,58.31 3537.26,39.47 	"/>
</g>
<g>
	<g>
		<g>
			<rect x="2264.24" y="18.09" class="st0" width="69.54" height="69.54"/>
			<g>
				<line class="st1" x1="2279.15" y1="7.29" x2="2279.15" y2="28.88"/>
				<line class="st1" x1="2318.86" y1="7.29" x2="2318.86" y2="28.88"/>
			</g>
		</g>
		<line class="st1" x1="2264.24" y1="40.79" x2="2333.78" y2="40.79"/>
	</g>
	<g>
		<path class="st4" d="M2299.61,53.04v4.07l-6.81,5.54v0.42h0.91c3.4,0,6.46,2.35,6.46,6.81c0,4.98-3.79,8.21-9.26,8.21
			c-5.86,0-9.4-3.47-9.4-8.35v-0.98h4.63v0.84c0,2.39,1.65,4.35,4.77,4.35c2.91,0,4.63-1.72,4.63-4.07s-1.65-3.51-4-3.51h-4.28
			v-4.14l6.07-4.98h-11.12v-4.21H2299.61z"/>
		<path class="st4" d="M2314.98,53.04V77.6h-4.63V57.95h-0.42l-3.44,6.18h-4.84l6.32-11.09H2314.98z"/>
	</g>
</g>
<g>
	<g>
		<circle class="st1" cx="2501.34" cy="52.81" r="34.11"/>
		<g>
			<path class="st1" d="M2495.86,19.45c-15.63,19.6-15.53,47.58,0.29,67.07"/>
			<path class="st1" d="M2507.75,19.45c15.48,19.42,15.53,47.05,0.16,66.52"/>
		</g>
		<line class="st1" x1="2467.23" y1="52.81" x2="2535.45" y2="52.81"/>
		<line class="st1" x1="2501.81" y1="18.9" x2="2501.81" y2="86.72"/>
	</g>
</g>
<g>
	<circle class="st1" cx="2693.81" cy="29.95" r="22.82"/>
	<line class="st1" x1="2693.81" y1="52.77" x2="2693.81" y2="96.11"/>
	<line class="st1" x1="2675.71" y1="71.96" x2="2711.91" y2="71.96"/>
</g>
<g>
	<circle class="st1" cx="2906.28" cy="39.72" r="22.82"/>
	<line class="st1" x1="2922.5" y1="23.03" x2="2962.13" y2="-16.61"/>
	<polyline class="st0" points="2935.71,-16.61 2962.13,-16.61 2962.13,9.82 	"/>
</g>
<path class="st1" d="M3160.06,56.23V44.19l-36.59-13.14l0.48-18.57c0.09-2.9-1.09-5.69-3.23-7.65v0c-3.79-3.47-9.61-3.48-13.41-0.01
	l-0.01,0.01c-2.15,1.96-3.34,4.76-3.24,7.66l0.48,18.55l-33.67,12.17v12.04l34.33-6.35l1.48,23.62l-12.3,10.06v8.46l20.03-9.74
	l20.03,9.74v-8.46l-13.09-10.58l1.45-22.86L3160.06,56.23z"/>
<g>
	<g>
		<g>
			<g>
				<g>
					<g>
						<rect x="4504.3" y="27.59" class="st2" width="79.95" height="61.47"/>
						<rect x="4504.3" y="27.59" class="st0" width="79.95" height="61.47"/>
					</g>
				</g>
			</g>
		</g>
		<path class="st1" d="M4563.39,76.87h-38.24c-4.08,0-7.39-3.31-7.39-7.39V47.18c0-4.08,3.31-7.39,7.39-7.39h38.24
			c4.08,0,7.39,3.31,7.39,7.39v22.31C4570.79,73.56,4567.48,76.87,4563.39,76.87z"/>
		<g>
			<line class="st1" x1="4518.69" y1="1.15" x2="4544.86" y2="27.32"/>
			<line class="st1" x1="4569.86" y1="1.15" x2="4543.69" y2="27.32"/>
		</g>
	</g>
</g>
<g>
	<polygon class="st1" points="3352.03,91.52 3287.14,91.52 3287.14,3.4 3330.04,3.4 3341.03,14.4 3352.03,25.39 	"/>
	<polyline class="st1" points="3330.04,3.4 3330.04,24.94 3352.03,24.94 	"/>
</g>
<g>
	
		<rect x="3911.86" y="31.81" transform="matrix(-1.836970e-16 1 -1 -1.836970e-16 3971.7874 -3864.334)" class="st1" width="12.39" height="43.82"/>
	<rect x="3894.93" y="3.1" class="st1" width="12.39" height="88.26"/>
	<rect x="3933.34" y="47.53" class="st1" width="12.39" height="43.82"/>
</g>
<g>
	<g>
		<polygon class="st1" points="3760.34,88.94 3695.28,88.94 3695.28,0.6 3738.29,0.6 3749.32,11.62 3760.34,22.65 		"/>
		<polyline class="st1" points="3738.29,0.6 3738.29,22.19 3760.34,22.19 		"/>
	</g>
	<line class="st1" x1="3710.98" y1="42.41" x2="3742.99" y2="42.41"/>
	<line class="st1" x1="3710.71" y1="55.66" x2="3742.71" y2="55.66"/>
	<line class="st1" x1="3710.71" y1="68.9" x2="3742.71" y2="68.9"/>
</g>
<g>
	<g>
		<path class="st4" d="M4137.94,51.74v0.37c0,4.38-3.02,7.11-7.37,7.77v3.94h-4.42v-3.9c-5.08-0.7-8.25-3.98-8.25-9.28v-0.81h4.86
			v0.59c0,2.39,1.07,4.13,3.39,4.79v-7c-4.68-1.14-7.29-3.13-7.29-7.37v-0.22c0-4.02,3.09-6.67,7.29-7.26v-3.87h4.42v4.01
			c4.16,0.81,7,3.65,7,7.92v1.11h-4.86v-0.74c0-1.84-0.77-2.95-2.14-3.54v6.15C4135.33,45.55,4137.94,47.54,4137.94,51.74z
			 M4126.16,43.41v-5.38c-1.47,0.44-2.36,1.44-2.36,2.65C4123.8,42.2,4124.72,42.9,4126.16,43.41z M4133.01,52.11
			c0-1.47-0.85-2.28-2.43-2.84v5.93C4132.2,54.65,4133.01,53.43,4133.01,52.11z"/>
	</g>
</g>
<g>
	<circle class="st5" cx="6969.11" cy="-213.4" r="35.69"/>
	<g>
		<circle class="st6" cx="6955.31" cy="-220.46" r="1.7"/>
		<circle class="st6" cx="6982.91" cy="-220.46" r="1.7"/>
	</g>
	<path class="st7" d="M6956.59-205.42c6.92,6.92,18.12,6.92,25.04,0"/>
</g>
<g>
	<circle class="st5" cx="7032.97" cy="-213.4" r="35.69"/>
	<g>
		<circle class="st6" cx="7019.17" cy="-220.46" r="1.7"/>
		<circle class="st6" cx="7046.77" cy="-220.46" r="1.7"/>
	</g>
	<path class="st7" d="M7020.45-205.42c6.92,6.92,18.12,6.92,25.04,0"/>
</g>
<g>
	<circle class="st5" cx="7096.83" cy="-213.4" r="35.69"/>
	<g>
		<circle class="st6" cx="7083.03" cy="-220.46" r="1.7"/>
		<circle class="st6" cx="7110.63" cy="-220.46" r="1.7"/>
	</g>
	<path class="st7" d="M7084.31-205.42c6.92,6.92,18.12,6.92,25.04,0"/>
</g>
<polygon class="st1" points="4348.07,66.22 4366.03,83.86 4366.03,66.22 4383.67,66.22 4366.03,48.26 4383.67,30.3 4366.03,30.3 
	4366.03,12.66 4348.07,30.3 4330.1,12.66 4330.1,30.3 4312.47,30.3 4330.1,48.26 4312.47,66.22 4330.1,66.22 4330.1,83.86 "/>
<path class="st0" d="M7388.07,23.99c-19.42-11.08-39.69,1.39-38.74,22.03c1.05,22.68,19.59,51.75,37.54,44.64
	c2.43-0.97,5.14-0.97,7.57,0c17.95,7.11,36.5-21.97,37.54-44.64c0.95-20.59-19.24-33.06-38.63-22.09L7388.07,23.99z"/>
<path class="st0" d="M7397.76,2.71c-8.08,8.08-9.27,20.42-3.57,29.75"/>
<path class="st0" d="M7603.18,6.72c-15.65,1.49-19.56,16.36-22.4,32.85c-0.54,3.15-2.3,6.02-4.34,9.34
	c-3.7,6.02-8.29,13.51-5.89,25.26c1.08,5.52,4.51,10.3,9.39,13.1c6.38,3.78,15.19,4.62,22.99,2.21c1.59-0.51,3.3-0.44,4.84,0.2
	c3.02,1.27,6.28,1.91,9.56,1.88c3.96,0.01,7.88-0.85,11.47-2.52c6.07-2.82,10.57-8.21,12.26-14.69c3.27-11.72-1.68-19.37-5.65-25.52
	c-2.06-3.18-4-6.18-4.53-9.27c-2.83-16.42-6.72-31.25-22.22-32.84L7603.18,6.72z"/>
<path class="st0" d="M7611.94-10.16c-8.32,8.32-10.13,20.68-5.43,30.75"/>
<g>
	<rect x="6127.61" y="11.63" class="st1" width="99.16" height="71.2"/>
	<rect x="6127.61" y="47.23" class="st8" width="99.16" height="35.6"/>
	<rect x="6127.61" y="11.63" class="st9" width="35.6" height="35.6"/>
</g>
<polygon class="st1" points="7217.2,84.33 7166.16,92.02 7166.16,3.14 7217.2,-4.54 "/>
<rect x="7166.16" y="4.11" class="st1" width="63.23" height="88.87"/>
<g>
	<polygon class="st0" points="6565.07,97.88 6565.07,109.03 6553.91,97.88 6533.99,97.88 6533.99,7.59 6630.06,7.59 6630.06,97.88 	
		"/>
</g>
<g>
	<g>
		<circle class="st0" cx="6356.79" cy="34.99" r="20.4"/>
		<line class="st0" x1="6371.84" y1="50.04" x2="6379.57" y2="57.78"/>
	</g>
	
		<rect x="6385.61" y="52.69" transform="matrix(0.7071 -0.7071 0.7071 0.7071 1822.7144 4539.6621)" class="st0" width="11.21" height="33.86"/>
</g>
<g>
	<path class="st0" d="M5972.15,40.75c-0.63,4.55-2.69,8.93-6.18,12.43c-8.52,8.52-22.33,8.52-30.85,0s-8.52-22.33,0-30.85
		s22.33-8.52,30.85,0C5970.99,27.35,5973.05,34.21,5972.15,40.75"/>
	<polyline class="st0" points="5973.15,40.58 6006.4,78.82 5992.93,92.29 5954.69,59.04 	"/>
	<line class="st0" x1="5999.13" y1="86.08" x2="6017.43" y2="104.38"/>
	<line class="st0" x1="5935.11" y1="53.18" x2="5965.17" y2="23.11"/>
</g>
<g>
	<rect x="6756.9" y="2.9" class="st0" width="65.29" height="88.66"/>
	<g>
		<polyline class="st0" points="6769.39,25.89 6775.27,30.19 6782.67,18.48 		"/>
		<polyline class="st0" points="6796.41,49.55 6802.29,53.85 6809.69,42.13 		"/>
		<g>
			<line class="st0" x1="6809.47" y1="19.66" x2="6796.64" y2="32.49"/>
			<line class="st0" x1="6796.64" y1="19.66" x2="6809.47" y2="32.49"/>
		</g>
		<g>
			<line class="st0" x1="6782.44" y1="63.15" x2="6769.61" y2="75.98"/>
			<line class="st0" x1="6769.61" y1="63.15" x2="6782.44" y2="75.98"/>
		</g>
		<line class="st0" x1="6770.18" y1="47.99" x2="6781.87" y2="47.99"/>
		<line class="st0" x1="6797.2" y1="69.57" x2="6808.9" y2="69.57"/>
	</g>
</g>
<polygon class="st0" points="5768.96,14.48 5780.53,37.91 5806.39,41.67 5787.68,59.92 5792.1,85.67 5768.96,73.51 5745.83,85.67 
	5750.25,59.92 5731.53,41.67 5757.4,37.91 "/>
<g>
	<rect x="5506.78" y="22.47" class="st0" width="116.13" height="71.69"/>
	<polyline class="st0" points="5506.89,22.47 5565.66,58.31 5622.81,22.47 	"/>
</g>
<g>
	<g>
		<polygon class="st0" points="5350.19,94.01 5284.78,94.01 5284.78,5.19 5328.02,5.19 5339.1,16.27 5350.19,27.36 		"/>
		<polyline class="st0" points="5328.02,5.19 5328.02,26.9 5350.19,26.9 		"/>
	</g>
	<line class="st0" x1="5300.56" y1="47.23" x2="5332.74" y2="47.23"/>
	<line class="st10" x1="5300.28" y1="60.54" x2="5332.46" y2="60.54"/>
	<line class="st10" x1="5300.28" y1="73.86" x2="5332.46" y2="73.86"/>
</g>
<g>
	<g>
		<polygon class="st0" points="5436.69,94.01 5371.28,94.01 5371.28,5.19 5414.52,5.19 5425.6,16.27 5436.69,27.36 		"/>
		<polyline class="st0" points="5414.52,5.19 5414.52,26.9 5436.69,26.9 		"/>
	</g>
	<line class="st0" x1="5387.06" y1="47.23" x2="5419.24" y2="47.23"/>
	<line class="st10" x1="5386.79" y1="60.54" x2="5418.96" y2="60.54"/>
	<line class="st10" x1="5386.79" y1="73.86" x2="5418.96" y2="73.86"/>
</g>
<polyline class="st0" points="5388.88,24.96 5394.77,29.27 5402.19,17.53 "/>
<g>
	<line class="st0" x1="5314.11" y1="16.97" x2="5301.25" y2="29.82"/>
	<line class="st0" x1="5301.25" y1="16.97" x2="5314.11" y2="29.82"/>
</g>
<g>
	<g>
		<g>
			<polygon class="st0" points="5118.73,84.18 5183.14,84.18 5183.14,-4.61 5140.56,-4.61 5129.65,6.47 5118.73,17.55 			"/>
			<polyline class="st0" points="5140.56,-4.61 5140.56,17.09 5118.73,17.09 			"/>
		</g>
	</g>
</g>
<g>
	<g>
		<circle class="st1" cx="5171.72" cy="32.41" r="20.88"/>
		<line class="st1" x1="5187.12" y1="47.82" x2="5195.04" y2="55.74"/>
	</g>
	
		<rect x="5201.22" y="50.53" transform="matrix(0.7071 -0.7071 0.7071 0.7071 1477.0983 3701.7534)" class="st1" width="11.48" height="34.67"/>
</g>
<g>
	<path class="st0" d="M5010.9,50.37c0,0-17.48,41.31-58.39,41.31s-58.39-41.31-58.39-41.31V49.6c0,0,12.46-21.34,25.4-27.36
		c12.94-6.02,32.99,4.23,32.99,4.23l0,0c0,0,19.92-10.25,32.87-4.23s25.4,27.36,25.4,27.36L5010.9,50.37z"/>
	<path class="st0" d="M4894.11,49.6c0,0,48.67,12.89,116.79,0.77"/>
</g>
<g>
	<path class="st0" d="M4793.18,54.6c0,0-17.47,35.88-58.34,35.88S4676.5,54.6,4676.5,54.6s17.47-35.88,58.34-35.88
		S4793.18,54.6,4793.18,54.6z"/>
	<circle class="st0" cx="4734.84" cy="53.61" r="17.39"/>
</g>
<g>
	<circle class="st5" cx="7810.11" cy="52.18" r="35.69"/>
	<g>
		<circle class="st6" cx="7796.31" cy="45.12" r="1.7"/>
		<circle class="st6" cx="7823.92" cy="45.12" r="1.7"/>
	</g>
	<path class="st7" d="M7797.59,60.16c6.92,6.92,18.12,6.92,25.04,0"/>
</g>
<g>
	<circle class="st1" cx="8021.64" cy="27.22" r="22.82"/>
	<line class="st1" x1="8021.64" y1="50.04" x2="8021.64" y2="93.38"/>
	<line class="st1" x1="8003.54" y1="69.23" x2="8039.73" y2="69.23"/>
</g>
<g>
	<circle class="st1" cx="8199.49" cy="68.93" r="22.82"/>
	<line class="st1" x1="8215.71" y1="52.24" x2="8255.34" y2="12.61"/>
	<polyline class="st0" points="8228.92,12.61 8255.34,12.61 8255.34,39.03 	"/>
</g>
</svg>
