<?xml version="1.0" encoding="utf-8"?>
<!-- Generator: Adobe Illustrator 24.2.0, SVG Export Plug-In . SVG Version: 6.00 Build 0)  -->
<svg version="1.1" id="Capa_1" xmlns="http://www.w3.org/2000/svg" xmlns:xlink="http://www.w3.org/1999/xlink" x="0px" y="0px"
	 viewBox="0 0 154.29 95.06" style="enable-background:new 0 0 154.29 95.06;" xml:space="preserve">
<style type="text/css">
	.st0{fill:none;stroke:#000000;stroke-width:6.5;stroke-miterlimit:10;}
	.st1{fill:#FFFFFF;stroke:#000000;stroke-width:6.5;stroke-miterlimit:10;}
	.st2{fill:#FFFFFF;}
	.st3{stroke:#000000;stroke-width:6.5;stroke-miterlimit:10;}
	.st4{fill:#1D1D1B;}
	.st5{fill:#FFFFFF;stroke:#1D1D1B;stroke-width:6.5;stroke-miterlimit:10;}
	.st6{fill:#1D1D1B;stroke:#1D1D1B;stroke-width:6.5;stroke-miterlimit:10;}
	.st7{fill:none;stroke:#1D1D1B;stroke-width:6.5;stroke-miterlimit:10;}
	.st8{fill:#FC5439;stroke:#000000;stroke-width:6.5;stroke-miterlimit:10;}
	.st9{fill:#3A90FD;stroke:#000000;stroke-width:6.5;stroke-miterlimit:10;}
	.st10{fill:#F1CD08;stroke:#000000;stroke-width:6.5;stroke-miterlimit:10;}
</style>
<g>
	<path class="st0" d="M-7563.08,87.95V13.61c0-4.23,3.43-7.65,7.65-7.65h54.6v77.9"/>
	<path class="st0" d="M-7539.52,94.69h38.68V81.2h-55.51c-3.72,0-6.74,3.02-6.74,6.74v0c0,3.72,3.02,6.74,6.74,6.74h1.52"/>
	<rect x="-7545.42" y="26.73" class="st0" width="26.92" height="15.7"/>
	<polygon class="st0" points="-7541.7,107.84 -7546.96,113.15 -7552.22,107.84 -7552.22,90.89 -7541.7,90.89 	"/>
</g>
<polygon class="st0" points="-7893.79,50.57 -7929.46,14.9 -7929.46,30.4 -7986.58,30.4 -7986.58,72.14 -7929.46,72.14 
	-7929.46,86.24 "/>
<g>
	<polyline class="st0" points="-7720.85,23.95 -7697.22,23.95 -7697.22,95.15 -7774.08,95.15 -7774.08,23.95 -7743.95,23.95 	"/>
	<polygon class="st0" points="-7738.59,35.76 -7747.17,27.18 -7725.98,5.99 -7714.43,17.54 -7732.66,35.76 	"/>
	<polyline class="st0" points="-7748.54,35.76 -7738.59,35.76 -7732.66,35.76 -7722.75,35.76 	"/>
</g>
<g>
	<polygon class="st0" points="-8109.01,-3.73 -8185.03,47.83 -8192.76,67.24 -8171.87,67.24 -8095.85,15.68 	"/>
	<line class="st0" x1="-8185.03" y1="47.83" x2="-8171.87" y2="67.24"/>
</g>
<g>
	<g>
		<path class="st1" d="M-7323.19,83.53h24.01c19.62,0,35.53-15.91,35.53-35.53v0c0-19.62-15.91-35.53-35.53-35.53l-3.72,0h-78.89
			c-4.91,0-8.88,3.98-8.88,8.88v0c0,4.91,3.98,8.88,8.88,8.88l68.05,0v0"/>
		<path class="st1" d="M-7313.75,30.24h-21.1c-4.91,0-8.88,3.98-8.88,8.88v0c0,4.91,3.98,8.88,8.88,8.88h19.4h1.7
			c4.91,0,8.88-3.98,8.88-8.88v0C-7304.87,34.22-7308.85,30.24-7313.75,30.24z"/>
		<path class="st1" d="M-7313.11,48h-21.1c-4.91,0-8.88,3.98-8.88,8.88v0c0,4.91,3.98,8.88,8.88,8.88h19.4h1.7
			c4.91,0,8.88-3.98,8.88-8.88v0C-7304.23,51.98-7308.21,48-7313.11,48z"/>
		<path class="st1" d="M-7313.11,65.77h-21.1c-4.91,0-8.88,3.98-8.88,8.88v0c0,4.91,3.98,8.88,8.88,8.88h19.4h1.7
			c4.91,0,8.88-3.98,8.88-8.88v0C-7304.23,69.74-7308.21,65.77-7313.11,65.77z"/>
	</g>
	<path class="st1" d="M-7299.67,14.35l-11.69,23.48c-2.15,4.41-0.32,9.73,4.09,11.88v0c4.41,2.15,9.73,0.32,11.88-4.09l8.54-17.14"
		/>
</g>
<g>
	<ellipse class="st2" cx="-7117.93" cy="53.58" rx="28.07" ry="18.08"/>
	<g>
		<path class="st1" d="M-7098.57,48.85V34.22c0-3.72,3.01-6.73,6.73-6.73l0,0c3.72,0,6.73,3.01,6.73,6.73v22.75
			c0,18.59-15.07,33.66-33.66,33.66l0,0c-18.59,0-33.66-15.07-33.66-33.66V33.86l0,0c7.43,0,13.45,6.02,13.45,13.45v8.75l0,0
			c7.42,0,13.44,6.02,13.44,13.44v0.83"/>
		<path class="st1" d="M-7098.64,48.85V16.08c0-3.72-3.01-6.73-6.73-6.73l0,0c-3.71,0-6.73,3.01-6.73,6.73v25.15"/>
		<path class="st1" d="M-7112.09,45.02V9.25c0-3.72-3.01-6.73-6.73-6.73l0,0c-3.72,0-6.73,3.01-6.73,6.73V34.4"/>
		<path class="st1" d="M-7125.55,44.24V14.47c0-3.72-3.01-6.73-6.73-6.73l0,0c-3.72,0-6.73,3.01-6.73,6.73v37.79"/>
	</g>
</g>
<g>
	<line class="st0" x1="-6932.66" y1="-165.77" x2="-6856.1" y2="-184.75"/>
	<circle class="st1" cx="-6932.66" cy="-165.77" r="25.98"/>
	<line class="st0" x1="-6779.29" y1="-165.76" x2="-6855.85" y2="-184.74"/>
	<circle class="st1" cx="-6779.29" cy="-165.77" r="25.98"/>
	<circle class="st1" cx="-6856.1" cy="-184.75" r="25.98"/>
</g>
<g>
	<circle class="st0" cx="-6710.13" cy="45.02" r="35.6"/>
	<g>
		<circle class="st3" cx="-6723.89" cy="37.98" r="1.69"/>
		<circle class="st3" cx="-6696.36" cy="37.98" r="1.69"/>
	</g>
	<path class="st0" d="M-6722.61,52.98c6.9,6.9,18.07,6.9,24.98,0"/>
</g>
<g>
	<line class="st0" x1="-6477.32" y1="12.38" x2="-6477.32" y2="84.23"/>
	<line class="st0" x1="-6547.63" y1="48.3" x2="-6598.55" y2="48.3"/>
	<line class="st0" x1="-6437.71" y1="48.3" x2="-6488.63" y2="48.3"/>
	<rect x="-6567.03" y="29.05" class="st1" width="89.71" height="38.51"/>
	<line class="st0" x1="-6439.33" y1="32.54" x2="-6439.33" y2="64.06"/>
	<line class="st0" x1="-6525.81" y1="29.79" x2="-6525.81" y2="44.74"/>
	<line class="st0" x1="-6512.18" y1="31" x2="-6512.18" y2="52.42"/>
</g>
<circle class="st1" cx="-3866" cy="50.22" r="35.26"/>
<g>
	<rect x="-6341.14" y="2.17" class="st1" width="70.6" height="50.69"/>
	<line class="st1" x1="-6341.14" y1="-5.55" x2="-6341.14" y2="83.84"/>
	<rect x="-6341.14" y="27.52" class="st1" width="70.6" height="25.35"/>
	<rect x="-6341.14" y="2.17" class="st1" width="25.35" height="25.35"/>
</g>
<g transform="translate(0,-952.36218)">
	<path class="st1" d="M-6132.2,1023.37c0,18.4,13.01,33.32,29.05,33.32s29.05-14.92,29.05-33.32c0-18.4-13.96-38.93-29.05-56.24
		C-6103.15,967.13-6132.2,1000.15-6132.2,1023.37z"/>
</g>
<g>
	<polyline class="st1" points="-5955.22,45.44 -5910.48,0.71 -5865.75,45.44 	"/>
	<path class="st1" d="M-5910.48,37.69"/>
	<polygon class="st1" points="-5880.19,89.34 -5940.77,89.34 -5940.77,31.03 -5910.48,0.71 -5880.19,31.03 	"/>
	<polyline class="st0" points="-5923.6,89.34 -5923.6,53.99 -5897.36,53.99 -5897.36,89.34 	"/>
</g>
<g>
	<circle class="st1" cx="-4470.23" cy="50.57" r="35.29"/>
	<polyline class="st1" points="-4483.79,50.19 -4475.61,59.99 -4456.67,41.15 	"/>
</g>
<g>
	<g>
		<g>
			<rect x="-5729.69" y="19.77" class="st0" width="69.54" height="69.54"/>
			<g>
				<line class="st1" x1="-5714.78" y1="8.97" x2="-5714.78" y2="30.56"/>
				<line class="st1" x1="-5675.07" y1="8.97" x2="-5675.07" y2="30.56"/>
			</g>
		</g>
		<line class="st1" x1="-5729.69" y1="42.47" x2="-5660.15" y2="42.47"/>
	</g>
	<g>
		<path class="st4" d="M-5694.32,54.72v4.07l-6.81,5.54v0.42h0.91c3.4,0,6.46,2.35,6.46,6.81c0,4.98-3.79,8.21-9.26,8.21
			c-5.86,0-9.4-3.47-9.4-8.35v-0.98h4.63v0.84c0,2.39,1.65,4.35,4.77,4.35c2.91,0,4.63-1.72,4.63-4.07s-1.65-3.51-4-3.51h-4.28
			v-4.14l6.07-4.98h-11.12v-4.21H-5694.32z"/>
		<path class="st4" d="M-5678.95,54.72v24.56h-4.63V59.63h-0.42l-3.44,6.18h-4.84l6.32-11.09H-5678.95z"/>
	</g>
</g>
<g>
	<g>
		<circle class="st1" cx="-5492.59" cy="54.49" r="34.11"/>
		<g>
			<path class="st1" d="M-5498.07,21.13c-15.63,19.6-15.53,47.58,0.29,67.07"/>
			<path class="st1" d="M-5486.17,21.13c15.48,19.42,15.53,47.05,0.16,66.52"/>
		</g>
		<line class="st1" x1="-5526.69" y1="54.49" x2="-5458.48" y2="54.49"/>
		<line class="st1" x1="-5492.12" y1="20.58" x2="-5492.12" y2="88.4"/>
	</g>
</g>
<g>
	<circle class="st1" cx="-5300.12" cy="30.84" r="22.82"/>
	<line class="st1" x1="-5300.12" y1="53.66" x2="-5300.12" y2="97"/>
	<line class="st1" x1="-5318.22" y1="72.85" x2="-5282.02" y2="72.85"/>
</g>
<g>
	<circle class="st1" cx="-5087.65" cy="41.4" r="22.82"/>
	<line class="st1" x1="-5071.43" y1="24.71" x2="-5031.8" y2="-14.93"/>
	<polyline class="st0" points="-5058.22,-14.93 -5031.8,-14.93 -5031.8,11.5 	"/>
</g>
<path class="st1" d="M-4833.87,57.91V45.87l-36.59-13.14l0.48-18.57c0.09-2.9-1.09-5.69-3.23-7.65v0
	c-3.79-3.47-9.61-3.48-13.41-0.01l-0.01,0.01c-2.15,1.96-3.34,4.76-3.24,7.66l0.48,18.55l-33.67,12.17v12.04l34.33-6.35l1.48,23.62
	l-12.3,10.06v8.46l20.03-9.74l20.03,9.74v-8.46l-13.09-10.58l1.44-22.86L-4833.87,57.91z"/>
<g>
	<g>
		<g>
			<g>
				<g>
					<g>
						<rect x="-3489.63" y="31.07" class="st2" width="79.95" height="61.47"/>
						<rect x="-3489.63" y="31.07" class="st0" width="79.95" height="61.47"/>
					</g>
				</g>
			</g>
		</g>
		<path class="st1" d="M-3430.54,80.35h-38.24c-4.08,0-7.39-3.31-7.39-7.39V50.65c0-4.08,3.31-7.39,7.39-7.39h38.24
			c4.08,0,7.39,3.31,7.39,7.39v22.31C-3423.14,77.04-3426.45,80.35-3430.54,80.35z"/>
		<g>
			<line class="st1" x1="-3475.24" y1="4.62" x2="-3449.07" y2="30.79"/>
			<line class="st1" x1="-3424.07" y1="4.62" x2="-3450.24" y2="30.79"/>
		</g>
	</g>
</g>
<g>
	<polygon class="st1" points="-4641.9,93.2 -4706.79,93.2 -4706.79,5.08 -4663.89,5.08 -4652.9,16.08 -4641.9,27.07 	"/>
	<polyline class="st1" points="-4663.89,5.08 -4663.89,26.62 -4641.9,26.62 	"/>
</g>
<g>
	
		<rect x="-4082.06" y="33.5" transform="matrix(-1.836970e-16 1 -1 -1.836970e-16 -4020.4609 4131.2749)" class="st1" width="12.39" height="43.82"/>
	<rect x="-4099" y="4.78" class="st1" width="12.39" height="88.26"/>
	<rect x="-4060.58" y="49.21" class="st1" width="12.39" height="43.82"/>
</g>
<g>
	<g>
		<polygon class="st1" points="-4233.59,92.35 -4298.65,92.35 -4298.65,4 -4255.64,4 -4244.61,15.03 -4233.59,26.05 		"/>
		<polyline class="st1" points="-4255.64,4 -4255.64,25.59 -4233.59,25.59 		"/>
	</g>
	<line class="st1" x1="-4282.95" y1="45.82" x2="-4250.94" y2="45.82"/>
	<line class="st1" x1="-4283.22" y1="59.06" x2="-4251.22" y2="59.06"/>
	<line class="st1" x1="-4283.22" y1="72.31" x2="-4251.22" y2="72.31"/>
</g>
<g>
	<g>
		<path class="st4" d="M-3855.98,55.3v0.37c0,4.38-3.02,7.11-7.37,7.77v3.94h-4.42v-3.9c-5.08-0.7-8.25-3.98-8.25-9.28v-0.81h4.86
			v0.59c0,2.39,1.07,4.13,3.39,4.79v-7c-4.68-1.14-7.29-3.13-7.29-7.37v-0.22c0-4.02,3.09-6.67,7.29-7.26v-3.87h4.42v4.01
			c4.16,0.81,7,3.65,7,7.92v1.11h-4.86v-0.74c0-1.84-0.77-2.95-2.14-3.54v6.15C-3858.6,49.11-3855.98,51.1-3855.98,55.3z
			 M-3867.77,46.98V41.6c-1.47,0.44-2.36,1.44-2.36,2.65C-3870.13,45.76-3869.21,46.46-3867.77,46.98z M-3860.92,55.67
			c0-1.47-0.85-2.28-2.43-2.84v5.93C-3861.73,58.21-3860.92,57-3860.92,55.67z"/>
	</g>
</g>
<g>
	<circle class="st5" cx="-1024.82" cy="-211.72" r="35.69"/>
	<g>
		<circle class="st6" cx="-1038.62" cy="-218.78" r="1.7"/>
		<circle class="st6" cx="-1011.02" cy="-218.78" r="1.7"/>
	</g>
	<path class="st7" d="M-1037.34-203.74c6.92,6.92,18.12,6.92,25.04,0"/>
</g>
<g>
	<circle class="st5" cx="-960.96" cy="-211.72" r="35.69"/>
	<g>
		<circle class="st6" cx="-974.76" cy="-218.78" r="1.7"/>
		<circle class="st6" cx="-947.16" cy="-218.78" r="1.7"/>
	</g>
	<path class="st7" d="M-973.48-203.74c6.92,6.92,18.12,6.92,25.04,0"/>
</g>
<g>
	<circle class="st5" cx="-897.1" cy="-211.72" r="35.69"/>
	<g>
		<circle class="st6" cx="-910.9" cy="-218.78" r="1.7"/>
		<circle class="st6" cx="-883.3" cy="-218.78" r="1.7"/>
	</g>
	<path class="st7" d="M-909.62-203.74c6.92,6.92,18.12,6.92,25.04,0"/>
</g>
<polygon class="st1" points="-3645.86,67.9 -3627.9,85.54 -3627.9,67.9 -3610.26,67.9 -3627.9,49.94 -3610.26,31.98 -3627.9,31.98 
	-3627.9,14.34 -3645.86,31.98 -3663.82,14.34 -3663.82,31.98 -3681.46,31.98 -3663.82,49.94 -3681.46,67.9 -3663.82,67.9 
	-3663.82,85.54 "/>
<path class="st0" d="M-605.86,25.67c-19.42-11.08-39.69,1.39-38.74,22.03c1.04,22.68,19.59,51.75,37.54,44.64
	c2.43-0.97,5.14-0.97,7.57,0c17.95,7.11,36.49-21.97,37.54-44.64c0.95-20.59-19.24-33.06-38.63-22.09L-605.86,25.67z"/>
<path class="st0" d="M-596.17,4.39c-8.08,8.08-9.27,20.42-3.57,29.75"/>
<path class="st0" d="M-390.75,8.4c-15.65,1.49-19.56,16.36-22.4,32.85c-0.54,3.15-2.3,6.02-4.34,9.34
	c-3.7,6.02-8.29,13.51-5.89,25.26c1.08,5.52,4.51,10.3,9.39,13.1c6.38,3.78,15.19,4.62,22.99,2.21c1.59-0.51,3.3-0.44,4.84,0.2
	c3.02,1.27,6.28,1.91,9.56,1.88c3.96,0.01,7.88-0.85,11.47-2.52c6.07-2.82,10.57-8.21,12.26-14.69c3.27-11.72-1.68-19.37-5.65-25.52
	c-2.06-3.18-4-6.18-4.53-9.27c-2.83-16.42-6.72-31.25-22.22-32.84L-390.75,8.4z"/>
<path class="st0" d="M-381.99-8.48c-8.32,8.32-10.13,20.68-5.43,30.75"/>
<g>
	<rect x="-1866.31" y="13.31" class="st1" width="99.16" height="71.2"/>
	<rect x="-1866.31" y="48.91" class="st8" width="99.16" height="35.6"/>
	<rect x="-1866.31" y="13.31" class="st9" width="35.6" height="35.6"/>
</g>
<polygon class="st1" points="-776.73,86.01 -827.77,93.7 -827.77,4.82 -776.73,-2.86 "/>
<rect x="-827.77" y="5.79" class="st1" width="63.23" height="88.87"/>
<g>
	<polygon class="st0" points="-1428.86,99.56 -1428.86,110.71 -1440.02,99.56 -1459.94,99.56 -1459.94,9.27 -1363.87,9.27 
		-1363.87,99.56 	"/>
</g>
<g>
	<g>
		<circle class="st0" cx="-1637.14" cy="36.67" r="20.4"/>
		<line class="st0" x1="-1622.09" y1="51.72" x2="-1614.36" y2="59.46"/>
	</g>
	
		<rect x="-1608.32" y="54.37" transform="matrix(0.7071 -0.7071 0.7071 0.7071 -519.8412 -1112.4071)" class="st0" width="11.21" height="33.86"/>
</g>
<g>
	<path class="st0" d="M-2021.78,42.43c-0.63,4.55-2.69,8.93-6.18,12.43c-8.52,8.52-22.33,8.52-30.85,0
		c-8.52-8.52-8.52-22.33,0-30.85c8.52-8.52,22.33-8.52,30.85,0C-2022.94,29.03-2020.88,35.89-2021.78,42.43"/>
	<polyline class="st0" points="-2020.78,42.26 -1987.53,80.5 -2001,93.97 -2039.23,60.72 	"/>
	<line class="st0" x1="-1994.79" y1="87.76" x2="-1976.49" y2="106.06"/>
	<line class="st0" x1="-2058.82" y1="54.86" x2="-2028.75" y2="24.79"/>
</g>
<g>
	<rect x="-1237.03" y="4.58" class="st0" width="65.29" height="88.66"/>
	<g>
		<polyline class="st0" points="-1224.54,27.58 -1218.66,31.87 -1211.26,20.16 		"/>
		<polyline class="st0" points="-1197.52,51.23 -1191.64,55.53 -1184.24,43.81 		"/>
		<g>
			<line class="st0" x1="-1184.46" y1="21.34" x2="-1197.29" y2="34.17"/>
			<line class="st0" x1="-1197.29" y1="21.34" x2="-1184.46" y2="34.17"/>
		</g>
		<g>
			<line class="st0" x1="-1211.49" y1="64.83" x2="-1224.32" y2="77.66"/>
			<line class="st0" x1="-1224.32" y1="64.83" x2="-1211.49" y2="77.66"/>
		</g>
		<line class="st0" x1="-1223.75" y1="49.67" x2="-1212.06" y2="49.67"/>
		<line class="st0" x1="-1196.72" y1="71.25" x2="-1185.03" y2="71.25"/>
	</g>
</g>
<polygon class="st0" points="-2224.96,16.16 -2213.4,39.6 -2187.53,43.35 -2206.25,61.6 -2201.83,87.35 -2224.96,75.19 
	-2248.1,87.35 -2243.68,61.6 -2262.4,43.35 -2236.53,39.6 "/>
<g>
	<rect x="-2487.14" y="24.15" class="st0" width="116.13" height="71.69"/>
	<polyline class="st0" points="-2487.04,24.15 -2428.27,59.99 -2371.12,24.15 	"/>
</g>
<g>
	<g>
		<polygon class="st0" points="-2643.74,95.69 -2709.15,95.69 -2709.15,6.87 -2665.91,6.87 -2654.83,17.95 -2643.74,29.04 		"/>
		<polyline class="st0" points="-2665.91,6.87 -2665.91,28.58 -2643.74,28.58 		"/>
	</g>
	<line class="st0" x1="-2693.37" y1="48.91" x2="-2661.19" y2="48.91"/>
	<line class="st10" x1="-2693.64" y1="62.22" x2="-2661.47" y2="62.22"/>
	<line class="st10" x1="-2693.64" y1="75.54" x2="-2661.47" y2="75.54"/>
</g>
<g>
	<g>
		<polygon class="st0" points="-2557.24,95.69 -2622.65,95.69 -2622.65,6.87 -2579.41,6.87 -2568.33,17.95 -2557.24,29.04 		"/>
		<polyline class="st0" points="-2579.41,6.87 -2579.41,28.58 -2557.24,28.58 		"/>
	</g>
	<line class="st0" x1="-2606.87" y1="48.91" x2="-2574.69" y2="48.91"/>
	<line class="st10" x1="-2607.14" y1="62.22" x2="-2574.97" y2="62.22"/>
	<line class="st10" x1="-2607.14" y1="75.54" x2="-2574.97" y2="75.54"/>
</g>
<polyline class="st0" points="-2605.05,26.64 -2599.16,30.95 -2591.74,19.21 "/>
<g>
	<line class="st0" x1="-2679.82" y1="18.65" x2="-2692.67" y2="31.5"/>
	<line class="st0" x1="-2692.67" y1="18.65" x2="-2679.82" y2="31.5"/>
</g>
<g>
	<g>
		<g>
			<polygon class="st0" points="-2875.2,85.86 -2810.79,85.86 -2810.79,-2.93 -2853.37,-2.93 -2864.28,8.15 -2875.2,19.23 			"/>
			<polyline class="st0" points="-2853.37,-2.93 -2853.37,18.77 -2875.2,18.77 			"/>
		</g>
	</g>
</g>
<g>
	<g>
		<circle class="st1" cx="-2822.21" cy="34.09" r="20.88"/>
		<line class="st1" x1="-2806.81" y1="49.5" x2="-2798.89" y2="57.42"/>
	</g>
	
		<rect x="-2792.71" y="52.21" transform="matrix(0.7071 -0.7071 0.7071 0.7071 -865.4573 -1950.3156)" class="st1" width="11.48" height="34.67"/>
</g>
<g>
	<path class="st0" d="M-2983.03,52.05c0,0-17.48,41.31-58.39,41.31s-58.39-41.31-58.39-41.31v-0.77c0,0,12.46-21.34,25.4-27.36
		c12.94-6.02,32.99,4.23,32.99,4.23l0,0c0,0,19.92-10.25,32.87-4.23c12.94,6.02,25.4,27.36,25.4,27.36L-2983.03,52.05z"/>
	<path class="st0" d="M-3099.82,51.28c0,0,48.67,12.89,116.79,0.77"/>
</g>
<g>
	<path class="st0" d="M-3200.75,51.59c0,0-17.47,35.88-58.34,35.88c-40.87,0-58.34-35.88-58.34-35.88s17.47-35.88,58.34-35.88
		C-3218.22,15.71-3200.75,51.59-3200.75,51.59z"/>
	<circle class="st0" cx="-3259.09" cy="50.61" r="17.39"/>
</g>
<g>
	<circle class="st1" cx="27.71" cy="28.9" r="22.82"/>
	<line class="st1" x1="27.71" y1="51.72" x2="27.71" y2="95.06"/>
	<line class="st1" x1="9.61" y1="70.91" x2="45.81" y2="70.91"/>
</g>
<g>
	<circle class="st1" cx="89.23" cy="68.47" r="22.82"/>
	<line class="st1" x1="105.45" y1="51.78" x2="145.08" y2="12.15"/>
	<polyline class="st0" points="118.66,12.15 145.08,12.15 145.08,38.57 	"/>
</g>
</svg>
