<?xml version="1.0" encoding="utf-8"?>
<!-- Generator: Adobe Illustrator 24.2.0, SVG Export Plug-In . SVG Version: 6.00 Build 0)  -->
<svg version="1.1" id="Capa_1" xmlns="http://www.w3.org/2000/svg" xmlns:xlink="http://www.w3.org/1999/xlink" x="0px" y="0px"
	 viewBox="0 0 58.82 100.38" style="enable-background:new 0 0 58.82 100.38;" xml:space="preserve">
<style type="text/css">
	.st0{fill:none;stroke:#000000;stroke-width:6.5;stroke-miterlimit:10;}
	.st1{fill:#FFFFFF;stroke:#000000;stroke-width:6.5;stroke-miterlimit:10;}
	.st2{fill:#FFFFFF;}
	.st3{stroke:#000000;stroke-width:6.5;stroke-miterlimit:10;}
	.st4{fill:#1D1D1B;}
	.st5{fill:#FFFFFF;stroke:#1D1D1B;stroke-width:6.5;stroke-miterlimit:10;}
	.st6{fill:#1D1D1B;stroke:#1D1D1B;stroke-width:6.5;stroke-miterlimit:10;}
	.st7{fill:none;stroke:#1D1D1B;stroke-width:6.5;stroke-miterlimit:10;}
	.st8{fill:#FC5439;stroke:#000000;stroke-width:6.5;stroke-miterlimit:10;}
	.st9{fill:#3A90FD;stroke:#000000;stroke-width:6.5;stroke-miterlimit:10;}
	.st10{fill:#F1CD08;stroke:#000000;stroke-width:6.5;stroke-miterlimit:10;}
</style>
<g>
	<path class="st0" d="M-2234.44,84.83V10.5c0-4.23,3.43-7.65,7.65-7.65h54.6v77.9"/>
	<path class="st0" d="M-2210.87,91.58h38.68V78.09h-55.51c-3.72,0-6.74,3.02-6.74,6.74v0c0,3.72,3.02,6.74,6.74,6.74h1.52"/>
	<rect x="-2216.77" y="23.61" class="st0" width="26.92" height="15.7"/>
	<polygon class="st0" points="-2213.06,104.73 -2218.32,110.03 -2223.57,104.73 -2223.57,87.77 -2213.06,87.77 	"/>
</g>
<polygon class="st0" points="-2565.15,47.46 -2600.82,11.78 -2600.82,27.29 -2657.94,27.29 -2657.94,69.02 -2600.82,69.02 
	-2600.82,83.13 "/>
<g>
	<polyline class="st0" points="-2392.21,20.84 -2368.57,20.84 -2368.57,92.04 -2445.44,92.04 -2445.44,20.84 -2415.3,20.84 	"/>
	<polygon class="st0" points="-2409.94,32.65 -2418.53,24.07 -2397.34,2.87 -2385.79,14.42 -2404.02,32.65 	"/>
	<polyline class="st0" points="-2419.9,32.65 -2409.94,32.65 -2404.02,32.65 -2394.11,32.65 	"/>
</g>
<g>
	<polygon class="st0" points="-2780.37,-6.84 -2856.39,44.72 -2864.11,64.12 -2843.22,64.12 -2767.21,12.56 	"/>
	<line class="st0" x1="-2856.39" y1="44.72" x2="-2843.22" y2="64.12"/>
</g>
<g>
	<g>
		<path class="st1" d="M-1994.55,80.41h24.01c19.62,0,35.53-15.91,35.53-35.53v0c0-19.62-15.91-35.53-35.53-35.53l-3.72,0h-78.89
			c-4.91,0-8.88,3.98-8.88,8.88v0c0,4.91,3.98,8.88,8.88,8.88h68.05v0"/>
		<path class="st1" d="M-1985.11,27.13h-21.1c-4.91,0-8.88,3.98-8.88,8.88v0c0,4.91,3.98,8.88,8.88,8.88h19.4h1.7
			c4.91,0,8.88-3.98,8.88-8.88v0C-1976.23,31.1-1980.2,27.13-1985.11,27.13z"/>
		<path class="st1" d="M-1984.47,44.89h-21.1c-4.91,0-8.88,3.98-8.88,8.88v0c0,4.91,3.98,8.88,8.88,8.88h19.4h1.7
			c4.91,0,8.88-3.98,8.88-8.88v0C-1975.59,48.86-1979.57,44.89-1984.47,44.89z"/>
		<path class="st1" d="M-1984.47,62.65h-21.1c-4.91,0-8.88,3.98-8.88,8.88v0c0,4.91,3.98,8.88,8.88,8.88h19.4h1.7
			c4.91,0,8.88-3.98,8.88-8.88v0C-1975.59,66.63-1979.57,62.65-1984.47,62.65z"/>
	</g>
	<path class="st1" d="M-1971.02,11.24l-11.69,23.48c-2.15,4.41-0.32,9.73,4.09,11.88v0c4.41,2.15,9.73,0.32,11.88-4.09l8.54-17.14"
		/>
</g>
<g>
	<ellipse class="st2" cx="-1789.29" cy="50.47" rx="28.07" ry="18.08"/>
	<g>
		<path class="st1" d="M-1769.93,45.73V31.1c0-3.72,3.01-6.73,6.73-6.73l0,0c3.72,0,6.73,3.01,6.73,6.73v22.75
			c0,18.59-15.07,33.66-33.66,33.66l0,0c-18.59,0-33.66-15.07-33.66-33.66V30.74l0,0c7.43,0,13.45,6.02,13.45,13.45v8.75l0,0
			c7.42,0,13.44,6.02,13.44,13.44v0.83"/>
		<path class="st1" d="M-1769.99,45.73V12.96c0-3.72-3.01-6.73-6.73-6.73l0,0c-3.72,0-6.73,3.01-6.73,6.73v25.15"/>
		<path class="st1" d="M-1783.45,41.91V6.14c0-3.72-3.01-6.73-6.73-6.73l0,0c-3.72,0-6.73,3.01-6.73,6.73v25.15"/>
		<path class="st1" d="M-1796.9,41.12V11.35c0-3.72-3.01-6.73-6.73-6.73l0,0c-3.72,0-6.73,3.01-6.73,6.73v37.79"/>
	</g>
</g>
<g>
	<line class="st0" x1="-1604.01" y1="-168.89" x2="-1527.46" y2="-187.87"/>
	<circle class="st1" cx="-1604.01" cy="-168.89" r="25.98"/>
	<line class="st0" x1="-1450.65" y1="-168.87" x2="-1527.21" y2="-187.85"/>
	<circle class="st1" cx="-1450.65" cy="-168.89" r="25.98"/>
	<circle class="st1" cx="-1527.46" cy="-187.87" r="25.98"/>
</g>
<g>
	<circle class="st0" cx="-1381.48" cy="41.91" r="35.6"/>
	<g>
		<circle class="st3" cx="-1395.25" cy="34.87" r="1.69"/>
		<circle class="st3" cx="-1367.72" cy="34.87" r="1.69"/>
	</g>
	<path class="st0" d="M-1393.97,49.87c6.9,6.9,18.07,6.9,24.98,0"/>
</g>
<g>
	<line class="st0" x1="-1148.67" y1="9.26" x2="-1148.67" y2="81.12"/>
	<line class="st0" x1="-1218.99" y1="45.19" x2="-1269.91" y2="45.19"/>
	<line class="st0" x1="-1109.07" y1="45.19" x2="-1159.99" y2="45.19"/>
	<rect x="-1238.39" y="25.93" class="st1" width="89.71" height="38.51"/>
	<line class="st0" x1="-1110.69" y1="29.43" x2="-1110.69" y2="60.95"/>
	<line class="st0" x1="-1197.17" y1="26.68" x2="-1197.17" y2="41.63"/>
	<line class="st0" x1="-1183.54" y1="27.89" x2="-1183.54" y2="49.31"/>
</g>
<circle class="st1" cx="1462.64" cy="45.22" r="35.26"/>
<g>
	<rect x="-1012.5" y="-0.94" class="st1" width="70.6" height="50.69"/>
	<line class="st1" x1="-1012.5" y1="-8.67" x2="-1012.5" y2="80.72"/>
	<rect x="-1012.5" y="24.41" class="st1" width="70.6" height="25.35"/>
	<rect x="-1012.5" y="-0.94" class="st1" width="25.35" height="25.35"/>
</g>
<g transform="translate(0,-952.36218)">
	<path class="st1" d="M-803.56,1020.26c0,18.4,13.01,33.32,29.05,33.32c16.03,0,29.05-14.92,29.05-33.32
		c0-18.4-13.96-38.93-29.05-56.24C-774.51,964.02-803.56,997.04-803.56,1020.26z"/>
</g>
<g>
	<polyline class="st1" points="-626.57,42.33 -581.84,-2.41 -537.1,42.33 	"/>
	<path class="st1" d="M-581.84,34.57"/>
	<polygon class="st1" points="-551.55,86.23 -612.13,86.23 -612.13,27.92 -581.84,-2.41 -551.55,27.92 	"/>
	<polyline class="st0" points="-594.96,86.23 -594.96,50.87 -568.72,50.87 -568.72,86.23 	"/>
</g>
<g>
	<circle class="st1" cx="858.41" cy="47.46" r="35.29"/>
	<polyline class="st1" points="844.85,47.07 853.04,56.88 871.97,38.03 	"/>
</g>
<g>
	<g>
		<g>
			<rect x="-401.05" y="16.65" class="st0" width="69.54" height="69.54"/>
			<g>
				<line class="st1" x1="-386.13" y1="5.86" x2="-386.13" y2="27.45"/>
				<line class="st1" x1="-346.42" y1="5.86" x2="-346.42" y2="27.45"/>
			</g>
		</g>
		<line class="st1" x1="-401.05" y1="39.36" x2="-331.51" y2="39.36"/>
	</g>
	<g>
		<path class="st4" d="M-365.68,51.6v4.07l-6.81,5.54v0.42h0.91c3.4,0,6.46,2.35,6.46,6.81c0,4.98-3.79,8.21-9.26,8.21
			c-5.86,0-9.4-3.47-9.4-8.35v-0.98h4.63v0.84c0,2.39,1.65,4.35,4.77,4.35c2.91,0,4.63-1.72,4.63-4.07s-1.65-3.51-4-3.51h-4.28V60.8
			l6.07-4.98h-11.12V51.6H-365.68z"/>
		<path class="st4" d="M-350.31,51.6v24.56h-4.63V56.52h-0.42l-3.44,6.18h-4.84l6.32-11.09H-350.31z"/>
	</g>
</g>
<g>
	<g>
		<circle class="st1" cx="-163.95" cy="51.38" r="34.11"/>
		<g>
			<path class="st1" d="M-169.42,18.02c-15.63,19.6-15.53,47.58,0.29,67.07"/>
			<path class="st1" d="M-157.53,18.02c15.48,19.42,15.53,47.05,0.16,66.52"/>
		</g>
		<line class="st1" x1="-198.05" y1="51.38" x2="-129.84" y2="51.38"/>
		<line class="st1" x1="-163.48" y1="17.47" x2="-163.48" y2="85.29"/>
	</g>
</g>
<g>
	<circle class="st1" cx="28.53" cy="27.73" r="22.82"/>
	<line class="st1" x1="28.53" y1="50.55" x2="28.53" y2="93.89"/>
	<line class="st1" x1="10.43" y1="69.74" x2="46.62" y2="69.74"/>
</g>
<g>
	<circle class="st1" cx="241" cy="38.29" r="22.82"/>
	<line class="st1" x1="257.21" y1="21.6" x2="296.85" y2="-18.04"/>
	<polyline class="st0" points="270.42,-18.04 296.85,-18.04 296.85,8.38 	"/>
</g>
<path class="st1" d="M494.77,54.8V42.76l-36.59-13.14l0.48-18.57c0.09-2.9-1.09-5.69-3.23-7.65l0,0c-3.79-3.47-9.61-3.48-13.41-0.01
	l-0.01,0.01c-2.15,1.96-3.34,4.76-3.24,7.66l0.48,18.55l-33.67,12.17v12.04l34.33-6.35l1.48,23.62l-12.3,10.06v8.46l20.03-9.74
	l20.03,9.74v-8.46l-13.09-10.58l1.45-22.86L494.77,54.8z"/>
<g>
	<g>
		<g>
			<g>
				<g>
					<g>
						<rect x="1839.01" y="26.16" class="st2" width="79.95" height="61.47"/>
						<rect x="1839.01" y="26.16" class="st0" width="79.95" height="61.47"/>
					</g>
				</g>
			</g>
		</g>
		<path class="st1" d="M1898.11,75.44h-38.24c-4.08,0-7.39-3.31-7.39-7.39V45.74c0-4.08,3.31-7.39,7.39-7.39h38.24
			c4.08,0,7.39,3.31,7.39,7.39v22.31C1905.5,72.13,1902.19,75.44,1898.11,75.44z"/>
		<g>
			<line class="st1" x1="1853.4" y1="-0.29" x2="1879.57" y2="25.88"/>
			<line class="st1" x1="1904.57" y1="-0.29" x2="1878.4" y2="25.88"/>
		</g>
	</g>
</g>
<g>
	<polygon class="st1" points="686.74,90.09 621.85,90.09 621.85,1.97 664.75,1.97 675.75,12.96 686.74,23.96 	"/>
	<polyline class="st1" points="664.75,1.97 664.75,23.5 686.74,23.5 	"/>
</g>
<g>
	
		<rect x="1246.58" y="30.38" transform="matrix(-1.836970e-16 1 -1 -1.836970e-16 1305.0682 -1200.4817)" class="st1" width="12.39" height="43.82"/>
	<rect x="1229.64" y="1.67" class="st1" width="12.39" height="88.26"/>
	<rect x="1268.06" y="46.1" class="st1" width="12.39" height="43.82"/>
</g>
<g>
	<g>
		<polygon class="st1" points="1095.06,87.51 1030,87.51 1030,-0.84 1073.01,-0.84 1084.03,10.19 1095.06,21.21 		"/>
		<polyline class="st1" points="1073.01,-0.84 1073.01,20.75 1095.06,20.75 		"/>
	</g>
	<line class="st1" x1="1045.7" y1="40.98" x2="1077.7" y2="40.98"/>
	<line class="st1" x1="1045.42" y1="54.22" x2="1077.43" y2="54.22"/>
	<line class="st1" x1="1045.42" y1="67.47" x2="1077.43" y2="67.47"/>
</g>
<g>
	<g>
		<path class="st4" d="M1472.66,50.3v0.37c0,4.38-3.02,7.11-7.37,7.77v3.94h-4.42v-3.9c-5.08-0.7-8.25-3.98-8.25-9.28v-0.81h4.86
			v0.59c0,2.39,1.07,4.13,3.39,4.79v-7c-4.68-1.14-7.29-3.13-7.29-7.37v-0.22c0-4.02,3.09-6.67,7.29-7.26v-3.87h4.42v4.01
			c4.16,0.81,7,3.65,7,7.92v1.11h-4.86v-0.74c0-1.84-0.77-2.95-2.14-3.54v6.15C1470.04,44.12,1472.66,46.11,1472.66,50.3z
			 M1460.87,41.98V36.6c-1.47,0.44-2.36,1.44-2.36,2.65C1458.51,40.76,1459.43,41.46,1460.87,41.98z M1467.72,50.67
			c0-1.47-0.85-2.28-2.43-2.84v5.93C1466.91,53.21,1467.72,52,1467.72,50.67z"/>
	</g>
</g>
<g>
	<circle class="st5" cx="4303.82" cy="-214.83" r="35.69"/>
	<g>
		<circle class="st6" cx="4290.02" cy="-221.89" r="1.7"/>
		<circle class="st6" cx="4317.63" cy="-221.89" r="1.7"/>
	</g>
	<path class="st7" d="M4291.3-206.85c6.92,6.92,18.12,6.92,25.04,0"/>
</g>
<g>
	<circle class="st5" cx="4367.68" cy="-214.83" r="35.69"/>
	<g>
		<circle class="st6" cx="4353.88" cy="-221.89" r="1.7"/>
		<circle class="st6" cx="4381.48" cy="-221.89" r="1.7"/>
	</g>
	<path class="st7" d="M4355.16-206.85c6.92,6.92,18.12,6.92,25.04,0"/>
</g>
<g>
	<circle class="st5" cx="4431.54" cy="-214.83" r="35.69"/>
	<g>
		<circle class="st6" cx="4417.74" cy="-221.89" r="1.7"/>
		<circle class="st6" cx="4445.34" cy="-221.89" r="1.7"/>
	</g>
	<path class="st7" d="M4419.02-206.85c6.92,6.92,18.12,6.92,25.04,0"/>
</g>
<polygon class="st1" points="1682.78,64.79 1700.75,82.42 1700.75,64.79 1718.38,64.79 1700.75,46.83 1718.38,28.86 1700.75,28.86 
	1700.75,11.23 1682.78,28.86 1664.82,11.23 1664.82,28.86 1647.18,28.86 1664.82,46.83 1647.18,64.79 1664.82,64.79 1664.82,82.42 
	"/>
<path class="st0" d="M4722.79,22.55c-19.42-11.08-39.69,1.39-38.74,22.03c1.04,22.68,19.59,51.75,37.54,44.64
	c2.43-0.97,5.14-0.97,7.57,0c17.95,7.11,36.49-21.97,37.54-44.64c0.95-20.59-19.24-33.06-38.63-22.09L4722.79,22.55z"/>
<path class="st0" d="M4732.47,1.28c-8.08,8.08-9.27,20.42-3.57,29.75"/>
<path class="st0" d="M4937.89,5.28c-15.65,1.49-19.56,16.36-22.4,32.85c-0.54,3.15-2.3,6.02-4.34,9.34
	c-3.7,6.02-8.29,13.51-5.89,25.26c1.08,5.52,4.5,10.3,9.39,13.1c6.38,3.78,15.19,4.62,22.99,2.21c1.59-0.51,3.3-0.44,4.84,0.2
	c3.02,1.27,6.28,1.91,9.56,1.88c3.96,0.01,7.88-0.85,11.47-2.52c6.07-2.82,10.57-8.21,12.26-14.69c3.27-11.72-1.68-19.37-5.65-25.52
	c-2.06-3.18-4-6.18-4.53-9.27c-2.83-16.42-6.72-31.25-22.22-32.84L4937.89,5.28z"/>
<path class="st0" d="M4946.65-11.6c-8.32,8.32-10.13,20.68-5.43,30.75"/>
<g>
	<rect x="3462.33" y="10.2" class="st1" width="99.16" height="71.2"/>
	<rect x="3462.33" y="45.8" class="st8" width="99.16" height="35.6"/>
	<rect x="3462.33" y="10.2" class="st9" width="35.6" height="35.6"/>
</g>
<polygon class="st1" points="4551.91,82.9 4500.87,90.58 4500.87,1.71 4551.91,-5.97 "/>
<rect x="4500.87" y="2.68" class="st1" width="63.23" height="88.87"/>
<g>
	<polygon class="st0" points="3899.78,96.44 3899.78,107.6 3888.63,96.44 3868.71,96.44 3868.71,6.16 3964.78,6.16 3964.78,96.44 	
		"/>
</g>
<g>
	<g>
		<circle class="st0" cx="3691.5" cy="33.56" r="20.4"/>
		<line class="st0" x1="3706.55" y1="48.61" x2="3714.28" y2="56.34"/>
	</g>
	
		<rect x="3720.32" y="51.25" transform="matrix(0.7071 -0.7071 0.7071 0.7071 1043.0839 2654.6003)" class="st0" width="11.21" height="33.86"/>
</g>
<g>
	<path class="st0" d="M3306.86,39.31c-0.63,4.55-2.69,8.93-6.18,12.43c-8.52,8.52-22.33,8.52-30.85,0c-8.52-8.52-8.52-22.33,0-30.85
		c8.52-8.52,22.33-8.52,30.85,0C3305.7,25.91,3307.76,32.78,3306.86,39.31"/>
	<polyline class="st0" points="3307.87,39.15 3341.11,77.38 3327.64,90.85 3289.41,57.61 	"/>
	<line class="st0" x1="3333.85" y1="84.65" x2="3352.15" y2="102.95"/>
	<line class="st0" x1="3269.83" y1="51.74" x2="3299.89" y2="21.68"/>
</g>
<g>
	<rect x="4091.61" y="1.47" class="st0" width="65.29" height="88.66"/>
	<g>
		<polyline class="st0" points="4104.1,24.46 4109.98,28.76 4117.38,17.05 		"/>
		<polyline class="st0" points="4131.13,48.11 4137.01,52.41 4144.41,40.7 		"/>
		<g>
			<line class="st0" x1="4144.18" y1="18.23" x2="4131.35" y2="31.05"/>
			<line class="st0" x1="4131.35" y1="18.23" x2="4144.18" y2="31.05"/>
		</g>
		<g>
			<line class="st0" x1="4117.15" y1="61.72" x2="4104.33" y2="74.55"/>
			<line class="st0" x1="4104.33" y1="61.72" x2="4117.15" y2="74.55"/>
		</g>
		<line class="st0" x1="4104.89" y1="46.56" x2="4116.59" y2="46.56"/>
		<line class="st0" x1="4131.92" y1="68.13" x2="4143.61" y2="68.13"/>
	</g>
</g>
<polygon class="st0" points="3103.68,13.05 3115.24,36.48 3141.11,40.24 3122.39,58.48 3126.81,84.24 3103.68,72.08 3080.54,84.24 
	3084.96,58.48 3066.25,40.24 3092.11,36.48 "/>
<g>
	<rect x="2841.5" y="21.03" class="st0" width="116.13" height="71.69"/>
	<polyline class="st0" points="2841.6,21.03 2900.37,56.88 2957.52,21.03 	"/>
</g>
<g>
	<g>
		<polygon class="st0" points="2684.9,92.57 2619.49,92.57 2619.49,3.76 2662.73,3.76 2673.82,14.84 2684.9,25.92 		"/>
		<polyline class="st0" points="2662.73,3.76 2662.73,25.46 2684.9,25.46 		"/>
	</g>
	<line class="st0" x1="2635.28" y1="45.8" x2="2667.45" y2="45.8"/>
	<line class="st10" x1="2635" y1="59.11" x2="2667.18" y2="59.11"/>
	<line class="st10" x1="2635" y1="72.43" x2="2667.18" y2="72.43"/>
</g>
<g>
	<g>
		<polygon class="st0" points="2771.4,92.57 2706,92.57 2706,3.76 2749.23,3.76 2760.32,14.84 2771.4,25.92 		"/>
		<polyline class="st0" points="2749.23,3.76 2749.23,25.46 2771.4,25.46 		"/>
	</g>
	<line class="st0" x1="2721.78" y1="45.8" x2="2753.95" y2="45.8"/>
	<line class="st10" x1="2721.5" y1="59.11" x2="2753.68" y2="59.11"/>
	<line class="st10" x1="2721.5" y1="72.43" x2="2753.68" y2="72.43"/>
</g>
<polyline class="st0" points="2723.59,23.53 2729.49,27.83 2736.9,16.1 "/>
<g>
	<line class="st0" x1="2648.82" y1="15.54" x2="2635.97" y2="28.39"/>
	<line class="st0" x1="2635.97" y1="15.54" x2="2648.82" y2="28.39"/>
</g>
<g>
	<g>
		<g>
			<polygon class="st0" points="2453.44,82.74 2517.86,82.74 2517.86,-6.04 2475.28,-6.04 2464.36,5.04 2453.44,16.12 			"/>
			<polyline class="st0" points="2475.28,-6.04 2475.28,15.65 2453.44,15.65 			"/>
		</g>
	</g>
</g>
<g>
	<g>
		<circle class="st1" cx="2506.43" cy="30.98" r="20.88"/>
		<line class="st1" x1="2521.84" y1="46.39" x2="2529.76" y2="54.31"/>
	</g>
	
		<rect x="2535.94" y="49.09" transform="matrix(0.7071 -0.7071 0.7071 0.7071 697.4678 1816.6919)" class="st1" width="11.48" height="34.67"/>
</g>
<g>
	<path class="st0" d="M2345.61,48.94c0,0-17.48,41.31-58.39,41.31s-58.39-41.31-58.39-41.31v-0.77c0,0,12.46-21.34,25.4-27.36
		c12.94-6.02,32.99,4.23,32.99,4.23l0,0c0,0,19.92-10.25,32.87-4.23c12.94,6.02,25.4,27.36,25.4,27.36L2345.61,48.94z"/>
	<path class="st0" d="M2228.82,48.17c0,0,48.67,12.89,116.79,0.77"/>
</g>
<g>
	<path class="st0" d="M2127.89,53.16c0,0-17.47,35.88-58.34,35.88c-40.87,0-58.34-35.88-58.34-35.88s17.47-35.88,58.34-35.88
		C2110.42,17.28,2127.89,53.16,2127.89,53.16z"/>
	<circle class="st0" cx="2069.55" cy="52.18" r="17.39"/>
</g>
<g>
	<circle class="st5" cx="5144.83" cy="50.74" r="35.69"/>
	<g>
		<circle class="st6" cx="5131.03" cy="43.69" r="1.7"/>
		<circle class="st6" cx="5158.63" cy="43.69" r="1.7"/>
	</g>
	<path class="st7" d="M5132.31,58.72c6.92,6.92,18.12,6.92,25.04,0"/>
</g>
<g>
	<circle class="st1" cx="5356.35" cy="25.79" r="22.82"/>
	<line class="st1" x1="5356.35" y1="48.61" x2="5356.35" y2="91.94"/>
	<line class="st1" x1="5338.25" y1="67.79" x2="5374.45" y2="67.79"/>
</g>
<g>
	<circle class="st1" cx="5534.21" cy="67.5" r="22.82"/>
	<line class="st1" x1="5550.42" y1="50.81" x2="5590.06" y2="11.17"/>
	<polyline class="st0" points="5563.63,11.17 5590.06,11.17 5590.06,37.6 	"/>
</g>
</svg>
