<?xml version="1.0" encoding="utf-8"?>
<!-- Generator: Adobe Illustrator 24.2.0, SVG Export Plug-In . SVG Version: 6.00 Build 0)  -->
<svg version="1.1" id="Capa_1" xmlns="http://www.w3.org/2000/svg" xmlns:xlink="http://www.w3.org/1999/xlink" x="0px" y="0px"
	 viewBox="0 0 92.57 92.96" style="enable-background:new 0 0 92.57 92.96;" xml:space="preserve">
<style type="text/css">
	.st0{fill:none;stroke:#000000;stroke-width:6.5;stroke-miterlimit:10;}
	.st1{fill:#FFFFFF;stroke:#000000;stroke-width:6.5;stroke-miterlimit:10;}
	.st2{fill:#FFFFFF;}
	.st3{stroke:#000000;stroke-width:6.5;stroke-miterlimit:10;}
	.st4{fill:#1D1D1B;}
	.st5{fill:#FFFFFF;stroke:#1D1D1B;stroke-width:6.5;stroke-miterlimit:10;}
	.st6{fill:#1D1D1B;stroke:#1D1D1B;stroke-width:6.5;stroke-miterlimit:10;}
	.st7{fill:none;stroke:#1D1D1B;stroke-width:6.5;stroke-miterlimit:10;}
	.st8{fill:#FC5439;stroke:#000000;stroke-width:6.5;stroke-miterlimit:10;}
	.st9{fill:#3A90FD;stroke:#000000;stroke-width:6.5;stroke-miterlimit:10;}
	.st10{fill:#F1CD08;stroke:#000000;stroke-width:6.5;stroke-miterlimit:10;}
</style>
<g>
	<path class="st0" d="M-2444.65,110.51V36.17c0-4.23,3.43-7.65,7.65-7.65h54.6v77.9"/>
	<path class="st0" d="M-2421.09,117.25h38.68v-13.49h-55.51c-3.72,0-6.74,3.02-6.74,6.74v0c0,3.72,3.02,6.74,6.74,6.74h1.52"/>
	<rect x="-2426.99" y="49.29" class="st0" width="26.92" height="15.7"/>
	<polygon class="st0" points="-2423.27,130.4 -2428.53,135.71 -2433.79,130.4 -2433.79,113.45 -2423.27,113.45 	"/>
</g>
<polygon class="st0" points="-2775.36,73.13 -2811.03,37.46 -2811.03,52.96 -2868.16,52.96 -2868.16,94.7 -2811.03,94.7 
	-2811.03,108.81 "/>
<g>
	<polyline class="st0" points="-2602.43,46.52 -2578.79,46.52 -2578.79,117.71 -2655.65,117.71 -2655.65,46.52 -2625.52,46.52 	"/>
	<polygon class="st0" points="-2620.16,58.33 -2628.74,49.74 -2607.55,28.55 -2596.01,40.1 -2614.24,58.33 	"/>
	<polyline class="st0" points="-2630.11,58.33 -2620.16,58.33 -2614.24,58.33 -2604.32,58.33 	"/>
</g>
<g>
	<polygon class="st0" points="-2990.58,18.83 -3066.6,70.39 -3074.33,89.8 -3053.44,89.8 -2977.42,38.24 	"/>
	<line class="st0" x1="-3066.6" y1="70.39" x2="-3053.44" y2="89.8"/>
</g>
<g>
	<g>
		<path class="st1" d="M-2204.76,106.09h24.01c19.62,0,35.53-15.91,35.53-35.53v0c0-19.62-15.91-35.53-35.53-35.53l-3.72,0h-78.89
			c-4.91,0-8.88,3.98-8.88,8.88v0c0,4.91,3.98,8.88,8.88,8.88h68.05v0"/>
		<path class="st1" d="M-2195.32,52.8h-21.1c-4.91,0-8.88,3.98-8.88,8.88v0c0,4.91,3.98,8.88,8.88,8.88h19.4h1.7
			c4.91,0,8.88-3.98,8.88-8.88v0C-2186.44,56.78-2190.42,52.8-2195.32,52.8z"/>
		<path class="st1" d="M-2194.69,70.57h-21.09c-4.91,0-8.88,3.98-8.88,8.88v0c0,4.91,3.98,8.88,8.88,8.88h19.4h1.7
			c4.91,0,8.88-3.98,8.88-8.88v0C-2185.8,74.54-2189.78,70.57-2194.69,70.57z"/>
		<path class="st1" d="M-2194.69,88.33h-21.09c-4.91,0-8.88,3.98-8.88,8.88v0c0,4.91,3.98,8.88,8.88,8.88h19.4h1.7
			c4.91,0,8.88-3.98,8.88-8.88v0C-2185.8,92.3-2189.78,88.33-2194.69,88.33z"/>
	</g>
	<path class="st1" d="M-2181.24,36.92l-11.69,23.48c-2.15,4.41-0.32,9.73,4.09,11.88v0c4.41,2.15,9.73,0.32,11.88-4.09l8.54-17.14"
		/>
</g>
<g>
	<ellipse class="st2" cx="-1999.51" cy="76.15" rx="28.07" ry="18.08"/>
	<g>
		<path class="st1" d="M-1980.14,71.41V56.78c0-3.72,3.01-6.73,6.73-6.73l0,0c3.72,0,6.73,3.01,6.73,6.73v22.75
			c0,18.59-15.07,33.66-33.66,33.66h0c-18.59,0-33.66-15.07-33.66-33.66V56.42l0,0c7.43,0,13.45,6.02,13.45,13.45v8.75h0
			c7.42,0,13.44,6.02,13.44,13.44v0.83"/>
		<path class="st1" d="M-1980.21,71.41V38.64c0-3.72-3.01-6.73-6.73-6.73l0,0c-3.72,0-6.73,3.01-6.73,6.73v25.15"/>
		<path class="st1" d="M-1993.66,67.59V31.82c0-3.72-3.01-6.73-6.73-6.73l0,0c-3.72,0-6.73,3.01-6.73,6.73v25.15"/>
		<path class="st1" d="M-2007.12,66.8V37.03c0-3.72-3.01-6.73-6.73-6.73l0,0c-3.72,0-6.73,3.01-6.73,6.73v37.79"/>
	</g>
</g>
<g>
	<line class="st0" x1="-1814.23" y1="-143.21" x2="-1737.67" y2="-162.19"/>
	<circle class="st1" cx="-1814.23" cy="-143.21" r="25.98"/>
	<line class="st0" x1="-1660.87" y1="-143.2" x2="-1737.42" y2="-162.17"/>
	<circle class="st1" cx="-1660.87" cy="-143.21" r="25.98"/>
	<circle class="st1" cx="-1737.67" cy="-162.19" r="25.98"/>
</g>
<g>
	<circle class="st0" cx="-1591.7" cy="67.59" r="35.6"/>
	<g>
		<circle class="st3" cx="-1605.47" cy="60.54" r="1.69"/>
		<circle class="st3" cx="-1577.93" cy="60.54" r="1.69"/>
	</g>
	<path class="st0" d="M-1604.19,75.55c6.9,6.9,18.07,6.9,24.98,0"/>
</g>
<g>
	<line class="st0" x1="-1358.89" y1="34.94" x2="-1358.89" y2="106.79"/>
	<line class="st0" x1="-1429.2" y1="70.87" x2="-1480.12" y2="70.87"/>
	<line class="st0" x1="-1319.28" y1="70.87" x2="-1370.2" y2="70.87"/>
	<rect x="-1448.6" y="51.61" class="st1" width="89.71" height="38.51"/>
	<line class="st0" x1="-1320.9" y1="55.11" x2="-1320.9" y2="86.63"/>
	<line class="st0" x1="-1407.38" y1="52.35" x2="-1407.38" y2="67.31"/>
	<line class="st0" x1="-1393.75" y1="53.57" x2="-1393.75" y2="74.99"/>
</g>
<circle class="st1" cx="1252.43" cy="70.9" r="35.26"/>
<g>
	<rect x="-1222.71" y="24.74" class="st1" width="70.6" height="50.69"/>
	<line class="st1" x1="-1222.71" y1="17.01" x2="-1222.71" y2="106.4"/>
	<rect x="-1222.71" y="50.08" class="st1" width="70.6" height="25.35"/>
	<rect x="-1222.71" y="24.74" class="st1" width="25.35" height="25.35"/>
</g>
<g transform="translate(0,-952.36218)">
	<path class="st1" d="M-1013.77,1045.94c0,18.4,13.01,33.32,29.05,33.32s29.05-14.92,29.05-33.32s-13.96-38.93-29.05-56.24
		C-984.72,989.7-1013.77,1022.71-1013.77,1045.94z"/>
</g>
<g>
	<polyline class="st1" points="-836.79,68 -792.05,23.27 -747.32,68 	"/>
	<path class="st1" d="M-792.05,60.25"/>
	<polygon class="st1" points="-761.76,111.9 -822.34,111.9 -822.34,53.59 -792.05,23.27 -761.76,53.59 	"/>
	<polyline class="st0" points="-805.17,111.9 -805.17,76.55 -778.93,76.55 -778.93,111.9 	"/>
</g>
<g>
	<circle class="st1" cx="648.2" cy="73.13" r="35.29"/>
	<polyline class="st1" points="634.64,72.75 642.82,82.55 661.76,63.71 	"/>
</g>
<g>
	<g>
		<g>
			<rect x="-611.26" y="42.33" class="st0" width="69.54" height="69.54"/>
			<g>
				<line class="st1" x1="-596.35" y1="31.54" x2="-596.35" y2="53.13"/>
				<line class="st1" x1="-556.64" y1="31.54" x2="-556.64" y2="53.13"/>
			</g>
		</g>
		<line class="st1" x1="-611.26" y1="65.04" x2="-541.72" y2="65.04"/>
	</g>
	<g>
		<path class="st4" d="M-575.89,77.28v4.07l-6.81,5.54v0.42h0.91c3.4,0,6.46,2.35,6.46,6.81c0,4.98-3.79,8.21-9.26,8.21
			c-5.86,0-9.4-3.47-9.4-8.35V93h4.63v0.84c0,2.39,1.65,4.35,4.77,4.35c2.91,0,4.63-1.72,4.63-4.07s-1.65-3.51-4-3.51h-4.28v-4.14
			l6.07-4.98h-11.12v-4.21H-575.89z"/>
		<path class="st4" d="M-560.52,77.28v24.56h-4.63V82.19h-0.42l-3.44,6.18h-4.84l6.32-11.09H-560.52z"/>
	</g>
</g>
<g>
	<g>
		<circle class="st1" cx="-374.16" cy="77.06" r="34.11"/>
		<g>
			<path class="st1" d="M-379.64,43.7c-15.63,19.6-15.53,47.58,0.29,67.07"/>
			<path class="st1" d="M-367.75,43.7c15.48,19.42,15.53,47.05,0.16,66.52"/>
		</g>
		<line class="st1" x1="-408.27" y1="77.06" x2="-340.05" y2="77.06"/>
		<line class="st1" x1="-373.69" y1="43.15" x2="-373.69" y2="110.96"/>
	</g>
</g>
<g>
	<circle class="st1" cx="-181.69" cy="53.41" r="22.82"/>
	<line class="st1" x1="-181.69" y1="76.23" x2="-181.69" y2="119.56"/>
	<line class="st1" x1="-199.79" y1="95.41" x2="-163.59" y2="95.41"/>
</g>
<g>
	<circle class="st1" cx="30.78" cy="63.96" r="22.82"/>
	<line class="st1" x1="47" y1="47.27" x2="86.63" y2="7.64"/>
	<polyline class="st0" points="60.21,7.64 86.63,7.64 86.63,34.06 	"/>
</g>
<path class="st1" d="M284.56,80.47V68.43l-36.59-13.14l0.48-18.57c0.09-2.9-1.09-5.69-3.23-7.65l0,0
	c-3.79-3.47-9.61-3.48-13.41-0.01l-0.01,0.01c-2.15,1.96-3.34,4.76-3.24,7.66l0.48,18.55l-33.67,12.17V79.5l34.33-6.35l1.48,23.62
	l-12.3,10.06v8.46l20.03-9.74l20.03,9.74v-8.46l-13.09-10.58l1.45-22.86L284.56,80.47z"/>
<g>
	<g>
		<g>
			<g>
				<g>
					<g>
						<rect x="1628.8" y="51.84" class="st2" width="79.95" height="61.47"/>
						<rect x="1628.8" y="51.84" class="st0" width="79.95" height="61.47"/>
					</g>
				</g>
			</g>
		</g>
		<path class="st1" d="M1687.89,101.12h-38.24c-4.08,0-7.39-3.31-7.39-7.39V71.42c0-4.08,3.31-7.39,7.39-7.39h38.24
			c4.08,0,7.39,3.31,7.39,7.39v22.31C1695.29,97.81,1691.98,101.12,1687.89,101.12z"/>
		<g>
			<line class="st1" x1="1643.19" y1="25.39" x2="1669.36" y2="51.56"/>
			<line class="st1" x1="1694.36" y1="25.39" x2="1668.19" y2="51.56"/>
		</g>
	</g>
</g>
<g>
	<polygon class="st1" points="476.53,115.77 411.64,115.77 411.64,27.64 454.54,27.64 465.53,38.64 476.53,49.64 	"/>
	<polyline class="st1" points="454.54,27.64 454.54,49.18 476.53,49.18 	"/>
</g>
<g>
	
		<rect x="1036.36" y="56.06" transform="matrix(-1.836970e-16 1 -1 -1.836970e-16 1120.5309 -964.5905)" class="st1" width="12.39" height="43.82"/>
	<rect x="1019.43" y="27.34" class="st1" width="12.39" height="88.26"/>
	<rect x="1057.84" y="71.77" class="st1" width="12.39" height="43.82"/>
</g>
<g>
	<g>
		<polygon class="st1" points="884.84,113.19 819.78,113.19 819.78,24.84 862.79,24.84 873.82,35.87 884.84,46.89 		"/>
		<polyline class="st1" points="862.79,24.84 862.79,46.43 884.84,46.43 		"/>
	</g>
	<line class="st1" x1="835.48" y1="66.66" x2="867.49" y2="66.66"/>
	<line class="st1" x1="835.21" y1="79.9" x2="867.21" y2="79.9"/>
	<line class="st1" x1="835.21" y1="93.15" x2="867.21" y2="93.15"/>
</g>
<g>
	<g>
		<path class="st4" d="M1262.44,75.98v0.37c0,4.38-3.02,7.11-7.37,7.77v3.94h-4.42v-3.9c-5.08-0.7-8.25-3.98-8.25-9.28v-0.81h4.86
			v0.59c0,2.39,1.07,4.13,3.39,4.79v-7c-4.68-1.14-7.29-3.13-7.29-7.37v-0.22c0-4.02,3.09-6.67,7.29-7.26v-3.87h4.42v4.01
			c4.16,0.81,7,3.65,7,7.92v1.11h-4.86v-0.74c0-1.84-0.77-2.95-2.14-3.54v6.15C1259.83,69.79,1262.44,71.78,1262.44,75.98z
			 M1250.66,67.66v-5.38c-1.47,0.44-2.36,1.44-2.36,2.65C1248.3,66.44,1249.22,67.14,1250.66,67.66z M1257.51,76.35
			c0-1.47-0.85-2.28-2.43-2.84v5.93C1256.7,78.89,1257.51,77.68,1257.51,76.35z"/>
	</g>
</g>
<g>
	<circle class="st5" cx="4093.61" cy="-189.15" r="35.69"/>
	<g>
		<circle class="st6" cx="4079.81" cy="-196.21" r="1.7"/>
		<circle class="st6" cx="4107.41" cy="-196.21" r="1.7"/>
	</g>
	<path class="st7" d="M4081.09-181.17c6.92,6.92,18.12,6.92,25.04,0"/>
</g>
<g>
	<circle class="st5" cx="4157.47" cy="-189.15" r="35.69"/>
	<g>
		<circle class="st6" cx="4143.67" cy="-196.21" r="1.7"/>
		<circle class="st6" cx="4171.27" cy="-196.21" r="1.7"/>
	</g>
	<path class="st7" d="M4144.95-181.17c6.92,6.92,18.12,6.92,25.04,0"/>
</g>
<g>
	<circle class="st5" cx="4221.33" cy="-189.15" r="35.69"/>
	<g>
		<circle class="st6" cx="4207.53" cy="-196.21" r="1.7"/>
		<circle class="st6" cx="4235.13" cy="-196.21" r="1.7"/>
	</g>
	<path class="st7" d="M4208.81-181.17c6.92,6.92,18.12,6.92,25.04,0"/>
</g>
<polygon class="st1" points="1472.57,90.46 1490.53,108.1 1490.53,90.46 1508.17,90.46 1490.53,72.51 1508.17,54.54 1490.53,54.54 
	1490.53,36.91 1472.57,54.54 1454.6,36.91 1454.6,54.54 1436.97,54.54 1454.6,72.51 1436.97,90.46 1454.6,90.46 1454.6,108.1 "/>
<path class="st0" d="M4512.57,48.23c-19.42-11.08-39.69,1.39-38.74,22.03c1.05,22.68,19.59,51.75,37.54,44.64
	c2.43-0.97,5.14-0.97,7.57,0c17.95,7.11,36.5-21.97,37.54-44.64c0.95-20.59-19.24-33.06-38.63-22.09L4512.57,48.23z"/>
<path class="st0" d="M4522.26,26.95c-8.08,8.08-9.27,20.42-3.57,29.75"/>
<path class="st0" d="M4727.68,30.96c-15.65,1.49-19.56,16.36-22.4,32.85c-0.54,3.15-2.3,6.02-4.34,9.34
	c-3.7,6.02-8.29,13.51-5.89,25.26c1.08,5.52,4.51,10.3,9.39,13.1c6.38,3.78,15.19,4.62,22.99,2.21c1.59-0.51,3.3-0.44,4.84,0.2
	c3.02,1.27,6.28,1.91,9.56,1.88c3.96,0.01,7.88-0.85,11.47-2.52c6.07-2.82,10.57-8.21,12.26-14.69c3.27-11.72-1.68-19.37-5.65-25.52
	c-2.06-3.18-4-6.18-4.53-9.27c-2.83-16.42-6.72-31.25-22.22-32.84L4727.68,30.96z"/>
<path class="st0" d="M4736.44,14.08c-8.32,8.32-10.13,20.68-5.43,30.75"/>
<g>
	<rect x="3252.11" y="35.87" class="st1" width="99.16" height="71.2"/>
	<rect x="3252.11" y="71.47" class="st8" width="99.16" height="35.6"/>
	<rect x="3252.11" y="35.87" class="st9" width="35.6" height="35.6"/>
</g>
<polygon class="st1" points="4341.7,108.57 4290.66,116.26 4290.66,27.39 4341.7,19.7 "/>
<rect x="4290.66" y="28.35" class="st1" width="63.23" height="88.87"/>
<g>
	<polygon class="st0" points="3689.57,122.12 3689.57,133.28 3678.41,122.12 3658.49,122.12 3658.49,31.83 3754.56,31.83 
		3754.56,122.12 	"/>
</g>
<g>
	<g>
		<circle class="st0" cx="3481.29" cy="59.24" r="20.4"/>
		<line class="st0" x1="3496.34" y1="74.29" x2="3504.07" y2="82.02"/>
	</g>
	
		<rect x="3510.11" y="76.93" transform="matrix(0.7071 -0.7071 0.7071 0.7071 963.3572 2513.4771)" class="st0" width="11.21" height="33.86"/>
</g>
<g>
	<path class="st0" d="M3096.65,64.99c-0.63,4.55-2.69,8.93-6.18,12.43c-8.52,8.52-22.33,8.52-30.85,0s-8.52-22.33,0-30.85
		s22.33-8.52,30.85,0C3095.49,51.59,3097.55,58.46,3096.65,64.99"/>
	<polyline class="st0" points="3097.65,64.83 3130.9,103.06 3117.43,116.53 3079.19,83.29 	"/>
	<line class="st0" x1="3123.64" y1="110.32" x2="3141.93" y2="128.62"/>
	<line class="st0" x1="3059.61" y1="77.42" x2="3089.67" y2="47.36"/>
</g>
<g>
	<rect x="3881.4" y="27.14" class="st0" width="65.29" height="88.66"/>
	<g>
		<polyline class="st0" points="3893.89,50.14 3899.77,54.44 3907.17,42.72 		"/>
		<polyline class="st0" points="3920.91,73.79 3926.79,78.09 3934.19,66.38 		"/>
		<g>
			<line class="st0" x1="3933.97" y1="43.9" x2="3921.14" y2="56.73"/>
			<line class="st0" x1="3921.14" y1="43.9" x2="3933.97" y2="56.73"/>
		</g>
		<g>
			<line class="st0" x1="3906.94" y1="87.4" x2="3894.11" y2="100.22"/>
			<line class="st0" x1="3894.11" y1="87.4" x2="3906.94" y2="100.22"/>
		</g>
		<line class="st0" x1="3894.68" y1="72.23" x2="3906.37" y2="72.23"/>
		<line class="st0" x1="3921.7" y1="93.81" x2="3933.4" y2="93.81"/>
	</g>
</g>
<polygon class="st0" points="2893.46,38.72 2905.03,62.16 2930.89,65.92 2912.18,84.16 2916.6,109.92 2893.46,97.76 2870.33,109.92 
	2874.75,84.16 2856.03,65.92 2881.9,62.16 "/>
<g>
	<rect x="2631.28" y="46.71" class="st0" width="116.13" height="71.69"/>
	<polyline class="st0" points="2631.39,46.71 2690.16,82.55 2747.31,46.71 	"/>
</g>
<g>
	<g>
		<polygon class="st0" points="2474.69,118.25 2409.28,118.25 2409.28,29.43 2452.52,29.43 2463.6,40.52 2474.69,51.6 		"/>
		<polyline class="st0" points="2452.52,29.43 2452.52,51.14 2474.69,51.14 		"/>
	</g>
	<line class="st0" x1="2425.06" y1="71.47" x2="2457.24" y2="71.47"/>
	<line class="st10" x1="2424.78" y1="84.79" x2="2456.96" y2="84.79"/>
	<line class="st10" x1="2424.78" y1="98.1" x2="2456.96" y2="98.1"/>
</g>
<g>
	<g>
		<polygon class="st0" points="2561.19,118.25 2495.78,118.25 2495.78,29.43 2539.02,29.43 2550.1,40.52 2561.19,51.6 		"/>
		<polyline class="st0" points="2539.02,29.43 2539.02,51.14 2561.19,51.14 		"/>
	</g>
	<line class="st0" x1="2511.56" y1="71.47" x2="2543.74" y2="71.47"/>
	<line class="st10" x1="2511.29" y1="84.79" x2="2543.46" y2="84.79"/>
	<line class="st10" x1="2511.29" y1="98.1" x2="2543.46" y2="98.1"/>
</g>
<polyline class="st0" points="2513.38,49.2 2519.27,53.51 2526.69,41.77 "/>
<g>
	<line class="st0" x1="2438.61" y1="41.22" x2="2425.75" y2="54.07"/>
	<line class="st0" x1="2425.75" y1="41.22" x2="2438.61" y2="54.07"/>
</g>
<g>
	<g>
		<g>
			<polygon class="st0" points="2243.23,108.42 2307.64,108.42 2307.64,19.63 2265.06,19.63 2254.15,30.71 2243.23,41.79 			"/>
			<polyline class="st0" points="2265.06,19.63 2265.06,41.33 2243.23,41.33 			"/>
		</g>
	</g>
</g>
<g>
	<g>
		<circle class="st1" cx="2296.22" cy="56.66" r="20.88"/>
		<line class="st1" x1="2311.62" y1="72.06" x2="2319.54" y2="79.98"/>
	</g>
	
		<rect x="2325.72" y="74.77" transform="matrix(0.7071 -0.7071 0.7071 0.7071 617.7411 1675.5686)" class="st1" width="11.48" height="34.67"/>
</g>
<g>
	<path class="st0" d="M2135.4,74.61c0,0-17.49,41.31-58.39,41.31c-40.91,0-58.39-41.31-58.39-41.31v-0.77
		c0,0,12.46-21.34,25.4-27.36s32.99,4.23,32.99,4.23l0,0c0,0,19.92-10.25,32.87-4.23c12.94,6.02,25.4,27.36,25.4,27.36L2135.4,74.61
		z"/>
	<path class="st0" d="M2018.61,73.84c0,0,48.67,12.89,116.79,0.77"/>
</g>
<g>
	<path class="st0" d="M1917.68,78.84c0,0-17.47,35.88-58.34,35.88S1801,78.84,1801,78.84s17.47-35.88,58.34-35.88
		S1917.68,78.84,1917.68,78.84z"/>
	<circle class="st0" cx="1859.34" cy="77.86" r="17.39"/>
</g>
<g>
	<circle class="st5" cx="4934.61" cy="76.42" r="35.69"/>
	<g>
		<circle class="st6" cx="4920.81" cy="69.36" r="1.7"/>
		<circle class="st6" cx="4948.42" cy="69.36" r="1.7"/>
	</g>
	<path class="st7" d="M4922.09,84.4c6.92,6.92,18.12,6.92,25.04,0"/>
</g>
<g>
	<circle class="st1" cx="5146.14" cy="51.46" r="22.82"/>
	<line class="st1" x1="5146.14" y1="74.28" x2="5146.14" y2="117.62"/>
	<line class="st1" x1="5128.04" y1="93.47" x2="5164.23" y2="93.47"/>
</g>
<g>
	<circle class="st1" cx="5323.99" cy="93.17" r="22.82"/>
	<line class="st1" x1="5340.21" y1="76.48" x2="5379.84" y2="36.85"/>
	<polyline class="st0" points="5353.42,36.85 5379.84,36.85 5379.84,63.27 	"/>
</g>
</svg>
