<?xml version="1.0" encoding="utf-8"?>
<!-- Generator: Adobe Illustrator 24.2.0, SVG Export Plug-In . SVG Version: 6.00 Build 0)  -->
<svg version="1.1" id="Capa_1" xmlns="http://www.w3.org/2000/svg" xmlns:xlink="http://www.w3.org/1999/xlink" x="0px" y="0px"
	 viewBox="0 0 73.29 103.34" style="enable-background:new 0 0 73.29 103.34;" xml:space="preserve">
<style type="text/css">
	.st0{fill:none;stroke:#000000;stroke-width:6.5;stroke-miterlimit:10;}
	.st1{fill:#FFFFFF;stroke:#000000;stroke-width:6.5;stroke-miterlimit:10;}
	.st2{fill:#FFFFFF;}
	.st3{stroke:#000000;stroke-width:6.5;stroke-miterlimit:10;}
	.st4{fill:#1D1D1B;}
	.st5{fill:#FFFFFF;stroke:#1D1D1B;stroke-width:6.5;stroke-miterlimit:10;}
	.st6{fill:#1D1D1B;stroke:#1D1D1B;stroke-width:6.5;stroke-miterlimit:10;}
	.st7{fill:none;stroke:#1D1D1B;stroke-width:6.5;stroke-miterlimit:10;}
	.st8{fill:#FC5439;stroke:#000000;stroke-width:6.5;stroke-miterlimit:10;}
	.st9{fill:#3A90FD;stroke:#000000;stroke-width:6.5;stroke-miterlimit:10;}
	.st10{fill:#F1CD08;stroke:#000000;stroke-width:6.5;stroke-miterlimit:10;}
</style>
<g>
	<path class="st0" d="M-1423.48,80.39V6.05c0-4.23,3.43-7.65,7.65-7.65h54.6v77.9"/>
	<path class="st0" d="M-1399.91,87.13h38.68V73.65h-55.51c-3.72,0-6.74,3.02-6.74,6.74v0c0,3.72,3.02,6.74,6.74,6.74h1.52"/>
	<rect x="-1405.81" y="19.17" class="st0" width="26.92" height="15.7"/>
	<polygon class="st0" points="-1402.09,100.28 -1407.35,105.59 -1412.61,100.28 -1412.61,83.33 -1402.09,83.33 	"/>
</g>
<polygon class="st0" points="-1754.18,43.01 -1789.86,7.34 -1789.86,22.85 -1846.98,22.85 -1846.98,64.58 -1789.86,64.58 
	-1789.86,78.69 "/>
<g>
	<polyline class="st0" points="-1581.25,16.4 -1557.61,16.4 -1557.61,87.59 -1634.47,87.59 -1634.47,16.4 -1604.34,16.4 	"/>
	<polygon class="st0" points="-1598.98,28.21 -1607.56,19.62 -1586.37,-1.57 -1574.83,9.98 -1593.06,28.21 	"/>
	<polyline class="st0" points="-1608.94,28.21 -1598.98,28.21 -1593.06,28.21 -1583.15,28.21 	"/>
</g>
<g>
	<polygon class="st0" points="-1969.4,-11.29 -2045.42,40.27 -2053.15,59.68 -2032.26,59.68 -1956.24,8.12 	"/>
	<line class="st0" x1="-2045.42" y1="40.27" x2="-2032.26" y2="59.68"/>
</g>
<g>
	<g>
		<path class="st1" d="M-1183.59,75.97h24.01c19.62,0,35.53-15.91,35.53-35.53v0c0-19.62-15.91-35.53-35.53-35.53l-3.72,0l-78.89,0
			c-4.91,0-8.88,3.98-8.88,8.88v0c0,4.91,3.98,8.88,8.88,8.88h68.05v0"/>
		<path class="st1" d="M-1174.14,22.68h-21.1c-4.91,0-8.88,3.98-8.88,8.88v0c0,4.91,3.98,8.88,8.88,8.88h19.4h1.7
			c4.91,0,8.88-3.98,8.88-8.88v0C-1165.26,26.66-1169.24,22.68-1174.14,22.68z"/>
		<path class="st1" d="M-1173.51,40.45h-21.1c-4.91,0-8.88,3.98-8.88,8.88v0c0,4.91,3.98,8.88,8.88,8.88h19.4h1.7
			c4.91,0,8.88-3.98,8.88-8.88v0C-1164.63,44.42-1168.6,40.45-1173.51,40.45z"/>
		<path class="st1" d="M-1173.51,58.21h-21.1c-4.91,0-8.88,3.98-8.88,8.88v0c0,4.91,3.98,8.88,8.88,8.88h19.4h1.7
			c4.91,0,8.88-3.98,8.88-8.88v0C-1164.63,62.19-1168.6,58.21-1173.51,58.21z"/>
	</g>
	<path class="st1" d="M-1160.06,6.8l-11.69,23.48c-2.15,4.41-0.32,9.73,4.09,11.88l0,0c4.41,2.15,9.73,0.32,11.88-4.09l8.54-17.14"
		/>
</g>
<g>
	<ellipse class="st2" cx="-978.33" cy="46.03" rx="28.07" ry="18.08"/>
	<g>
		<path class="st1" d="M-958.96,41.29V26.66c0-3.72,3.01-6.73,6.73-6.73l0,0c3.72,0,6.73,3.01,6.73,6.73v22.75
			c0,18.59-15.07,33.66-33.66,33.66h0c-18.59,0-33.66-15.07-33.66-33.66V26.3l0,0c7.43,0,13.45,6.02,13.45,13.45v8.75l0,0
			c7.42,0,13.44,6.02,13.44,13.44v0.83"/>
		<path class="st1" d="M-959.03,41.29V8.52c0-3.72-3.01-6.73-6.73-6.73l0,0c-3.72,0-6.73,3.01-6.73,6.73v25.15"/>
		<path class="st1" d="M-972.48,37.47V1.7c0-3.72-3.01-6.73-6.73-6.73h0c-3.72,0-6.73,3.01-6.73,6.73v25.15"/>
		<path class="st1" d="M-985.94,36.68V6.91c0-3.72-3.01-6.73-6.73-6.73h0c-3.72,0-6.73,3.01-6.73,6.73V44.7"/>
	</g>
</g>
<g>
	<line class="st0" x1="-793.05" y1="-173.33" x2="-716.49" y2="-192.31"/>
	<circle class="st1" cx="-793.05" cy="-173.33" r="25.98"/>
	<line class="st0" x1="-639.69" y1="-173.31" x2="-716.24" y2="-192.29"/>
	<circle class="st1" cx="-639.69" cy="-173.33" r="25.98"/>
	<circle class="st1" cx="-716.49" cy="-192.31" r="25.98"/>
</g>
<g>
	<circle class="st0" cx="-570.52" cy="37.47" r="35.6"/>
	<g>
		<circle class="st3" cx="-584.29" cy="30.43" r="1.69"/>
		<circle class="st3" cx="-556.75" cy="30.43" r="1.69"/>
	</g>
	<path class="st0" d="M-583.01,45.43c6.9,6.9,18.07,6.9,24.98,0"/>
</g>
<g>
	<line class="st0" x1="-337.71" y1="4.82" x2="-337.71" y2="76.67"/>
	<line class="st0" x1="-408.03" y1="40.75" x2="-458.94" y2="40.75"/>
	<line class="st0" x1="-298.11" y1="40.75" x2="-349.02" y2="40.75"/>
	<rect x="-427.42" y="21.49" class="st1" width="89.71" height="38.51"/>
	<line class="st0" x1="-299.72" y1="24.99" x2="-299.72" y2="56.51"/>
	<line class="st0" x1="-386.2" y1="22.24" x2="-386.2" y2="37.19"/>
	<line class="st0" x1="-372.57" y1="23.45" x2="-372.57" y2="44.87"/>
</g>
<circle class="st1" cx="2273.6" cy="40.78" r="35.26"/>
<g>
	<rect x="-201.53" y="-5.38" class="st1" width="70.6" height="50.69"/>
	<line class="st1" x1="-201.53" y1="-13.11" x2="-201.53" y2="76.28"/>
	<rect x="-201.53" y="19.96" class="st1" width="70.6" height="25.35"/>
	<rect x="-201.53" y="-5.38" class="st1" width="25.35" height="25.35"/>
</g>
<g transform="translate(0,-952.36218)">
	<path class="st1" d="M7.41,1015.82c0,18.4,13.01,33.32,29.05,33.32s29.05-14.92,29.05-33.32c0-18.4-13.96-38.93-29.05-56.24
		C36.46,959.58,7.41,992.59,7.41,1015.82z"/>
</g>
<g>
	<polyline class="st1" points="184.39,37.88 229.13,-6.85 273.86,37.88 	"/>
	<path class="st1" d="M229.13,30.13"/>
	<polygon class="st1" points="259.42,81.78 198.84,81.78 198.84,23.47 229.13,-6.85 259.42,23.47 	"/>
	<polyline class="st0" points="216.01,81.78 216.01,46.43 242.24,46.43 242.24,81.78 	"/>
</g>
<g>
	<circle class="st1" cx="1669.38" cy="43.01" r="35.29"/>
	<polyline class="st1" points="1655.82,42.63 1664,52.43 1682.93,33.59 	"/>
</g>
<g>
	<g>
		<g>
			<rect x="409.92" y="12.21" class="st0" width="69.54" height="69.54"/>
			<g>
				<line class="st1" x1="424.83" y1="1.42" x2="424.83" y2="23.01"/>
				<line class="st1" x1="464.54" y1="1.42" x2="464.54" y2="23.01"/>
			</g>
		</g>
		<line class="st1" x1="409.92" y1="34.92" x2="479.46" y2="34.92"/>
	</g>
	<g>
		<path class="st4" d="M445.29,47.16v4.07l-6.81,5.54v0.42h0.91c3.4,0,6.46,2.35,6.46,6.81c0,4.98-3.79,8.21-9.26,8.21
			c-5.86,0-9.4-3.47-9.4-8.35v-0.98h4.63v0.84c0,2.39,1.65,4.35,4.77,4.35c2.91,0,4.63-1.72,4.63-4.07s-1.65-3.51-4-3.51h-4.28
			v-4.14l6.07-4.98h-11.12v-4.21H445.29z"/>
		<path class="st4" d="M460.66,47.16v24.56h-4.63V52.07h-0.42l-3.44,6.18h-4.84l6.32-11.09H460.66z"/>
	</g>
</g>
<g>
	<g>
		<circle class="st1" cx="647.02" cy="46.94" r="34.11"/>
		<g>
			<path class="st1" d="M641.54,13.58c-15.63,19.6-15.53,47.58,0.29,67.07"/>
			<path class="st1" d="M653.43,13.58c15.48,19.42,15.53,47.05,0.16,66.52"/>
		</g>
		<line class="st1" x1="612.91" y1="46.94" x2="681.12" y2="46.94"/>
		<line class="st1" x1="647.49" y1="13.03" x2="647.49" y2="80.85"/>
	</g>
</g>
<g>
	<circle class="st1" cx="839.49" cy="24.08" r="22.82"/>
	<line class="st1" x1="839.49" y1="46.9" x2="839.49" y2="90.23"/>
	<line class="st1" x1="821.39" y1="66.09" x2="857.59" y2="66.09"/>
</g>
<g>
	<circle class="st1" cx="1051.96" cy="33.84" r="22.82"/>
	<line class="st1" x1="1068.17" y1="17.15" x2="1107.81" y2="-22.48"/>
	<polyline class="st0" points="1081.39,-22.48 1107.81,-22.48 1107.81,3.94 	"/>
</g>
<path class="st1" d="M1305.74,50.35V38.31l-36.59-13.14l0.48-18.57c0.09-2.9-1.09-5.69-3.23-7.65l0,0
	c-3.79-3.47-9.61-3.48-13.41-0.01l-0.01,0.01c-2.15,1.96-3.34,4.76-3.24,7.66l0.48,18.55l-33.67,12.17v12.04l34.33-6.35l1.48,23.62
	l-12.3,10.06v8.46l20.03-9.74l20.03,9.74v-8.46l-13.09-10.58l1.45-22.86L1305.74,50.35z"/>
<g>
	<g>
		<g>
			<g>
				<g>
					<g>
						<rect x="2649.98" y="21.72" class="st2" width="79.95" height="61.47"/>
						<rect x="2649.98" y="21.72" class="st0" width="79.95" height="61.47"/>
					</g>
				</g>
			</g>
		</g>
		<path class="st1" d="M2709.07,71h-38.24c-4.08,0-7.39-3.31-7.39-7.39V41.3c0-4.08,3.31-7.39,7.39-7.39h38.24
			c4.08,0,7.39,3.31,7.39,7.39v22.31C2716.46,67.69,2713.15,71,2709.07,71z"/>
		<g>
			<line class="st1" x1="2664.37" y1="-4.73" x2="2690.54" y2="21.44"/>
			<line class="st1" x1="2715.54" y1="-4.73" x2="2689.37" y2="21.44"/>
		</g>
	</g>
</g>
<g>
	<polygon class="st1" points="1497.71,85.65 1432.81,85.65 1432.81,-2.48 1475.71,-2.48 1486.71,8.52 1497.71,19.52 	"/>
	<polyline class="st1" points="1475.71,-2.48 1475.71,19.06 1497.71,19.06 	"/>
</g>
<g>
	
		<rect x="2057.54" y="25.94" transform="matrix(-1.836970e-16 1 -1 -1.836970e-16 2111.5901 -2015.8885)" class="st1" width="12.39" height="43.82"/>
	<rect x="2040.61" y="-2.78" class="st1" width="12.39" height="88.26"/>
	<rect x="2079.02" y="41.65" class="st1" width="12.39" height="43.82"/>
</g>
<g>
	<g>
		<polygon class="st1" points="1906.02,83.07 1840.96,83.07 1840.96,-5.28 1883.97,-5.28 1895,5.75 1906.02,16.77 		"/>
		<polyline class="st1" points="1883.97,-5.28 1883.97,16.31 1906.02,16.31 		"/>
	</g>
	<line class="st1" x1="1856.66" y1="36.54" x2="1888.67" y2="36.54"/>
	<line class="st1" x1="1856.38" y1="49.78" x2="1888.39" y2="49.78"/>
	<line class="st1" x1="1856.38" y1="63.03" x2="1888.39" y2="63.03"/>
</g>
<g>
	<g>
		<path class="st4" d="M2283.62,45.86v0.37c0,4.38-3.02,7.11-7.37,7.77v3.94h-4.42v-3.9c-5.08-0.7-8.25-3.98-8.25-9.28v-0.81h4.86
			v0.59c0,2.39,1.07,4.13,3.39,4.79v-7c-4.68-1.14-7.29-3.13-7.29-7.37v-0.22c0-4.02,3.09-6.67,7.29-7.26v-3.87h4.42v4.01
			c4.16,0.81,7,3.65,7,7.92v1.11h-4.86v-0.74c0-1.84-0.77-2.95-2.14-3.54v6.15C2281.01,39.67,2283.62,41.66,2283.62,45.86z
			 M2271.84,37.54v-5.38c-1.47,0.44-2.36,1.44-2.36,2.65C2269.48,36.32,2270.4,37.02,2271.84,37.54z M2278.69,46.23
			c0-1.47-0.85-2.28-2.43-2.84v5.93C2277.88,48.77,2278.69,47.56,2278.69,46.23z"/>
	</g>
</g>
<g>
	<circle class="st5" cx="5114.79" cy="-219.27" r="35.69"/>
	<g>
		<circle class="st6" cx="5100.99" cy="-226.33" r="1.7"/>
		<circle class="st6" cx="5128.59" cy="-226.33" r="1.7"/>
	</g>
	<path class="st7" d="M5102.27-211.29c6.92,6.92,18.12,6.92,25.04,0"/>
</g>
<g>
	<circle class="st5" cx="5178.65" cy="-219.27" r="35.69"/>
	<g>
		<circle class="st6" cx="5164.85" cy="-226.33" r="1.7"/>
		<circle class="st6" cx="5192.45" cy="-226.33" r="1.7"/>
	</g>
	<path class="st7" d="M5166.13-211.29c6.92,6.92,18.12,6.92,25.04,0"/>
</g>
<g>
	<circle class="st5" cx="5242.51" cy="-219.27" r="35.69"/>
	<g>
		<circle class="st6" cx="5228.71" cy="-226.33" r="1.7"/>
		<circle class="st6" cx="5256.31" cy="-226.33" r="1.7"/>
	</g>
	<path class="st7" d="M5229.99-211.29c6.92,6.92,18.12,6.92,25.04,0"/>
</g>
<polygon class="st1" points="2493.75,60.35 2511.71,77.98 2511.71,60.35 2529.35,60.35 2511.71,42.39 2529.35,24.42 2511.71,24.42 
	2511.71,6.79 2493.75,24.42 2475.78,6.79 2475.78,24.42 2458.15,24.42 2475.78,42.39 2458.15,60.35 2475.78,60.35 2475.78,77.98 "/>
<path class="st0" d="M5533.75,18.11c-19.42-11.08-39.69,1.39-38.74,22.03c1.04,22.68,19.59,51.75,37.54,44.64
	c2.43-0.97,5.14-0.97,7.57,0c17.95,7.11,36.49-21.97,37.54-44.64c0.95-20.59-19.24-33.06-38.63-22.09L5533.75,18.11z"/>
<path class="st0" d="M5543.44-3.17c-8.08,8.08-9.27,20.42-3.57,29.75"/>
<path class="st0" d="M5748.85,0.84c-15.65,1.49-19.56,16.36-22.4,32.85c-0.54,3.15-2.3,6.02-4.34,9.34
	c-3.7,6.02-8.29,13.51-5.89,25.26c1.08,5.52,4.5,10.3,9.39,13.1c6.38,3.78,15.19,4.62,22.99,2.21c1.59-0.51,3.3-0.44,4.84,0.2
	c3.02,1.27,6.28,1.91,9.56,1.88c3.96,0.01,7.88-0.85,11.47-2.52c6.07-2.82,10.57-8.21,12.26-14.69c3.27-11.72-1.68-19.37-5.65-25.52
	c-2.06-3.18-4-6.18-4.53-9.27c-2.83-16.42-6.72-31.25-22.22-32.84L5748.85,0.84z"/>
<path class="st0" d="M5757.61-16.04c-8.32,8.32-10.13,20.68-5.43,30.75"/>
<g>
	<rect x="4273.29" y="5.76" class="st1" width="99.16" height="71.2"/>
	<rect x="4273.29" y="41.35" class="st8" width="99.16" height="35.6"/>
	<rect x="4273.29" y="5.76" class="st9" width="35.6" height="35.6"/>
</g>
<polygon class="st1" points="5362.88,78.45 5311.84,86.14 5311.84,-2.73 5362.88,-10.42 "/>
<rect x="5311.84" y="-1.77" class="st1" width="63.23" height="88.87"/>
<g>
	<polygon class="st0" points="4710.75,92 4710.75,103.16 4699.59,92 4679.67,92 4679.67,1.71 4775.74,1.71 4775.74,92 	"/>
</g>
<g>
	<g>
		<circle class="st0" cx="4502.46" cy="29.12" r="20.4"/>
		<line class="st0" x1="4517.51" y1="44.17" x2="4525.25" y2="51.9"/>
	</g>
	
		<rect x="4531.29" y="46.81" transform="matrix(0.7071 -0.7071 0.7071 0.7071 1283.7512 3226.7375)" class="st0" width="11.21" height="33.86"/>
</g>
<g>
	<path class="st0" d="M4117.83,34.87c-0.63,4.55-2.69,8.93-6.18,12.43c-8.52,8.52-22.33,8.52-30.85,0c-8.52-8.52-8.52-22.33,0-30.85
		c8.52-8.52,22.33-8.52,30.85,0C4116.67,21.47,4118.73,28.34,4117.83,34.87"/>
	<polyline class="st0" points="4118.83,34.71 4152.08,72.94 4138.61,86.41 4100.37,53.17 	"/>
	<line class="st0" x1="4144.81" y1="80.2" x2="4163.11" y2="98.5"/>
	<line class="st0" x1="4080.79" y1="47.3" x2="4110.85" y2="17.24"/>
</g>
<g>
	<rect x="4902.57" y="-2.97" class="st0" width="65.29" height="88.66"/>
	<g>
		<polyline class="st0" points="4915.06,20.02 4920.95,24.32 4928.35,12.6 		"/>
		<polyline class="st0" points="4942.09,43.67 4947.97,47.97 4955.37,36.26 		"/>
		<g>
			<line class="st0" x1="4955.14" y1="13.78" x2="4942.32" y2="26.61"/>
			<line class="st0" x1="4942.32" y1="13.78" x2="4955.14" y2="26.61"/>
		</g>
		<g>
			<line class="st0" x1="4928.12" y1="57.28" x2="4915.29" y2="70.1"/>
			<line class="st0" x1="4915.29" y1="57.28" x2="4928.12" y2="70.1"/>
		</g>
		<line class="st0" x1="4915.86" y1="42.11" x2="4927.55" y2="42.11"/>
		<line class="st0" x1="4942.88" y1="63.69" x2="4954.58" y2="63.69"/>
	</g>
</g>
<polygon class="st0" points="3914.64,8.6 3926.21,32.04 3952.07,35.8 3933.36,54.04 3937.78,79.8 3914.64,67.64 3891.51,79.8 
	3895.93,54.04 3877.21,35.8 3903.08,32.04 "/>
<g>
	<rect x="3652.46" y="16.59" class="st0" width="116.13" height="71.69"/>
	<polyline class="st0" points="3652.57,16.59 3711.33,52.43 3768.49,16.59 	"/>
</g>
<g>
	<g>
		<polygon class="st0" points="3495.86,88.13 3430.46,88.13 3430.46,-0.69 3473.7,-0.69 3484.78,10.4 3495.86,21.48 		"/>
		<polyline class="st0" points="3473.7,-0.69 3473.7,21.02 3495.86,21.02 		"/>
	</g>
	<line class="st0" x1="3446.24" y1="41.35" x2="3478.42" y2="41.35"/>
	<line class="st10" x1="3445.96" y1="54.67" x2="3478.14" y2="54.67"/>
	<line class="st10" x1="3445.96" y1="67.98" x2="3478.14" y2="67.98"/>
</g>
<g>
	<g>
		<polygon class="st0" points="3582.37,88.13 3516.96,88.13 3516.96,-0.69 3560.2,-0.69 3571.28,10.4 3582.37,21.48 		"/>
		<polyline class="st0" points="3560.2,-0.69 3560.2,21.02 3582.37,21.02 		"/>
	</g>
	<line class="st0" x1="3532.74" y1="41.35" x2="3564.92" y2="41.35"/>
	<line class="st10" x1="3532.46" y1="54.67" x2="3564.64" y2="54.67"/>
	<line class="st10" x1="3532.46" y1="67.98" x2="3564.64" y2="67.98"/>
</g>
<polyline class="st0" points="3534.56,19.08 3540.45,23.39 3547.87,11.65 "/>
<g>
	<line class="st0" x1="3459.78" y1="11.1" x2="3446.93" y2="23.95"/>
	<line class="st0" x1="3446.93" y1="11.1" x2="3459.78" y2="23.95"/>
</g>
<g>
	<g>
		<g>
			<polygon class="st0" points="3264.41,78.3 3328.82,78.3 3328.82,-10.49 3286.24,-10.49 3275.32,0.59 3264.41,11.67 			"/>
			<polyline class="st0" points="3286.24,-10.49 3286.24,11.21 3264.41,11.21 			"/>
		</g>
	</g>
</g>
<g>
	<g>
		<circle class="st1" cx="3317.39" cy="26.54" r="20.88"/>
		<line class="st1" x1="3332.8" y1="41.94" x2="3340.72" y2="49.86"/>
	</g>
	
		<rect x="3346.9" y="44.65" transform="matrix(0.7071 -0.7071 0.7071 0.7071 938.1351 2388.8291)" class="st1" width="11.48" height="34.67"/>
</g>
<g>
	<path class="st0" d="M3156.57,44.49c0,0-17.48,41.31-58.39,41.31s-58.39-41.31-58.39-41.31v-0.77c0,0,12.46-21.34,25.4-27.36
		s32.99,4.23,32.99,4.23l0,0c0,0,19.92-10.25,32.87-4.23c12.94,6.02,25.4,27.36,25.4,27.36L3156.57,44.49z"/>
	<path class="st0" d="M3039.79,43.72c0,0,48.67,12.89,116.79,0.77"/>
</g>
<g>
	<path class="st0" d="M2938.85,48.72c0,0-17.47,35.88-58.34,35.88c-40.87,0-58.34-35.88-58.34-35.88s17.47-35.88,58.34-35.88
		C2921.39,12.84,2938.85,48.72,2938.85,48.72z"/>
	<circle class="st0" cx="2880.52" cy="47.74" r="17.39"/>
</g>
<g>
	<circle class="st5" cx="5955.79" cy="46.3" r="35.69"/>
	<g>
		<circle class="st6" cx="5941.99" cy="39.24" r="1.7"/>
		<circle class="st6" cx="5969.59" cy="39.24" r="1.7"/>
	</g>
	<path class="st7" d="M5943.27,54.28c6.92,6.92,18.12,6.92,25.04,0"/>
</g>
<g>
	<circle class="st1" cx="6167.31" cy="21.34" r="22.82"/>
	<line class="st1" x1="6167.31" y1="44.16" x2="6167.31" y2="87.5"/>
	<line class="st1" x1="6149.22" y1="63.35" x2="6185.41" y2="63.35"/>
</g>
<g>
	<circle class="st1" cx="6345.17" cy="63.05" r="22.82"/>
	<line class="st1" x1="6361.39" y1="46.36" x2="6401.02" y2="6.73"/>
	<polyline class="st0" points="6374.6,6.73 6401.02,6.73 6401.02,33.15 	"/>
</g>
</svg>
