<?xml version="1.0" encoding="utf-8"?>
<!-- Generator: Adobe Illustrator 24.2.0, SVG Export Plug-In . SVG Version: 6.00 Build 0)  -->
<svg version="1.1" id="Capa_1" xmlns="http://www.w3.org/2000/svg" xmlns:xlink="http://www.w3.org/1999/xlink" x="0px" y="0px"
	 viewBox="0 0 75.21 107.8" style="enable-background:new 0 0 75.21 107.8;" xml:space="preserve">
<style type="text/css">
	.st0{fill:none;stroke:#000000;stroke-width:6.5;stroke-miterlimit:10;}
	.st1{fill:#FFFFFF;stroke:#000000;stroke-width:6.5;stroke-miterlimit:10;}
	.st2{fill:#FFFFFF;}
	.st3{stroke:#000000;stroke-width:6.5;stroke-miterlimit:10;}
	.st4{fill:#1D1D1B;}
	.st5{fill:#FFFFFF;stroke:#1D1D1B;stroke-width:6.5;stroke-miterlimit:10;}
	.st6{fill:#1D1D1B;stroke:#1D1D1B;stroke-width:6.5;stroke-miterlimit:10;}
	.st7{fill:none;stroke:#1D1D1B;stroke-width:6.5;stroke-miterlimit:10;}
	.st8{fill:#FC5439;stroke:#000000;stroke-width:6.5;stroke-miterlimit:10;}
	.st9{fill:#3A90FD;stroke:#000000;stroke-width:6.5;stroke-miterlimit:10;}
	.st10{fill:#F1CD08;stroke:#000000;stroke-width:6.5;stroke-miterlimit:10;}
</style>
<g>
	<path class="st0" d="M-6729.94,96.43V22.09c0-4.23,3.43-7.65,7.65-7.65h54.6v77.9"/>
	<path class="st0" d="M-6706.37,103.17h38.68V89.69h-55.51c-3.72,0-6.74,3.02-6.74,6.74v0c0,3.72,3.02,6.74,6.74,6.74h1.52"/>
	<rect x="-6712.27" y="35.21" class="st0" width="26.92" height="15.7"/>
	<polygon class="st0" points="-6708.56,116.32 -6713.82,121.63 -6719.07,116.32 -6719.07,99.37 -6708.56,99.37 	"/>
</g>
<polygon class="st0" points="-7060.65,59.05 -7096.32,23.38 -7096.32,38.88 -7153.44,38.88 -7153.44,80.62 -7096.32,80.62 
	-7096.32,94.72 "/>
<g>
	<polyline class="st0" points="-6887.71,32.44 -6864.07,32.44 -6864.07,103.63 -6940.94,103.63 -6940.94,32.44 -6910.8,32.44 	"/>
	<polygon class="st0" points="-6905.44,44.25 -6914.03,35.66 -6892.84,14.47 -6881.29,26.02 -6899.52,44.25 	"/>
	<polyline class="st0" points="-6915.4,44.25 -6905.44,44.25 -6899.52,44.25 -6889.61,44.25 	"/>
</g>
<g>
	<polygon class="st0" points="-7275.87,4.75 -7351.89,56.31 -7359.61,75.72 -7338.72,75.72 -7262.71,24.16 	"/>
	<line class="st0" x1="-7351.89" y1="56.31" x2="-7338.72" y2="75.72"/>
</g>
<g>
	<g>
		<path class="st1" d="M-6490.05,92.01h24.01c19.62,0,35.53-15.91,35.53-35.53v0c0-19.62-15.91-35.53-35.53-35.53l-3.72,0h-78.89
			c-4.91,0-8.88,3.98-8.88,8.88v0c0,4.91,3.98,8.88,8.88,8.88h68.05v0"/>
		<path class="st1" d="M-6480.61,38.72h-21.09c-4.91,0-8.88,3.98-8.88,8.88v0c0,4.91,3.98,8.88,8.88,8.88h19.4h1.7
			c4.91,0,8.88-3.98,8.88-8.88v0C-6471.73,42.7-6475.7,38.72-6480.61,38.72z"/>
		<path class="st1" d="M-6479.97,56.48h-21.1c-4.91,0-8.88,3.98-8.88,8.88v0c0,4.91,3.98,8.88,8.88,8.88h19.4h1.7
			c4.9,0,8.88-3.98,8.88-8.88v0C-6471.09,60.46-6475.07,56.48-6479.97,56.48z"/>
		<path class="st1" d="M-6479.97,74.25h-21.1c-4.91,0-8.88,3.98-8.88,8.88v0c0,4.91,3.98,8.88,8.88,8.88h19.4h1.7
			c4.9,0,8.88-3.98,8.88-8.88v0C-6471.09,78.22-6475.07,74.25-6479.97,74.25z"/>
	</g>
	<path class="st1" d="M-6466.52,22.83l-11.69,23.48c-2.15,4.41-0.32,9.73,4.09,11.88v0c4.41,2.15,9.73,0.32,11.88-4.09l8.54-17.14"
		/>
</g>
<g>
	<ellipse class="st2" cx="-6284.79" cy="62.07" rx="28.07" ry="18.08"/>
	<g>
		<path class="st1" d="M-6265.43,57.33V42.7c0-3.72,3.01-6.73,6.73-6.73l0,0c3.72,0,6.73,3.01,6.73,6.73v22.75
			c0,18.59-15.07,33.66-33.66,33.66l0,0c-18.59,0-33.66-15.07-33.66-33.66V42.34l0,0c7.43,0,13.45,6.02,13.45,13.45v8.75l0,0
			c7.42,0,13.44,6.02,13.44,13.44v0.83"/>
		<path class="st1" d="M-6265.49,57.33V24.56c0-3.72-3.01-6.73-6.73-6.73l0,0c-3.72,0-6.73,3.01-6.73,6.73V49.7"/>
		<path class="st1" d="M-6278.95,53.5V17.73c0-3.72-3.01-6.73-6.73-6.73l0,0c-3.72,0-6.73,3.01-6.73,6.73v25.15"/>
		<path class="st1" d="M-6292.4,52.72V22.95c0-3.72-3.01-6.73-6.73-6.73l0,0c-3.72,0-6.73,3.01-6.73,6.73v37.79"/>
	</g>
</g>
<g>
	<line class="st0" x1="-6099.51" y1="-157.29" x2="-6022.96" y2="-176.27"/>
	<circle class="st1" cx="-6099.51" cy="-157.29" r="25.98"/>
	<line class="st0" x1="-5946.15" y1="-157.28" x2="-6022.71" y2="-176.25"/>
	<circle class="st1" cx="-5946.15" cy="-157.29" r="25.98"/>
	<circle class="st1" cx="-6022.96" cy="-176.27" r="25.98"/>
</g>
<g>
	<circle class="st0" cx="-5876.98" cy="53.5" r="35.6"/>
	<g>
		<circle class="st3" cx="-5890.75" cy="46.46" r="1.69"/>
		<circle class="st3" cx="-5863.22" cy="46.46" r="1.69"/>
	</g>
	<path class="st0" d="M-5889.47,61.46c6.9,6.9,18.07,6.9,24.98,0"/>
</g>
<g>
	<line class="st0" x1="-5644.17" y1="20.86" x2="-5644.17" y2="92.71"/>
	<line class="st0" x1="-5714.49" y1="56.79" x2="-5765.41" y2="56.79"/>
	<line class="st0" x1="-5604.57" y1="56.79" x2="-5655.49" y2="56.79"/>
	<rect x="-5733.89" y="37.53" class="st1" width="89.71" height="38.51"/>
	<line class="st0" x1="-5606.19" y1="41.03" x2="-5606.19" y2="72.55"/>
	<line class="st0" x1="-5692.67" y1="38.27" x2="-5692.67" y2="53.23"/>
	<line class="st0" x1="-5679.04" y1="39.49" x2="-5679.04" y2="60.9"/>
</g>
<circle class="st1" cx="-3032.86" cy="58.7" r="35.26"/>
<g>
	<rect x="-5508" y="10.65" class="st1" width="70.6" height="50.69"/>
	<line class="st1" x1="-5508" y1="2.93" x2="-5508" y2="92.32"/>
	<rect x="-5508" y="36" class="st1" width="70.6" height="25.35"/>
	<rect x="-5508" y="10.65" class="st1" width="25.35" height="25.35"/>
</g>
<g transform="translate(0,-952.36218)">
	<path class="st1" d="M-5299.06,1031.86c0,18.4,13.01,33.32,29.05,33.32s29.05-14.92,29.05-33.32c0-18.4-13.96-38.93-29.05-56.24
		C-5270.01,975.61-5299.06,1008.63-5299.06,1031.86z"/>
</g>
<g>
	<polyline class="st1" points="-5122.07,53.92 -5077.34,9.19 -5032.6,53.92 	"/>
	<path class="st1" d="M-5077.34,46.17"/>
	<polygon class="st1" points="-5047.05,97.82 -5107.63,97.82 -5107.63,39.51 -5077.34,9.19 -5047.05,39.51 	"/>
	<polyline class="st0" points="-5090.46,97.82 -5090.46,62.47 -5064.22,62.47 -5064.22,97.82 	"/>
</g>
<g>
	<circle class="st1" cx="-3637.09" cy="59.05" r="35.29"/>
	<polyline class="st1" points="-3650.65,58.67 -3642.46,68.47 -3623.53,49.63 	"/>
</g>
<g>
	<g>
		<g>
			<rect x="-4896.55" y="28.25" class="st0" width="69.54" height="69.54"/>
			<g>
				<line class="st1" x1="-4881.63" y1="17.46" x2="-4881.63" y2="39.04"/>
				<line class="st1" x1="-4841.92" y1="17.46" x2="-4841.92" y2="39.04"/>
			</g>
		</g>
		<line class="st1" x1="-4896.55" y1="50.95" x2="-4827.01" y2="50.95"/>
	</g>
	<g>
		<path class="st4" d="M-4861.18,63.2v4.07l-6.81,5.54v0.42h0.91c3.4,0,6.46,2.35,6.46,6.81c0,4.98-3.79,8.21-9.26,8.21
			c-5.86,0-9.4-3.47-9.4-8.35v-0.98h4.63v0.84c0,2.39,1.65,4.35,4.77,4.35c2.91,0,4.63-1.72,4.63-4.07s-1.65-3.51-4-3.51h-4.28
			v-4.14l6.07-4.98h-11.12V63.2H-4861.18z"/>
		<path class="st4" d="M-4845.81,63.2v24.56h-4.63V68.11h-0.42l-3.44,6.18h-4.84l6.32-11.09H-4845.81z"/>
	</g>
</g>
<g>
	<g>
		<circle class="st1" cx="-4659.45" cy="62.97" r="34.11"/>
		<g>
			<path class="st1" d="M-4664.92,29.62c-15.63,19.6-15.53,47.58,0.29,67.07"/>
			<path class="st1" d="M-4653.03,29.62c15.48,19.42,15.53,47.05,0.16,66.52"/>
		</g>
		<line class="st1" x1="-4693.55" y1="62.97" x2="-4625.34" y2="62.97"/>
		<line class="st1" x1="-4658.98" y1="29.07" x2="-4658.98" y2="96.88"/>
	</g>
</g>
<g>
	<circle class="st1" cx="-4466.98" cy="39.33" r="22.82"/>
	<line class="st1" x1="-4466.98" y1="62.15" x2="-4466.98" y2="105.48"/>
	<line class="st1" x1="-4485.07" y1="81.33" x2="-4448.88" y2="81.33"/>
</g>
<g>
	<circle class="st1" cx="-4254.5" cy="49.88" r="22.82"/>
	<line class="st1" x1="-4238.29" y1="33.19" x2="-4198.65" y2="-6.44"/>
	<polyline class="st0" points="-4225.08,-6.44 -4198.65,-6.44 -4198.65,19.98 	"/>
</g>
<path class="st1" d="M-4000.73,66.39V54.35l-36.59-13.14l0.48-18.57c0.09-2.9-1.09-5.69-3.23-7.65v0
	c-3.79-3.47-9.61-3.48-13.41-0.01l-0.01,0.01c-2.15,1.96-3.34,4.76-3.24,7.66l0.48,18.55l-33.67,12.17v12.04l34.33-6.35l1.48,23.62
	l-12.3,10.06v8.46l20.03-9.74l20.03,9.74v-8.46l-13.09-10.58l1.45-22.86L-4000.73,66.39z"/>
<g>
	<g>
		<g>
			<g>
				<g>
					<g>
						<rect x="-2656.49" y="39.56" class="st2" width="79.95" height="61.47"/>
						<rect x="-2656.49" y="39.56" class="st0" width="79.95" height="61.47"/>
					</g>
				</g>
			</g>
		</g>
		<path class="st1" d="M-2597.39,88.83h-38.24c-4.08,0-7.39-3.31-7.39-7.39V59.14c0-4.08,3.31-7.39,7.39-7.39h38.24
			c4.08,0,7.39,3.31,7.39,7.39v22.31C-2590,85.52-2593.31,88.83-2597.39,88.83z"/>
		<g>
			<line class="st1" x1="-2642.1" y1="13.11" x2="-2615.93" y2="39.28"/>
			<line class="st1" x1="-2590.93" y1="13.11" x2="-2617.1" y2="39.28"/>
		</g>
	</g>
</g>
<g>
	<polygon class="st1" points="-3808.76,101.68 -3873.65,101.68 -3873.65,13.56 -3830.75,13.56 -3819.75,24.56 -3808.76,35.56 	"/>
	<polyline class="st1" points="-3830.75,13.56 -3830.75,35.1 -3808.76,35.1 	"/>
</g>
<g>
	
		<rect x="-3248.92" y="41.98" transform="matrix(-1.836970e-16 1 -1 -1.836970e-16 -3178.8362 3306.614)" class="st1" width="12.39" height="43.82"/>
	<rect x="-3265.86" y="13.26" class="st1" width="12.39" height="88.26"/>
	<rect x="-3227.44" y="57.69" class="st1" width="12.39" height="43.82"/>
</g>
<g>
	<g>
		<polygon class="st1" points="-3400.44,100.83 -3465.5,100.83 -3465.5,12.48 -3422.49,12.48 -3411.47,23.51 -3400.44,34.53 		"/>
		<polyline class="st1" points="-3422.49,12.48 -3422.49,34.08 -3400.44,34.08 		"/>
	</g>
	<line class="st1" x1="-3449.8" y1="54.3" x2="-3417.8" y2="54.3"/>
	<line class="st1" x1="-3450.08" y1="67.54" x2="-3418.07" y2="67.54"/>
	<line class="st1" x1="-3450.08" y1="80.79" x2="-3418.07" y2="80.79"/>
</g>
<g>
	<g>
		<path class="st4" d="M-3022.84,63.78v0.37c0,4.38-3.02,7.11-7.37,7.77v3.94h-4.42v-3.9c-5.08-0.7-8.25-3.98-8.25-9.28v-0.81h4.86
			v0.59c0,2.39,1.07,4.13,3.39,4.79v-7c-4.68-1.14-7.29-3.13-7.29-7.37v-0.22c0-4.02,3.09-6.67,7.29-7.26v-3.87h4.42v4.01
			c4.16,0.81,7,3.65,7,7.92v1.11h-4.86v-0.74c0-1.84-0.77-2.95-2.14-3.54v6.15C-3025.46,57.6-3022.84,59.59-3022.84,63.78z
			 M-3034.63,55.46v-5.38c-1.47,0.44-2.36,1.44-2.36,2.65C-3036.99,54.24-3036.07,54.94-3034.63,55.46z M-3027.78,64.15
			c0-1.47-0.85-2.28-2.43-2.84v5.93C-3028.59,66.69-3027.78,65.48-3027.78,64.15z"/>
	</g>
</g>
<g>
	<circle class="st5" cx="-191.68" cy="-203.23" r="35.69"/>
	<g>
		<circle class="st6" cx="-205.48" cy="-210.29" r="1.7"/>
		<circle class="st6" cx="-177.87" cy="-210.29" r="1.7"/>
	</g>
	<path class="st7" d="M-204.2-195.26c6.92,6.92,18.12,6.92,25.04,0"/>
</g>
<g>
	<circle class="st5" cx="-127.82" cy="-203.23" r="35.69"/>
	<g>
		<circle class="st6" cx="-141.62" cy="-210.29" r="1.7"/>
		<circle class="st6" cx="-114.02" cy="-210.29" r="1.7"/>
	</g>
	<path class="st7" d="M-140.34-195.26c6.92,6.92,18.12,6.92,25.04,0"/>
</g>
<g>
	<circle class="st5" cx="-63.96" cy="-203.23" r="35.69"/>
	<g>
		<circle class="st6" cx="-77.76" cy="-210.29" r="1.7"/>
		<circle class="st6" cx="-50.16" cy="-210.29" r="1.7"/>
	</g>
	<path class="st7" d="M-76.48-195.26c6.92,6.92,18.12,6.92,25.04,0"/>
</g>
<polygon class="st1" points="-2812.72,76.38 -2794.75,94.02 -2794.75,76.38 -2777.12,76.38 -2794.75,58.42 -2777.12,40.46 
	-2794.75,40.46 -2794.75,22.82 -2812.72,40.46 -2830.68,22.82 -2830.68,40.46 -2848.32,40.46 -2830.68,58.42 -2848.32,76.38 
	-2830.68,76.38 -2830.68,94.02 "/>
<path class="st0" d="M227.29,34.15c-19.42-11.08-39.69,1.39-38.74,22.03c1.04,22.68,19.59,51.75,37.54,44.64
	c2.43-0.97,5.14-0.97,7.57,0c17.95,7.11,36.49-21.97,37.54-44.64c0.95-20.59-19.24-33.06-38.63-22.09L227.29,34.15z"/>
<path class="st0" d="M236.97,12.87c-8.08,8.08-9.27,20.42-3.57,29.75"/>
<path class="st0" d="M442.39,16.88c-15.65,1.49-19.56,16.36-22.4,32.85c-0.54,3.15-2.3,6.02-4.34,9.34
	c-3.7,6.02-8.29,13.51-5.89,25.26c1.08,5.52,4.51,10.3,9.39,13.1c6.38,3.78,15.19,4.62,22.99,2.21c1.59-0.51,3.3-0.44,4.84,0.2
	c3.02,1.27,6.28,1.91,9.56,1.88c3.96,0.01,7.88-0.85,11.47-2.52c6.07-2.82,10.57-8.21,12.26-14.69c3.27-11.72-1.68-19.37-5.65-25.52
	c-2.06-3.18-4-6.18-4.53-9.27c-2.83-16.42-6.72-31.25-22.22-32.84L442.39,16.88z"/>
<path class="st0" d="M451.15,0c-8.32,8.32-10.13,20.68-5.43,30.75"/>
<g>
	<rect x="-1033.17" y="21.79" class="st1" width="99.16" height="71.2"/>
	<rect x="-1033.17" y="57.39" class="st8" width="99.16" height="35.6"/>
	<rect x="-1033.17" y="21.79" class="st9" width="35.6" height="35.6"/>
</g>
<polygon class="st1" points="56.41,94.49 5.37,102.18 5.37,13.31 56.41,5.62 "/>
<rect x="5.37" y="14.27" class="st1" width="63.23" height="88.87"/>
<g>
	<polygon class="st0" points="-595.72,108.04 -595.72,119.19 -606.87,108.04 -626.79,108.04 -626.79,17.75 -530.72,17.75 
		-530.72,108.04 	"/>
</g>
<g>
	<g>
		<circle class="st0" cx="-804" cy="45.16" r="20.4"/>
		<line class="st0" x1="-788.95" y1="60.21" x2="-781.22" y2="67.94"/>
	</g>
	
		<rect x="-775.18" y="62.85" transform="matrix(0.7071 -0.7071 0.7071 0.7071 -281.817 -520.8018)" class="st0" width="11.21" height="33.86"/>
</g>
<g>
	<path class="st0" d="M-1188.64,50.91c-0.63,4.55-2.69,8.93-6.18,12.43c-8.52,8.52-22.33,8.52-30.85,0
		c-8.52-8.52-8.52-22.33,0-30.85c8.52-8.52,22.33-8.52,30.85,0C-1189.8,37.51-1187.74,44.37-1188.64,50.91"/>
	<polyline class="st0" points="-1187.63,50.75 -1154.39,88.98 -1167.86,102.45 -1206.09,69.2 	"/>
	<line class="st0" x1="-1161.65" y1="96.24" x2="-1143.35" y2="114.54"/>
	<line class="st0" x1="-1225.67" y1="63.34" x2="-1195.61" y2="33.28"/>
</g>
<g>
	<rect x="-403.89" y="13.06" class="st0" width="65.29" height="88.66"/>
	<g>
		<polyline class="st0" points="-391.4,36.06 -385.52,40.36 -378.12,28.64 		"/>
		<polyline class="st0" points="-364.37,59.71 -358.49,64.01 -351.09,52.29 		"/>
		<g>
			<line class="st0" x1="-351.32" y1="29.82" x2="-364.15" y2="42.65"/>
			<line class="st0" x1="-364.15" y1="29.82" x2="-351.32" y2="42.65"/>
		</g>
		<g>
			<line class="st0" x1="-378.35" y1="73.31" x2="-391.17" y2="86.14"/>
			<line class="st0" x1="-391.17" y1="73.31" x2="-378.35" y2="86.14"/>
		</g>
		<line class="st0" x1="-390.61" y1="58.15" x2="-378.91" y2="58.15"/>
		<line class="st0" x1="-363.58" y1="79.73" x2="-351.89" y2="79.73"/>
	</g>
</g>
<polygon class="st0" points="-1391.82,24.64 -1380.26,48.08 -1354.39,51.84 -1373.11,70.08 -1368.69,95.84 -1391.82,83.68 
	-1414.96,95.84 -1410.54,70.08 -1429.25,51.84 -1403.39,48.08 "/>
<g>
	<rect x="-1654" y="32.63" class="st0" width="116.13" height="71.69"/>
	<polyline class="st0" points="-1653.9,32.63 -1595.13,68.47 -1537.98,32.63 	"/>
</g>
<g>
	<g>
		<polygon class="st0" points="-1810.6,104.17 -1876.01,104.17 -1876.01,15.35 -1832.77,15.35 -1821.68,26.44 -1810.6,37.52 		"/>
		<polyline class="st0" points="-1832.77,15.35 -1832.77,37.06 -1810.6,37.06 		"/>
	</g>
	<line class="st0" x1="-1860.22" y1="57.39" x2="-1828.05" y2="57.39"/>
	<line class="st10" x1="-1860.5" y1="70.71" x2="-1828.32" y2="70.71"/>
	<line class="st10" x1="-1860.5" y1="84.02" x2="-1828.32" y2="84.02"/>
</g>
<g>
	<g>
		<polygon class="st0" points="-1724.1,104.17 -1789.5,104.17 -1789.5,15.35 -1746.27,15.35 -1735.18,26.44 -1724.1,37.52 		"/>
		<polyline class="st0" points="-1746.27,15.35 -1746.27,37.06 -1724.1,37.06 		"/>
	</g>
	<line class="st0" x1="-1773.72" y1="57.39" x2="-1741.55" y2="57.39"/>
	<line class="st10" x1="-1774" y1="70.71" x2="-1741.82" y2="70.71"/>
	<line class="st10" x1="-1774" y1="84.02" x2="-1741.82" y2="84.02"/>
</g>
<polyline class="st0" points="-1771.91,35.12 -1766.01,39.43 -1758.6,27.69 "/>
<g>
	<line class="st0" x1="-1846.68" y1="27.14" x2="-1859.53" y2="39.99"/>
	<line class="st0" x1="-1859.53" y1="27.14" x2="-1846.68" y2="39.99"/>
</g>
<g>
	<g>
		<g>
			<polygon class="st0" points="-2042.06,94.34 -1977.64,94.34 -1977.64,5.55 -2020.22,5.55 -2031.14,16.63 -2042.06,27.71 			"/>
			<polyline class="st0" points="-2020.22,5.55 -2020.22,27.25 -2042.06,27.25 			"/>
		</g>
	</g>
</g>
<g>
	<g>
		<circle class="st1" cx="-1989.07" cy="42.58" r="20.88"/>
		<line class="st1" x1="-1973.66" y1="57.98" x2="-1965.74" y2="65.9"/>
	</g>
	
		<rect x="-1959.56" y="60.69" transform="matrix(0.7071 -0.7071 0.7071 0.7071 -627.4331 -1358.7103)" class="st1" width="11.48" height="34.67"/>
</g>
<g>
	<path class="st0" d="M-2149.89,60.53c0,0-17.48,41.31-58.39,41.31s-58.39-41.31-58.39-41.31v-0.77c0,0,12.46-21.34,25.4-27.36
		c12.94-6.02,32.99,4.23,32.99,4.23l0,0c0,0,19.92-10.25,32.87-4.23c12.94,6.02,25.4,27.36,25.4,27.36L-2149.89,60.53z"/>
	<path class="st0" d="M-2266.68,59.76c0,0,48.67,12.89,116.79,0.77"/>
</g>
<g>
	<path class="st0" d="M-2367.61,60.07c0,0-17.47,35.88-58.34,35.88c-40.87,0-58.34-35.88-58.34-35.88s17.47-35.88,58.34-35.88
		C-2385.08,24.19-2367.61,60.07-2367.61,60.07z"/>
	<circle class="st0" cx="-2425.95" cy="59.09" r="17.39"/>
</g>
<g>
	<circle class="st5" cx="649.33" cy="62.34" r="35.69"/>
	<g>
		<circle class="st6" cx="635.53" cy="55.28" r="1.7"/>
		<circle class="st6" cx="663.13" cy="55.28" r="1.7"/>
	</g>
	<path class="st7" d="M636.81,70.32c6.92,6.92,18.12,6.92,25.04,0"/>
</g>
<g>
	<circle class="st1" cx="860.85" cy="37.38" r="22.82"/>
	<line class="st1" x1="860.85" y1="60.2" x2="860.85" y2="103.54"/>
	<line class="st1" x1="842.75" y1="79.39" x2="878.95" y2="79.39"/>
</g>
<g>
	<circle class="st1" cx="1038.71" cy="79.09" r="22.82"/>
	<line class="st1" x1="1054.92" y1="62.4" x2="1094.56" y2="22.77"/>
	<polyline class="st0" points="1068.13,22.77 1094.56,22.77 1094.56,49.19 	"/>
</g>
</svg>
