<?xml version="1.0" encoding="utf-8"?>
<!-- Generator: Adobe Illustrator 24.2.0, SVG Export Plug-In . SVG Version: 6.00 Build 0)  -->
<svg version="1.1" id="Capa_1" xmlns="http://www.w3.org/2000/svg" xmlns:xlink="http://www.w3.org/1999/xlink" x="0px" y="0px"
	 viewBox="0 0 76.18 123.43" style="enable-background:new 0 0 76.18 123.43;" xml:space="preserve">
<style type="text/css">
	.st0{fill:none;stroke:#000000;stroke-width:6.5;stroke-miterlimit:10;}
	.st1{fill:#FFFFFF;stroke:#000000;stroke-width:6.5;stroke-miterlimit:10;}
	.st2{fill:#FFFFFF;}
	.st3{stroke:#000000;stroke-width:6.5;stroke-miterlimit:10;}
	.st4{fill:#1D1D1B;}
	.st5{fill:#FFFFFF;stroke:#1D1D1B;stroke-width:6.5;stroke-miterlimit:10;}
	.st6{fill:#1D1D1B;stroke:#1D1D1B;stroke-width:6.5;stroke-miterlimit:10;}
	.st7{fill:none;stroke:#1D1D1B;stroke-width:6.5;stroke-miterlimit:10;}
	.st8{fill:#FC5439;stroke:#000000;stroke-width:6.5;stroke-miterlimit:10;}
	.st9{fill:#3A90FD;stroke:#000000;stroke-width:6.5;stroke-miterlimit:10;}
	.st10{fill:#F1CD08;stroke:#000000;stroke-width:6.5;stroke-miterlimit:10;}
</style>
<g>
	<path class="st0" d="M7.52,91.8V17.47c0-4.23,3.43-7.65,7.65-7.65h54.6v77.9"/>
	<path class="st0" d="M31.09,98.55h38.68V85.06H14.27c-3.72,0-6.74,3.02-6.74,6.74v0c0,3.72,3.02,6.74,6.74,6.74h1.52"/>
	<rect x="25.19" y="30.58" class="st0" width="26.92" height="15.7"/>
	<polygon class="st0" points="28.91,111.7 23.65,117 18.39,111.7 18.39,94.74 28.91,94.74 	"/>
</g>
<polygon class="st0" points="-323.18,54.43 -358.86,18.75 -358.86,34.26 -415.98,34.26 -415.98,75.99 -358.86,75.99 -358.86,90.1 
	"/>
<g>
	<polyline class="st0" points="-150.25,27.81 -126.61,27.81 -126.61,99.01 -203.47,99.01 -203.47,27.81 -173.34,27.81 	"/>
	<polygon class="st0" points="-167.98,39.62 -176.56,31.04 -155.37,9.85 -143.83,21.39 -162.06,39.62 	"/>
	<polyline class="st0" points="-177.94,39.62 -167.98,39.62 -162.06,39.62 -152.15,39.62 	"/>
</g>
<g>
	<polygon class="st0" points="-538.4,0.13 -614.42,51.69 -622.15,71.09 -601.26,71.09 -525.24,19.53 	"/>
	<line class="st0" x1="-614.42" y1="51.69" x2="-601.26" y2="71.09"/>
</g>
<g>
	<g>
		<path class="st1" d="M247.41,86.34h24.01c19.62,0,35.53-15.91,35.53-35.53v0c0-19.62-15.91-35.53-35.53-35.53l-3.72,0l-78.89,0
			c-4.91,0-8.88,3.98-8.88,8.88v0c0,4.91,3.98,8.88,8.88,8.88h68.05v0"/>
		<path class="st1" d="M256.86,33.05h-21.1c-4.91,0-8.88,3.98-8.88,8.88v0c0,4.91,3.98,8.88,8.88,8.88h19.4h1.7
			c4.91,0,8.88-3.98,8.88-8.88v0C265.74,37.02,261.76,33.05,256.86,33.05z"/>
		<path class="st1" d="M257.49,50.81h-21.1c-4.91,0-8.88,3.98-8.88,8.88v0c0,4.91,3.98,8.88,8.88,8.88h19.4h1.7
			c4.91,0,8.88-3.98,8.88-8.88v0C266.37,54.79,262.4,50.81,257.49,50.81z"/>
		<path class="st1" d="M257.49,68.57h-21.1c-4.91,0-8.88,3.98-8.88,8.88v0c0,4.91,3.98,8.88,8.88,8.88h19.4h1.7
			c4.91,0,8.88-3.98,8.88-8.88v0C266.37,72.55,262.4,68.57,257.49,68.57z"/>
	</g>
	<path class="st1" d="M270.94,17.16l-11.69,23.48c-2.15,4.41-0.32,9.73,4.09,11.88v0c4.41,2.15,9.73,0.32,11.88-4.09l8.54-17.14"/>
</g>
<g>
	<ellipse class="st2" cx="452.67" cy="57.44" rx="28.07" ry="18.08"/>
	<g>
		<path class="st1" d="M472.04,52.7V38.07c0-3.72,3.01-6.73,6.73-6.73l0,0c3.72,0,6.73,3.01,6.73,6.73v22.75
			c0,18.59-15.07,33.66-33.66,33.66h0c-18.59,0-33.66-15.07-33.66-33.66V37.71h0c7.43,0,13.45,6.02,13.45,13.45v8.75h0
			c7.42,0,13.44,6.02,13.44,13.44v0.83"/>
		<path class="st1" d="M471.97,52.7V19.93c0-3.72-3.01-6.73-6.73-6.73l0,0c-3.72,0-6.73,3.01-6.73,6.73v25.15"/>
		<path class="st1" d="M458.52,48.88V13.11c0-3.72-3.01-6.73-6.73-6.73l0,0c-3.72,0-6.73,3.01-6.73,6.73v25.15"/>
		<path class="st1" d="M445.06,48.09V18.32c0-3.72-3.01-6.73-6.73-6.73l0,0c-3.72,0-6.73,3.01-6.73,6.73v37.79"/>
	</g>
</g>
<g>
	<line class="st0" x1="637.95" y1="-161.92" x2="714.51" y2="-180.89"/>
	<circle class="st1" cx="637.95" cy="-161.92" r="25.98"/>
	<line class="st0" x1="791.31" y1="-161.9" x2="714.76" y2="-180.88"/>
	<circle class="st1" cx="791.31" cy="-161.92" r="25.98"/>
	<circle class="st1" cx="714.51" cy="-180.89" r="25.98"/>
</g>
<g>
	<circle class="st0" cx="860.48" cy="48.88" r="35.6"/>
	<g>
		<circle class="st3" cx="846.71" cy="41.84" r="1.69"/>
		<circle class="st3" cx="874.25" cy="41.84" r="1.69"/>
	</g>
	<path class="st0" d="M847.99,56.84c6.9,6.9,18.07,6.9,24.98,0"/>
</g>
<g>
	<line class="st0" x1="1100.04" y1="12.95" x2="1100.04" y2="84.81"/>
	<line class="st0" x1="1029.72" y1="48.88" x2="978.81" y2="48.88"/>
	<line class="st0" x1="1139.64" y1="48.88" x2="1088.73" y2="48.88"/>
	<rect x="1010.33" y="29.62" class="st1" width="89.71" height="38.51"/>
	<line class="st0" x1="1138.03" y1="33.12" x2="1138.03" y2="64.64"/>
	<line class="st0" x1="1051.55" y1="30.37" x2="1051.55" y2="45.32"/>
	<line class="st0" x1="1065.18" y1="31.58" x2="1065.18" y2="53"/>
</g>
<circle class="st1" cx="3704.6" cy="52.19" r="35.26"/>
<g>
	<rect x="1229.47" y="6.03" class="st1" width="70.6" height="50.69"/>
	<line class="st1" x1="1229.47" y1="-1.7" x2="1229.47" y2="87.69"/>
	<rect x="1229.47" y="31.38" class="st1" width="70.6" height="25.35"/>
	<rect x="1229.47" y="6.03" class="st1" width="25.35" height="25.35"/>
</g>
<g transform="translate(0,-952.36218)">
	<path class="st1" d="M1438.41,1027.23c0,18.4,13.01,33.32,29.05,33.32c16.03,0,29.05-14.92,29.05-33.32
		c0-18.4-13.96-38.93-29.05-56.24C1467.46,970.99,1438.41,1004.01,1438.41,1027.23z"/>
</g>
<g>
	<polyline class="st1" points="1615.39,49.3 1660.13,4.56 1704.86,49.3 	"/>
	<path class="st1" d="M1660.13,41.55"/>
	<polygon class="st1" points="1690.42,93.2 1629.84,93.2 1629.84,34.89 1660.13,4.56 1690.42,34.89 	"/>
	<polyline class="st0" points="1647.01,93.2 1647.01,57.85 1673.24,57.85 1673.24,93.2 	"/>
</g>
<g>
	<circle class="st1" cx="3100.38" cy="54.43" r="35.29"/>
	<polyline class="st1" points="3086.82,54.04 3095,63.85 3113.93,45 	"/>
</g>
<g>
	<g>
		<g>
			<rect x="1840.92" y="23.63" class="st0" width="69.54" height="69.54"/>
			<g>
				<line class="st1" x1="1855.83" y1="12.83" x2="1855.83" y2="34.42"/>
				<line class="st1" x1="1895.54" y1="12.83" x2="1895.54" y2="34.42"/>
			</g>
		</g>
		<line class="st1" x1="1840.92" y1="46.33" x2="1910.46" y2="46.33"/>
	</g>
	<g>
		<path class="st4" d="M1876.29,58.58v4.07l-6.81,5.54v0.42h0.91c3.4,0,6.46,2.35,6.46,6.81c0,4.98-3.79,8.21-9.26,8.21
			c-5.86,0-9.4-3.47-9.4-8.35V74.3h4.63v0.84c0,2.39,1.65,4.35,4.77,4.35c2.91,0,4.63-1.72,4.63-4.07c0-2.35-1.65-3.51-4-3.51h-4.28
			v-4.14l6.07-4.98h-11.12v-4.21H1876.29z"/>
		<path class="st4" d="M1891.66,58.58v24.56h-4.63V63.49h-0.42l-3.44,6.18h-4.84l6.32-11.09H1891.66z"/>
	</g>
</g>
<g>
	<g>
		<circle class="st1" cx="2078.02" cy="58.35" r="34.11"/>
		<g>
			<path class="st1" d="M2072.54,24.99c-15.63,19.6-15.53,47.58,0.29,67.07"/>
			<path class="st1" d="M2084.43,24.99c15.48,19.42,15.53,47.05,0.16,66.52"/>
		</g>
		<line class="st1" x1="2043.91" y1="58.35" x2="2112.12" y2="58.35"/>
		<line class="st1" x1="2078.49" y1="24.44" x2="2078.49" y2="92.26"/>
	</g>
</g>
<g>
	<circle class="st1" cx="2270.49" cy="35.49" r="22.82"/>
	<line class="st1" x1="2270.49" y1="58.31" x2="2270.49" y2="101.65"/>
	<line class="st1" x1="2252.39" y1="77.5" x2="2288.59" y2="77.5"/>
</g>
<g>
	<circle class="st1" cx="2482.96" cy="45.26" r="22.82"/>
	<line class="st1" x1="2499.17" y1="28.57" x2="2538.81" y2="-11.07"/>
	<polyline class="st0" points="2512.39,-11.07 2538.81,-11.07 2538.81,15.35 	"/>
</g>
<path class="st1" d="M2736.74,61.77V49.73l-36.59-13.14l0.48-18.57c0.09-2.9-1.09-5.69-3.23-7.65v0c-3.79-3.47-9.61-3.48-13.41-0.01
	l-0.01,0.01c-2.15,1.96-3.34,4.76-3.24,7.66l0.48,18.55l-33.67,12.17v12.04l34.33-6.35l1.48,23.62l-12.3,10.06v8.46l20.03-9.74
	l20.03,9.74v-8.46l-13.09-10.58l1.44-22.86L2736.74,61.77z"/>
<g>
	<g>
		<g>
			<g>
				<g>
					<g>
						<rect x="4080.98" y="33.13" class="st2" width="79.95" height="61.47"/>
						<rect x="4080.98" y="33.13" class="st0" width="79.95" height="61.47"/>
					</g>
				</g>
			</g>
		</g>
		<path class="st1" d="M4140.07,82.41h-38.24c-4.08,0-7.39-3.31-7.39-7.39V52.71c0-4.08,3.31-7.39,7.39-7.39h38.24
			c4.08,0,7.39,3.31,7.39,7.39v22.31C4147.46,79.1,4144.15,82.41,4140.07,82.41z"/>
		<g>
			<line class="st1" x1="4095.37" y1="6.68" x2="4121.54" y2="32.85"/>
			<line class="st1" x1="4146.54" y1="6.68" x2="4120.37" y2="32.85"/>
		</g>
	</g>
</g>
<g>
	<polygon class="st1" points="2928.71,97.06 2863.81,97.06 2863.81,8.94 2906.71,8.94 2917.71,19.93 2928.71,30.93 	"/>
	<polyline class="st1" points="2906.71,8.94 2906.71,30.47 2928.71,30.47 	"/>
</g>
<g>
	
		<rect x="3488.54" y="37.35" transform="matrix(-1.836970e-16 1 -1 -1.836970e-16 3554.0034 -3435.4751)" class="st1" width="12.39" height="43.82"/>
	<rect x="3471.61" y="8.64" class="st1" width="12.39" height="88.26"/>
	<rect x="3510.02" y="53.07" class="st1" width="12.39" height="43.82"/>
</g>
<g>
	<g>
		<polygon class="st1" points="3337.02,94.48 3271.96,94.48 3271.96,6.13 3314.97,6.13 3326,17.16 3337.02,28.18 		"/>
		<polyline class="st1" points="3314.97,6.13 3314.97,27.73 3337.02,27.73 		"/>
	</g>
	<line class="st1" x1="3287.66" y1="47.95" x2="3319.67" y2="47.95"/>
	<line class="st1" x1="3287.38" y1="61.2" x2="3319.39" y2="61.2"/>
	<line class="st1" x1="3287.38" y1="74.44" x2="3319.39" y2="74.44"/>
</g>
<g>
	<g>
		<path class="st4" d="M3714.62,57.28v0.37c0,4.38-3.02,7.11-7.37,7.77v3.94h-4.42v-3.9c-5.08-0.7-8.25-3.98-8.25-9.28v-0.81h4.86
			v0.59c0,2.39,1.07,4.13,3.39,4.79v-7c-4.68-1.14-7.29-3.13-7.29-7.37v-0.22c0-4.02,3.09-6.67,7.29-7.26v-3.87h4.42v4.01
			c4.16,0.81,7,3.65,7,7.92v1.11h-4.86v-0.74c0-1.84-0.77-2.95-2.14-3.54v6.15C3712.01,51.09,3714.62,53.08,3714.62,57.28z
			 M3702.84,48.95v-5.38c-1.47,0.44-2.36,1.44-2.36,2.65C3700.48,47.74,3701.4,48.43,3702.84,48.95z M3709.69,57.64
			c0-1.47-0.85-2.28-2.43-2.84v5.93C3708.88,60.19,3709.69,58.97,3709.69,57.64z"/>
	</g>
</g>
<g>
	<circle class="st5" cx="6545.79" cy="-207.86" r="35.69"/>
	<g>
		<circle class="st6" cx="6531.99" cy="-214.92" r="1.7"/>
		<circle class="st6" cx="6559.59" cy="-214.92" r="1.7"/>
	</g>
	<path class="st7" d="M6533.27-199.88c6.92,6.92,18.12,6.92,25.04,0"/>
</g>
<g>
	<circle class="st5" cx="6609.65" cy="-207.86" r="35.69"/>
	<g>
		<circle class="st6" cx="6595.85" cy="-214.92" r="1.7"/>
		<circle class="st6" cx="6623.45" cy="-214.92" r="1.7"/>
	</g>
	<path class="st7" d="M6597.13-199.88c6.92,6.92,18.12,6.92,25.04,0"/>
</g>
<g>
	<circle class="st5" cx="6673.51" cy="-207.86" r="35.69"/>
	<g>
		<circle class="st6" cx="6659.71" cy="-214.92" r="1.7"/>
		<circle class="st6" cx="6687.31" cy="-214.92" r="1.7"/>
	</g>
	<path class="st7" d="M6660.99-199.88c6.92,6.92,18.12,6.92,25.04,0"/>
</g>
<polygon class="st1" points="3924.75,71.76 3942.71,89.4 3942.71,71.76 3960.35,71.76 3942.71,53.8 3960.35,35.84 3942.71,35.84 
	3942.71,18.2 3924.75,35.84 3906.78,18.2 3906.78,35.84 3889.15,35.84 3906.78,53.8 3889.15,71.76 3906.78,71.76 3906.78,89.4 "/>
<path class="st0" d="M6964.75,29.52c-19.42-11.08-39.69,1.39-38.74,22.03c1.04,22.68,19.59,51.75,37.54,44.64
	c2.43-0.97,5.14-0.97,7.57,0c17.95,7.11,36.49-21.97,37.54-44.64c0.95-20.59-19.24-33.06-38.63-22.09L6964.75,29.52z"/>
<path class="st0" d="M6974.44,8.25c-8.08,8.08-9.27,20.42-3.57,29.75"/>
<path class="st0" d="M7179.85,12.26c-15.65,1.49-19.56,16.36-22.4,32.85c-0.54,3.15-2.3,6.02-4.34,9.34
	c-3.7,6.02-8.29,13.51-5.89,25.26c1.08,5.52,4.5,10.3,9.39,13.1c6.38,3.78,15.19,4.62,22.99,2.21c1.59-0.51,3.3-0.44,4.84,0.2
	c3.02,1.27,6.28,1.91,9.56,1.88c3.96,0.01,7.88-0.85,11.47-2.52c6.07-2.82,10.57-8.21,12.26-14.69c3.27-11.72-1.68-19.37-5.65-25.52
	c-2.06-3.18-4-6.18-4.53-9.27c-2.83-16.42-6.72-31.25-22.22-32.84L7179.85,12.26z"/>
<path class="st0" d="M7188.61-4.62c-8.32,8.32-10.13,20.68-5.43,30.75"/>
<g>
	<rect x="5704.29" y="17.17" class="st1" width="99.16" height="71.2"/>
	<rect x="5704.29" y="52.77" class="st8" width="99.16" height="35.6"/>
	<rect x="5704.29" y="17.17" class="st9" width="35.6" height="35.6"/>
</g>
<polygon class="st1" points="6793.88,89.87 6742.84,97.55 6742.84,8.68 6793.88,1 "/>
<rect x="6742.84" y="9.65" class="st1" width="63.23" height="88.87"/>
<g>
	<polygon class="st0" points="6141.75,103.41 6141.75,114.57 6130.59,103.41 6110.67,103.41 6110.67,13.13 6206.74,13.13 
		6206.74,103.41 	"/>
</g>
<g>
	<g>
		<circle class="st0" cx="5933.46" cy="40.53" r="20.4"/>
		<line class="st0" x1="5948.51" y1="55.58" x2="5956.25" y2="63.32"/>
	</g>
	
		<rect x="5962.29" y="58.23" transform="matrix(0.7071 -0.7071 0.7071 0.7071 1694.8109 4241.9502)" class="st0" width="11.21" height="33.86"/>
</g>
<g>
	<path class="st0" d="M5548.83,46.28c-0.63,4.55-2.69,8.93-6.18,12.43c-8.52,8.52-22.33,8.52-30.85,0s-8.52-22.33,0-30.85
		s22.33-8.52,30.85,0C5547.67,32.88,5549.73,39.75,5548.83,46.28"/>
	<polyline class="st0" points="5549.83,46.12 5583.08,84.36 5569.61,97.83 5531.37,64.58 	"/>
	<line class="st0" x1="5575.81" y1="91.62" x2="5594.11" y2="109.92"/>
	<line class="st0" x1="5511.79" y1="58.71" x2="5541.85" y2="28.65"/>
</g>
<g>
	<rect x="6333.57" y="8.44" class="st0" width="65.29" height="88.66"/>
	<g>
		<polyline class="st0" points="6346.06,31.43 6351.95,35.73 6359.35,24.02 		"/>
		<polyline class="st0" points="6373.09,55.09 6378.97,59.38 6386.37,47.67 		"/>
		<g>
			<line class="st0" x1="6386.14" y1="25.2" x2="6373.32" y2="38.02"/>
			<line class="st0" x1="6373.32" y1="25.2" x2="6386.14" y2="38.02"/>
		</g>
		<g>
			<line class="st0" x1="6359.12" y1="68.69" x2="6346.29" y2="81.52"/>
			<line class="st0" x1="6346.29" y1="68.69" x2="6359.12" y2="81.52"/>
		</g>
		<line class="st0" x1="6346.86" y1="53.53" x2="6358.55" y2="53.53"/>
		<line class="st0" x1="6373.88" y1="75.1" x2="6385.58" y2="75.1"/>
	</g>
</g>
<polygon class="st0" points="5345.64,20.02 5357.21,43.45 5383.07,47.21 5364.36,65.45 5368.78,91.21 5345.64,79.05 5322.51,91.21 
	5326.93,65.45 5308.21,47.21 5334.08,43.45 "/>
<g>
	<rect x="5083.46" y="28" class="st0" width="116.13" height="71.69"/>
	<polyline class="st0" points="5083.57,28 5142.33,63.85 5199.49,28 	"/>
</g>
<g>
	<g>
		<polygon class="st0" points="4926.86,99.54 4861.46,99.54 4861.46,10.73 4904.7,10.73 4915.78,21.81 4926.86,32.9 		"/>
		<polyline class="st0" points="4904.7,10.73 4904.7,32.43 4926.86,32.43 		"/>
	</g>
	<line class="st0" x1="4877.24" y1="52.77" x2="4909.42" y2="52.77"/>
	<line class="st10" x1="4876.96" y1="66.08" x2="4909.14" y2="66.08"/>
	<line class="st10" x1="4876.96" y1="79.4" x2="4909.14" y2="79.4"/>
</g>
<g>
	<g>
		<polygon class="st0" points="5013.37,99.54 4947.96,99.54 4947.96,10.73 4991.2,10.73 5002.28,21.81 5013.37,32.9 		"/>
		<polyline class="st0" points="4991.2,10.73 4991.2,32.43 5013.37,32.43 		"/>
	</g>
	<line class="st0" x1="4963.74" y1="52.77" x2="4995.92" y2="52.77"/>
	<line class="st10" x1="4963.46" y1="66.08" x2="4995.64" y2="66.08"/>
	<line class="st10" x1="4963.46" y1="79.4" x2="4995.64" y2="79.4"/>
</g>
<polyline class="st0" points="4965.56,30.5 4971.45,34.8 4978.87,23.07 "/>
<g>
	<line class="st0" x1="4890.78" y1="22.51" x2="4877.93" y2="35.36"/>
	<line class="st0" x1="4877.93" y1="22.51" x2="4890.78" y2="35.36"/>
</g>
<g>
	<g>
		<g>
			<polygon class="st0" points="4695.41,89.71 4759.82,89.71 4759.82,0.93 4717.24,0.93 4706.32,12.01 4695.41,23.09 			"/>
			<polyline class="st0" points="4717.24,0.93 4717.24,22.62 4695.41,22.62 			"/>
		</g>
	</g>
</g>
<g>
	<g>
		<circle class="st1" cx="4748.39" cy="37.95" r="20.88"/>
		<line class="st1" x1="4763.8" y1="53.36" x2="4771.72" y2="61.28"/>
	</g>
	
		<rect x="4777.9" y="56.06" transform="matrix(0.7071 -0.7071 0.7071 0.7071 1349.1948 3404.0417)" class="st1" width="11.48" height="34.67"/>
</g>
<g>
	<path class="st0" d="M4587.57,55.91c0,0-17.49,41.31-58.39,41.31s-58.39-41.31-58.39-41.31v-0.77c0,0,12.46-21.34,25.4-27.36
		c12.94-6.02,32.99,4.23,32.99,4.23l0,0c0,0,19.92-10.25,32.87-4.23c12.94,6.02,25.4,27.36,25.4,27.36L4587.57,55.91z"/>
	<path class="st0" d="M4470.79,55.14c0,0,48.67,12.89,116.79,0.77"/>
</g>
<g>
	<path class="st0" d="M4369.85,60.14c0,0-17.47,35.88-58.34,35.88c-40.87,0-58.34-35.88-58.34-35.88s17.47-35.88,58.34-35.88
		C4352.39,24.25,4369.85,60.14,4369.85,60.14z"/>
	<circle class="st0" cx="4311.52" cy="59.15" r="17.39"/>
</g>
<g>
	<circle class="st5" cx="7386.79" cy="57.72" r="35.69"/>
	<g>
		<circle class="st6" cx="7372.99" cy="50.66" r="1.7"/>
		<circle class="st6" cx="7400.59" cy="50.66" r="1.7"/>
	</g>
	<path class="st7" d="M7374.27,65.69c6.92,6.92,18.12,6.92,25.04,0"/>
</g>
<g>
	<circle class="st1" cx="7598.31" cy="32.76" r="22.82"/>
	<line class="st1" x1="7598.31" y1="55.58" x2="7598.31" y2="98.91"/>
	<line class="st1" x1="7580.22" y1="74.77" x2="7616.41" y2="74.77"/>
</g>
<g>
	<circle class="st1" cx="7776.17" cy="74.47" r="22.82"/>
	<line class="st1" x1="7792.39" y1="57.78" x2="7832.02" y2="18.14"/>
	<polyline class="st0" points="7805.6,18.14 7832.02,18.14 7832.02,44.57 	"/>
</g>
</svg>
