<?xml version="1.0" encoding="utf-8"?>
<!-- Generator: Adobe Illustrator 24.2.0, SVG Export Plug-In . SVG Version: 6.00 Build 0)  -->
<svg version="1.1" id="Capa_1" xmlns="http://www.w3.org/2000/svg" xmlns:xlink="http://www.w3.org/1999/xlink" x="0px" y="0px"
	 viewBox="0 0 83.89 83.97" style="enable-background:new 0 0 83.89 83.97;" xml:space="preserve">
<style type="text/css">
	.st0{fill:none;stroke:#000000;stroke-width:6.5;stroke-miterlimit:10;}
	.st1{fill:#FFFFFF;stroke:#000000;stroke-width:6.5;stroke-miterlimit:10;}
	.st2{fill:#FFFFFF;}
	.st3{stroke:#000000;stroke-width:6.5;stroke-miterlimit:10;}
	.st4{fill:#1D1D1B;}
	.st5{fill:#FFFFFF;stroke:#1D1D1B;stroke-width:6.5;stroke-miterlimit:10;}
	.st6{fill:#1D1D1B;stroke:#1D1D1B;stroke-width:6.5;stroke-miterlimit:10;}
	.st7{fill:none;stroke:#1D1D1B;stroke-width:6.5;stroke-miterlimit:10;}
	.st8{fill:#FC5439;stroke:#000000;stroke-width:6.5;stroke-miterlimit:10;}
	.st9{fill:#3A90FD;stroke:#000000;stroke-width:6.5;stroke-miterlimit:10;}
	.st10{fill:#F1CD08;stroke:#000000;stroke-width:6.5;stroke-miterlimit:10;}
</style>
<g>
	<path class="st0" d="M-5898.73,78.68V4.34c0-4.23,3.43-7.65,7.65-7.65h54.6v77.9"/>
	<path class="st0" d="M-5875.16,85.42h38.68V71.93h-55.51c-3.72,0-6.74,3.02-6.74,6.74v0c0,3.72,3.02,6.74,6.74,6.74h1.52"/>
	<rect x="-5881.06" y="17.46" class="st0" width="26.92" height="15.7"/>
	<polygon class="st0" points="-5877.34,98.57 -5882.6,103.88 -5887.86,98.57 -5887.86,81.62 -5877.34,81.62 	"/>
</g>
<polygon class="st0" points="-6229.43,41.3 -6265.11,5.63 -6265.11,21.13 -6322.23,21.13 -6322.23,62.87 -6265.11,62.87 
	-6265.11,76.97 "/>
<g>
	<polyline class="st0" points="-6056.5,14.68 -6032.86,14.68 -6032.86,85.88 -6109.72,85.88 -6109.72,14.68 -6079.59,14.68 	"/>
	<polygon class="st0" points="-6074.23,26.49 -6082.81,17.91 -6061.62,-3.28 -6050.08,8.27 -6068.31,26.49 	"/>
	<polyline class="st0" points="-6084.19,26.49 -6074.23,26.49 -6068.31,26.49 -6058.4,26.49 	"/>
</g>
<g>
	<polygon class="st0" points="-6444.65,-13 -6520.67,38.56 -6528.4,57.97 -6507.51,57.97 -6431.49,6.41 	"/>
	<line class="st0" x1="-6520.67" y1="38.56" x2="-6507.51" y2="57.97"/>
</g>
<g>
	<g>
		<path class="st1" d="M-5658.84,74.26h24.01c19.62,0,35.53-15.91,35.53-35.53v0c0-19.62-15.91-35.53-35.53-35.53l-3.72,0l-78.89,0
			c-4.91,0-8.88,3.98-8.88,8.88v0c0,4.91,3.98,8.88,8.88,8.88l68.05,0v0"/>
		<path class="st1" d="M-5649.39,20.97h-21.1c-4.9,0-8.88,3.98-8.88,8.88v0c0,4.91,3.98,8.88,8.88,8.88h19.4h1.7
			c4.91,0,8.88-3.98,8.88-8.88v0C-5640.51,24.95-5644.49,20.97-5649.39,20.97z"/>
		<path class="st1" d="M-5648.76,38.73h-21.09c-4.91,0-8.88,3.98-8.88,8.88v0c0,4.91,3.98,8.88,8.88,8.88h19.4h1.7
			c4.91,0,8.88-3.98,8.88-8.88v0C-5639.88,42.71-5643.85,38.73-5648.76,38.73z"/>
		<path class="st1" d="M-5648.76,56.5h-21.09c-4.91,0-8.88,3.98-8.88,8.88v0c0,4.91,3.98,8.88,8.88,8.88h19.4h1.7
			c4.91,0,8.88-3.98,8.88-8.88v0C-5639.88,60.47-5643.85,56.5-5648.76,56.5z"/>
	</g>
	<path class="st1" d="M-5635.31,5.08L-5647,28.57c-2.15,4.41-0.32,9.73,4.09,11.88v0c4.41,2.15,9.73,0.32,11.88-4.09l8.54-17.14"/>
</g>
<g>
	<ellipse class="st2" cx="-5453.58" cy="44.31" rx="28.07" ry="18.08"/>
	<g>
		<path class="st1" d="M-5434.21,39.58V24.95c0-3.72,3.01-6.73,6.73-6.73h0c3.71,0,6.73,3.01,6.73,6.73V47.7
			c0,18.59-15.07,33.66-33.66,33.66l0,0c-18.59,0-33.66-15.07-33.66-33.66V24.59l0,0c7.43,0,13.45,6.02,13.45,13.45v8.75l0,0
			c7.42,0,13.44,6.02,13.44,13.44v0.83"/>
		<path class="st1" d="M-5434.28,39.58V6.81c0-3.72-3.01-6.73-6.73-6.73l0,0c-3.72,0-6.73,3.01-6.73,6.73v25.15"/>
		<path class="st1" d="M-5447.73,35.75V-0.02c0-3.72-3.01-6.73-6.73-6.73l0,0c-3.72,0-6.73,3.01-6.73,6.73v25.15"/>
		<path class="st1" d="M-5461.19,34.97V5.2c0-3.72-3.01-6.73-6.73-6.73l0,0c-3.72,0-6.73,3.01-6.73,6.73v37.79"/>
	</g>
</g>
<g>
	<line class="st0" x1="-5268.3" y1="-175.04" x2="-5191.74" y2="-194.02"/>
	<circle class="st1" cx="-5268.3" cy="-175.04" r="25.98"/>
	<line class="st0" x1="-5114.94" y1="-175.03" x2="-5191.49" y2="-194.01"/>
	<circle class="st1" cx="-5114.94" cy="-175.04" r="25.98"/>
	<circle class="st1" cx="-5191.74" cy="-194.02" r="25.98"/>
</g>
<g>
	<circle class="st0" cx="-5045.77" cy="35.75" r="35.6"/>
	<g>
		<circle class="st3" cx="-5059.54" cy="28.71" r="1.69"/>
		<circle class="st3" cx="-5032" cy="28.71" r="1.69"/>
	</g>
	<path class="st0" d="M-5058.26,43.71c6.9,6.9,18.07,6.9,24.98,0"/>
</g>
<g>
	<line class="st0" x1="-4812.96" y1="3.11" x2="-4812.96" y2="74.96"/>
	<line class="st0" x1="-4883.28" y1="39.03" x2="-4934.19" y2="39.03"/>
	<line class="st0" x1="-4773.35" y1="39.03" x2="-4824.27" y2="39.03"/>
	<rect x="-4902.67" y="19.78" class="st1" width="89.71" height="38.51"/>
	<line class="st0" x1="-4774.97" y1="23.27" x2="-4774.97" y2="54.79"/>
	<line class="st0" x1="-4861.45" y1="20.52" x2="-4861.45" y2="35.47"/>
	<line class="st0" x1="-4847.82" y1="21.73" x2="-4847.82" y2="43.15"/>
</g>
<circle class="st1" cx="-2201.65" cy="40.95" r="35.26"/>
<g>
	<rect x="-4676.78" y="-7.1" class="st1" width="70.6" height="50.69"/>
	<line class="st1" x1="-4676.78" y1="-14.82" x2="-4676.78" y2="74.57"/>
	<rect x="-4676.78" y="18.25" class="st1" width="70.6" height="25.35"/>
	<rect x="-4676.78" y="-7.1" class="st1" width="25.35" height="25.35"/>
</g>
<g transform="translate(0,-952.36218)">
	<path class="st1" d="M-4467.84,1014.1c0,18.4,13.01,33.32,29.05,33.32c16.03,0,29.05-14.92,29.05-33.32
		c0-18.4-13.96-38.93-29.05-56.24C-4438.79,957.86-4467.84,990.88-4467.84,1014.1z"/>
</g>
<g>
	<polyline class="st1" points="-4290.86,36.17 -4246.12,-8.56 -4201.39,36.17 	"/>
	<path class="st1" d="M-4246.12,28.42"/>
	<polygon class="st1" points="-4215.83,80.07 -4276.41,80.07 -4276.41,21.76 -4246.12,-8.56 -4215.83,21.76 	"/>
	<polyline class="st0" points="-4259.24,80.07 -4259.24,44.72 -4233.01,44.72 -4233.01,80.07 	"/>
</g>
<g>
	<circle class="st1" cx="-2805.87" cy="41.3" r="35.29"/>
	<polyline class="st1" points="-2819.43,40.92 -2811.25,50.72 -2792.32,31.88 	"/>
</g>
<g>
	<g>
		<g>
			<rect x="-4065.33" y="10.5" class="st0" width="69.54" height="69.54"/>
			<g>
				<line class="st1" x1="-4050.42" y1="-0.3" x2="-4050.42" y2="21.29"/>
				<line class="st1" x1="-4010.71" y1="-0.3" x2="-4010.71" y2="21.29"/>
			</g>
		</g>
		<line class="st1" x1="-4065.33" y1="33.2" x2="-3995.79" y2="33.2"/>
	</g>
	<g>
		<path class="st4" d="M-4029.96,45.45v4.07l-6.81,5.54v0.42h0.91c3.4,0,6.46,2.35,6.46,6.81c0,4.98-3.79,8.21-9.26,8.21
			c-5.86,0-9.4-3.47-9.4-8.35v-0.98h4.63v0.84c0,2.39,1.65,4.35,4.77,4.35c2.91,0,4.63-1.72,4.63-4.07s-1.65-3.51-4-3.51h-4.28
			v-4.14l6.07-4.98h-11.12v-4.21H-4029.96z"/>
		<path class="st4" d="M-4014.59,45.45v24.56h-4.63V50.36h-0.42l-3.44,6.18h-4.84l6.32-11.09H-4014.59z"/>
	</g>
</g>
<g>
	<g>
		<circle class="st1" cx="-3828.23" cy="45.22" r="34.11"/>
		<g>
			<path class="st1" d="M-3833.71,11.86c-15.63,19.6-15.53,47.58,0.29,67.07"/>
			<path class="st1" d="M-3821.82,11.86c15.48,19.42,15.53,47.05,0.16,66.52"/>
		</g>
		<line class="st1" x1="-3862.34" y1="45.22" x2="-3794.13" y2="45.22"/>
		<line class="st1" x1="-3827.76" y1="11.31" x2="-3827.76" y2="79.13"/>
	</g>
</g>
<g>
	<circle class="st1" cx="-3635.76" cy="21.57" r="22.82"/>
	<line class="st1" x1="-3635.76" y1="44.39" x2="-3635.76" y2="87.73"/>
	<line class="st1" x1="-3653.86" y1="63.58" x2="-3617.66" y2="63.58"/>
</g>
<g>
	<circle class="st1" cx="-3423.29" cy="32.13" r="22.82"/>
	<line class="st1" x1="-3407.08" y1="15.44" x2="-3367.44" y2="-24.2"/>
	<polyline class="st0" points="-3393.86,-24.2 -3367.44,-24.2 -3367.44,2.23 	"/>
</g>
<path class="st1" d="M-3169.51,48.64V36.6l-36.59-13.14l0.48-18.57c0.09-2.9-1.09-5.69-3.23-7.65v0c-3.79-3.47-9.61-3.48-13.41-0.01
	l-0.01,0.01c-2.15,1.96-3.34,4.76-3.24,7.66l0.48,18.55l-33.67,12.17v12.04l34.33-6.35l1.48,23.62l-12.3,10.06v8.46l20.03-9.74
	l20.03,9.74V75l-13.09-10.58l1.44-22.86L-3169.51,48.64z"/>
<g>
	<g>
		<g>
			<g>
				<g>
					<g>
						<rect x="-1825.27" y="21.8" class="st2" width="79.95" height="61.47"/>
						<rect x="-1825.27" y="21.8" class="st0" width="79.95" height="61.47"/>
					</g>
				</g>
			</g>
		</g>
		<path class="st1" d="M-1766.18,71.08h-38.24c-4.08,0-7.39-3.31-7.39-7.39V41.38c0-4.08,3.31-7.39,7.39-7.39h38.24
			c4.08,0,7.39,3.31,7.39,7.39v22.31C-1758.79,67.77-1762.1,71.08-1766.18,71.08z"/>
		<g>
			<line class="st1" x1="-1810.88" y1="-4.64" x2="-1784.71" y2="21.52"/>
			<line class="st1" x1="-1759.71" y1="-4.64" x2="-1785.88" y2="21.52"/>
		</g>
	</g>
</g>
<g>
	<polygon class="st1" points="-2977.54,83.93 -3042.44,83.93 -3042.44,-4.19 -2999.54,-4.19 -2988.54,6.81 -2977.54,17.8 	"/>
	<polyline class="st1" points="-2999.54,-4.19 -2999.54,17.35 -2977.54,17.35 	"/>
</g>
<g>
	
		<rect x="-2417.71" y="24.23" transform="matrix(-1.836970e-16 1 -1 -1.836970e-16 -2365.3733 2457.6482)" class="st1" width="12.39" height="43.82"/>
	<rect x="-2434.64" y="-4.49" class="st1" width="12.39" height="88.26"/>
	<rect x="-2396.23" y="39.94" class="st1" width="12.39" height="43.82"/>
</g>
<g>
	<g>
		<polygon class="st1" points="-2569.23,83.08 -2634.29,83.08 -2634.29,-5.27 -2591.28,-5.27 -2580.25,5.76 -2569.23,16.78 		"/>
		<polyline class="st1" points="-2591.28,-5.27 -2591.28,16.32 -2569.23,16.32 		"/>
	</g>
	<line class="st1" x1="-2618.59" y1="36.55" x2="-2586.58" y2="36.55"/>
	<line class="st1" x1="-2618.87" y1="49.79" x2="-2586.86" y2="49.79"/>
	<line class="st1" x1="-2618.87" y1="63.04" x2="-2586.86" y2="63.04"/>
</g>
<g>
	<g>
		<path class="st4" d="M-2191.63,46.03v0.37c0,4.38-3.02,7.11-7.37,7.77v3.94h-4.42v-3.9c-5.08-0.7-8.25-3.98-8.25-9.28v-0.81h4.86
			v0.59c0,2.39,1.07,4.13,3.39,4.79v-7c-4.68-1.14-7.29-3.13-7.29-7.37v-0.22c0-4.02,3.09-6.67,7.29-7.26v-3.87h4.42v4.01
			c4.16,0.81,7,3.65,7,7.92v1.11h-4.86v-0.74c0-1.84-0.77-2.95-2.14-3.54v6.15C-2194.24,39.84-2191.63,41.83-2191.63,46.03z
			 M-2203.41,37.71v-5.38c-1.47,0.44-2.36,1.44-2.36,2.65C-2205.77,36.49-2204.85,37.19-2203.41,37.71z M-2196.56,46.4
			c0-1.47-0.85-2.28-2.43-2.84v5.93C-2197.37,48.94-2196.56,47.73-2196.56,46.4z"/>
	</g>
</g>
<g>
	<circle class="st5" cx="639.54" cy="-220.99" r="35.69"/>
	<g>
		<circle class="st6" cx="625.74" cy="-228.05" r="1.7"/>
		<circle class="st6" cx="653.34" cy="-228.05" r="1.7"/>
	</g>
	<path class="st7" d="M627.02-213.01c6.92,6.92,18.12,6.92,25.04,0"/>
</g>
<g>
	<circle class="st5" cx="703.4" cy="-220.99" r="35.69"/>
	<g>
		<circle class="st6" cx="689.6" cy="-228.05" r="1.7"/>
		<circle class="st6" cx="717.2" cy="-228.05" r="1.7"/>
	</g>
	<path class="st7" d="M690.88-213.01c6.92,6.92,18.12,6.92,25.04,0"/>
</g>
<g>
	<circle class="st5" cx="767.26" cy="-220.99" r="35.69"/>
	<g>
		<circle class="st6" cx="753.46" cy="-228.05" r="1.7"/>
		<circle class="st6" cx="781.06" cy="-228.05" r="1.7"/>
	</g>
	<path class="st7" d="M754.74-213.01c6.92,6.92,18.12,6.92,25.04,0"/>
</g>
<polygon class="st1" points="-1981.5,58.63 -1963.54,76.27 -1963.54,58.63 -1945.9,58.63 -1963.54,40.67 -1945.9,22.71 
	-1963.54,22.71 -1963.54,5.07 -1981.5,22.71 -1999.47,5.07 -1999.47,22.71 -2017.1,22.71 -1999.47,40.67 -2017.1,58.63 
	-1999.47,58.63 -1999.47,76.27 "/>
<path class="st0" d="M1058.5,16.4c-19.42-11.08-39.69,1.39-38.74,22.03c1.04,22.68,19.59,51.75,37.54,44.64
	c2.43-0.97,5.14-0.97,7.57,0c17.95,7.11,36.49-21.97,37.54-44.64c0.95-20.59-19.24-33.06-38.63-22.09L1058.5,16.4z"/>
<path class="st0" d="M1068.19-4.88c-8.08,8.08-9.27,20.42-3.57,29.75"/>
<path class="st0" d="M1273.61-0.87c-15.65,1.49-19.56,16.36-22.4,32.85c-0.54,3.15-2.3,6.02-4.34,9.34
	c-3.7,6.02-8.29,13.51-5.89,25.26c1.08,5.52,4.51,10.3,9.39,13.1c6.38,3.78,15.19,4.62,22.99,2.21c1.59-0.51,3.3-0.44,4.84,0.2
	c3.02,1.27,6.28,1.91,9.56,1.88c3.96,0.01,7.88-0.85,11.47-2.52c6.07-2.82,10.57-8.21,12.26-14.69c3.27-11.72-1.68-19.37-5.65-25.52
	c-2.06-3.18-4-6.18-4.53-9.27c-2.83-16.42-6.72-31.25-22.22-32.84L1273.61-0.87z"/>
<path class="st0" d="M1282.36-17.75c-8.32,8.32-10.13,20.68-5.43,30.75"/>
<g>
	<rect x="-201.96" y="4.04" class="st1" width="99.16" height="71.2"/>
	<rect x="-201.96" y="39.64" class="st8" width="99.16" height="35.6"/>
	<rect x="-201.96" y="4.04" class="st9" width="35.6" height="35.6"/>
</g>
<polygon class="st1" points="887.63,76.74 836.59,84.43 836.59,-4.44 887.63,-12.13 "/>
<rect x="836.59" y="-3.48" class="st1" width="63.23" height="88.87"/>
<g>
	<polygon class="st0" points="235.5,90.29 235.5,101.44 224.34,90.29 204.42,90.29 204.42,0 300.49,0 300.49,90.29 	"/>
</g>
<g>
	<g>
		<circle class="st0" cx="27.21" cy="27.4" r="20.4"/>
		<line class="st0" x1="42.26" y1="42.45" x2="50" y2="50.19"/>
	</g>
	
		<rect x="56.04" y="45.1" transform="matrix(0.7071 -0.7071 0.7071 0.7071 -25.8077 61.7561)" class="st0" width="11.21" height="33.86"/>
</g>
<g>
	<path class="st0" d="M-357.42,33.16c-0.63,4.55-2.69,8.93-6.18,12.43c-8.52,8.52-22.33,8.52-30.85,0s-8.52-22.33,0-30.85
		s22.33-8.52,30.85,0C-358.58,19.76-356.52,26.62-357.42,33.16"/>
	<polyline class="st0" points="-356.42,33 -323.17,71.23 -336.64,84.7 -374.88,51.45 	"/>
	<line class="st0" x1="-330.44" y1="78.49" x2="-312.14" y2="96.79"/>
	<line class="st0" x1="-394.46" y1="45.59" x2="-364.4" y2="15.53"/>
</g>
<g>
	<rect x="427.32" y="-4.69" class="st0" width="65.29" height="88.66"/>
	<g>
		<polyline class="st0" points="439.81,18.31 445.7,22.6 453.1,10.89 		"/>
		<polyline class="st0" points="466.84,41.96 472.72,46.26 480.12,34.54 		"/>
		<g>
			<line class="st0" x1="479.89" y1="12.07" x2="467.07" y2="24.9"/>
			<line class="st0" x1="467.07" y1="12.07" x2="479.89" y2="24.9"/>
		</g>
		<g>
			<line class="st0" x1="452.87" y1="55.56" x2="440.04" y2="68.39"/>
			<line class="st0" x1="440.04" y1="55.56" x2="452.87" y2="68.39"/>
		</g>
		<line class="st0" x1="440.61" y1="40.4" x2="452.3" y2="40.4"/>
		<line class="st0" x1="467.63" y1="61.98" x2="479.33" y2="61.98"/>
	</g>
</g>
<polygon class="st0" points="-560.61,6.89 -549.04,30.33 -523.18,34.08 -541.89,52.33 -537.47,78.09 -560.61,65.92 -583.74,78.09 
	-579.32,52.33 -598.04,34.08 -572.17,30.33 "/>
<g>
	<rect x="-822.79" y="14.88" class="st0" width="116.13" height="71.69"/>
	<polyline class="st0" points="-822.68,14.88 -763.92,50.72 -706.76,14.88 	"/>
</g>
<g>
	<g>
		<polygon class="st0" points="-979.39,86.42 -1044.79,86.42 -1044.79,-2.4 -1001.55,-2.4 -990.47,8.68 -979.39,19.77 		"/>
		<polyline class="st0" points="-1001.55,-2.4 -1001.55,19.31 -979.39,19.31 		"/>
	</g>
	<line class="st0" x1="-1029.01" y1="39.64" x2="-996.83" y2="39.64"/>
	<line class="st10" x1="-1029.29" y1="52.95" x2="-997.11" y2="52.95"/>
	<line class="st10" x1="-1029.29" y1="66.27" x2="-997.11" y2="66.27"/>
</g>
<g>
	<g>
		<polygon class="st0" points="-892.88,86.42 -958.29,86.42 -958.29,-2.4 -915.05,-2.4 -903.97,8.68 -892.88,19.77 		"/>
		<polyline class="st0" points="-915.05,-2.4 -915.05,19.31 -892.88,19.31 		"/>
	</g>
	<line class="st0" x1="-942.51" y1="39.64" x2="-910.33" y2="39.64"/>
	<line class="st10" x1="-942.79" y1="52.95" x2="-910.61" y2="52.95"/>
	<line class="st10" x1="-942.79" y1="66.27" x2="-910.61" y2="66.27"/>
</g>
<polyline class="st0" points="-940.69,17.37 -934.8,21.68 -927.38,9.94 "/>
<g>
	<line class="st0" x1="-1015.47" y1="9.38" x2="-1028.32" y2="22.24"/>
	<line class="st0" x1="-1028.32" y1="9.38" x2="-1015.47" y2="22.24"/>
</g>
<g>
	<g>
		<g>
			<polygon class="st0" points="-1210.84,76.59 -1146.43,76.59 -1146.43,-12.2 -1189.01,-12.2 -1199.93,-1.12 -1210.84,9.96 			"/>
			<polyline class="st0" points="-1189.01,-12.2 -1189.01,9.5 -1210.84,9.5 			"/>
		</g>
	</g>
</g>
<g>
	<g>
		<circle class="st1" cx="-1157.86" cy="24.82" r="20.88"/>
		<line class="st1" x1="-1142.45" y1="40.23" x2="-1134.53" y2="48.15"/>
	</g>
	
		<rect x="-1128.35" y="42.94" transform="matrix(0.7071 -0.7071 0.7071 0.7071 -371.4238 -776.1523)" class="st1" width="11.48" height="34.67"/>
</g>
<g>
	<path class="st0" d="M-1318.68,42.78c0,0-17.48,41.31-58.39,41.31s-58.39-41.31-58.39-41.31v-0.77c0,0,12.46-21.34,25.4-27.36
		s32.99,4.23,32.99,4.23l0,0c0,0,19.92-10.25,32.87-4.23c12.94,6.02,25.4,27.36,25.4,27.36L-1318.68,42.78z"/>
	<path class="st0" d="M-1435.46,42.01c0,0,48.67,12.89,116.79,0.77"/>
</g>
<g>
	<path class="st0" d="M-1536.4,42.32c0,0-17.47,35.88-58.34,35.88s-58.34-35.88-58.34-35.88s17.47-35.88,58.34-35.88
		S-1536.4,42.32-1536.4,42.32z"/>
	<circle class="st0" cx="-1594.73" cy="41.34" r="17.39"/>
</g>
<g>
	<circle class="st5" cx="1480.54" cy="44.59" r="35.69"/>
	<g>
		<circle class="st6" cx="1466.74" cy="37.53" r="1.7"/>
		<circle class="st6" cx="1494.34" cy="37.53" r="1.7"/>
	</g>
	<path class="st7" d="M1468.02,52.57c6.92,6.92,18.12,6.92,25.04,0"/>
</g>
<g>
	<circle class="st1" cx="1692.06" cy="19.63" r="22.82"/>
	<line class="st1" x1="1692.06" y1="42.45" x2="1692.06" y2="85.79"/>
	<line class="st1" x1="1673.97" y1="61.64" x2="1710.16" y2="61.64"/>
</g>
<g>
	<circle class="st1" cx="1869.92" cy="61.34" r="22.82"/>
	<line class="st1" x1="1886.14" y1="44.65" x2="1925.77" y2="5.02"/>
	<polyline class="st0" points="1899.35,5.02 1925.77,5.02 1925.77,31.44 	"/>
</g>
</svg>
