<?xml version="1.0" encoding="utf-8"?>
<!-- Generator: Adobe Illustrator 24.2.0, SVG Export Plug-In . SVG Version: 6.00 Build 0)  -->
<svg version="1.1" id="Capa_1" xmlns="http://www.w3.org/2000/svg" xmlns:xlink="http://www.w3.org/1999/xlink" x="0px" y="0px"
	 viewBox="0 0 93.54 102.18" style="enable-background:new 0 0 93.54 102.18;" xml:space="preserve">
<style type="text/css">
	.st0{fill:none;stroke:#000000;stroke-width:6.5;stroke-miterlimit:10;}
	.st1{fill:#FFFFFF;stroke:#000000;stroke-width:6.5;stroke-miterlimit:10;}
	.st2{fill:#FFFFFF;}
	.st3{stroke:#000000;stroke-width:6.5;stroke-miterlimit:10;}
	.st4{fill:#1D1D1B;}
	.st5{fill:#FFFFFF;stroke:#1D1D1B;stroke-width:6.5;stroke-miterlimit:10;}
	.st6{fill:#1D1D1B;stroke:#1D1D1B;stroke-width:6.5;stroke-miterlimit:10;}
	.st7{fill:none;stroke:#1D1D1B;stroke-width:6.5;stroke-miterlimit:10;}
	.st8{fill:#FC5439;stroke:#000000;stroke-width:6.5;stroke-miterlimit:10;}
	.st9{fill:#3A90FD;stroke:#000000;stroke-width:6.5;stroke-miterlimit:10;}
	.st10{fill:#F1CD08;stroke:#000000;stroke-width:6.5;stroke-miterlimit:10;}
</style>
<g>
	<path class="st0" d="M-6913.15,90.81V16.47c0-4.23,3.43-7.65,7.65-7.65h54.6v77.9"/>
	<path class="st0" d="M-6889.59,97.55h38.68V84.06h-55.51c-3.72,0-6.74,3.02-6.74,6.74v0c0,3.72,3.02,6.74,6.74,6.74h1.52"/>
	<rect x="-6895.49" y="29.59" class="st0" width="26.92" height="15.7"/>
	<polygon class="st0" points="-6891.77,110.7 -6897.03,116.01 -6902.29,110.7 -6902.29,93.75 -6891.77,93.75 	"/>
</g>
<polygon class="st0" points="-7243.86,53.43 -7279.53,17.76 -7279.53,33.26 -7336.66,33.26 -7336.66,75 -7279.53,75 -7279.53,89.1 
	"/>
<g>
	<polyline class="st0" points="-7070.93,26.81 -7047.29,26.81 -7047.29,98.01 -7124.15,98.01 -7124.15,26.81 -7094.02,26.81 	"/>
	<polygon class="st0" points="-7088.66,38.62 -7097.24,30.04 -7076.05,8.85 -7064.51,20.4 -7082.74,38.62 	"/>
	<polyline class="st0" points="-7098.61,38.62 -7088.66,38.62 -7082.74,38.62 -7072.82,38.62 	"/>
</g>
<g>
	<polygon class="st0" points="-7459.08,-0.87 -7535.1,50.69 -7542.83,70.1 -7521.94,70.1 -7445.92,18.54 	"/>
	<line class="st0" x1="-7535.1" y1="50.69" x2="-7521.94" y2="70.1"/>
</g>
<g>
	<g>
		<path class="st1" d="M-6673.27,86.39h24.01c19.62,0,35.53-15.91,35.53-35.53v0c0-19.62-15.91-35.53-35.53-35.53l-3.72,0h-78.89
			c-4.91,0-8.88,3.98-8.88,8.88v0c0,4.91,3.98,8.88,8.88,8.88h68.05v0"/>
		<path class="st1" d="M-6663.82,33.1h-21.09c-4.91,0-8.88,3.98-8.88,8.88v0c0,4.91,3.98,8.88,8.88,8.88h19.4h1.7
			c4.91,0,8.88-3.98,8.88-8.88v0C-6654.94,37.08-6658.92,33.1-6663.82,33.1z"/>
		<path class="st1" d="M-6663.19,50.86h-21.1c-4.91,0-8.88,3.98-8.88,8.88v0c0,4.91,3.98,8.88,8.88,8.88h19.4h1.7
			c4.9,0,8.88-3.98,8.88-8.88v0C-6654.3,54.84-6658.28,50.86-6663.19,50.86z"/>
		<path class="st1" d="M-6663.19,68.63h-21.1c-4.91,0-8.88,3.98-8.88,8.88v0c0,4.91,3.98,8.88,8.88,8.88h19.4h1.7
			c4.9,0,8.88-3.98,8.88-8.88v0C-6654.3,72.6-6658.28,68.63-6663.19,68.63z"/>
	</g>
	<path class="st1" d="M-6649.74,17.21l-11.69,23.48c-2.15,4.41-0.32,9.73,4.09,11.88v0c4.41,2.15,9.73,0.32,11.88-4.09l8.54-17.14"
		/>
</g>
<g>
	<ellipse class="st2" cx="-6468.01" cy="56.44" rx="28.07" ry="18.08"/>
	<g>
		<path class="st1" d="M-6448.64,51.71V37.08c0-3.72,3.01-6.73,6.73-6.73l0,0c3.72,0,6.73,3.01,6.73,6.73v22.75
			c0,18.59-15.07,33.66-33.66,33.66l0,0c-18.59,0-33.66-15.07-33.66-33.66V36.72l0,0c7.43,0,13.45,6.02,13.45,13.45v8.75l0,0
			c7.42,0,13.44,6.02,13.44,13.44v0.83"/>
		<path class="st1" d="M-6448.71,51.71V18.94c0-3.72-3.01-6.73-6.73-6.73l0,0c-3.72,0-6.73,3.01-6.73,6.73v25.15"/>
		<path class="st1" d="M-6462.16,47.88V12.11c0-3.72-3.01-6.73-6.73-6.73l0,0c-3.72,0-6.73,3.01-6.73,6.73v25.15"/>
		<path class="st1" d="M-6475.62,47.1V17.33c0-3.72-3.01-6.73-6.73-6.73l0,0c-3.72,0-6.73,3.01-6.73,6.73v37.79"/>
	</g>
</g>
<g>
	<line class="st0" x1="-6282.73" y1="-162.91" x2="-6206.17" y2="-181.89"/>
	<circle class="st1" cx="-6282.73" cy="-162.91" r="25.98"/>
	<line class="st0" x1="-6129.37" y1="-162.9" x2="-6205.92" y2="-181.88"/>
	<circle class="st1" cx="-6129.37" cy="-162.91" r="25.98"/>
	<circle class="st1" cx="-6206.17" cy="-181.89" r="25.98"/>
</g>
<g>
	<circle class="st0" cx="-6060.2" cy="47.88" r="35.6"/>
	<g>
		<circle class="st3" cx="-6073.97" cy="40.84" r="1.69"/>
		<circle class="st3" cx="-6046.43" cy="40.84" r="1.69"/>
	</g>
	<path class="st0" d="M-6072.69,55.84c6.9,6.9,18.07,6.9,24.98,0"/>
</g>
<g>
	<line class="st0" x1="-5827.39" y1="15.24" x2="-5827.39" y2="87.09"/>
	<line class="st0" x1="-5897.7" y1="51.16" x2="-5948.62" y2="51.16"/>
	<line class="st0" x1="-5787.78" y1="51.16" x2="-5838.7" y2="51.16"/>
	<rect x="-5917.1" y="31.91" class="st1" width="89.71" height="38.51"/>
	<line class="st0" x1="-5789.4" y1="35.4" x2="-5789.4" y2="66.93"/>
	<line class="st0" x1="-5875.88" y1="32.65" x2="-5875.88" y2="47.6"/>
	<line class="st0" x1="-5862.25" y1="33.86" x2="-5862.25" y2="55.28"/>
</g>
<circle class="st1" cx="-3216.07" cy="53.08" r="35.26"/>
<g>
	<rect x="-5691.21" y="5.03" class="st1" width="70.6" height="50.69"/>
	<line class="st1" x1="-5691.21" y1="-2.69" x2="-5691.21" y2="86.7"/>
	<rect x="-5691.21" y="30.38" class="st1" width="70.6" height="25.35"/>
	<rect x="-5691.21" y="5.03" class="st1" width="25.35" height="25.35"/>
</g>
<g transform="translate(0,-952.36218)">
	<path class="st1" d="M-5482.27,1026.23c0,18.4,13.01,33.32,29.05,33.32s29.05-14.92,29.05-33.32c0-18.4-13.96-38.93-29.05-56.24
		C-5453.22,969.99-5482.27,1003.01-5482.27,1026.23z"/>
</g>
<g>
	<polyline class="st1" points="-5305.29,48.3 -5260.55,3.57 -5215.82,48.3 	"/>
	<path class="st1" d="M-5260.55,40.55"/>
	<polygon class="st1" points="-5230.26,92.2 -5290.84,92.2 -5290.84,33.89 -5260.55,3.57 -5230.26,33.89 	"/>
	<polyline class="st0" points="-5273.67,92.2 -5273.67,56.85 -5247.43,56.85 -5247.43,92.2 	"/>
</g>
<g>
	<circle class="st1" cx="-3820.3" cy="53.43" r="35.29"/>
	<polyline class="st1" points="-3833.86,53.05 -3825.68,62.85 -3806.74,44.01 	"/>
</g>
<g>
	<g>
		<g>
			<rect x="-5079.76" y="22.63" class="st0" width="69.54" height="69.54"/>
			<g>
				<line class="st1" x1="-5064.85" y1="11.83" x2="-5064.85" y2="33.42"/>
				<line class="st1" x1="-5025.14" y1="11.83" x2="-5025.14" y2="33.42"/>
			</g>
		</g>
		<line class="st1" x1="-5079.76" y1="45.33" x2="-5010.22" y2="45.33"/>
	</g>
	<g>
		<path class="st4" d="M-5044.39,57.58v4.07l-6.81,5.54v0.42h0.91c3.4,0,6.46,2.35,6.46,6.81c0,4.98-3.79,8.21-9.26,8.21
			c-5.86,0-9.4-3.47-9.4-8.35V73.3h4.63v0.84c0,2.39,1.65,4.35,4.77,4.35c2.91,0,4.63-1.72,4.63-4.07s-1.65-3.51-4-3.51h-4.28v-4.14
			l6.07-4.98h-11.12v-4.21H-5044.39z"/>
		<path class="st4" d="M-5029.02,57.58v24.56h-4.63V62.49h-0.42l-3.44,6.18h-4.84l6.32-11.09H-5029.02z"/>
	</g>
</g>
<g>
	<g>
		<circle class="st1" cx="-4842.66" cy="57.35" r="34.11"/>
		<g>
			<path class="st1" d="M-4848.14,24c-15.63,19.6-15.53,47.58,0.29,67.07"/>
			<path class="st1" d="M-4836.25,23.99c15.48,19.42,15.53,47.05,0.16,66.52"/>
		</g>
		<line class="st1" x1="-4876.77" y1="57.35" x2="-4808.55" y2="57.35"/>
		<line class="st1" x1="-4842.19" y1="23.44" x2="-4842.19" y2="91.26"/>
	</g>
</g>
<g>
	<circle class="st1" cx="-4650.19" cy="33.7" r="22.82"/>
	<line class="st1" x1="-4650.19" y1="56.52" x2="-4650.19" y2="99.86"/>
	<line class="st1" x1="-4668.29" y1="75.71" x2="-4632.09" y2="75.71"/>
</g>
<g>
	<circle class="st1" cx="-4437.72" cy="44.26" r="22.82"/>
	<line class="st1" x1="-4421.5" y1="27.57" x2="-4381.87" y2="-12.07"/>
	<polyline class="st0" points="-4408.29,-12.07 -4381.87,-12.07 -4381.87,14.36 	"/>
</g>
<path class="st1" d="M-4183.94,60.77V48.73l-36.59-13.14l0.48-18.57c0.09-2.9-1.09-5.69-3.23-7.65v0
	c-3.79-3.47-9.61-3.48-13.41-0.01l-0.01,0.01c-2.15,1.96-3.34,4.76-3.24,7.66l0.48,18.55l-33.67,12.17v12.04l34.33-6.35l1.48,23.62
	l-12.3,10.06v8.46l20.03-9.74l20.03,9.74v-8.46l-13.09-10.58l1.44-22.86L-4183.94,60.77z"/>
<g>
	<g>
		<g>
			<g>
				<g>
					<g>
						<rect x="-2839.7" y="33.93" class="st2" width="79.95" height="61.47"/>
						<rect x="-2839.7" y="33.93" class="st0" width="79.95" height="61.47"/>
					</g>
				</g>
			</g>
		</g>
		<path class="st1" d="M-2780.61,83.21h-38.24c-4.08,0-7.39-3.31-7.39-7.39V53.51c0-4.08,3.31-7.39,7.39-7.39h38.24
			c4.08,0,7.39,3.31,7.39,7.39v22.31C-2773.21,79.9-2776.52,83.21-2780.61,83.21z"/>
		<g>
			<line class="st1" x1="-2825.31" y1="7.49" x2="-2799.14" y2="33.65"/>
			<line class="st1" x1="-2774.14" y1="7.49" x2="-2800.31" y2="33.65"/>
		</g>
	</g>
</g>
<g>
	<polygon class="st1" points="-3991.97,96.06 -4056.86,96.06 -4056.86,7.94 -4013.96,7.94 -4002.97,18.94 -3991.97,29.94 	"/>
	<polyline class="st1" points="-4013.96,7.94 -4013.96,29.48 -3991.97,29.48 	"/>
</g>
<g>
	
		<rect x="-3432.14" y="36.36" transform="matrix(-1.836970e-16 1 -1 -1.836970e-16 -3367.6716 3484.207)" class="st1" width="12.39" height="43.82"/>
	<rect x="-3449.07" y="7.64" class="st1" width="12.39" height="88.26"/>
	<rect x="-3410.66" y="52.07" class="st1" width="12.39" height="43.82"/>
</g>
<g>
	<g>
		<polygon class="st1" points="-3583.66,95.21 -3648.72,95.21 -3648.72,6.86 -3605.71,6.86 -3594.68,17.89 -3583.66,28.91 		"/>
		<polyline class="st1" points="-3605.71,6.86 -3605.71,28.45 -3583.66,28.45 		"/>
	</g>
	<line class="st1" x1="-3633.02" y1="48.68" x2="-3601.01" y2="48.68"/>
	<line class="st1" x1="-3633.29" y1="61.92" x2="-3601.29" y2="61.92"/>
	<line class="st1" x1="-3633.29" y1="75.17" x2="-3601.29" y2="75.17"/>
</g>
<g>
	<g>
		<path class="st4" d="M-3206.06,58.16v0.37c0,4.38-3.02,7.11-7.37,7.77v3.94h-4.42v-3.9c-5.08-0.7-8.25-3.98-8.25-9.28v-0.81h4.86
			v0.59c0,2.39,1.07,4.13,3.39,4.79v-7c-4.68-1.14-7.29-3.13-7.29-7.37v-0.22c0-4.02,3.09-6.67,7.29-7.26v-3.87h4.42v4.01
			c4.16,0.81,7,3.65,7,7.92v1.11h-4.86v-0.74c0-1.84-0.77-2.95-2.14-3.54v6.15C-3208.67,51.97-3206.06,53.96-3206.06,58.16z
			 M-3217.84,49.84v-5.38c-1.47,0.44-2.36,1.44-2.36,2.65C-3220.2,48.62-3219.28,49.32-3217.84,49.84z M-3210.99,58.53
			c0-1.47-0.85-2.28-2.43-2.84v5.93C-3211.8,61.07-3210.99,59.86-3210.99,58.53z"/>
	</g>
</g>
<g>
	<circle class="st5" cx="-374.89" cy="-208.86" r="35.69"/>
	<g>
		<circle class="st6" cx="-388.69" cy="-215.91" r="1.7"/>
		<circle class="st6" cx="-361.09" cy="-215.91" r="1.7"/>
	</g>
	<path class="st7" d="M-387.41-200.88c6.92,6.92,18.12,6.92,25.04,0"/>
</g>
<g>
	<circle class="st5" cx="-311.03" cy="-208.86" r="35.69"/>
	<g>
		<circle class="st6" cx="-324.83" cy="-215.91" r="1.7"/>
		<circle class="st6" cx="-297.23" cy="-215.91" r="1.7"/>
	</g>
	<path class="st7" d="M-323.55-200.88c6.92,6.92,18.12,6.92,25.04,0"/>
</g>
<g>
	<circle class="st5" cx="-247.17" cy="-208.86" r="35.69"/>
	<g>
		<circle class="st6" cx="-260.97" cy="-215.91" r="1.7"/>
		<circle class="st6" cx="-233.37" cy="-215.91" r="1.7"/>
	</g>
	<path class="st7" d="M-259.69-200.88c6.92,6.92,18.12,6.92,25.04,0"/>
</g>
<polygon class="st1" points="-2995.93,70.76 -2977.97,88.4 -2977.97,70.76 -2960.33,70.76 -2977.97,52.8 -2960.33,34.84 
	-2977.97,34.84 -2977.97,17.2 -2995.93,34.84 -3013.9,17.2 -3013.9,34.84 -3031.53,34.84 -3013.9,52.8 -3031.53,70.76 
	-3013.9,70.76 -3013.9,88.4 "/>
<path class="st0" d="M44.07,28.53C24.65,17.44,4.38,29.92,5.33,50.56c1.04,22.68,19.59,51.75,37.54,44.64
	c2.43-0.97,5.14-0.97,7.57,0c17.95,7.11,36.49-21.97,37.54-44.64c0.95-20.59-19.24-33.06-38.63-22.09L44.07,28.53z"/>
<path class="st0" d="M53.76,7.25c-8.08,8.08-9.27,20.42-3.57,29.75"/>
<path class="st0" d="M259.18,11.26c-15.65,1.49-19.56,16.36-22.4,32.85c-0.54,3.15-2.3,6.02-4.34,9.34
	c-3.7,6.02-8.29,13.51-5.89,25.26c1.08,5.52,4.51,10.3,9.39,13.1c6.38,3.78,15.19,4.62,22.99,2.21c1.59-0.51,3.3-0.44,4.84,0.2
	c3.02,1.27,6.28,1.91,9.56,1.88c3.96,0.01,7.88-0.85,11.47-2.52c6.07-2.82,10.57-8.21,12.26-14.69c3.27-11.72-1.68-19.37-5.65-25.52
	c-2.06-3.18-4-6.18-4.53-9.27c-2.83-16.42-6.72-31.25-22.22-32.84L259.18,11.26z"/>
<path class="st0" d="M267.94-5.62c-8.32,8.32-10.13,20.68-5.43,30.75"/>
<g>
	<rect x="-1216.39" y="16.17" class="st1" width="99.16" height="71.2"/>
	<rect x="-1216.39" y="51.77" class="st8" width="99.16" height="35.6"/>
	<rect x="-1216.39" y="16.17" class="st9" width="35.6" height="35.6"/>
</g>
<polygon class="st1" points="-126.8,88.87 -177.84,96.56 -177.84,7.69 -126.8,0 "/>
<rect x="-177.84" y="8.65" class="st1" width="63.23" height="88.87"/>
<g>
	<polygon class="st0" points="-778.93,102.42 -778.93,113.57 -790.09,102.42 -810.01,102.42 -810.01,12.13 -713.94,12.13 
		-713.94,102.42 	"/>
</g>
<g>
	<g>
		<circle class="st0" cx="-987.21" cy="39.53" r="20.4"/>
		<line class="st0" x1="-972.16" y1="54.58" x2="-964.43" y2="62.32"/>
	</g>
	
		<rect x="-958.39" y="57.23" transform="matrix(0.7071 -0.7071 0.7071 0.7071 -331.5043 -652.0003)" class="st0" width="11.21" height="33.86"/>
</g>
<g>
	<path class="st0" d="M-1371.85,45.29c-0.63,4.55-2.69,8.93-6.18,12.43c-8.52,8.52-22.33,8.52-30.85,0s-8.52-22.33,0-30.85
		s22.33-8.52,30.85,0C-1373.01,31.89-1370.95,38.75-1371.85,45.29"/>
	<polyline class="st0" points="-1370.85,45.13 -1337.6,83.36 -1351.07,96.83 -1389.31,63.58 	"/>
	<line class="st0" x1="-1344.86" y1="90.62" x2="-1326.57" y2="108.92"/>
	<line class="st0" x1="-1408.89" y1="57.72" x2="-1378.83" y2="27.66"/>
</g>
<g>
	<rect x="-587.1" y="7.44" class="st0" width="65.29" height="88.66"/>
	<g>
		<polyline class="st0" points="-574.61,30.44 -568.73,34.73 -561.33,23.02 		"/>
		<polyline class="st0" points="-547.59,54.09 -541.71,58.39 -534.31,46.67 		"/>
		<g>
			<line class="st0" x1="-534.53" y1="24.2" x2="-547.36" y2="37.03"/>
			<line class="st0" x1="-547.36" y1="24.2" x2="-534.53" y2="37.03"/>
		</g>
		<g>
			<line class="st0" x1="-561.56" y1="67.69" x2="-574.39" y2="80.52"/>
			<line class="st0" x1="-574.39" y1="67.69" x2="-561.56" y2="80.52"/>
		</g>
		<line class="st0" x1="-573.82" y1="52.53" x2="-562.13" y2="52.53"/>
		<line class="st0" x1="-546.8" y1="74.11" x2="-535.1" y2="74.11"/>
	</g>
</g>
<polygon class="st0" points="-1575.04,19.02 -1563.47,42.46 -1537.61,46.21 -1556.32,64.46 -1551.9,90.22 -1575.04,78.05 
	-1598.17,90.22 -1593.75,64.46 -1612.47,46.21 -1586.6,42.46 "/>
<g>
	<rect x="-1837.22" y="27.01" class="st0" width="116.13" height="71.69"/>
	<polyline class="st0" points="-1837.11,27.01 -1778.34,62.85 -1721.19,27.01 	"/>
</g>
<g>
	<g>
		<polygon class="st0" points="-1993.81,98.55 -2059.22,98.55 -2059.22,9.73 -2015.98,9.73 -2004.9,20.82 -1993.81,31.9 		"/>
		<polyline class="st0" points="-2015.98,9.73 -2015.98,31.44 -1993.81,31.44 		"/>
	</g>
	<line class="st0" x1="-2043.44" y1="51.77" x2="-2011.26" y2="51.77"/>
	<line class="st10" x1="-2043.72" y1="65.09" x2="-2011.54" y2="65.09"/>
	<line class="st10" x1="-2043.72" y1="78.4" x2="-2011.54" y2="78.4"/>
</g>
<g>
	<g>
		<polygon class="st0" points="-1907.31,98.55 -1972.72,98.55 -1972.72,9.73 -1929.48,9.73 -1918.4,20.82 -1907.31,31.9 		"/>
		<polyline class="st0" points="-1929.48,9.73 -1929.48,31.44 -1907.31,31.44 		"/>
	</g>
	<line class="st0" x1="-1956.94" y1="51.77" x2="-1924.76" y2="51.77"/>
	<line class="st10" x1="-1957.21" y1="65.09" x2="-1925.04" y2="65.09"/>
	<line class="st10" x1="-1957.21" y1="78.4" x2="-1925.04" y2="78.4"/>
</g>
<polyline class="st0" points="-1955.12,29.5 -1949.23,33.81 -1941.81,22.07 "/>
<g>
	<line class="st0" x1="-2029.89" y1="21.51" x2="-2042.75" y2="34.37"/>
	<line class="st0" x1="-2042.75" y1="21.51" x2="-2029.89" y2="34.37"/>
</g>
<g>
	<g>
		<g>
			<polygon class="st0" points="-2225.27,88.72 -2160.86,88.72 -2160.86,-0.07 -2203.44,-0.07 -2214.35,11.01 -2225.27,22.09 			"/>
			<polyline class="st0" points="-2203.44,-0.07 -2203.44,21.63 -2225.27,21.63 			"/>
		</g>
	</g>
</g>
<g>
	<g>
		<circle class="st1" cx="-2172.28" cy="36.95" r="20.88"/>
		<line class="st1" x1="-2156.88" y1="52.36" x2="-2148.96" y2="60.28"/>
	</g>
	
		<rect x="-2142.78" y="55.07" transform="matrix(0.7071 -0.7071 0.7071 0.7071 -677.1204 -1489.9088)" class="st1" width="11.48" height="34.67"/>
</g>
<g>
	<path class="st0" d="M-2333.1,54.91c0,0-17.49,41.31-58.39,41.31s-58.39-41.31-58.39-41.31v-0.77c0,0,12.46-21.34,25.4-27.36
		c12.94-6.02,32.99,4.23,32.99,4.23l0,0c0,0,19.92-10.25,32.87-4.23c12.94,6.02,25.4,27.36,25.4,27.36L-2333.1,54.91z"/>
	<path class="st0" d="M-2449.89,54.14c0,0,48.67,12.89,116.79,0.77"/>
</g>
<g>
	<path class="st0" d="M-2550.82,54.45c0,0-17.47,35.88-58.34,35.88c-40.87,0-58.34-35.88-58.34-35.88s17.47-35.88,58.34-35.88
		C-2568.29,18.57-2550.82,54.45-2550.82,54.45z"/>
	<circle class="st0" cx="-2609.16" cy="53.47" r="17.39"/>
</g>
<g>
	<circle class="st5" cx="466.11" cy="56.72" r="35.69"/>
	<g>
		<circle class="st6" cx="452.31" cy="49.66" r="1.7"/>
		<circle class="st6" cx="479.92" cy="49.66" r="1.7"/>
	</g>
	<path class="st7" d="M453.59,64.7c6.92,6.92,18.12,6.92,25.04,0"/>
</g>
<g>
	<circle class="st1" cx="677.64" cy="31.76" r="22.82"/>
	<line class="st1" x1="677.64" y1="54.58" x2="677.64" y2="97.92"/>
	<line class="st1" x1="659.54" y1="73.77" x2="695.73" y2="73.77"/>
</g>
<g>
	<circle class="st1" cx="855.49" cy="73.47" r="22.82"/>
	<line class="st1" x1="871.71" y1="56.78" x2="911.34" y2="17.15"/>
	<polyline class="st0" points="884.92,17.15 911.34,17.15 911.34,43.57 	"/>
</g>
</svg>
