<?xml version="1.0" encoding="utf-8"?>
<!-- Generator: Adobe Illustrator 24.2.0, SVG Export Plug-In . SVG Version: 6.00 Build 0)  -->
<svg version="1.1" id="Capa_1" xmlns="http://www.w3.org/2000/svg" xmlns:xlink="http://www.w3.org/1999/xlink" x="0px" y="0px"
	 viewBox="0 0 129.21 85.09" style="enable-background:new 0 0 129.21 85.09;" xml:space="preserve">
<style type="text/css">
	.st0{fill:none;stroke:#000000;stroke-width:6.5;stroke-miterlimit:10;}
	.st1{fill:#FFFFFF;stroke:#000000;stroke-width:6.5;stroke-miterlimit:10;}
	.st2{fill:#FFFFFF;}
	.st3{stroke:#000000;stroke-width:6.5;stroke-miterlimit:10;}
	.st4{fill:#1D1D1B;}
	.st5{fill:#FFFFFF;stroke:#1D1D1B;stroke-width:6.5;stroke-miterlimit:10;}
	.st6{fill:#1D1D1B;stroke:#1D1D1B;stroke-width:6.5;stroke-miterlimit:10;}
	.st7{fill:none;stroke:#1D1D1B;stroke-width:6.5;stroke-miterlimit:10;}
	.st8{fill:#FC5439;stroke:#000000;stroke-width:6.5;stroke-miterlimit:10;}
	.st9{fill:#3A90FD;stroke:#000000;stroke-width:6.5;stroke-miterlimit:10;}
	.st10{fill:#F1CD08;stroke:#000000;stroke-width:6.5;stroke-miterlimit:10;}
</style>
<g>
	<path class="st0" d="M-5068.48,71.79V-2.55c0-4.23,3.43-7.65,7.65-7.65h54.6v77.9"/>
	<path class="st0" d="M-5044.91,78.53h38.68V65.04h-55.51c-3.72,0-6.74,3.02-6.74,6.74v0c0,3.72,3.02,6.74,6.74,6.74h1.52"/>
	<rect x="-5050.81" y="10.57" class="st0" width="26.92" height="15.7"/>
	<polygon class="st0" points="-5047.09,91.68 -5052.35,96.99 -5057.61,91.68 -5057.61,74.73 -5047.09,74.73 	"/>
</g>
<polygon class="st0" points="-5399.18,34.41 -5434.86,-1.26 -5434.86,14.24 -5491.98,14.24 -5491.98,55.98 -5434.86,55.98 
	-5434.86,70.08 "/>
<g>
	<polyline class="st0" points="-5226.25,7.79 -5202.61,7.79 -5202.61,78.99 -5279.47,78.99 -5279.47,7.79 -5249.34,7.79 	"/>
	<polygon class="st0" points="-5243.98,19.61 -5252.56,11.02 -5231.37,-10.17 -5219.83,1.38 -5238.06,19.61 	"/>
	<polyline class="st0" points="-5253.94,19.61 -5243.98,19.61 -5238.06,19.61 -5228.15,19.61 	"/>
</g>
<g>
	<polygon class="st0" points="-5614.4,-19.89 -5690.42,31.67 -5698.15,51.08 -5677.26,51.08 -5601.24,-0.48 	"/>
	<line class="st0" x1="-5690.42" y1="31.67" x2="-5677.26" y2="51.08"/>
</g>
<g>
	<g>
		<path class="st1" d="M-4828.59,67.37h24.01c19.62,0,35.53-15.91,35.53-35.53v0c0-19.62-15.91-35.53-35.53-35.53l-3.72,0l-78.89,0
			c-4.91,0-8.88,3.98-8.88,8.88v0c0,4.91,3.98,8.88,8.88,8.88h68.05v0"/>
		<path class="st1" d="M-4819.14,14.08h-21.1c-4.9,0-8.88,3.98-8.88,8.88v0c0,4.91,3.98,8.88,8.88,8.88h19.4h1.7
			c4.91,0,8.88-3.98,8.88-8.88v0C-4810.26,18.06-4814.24,14.08-4819.14,14.08z"/>
		<path class="st1" d="M-4818.51,31.84h-21.09c-4.91,0-8.88,3.98-8.88,8.88v0c0,4.91,3.98,8.88,8.88,8.88h19.4h1.7
			c4.91,0,8.88-3.98,8.88-8.88v0C-4809.63,35.82-4813.6,31.84-4818.51,31.84z"/>
		<path class="st1" d="M-4818.51,49.61h-21.09c-4.91,0-8.88,3.98-8.88,8.88v0c0,4.91,3.98,8.88,8.88,8.88h19.4h1.7
			c4.91,0,8.88-3.98,8.88-8.88v0C-4809.63,53.58-4813.6,49.61-4818.51,49.61z"/>
	</g>
	<path class="st1" d="M-4805.06-1.81l-11.69,23.48c-2.15,4.41-0.32,9.73,4.09,11.88v0c4.41,2.15,9.73,0.32,11.88-4.09l8.54-17.14"/>
</g>
<g>
	<ellipse class="st2" cx="-4623.33" cy="37.43" rx="28.07" ry="18.08"/>
	<g>
		<path class="st1" d="M-4603.96,32.69V18.06c0-3.72,3.01-6.73,6.73-6.73h0c3.71,0,6.73,3.01,6.73,6.73v22.75
			c0,18.59-15.07,33.66-33.66,33.66l0,0c-18.59,0-33.66-15.07-33.66-33.66V17.7l0,0c7.43,0,13.45,6.02,13.45,13.45v8.75l0,0
			c7.42,0,13.44,6.02,13.44,13.44v0.83"/>
		<path class="st1" d="M-4604.03,32.69V-0.08c0-3.72-3.01-6.73-6.73-6.73l0,0c-3.72,0-6.73,3.01-6.73,6.73v25.15"/>
		<path class="st1" d="M-4617.48,28.86V-6.91c0-3.72-3.01-6.73-6.73-6.73l0,0c-3.72,0-6.73,3.01-6.73,6.73v25.15"/>
		<path class="st1" d="M-4630.94,28.08V-1.69c0-3.72-3.01-6.73-6.73-6.73l0,0c-3.72,0-6.73,3.01-6.73,6.73v37.79"/>
	</g>
</g>
<g>
	<line class="st0" x1="-4438.05" y1="-181.93" x2="-4361.49" y2="-200.91"/>
	<circle class="st1" cx="-4438.05" cy="-181.93" r="25.98"/>
	<line class="st0" x1="-4284.69" y1="-181.92" x2="-4361.24" y2="-200.9"/>
	<circle class="st1" cx="-4284.69" cy="-181.93" r="25.98"/>
	<circle class="st1" cx="-4361.49" cy="-200.91" r="25.98"/>
</g>
<g>
	<circle class="st0" cx="-4215.52" cy="28.86" r="35.6"/>
	<g>
		<circle class="st3" cx="-4229.29" cy="21.82" r="1.69"/>
		<circle class="st3" cx="-4201.75" cy="21.82" r="1.69"/>
	</g>
	<path class="st0" d="M-4228.01,36.82c6.9,6.9,18.07,6.9,24.98,0"/>
</g>
<g>
	<line class="st0" x1="-3982.71" y1="-3.78" x2="-3982.71" y2="68.07"/>
	<line class="st0" x1="-4053.03" y1="32.14" x2="-4103.94" y2="32.14"/>
	<line class="st0" x1="-3943.11" y1="32.14" x2="-3994.02" y2="32.14"/>
	<rect x="-4072.42" y="12.89" class="st1" width="89.71" height="38.51"/>
	<line class="st0" x1="-3944.72" y1="16.38" x2="-3944.72" y2="47.91"/>
	<line class="st0" x1="-4031.2" y1="13.63" x2="-4031.2" y2="28.59"/>
	<line class="st0" x1="-4017.57" y1="14.85" x2="-4017.57" y2="36.26"/>
</g>
<circle class="st1" cx="-1371.4" cy="34.06" r="35.26"/>
<g>
	<rect x="-3846.53" y="-13.99" class="st1" width="70.6" height="50.69"/>
	<line class="st1" x1="-3846.53" y1="-21.71" x2="-3846.53" y2="67.68"/>
	<rect x="-3846.53" y="11.36" class="st1" width="70.6" height="25.35"/>
	<rect x="-3846.53" y="-13.99" class="st1" width="25.35" height="25.35"/>
</g>
<g transform="translate(0,-952.36218)">
	<path class="st1" d="M-3637.59,1007.21c0,18.4,13.01,33.32,29.05,33.32c16.03,0,29.05-14.92,29.05-33.32
		c0-18.4-13.96-38.93-29.05-56.24C-3608.54,950.97-3637.59,983.99-3637.59,1007.21z"/>
</g>
<g>
	<polyline class="st1" points="-3460.61,29.28 -3415.87,-15.45 -3371.14,29.28 	"/>
	<path class="st1" d="M-3415.87,21.53"/>
	<polygon class="st1" points="-3385.58,73.18 -3446.16,73.18 -3446.16,14.87 -3415.87,-15.45 -3385.58,14.87 	"/>
	<polyline class="st0" points="-3428.99,73.18 -3428.99,37.83 -3402.76,37.83 -3402.76,73.18 	"/>
</g>
<g>
	<circle class="st1" cx="-1975.62" cy="34.41" r="35.29"/>
	<polyline class="st1" points="-1989.18,34.03 -1981,43.83 -1962.07,24.99 	"/>
</g>
<g>
	<g>
		<g>
			<rect x="-3235.08" y="3.61" class="st0" width="69.54" height="69.54"/>
			<g>
				<line class="st1" x1="-3220.17" y1="-7.18" x2="-3220.17" y2="14.4"/>
				<line class="st1" x1="-3180.46" y1="-7.18" x2="-3180.46" y2="14.4"/>
			</g>
		</g>
		<line class="st1" x1="-3235.08" y1="26.31" x2="-3165.54" y2="26.31"/>
	</g>
	<g>
		<path class="st4" d="M-3199.71,38.56v4.07l-6.81,5.54v0.42h0.91c3.4,0,6.46,2.35,6.46,6.81c0,4.98-3.79,8.21-9.26,8.21
			c-5.86,0-9.4-3.47-9.4-8.35v-0.98h4.63v0.84c0,2.39,1.65,4.35,4.77,4.35c2.91,0,4.63-1.72,4.63-4.07c0-2.35-1.65-3.51-4-3.51
			h-4.28v-4.14l6.07-4.98h-11.12v-4.21H-3199.71z"/>
		<path class="st4" d="M-3184.34,38.56v24.56h-4.63V43.47h-0.42l-3.44,6.18h-4.84l6.32-11.09H-3184.34z"/>
	</g>
</g>
<g>
	<g>
		<circle class="st1" cx="-2997.98" cy="38.33" r="34.11"/>
		<g>
			<path class="st1" d="M-3003.46,4.98c-15.63,19.6-15.53,47.58,0.29,67.07"/>
			<path class="st1" d="M-2991.57,4.97c15.48,19.42,15.53,47.05,0.16,66.52"/>
		</g>
		<line class="st1" x1="-3032.09" y1="38.33" x2="-2963.88" y2="38.33"/>
		<line class="st1" x1="-2997.51" y1="4.42" x2="-2997.51" y2="72.24"/>
	</g>
</g>
<g>
	<circle class="st1" cx="-2805.51" cy="14.69" r="22.82"/>
	<line class="st1" x1="-2805.51" y1="37.51" x2="-2805.51" y2="80.84"/>
	<line class="st1" x1="-2823.61" y1="56.69" x2="-2787.41" y2="56.69"/>
</g>
<g>
	<circle class="st1" cx="-2593.04" cy="25.24" r="22.82"/>
	<line class="st1" x1="-2576.83" y1="8.55" x2="-2537.19" y2="-31.09"/>
	<polyline class="st0" points="-2563.61,-31.09 -2537.19,-31.09 -2537.19,-4.66 	"/>
</g>
<path class="st1" d="M-2339.26,41.75V29.71l-36.59-13.14l0.48-18.57c0.09-2.9-1.09-5.69-3.23-7.65v0
	c-3.79-3.47-9.61-3.48-13.41-0.01l-0.01,0.01c-2.15,1.96-3.34,4.76-3.24,7.66l0.48,18.55l-33.67,12.17v12.04l34.33-6.35l1.48,23.62
	l-12.3,10.06v8.46l20.03-9.74l20.03,9.74v-8.46l-13.09-10.58l1.44-22.86L-2339.26,41.75z"/>
<g>
	<g>
		<g>
			<g>
				<g>
					<g>
						<rect x="-995.02" y="14.91" class="st2" width="79.95" height="61.47"/>
						<rect x="-995.02" y="14.91" class="st0" width="79.95" height="61.47"/>
					</g>
				</g>
			</g>
		</g>
		<path class="st1" d="M-935.93,64.19h-38.24c-4.08,0-7.39-3.31-7.39-7.39V34.5c0-4.08,3.31-7.39,7.39-7.39h38.24
			c4.08,0,7.39,3.31,7.39,7.39V56.8C-928.54,60.88-931.85,64.19-935.93,64.19z"/>
		<g>
			<line class="st1" x1="-980.63" y1="-11.53" x2="-954.46" y2="14.63"/>
			<line class="st1" x1="-929.46" y1="-11.53" x2="-955.63" y2="14.63"/>
		</g>
	</g>
</g>
<g>
	<polygon class="st1" points="-2147.29,77.04 -2212.19,77.04 -2212.19,-11.08 -2169.29,-11.08 -2158.29,-0.08 -2147.29,10.92 	"/>
	<polyline class="st1" points="-2169.29,-11.08 -2169.29,10.46 -2147.29,10.46 	"/>
</g>
<g>
	
		<rect x="-1587.46" y="17.34" transform="matrix(-1.836970e-16 1 -1 -1.836970e-16 -1542.0126 1620.5088)" class="st1" width="12.39" height="43.82"/>
	<rect x="-1604.39" y="-11.38" class="st1" width="12.39" height="88.26"/>
	<rect x="-1565.98" y="33.05" class="st1" width="12.39" height="43.82"/>
</g>
<g>
	<g>
		<polygon class="st1" points="-1738.98,76.19 -1804.04,76.19 -1804.04,-12.16 -1761.03,-12.16 -1750,-1.13 -1738.98,9.89 		"/>
		<polyline class="st1" points="-1761.03,-12.16 -1761.03,9.43 -1738.98,9.43 		"/>
	</g>
	<line class="st1" x1="-1788.34" y1="29.66" x2="-1756.33" y2="29.66"/>
	<line class="st1" x1="-1788.62" y1="42.9" x2="-1756.61" y2="42.9"/>
	<line class="st1" x1="-1788.62" y1="56.15" x2="-1756.61" y2="56.15"/>
</g>
<g>
	<g>
		<path class="st4" d="M-1361.38,39.14v0.37c0,4.38-3.02,7.11-7.37,7.77v3.94h-4.42v-3.9c-5.08-0.7-8.25-3.98-8.25-9.28v-0.81h4.86
			v0.59c0,2.39,1.07,4.13,3.39,4.79v-7c-4.68-1.14-7.29-3.13-7.29-7.37v-0.22c0-4.02,3.09-6.67,7.29-7.26V16.9h4.42v4.01
			c4.16,0.81,7,3.65,7,7.92v1.11h-4.86V29.2c0-1.84-0.77-2.95-2.14-3.54v6.15C-1363.99,32.96-1361.38,34.94-1361.38,39.14z
			 M-1373.16,30.82v-5.38c-1.47,0.44-2.36,1.44-2.36,2.65C-1375.52,29.6-1374.6,30.3-1373.16,30.82z M-1366.31,39.51
			c0-1.47-0.85-2.28-2.43-2.84v5.93C-1367.12,42.05-1366.31,40.84-1366.31,39.51z"/>
	</g>
</g>
<g>
	<circle class="st5" cx="1469.79" cy="-227.88" r="35.69"/>
	<g>
		<circle class="st6" cx="1455.99" cy="-234.93" r="1.7"/>
		<circle class="st6" cx="1483.59" cy="-234.93" r="1.7"/>
	</g>
	<path class="st7" d="M1457.27-219.9c6.92,6.92,18.12,6.92,25.04,0"/>
</g>
<g>
	<circle class="st5" cx="1533.65" cy="-227.88" r="35.69"/>
	<g>
		<circle class="st6" cx="1519.85" cy="-234.93" r="1.7"/>
		<circle class="st6" cx="1547.45" cy="-234.93" r="1.7"/>
	</g>
	<path class="st7" d="M1521.13-219.9c6.92,6.92,18.12,6.92,25.04,0"/>
</g>
<g>
	<circle class="st5" cx="1597.51" cy="-227.88" r="35.69"/>
	<g>
		<circle class="st6" cx="1583.71" cy="-234.93" r="1.7"/>
		<circle class="st6" cx="1611.31" cy="-234.93" r="1.7"/>
	</g>
	<path class="st7" d="M1584.99-219.9c6.92,6.92,18.12,6.92,25.04,0"/>
</g>
<polygon class="st1" points="-1151.25,51.74 -1133.29,69.38 -1133.29,51.74 -1115.65,51.74 -1133.29,33.78 -1115.65,15.82 
	-1133.29,15.82 -1133.29,-1.82 -1151.25,15.82 -1169.22,-1.82 -1169.22,15.82 -1186.85,15.82 -1169.22,33.78 -1186.85,51.74 
	-1169.22,51.74 -1169.22,69.38 "/>
<path class="st0" d="M1888.75,9.51c-19.42-11.08-39.69,1.39-38.74,22.03c1.04,22.68,19.59,51.75,37.54,44.64
	c2.43-0.97,5.14-0.97,7.57,0c17.95,7.11,36.49-21.97,37.54-44.64c0.95-20.59-19.24-33.06-38.63-22.09L1888.75,9.51z"/>
<path class="st0" d="M1898.44-11.77c-8.08,8.08-9.27,20.42-3.57,29.75"/>
<path class="st0" d="M2103.85-7.76c-15.65,1.49-19.56,16.36-22.4,32.85c-0.54,3.15-2.3,6.02-4.34,9.34
	c-3.7,6.02-8.29,13.51-5.89,25.26c1.08,5.52,4.51,10.3,9.39,13.1c6.38,3.78,15.19,4.62,22.99,2.21c1.59-0.51,3.3-0.44,4.84,0.2
	c3.02,1.27,6.28,1.91,9.56,1.88c3.96,0.01,7.88-0.85,11.47-2.52c6.07-2.82,10.57-8.21,12.26-14.69c3.27-11.72-1.68-19.37-5.65-25.52
	c-2.06-3.18-4-6.18-4.53-9.27c-2.83-16.42-6.72-31.25-22.22-32.84L2103.85-7.76z"/>
<path class="st0" d="M2112.61-24.64c-8.32,8.32-10.13,20.68-5.43,30.75"/>
<g>
	<rect x="628.29" y="-2.85" class="st1" width="99.16" height="71.2"/>
	<rect x="628.29" y="32.75" class="st8" width="99.16" height="35.6"/>
	<rect x="628.29" y="-2.85" class="st9" width="35.6" height="35.6"/>
</g>
<polygon class="st1" points="1717.88,69.85 1666.84,77.54 1666.84,-11.33 1717.88,-19.02 "/>
<rect x="1666.84" y="-10.37" class="st1" width="63.23" height="88.87"/>
<g>
	<polygon class="st0" points="1065.75,83.4 1065.75,94.55 1054.59,83.4 1034.67,83.4 1034.67,-6.89 1130.74,-6.89 1130.74,83.4 	"/>
</g>
<g>
	<g>
		<circle class="st0" cx="857.46" cy="20.52" r="20.4"/>
		<line class="st0" x1="872.51" y1="35.56" x2="880.25" y2="43.3"/>
	</g>
	
		<rect x="886.29" y="38.21" transform="matrix(0.7071 -0.7071 0.7071 0.7071 222.2384 646.8137)" class="st0" width="11.21" height="33.86"/>
</g>
<g>
	<path class="st0" d="M472.83,26.27c-0.63,4.55-2.69,8.93-6.18,12.43c-8.52,8.52-22.33,8.52-30.85,0s-8.52-22.33,0-30.85
		s22.33-8.52,30.85,0C471.67,12.87,473.73,19.73,472.83,26.27"/>
	<polyline class="st0" points="473.83,26.11 507.08,64.34 493.61,77.81 455.37,44.56 	"/>
	<line class="st0" x1="499.81" y1="71.6" x2="518.11" y2="89.9"/>
	<line class="st0" x1="435.79" y1="38.7" x2="465.85" y2="8.64"/>
</g>
<g>
	<rect x="1257.57" y="-11.58" class="st0" width="65.29" height="88.66"/>
	<g>
		<polyline class="st0" points="1270.06,11.42 1275.95,15.71 1283.35,4 		"/>
		<polyline class="st0" points="1297.09,35.07 1302.97,39.37 1310.37,27.65 		"/>
		<g>
			<line class="st0" x1="1310.14" y1="5.18" x2="1297.32" y2="18.01"/>
			<line class="st0" x1="1297.32" y1="5.18" x2="1310.14" y2="18.01"/>
		</g>
		<g>
			<line class="st0" x1="1283.12" y1="48.67" x2="1270.29" y2="61.5"/>
			<line class="st0" x1="1270.29" y1="48.67" x2="1283.12" y2="61.5"/>
		</g>
		<line class="st0" x1="1270.86" y1="33.51" x2="1282.55" y2="33.51"/>
		<line class="st0" x1="1297.88" y1="55.09" x2="1309.58" y2="55.09"/>
	</g>
</g>
<polygon class="st0" points="269.64,0 281.21,23.44 307.07,27.19 288.36,45.44 292.78,71.2 269.64,59.03 246.51,71.2 250.93,45.44 
	232.21,27.19 258.08,23.44 "/>
<g>
	<rect x="7.46" y="7.99" class="st0" width="116.13" height="71.69"/>
	<polyline class="st0" points="7.57,7.99 66.33,43.83 123.49,7.99 	"/>
</g>
<g>
	<g>
		<polygon class="st0" points="-149.14,79.53 -214.54,79.53 -214.54,-9.29 -171.3,-9.29 -160.22,1.8 -149.14,12.88 		"/>
		<polyline class="st0" points="-171.3,-9.29 -171.3,12.42 -149.14,12.42 		"/>
	</g>
	<line class="st0" x1="-198.76" y1="32.75" x2="-166.58" y2="32.75"/>
	<line class="st10" x1="-199.04" y1="46.07" x2="-166.86" y2="46.07"/>
	<line class="st10" x1="-199.04" y1="59.38" x2="-166.86" y2="59.38"/>
</g>
<g>
	<g>
		<polygon class="st0" points="-62.63,79.53 -128.04,79.53 -128.04,-9.29 -84.8,-9.29 -73.72,1.8 -62.63,12.88 		"/>
		<polyline class="st0" points="-84.8,-9.29 -84.8,12.42 -62.63,12.42 		"/>
	</g>
	<line class="st0" x1="-112.26" y1="32.75" x2="-80.08" y2="32.75"/>
	<line class="st10" x1="-112.54" y1="46.07" x2="-80.36" y2="46.07"/>
	<line class="st10" x1="-112.54" y1="59.38" x2="-80.36" y2="59.38"/>
</g>
<polyline class="st0" points="-110.44,10.48 -104.55,14.79 -97.13,3.05 "/>
<g>
	<line class="st0" x1="-185.22" y1="2.49" x2="-198.07" y2="15.35"/>
	<line class="st0" x1="-198.07" y1="2.49" x2="-185.22" y2="15.35"/>
</g>
<g>
	<g>
		<g>
			<polygon class="st0" points="-380.59,69.7 -316.18,69.7 -316.18,-19.09 -358.76,-19.09 -369.68,-8.01 -380.59,3.07 			"/>
			<polyline class="st0" points="-358.76,-19.09 -358.76,2.61 -380.59,2.61 			"/>
		</g>
	</g>
</g>
<g>
	<g>
		<circle class="st1" cx="-327.61" cy="17.93" r="20.88"/>
		<line class="st1" x1="-312.2" y1="33.34" x2="-304.28" y2="41.26"/>
	</g>
	
		<rect x="-298.1" y="36.05" transform="matrix(0.7071 -0.7071 0.7071 0.7071 -123.3778 -191.0948)" class="st1" width="11.48" height="34.67"/>
</g>
<g>
	<path class="st0" d="M-488.43,35.89c0,0-17.48,41.31-58.39,41.31s-58.39-41.31-58.39-41.31v-0.77c0,0,12.46-21.34,25.4-27.36
		c12.94-6.02,32.99,4.23,32.99,4.23l0,0c0,0,19.92-10.25,32.87-4.23c12.94,6.02,25.4,27.36,25.4,27.36L-488.43,35.89z"/>
	<path class="st0" d="M-605.21,35.12c0,0,48.67,12.89,116.79,0.77"/>
</g>
<g>
	<path class="st0" d="M-706.15,35.43c0,0-17.47,35.88-58.34,35.88s-58.34-35.88-58.34-35.88s17.47-35.88,58.34-35.88
		S-706.15,35.43-706.15,35.43z"/>
	<circle class="st0" cx="-764.48" cy="34.45" r="17.39"/>
</g>
<g>
	<circle class="st5" cx="2310.79" cy="37.7" r="35.69"/>
	<g>
		<circle class="st6" cx="2296.99" cy="30.64" r="1.7"/>
		<circle class="st6" cx="2324.59" cy="30.64" r="1.7"/>
	</g>
	<path class="st7" d="M2298.27,45.68c6.92,6.92,18.12,6.92,25.04,0"/>
</g>
<g>
	<circle class="st1" cx="2522.31" cy="12.74" r="22.82"/>
	<line class="st1" x1="2522.31" y1="35.56" x2="2522.31" y2="78.9"/>
	<line class="st1" x1="2504.22" y1="54.75" x2="2540.41" y2="54.75"/>
</g>
<g>
	<circle class="st1" cx="2700.17" cy="54.45" r="22.82"/>
	<line class="st1" x1="2716.39" y1="37.76" x2="2756.02" y2="-1.87"/>
	<polyline class="st0" points="2729.6,-1.87 2756.02,-1.87 2756.02,24.55 	"/>
</g>
</svg>
