<?xml version="1.0" encoding="utf-8"?>
<!-- Generator: Adobe Illustrator 24.2.0, SVG Export Plug-In . SVG Version: 6.00 Build 0)  -->
<svg version="1.1" id="Capa_1" xmlns="http://www.w3.org/2000/svg" xmlns:xlink="http://www.w3.org/1999/xlink" x="0px" y="0px"
	 viewBox="0 0 98.36 97.58" style="enable-background:new 0 0 98.36 97.58;" xml:space="preserve">
<style type="text/css">
	.st0{fill:none;stroke:#000000;stroke-width:6.5;stroke-miterlimit:10;}
	.st1{fill:#FFFFFF;stroke:#000000;stroke-width:6.5;stroke-miterlimit:10;}
	.st2{fill:#FFFFFF;}
	.st3{stroke:#000000;stroke-width:6.5;stroke-miterlimit:10;}
	.st4{fill:#1D1D1B;}
	.st5{fill:#FFFFFF;stroke:#1D1D1B;stroke-width:6.5;stroke-miterlimit:10;}
	.st6{fill:#1D1D1B;stroke:#1D1D1B;stroke-width:6.5;stroke-miterlimit:10;}
	.st7{fill:none;stroke:#1D1D1B;stroke-width:6.5;stroke-miterlimit:10;}
	.st8{fill:#FC5439;stroke:#000000;stroke-width:6.5;stroke-miterlimit:10;}
	.st9{fill:#3A90FD;stroke:#000000;stroke-width:6.5;stroke-miterlimit:10;}
	.st10{fill:#F1CD08;stroke:#000000;stroke-width:6.5;stroke-miterlimit:10;}
</style>
<g>
	<path class="st0" d="M-5492.76,74.63V0.3c0-4.23,3.43-7.65,7.65-7.65h54.6v77.9"/>
	<path class="st0" d="M-5469.19,81.38h38.68V67.89h-55.51c-3.72,0-6.74,3.02-6.74,6.74v0c0,3.72,3.02,6.74,6.74,6.74h1.52"/>
	<rect x="-5475.1" y="13.41" class="st0" width="26.92" height="15.7"/>
	<polygon class="st0" points="-5471.38,94.53 -5476.64,99.83 -5481.9,94.53 -5481.9,77.57 -5471.38,77.57 	"/>
</g>
<polygon class="st0" points="-5823.47,37.26 -5859.14,1.58 -5859.14,17.09 -5916.26,17.09 -5916.26,58.82 -5859.14,58.82 
	-5859.14,72.93 "/>
<g>
	<polyline class="st0" points="-5650.53,10.64 -5626.89,10.64 -5626.89,81.84 -5703.76,81.84 -5703.76,10.64 -5673.62,10.64 	"/>
	<polygon class="st0" points="-5668.27,22.45 -5676.85,13.87 -5655.66,-7.32 -5644.11,4.22 -5662.34,22.45 	"/>
	<polyline class="st0" points="-5678.22,22.45 -5668.27,22.45 -5662.34,22.45 -5652.43,22.45 	"/>
</g>
<g>
	<polygon class="st0" points="-6038.69,-17.04 -6114.71,34.52 -6122.44,53.93 -6101.55,53.92 -6025.53,2.37 	"/>
	<line class="st0" x1="-6114.71" y1="34.52" x2="-6101.55" y2="53.92"/>
</g>
<g>
	<g>
		<path class="st1" d="M-5252.87,70.22h24.01c19.62,0,35.53-15.91,35.53-35.53v0c0-19.62-15.91-35.53-35.53-35.53l-3.72,0l-78.89,0
			c-4.91,0-8.88,3.98-8.88,8.88v0c0,4.91,3.98,8.88,8.88,8.88h68.05v0"/>
		<path class="st1" d="M-5243.43,16.93h-21.1c-4.91,0-8.88,3.98-8.88,8.88v0c0,4.91,3.98,8.88,8.88,8.88h19.4h1.7
			c4.91,0,8.88-3.98,8.88-8.88v0C-5234.55,20.9-5238.52,16.93-5243.43,16.93z"/>
		<path class="st1" d="M-5242.79,34.69h-21.09c-4.91,0-8.88,3.98-8.88,8.88v0c0,4.91,3.98,8.88,8.88,8.88h19.4h1.7
			c4.91,0,8.88-3.98,8.88-8.88v0C-5233.91,38.67-5237.89,34.69-5242.79,34.69z"/>
		<path class="st1" d="M-5242.79,52.45h-21.09c-4.91,0-8.88,3.98-8.88,8.88v0c0,4.91,3.98,8.88,8.88,8.88h19.4h1.7
			c4.91,0,8.88-3.98,8.88-8.88v0C-5233.91,56.43-5237.89,52.45-5242.79,52.45z"/>
	</g>
	<path class="st1" d="M-5229.34,1.04l-11.69,23.48c-2.15,4.41-0.32,9.73,4.09,11.88v0c4.41,2.15,9.73,0.32,11.88-4.09l8.54-17.14"/>
</g>
<g>
	<ellipse class="st2" cx="-5047.61" cy="40.27" rx="28.07" ry="18.08"/>
	<g>
		<path class="st1" d="M-5028.25,35.54V20.9c0-3.72,3.01-6.73,6.73-6.73l0,0c3.72,0,6.73,3.01,6.73,6.73v22.75
			c0,18.59-15.07,33.66-33.66,33.66h0c-18.59,0-33.66-15.07-33.66-33.66V20.55l0,0c7.43,0,13.45,6.02,13.45,13.45v8.75l0,0
			c7.42,0,13.44,6.02,13.44,13.44v0.83"/>
		<path class="st1" d="M-5028.32,35.54V2.76c0-3.72-3.01-6.73-6.73-6.73l0,0c-3.72,0-6.73,3.01-6.73,6.73v25.15"/>
		<path class="st1" d="M-5041.77,31.71V-4.06c0-3.72-3.01-6.73-6.73-6.73l0,0c-3.72,0-6.73,3.01-6.73,6.73v25.15"/>
		<path class="st1" d="M-5055.22,30.93V1.15c0-3.72-3.01-6.73-6.73-6.73l0,0c-3.71,0-6.73,3.01-6.73,6.73v37.79"/>
	</g>
</g>
<g>
	<line class="st0" x1="-4862.33" y1="-179.09" x2="-4785.78" y2="-198.06"/>
	<circle class="st1" cx="-4862.33" cy="-179.09" r="25.98"/>
	<line class="st0" x1="-4708.97" y1="-179.07" x2="-4785.53" y2="-198.05"/>
	<circle class="st1" cx="-4708.97" cy="-179.09" r="25.98"/>
	<circle class="st1" cx="-4785.78" cy="-198.06" r="25.98"/>
</g>
<g>
	<circle class="st0" cx="-4639.8" cy="31.71" r="35.6"/>
	<g>
		<circle class="st3" cx="-4653.57" cy="24.67" r="1.69"/>
		<circle class="st3" cx="-4626.04" cy="24.67" r="1.69"/>
	</g>
	<path class="st0" d="M-4652.29,39.67c6.9,6.9,18.07,6.9,24.98,0"/>
</g>
<g>
	<line class="st0" x1="-4407" y1="-0.93" x2="-4407" y2="70.92"/>
	<line class="st0" x1="-4477.31" y1="34.99" x2="-4528.23" y2="34.99"/>
	<line class="st0" x1="-4367.39" y1="34.99" x2="-4418.31" y2="34.99"/>
	<rect x="-4496.71" y="15.73" class="st1" width="89.71" height="38.51"/>
	<line class="st0" x1="-4369.01" y1="19.23" x2="-4369.01" y2="50.75"/>
	<line class="st0" x1="-4455.49" y1="16.48" x2="-4455.49" y2="31.43"/>
	<line class="st0" x1="-4441.86" y1="17.69" x2="-4441.86" y2="39.11"/>
</g>
<circle class="st1" cx="-1795.68" cy="36.91" r="35.26"/>
<g>
	<rect x="-4270.82" y="-11.14" class="st1" width="70.6" height="50.69"/>
	<line class="st1" x1="-4270.82" y1="-18.87" x2="-4270.82" y2="70.53"/>
	<rect x="-4270.82" y="14.21" class="st1" width="70.6" height="25.35"/>
	<rect x="-4270.82" y="-11.14" class="st1" width="25.35" height="25.35"/>
</g>
<g transform="translate(0,-952.36218)">
	<path class="st1" d="M-4061.88,1010.06c0,18.4,13.01,33.32,29.05,33.32c16.03,0,29.05-14.92,29.05-33.32s-13.96-38.93-29.05-56.24
		C-4032.83,953.82-4061.88,986.84-4061.88,1010.06z"/>
</g>
<g>
	<polyline class="st1" points="-3884.89,32.13 -3840.16,-12.61 -3795.43,32.13 	"/>
	<path class="st1" d="M-3840.16,24.38"/>
	<polygon class="st1" points="-3809.87,76.03 -3870.45,76.03 -3870.45,17.72 -3840.16,-12.61 -3809.87,17.72 	"/>
	<polyline class="st0" points="-3853.28,76.03 -3853.28,40.68 -3827.04,40.68 -3827.04,76.03 	"/>
</g>
<g>
	<circle class="st1" cx="-2399.91" cy="37.26" r="35.29"/>
	<polyline class="st1" points="-2413.47,36.87 -2405.29,46.68 -2386.35,27.84 	"/>
</g>
<g>
	<g>
		<g>
			<rect x="-3659.37" y="6.46" class="st0" width="69.54" height="69.54"/>
			<g>
				<line class="st1" x1="-3644.45" y1="-4.34" x2="-3644.45" y2="17.25"/>
				<line class="st1" x1="-3604.75" y1="-4.34" x2="-3604.75" y2="17.25"/>
			</g>
		</g>
		<line class="st1" x1="-3659.37" y1="29.16" x2="-3589.83" y2="29.16"/>
	</g>
	<g>
		<path class="st4" d="M-3624,41.41v4.07l-6.81,5.54v0.42h0.91c3.4,0,6.46,2.35,6.46,6.81c0,4.98-3.79,8.21-9.26,8.21
			c-5.86,0-9.4-3.47-9.4-8.35v-0.98h4.63v0.84c0,2.39,1.65,4.35,4.77,4.35c2.91,0,4.63-1.72,4.63-4.07s-1.65-3.51-4-3.51h-4.28V50.6
			l6.07-4.98h-11.12v-4.21H-3624z"/>
		<path class="st4" d="M-3608.63,41.41v24.56h-4.63V46.32h-0.42l-3.44,6.18h-4.84l6.32-11.09H-3608.63z"/>
	</g>
</g>
<g>
	<g>
		<circle class="st1" cx="-3422.27" cy="41.18" r="34.11"/>
		<g>
			<path class="st1" d="M-3427.74,7.82c-15.63,19.6-15.53,47.58,0.29,67.07"/>
			<path class="st1" d="M-3415.85,7.82c15.48,19.42,15.53,47.05,0.16,66.52"/>
		</g>
		<line class="st1" x1="-3456.37" y1="41.18" x2="-3388.16" y2="41.18"/>
		<line class="st1" x1="-3421.8" y1="7.27" x2="-3421.8" y2="75.09"/>
	</g>
</g>
<g>
	<circle class="st1" cx="-3229.8" cy="17.53" r="22.82"/>
	<line class="st1" x1="-3229.8" y1="40.35" x2="-3229.8" y2="83.69"/>
	<line class="st1" x1="-3247.9" y1="59.54" x2="-3211.7" y2="59.54"/>
</g>
<g>
	<circle class="st1" cx="-3017.33" cy="28.09" r="22.82"/>
	<line class="st1" x1="-3001.11" y1="11.4" x2="-2961.48" y2="-28.24"/>
	<polyline class="st0" points="-2987.9,-28.24 -2961.48,-28.24 -2961.48,-1.81 	"/>
</g>
<path class="st1" d="M-2763.55,44.6V32.56l-36.59-13.14l0.48-18.57c0.09-2.9-1.09-5.69-3.23-7.65l0,0
	c-3.79-3.47-9.61-3.48-13.41-0.01l-0.01,0.01c-2.15,1.96-3.34,4.76-3.24,7.66l0.48,18.55l-33.67,12.17v12.04l34.33-6.35l1.48,23.62
	l-12.3,10.06v8.46l20.03-9.74l20.03,9.74v-8.46l-13.09-10.58l1.45-22.86L-2763.55,44.6z"/>
<g>
	<g>
		<g>
			<g>
				<g>
					<g>
						<rect x="-1419.31" y="17.76" class="st2" width="79.95" height="61.47"/>
						<rect x="-1419.31" y="17.76" class="st0" width="79.95" height="61.47"/>
					</g>
				</g>
			</g>
		</g>
		<path class="st1" d="M-1360.21,67.04h-38.24c-4.08,0-7.39-3.31-7.39-7.39V37.34c0-4.08,3.31-7.39,7.39-7.39h38.24
			c4.08,0,7.39,3.31,7.39,7.39v22.31C-1352.82,63.73-1356.13,67.04-1360.21,67.04z"/>
		<g>
			<line class="st1" x1="-1404.92" y1="-8.69" x2="-1378.75" y2="17.48"/>
			<line class="st1" x1="-1353.75" y1="-8.69" x2="-1379.92" y2="17.48"/>
		</g>
	</g>
</g>
<g>
	<polygon class="st1" points="-2571.58,79.89 -2636.47,79.89 -2636.47,-8.23 -2593.57,-8.23 -2582.57,2.77 -2571.58,13.76 	"/>
	<polyline class="st1" points="-2593.57,-8.23 -2593.57,13.3 -2571.58,13.3 	"/>
</g>
<g>
	
		<rect x="-2011.74" y="20.18" transform="matrix(-1.836970e-16 1 -1 -1.836970e-16 -1963.4513 2047.6416)" class="st1" width="12.39" height="43.82"/>
	<rect x="-2028.68" y="-8.53" class="st1" width="12.39" height="88.26"/>
	<rect x="-1990.26" y="35.9" class="st1" width="12.39" height="43.82"/>
</g>
<g>
	<g>
		<polygon class="st1" points="-2163.26,79.04 -2228.32,79.04 -2228.32,-9.31 -2185.31,-9.31 -2174.29,1.72 -2163.26,12.74 		"/>
		<polyline class="st1" points="-2185.31,-9.31 -2185.31,12.28 -2163.26,12.28 		"/>
	</g>
	<line class="st1" x1="-2212.63" y1="32.51" x2="-2180.62" y2="32.51"/>
	<line class="st1" x1="-2212.9" y1="45.75" x2="-2180.89" y2="45.75"/>
	<line class="st1" x1="-2212.9" y1="59" x2="-2180.89" y2="59"/>
</g>
<g>
	<g>
		<path class="st4" d="M-1785.66,41.99v0.37c0,4.38-3.02,7.11-7.37,7.77v3.94h-4.42v-3.9c-5.08-0.7-8.25-3.98-8.25-9.28v-0.81h4.86
			v0.59c0,2.39,1.07,4.13,3.39,4.79v-7c-4.68-1.14-7.29-3.13-7.29-7.37v-0.22c0-4.02,3.09-6.67,7.29-7.26v-3.87h4.42v4.01
			c4.16,0.81,7,3.65,7,7.92v1.11h-4.86v-0.74c0-1.84-0.77-2.95-2.14-3.54v6.15C-1788.28,35.8-1785.66,37.79-1785.66,41.99z
			 M-1797.45,33.67v-5.38c-1.47,0.44-2.36,1.44-2.36,2.65C-1799.81,32.45-1798.89,33.15-1797.45,33.67z M-1790.6,42.36
			c0-1.47-0.85-2.28-2.43-2.84v5.93C-1791.41,44.9-1790.6,43.69-1790.6,42.36z"/>
	</g>
</g>
<g>
	<circle class="st5" cx="1045.5" cy="-225.03" r="35.69"/>
	<g>
		<circle class="st6" cx="1031.7" cy="-232.09" r="1.7"/>
		<circle class="st6" cx="1059.3" cy="-232.09" r="1.7"/>
	</g>
	<path class="st7" d="M1032.98-217.05c6.92,6.92,18.12,6.92,25.04,0"/>
</g>
<g>
	<circle class="st5" cx="1109.36" cy="-225.03" r="35.69"/>
	<g>
		<circle class="st6" cx="1095.56" cy="-232.09" r="1.7"/>
		<circle class="st6" cx="1123.16" cy="-232.09" r="1.7"/>
	</g>
	<path class="st7" d="M1096.84-217.05c6.92,6.92,18.12,6.92,25.04,0"/>
</g>
<g>
	<circle class="st5" cx="1173.22" cy="-225.03" r="35.69"/>
	<g>
		<circle class="st6" cx="1159.42" cy="-232.09" r="1.7"/>
		<circle class="st6" cx="1187.02" cy="-232.09" r="1.7"/>
	</g>
	<path class="st7" d="M1160.7-217.05c6.92,6.92,18.12,6.92,25.04,0"/>
</g>
<polygon class="st1" points="-1575.54,54.59 -1557.58,72.23 -1557.58,54.59 -1539.94,54.59 -1557.58,36.63 -1539.94,18.67 
	-1557.58,18.67 -1557.58,1.03 -1575.54,18.67 -1593.5,1.03 -1593.5,18.67 -1611.14,18.67 -1593.5,36.63 -1611.14,54.59 
	-1593.5,54.59 -1593.5,72.23 "/>
<path class="st0" d="M1464.46,12.35c-19.42-11.08-39.69,1.39-38.74,22.03c1.04,22.68,19.59,51.75,37.54,44.64
	c2.43-0.97,5.14-0.97,7.57,0c17.95,7.11,36.49-21.97,37.54-44.64c0.95-20.59-19.24-33.06-38.63-22.09L1464.46,12.35z"/>
<path class="st0" d="M1474.15-8.92c-8.08,8.08-9.27,20.42-3.57,29.75"/>
<path class="st0" d="M1679.57-4.91c-15.65,1.49-19.56,16.36-22.4,32.85c-0.54,3.15-2.3,6.02-4.34,9.34
	c-3.7,6.02-8.29,13.51-5.89,25.26c1.08,5.52,4.51,10.3,9.39,13.1c6.38,3.78,15.19,4.62,22.99,2.21c1.59-0.51,3.3-0.44,4.84,0.2
	c3.02,1.27,6.28,1.91,9.56,1.88c3.96,0.01,7.88-0.85,11.47-2.52c6.07-2.82,10.57-8.21,12.26-14.69c3.27-11.72-1.68-19.37-5.65-25.52
	c-2.06-3.18-4-6.18-4.53-9.27c-2.83-16.42-6.72-31.25-22.22-32.84L1679.57-4.91z"/>
<path class="st0" d="M1688.33-21.79c-8.32,8.32-10.13,20.68-5.43,30.75"/>
<g>
	<rect x="204.01" class="st1" width="99.16" height="71.2"/>
	<rect x="204.01" y="35.6" class="st8" width="99.16" height="35.6"/>
	<rect x="204.01" y="0" class="st9" width="35.6" height="35.6"/>
</g>
<polygon class="st1" points="1293.59,72.7 1242.55,80.38 1242.55,-8.49 1293.59,-16.17 "/>
<rect x="1242.55" y="-7.52" class="st1" width="63.23" height="88.87"/>
<g>
	<polygon class="st0" points="641.46,86.24 641.46,97.4 630.31,86.24 610.39,86.24 610.39,-4.04 706.46,-4.04 706.46,86.24 	"/>
</g>
<g>
	<g>
		<circle class="st0" cx="433.18" cy="23.36" r="20.4"/>
		<line class="st0" x1="448.23" y1="38.41" x2="455.96" y2="46.15"/>
	</g>
	
		<rect x="462" y="41.06" transform="matrix(0.7071 -0.7071 0.7071 0.7071 95.9547 347.6323)" class="st0" width="11.21" height="33.86"/>
</g>
<g>
	<path class="st0" d="M48.54,29.11c-0.63,4.55-2.69,8.93-6.18,12.43c-8.52,8.52-22.33,8.52-30.85,0s-8.52-22.33,0-30.85
		s22.33-8.52,30.85,0C47.38,15.72,49.44,22.58,48.54,29.11"/>
	<polyline class="st0" points="49.54,28.95 82.79,67.19 69.32,80.66 31.09,47.41 	"/>
	<line class="st0" x1="75.53" y1="74.45" x2="93.83" y2="92.75"/>
	<line class="st0" x1="11.51" y1="41.54" x2="41.57" y2="11.48"/>
</g>
<g>
	<rect x="833.29" y="-8.73" class="st0" width="65.29" height="88.66"/>
	<g>
		<polyline class="st0" points="845.78,14.26 851.66,18.56 859.06,6.85 		"/>
		<polyline class="st0" points="872.8,37.92 878.69,42.21 886.09,30.5 		"/>
		<g>
			<line class="st0" x1="885.86" y1="8.03" x2="873.03" y2="20.85"/>
			<line class="st0" x1="873.03" y1="8.03" x2="885.86" y2="20.85"/>
		</g>
		<g>
			<line class="st0" x1="858.83" y1="51.52" x2="846.01" y2="64.35"/>
			<line class="st0" x1="846.01" y1="51.52" x2="858.83" y2="64.35"/>
		</g>
		<line class="st0" x1="846.57" y1="36.36" x2="858.27" y2="36.36"/>
		<line class="st0" x1="873.6" y1="57.93" x2="885.29" y2="57.93"/>
	</g>
</g>
<polygon class="st0" points="-154.64,2.85 -143.08,26.28 -117.21,30.04 -135.93,48.28 -131.51,74.04 -154.64,61.88 -177.78,74.04 
	-173.36,48.28 -192.07,30.04 -166.21,26.28 "/>
<g>
	<rect x="-416.82" y="10.84" class="st0" width="116.13" height="71.69"/>
	<polyline class="st0" points="-416.72,10.84 -357.95,46.68 -300.8,10.84 	"/>
</g>
<g>
	<g>
		<polygon class="st0" points="-573.42,82.38 -638.83,82.38 -638.83,-6.44 -595.59,-6.44 -584.51,4.64 -573.42,15.73 		"/>
		<polyline class="st0" points="-595.59,-6.44 -595.59,15.26 -573.42,15.26 		"/>
	</g>
	<line class="st0" x1="-623.04" y1="35.6" x2="-590.87" y2="35.6"/>
	<line class="st10" x1="-623.32" y1="48.91" x2="-591.15" y2="48.91"/>
	<line class="st10" x1="-623.32" y1="62.23" x2="-591.15" y2="62.23"/>
</g>
<g>
	<g>
		<polygon class="st0" points="-486.92,82.38 -552.33,82.38 -552.33,-6.44 -509.09,-6.44 -498,4.64 -486.92,15.73 		"/>
		<polyline class="st0" points="-509.09,-6.44 -509.09,15.26 -486.92,15.26 		"/>
	</g>
	<line class="st0" x1="-536.54" y1="35.6" x2="-504.37" y2="35.6"/>
	<line class="st10" x1="-536.82" y1="48.91" x2="-504.64" y2="48.91"/>
	<line class="st10" x1="-536.82" y1="62.23" x2="-504.64" y2="62.23"/>
</g>
<polyline class="st0" points="-534.73,13.33 -528.83,17.64 -521.42,5.9 "/>
<g>
	<line class="st0" x1="-609.5" y1="5.34" x2="-622.35" y2="18.19"/>
	<line class="st0" x1="-622.35" y1="5.34" x2="-609.5" y2="18.19"/>
</g>
<g>
	<g>
		<g>
			<polygon class="st0" points="-804.88,72.55 -740.47,72.55 -740.47,-16.24 -783.05,-16.24 -793.96,-5.16 -804.88,5.92 			"/>
			<polyline class="st0" points="-783.05,-16.24 -783.05,5.46 -804.88,5.46 			"/>
		</g>
	</g>
</g>
<g>
	<g>
		<circle class="st1" cx="-751.89" cy="20.78" r="20.88"/>
		<line class="st1" x1="-736.48" y1="36.19" x2="-728.57" y2="44.11"/>
	</g>
	
		<rect x="-722.39" y="38.9" transform="matrix(0.7071 -0.7071 0.7071 0.7071 -249.6614 -490.2762)" class="st1" width="11.48" height="34.67"/>
</g>
<g>
	<path class="st0" d="M-912.71,38.74c0,0-17.48,41.31-58.39,41.31s-58.39-41.31-58.39-41.31v-0.77c0,0,12.46-21.34,25.4-27.36
		c12.94-6.02,32.99,4.23,32.99,4.23l0,0c0,0,19.92-10.25,32.87-4.23c12.94,6.02,25.4,27.36,25.4,27.36L-912.71,38.74z"/>
	<path class="st0" d="M-1029.5,37.97c0,0,48.67,12.89,116.79,0.77"/>
</g>
<g>
	<path class="st0" d="M-1130.43,38.28c0,0-17.47,35.88-58.34,35.88s-58.34-35.88-58.34-35.88s17.47-35.88,58.34-35.88
		S-1130.43,38.28-1130.43,38.28z"/>
	<circle class="st0" cx="-1188.77" cy="37.29" r="17.39"/>
</g>
<g>
	<circle class="st5" cx="1886.51" cy="40.55" r="35.69"/>
	<g>
		<circle class="st6" cx="1872.71" cy="33.49" r="1.7"/>
		<circle class="st6" cx="1900.31" cy="33.49" r="1.7"/>
	</g>
	<path class="st7" d="M1873.99,48.53c6.92,6.92,18.12,6.92,25.04,0"/>
</g>
<g>
	<circle class="st1" cx="2098.03" cy="15.59" r="22.82"/>
	<line class="st1" x1="2098.03" y1="38.41" x2="2098.03" y2="81.75"/>
	<line class="st1" x1="2079.93" y1="57.6" x2="2116.13" y2="57.6"/>
</g>
<g>
	<circle class="st1" cx="2275.89" cy="57.3" r="22.82"/>
	<line class="st1" x1="2292.1" y1="40.61" x2="2331.74" y2="0.97"/>
	<polyline class="st0" points="2305.31,0.97 2331.74,0.97 2331.74,27.4 	"/>
</g>
</svg>
