<?xml version="1.0" encoding="utf-8"?>
<!-- Generator: Adobe Illustrator 24.2.0, SVG Export Plug-In . SVG Version: 6.00 Build 0)  -->
<svg version="1.1" id="Capa_1" xmlns="http://www.w3.org/2000/svg" xmlns:xlink="http://www.w3.org/1999/xlink" x="0px" y="0px"
	 viewBox="0 0 82.93 85.73" style="enable-background:new 0 0 82.93 85.73;" xml:space="preserve">
<style type="text/css">
	.st0{fill:none;stroke:#000000;stroke-width:6.5;stroke-miterlimit:10;}
	.st1{fill:#FFFFFF;stroke:#000000;stroke-width:6.5;stroke-miterlimit:10;}
	.st2{fill:#FFFFFF;}
	.st3{stroke:#000000;stroke-width:6.5;stroke-miterlimit:10;}
	.st4{fill:#1D1D1B;}
	.st5{fill:#FFFFFF;stroke:#1D1D1B;stroke-width:6.5;stroke-miterlimit:10;}
	.st6{fill:#1D1D1B;stroke:#1D1D1B;stroke-width:6.5;stroke-miterlimit:10;}
	.st7{fill:none;stroke:#1D1D1B;stroke-width:6.5;stroke-miterlimit:10;}
	.st8{fill:#FC5439;stroke:#000000;stroke-width:6.5;stroke-miterlimit:10;}
	.st9{fill:#3A90FD;stroke:#000000;stroke-width:6.5;stroke-miterlimit:10;}
	.st10{fill:#F1CD08;stroke:#000000;stroke-width:6.5;stroke-miterlimit:10;}
</style>
<g>
	<path class="st0" d="M-3655.8,81.05V6.71c0-4.23,3.43-7.65,7.65-7.65h54.6v77.9"/>
	<path class="st0" d="M-3632.23,87.79h38.68V74.31h-55.51c-3.72,0-6.74,3.02-6.74,6.74v0c0,3.72,3.02,6.74,6.74,6.74h1.52"/>
	<rect x="-3638.13" y="19.83" class="st0" width="26.92" height="15.7"/>
	<polygon class="st0" points="-3634.42,100.94 -3639.67,106.25 -3644.93,100.94 -3644.93,83.99 -3634.42,83.99 	"/>
</g>
<polygon class="st0" points="-3986.5,43.67 -4022.18,8 -4022.18,23.5 -4079.3,23.5 -4079.3,65.24 -4022.18,65.24 -4022.18,79.34 "/>
<g>
	<polyline class="st0" points="-3813.57,17.06 -3789.93,17.06 -3789.93,88.25 -3866.79,88.25 -3866.79,17.06 -3836.66,17.06 	"/>
	<polygon class="st0" points="-3831.3,28.87 -3839.89,20.28 -3818.69,-0.91 -3807.15,10.64 -3825.38,28.87 	"/>
	<polyline class="st0" points="-3841.26,28.87 -3831.3,28.87 -3825.38,28.87 -3815.47,28.87 	"/>
</g>
<g>
	<polygon class="st0" points="-4201.73,-10.63 -4277.74,40.93 -4285.47,60.34 -4264.58,60.34 -4188.56,8.78 	"/>
	<line class="st0" x1="-4277.74" y1="40.93" x2="-4264.58" y2="60.34"/>
</g>
<g>
	<g>
		<path class="st1" d="M-3415.91,76.63h24.01c19.62,0,35.53-15.91,35.53-35.53v0c0-19.62-15.91-35.53-35.53-35.53l-3.72,0l-78.89,0
			c-4.91,0-8.88,3.98-8.88,8.88v0c0,4.91,3.98,8.88,8.88,8.88h68.05v0"/>
		<path class="st1" d="M-3406.47,23.34h-21.1c-4.91,0-8.88,3.98-8.88,8.88v0c0,4.91,3.98,8.88,8.88,8.88h19.4h1.7
			c4.91,0,8.88-3.98,8.88-8.88v0C-3397.58,27.32-3401.56,23.34-3406.47,23.34z"/>
		<path class="st1" d="M-3405.83,41.1h-21.09c-4.91,0-8.88,3.98-8.88,8.88v0c0,4.91,3.98,8.88,8.88,8.88h19.4h1.7
			c4.91,0,8.88-3.98,8.88-8.88v0C-3396.95,45.08-3400.92,41.1-3405.83,41.1z"/>
		<path class="st1" d="M-3405.83,58.87h-21.09c-4.91,0-8.88,3.98-8.88,8.88v0c0,4.91,3.98,8.88,8.88,8.88h19.4h1.7
			c4.91,0,8.88-3.98,8.88-8.88v0C-3396.95,62.84-3400.92,58.87-3405.83,58.87z"/>
	</g>
	<path class="st1" d="M-3392.38,7.45l-11.69,23.48c-2.15,4.41-0.32,9.73,4.09,11.88v0c4.41,2.15,9.73,0.32,11.88-4.09l8.54-17.14"/>
</g>
<g>
	<ellipse class="st2" cx="-3210.65" cy="46.69" rx="28.07" ry="18.08"/>
	<g>
		<path class="st1" d="M-3191.28,41.95V27.32c0-3.72,3.01-6.73,6.73-6.73l0,0c3.72,0,6.73,3.01,6.73,6.73v22.75
			c0,18.59-15.07,33.66-33.66,33.66l0,0c-18.59,0-33.66-15.07-33.66-33.66V26.96l0,0c7.43,0,13.45,6.02,13.45,13.45v8.75l0,0
			c7.42,0,13.44,6.02,13.44,13.44v0.83"/>
		<path class="st1" d="M-3191.35,41.95V9.18c0-3.72-3.01-6.73-6.73-6.73l0,0c-3.72,0-6.73,3.01-6.73,6.73v25.15"/>
		<path class="st1" d="M-3204.81,38.12V2.35c0-3.72-3.01-6.73-6.73-6.73l0,0c-3.72,0-6.73,3.01-6.73,6.73V27.5"/>
		<path class="st1" d="M-3218.26,37.34V7.57c0-3.72-3.01-6.73-6.73-6.73l0,0c-3.72,0-6.73,3.01-6.73,6.73v37.79"/>
	</g>
</g>
<g>
	<line class="st0" x1="-3025.37" y1="-172.67" x2="-2948.81" y2="-191.65"/>
	<circle class="st1" cx="-3025.37" cy="-172.67" r="25.98"/>
	<line class="st0" x1="-2872.01" y1="-172.66" x2="-2948.57" y2="-191.63"/>
	<circle class="st1" cx="-2872.01" cy="-172.67" r="25.98"/>
	<circle class="st1" cx="-2948.81" cy="-191.65" r="25.98"/>
</g>
<g>
	<circle class="st0" cx="-2802.84" cy="38.12" r="35.6"/>
	<g>
		<circle class="st3" cx="-2816.61" cy="31.08" r="1.69"/>
		<circle class="st3" cx="-2789.07" cy="31.08" r="1.69"/>
	</g>
	<path class="st0" d="M-2815.33,46.08c6.9,6.9,18.07,6.9,24.98,0"/>
</g>
<g>
	<line class="st0" x1="-2570.03" y1="5.48" x2="-2570.03" y2="77.33"/>
	<line class="st0" x1="-2640.35" y1="41.41" x2="-2691.27" y2="41.41"/>
	<line class="st0" x1="-2530.43" y1="41.41" x2="-2581.35" y2="41.41"/>
	<rect x="-2659.74" y="22.15" class="st1" width="89.71" height="38.51"/>
	<line class="st0" x1="-2532.04" y1="25.64" x2="-2532.04" y2="57.17"/>
	<line class="st0" x1="-2618.52" y1="22.89" x2="-2618.52" y2="37.85"/>
	<line class="st0" x1="-2604.89" y1="24.11" x2="-2604.89" y2="45.52"/>
</g>
<circle class="st1" cx="41.28" cy="43.32" r="35.26"/>
<g>
	<rect x="-2433.85" y="-4.73" class="st1" width="70.6" height="50.69"/>
	<line class="st1" x1="-2433.85" y1="-12.45" x2="-2433.85" y2="76.94"/>
	<rect x="-2433.85" y="20.62" class="st1" width="70.6" height="25.35"/>
	<rect x="-2433.85" y="-4.73" class="st1" width="25.35" height="25.35"/>
</g>
<g transform="translate(0,-952.36218)">
	<path class="st1" d="M-2224.91,1016.48c0,18.4,13.01,33.32,29.05,33.32c16.03,0,29.05-14.92,29.05-33.32
		c0-18.4-13.96-38.93-29.05-56.24C-2195.87,960.23-2224.91,993.25-2224.91,1016.48z"/>
</g>
<g>
	<polyline class="st1" points="-2047.93,38.54 -2003.2,-6.19 -1958.46,38.54 	"/>
	<path class="st1" d="M-2003.2,30.79"/>
	<polygon class="st1" points="-1972.91,82.44 -2033.49,82.44 -2033.49,24.13 -2003.2,-6.19 -1972.91,24.13 	"/>
	<polyline class="st0" points="-2016.31,82.44 -2016.31,47.09 -1990.08,47.09 -1990.08,82.44 	"/>
</g>
<g>
	<circle class="st1" cx="-562.95" cy="43.67" r="35.29"/>
	<polyline class="st1" points="-576.5,43.29 -568.32,53.09 -549.39,34.25 	"/>
</g>
<g>
	<g>
		<g>
			<rect x="-1822.41" y="12.87" class="st0" width="69.54" height="69.54"/>
			<g>
				<line class="st1" x1="-1807.49" y1="2.08" x2="-1807.49" y2="23.66"/>
				<line class="st1" x1="-1767.78" y1="2.08" x2="-1767.78" y2="23.66"/>
			</g>
		</g>
		<line class="st1" x1="-1822.41" y1="35.57" x2="-1752.87" y2="35.57"/>
	</g>
	<g>
		<path class="st4" d="M-1787.03,47.82v4.07l-6.81,5.54v0.42h0.91c3.4,0,6.46,2.35,6.46,6.81c0,4.98-3.79,8.21-9.26,8.21
			c-5.86,0-9.4-3.47-9.4-8.35v-0.98h4.63v0.84c0,2.39,1.65,4.35,4.77,4.35c2.91,0,4.63-1.72,4.63-4.07s-1.65-3.51-4-3.51h-4.28
			v-4.14l6.07-4.98h-11.12v-4.21H-1787.03z"/>
		<path class="st4" d="M-1771.66,47.82v24.56h-4.63V52.73h-0.42l-3.44,6.18h-4.84l6.32-11.09H-1771.66z"/>
	</g>
</g>
<g>
	<g>
		<circle class="st1" cx="-1585.3" cy="47.59" r="34.11"/>
		<g>
			<path class="st1" d="M-1590.78,14.24c-15.63,19.6-15.53,47.58,0.29,67.07"/>
			<path class="st1" d="M-1578.89,14.24c15.48,19.42,15.53,47.05,0.16,66.52"/>
		</g>
		<line class="st1" x1="-1619.41" y1="47.59" x2="-1551.2" y2="47.59"/>
		<line class="st1" x1="-1584.83" y1="13.68" x2="-1584.83" y2="81.5"/>
	</g>
</g>
<g>
	<circle class="st1" cx="-1392.83" cy="23.95" r="22.82"/>
	<line class="st1" x1="-1392.83" y1="46.77" x2="-1392.83" y2="90.1"/>
	<line class="st1" x1="-1410.93" y1="65.95" x2="-1374.73" y2="65.95"/>
</g>
<g>
	<circle class="st1" cx="-1180.36" cy="34.5" r="22.82"/>
	<line class="st1" x1="-1164.15" y1="17.81" x2="-1124.51" y2="-21.82"/>
	<polyline class="st0" points="-1150.94,-21.82 -1124.51,-21.82 -1124.51,4.6 	"/>
</g>
<path class="st1" d="M-926.58,51.01V38.97l-36.59-13.14l0.48-18.57c0.09-2.9-1.09-5.69-3.23-7.65v0c-3.79-3.47-9.61-3.48-13.41-0.01
	l-0.01,0.01c-2.15,1.96-3.34,4.76-3.24,7.66l0.48,18.55L-1015.77,38v12.04l34.33-6.35l1.48,23.62l-12.3,10.06v8.46l20.03-9.74
	l20.03,9.74v-8.46l-13.09-10.58l1.45-22.86L-926.58,51.01z"/>
<g>
	<g>
		<g>
			<g>
				<g>
					<g>
						<rect x="417.65" y="22.38" class="st2" width="79.95" height="61.47"/>
						<rect x="417.65" y="22.38" class="st0" width="79.95" height="61.47"/>
					</g>
				</g>
			</g>
		</g>
		<path class="st1" d="M476.75,71.66h-38.24c-4.08,0-7.39-3.31-7.39-7.39V41.96c0-4.08,3.31-7.39,7.39-7.39h38.24
			c4.08,0,7.39,3.31,7.39,7.39v22.31C484.14,68.35,480.83,71.66,476.75,71.66z"/>
		<g>
			<line class="st1" x1="432.04" y1="-4.07" x2="458.21" y2="22.1"/>
			<line class="st1" x1="483.22" y1="-4.07" x2="457.05" y2="22.1"/>
		</g>
	</g>
</g>
<g>
	<polygon class="st1" points="-734.61,86.3 -799.51,86.3 -799.51,-1.82 -756.61,-1.82 -745.61,9.18 -734.61,20.18 	"/>
	<polyline class="st1" points="-756.61,-1.82 -756.61,19.72 -734.61,19.72 	"/>
</g>
<g>
	
		<rect x="-174.78" y="26.6" transform="matrix(-1.836970e-16 1 -1 -1.836970e-16 -120.0734 217.0909)" class="st1" width="12.39" height="43.82"/>
	<rect x="-191.71" y="-2.12" class="st1" width="12.39" height="88.26"/>
	<rect x="-153.3" y="42.31" class="st1" width="12.39" height="43.82"/>
</g>
<g>
	<g>
		<polygon class="st1" points="-326.3,85.45 -391.36,85.45 -391.36,-2.9 -348.35,-2.9 -337.33,8.13 -326.3,19.15 		"/>
		<polyline class="st1" points="-348.35,-2.9 -348.35,18.69 -326.3,18.69 		"/>
	</g>
	<line class="st1" x1="-375.66" y1="38.92" x2="-343.65" y2="38.92"/>
	<line class="st1" x1="-375.94" y1="52.16" x2="-343.93" y2="52.16"/>
	<line class="st1" x1="-375.94" y1="65.41" x2="-343.93" y2="65.41"/>
</g>
<g>
	<g>
		<path class="st4" d="M51.3,48.4v0.37c0,4.38-3.02,7.11-7.37,7.77v3.94h-4.42v-3.9c-5.08-0.7-8.25-3.98-8.25-9.28v-0.81h4.86v0.59
			c0,2.39,1.07,4.13,3.39,4.79v-7c-4.68-1.14-7.29-3.13-7.29-7.37v-0.22c0-4.02,3.09-6.67,7.29-7.26v-3.87h4.42v4.01
			c4.16,0.81,7,3.65,7,7.92v1.11h-4.86v-0.74c0-1.84-0.77-2.95-2.14-3.54v6.15C48.69,42.22,51.3,44.2,51.3,48.4z M39.51,40.08V34.7
			c-1.47,0.44-2.36,1.44-2.36,2.65C37.16,38.86,38.08,39.56,39.51,40.08z M46.37,48.77c0-1.47-0.85-2.28-2.43-2.84v5.93
			C45.56,51.31,46.37,50.1,46.37,48.77z"/>
	</g>
</g>
<g>
	<circle class="st5" cx="2882.47" cy="-218.61" r="35.69"/>
	<g>
		<circle class="st6" cx="2868.66" cy="-225.67" r="1.7"/>
		<circle class="st6" cx="2896.27" cy="-225.67" r="1.7"/>
	</g>
	<path class="st7" d="M2869.95-210.64c6.92,6.92,18.12,6.92,25.04,0"/>
</g>
<g>
	<circle class="st5" cx="2946.33" cy="-218.61" r="35.69"/>
	<g>
		<circle class="st6" cx="2932.52" cy="-225.67" r="1.7"/>
		<circle class="st6" cx="2960.13" cy="-225.67" r="1.7"/>
	</g>
	<path class="st7" d="M2933.81-210.64c6.92,6.92,18.12,6.92,25.04,0"/>
</g>
<g>
	<circle class="st5" cx="3010.19" cy="-218.61" r="35.69"/>
	<g>
		<circle class="st6" cx="2996.38" cy="-225.67" r="1.7"/>
		<circle class="st6" cx="3023.99" cy="-225.67" r="1.7"/>
	</g>
	<path class="st7" d="M2997.67-210.64c6.92,6.92,18.12,6.92,25.04,0"/>
</g>
<polygon class="st1" points="261.42,61 279.39,78.64 279.39,61 297.02,61 279.39,43.04 297.02,25.08 279.39,25.08 279.39,7.44 
	261.42,25.08 243.46,7.44 243.46,25.08 225.82,25.08 243.46,43.04 225.82,61 243.46,61 243.46,78.64 "/>
<path class="st0" d="M3301.43,18.77c-19.42-11.08-39.69,1.39-38.74,22.03c1.04,22.68,19.59,51.75,37.54,44.64
	c2.43-0.97,5.14-0.97,7.57,0c17.95,7.11,36.49-21.97,37.54-44.64c0.95-20.59-19.24-33.06-38.63-22.09L3301.43,18.77z"/>
<path class="st0" d="M3311.12-2.51c-8.08,8.08-9.27,20.42-3.57,29.75"/>
<path class="st0" d="M3516.53,1.5c-15.65,1.49-19.56,16.36-22.4,32.85c-0.54,3.15-2.3,6.02-4.34,9.34
	c-3.7,6.02-8.29,13.51-5.89,25.26c1.08,5.52,4.51,10.3,9.39,13.1c6.38,3.78,15.19,4.62,22.99,2.21c1.59-0.51,3.3-0.44,4.84,0.2
	c3.02,1.27,6.28,1.91,9.56,1.88c3.96,0.01,7.88-0.85,11.47-2.52c6.07-2.82,10.57-8.21,12.26-14.69c3.27-11.72-1.68-19.37-5.65-25.52
	c-2.06-3.18-4-6.18-4.53-9.27c-2.83-16.42-6.72-31.25-22.22-32.84L3516.53,1.5z"/>
<path class="st0" d="M3525.29-15.38c-8.32,8.32-10.13,20.68-5.43,30.75"/>
<g>
	<rect x="2040.97" y="6.41" class="st1" width="99.16" height="71.2"/>
	<rect x="2040.97" y="42.01" class="st8" width="99.16" height="35.6"/>
	<rect x="2040.97" y="6.41" class="st9" width="35.6" height="35.6"/>
</g>
<polygon class="st1" points="3130.56,79.11 3079.51,86.8 3079.51,-2.07 3130.56,-9.76 "/>
<rect x="3079.51" y="-1.11" class="st1" width="63.23" height="88.87"/>
<g>
	<polygon class="st0" points="2478.43,92.66 2478.43,103.81 2467.27,92.66 2447.35,92.66 2447.35,2.37 2543.42,2.37 2543.42,92.66 	
		"/>
</g>
<g>
	<g>
		<circle class="st0" cx="2270.14" cy="29.78" r="20.4"/>
		<line class="st0" x1="2285.19" y1="44.82" x2="2292.93" y2="52.56"/>
	</g>
	
		<rect x="2298.96" y="47.47" transform="matrix(0.7071 -0.7071 0.7071 0.7071 629.4541 1648.4407)" class="st0" width="11.21" height="33.86"/>
</g>
<g>
	<path class="st0" d="M1885.51,35.53c-0.63,4.55-2.69,8.93-6.18,12.43c-8.52,8.52-22.33,8.52-30.85,0s-8.52-22.33,0-30.85
		s22.33-8.52,30.85,0C1884.35,22.13,1886.41,28.99,1885.51,35.53"/>
	<polyline class="st0" points="1886.51,35.37 1919.75,73.6 1906.28,87.07 1868.05,53.82 	"/>
	<line class="st0" x1="1912.49" y1="80.86" x2="1930.79" y2="99.16"/>
	<line class="st0" x1="1848.47" y1="47.96" x2="1878.53" y2="17.9"/>
</g>
<g>
	<rect x="2670.25" y="-2.32" class="st0" width="65.29" height="88.66"/>
	<g>
		<polyline class="st0" points="2682.74,20.68 2688.62,24.98 2696.02,13.26 		"/>
		<polyline class="st0" points="2709.77,44.33 2715.65,48.63 2723.05,36.91 		"/>
		<g>
			<line class="st0" x1="2722.82" y1="14.44" x2="2710" y2="27.27"/>
			<line class="st0" x1="2710" y1="14.44" x2="2722.82" y2="27.27"/>
		</g>
		<g>
			<line class="st0" x1="2695.8" y1="57.93" x2="2682.97" y2="70.76"/>
			<line class="st0" x1="2682.97" y1="57.93" x2="2695.8" y2="70.76"/>
		</g>
		<line class="st0" x1="2683.54" y1="42.77" x2="2695.23" y2="42.77"/>
		<line class="st0" x1="2710.56" y1="64.35" x2="2722.26" y2="64.35"/>
	</g>
</g>
<polygon class="st0" points="1682.32,9.26 1693.89,32.7 1719.75,36.46 1701.04,54.7 1705.45,80.46 1682.32,68.3 1659.19,80.46 
	1663.61,54.7 1644.89,36.46 1670.75,32.7 "/>
<g>
	<rect x="1420.14" y="17.25" class="st0" width="116.13" height="71.69"/>
	<polyline class="st0" points="1420.25,17.25 1479.01,53.09 1536.17,17.25 	"/>
</g>
<g>
	<g>
		<polygon class="st0" points="1263.54,88.79 1198.14,88.79 1198.14,-0.03 1241.38,-0.03 1252.46,11.06 1263.54,22.14 		"/>
		<polyline class="st0" points="1241.38,-0.03 1241.38,21.68 1263.54,21.68 		"/>
	</g>
	<line class="st0" x1="1213.92" y1="42.01" x2="1246.1" y2="42.01"/>
	<line class="st10" x1="1213.64" y1="55.33" x2="1245.82" y2="55.33"/>
	<line class="st10" x1="1213.64" y1="68.64" x2="1245.82" y2="68.64"/>
</g>
<g>
	<g>
		<polygon class="st0" points="1350.04,88.79 1284.64,88.79 1284.64,-0.03 1327.88,-0.03 1338.96,11.06 1350.04,22.14 		"/>
		<polyline class="st0" points="1327.88,-0.03 1327.88,21.68 1350.04,21.68 		"/>
	</g>
	<line class="st0" x1="1300.42" y1="42.01" x2="1332.6" y2="42.01"/>
	<line class="st10" x1="1300.14" y1="55.33" x2="1332.32" y2="55.33"/>
	<line class="st10" x1="1300.14" y1="68.64" x2="1332.32" y2="68.64"/>
</g>
<polyline class="st0" points="1302.24,19.74 1308.13,24.05 1315.54,12.31 "/>
<g>
	<line class="st0" x1="1227.46" y1="11.76" x2="1214.61" y2="24.61"/>
	<line class="st0" x1="1214.61" y1="11.76" x2="1227.46" y2="24.61"/>
</g>
<g>
	<g>
		<g>
			<polygon class="st0" points="1032.09,78.96 1096.5,78.96 1096.5,-9.83 1053.92,-9.83 1043,1.25 1032.09,12.33 			"/>
			<polyline class="st0" points="1053.92,-9.83 1053.92,11.87 1032.09,11.87 			"/>
		</g>
	</g>
</g>
<g>
	<g>
		<circle class="st1" cx="1085.07" cy="27.2" r="20.88"/>
		<line class="st1" x1="1100.48" y1="42.6" x2="1108.4" y2="50.52"/>
	</g>
	
		<rect x="1114.58" y="45.31" transform="matrix(0.7071 -0.7071 0.7071 0.7071 283.838 810.5322)" class="st1" width="11.48" height="34.67"/>
</g>
<g>
	<path class="st0" d="M924.25,45.15c0,0-17.48,41.31-58.39,41.31s-58.39-41.31-58.39-41.31v-0.77c0,0,12.46-21.34,25.4-27.36
		c12.94-6.02,32.99,4.23,32.99,4.23l0,0c0,0,19.92-10.25,32.87-4.23c12.94,6.02,25.4,27.36,25.4,27.36L924.25,45.15z"/>
	<path class="st0" d="M807.47,44.38c0,0,48.67,12.89,116.79,0.77"/>
</g>
<g>
	<path class="st0" d="M706.53,49.38c0,0-17.47,35.88-58.34,35.88s-58.34-35.88-58.34-35.88S607.33,13.5,648.2,13.5
		S706.53,49.38,706.53,49.38z"/>
	<circle class="st0" cx="648.2" cy="48.39" r="17.39"/>
</g>
<g>
	<circle class="st5" cx="3723.47" cy="46.96" r="35.69"/>
	<g>
		<circle class="st6" cx="3709.67" cy="39.9" r="1.7"/>
		<circle class="st6" cx="3737.27" cy="39.9" r="1.7"/>
	</g>
	<path class="st7" d="M3710.95,54.94c6.92,6.92,18.12,6.92,25.04,0"/>
</g>
<g>
	<circle class="st1" cx="3934.99" cy="22" r="22.82"/>
	<line class="st1" x1="3934.99" y1="44.82" x2="3934.99" y2="88.16"/>
	<line class="st1" x1="3916.89" y1="64.01" x2="3953.09" y2="64.01"/>
</g>
<g>
	<circle class="st1" cx="4112.85" cy="63.71" r="22.82"/>
	<line class="st1" x1="4129.06" y1="47.02" x2="4168.7" y2="7.39"/>
	<polyline class="st0" points="4142.28,7.39 4168.7,7.39 4168.7,33.81 	"/>
</g>
</svg>
