<?xml version="1.0" encoding="utf-8"?>
<!-- Generator: Adobe Illustrator 24.2.0, SVG Export Plug-In . SVG Version: 6.00 Build 0)  -->
<svg version="1.1" id="Capa_1" xmlns="http://www.w3.org/2000/svg" xmlns:xlink="http://www.w3.org/1999/xlink" x="0px" y="0px"
	 viewBox="0 0 132.11 82.48" style="enable-background:new 0 0 132.11 82.48;" xml:space="preserve">
<style type="text/css">
	.st0{fill:none;stroke:#000000;stroke-width:6.5;stroke-miterlimit:10;}
	.st1{fill:#FFFFFF;stroke:#000000;stroke-width:6.5;stroke-miterlimit:10;}
	.st2{fill:#FFFFFF;}
	.st3{stroke:#000000;stroke-width:6.5;stroke-miterlimit:10;}
	.st4{fill:#1D1D1B;}
	.st5{fill:#FFFFFF;stroke:#1D1D1B;stroke-width:6.5;stroke-miterlimit:10;}
	.st6{fill:#1D1D1B;stroke:#1D1D1B;stroke-width:6.5;stroke-miterlimit:10;}
	.st7{fill:none;stroke:#1D1D1B;stroke-width:6.5;stroke-miterlimit:10;}
	.st8{fill:#FC5439;stroke:#000000;stroke-width:6.5;stroke-miterlimit:10;}
	.st9{fill:#3A90FD;stroke:#000000;stroke-width:6.5;stroke-miterlimit:10;}
	.st10{fill:#F1CD08;stroke:#000000;stroke-width:6.5;stroke-miterlimit:10;}
</style>
<g>
	<path class="st0" d="M-4239.19,79.42V5.08c0-4.23,3.43-7.65,7.65-7.65h54.6v77.9"/>
	<path class="st0" d="M-4215.62,86.17h38.68V72.68h-55.51c-3.72,0-6.74,3.02-6.74,6.74v0c0,3.72,3.02,6.74,6.74,6.74h1.52"/>
	<rect x="-4221.52" y="18.2" class="st0" width="26.92" height="15.7"/>
	<polygon class="st0" points="-4217.81,99.32 -4223.07,104.62 -4228.32,99.32 -4228.32,82.36 -4217.81,82.36 	"/>
</g>
<polygon class="st0" points="-4569.9,42.05 -4605.57,6.37 -4605.57,21.88 -4662.69,21.88 -4662.69,63.61 -4605.57,63.61 
	-4605.57,77.72 "/>
<g>
	<polyline class="st0" points="-4396.96,15.43 -4373.32,15.43 -4373.32,86.63 -4450.19,86.63 -4450.19,15.43 -4420.05,15.43 	"/>
	<polygon class="st0" points="-4414.69,27.24 -4423.28,18.66 -4402.09,-2.54 -4390.54,9.01 -4408.77,27.24 	"/>
	<polyline class="st0" points="-4424.65,27.24 -4414.69,27.24 -4408.77,27.24 -4398.86,27.24 	"/>
</g>
<g>
	<polygon class="st0" points="-4785.12,-12.25 -4861.14,39.3 -4868.86,58.71 -4847.97,58.71 -4771.96,7.15 	"/>
	<line class="st0" x1="-4861.14" y1="39.3" x2="-4847.97" y2="58.71"/>
</g>
<g>
	<g>
		<path class="st1" d="M-3999.3,75h24.01c19.62,0,35.53-15.91,35.53-35.53v0c0-19.62-15.91-35.53-35.53-35.53l-3.72,0l-78.89,0
			c-4.91,0-8.88,3.98-8.88,8.88v0c0,4.91,3.98,8.88,8.88,8.88h68.05v0"/>
		<path class="st1" d="M-3989.86,21.71h-21.1c-4.91,0-8.88,3.98-8.88,8.88v0c0,4.91,3.98,8.88,8.88,8.88h19.4h1.7
			c4.91,0,8.88-3.98,8.88-8.88v0C-3980.98,25.69-3984.95,21.71-3989.86,21.71z"/>
		<path class="st1" d="M-3989.22,39.48h-21.09c-4.91,0-8.88,3.98-8.88,8.88v0c0,4.91,3.98,8.88,8.88,8.88h19.4h1.7
			c4.91,0,8.88-3.98,8.88-8.88v0C-3980.34,43.45-3984.32,39.48-3989.22,39.48z"/>
		<path class="st1" d="M-3989.22,57.24h-21.09c-4.91,0-8.88,3.98-8.88,8.88v0c0,4.91,3.98,8.88,8.88,8.88h19.4h1.7
			c4.91,0,8.88-3.98,8.88-8.88v0C-3980.34,61.22-3984.32,57.24-3989.22,57.24z"/>
	</g>
	<path class="st1" d="M-3975.77,5.83l-11.69,23.48c-2.15,4.41-0.32,9.73,4.09,11.88v0c4.41,2.15,9.73,0.32,11.88-4.09l8.54-17.14"/>
</g>
<g>
	<ellipse class="st2" cx="-3794.04" cy="45.06" rx="28.07" ry="18.08"/>
	<g>
		<path class="st1" d="M-3774.68,40.32V25.69c0-3.72,3.01-6.73,6.73-6.73l0,0c3.72,0,6.73,3.01,6.73,6.73v22.75
			c0,18.59-15.07,33.66-33.66,33.66h0c-18.59,0-33.66-15.07-33.66-33.66V25.33l0,0c7.43,0,13.45,6.02,13.45,13.45v8.75l0,0
			c7.42,0,13.44,6.02,13.44,13.44v0.83"/>
		<path class="st1" d="M-3774.74,40.32V7.55c0-3.72-3.01-6.73-6.73-6.73l0,0c-3.72,0-6.73,3.01-6.73,6.73V32.7"/>
		<path class="st1" d="M-3788.2,36.5V0.73c0-3.72-3.01-6.73-6.73-6.73l0,0c-3.72,0-6.73,3.01-6.73,6.73v25.15"/>
		<path class="st1" d="M-3801.65,35.71V5.94c0-3.72-3.01-6.73-6.73-6.73l0,0c-3.72,0-6.73,3.01-6.73,6.73v37.79"/>
	</g>
</g>
<g>
	<line class="st0" x1="-3608.76" y1="-174.3" x2="-3532.21" y2="-193.28"/>
	<circle class="st1" cx="-3608.76" cy="-174.3" r="25.98"/>
	<line class="st0" x1="-3455.4" y1="-174.28" x2="-3531.96" y2="-193.26"/>
	<circle class="st1" cx="-3455.4" cy="-174.3" r="25.98"/>
	<circle class="st1" cx="-3532.21" cy="-193.28" r="25.98"/>
</g>
<g>
	<circle class="st0" cx="-3386.23" cy="36.5" r="35.6"/>
	<g>
		<circle class="st3" cx="-3400" cy="29.46" r="1.69"/>
		<circle class="st3" cx="-3372.47" cy="29.46" r="1.69"/>
	</g>
	<path class="st0" d="M-3398.72,44.46c6.9,6.9,18.07,6.9,24.98,0"/>
</g>
<g>
	<line class="st0" x1="-3153.42" y1="3.85" x2="-3153.42" y2="75.7"/>
	<line class="st0" x1="-3223.74" y1="39.78" x2="-3274.66" y2="39.78"/>
	<line class="st0" x1="-3113.82" y1="39.78" x2="-3164.74" y2="39.78"/>
	<rect x="-3243.14" y="20.52" class="st1" width="89.71" height="38.51"/>
	<line class="st0" x1="-3115.44" y1="24.02" x2="-3115.44" y2="55.54"/>
	<line class="st0" x1="-3201.92" y1="21.27" x2="-3201.92" y2="36.22"/>
	<line class="st0" x1="-3188.29" y1="22.48" x2="-3188.29" y2="43.9"/>
</g>
<circle class="st1" cx="-542.11" cy="41.69" r="35.26"/>
<g>
	<rect x="-3017.25" y="-6.35" class="st1" width="70.6" height="50.69"/>
	<line class="st1" x1="-3017.25" y1="-14.08" x2="-3017.25" y2="75.31"/>
	<rect x="-3017.25" y="18.99" class="st1" width="70.6" height="25.35"/>
	<rect x="-3017.25" y="-6.35" class="st1" width="25.35" height="25.35"/>
</g>
<g transform="translate(0,-952.36218)">
	<path class="st1" d="M-2808.31,1014.85c0,18.4,13.01,33.32,29.05,33.32c16.03,0,29.05-14.92,29.05-33.32s-13.96-38.93-29.05-56.24
		C-2779.26,958.61-2808.31,991.63-2808.31,1014.85z"/>
</g>
<g>
	<polyline class="st1" points="-2631.32,36.92 -2586.59,-7.82 -2541.85,36.92 	"/>
	<path class="st1" d="M-2586.59,29.16"/>
	<polygon class="st1" points="-2556.3,80.82 -2616.88,80.82 -2616.88,22.5 -2586.59,-7.82 -2556.3,22.5 	"/>
	<polyline class="st0" points="-2599.71,80.82 -2599.71,45.46 -2573.47,45.46 -2573.47,80.82 	"/>
</g>
<g>
	<circle class="st1" cx="-1146.34" cy="42.04" r="35.29"/>
	<polyline class="st1" points="-1159.9,41.66 -1151.71,51.47 -1132.78,32.62 	"/>
</g>
<g>
	<g>
		<g>
			<rect x="-2405.8" y="11.24" class="st0" width="69.54" height="69.54"/>
			<g>
				<line class="st1" x1="-2390.88" y1="0.45" x2="-2390.88" y2="22.04"/>
				<line class="st1" x1="-2351.17" y1="0.45" x2="-2351.17" y2="22.04"/>
			</g>
		</g>
		<line class="st1" x1="-2405.8" y1="33.95" x2="-2336.26" y2="33.95"/>
	</g>
	<g>
		<path class="st4" d="M-2370.43,46.19v4.07l-6.81,5.54v0.42h0.91c3.4,0,6.46,2.35,6.46,6.81c0,4.98-3.79,8.21-9.26,8.21
			c-5.86,0-9.4-3.47-9.4-8.35v-0.98h4.63v0.84c0,2.39,1.65,4.35,4.77,4.35c2.91,0,4.63-1.72,4.63-4.07s-1.65-3.51-4-3.51h-4.28
			v-4.14l6.07-4.98h-11.12v-4.21H-2370.43z"/>
		<path class="st4" d="M-2355.06,46.19v24.56h-4.63V51.11h-0.42l-3.44,6.18h-4.84l6.32-11.09H-2355.06z"/>
	</g>
</g>
<g>
	<g>
		<circle class="st1" cx="-2168.7" cy="45.97" r="34.11"/>
		<g>
			<path class="st1" d="M-2174.17,12.61c-15.63,19.6-15.53,47.58,0.29,67.07"/>
			<path class="st1" d="M-2162.28,12.61c15.48,19.42,15.53,47.05,0.16,66.52"/>
		</g>
		<line class="st1" x1="-2202.8" y1="45.97" x2="-2134.59" y2="45.97"/>
		<line class="st1" x1="-2168.23" y1="12.06" x2="-2168.23" y2="79.88"/>
	</g>
</g>
<g>
	<circle class="st1" cx="-1976.22" cy="22.32" r="22.82"/>
	<line class="st1" x1="-1976.22" y1="45.14" x2="-1976.22" y2="88.48"/>
	<line class="st1" x1="-1994.32" y1="64.33" x2="-1958.13" y2="64.33"/>
</g>
<g>
	<circle class="st1" cx="-1763.75" cy="32.87" r="22.82"/>
	<line class="st1" x1="-1747.54" y1="16.18" x2="-1707.9" y2="-23.45"/>
	<polyline class="st0" points="-1734.33,-23.45 -1707.9,-23.45 -1707.9,2.97 	"/>
</g>
<path class="st1" d="M-1509.98,49.39V37.35l-36.59-13.14l0.48-18.57c0.09-2.9-1.09-5.69-3.23-7.65v0
	c-3.79-3.47-9.61-3.48-13.41-0.01l-0.01,0.01c-2.15,1.96-3.34,4.76-3.24,7.66l0.48,18.55l-33.67,12.17v12.04l34.33-6.35l1.48,23.62
	l-12.3,10.06v8.46l20.03-9.74l20.03,9.74v-8.46l-13.09-10.58l1.44-22.86L-1509.98,49.39z"/>
<g>
	<g>
		<g>
			<g>
				<g>
					<g>
						<rect x="-165.74" y="22.55" class="st2" width="79.95" height="61.47"/>
						<rect x="-165.74" y="22.55" class="st0" width="79.95" height="61.47"/>
					</g>
				</g>
			</g>
		</g>
		<path class="st1" d="M-106.64,71.83h-38.24c-4.08,0-7.39-3.31-7.39-7.39V42.13c0-4.08,3.31-7.39,7.39-7.39h38.24
			c4.08,0,7.39,3.31,7.39,7.39v22.31C-99.25,68.52-102.56,71.83-106.64,71.83z"/>
		<g>
			<line class="st1" x1="-151.35" y1="-3.9" x2="-125.18" y2="22.27"/>
			<line class="st1" x1="-100.18" y1="-3.9" x2="-126.35" y2="22.27"/>
		</g>
	</g>
</g>
<g>
	<polygon class="st1" points="-1318.01,84.68 -1382.9,84.68 -1382.9,-3.44 -1340,-3.44 -1329,7.55 -1318.01,18.55 	"/>
	<polyline class="st1" points="-1340,-3.44 -1340,18.09 -1318.01,18.09 	"/>
</g>
<g>
	
		<rect x="-758.17" y="24.97" transform="matrix(-1.836970e-16 1 -1 -1.836970e-16 -705.0925 798.8575)" class="st1" width="12.39" height="43.82"/>
	<rect x="-775.11" y="-3.74" class="st1" width="12.39" height="88.26"/>
	<rect x="-736.69" y="40.69" class="st1" width="12.39" height="43.82"/>
</g>
<g>
	<g>
		<polygon class="st1" points="-909.69,83.82 -974.75,83.82 -974.75,-4.52 -931.74,-4.52 -920.72,6.5 -909.69,17.53 		"/>
		<polyline class="st1" points="-931.74,-4.52 -931.74,17.07 -909.69,17.07 		"/>
	</g>
	<line class="st1" x1="-959.05" y1="37.29" x2="-927.05" y2="37.29"/>
	<line class="st1" x1="-959.33" y1="50.54" x2="-927.32" y2="50.54"/>
	<line class="st1" x1="-959.33" y1="63.78" x2="-927.32" y2="63.78"/>
</g>
<g>
	<g>
		<path class="st4" d="M-532.09,46.78v0.37c0,4.38-3.02,7.11-7.37,7.77v3.94h-4.42v-3.9c-5.08-0.7-8.25-3.98-8.25-9.28v-0.81h4.86
			v0.59c0,2.39,1.07,4.13,3.39,4.79v-7c-4.68-1.14-7.29-3.13-7.29-7.37v-0.22c0-4.02,3.09-6.67,7.29-7.26v-3.87h4.42v4.01
			c4.16,0.81,7,3.65,7,7.92v1.11h-4.86v-0.74c0-1.84-0.77-2.95-2.14-3.54v6.15C-534.71,40.59-532.09,42.58-532.09,46.78z
			 M-543.88,38.45v-5.38c-1.47,0.44-2.36,1.44-2.36,2.65C-546.24,37.24-545.32,37.94-543.88,38.45z M-537.03,47.15
			c0-1.47-0.85-2.28-2.43-2.84v5.93C-537.84,49.69-537.03,48.47-537.03,47.15z"/>
	</g>
</g>
<g>
	<circle class="st5" cx="2299.07" cy="-220.24" r="35.69"/>
	<g>
		<circle class="st6" cx="2285.27" cy="-227.3" r="1.7"/>
		<circle class="st6" cx="2312.88" cy="-227.3" r="1.7"/>
	</g>
	<path class="st7" d="M2286.55-212.26c6.92,6.92,18.12,6.92,25.04,0"/>
</g>
<g>
	<circle class="st5" cx="2362.93" cy="-220.24" r="35.69"/>
	<g>
		<circle class="st6" cx="2349.13" cy="-227.3" r="1.7"/>
		<circle class="st6" cx="2376.73" cy="-227.3" r="1.7"/>
	</g>
	<path class="st7" d="M2350.41-212.26c6.92,6.92,18.12,6.92,25.04,0"/>
</g>
<g>
	<circle class="st5" cx="2426.79" cy="-220.24" r="35.69"/>
	<g>
		<circle class="st6" cx="2412.99" cy="-227.3" r="1.7"/>
		<circle class="st6" cx="2440.59" cy="-227.3" r="1.7"/>
	</g>
	<path class="st7" d="M2414.27-212.26c6.92,6.92,18.12,6.92,25.04,0"/>
</g>
<polygon class="st1" points="-321.97,59.38 -304,77.01 -304,59.38 -286.37,59.38 -304,41.42 -286.37,23.45 -304,23.45 -304,5.82 
	-321.97,23.45 -339.93,5.82 -339.93,23.45 -357.57,23.45 -339.93,41.42 -357.57,59.38 -339.93,59.38 -339.93,77.01 "/>
<path class="st0" d="M2718.03,17.14c-19.42-11.08-39.69,1.39-38.74,22.03c1.04,22.68,19.59,51.75,37.54,44.64
	c2.43-0.97,5.14-0.97,7.57,0c17.95,7.11,36.49-21.97,37.54-44.64c0.95-20.59-19.24-33.06-38.63-22.09L2718.03,17.14z"/>
<path class="st0" d="M2727.72-4.14c-8.08,8.08-9.27,20.42-3.57,29.75"/>
<path class="st0" d="M2933.14-0.13c-15.65,1.49-19.56,16.36-22.4,32.85c-0.54,3.15-2.3,6.02-4.34,9.34
	c-3.7,6.02-8.29,13.51-5.89,25.26c1.08,5.52,4.51,10.3,9.39,13.1c6.38,3.78,15.19,4.62,22.99,2.21c1.59-0.51,3.3-0.44,4.84,0.2
	c3.02,1.27,6.28,1.91,9.56,1.88c3.96,0.01,7.88-0.85,11.47-2.52c6.07-2.82,10.57-8.21,12.26-14.69c3.27-11.72-1.68-19.37-5.65-25.52
	c-2.06-3.18-4-6.18-4.53-9.27c-2.83-16.42-6.72-31.25-22.22-32.84L2933.14-0.13z"/>
<path class="st0" d="M2941.9-17.01c-8.32,8.32-10.13,20.68-5.43,30.75"/>
<g>
	<rect x="1457.58" y="4.79" class="st1" width="99.16" height="71.2"/>
	<rect x="1457.58" y="40.39" class="st8" width="99.16" height="35.6"/>
	<rect x="1457.58" y="4.79" class="st9" width="35.6" height="35.6"/>
</g>
<polygon class="st1" points="2547.16,77.49 2496.12,85.17 2496.12,-3.7 2547.16,-11.39 "/>
<rect x="2496.12" y="-2.74" class="st1" width="63.23" height="88.87"/>
<g>
	<polygon class="st0" points="1895.03,91.03 1895.03,102.19 1883.88,91.03 1863.96,91.03 1863.96,0.75 1960.03,0.75 1960.03,91.03 	
		"/>
</g>
<g>
	<g>
		<circle class="st0" cx="1686.75" cy="28.15" r="20.4"/>
		<line class="st0" x1="1701.8" y1="43.2" x2="1709.53" y2="50.93"/>
	</g>
	
		<rect x="1715.57" y="45.84" transform="matrix(0.7071 -0.7071 0.7071 0.7071 459.7321 1235.4434)" class="st0" width="11.21" height="33.86"/>
</g>
<g>
	<path class="st0" d="M1302.11,33.9c-0.63,4.55-2.69,8.93-6.18,12.43c-8.52,8.52-22.33,8.52-30.85,0c-8.52-8.52-8.52-22.33,0-30.85
		c8.52-8.52,22.33-8.52,30.85,0C1300.95,20.5,1303.01,27.37,1302.11,33.9"/>
	<polyline class="st0" points="1303.12,33.74 1336.36,71.97 1322.89,85.44 1284.66,52.2 	"/>
	<line class="st0" x1="1329.1" y1="79.24" x2="1347.4" y2="97.54"/>
	<line class="st0" x1="1265.08" y1="46.33" x2="1295.14" y2="16.27"/>
</g>
<g>
	<rect x="2086.86" y="-3.94" class="st0" width="65.29" height="88.66"/>
	<g>
		<polyline class="st0" points="2099.35,19.05 2105.23,23.35 2112.63,11.64 		"/>
		<polyline class="st0" points="2126.38,42.7 2132.26,47 2139.66,35.29 		"/>
		<g>
			<line class="st0" x1="2139.43" y1="12.81" x2="2126.6" y2="25.64"/>
			<line class="st0" x1="2126.6" y1="12.81" x2="2139.43" y2="25.64"/>
		</g>
		<g>
			<line class="st0" x1="2112.4" y1="56.31" x2="2099.58" y2="69.14"/>
			<line class="st0" x1="2099.58" y1="56.31" x2="2112.4" y2="69.14"/>
		</g>
		<line class="st0" x1="2100.14" y1="41.15" x2="2111.84" y2="41.15"/>
		<line class="st0" x1="2127.17" y1="62.72" x2="2138.86" y2="62.72"/>
	</g>
</g>
<polygon class="st0" points="1098.93,7.63 1110.49,31.07 1136.36,34.83 1117.64,53.07 1122.06,78.83 1098.93,66.67 1075.79,78.83 
	1080.21,53.07 1061.5,34.83 1087.36,31.07 "/>
<g>
	<rect x="836.75" y="15.62" class="st0" width="116.13" height="71.69"/>
	<polyline class="st0" points="836.85,15.62 895.62,51.47 952.77,15.62 	"/>
</g>
<g>
	<g>
		<polygon class="st0" points="680.15,87.16 614.74,87.16 614.74,-1.65 657.98,-1.65 669.07,9.43 680.15,20.51 		"/>
		<polyline class="st0" points="657.98,-1.65 657.98,20.05 680.15,20.05 		"/>
	</g>
	<line class="st0" x1="630.53" y1="40.39" x2="662.7" y2="40.39"/>
	<line class="st10" x1="630.25" y1="53.7" x2="662.43" y2="53.7"/>
	<line class="st10" x1="630.25" y1="67.01" x2="662.43" y2="67.01"/>
</g>
<g>
	<g>
		<polygon class="st0" points="766.65,87.16 701.25,87.16 701.25,-1.65 744.48,-1.65 755.57,9.43 766.65,20.51 		"/>
		<polyline class="st0" points="744.48,-1.65 744.48,20.05 766.65,20.05 		"/>
	</g>
	<line class="st0" x1="717.03" y1="40.39" x2="749.2" y2="40.39"/>
	<line class="st10" x1="716.75" y1="53.7" x2="748.93" y2="53.7"/>
	<line class="st10" x1="716.75" y1="67.01" x2="748.93" y2="67.01"/>
</g>
<polyline class="st0" points="718.85,18.12 724.74,22.42 732.15,10.69 "/>
<g>
	<line class="st0" x1="644.07" y1="10.13" x2="631.22" y2="22.98"/>
	<line class="st0" x1="631.22" y1="10.13" x2="644.07" y2="22.98"/>
</g>
<g>
	<g>
		<g>
			<polygon class="st0" points="448.69,77.33 513.11,77.33 513.11,-11.46 470.53,-11.46 459.61,-0.38 448.69,10.71 			"/>
			<polyline class="st0" points="470.53,-11.46 470.53,10.24 448.69,10.24 			"/>
		</g>
	</g>
</g>
<g>
	<g>
		<circle class="st1" cx="501.68" cy="25.57" r="20.88"/>
		<line class="st1" x1="517.09" y1="40.98" x2="525.01" y2="48.89"/>
	</g>
	
		<rect x="531.19" y="43.68" transform="matrix(0.7071 -0.7071 0.7071 0.7071 114.116 397.5349)" class="st1" width="11.48" height="34.67"/>
</g>
<g>
	<path class="st0" d="M340.86,43.52c0,0-17.48,41.31-58.39,41.31s-58.39-41.31-58.39-41.31v-0.77c0,0,12.46-21.34,25.4-27.36
		c12.94-6.02,32.99,4.23,32.99,4.23l0,0c0,0,19.92-10.25,32.87-4.23c12.94,6.02,25.4,27.36,25.4,27.36L340.86,43.52z"/>
	<path class="st0" d="M224.07,42.75c0,0,48.67,12.89,116.79,0.77"/>
</g>
<g>
	<path class="st0" d="M123.14,43.07c0,0-17.47,35.88-58.34,35.88S6.46,43.07,6.46,43.07S23.93,7.18,64.8,7.18
		S123.14,43.07,123.14,43.07z"/>
	<circle class="st0" cx="64.8" cy="42.08" r="17.39"/>
</g>
<g>
	<circle class="st5" cx="3140.08" cy="45.33" r="35.69"/>
	<g>
		<circle class="st6" cx="3126.28" cy="38.27" r="1.7"/>
		<circle class="st6" cx="3153.88" cy="38.27" r="1.7"/>
	</g>
	<path class="st7" d="M3127.56,53.31c6.92,6.92,18.12,6.92,25.04,0"/>
</g>
<g>
	<circle class="st1" cx="3351.6" cy="20.38" r="22.82"/>
	<line class="st1" x1="3351.6" y1="43.2" x2="3351.6" y2="86.53"/>
	<line class="st1" x1="3333.5" y1="62.38" x2="3369.7" y2="62.38"/>
</g>
<g>
	<circle class="st1" cx="3529.46" cy="62.09" r="22.82"/>
	<line class="st1" x1="3545.67" y1="45.4" x2="3585.31" y2="5.76"/>
	<polyline class="st0" points="3558.88,5.76 3585.31,5.76 3585.31,32.18 	"/>
</g>
</svg>
