<?xml version="1.0" encoding="utf-8"?>
<!-- Generator: Adobe Illustrator 24.2.0, SVG Export Plug-In . SVG Version: 6.00 Build 0)  -->
<svg version="1.1" id="Capa_1" xmlns="http://www.w3.org/2000/svg" xmlns:xlink="http://www.w3.org/1999/xlink" x="0px" y="0px"
	 viewBox="0 0 79.07 100.29" style="enable-background:new 0 0 79.07 100.29;" xml:space="preserve">
<style type="text/css">
	.st0{fill:none;stroke:#000000;stroke-width:6.5;stroke-miterlimit:10;}
	.st1{fill:#FFFFFF;stroke:#000000;stroke-width:6.5;stroke-miterlimit:10;}
	.st2{fill:#FFFFFF;}
	.st3{stroke:#000000;stroke-width:6.5;stroke-miterlimit:10;}
	.st4{fill:#1D1D1B;}
	.st5{fill:#FFFFFF;stroke:#1D1D1B;stroke-width:6.5;stroke-miterlimit:10;}
	.st6{fill:#1D1D1B;stroke:#1D1D1B;stroke-width:6.5;stroke-miterlimit:10;}
	.st7{fill:none;stroke:#1D1D1B;stroke-width:6.5;stroke-miterlimit:10;}
	.st8{fill:#FC5439;stroke:#000000;stroke-width:6.5;stroke-miterlimit:10;}
	.st9{fill:#3A90FD;stroke:#000000;stroke-width:6.5;stroke-miterlimit:10;}
	.st10{fill:#F1CD08;stroke:#000000;stroke-width:6.5;stroke-miterlimit:10;}
</style>
<g>
	<path class="st0" d="M-404.23,91.8V17.47c0-4.23,3.43-7.65,7.65-7.65h54.6v77.9"/>
	<path class="st0" d="M-380.66,98.55h38.68V85.06h-55.51c-3.72,0-6.74,3.02-6.74,6.74v0c0,3.72,3.02,6.74,6.74,6.74h1.52"/>
	<rect x="-386.56" y="30.58" class="st0" width="26.92" height="15.7"/>
	<polygon class="st0" points="-382.84,111.7 -388.1,117 -393.36,111.7 -393.36,94.74 -382.84,94.74 	"/>
</g>
<polygon class="st0" points="-734.93,54.43 -770.61,18.75 -770.61,34.26 -827.73,34.26 -827.73,75.99 -770.61,75.99 -770.61,90.1 
	"/>
<g>
	<polyline class="st0" points="-562,27.81 -538.36,27.81 -538.36,99.01 -615.22,99.01 -615.22,27.81 -585.09,27.81 	"/>
	<polygon class="st0" points="-579.73,39.62 -588.31,31.04 -567.12,9.85 -555.58,21.39 -573.81,39.62 	"/>
	<polyline class="st0" points="-589.69,39.62 -579.73,39.62 -573.81,39.62 -563.9,39.62 	"/>
</g>
<g>
	<polygon class="st0" points="-950.15,0.13 -1026.17,51.69 -1033.9,71.09 -1013.01,71.09 -936.99,19.53 	"/>
	<line class="st0" x1="-1026.17" y1="51.69" x2="-1013.01" y2="71.09"/>
</g>
<g>
	<g>
		<path class="st1" d="M-164.34,87.38h24.01c19.62,0,35.53-15.91,35.53-35.53v0c0-19.62-15.91-35.53-35.53-35.53l-3.72,0h-78.89
			c-4.91,0-8.88,3.98-8.88,8.88v0c0,4.91,3.98,8.88,8.88,8.88h68.05v0"/>
		<path class="st1" d="M-154.89,34.1h-21.1c-4.91,0-8.88,3.98-8.88,8.88v0c0,4.91,3.98,8.88,8.88,8.88h19.4h1.7
			c4.91,0,8.88-3.98,8.88-8.88v0C-146.01,38.07-149.99,34.1-154.89,34.1z"/>
		<path class="st1" d="M-154.26,51.86h-21.1c-4.91,0-8.88,3.98-8.88,8.88v0c0,4.91,3.98,8.88,8.88,8.88h19.4h1.7
			c4.91,0,8.88-3.98,8.88-8.88v0C-145.38,55.84-149.35,51.86-154.26,51.86z"/>
		<path class="st1" d="M-154.26,69.62h-21.1c-4.91,0-8.88,3.98-8.88,8.88v0c0,4.91,3.98,8.88,8.88,8.88h19.4h1.7
			c4.91,0,8.88-3.98,8.88-8.88v0C-145.38,73.6-149.35,69.62-154.26,69.62z"/>
	</g>
	<path class="st1" d="M-140.81,18.21l-11.69,23.48c-2.15,4.41-0.32,9.73,4.09,11.88l0,0c4.41,2.15,9.73,0.32,11.88-4.09l8.54-17.14"
		/>
</g>
<g>
	<ellipse class="st2" cx="40.92" cy="57.44" rx="28.07" ry="18.08"/>
	<g>
		<path class="st1" d="M60.29,52.7V38.07c0-3.72,3.01-6.73,6.73-6.73h0c3.72,0,6.73,3.01,6.73,6.73v22.75
			c0,18.59-15.07,33.66-33.66,33.66h0c-18.59,0-33.66-15.07-33.66-33.66V37.71h0c7.43,0,13.45,6.02,13.45,13.45v8.75h0
			c7.42,0,13.44,6.02,13.44,13.44v0.83"/>
		<path class="st1" d="M60.22,52.7V19.93c0-3.72-3.01-6.73-6.73-6.73h0c-3.72,0-6.73,3.01-6.73,6.73v25.15"/>
		<path class="st1" d="M46.77,48.88V13.11c0-3.72-3.01-6.73-6.73-6.73h0c-3.72,0-6.73,3.01-6.73,6.73v25.15"/>
		<path class="st1" d="M33.31,48.09V18.32c0-3.72-3.01-6.73-6.73-6.73h0c-3.72,0-6.73,3.01-6.73,6.73v37.79"/>
	</g>
</g>
<g>
	<line class="st0" x1="226.2" y1="-161.92" x2="302.76" y2="-180.89"/>
	<circle class="st1" cx="226.2" cy="-161.92" r="25.98"/>
	<line class="st0" x1="379.56" y1="-161.9" x2="303.01" y2="-180.88"/>
	<circle class="st1" cx="379.56" cy="-161.92" r="25.98"/>
	<circle class="st1" cx="302.76" cy="-180.89" r="25.98"/>
</g>
<g>
	<circle class="st0" cx="448.73" cy="48.88" r="35.6"/>
	<g>
		<circle class="st3" cx="434.96" cy="41.84" r="1.69"/>
		<circle class="st3" cx="462.5" cy="41.84" r="1.69"/>
	</g>
	<path class="st0" d="M436.24,56.84c6.9,6.9,18.07,6.9,24.98,0"/>
</g>
<g>
	<line class="st0" x1="688.29" y1="12.95" x2="688.29" y2="84.81"/>
	<line class="st0" x1="617.97" y1="48.88" x2="567.06" y2="48.88"/>
	<line class="st0" x1="727.89" y1="48.88" x2="676.98" y2="48.88"/>
	<rect x="598.58" y="29.62" class="st1" width="89.71" height="38.51"/>
	<line class="st0" x1="726.28" y1="33.12" x2="726.28" y2="64.64"/>
	<line class="st0" x1="639.8" y1="30.37" x2="639.8" y2="45.32"/>
	<line class="st0" x1="653.43" y1="31.58" x2="653.43" y2="53"/>
</g>
<circle class="st1" cx="3292.85" cy="52.19" r="35.26"/>
<g>
	<rect x="817.72" y="6.03" class="st1" width="70.6" height="50.69"/>
	<line class="st1" x1="817.72" y1="-1.7" x2="817.72" y2="87.69"/>
	<rect x="817.72" y="31.38" class="st1" width="70.6" height="25.35"/>
	<rect x="817.72" y="6.03" class="st1" width="25.35" height="25.35"/>
</g>
<g transform="translate(0,-952.36218)">
	<path class="st1" d="M1026.66,1027.23c0,18.4,13.01,33.32,29.05,33.32c16.03,0,29.05-14.92,29.05-33.32
		c0-18.4-13.96-38.93-29.05-56.24C1055.71,970.99,1026.66,1004.01,1026.66,1027.23z"/>
</g>
<g>
	<polyline class="st1" points="1203.64,49.3 1248.38,4.56 1293.11,49.3 	"/>
	<path class="st1" d="M1248.38,41.55"/>
	<polygon class="st1" points="1278.67,93.2 1218.09,93.2 1218.09,34.89 1248.38,4.56 1278.67,34.89 	"/>
	<polyline class="st0" points="1235.26,93.2 1235.26,57.85 1261.49,57.85 1261.49,93.2 	"/>
</g>
<g>
	<circle class="st1" cx="2688.63" cy="54.43" r="35.29"/>
	<polyline class="st1" points="2675.07,54.04 2683.25,63.85 2702.18,45 	"/>
</g>
<g>
	<g>
		<g>
			<rect x="1429.17" y="23.63" class="st0" width="69.54" height="69.54"/>
			<g>
				<line class="st1" x1="1444.08" y1="12.83" x2="1444.08" y2="34.42"/>
				<line class="st1" x1="1483.79" y1="12.83" x2="1483.79" y2="34.42"/>
			</g>
		</g>
		<line class="st1" x1="1429.17" y1="46.33" x2="1498.71" y2="46.33"/>
	</g>
	<g>
		<path class="st4" d="M1464.54,58.58v4.07l-6.81,5.54v0.42h0.91c3.4,0,6.46,2.35,6.46,6.81c0,4.98-3.79,8.21-9.26,8.21
			c-5.86,0-9.4-3.47-9.4-8.35V74.3h4.63v0.84c0,2.39,1.65,4.35,4.77,4.35c2.91,0,4.63-1.72,4.63-4.07c0-2.35-1.65-3.51-4-3.51h-4.28
			v-4.14l6.07-4.98h-11.12v-4.21H1464.54z"/>
		<path class="st4" d="M1479.91,58.58v24.56h-4.63V63.49h-0.42l-3.44,6.18h-4.84l6.32-11.09H1479.91z"/>
	</g>
</g>
<g>
	<g>
		<circle class="st1" cx="1666.27" cy="58.35" r="34.11"/>
		<g>
			<path class="st1" d="M1660.79,24.99c-15.63,19.6-15.53,47.58,0.29,67.07"/>
			<path class="st1" d="M1672.68,24.99c15.48,19.42,15.53,47.05,0.16,66.52"/>
		</g>
		<line class="st1" x1="1632.16" y1="58.35" x2="1700.37" y2="58.35"/>
		<line class="st1" x1="1666.74" y1="24.44" x2="1666.74" y2="92.26"/>
	</g>
</g>
<g>
	<circle class="st1" cx="1858.74" cy="35.49" r="22.82"/>
	<line class="st1" x1="1858.74" y1="58.31" x2="1858.74" y2="101.65"/>
	<line class="st1" x1="1840.64" y1="77.5" x2="1876.84" y2="77.5"/>
</g>
<g>
	<circle class="st1" cx="2071.21" cy="45.26" r="22.82"/>
	<line class="st1" x1="2087.42" y1="28.57" x2="2127.06" y2="-11.07"/>
	<polyline class="st0" points="2100.64,-11.07 2127.06,-11.07 2127.06,15.35 	"/>
</g>
<path class="st1" d="M2324.99,61.77V49.73l-36.59-13.14l0.48-18.57c0.09-2.9-1.09-5.69-3.23-7.65v0c-3.79-3.47-9.61-3.48-13.41-0.01
	l-0.01,0.01c-2.15,1.96-3.34,4.76-3.24,7.66l0.48,18.55l-33.67,12.17v12.04l34.33-6.35l1.48,23.62l-12.3,10.06v8.46l20.03-9.74
	l20.03,9.74v-8.46l-13.09-10.58l1.44-22.86L2324.99,61.77z"/>
<g>
	<g>
		<g>
			<g>
				<g>
					<g>
						<rect x="3669.23" y="33.13" class="st2" width="79.95" height="61.47"/>
						<rect x="3669.23" y="33.13" class="st0" width="79.95" height="61.47"/>
					</g>
				</g>
			</g>
		</g>
		<path class="st1" d="M3728.32,82.41h-38.24c-4.08,0-7.39-3.31-7.39-7.39V52.71c0-4.08,3.31-7.39,7.39-7.39h38.24
			c4.08,0,7.39,3.31,7.39,7.39v22.31C3735.71,79.1,3732.4,82.41,3728.32,82.41z"/>
		<g>
			<line class="st1" x1="3683.62" y1="6.68" x2="3709.79" y2="32.85"/>
			<line class="st1" x1="3734.79" y1="6.68" x2="3708.62" y2="32.85"/>
		</g>
	</g>
</g>
<g>
	<polygon class="st1" points="2516.96,97.06 2452.06,97.06 2452.06,8.94 2494.96,8.94 2505.96,19.93 2516.96,30.93 	"/>
	<polyline class="st1" points="2494.96,8.94 2494.96,30.47 2516.96,30.47 	"/>
</g>
<g>
	
		<rect x="3076.79" y="37.35" transform="matrix(-1.836970e-16 1 -1 -1.836970e-16 3142.2534 -3023.7251)" class="st1" width="12.39" height="43.82"/>
	<rect x="3059.86" y="8.64" class="st1" width="12.39" height="88.26"/>
	<rect x="3098.27" y="53.07" class="st1" width="12.39" height="43.82"/>
</g>
<g>
	<g>
		<polygon class="st1" points="2925.27,94.48 2860.21,94.48 2860.21,6.13 2903.22,6.13 2914.25,17.16 2925.27,28.18 		"/>
		<polyline class="st1" points="2903.22,6.13 2903.22,27.73 2925.27,27.73 		"/>
	</g>
	<line class="st1" x1="2875.91" y1="47.95" x2="2907.92" y2="47.95"/>
	<line class="st1" x1="2875.63" y1="61.2" x2="2907.64" y2="61.2"/>
	<line class="st1" x1="2875.63" y1="74.44" x2="2907.64" y2="74.44"/>
</g>
<g>
	<g>
		<path class="st4" d="M3302.87,57.28v0.37c0,4.38-3.02,7.11-7.37,7.77v3.94h-4.42v-3.9c-5.08-0.7-8.25-3.98-8.25-9.28v-0.81h4.86
			v0.59c0,2.39,1.07,4.13,3.39,4.79v-7c-4.68-1.14-7.29-3.13-7.29-7.37v-0.22c0-4.02,3.09-6.67,7.29-7.26v-3.87h4.42v4.01
			c4.16,0.81,7,3.65,7,7.92v1.11h-4.86v-0.74c0-1.84-0.77-2.95-2.14-3.54v6.15C3300.26,51.09,3302.87,53.08,3302.87,57.28z
			 M3291.09,48.95v-5.38c-1.47,0.44-2.36,1.44-2.36,2.65C3288.73,47.74,3289.65,48.43,3291.09,48.95z M3297.94,57.64
			c0-1.47-0.85-2.28-2.43-2.84v5.93C3297.13,60.19,3297.94,58.97,3297.94,57.64z"/>
	</g>
</g>
<g>
	<circle class="st5" cx="6134.04" cy="-207.86" r="35.69"/>
	<g>
		<circle class="st6" cx="6120.24" cy="-214.92" r="1.7"/>
		<circle class="st6" cx="6147.84" cy="-214.92" r="1.7"/>
	</g>
	<path class="st7" d="M6121.52-199.88c6.92,6.92,18.12,6.92,25.04,0"/>
</g>
<g>
	<circle class="st5" cx="6197.9" cy="-207.86" r="35.69"/>
	<g>
		<circle class="st6" cx="6184.1" cy="-214.92" r="1.7"/>
		<circle class="st6" cx="6211.7" cy="-214.92" r="1.7"/>
	</g>
	<path class="st7" d="M6185.38-199.88c6.92,6.92,18.12,6.92,25.04,0"/>
</g>
<g>
	<circle class="st5" cx="6261.76" cy="-207.86" r="35.69"/>
	<g>
		<circle class="st6" cx="6247.96" cy="-214.92" r="1.7"/>
		<circle class="st6" cx="6275.56" cy="-214.92" r="1.7"/>
	</g>
	<path class="st7" d="M6249.24-199.88c6.92,6.92,18.12,6.92,25.04,0"/>
</g>
<polygon class="st1" points="3513,71.76 3530.96,89.4 3530.96,71.76 3548.6,71.76 3530.96,53.8 3548.6,35.84 3530.96,35.84 
	3530.96,18.2 3513,35.84 3495.03,18.2 3495.03,35.84 3477.4,35.84 3495.03,53.8 3477.4,71.76 3495.03,71.76 3495.03,89.4 "/>
<path class="st0" d="M6553,29.52c-19.42-11.08-39.69,1.39-38.74,22.03c1.04,22.68,19.59,51.75,37.54,44.64
	c2.43-0.97,5.14-0.97,7.57,0c17.95,7.11,36.49-21.97,37.54-44.64c0.95-20.59-19.24-33.06-38.63-22.09L6553,29.52z"/>
<path class="st0" d="M6562.69,8.25c-8.08,8.08-9.27,20.42-3.57,29.75"/>
<path class="st0" d="M6768.1,12.26c-15.65,1.49-19.56,16.36-22.4,32.85c-0.54,3.15-2.3,6.02-4.34,9.34
	c-3.7,6.02-8.29,13.51-5.89,25.26c1.08,5.52,4.5,10.3,9.39,13.1c6.38,3.78,15.19,4.62,22.99,2.21c1.59-0.51,3.3-0.44,4.84,0.2
	c3.02,1.27,6.28,1.91,9.56,1.88c3.96,0.01,7.88-0.85,11.47-2.52c6.07-2.82,10.57-8.21,12.26-14.69c3.27-11.72-1.68-19.37-5.65-25.52
	c-2.06-3.18-4-6.18-4.53-9.27c-2.83-16.42-6.72-31.25-22.22-32.84L6768.1,12.26z"/>
<path class="st0" d="M6776.86-4.62c-8.32,8.32-10.13,20.68-5.43,30.75"/>
<g>
	<rect x="5292.54" y="17.17" class="st1" width="99.16" height="71.2"/>
	<rect x="5292.54" y="52.77" class="st8" width="99.16" height="35.6"/>
	<rect x="5292.54" y="17.17" class="st9" width="35.6" height="35.6"/>
</g>
<polygon class="st1" points="6382.13,89.87 6331.09,97.55 6331.09,8.68 6382.13,1 "/>
<rect x="6331.09" y="9.65" class="st1" width="63.23" height="88.87"/>
<g>
	<polygon class="st0" points="5730,103.41 5730,114.57 5718.84,103.41 5698.92,103.41 5698.92,13.13 5794.99,13.13 5794.99,103.41 	
		"/>
</g>
<g>
	<g>
		<circle class="st0" cx="5521.71" cy="40.53" r="20.4"/>
		<line class="st0" x1="5536.76" y1="55.58" x2="5544.5" y2="63.32"/>
	</g>
	
		<rect x="5550.54" y="58.23" transform="matrix(0.7071 -0.7071 0.7071 0.7071 1574.2122 3950.7991)" class="st0" width="11.21" height="33.86"/>
</g>
<g>
	<path class="st0" d="M5137.08,46.28c-0.63,4.55-2.69,8.93-6.18,12.43c-8.52,8.52-22.33,8.52-30.85,0s-8.52-22.33,0-30.85
		s22.33-8.52,30.85,0C5135.92,32.88,5137.98,39.75,5137.08,46.28"/>
	<polyline class="st0" points="5138.08,46.12 5171.33,84.36 5157.86,97.83 5119.62,64.58 	"/>
	<line class="st0" x1="5164.06" y1="91.62" x2="5182.36" y2="109.92"/>
	<line class="st0" x1="5100.04" y1="58.71" x2="5130.1" y2="28.65"/>
</g>
<g>
	<rect x="5921.82" y="8.44" class="st0" width="65.29" height="88.66"/>
	<g>
		<polyline class="st0" points="5934.31,31.43 5940.2,35.73 5947.6,24.02 		"/>
		<polyline class="st0" points="5961.34,55.09 5967.22,59.38 5974.62,47.67 		"/>
		<g>
			<line class="st0" x1="5974.39" y1="25.2" x2="5961.57" y2="38.02"/>
			<line class="st0" x1="5961.57" y1="25.2" x2="5974.39" y2="38.02"/>
		</g>
		<g>
			<line class="st0" x1="5947.37" y1="68.69" x2="5934.54" y2="81.52"/>
			<line class="st0" x1="5934.54" y1="68.69" x2="5947.37" y2="81.52"/>
		</g>
		<line class="st0" x1="5935.11" y1="53.53" x2="5946.8" y2="53.53"/>
		<line class="st0" x1="5962.13" y1="75.1" x2="5973.83" y2="75.1"/>
	</g>
</g>
<polygon class="st0" points="4933.89,20.02 4945.46,43.45 4971.32,47.21 4952.61,65.45 4957.03,91.21 4933.89,79.05 4910.76,91.21 
	4915.18,65.45 4896.46,47.21 4922.33,43.45 "/>
<g>
	<rect x="4671.71" y="28" class="st0" width="116.13" height="71.69"/>
	<polyline class="st0" points="4671.82,28 4730.58,63.85 4787.74,28 	"/>
</g>
<g>
	<g>
		<polygon class="st0" points="4515.11,99.54 4449.71,99.54 4449.71,10.73 4492.95,10.73 4504.03,21.81 4515.11,32.9 		"/>
		<polyline class="st0" points="4492.95,10.73 4492.95,32.43 4515.11,32.43 		"/>
	</g>
	<line class="st0" x1="4465.49" y1="52.77" x2="4497.67" y2="52.77"/>
	<line class="st10" x1="4465.21" y1="66.08" x2="4497.39" y2="66.08"/>
	<line class="st10" x1="4465.21" y1="79.4" x2="4497.39" y2="79.4"/>
</g>
<g>
	<g>
		<polygon class="st0" points="4601.62,99.54 4536.21,99.54 4536.21,10.73 4579.45,10.73 4590.53,21.81 4601.62,32.9 		"/>
		<polyline class="st0" points="4579.45,10.73 4579.45,32.43 4601.62,32.43 		"/>
	</g>
	<line class="st0" x1="4551.99" y1="52.77" x2="4584.17" y2="52.77"/>
	<line class="st10" x1="4551.71" y1="66.08" x2="4583.89" y2="66.08"/>
	<line class="st10" x1="4551.71" y1="79.4" x2="4583.89" y2="79.4"/>
</g>
<polyline class="st0" points="4553.81,30.5 4559.7,34.8 4567.12,23.07 "/>
<g>
	<line class="st0" x1="4479.03" y1="22.51" x2="4466.18" y2="35.36"/>
	<line class="st0" x1="4466.18" y1="22.51" x2="4479.03" y2="35.36"/>
</g>
<g>
	<g>
		<g>
			<polygon class="st0" points="4283.66,89.71 4348.07,89.71 4348.07,0.93 4305.49,0.93 4294.57,12.01 4283.66,23.09 			"/>
			<polyline class="st0" points="4305.49,0.93 4305.49,22.62 4283.66,22.62 			"/>
		</g>
	</g>
</g>
<g>
	<g>
		<circle class="st1" cx="4336.64" cy="37.95" r="20.88"/>
		<line class="st1" x1="4352.05" y1="53.36" x2="4359.97" y2="61.28"/>
	</g>
	
		<rect x="4366.15" y="56.06" transform="matrix(0.7071 -0.7071 0.7071 0.7071 1228.5959 3112.8906)" class="st1" width="11.48" height="34.67"/>
</g>
<g>
	<path class="st0" d="M4175.82,55.91c0,0-17.49,41.31-58.39,41.31c-40.91,0-58.39-41.31-58.39-41.31v-0.77
		c0,0,12.46-21.34,25.4-27.36s32.99,4.23,32.99,4.23l0,0c0,0,19.92-10.25,32.87-4.23c12.94,6.02,25.4,27.36,25.4,27.36
		L4175.82,55.91z"/>
	<path class="st0" d="M4059.04,55.14c0,0,48.67,12.89,116.79,0.77"/>
</g>
<g>
	<path class="st0" d="M3958.1,60.14c0,0-17.47,35.88-58.34,35.88c-40.87,0-58.34-35.88-58.34-35.88s17.47-35.88,58.34-35.88
		C3940.64,24.25,3958.1,60.14,3958.1,60.14z"/>
	<circle class="st0" cx="3899.77" cy="59.15" r="17.39"/>
</g>
<g>
	<circle class="st5" cx="6975.04" cy="57.72" r="35.69"/>
	<g>
		<circle class="st6" cx="6961.24" cy="50.66" r="1.7"/>
		<circle class="st6" cx="6988.84" cy="50.66" r="1.7"/>
	</g>
	<path class="st7" d="M6962.52,65.69c6.92,6.92,18.12,6.92,25.04,0"/>
</g>
<g>
	<circle class="st1" cx="7186.56" cy="32.76" r="22.82"/>
	<line class="st1" x1="7186.56" y1="55.58" x2="7186.56" y2="98.91"/>
	<line class="st1" x1="7168.47" y1="74.77" x2="7204.66" y2="74.77"/>
</g>
<g>
	<circle class="st1" cx="7364.42" cy="74.47" r="22.82"/>
	<line class="st1" x1="7380.64" y1="57.78" x2="7420.27" y2="18.14"/>
	<polyline class="st0" points="7393.85,18.14 7420.27,18.14 7420.27,44.57 	"/>
</g>
</svg>
