<?xml version="1.0" encoding="utf-8"?>
<!-- Generator: Adobe Illustrator 24.2.0, SVG Export Plug-In . SVG Version: 6.00 Build 0)  -->
<svg version="1.1" id="Capa_1" xmlns="http://www.w3.org/2000/svg" xmlns:xlink="http://www.w3.org/1999/xlink" x="0px" y="0px"
	 viewBox="0 0 85.82 112.82" style="enable-background:new 0 0 85.82 112.82;" xml:space="preserve">
<style type="text/css">
	.st0{fill:none;stroke:#000000;stroke-width:6.5;stroke-miterlimit:10;}
	.st1{fill:#FFFFFF;stroke:#000000;stroke-width:6.5;stroke-miterlimit:10;}
	.st2{fill:#FFFFFF;}
	.st3{stroke:#000000;stroke-width:6.5;stroke-miterlimit:10;}
	.st4{fill:#1D1D1B;}
	.st5{fill:#FFFFFF;stroke:#1D1D1B;stroke-width:6.5;stroke-miterlimit:10;}
	.st6{fill:#1D1D1B;stroke:#1D1D1B;stroke-width:6.5;stroke-miterlimit:10;}
	.st7{fill:none;stroke:#1D1D1B;stroke-width:6.5;stroke-miterlimit:10;}
	.st8{fill:#FC5439;stroke:#000000;stroke-width:6.5;stroke-miterlimit:10;}
	.st9{fill:#3A90FD;stroke:#000000;stroke-width:6.5;stroke-miterlimit:10;}
	.st10{fill:#F1CD08;stroke:#000000;stroke-width:6.5;stroke-miterlimit:10;}
</style>
<g>
	<path class="st0" d="M-7131.08,101.45V27.11c0-4.23,3.43-7.65,7.65-7.65h54.6v77.9"/>
	<path class="st0" d="M-7107.52,108.19h38.68V94.7h-55.51c-3.72,0-6.74,3.02-6.74,6.74v0c0,3.72,3.02,6.74,6.74,6.74h1.52"/>
	<rect x="-7113.42" y="40.23" class="st0" width="26.92" height="15.7"/>
	<polygon class="st0" points="-7109.7,121.34 -7114.96,126.65 -7120.22,121.34 -7120.22,104.39 -7109.7,104.39 	"/>
</g>
<polygon class="st0" points="-7461.79,64.07 -7497.46,28.4 -7497.46,43.9 -7554.58,43.9 -7554.58,85.64 -7497.46,85.64 
	-7497.46,99.74 "/>
<g>
	<polyline class="st0" points="-7288.85,37.45 -7265.22,37.45 -7265.22,108.65 -7342.08,108.65 -7342.08,37.45 -7311.95,37.45 	"/>
	<polygon class="st0" points="-7306.59,49.26 -7315.17,40.68 -7293.98,19.49 -7282.43,31.04 -7300.66,49.26 	"/>
	<polyline class="st0" points="-7316.54,49.26 -7306.59,49.26 -7300.66,49.26 -7290.75,49.26 	"/>
</g>
<g>
	<polygon class="st0" points="-7677.01,9.77 -7753.03,61.33 -7760.76,80.74 -7739.87,80.74 -7663.85,29.18 	"/>
	<line class="st0" x1="-7753.03" y1="61.33" x2="-7739.87" y2="80.74"/>
</g>
<g>
	<g>
		<path class="st1" d="M-6891.19,97.03h24.01c19.62,0,35.53-15.91,35.53-35.53v0c0-19.62-15.91-35.53-35.53-35.53l-3.72,0h-78.89
			c-4.91,0-8.88,3.98-8.88,8.88v0c0,4.91,3.98,8.88,8.88,8.88h68.05v0"/>
		<path class="st1" d="M-6881.75,43.74h-21.1c-4.91,0-8.88,3.98-8.88,8.88v0c0,4.91,3.98,8.88,8.88,8.88h19.4h1.7
			c4.91,0,8.88-3.98,8.88-8.88v0C-6872.87,47.72-6876.85,43.74-6881.75,43.74z"/>
		<path class="st1" d="M-6881.11,61.5h-21.1c-4.91,0-8.88,3.98-8.88,8.88v0c0,4.91,3.98,8.88,8.88,8.88h19.4h1.7
			c4.91,0,8.88-3.98,8.88-8.88v0C-6872.23,65.48-6876.21,61.5-6881.11,61.5z"/>
		<path class="st1" d="M-6881.11,79.27h-21.1c-4.91,0-8.88,3.98-8.88,8.88v0c0,4.91,3.98,8.88,8.88,8.88h19.4h1.7
			c4.91,0,8.88-3.98,8.88-8.88v0C-6872.23,83.24-6876.21,79.27-6881.11,79.27z"/>
	</g>
	<path class="st1" d="M-6867.67,27.85l-11.69,23.48c-2.15,4.41-0.32,9.73,4.09,11.88v0c4.41,2.15,9.73,0.32,11.88-4.09l8.54-17.14"
		/>
</g>
<g>
	<ellipse class="st2" cx="-6685.93" cy="67.08" rx="28.07" ry="18.08"/>
	<g>
		<path class="st1" d="M-6666.57,62.35V47.72c0-3.72,3.01-6.73,6.73-6.73l0,0c3.72,0,6.73,3.01,6.73,6.73v22.75
			c0,18.59-15.07,33.66-33.66,33.66l0,0c-18.59,0-33.66-15.07-33.66-33.66V47.36l0,0c7.43,0,13.45,6.02,13.45,13.45v8.75l0,0
			c7.42,0,13.44,6.02,13.44,13.44v0.83"/>
		<path class="st1" d="M-6666.64,62.35V29.58c0-3.72-3.01-6.73-6.73-6.73l0,0c-3.71,0-6.73,3.01-6.73,6.73v25.15"/>
		<path class="st1" d="M-6680.09,58.52V22.75c0-3.72-3.01-6.73-6.73-6.73l0,0c-3.72,0-6.73,3.01-6.73,6.73V47.9"/>
		<path class="st1" d="M-6693.55,57.74V27.97c0-3.72-3.01-6.73-6.73-6.73l0,0c-3.72,0-6.73,3.01-6.73,6.73v37.79"/>
	</g>
</g>
<g>
	<line class="st0" x1="-6500.66" y1="-152.27" x2="-6424.1" y2="-171.25"/>
	<circle class="st1" cx="-6500.66" cy="-152.27" r="25.98"/>
	<line class="st0" x1="-6347.29" y1="-152.26" x2="-6423.85" y2="-171.24"/>
	<circle class="st1" cx="-6347.29" cy="-152.27" r="25.98"/>
	<circle class="st1" cx="-6424.1" cy="-171.25" r="25.98"/>
</g>
<g>
	<circle class="st0" cx="-6278.13" cy="58.52" r="35.6"/>
	<g>
		<circle class="st3" cx="-6291.89" cy="51.48" r="1.69"/>
		<circle class="st3" cx="-6264.36" cy="51.48" r="1.69"/>
	</g>
	<path class="st0" d="M-6290.61,66.48c6.9,6.9,18.07,6.9,24.98,0"/>
</g>
<g>
	<line class="st0" x1="-6045.32" y1="25.88" x2="-6045.32" y2="97.73"/>
	<line class="st0" x1="-6115.63" y1="61.8" x2="-6166.55" y2="61.8"/>
	<line class="st0" x1="-6005.71" y1="61.8" x2="-6056.63" y2="61.8"/>
	<rect x="-6135.03" y="42.55" class="st1" width="89.71" height="38.51"/>
	<line class="st0" x1="-6007.33" y1="46.04" x2="-6007.33" y2="77.56"/>
	<line class="st0" x1="-6093.81" y1="43.29" x2="-6093.81" y2="58.24"/>
	<line class="st0" x1="-6080.18" y1="44.5" x2="-6080.18" y2="65.92"/>
</g>
<circle class="st1" cx="-3434" cy="63.72" r="35.26"/>
<g>
	<rect x="-5909.14" y="15.67" class="st1" width="70.6" height="50.69"/>
	<line class="st1" x1="-5909.14" y1="7.95" x2="-5909.14" y2="97.34"/>
	<rect x="-5909.14" y="41.02" class="st1" width="70.6" height="25.35"/>
	<rect x="-5909.14" y="15.67" class="st1" width="25.35" height="25.35"/>
</g>
<g transform="translate(0,-952.36218)">
	<path class="st1" d="M-5700.2,1036.87c0,18.4,13.01,33.32,29.05,33.32s29.05-14.92,29.05-33.32s-13.96-38.93-29.05-56.24
		C-5671.15,980.63-5700.2,1013.65-5700.2,1036.87z"/>
</g>
<g>
	<polyline class="st1" points="-5523.22,58.94 -5478.48,14.21 -5433.75,58.94 	"/>
	<path class="st1" d="M-5478.48,51.19"/>
	<polygon class="st1" points="-5448.19,102.84 -5508.77,102.84 -5508.77,44.53 -5478.48,14.21 -5448.19,44.53 	"/>
	<polyline class="st0" points="-5491.6,102.84 -5491.6,67.49 -5465.36,67.49 -5465.36,102.84 	"/>
</g>
<g>
	<circle class="st1" cx="-4038.23" cy="64.07" r="35.29"/>
	<polyline class="st1" points="-4051.79,63.69 -4043.61,73.49 -4024.67,54.65 	"/>
</g>
<g>
	<g>
		<g>
			<rect x="-5297.69" y="33.27" class="st0" width="69.54" height="69.54"/>
			<g>
				<line class="st1" x1="-5282.78" y1="22.47" x2="-5282.78" y2="44.06"/>
				<line class="st1" x1="-5243.07" y1="22.47" x2="-5243.07" y2="44.06"/>
			</g>
		</g>
		<line class="st1" x1="-5297.69" y1="55.97" x2="-5228.15" y2="55.97"/>
	</g>
	<g>
		<path class="st4" d="M-5262.32,68.22v4.07l-6.81,5.54v0.42h0.91c3.4,0,6.46,2.35,6.46,6.81c0,4.98-3.79,8.21-9.26,8.21
			c-5.86,0-9.4-3.47-9.4-8.35v-0.98h4.63v0.84c0,2.39,1.65,4.35,4.77,4.35c2.91,0,4.63-1.72,4.63-4.07s-1.65-3.51-4-3.51h-4.28
			v-4.14l6.07-4.98h-11.12v-4.21H-5262.32z"/>
		<path class="st4" d="M-5246.95,68.22v24.56h-4.63V73.13h-0.42l-3.44,6.18h-4.84l6.32-11.09H-5246.95z"/>
	</g>
</g>
<g>
	<g>
		<circle class="st1" cx="-5060.59" cy="67.99" r="34.11"/>
		<g>
			<path class="st1" d="M-5066.07,34.63c-15.63,19.6-15.53,47.58,0.29,67.07"/>
			<path class="st1" d="M-5054.17,34.63c15.48,19.42,15.53,47.05,0.16,66.52"/>
		</g>
		<line class="st1" x1="-5094.69" y1="67.99" x2="-5026.48" y2="67.99"/>
		<line class="st1" x1="-5060.12" y1="34.08" x2="-5060.12" y2="101.9"/>
	</g>
</g>
<g>
	<circle class="st1" cx="-4868.12" cy="44.34" r="22.82"/>
	<line class="st1" x1="-4868.12" y1="67.16" x2="-4868.12" y2="110.5"/>
	<line class="st1" x1="-4886.22" y1="86.35" x2="-4850.02" y2="86.35"/>
</g>
<g>
	<circle class="st1" cx="-4655.65" cy="54.9" r="22.82"/>
	<line class="st1" x1="-4639.43" y1="38.21" x2="-4599.8" y2="-1.43"/>
	<polyline class="st0" points="-4626.22,-1.43 -4599.8,-1.43 -4599.8,25 	"/>
</g>
<path class="st1" d="M-4401.87,71.41V59.37l-36.59-13.14l0.48-18.57c0.09-2.9-1.09-5.69-3.23-7.65v0
	c-3.79-3.47-9.61-3.48-13.41-0.01l-0.01,0.01c-2.15,1.96-3.34,4.76-3.24,7.66l0.48,18.55l-33.67,12.17v12.04l34.33-6.35l1.48,23.62
	l-12.3,10.06v8.46l20.03-9.74l20.03,9.74v-8.46l-13.09-10.58l1.44-22.86L-4401.87,71.41z"/>
<g>
	<g>
		<g>
			<g>
				<g>
					<g>
						<rect x="-3057.63" y="44.57" class="st2" width="79.95" height="61.47"/>
						<rect x="-3057.63" y="44.57" class="st0" width="79.95" height="61.47"/>
					</g>
				</g>
			</g>
		</g>
		<path class="st1" d="M-2998.54,93.85h-38.24c-4.08,0-7.39-3.31-7.39-7.39V64.15c0-4.08,3.31-7.39,7.39-7.39h38.24
			c4.08,0,7.39,3.31,7.39,7.39v22.31C-2991.14,90.54-2994.45,93.85-2998.54,93.85z"/>
		<g>
			<line class="st1" x1="-3043.24" y1="18.12" x2="-3017.07" y2="44.29"/>
			<line class="st1" x1="-2992.07" y1="18.12" x2="-3018.24" y2="44.29"/>
		</g>
	</g>
</g>
<g>
	<polygon class="st1" points="-4209.9,106.7 -4274.79,106.7 -4274.79,18.58 -4231.89,18.58 -4220.9,29.58 -4209.9,40.57 	"/>
	<polyline class="st1" points="-4231.89,18.58 -4231.89,40.12 -4209.9,40.12 	"/>
</g>
<g>
	
		<rect x="-3650.06" y="47" transform="matrix(-1.836970e-16 1 -1 -1.836970e-16 -3574.9609 3712.7749)" class="st1" width="12.39" height="43.82"/>
	<rect x="-3667" y="18.28" class="st1" width="12.39" height="88.26"/>
	<rect x="-3628.58" y="62.71" class="st1" width="12.39" height="43.82"/>
</g>
<g>
	<g>
		<polygon class="st1" points="-3801.59,105.85 -3866.65,105.85 -3866.65,17.5 -3823.64,17.5 -3812.61,28.53 -3801.59,39.55 		"/>
		<polyline class="st1" points="-3823.64,17.5 -3823.64,39.09 -3801.59,39.09 		"/>
	</g>
	<line class="st1" x1="-3850.95" y1="59.32" x2="-3818.94" y2="59.32"/>
	<line class="st1" x1="-3851.22" y1="72.56" x2="-3819.22" y2="72.56"/>
	<line class="st1" x1="-3851.22" y1="85.81" x2="-3819.22" y2="85.81"/>
</g>
<g>
	<g>
		<path class="st4" d="M-3423.98,68.8v0.37c0,4.38-3.02,7.11-7.37,7.77v3.94h-4.42v-3.9c-5.08-0.7-8.25-3.98-8.25-9.28v-0.81h4.86
			v0.59c0,2.39,1.07,4.13,3.39,4.79v-7c-4.68-1.14-7.29-3.13-7.29-7.37v-0.22c0-4.02,3.09-6.67,7.29-7.26v-3.87h4.42v4.01
			c4.16,0.81,7,3.65,7,7.92v1.11h-4.86v-0.74c0-1.84-0.77-2.95-2.14-3.54v6.15C-3426.6,62.61-3423.98,64.6-3423.98,68.8z
			 M-3435.77,60.48V55.1c-1.47,0.44-2.36,1.44-2.36,2.65C-3438.13,59.26-3437.21,59.96-3435.77,60.48z M-3428.92,69.17
			c0-1.47-0.85-2.28-2.43-2.84v5.93C-3429.73,71.71-3428.92,70.5-3428.92,69.17z"/>
	</g>
</g>
<g>
	<circle class="st5" cx="-592.82" cy="-198.22" r="35.69"/>
	<g>
		<circle class="st6" cx="-606.62" cy="-205.28" r="1.7"/>
		<circle class="st6" cx="-579.02" cy="-205.28" r="1.7"/>
	</g>
	<path class="st7" d="M-605.34-190.24c6.92,6.92,18.12,6.92,25.04,0"/>
</g>
<g>
	<circle class="st5" cx="-528.96" cy="-198.22" r="35.69"/>
	<g>
		<circle class="st6" cx="-542.76" cy="-205.28" r="1.7"/>
		<circle class="st6" cx="-515.16" cy="-205.28" r="1.7"/>
	</g>
	<path class="st7" d="M-541.48-190.24c6.92,6.92,18.12,6.92,25.04,0"/>
</g>
<g>
	<circle class="st5" cx="-465.1" cy="-198.22" r="35.69"/>
	<g>
		<circle class="st6" cx="-478.9" cy="-205.28" r="1.7"/>
		<circle class="st6" cx="-451.3" cy="-205.28" r="1.7"/>
	</g>
	<path class="st7" d="M-477.62-190.24c6.92,6.92,18.12,6.92,25.04,0"/>
</g>
<polygon class="st1" points="-3213.86,81.4 -3195.9,99.04 -3195.9,81.4 -3178.26,81.4 -3195.9,63.44 -3178.26,45.48 -3195.9,45.48 
	-3195.9,27.84 -3213.86,45.48 -3231.82,27.84 -3231.82,45.48 -3249.46,45.48 -3231.82,63.44 -3249.46,81.4 -3231.82,81.4 
	-3231.82,99.04 "/>
<path class="st0" d="M-173.86,39.17c-19.42-11.08-39.69,1.39-38.74,22.03c1.04,22.68,19.59,51.75,37.54,44.64
	c2.43-0.97,5.14-0.97,7.57,0c17.95,7.11,36.49-21.97,37.54-44.64c0.95-20.59-19.24-33.06-38.63-22.09L-173.86,39.17z"/>
<path class="st0" d="M-164.17,17.89c-8.08,8.08-9.27,20.42-3.57,29.75"/>
<path class="st0" d="M41.25,21.9c-15.65,1.49-19.56,16.36-22.4,32.85c-0.54,3.15-2.3,6.02-4.34,9.34
	c-3.7,6.02-8.29,13.51-5.89,25.26c1.08,5.52,4.51,10.3,9.39,13.1c6.38,3.78,15.19,4.62,22.99,2.21c1.59-0.51,3.3-0.44,4.84,0.2
	c3.02,1.27,6.28,1.91,9.56,1.88c3.96,0.01,7.88-0.85,11.47-2.52c6.07-2.82,10.57-8.21,12.26-14.69c3.27-11.72-1.68-19.37-5.65-25.52
	c-2.06-3.18-4-6.18-4.53-9.27c-2.83-16.42-6.72-31.25-22.22-32.84L41.25,21.9z"/>
<path class="st0" d="M50.01,5.02c-8.32,8.32-10.13,20.68-5.43,30.75"/>
<g>
	<rect x="-1434.31" y="26.81" class="st1" width="99.16" height="71.2"/>
	<rect x="-1434.31" y="62.41" class="st8" width="99.16" height="35.6"/>
	<rect x="-1434.31" y="26.81" class="st9" width="35.6" height="35.6"/>
</g>
<polygon class="st1" points="-344.73,99.51 -395.77,107.2 -395.77,18.32 -344.73,10.64 "/>
<rect x="-395.77" y="19.29" class="st1" width="63.23" height="88.87"/>
<g>
	<polygon class="st0" points="-996.86,113.06 -996.86,124.21 -1008.02,113.06 -1027.94,113.06 -1027.94,22.77 -931.87,22.77 
		-931.87,113.06 	"/>
</g>
<g>
	<g>
		<circle class="st0" cx="-1205.14" cy="50.17" r="20.4"/>
		<line class="st0" x1="-1190.09" y1="65.22" x2="-1182.36" y2="72.96"/>
	</g>
	
		<rect x="-1176.32" y="67.87" transform="matrix(0.7071 -0.7071 0.7071 0.7071 -402.8572 -802.9829)" class="st0" width="11.21" height="33.86"/>
</g>
<g>
	<path class="st0" d="M-1589.78,55.93c-0.63,4.55-2.69,8.93-6.18,12.43c-8.52,8.52-22.33,8.52-30.85,0
		c-8.52-8.52-8.52-22.33,0-30.85c8.52-8.52,22.33-8.52,30.85,0C-1590.94,42.53-1588.88,49.39-1589.78,55.93"/>
	<polyline class="st0" points="-1588.78,55.76 -1555.53,94 -1569,107.47 -1607.23,74.22 	"/>
	<line class="st0" x1="-1562.79" y1="101.26" x2="-1544.49" y2="119.56"/>
	<line class="st0" x1="-1626.82" y1="68.36" x2="-1596.75" y2="38.29"/>
</g>
<g>
	<rect x="-805.03" y="18.08" class="st0" width="65.29" height="88.66"/>
	<g>
		<polyline class="st0" points="-792.54,41.08 -786.66,45.37 -779.26,33.66 		"/>
		<polyline class="st0" points="-765.52,64.73 -759.64,69.03 -752.24,57.31 		"/>
		<g>
			<line class="st0" x1="-752.46" y1="34.84" x2="-765.29" y2="47.67"/>
			<line class="st0" x1="-765.29" y1="34.84" x2="-752.46" y2="47.67"/>
		</g>
		<g>
			<line class="st0" x1="-779.49" y1="78.33" x2="-792.32" y2="91.16"/>
			<line class="st0" x1="-792.32" y1="78.33" x2="-779.49" y2="91.16"/>
		</g>
		<line class="st0" x1="-791.75" y1="63.17" x2="-780.06" y2="63.17"/>
		<line class="st0" x1="-764.72" y1="84.75" x2="-753.03" y2="84.75"/>
	</g>
</g>
<polygon class="st0" points="-1792.96,29.66 -1781.4,53.1 -1755.53,56.85 -1774.25,75.1 -1769.83,100.85 -1792.96,88.69 
	-1816.1,100.85 -1811.68,75.1 -1830.39,56.85 -1804.53,53.1 "/>
<g>
	<rect x="-2055.14" y="37.65" class="st0" width="116.13" height="71.69"/>
	<polyline class="st0" points="-2055.04,37.65 -1996.27,73.49 -1939.12,37.65 	"/>
</g>
<g>
	<g>
		<polygon class="st0" points="-2211.74,109.19 -2277.15,109.19 -2277.15,20.37 -2233.91,20.37 -2222.83,31.45 -2211.74,42.54 		"/>
		<polyline class="st0" points="-2233.91,20.37 -2233.91,42.08 -2211.74,42.08 		"/>
	</g>
	<line class="st0" x1="-2261.37" y1="62.41" x2="-2229.19" y2="62.41"/>
	<line class="st10" x1="-2261.64" y1="75.72" x2="-2229.47" y2="75.72"/>
	<line class="st10" x1="-2261.64" y1="89.04" x2="-2229.47" y2="89.04"/>
</g>
<g>
	<g>
		<polygon class="st0" points="-2125.24,109.19 -2190.65,109.19 -2190.65,20.37 -2147.41,20.37 -2136.33,31.45 -2125.24,42.54 		"/>
		<polyline class="st0" points="-2147.41,20.37 -2147.41,42.08 -2125.24,42.08 		"/>
	</g>
	<line class="st0" x1="-2174.87" y1="62.41" x2="-2142.69" y2="62.41"/>
	<line class="st10" x1="-2175.14" y1="75.72" x2="-2142.97" y2="75.72"/>
	<line class="st10" x1="-2175.14" y1="89.04" x2="-2142.97" y2="89.04"/>
</g>
<polyline class="st0" points="-2173.05,40.14 -2167.16,44.45 -2159.74,32.71 "/>
<g>
	<line class="st0" x1="-2247.82" y1="32.15" x2="-2260.67" y2="45"/>
	<line class="st0" x1="-2260.67" y1="32.15" x2="-2247.82" y2="45"/>
</g>
<g>
	<g>
		<g>
			<polygon class="st0" points="-2443.2,99.36 -2378.79,99.36 -2378.79,10.57 -2421.37,10.57 -2432.28,21.65 -2443.2,32.73 			"/>
			<polyline class="st0" points="-2421.37,10.57 -2421.37,32.27 -2443.2,32.27 			"/>
		</g>
	</g>
</g>
<g>
	<g>
		<circle class="st1" cx="-2390.21" cy="47.59" r="20.88"/>
		<line class="st1" x1="-2374.81" y1="63" x2="-2366.89" y2="70.92"/>
	</g>
	
		<rect x="-2360.71" y="65.71" transform="matrix(0.7071 -0.7071 0.7071 0.7071 -748.4734 -1640.8914)" class="st1" width="11.48" height="34.67"/>
</g>
<g>
	<path class="st0" d="M-2551.03,65.55c0,0-17.48,41.31-58.39,41.31s-58.39-41.31-58.39-41.31v-0.77c0,0,12.46-21.34,25.4-27.36
		c12.94-6.02,32.99,4.23,32.99,4.23l0,0c0,0,19.92-10.25,32.87-4.23c12.94,6.02,25.4,27.36,25.4,27.36L-2551.03,65.55z"/>
	<path class="st0" d="M-2667.82,64.78c0,0,48.67,12.89,116.79,0.77"/>
</g>
<g>
	<path class="st0" d="M-2768.75,65.09c0,0-17.47,35.88-58.34,35.88c-40.87,0-58.34-35.88-58.34-35.88s17.47-35.88,58.34-35.88
		C-2786.22,29.21-2768.75,65.09-2768.75,65.09z"/>
	<circle class="st0" cx="-2827.09" cy="64.11" r="17.39"/>
</g>
<g>
	<circle class="st5" cx="248.19" cy="67.36" r="35.69"/>
	<g>
		<circle class="st6" cx="234.38" cy="60.3" r="1.7"/>
		<circle class="st6" cx="261.99" cy="60.3" r="1.7"/>
	</g>
	<path class="st7" d="M235.67,75.34c6.92,6.92,18.12,6.92,25.04,0"/>
</g>
<g>
	<circle class="st1" cx="459.71" cy="42.4" r="22.82"/>
	<line class="st1" x1="459.71" y1="65.22" x2="459.71" y2="108.56"/>
	<line class="st1" x1="441.61" y1="84.41" x2="477.81" y2="84.41"/>
</g>
<g>
	<circle class="st1" cx="637.56" cy="84.11" r="22.82"/>
	<line class="st1" x1="653.78" y1="67.42" x2="693.41" y2="27.79"/>
	<polyline class="st0" points="666.99,27.79 693.41,27.79 693.41,54.21 	"/>
</g>
</svg>
