<?xml version="1.0" encoding="utf-8"?>
<!-- Generator: Adobe Illustrator 24.2.0, SVG Export Plug-In . SVG Version: 6.00 Build 0)  -->
<svg version="1.1" id="Capa_1" xmlns="http://www.w3.org/2000/svg" xmlns:xlink="http://www.w3.org/1999/xlink" x="0px" y="0px"
	 viewBox="0 0 114.75 102.31" style="enable-background:new 0 0 114.75 102.31;" xml:space="preserve">
<style type="text/css">
	.st0{fill:none;stroke:#000000;stroke-width:6.5;stroke-miterlimit:10;}
	.st1{fill:#FFFFFF;stroke:#000000;stroke-width:6.5;stroke-miterlimit:10;}
	.st2{fill:#FFFFFF;}
	.st3{stroke:#000000;stroke-width:6.5;stroke-miterlimit:10;}
	.st4{fill:#1D1D1B;}
	.st5{fill:#FFFFFF;stroke:#1D1D1B;stroke-width:6.5;stroke-miterlimit:10;}
	.st6{fill:#1D1D1B;stroke:#1D1D1B;stroke-width:6.5;stroke-miterlimit:10;}
	.st7{fill:none;stroke:#1D1D1B;stroke-width:6.5;stroke-miterlimit:10;}
	.st8{fill:#FC5439;stroke:#000000;stroke-width:6.5;stroke-miterlimit:10;}
	.st9{fill:#3A90FD;stroke:#000000;stroke-width:6.5;stroke-miterlimit:10;}
	.st10{fill:#F1CD08;stroke:#000000;stroke-width:6.5;stroke-miterlimit:10;}
</style>
<g>
	<path class="st0" d="M-4681.8,99.52V25.18c0-4.23,3.43-7.65,7.65-7.65h54.6v77.9"/>
	<path class="st0" d="M-4658.23,106.26h38.68V92.77h-55.51c-3.72,0-6.74,3.02-6.74,6.74v0c0,3.72,3.02,6.74,6.74,6.74h1.52"/>
	<rect x="-4664.13" y="38.3" class="st0" width="26.92" height="15.7"/>
	<polygon class="st0" points="-4660.42,119.41 -4665.67,124.72 -4670.93,119.41 -4670.93,102.46 -4660.42,102.46 	"/>
</g>
<polygon class="st0" points="-5012.5,62.14 -5048.18,26.47 -5048.18,41.97 -5105.3,41.97 -5105.3,83.71 -5048.18,83.71 
	-5048.18,97.81 "/>
<g>
	<polyline class="st0" points="-4839.57,35.52 -4815.93,35.52 -4815.93,106.72 -4892.79,106.72 -4892.79,35.52 -4862.66,35.52 	"/>
	<polygon class="st0" points="-4857.3,47.34 -4865.89,38.75 -4844.69,17.56 -4833.15,29.11 -4851.38,47.34 	"/>
	<polyline class="st0" points="-4867.26,47.34 -4857.3,47.34 -4851.38,47.34 -4841.47,47.34 	"/>
</g>
<g>
	<polygon class="st0" points="-5227.73,7.84 -5303.74,59.4 -5311.47,78.81 -5290.58,78.81 -5214.56,27.25 	"/>
	<line class="st0" x1="-5303.74" y1="59.4" x2="-5290.58" y2="78.81"/>
</g>
<g>
	<g>
		<path class="st1" d="M-4441.91,95.1h24.01c19.62,0,35.53-15.91,35.53-35.53v0c0-19.62-15.91-35.53-35.53-35.53l-3.72,0h-78.89
			c-4.9,0-8.88,3.98-8.88,8.88v0c0,4.91,3.98,8.88,8.88,8.88h68.05v0"/>
		<path class="st1" d="M-4432.47,41.81h-21.1c-4.91,0-8.88,3.98-8.88,8.88v0c0,4.91,3.98,8.88,8.88,8.88h19.4h1.7
			c4.91,0,8.88-3.98,8.88-8.88v0C-4423.58,45.79-4427.56,41.81-4432.47,41.81z"/>
		<path class="st1" d="M-4431.83,59.57h-21.1c-4.9,0-8.88,3.98-8.88,8.88v0c0,4.91,3.98,8.88,8.88,8.88h19.4h1.7
			c4.91,0,8.88-3.98,8.88-8.88v0C-4422.95,63.55-4426.92,59.57-4431.83,59.57z"/>
		<path class="st1" d="M-4431.83,77.34h-21.1c-4.9,0-8.88,3.98-8.88,8.88v0c0,4.91,3.98,8.88,8.88,8.88h19.4h1.7
			c4.91,0,8.88-3.98,8.88-8.88v0C-4422.95,81.31-4426.92,77.34-4431.83,77.34z"/>
	</g>
	<path class="st1" d="M-4418.38,25.92l-11.69,23.48c-2.15,4.41-0.32,9.73,4.09,11.88v0c4.41,2.15,9.73,0.32,11.88-4.09l8.54-17.14"
		/>
</g>
<g>
	<ellipse class="st2" cx="-4236.65" cy="65.16" rx="28.07" ry="18.08"/>
	<g>
		<path class="st1" d="M-4217.28,60.42V45.79c0-3.72,3.01-6.73,6.73-6.73l0,0c3.72,0,6.73,3.01,6.73,6.73v22.75
			c0,18.59-15.07,33.66-33.66,33.66l0,0c-18.59,0-33.66-15.07-33.66-33.66V45.43l0,0c7.43,0,13.45,6.02,13.45,13.45v8.75l0,0
			c7.42,0,13.44,6.02,13.44,13.44v0.83"/>
		<path class="st1" d="M-4217.35,60.42V27.65c0-3.72-3.01-6.73-6.73-6.73h0c-3.71,0-6.73,3.01-6.73,6.73v25.15"/>
		<path class="st1" d="M-4230.81,56.59V20.82c0-3.72-3.01-6.73-6.73-6.73l0,0c-3.71,0-6.73,3.01-6.73,6.73v25.15"/>
		<path class="st1" d="M-4244.26,55.81V26.04c0-3.72-3.01-6.73-6.73-6.73l0,0c-3.72,0-6.73,3.01-6.73,6.73v37.79"/>
	</g>
</g>
<g>
	<line class="st0" x1="-4051.37" y1="-154.2" x2="-3974.81" y2="-173.18"/>
	<circle class="st1" cx="-4051.37" cy="-154.2" r="25.98"/>
	<line class="st0" x1="-3898.01" y1="-154.19" x2="-3974.57" y2="-173.16"/>
	<circle class="st1" cx="-3898.01" cy="-154.2" r="25.98"/>
	<circle class="st1" cx="-3974.81" cy="-173.18" r="25.98"/>
</g>
<g>
	<circle class="st0" cx="-3828.84" cy="56.59" r="35.6"/>
	<g>
		<circle class="st3" cx="-3842.61" cy="49.55" r="1.69"/>
		<circle class="st3" cx="-3815.07" cy="49.55" r="1.69"/>
	</g>
	<path class="st0" d="M-3841.33,64.55c6.9,6.9,18.07,6.9,24.98,0"/>
</g>
<g>
	<line class="st0" x1="-3596.03" y1="23.95" x2="-3596.03" y2="95.8"/>
	<line class="st0" x1="-3666.35" y1="59.88" x2="-3717.27" y2="59.88"/>
	<line class="st0" x1="-3556.43" y1="59.88" x2="-3607.35" y2="59.88"/>
	<rect x="-3685.74" y="40.62" class="st1" width="89.71" height="38.51"/>
	<line class="st0" x1="-3558.04" y1="44.11" x2="-3558.04" y2="75.64"/>
	<line class="st0" x1="-3644.52" y1="41.36" x2="-3644.52" y2="56.32"/>
	<line class="st0" x1="-3630.89" y1="42.58" x2="-3630.89" y2="63.99"/>
</g>
<circle class="st1" cx="-984.72" cy="61.79" r="35.26"/>
<g>
	<rect x="-3459.85" y="13.74" class="st1" width="70.6" height="50.69"/>
	<line class="st1" x1="-3459.85" y1="6.02" x2="-3459.85" y2="95.41"/>
	<rect x="-3459.85" y="39.09" class="st1" width="70.6" height="25.35"/>
	<rect x="-3459.85" y="13.74" class="st1" width="25.35" height="25.35"/>
</g>
<g transform="translate(0,-952.36218)">
	<path class="st1" d="M-3250.91,1034.95c0,18.4,13.01,33.32,29.05,33.32c16.03,0,29.05-14.92,29.05-33.32s-13.96-38.93-29.05-56.24
		C-3221.87,978.7-3250.91,1011.72-3250.91,1034.95z"/>
</g>
<g>
	<polyline class="st1" points="-3073.93,57.01 -3029.2,12.28 -2984.46,57.01 	"/>
	<path class="st1" d="M-3029.2,49.26"/>
	<polygon class="st1" points="-2998.91,100.91 -3059.49,100.91 -3059.49,42.6 -3029.2,12.28 -2998.91,42.6 	"/>
	<polyline class="st0" points="-3042.31,100.91 -3042.31,65.56 -3016.08,65.56 -3016.08,100.91 	"/>
</g>
<g>
	<circle class="st1" cx="-1588.95" cy="62.14" r="35.29"/>
	<polyline class="st1" points="-1602.5,61.76 -1594.32,71.56 -1575.39,52.72 	"/>
</g>
<g>
	<g>
		<g>
			<rect x="-2848.41" y="31.34" class="st0" width="69.54" height="69.54"/>
			<g>
				<line class="st1" x1="-2833.49" y1="20.55" x2="-2833.49" y2="42.13"/>
				<line class="st1" x1="-2793.78" y1="20.55" x2="-2793.78" y2="42.13"/>
			</g>
		</g>
		<line class="st1" x1="-2848.41" y1="54.04" x2="-2778.87" y2="54.04"/>
	</g>
	<g>
		<path class="st4" d="M-2813.03,66.29v4.07l-6.81,5.54v0.42h0.91c3.4,0,6.46,2.35,6.46,6.81c0,4.98-3.79,8.21-9.26,8.21
			c-5.86,0-9.4-3.47-9.4-8.35v-0.98h4.63v0.84c0,2.39,1.65,4.35,4.77,4.35c2.91,0,4.63-1.72,4.63-4.07c0-2.35-1.65-3.51-4-3.51
			h-4.28v-4.14l6.07-4.98h-11.12v-4.21H-2813.03z"/>
		<path class="st4" d="M-2797.66,66.29v24.56h-4.63V71.2h-0.42l-3.44,6.18h-4.84l6.32-11.09H-2797.66z"/>
	</g>
</g>
<g>
	<g>
		<circle class="st1" cx="-2611.3" cy="66.06" r="34.11"/>
		<g>
			<path class="st1" d="M-2616.78,32.71c-15.63,19.6-15.53,47.58,0.29,67.07"/>
			<path class="st1" d="M-2604.89,32.71c15.48,19.42,15.53,47.05,0.16,66.52"/>
		</g>
		<line class="st1" x1="-2645.41" y1="66.06" x2="-2577.2" y2="66.06"/>
		<line class="st1" x1="-2610.83" y1="32.15" x2="-2610.83" y2="99.97"/>
	</g>
</g>
<g>
	<circle class="st1" cx="-2418.83" cy="42.42" r="22.82"/>
	<line class="st1" x1="-2418.83" y1="65.24" x2="-2418.83" y2="108.57"/>
	<line class="st1" x1="-2436.93" y1="84.42" x2="-2400.73" y2="84.42"/>
</g>
<g>
	<circle class="st1" cx="-2206.36" cy="52.97" r="22.82"/>
	<line class="st1" x1="-2190.15" y1="36.28" x2="-2150.51" y2="-3.36"/>
	<polyline class="st0" points="-2176.94,-3.36 -2150.51,-3.36 -2150.51,23.07 	"/>
</g>
<path class="st1" d="M-1952.58,69.48V57.44l-36.59-13.14l0.48-18.57c0.09-2.9-1.09-5.69-3.23-7.65v0
	c-3.79-3.47-9.61-3.48-13.41-0.01l-0.01,0.01c-2.15,1.96-3.34,4.76-3.24,7.66l0.48,18.55l-33.67,12.17v12.04l34.33-6.35l1.48,23.62
	l-12.3,10.06v8.46l20.03-9.74l20.03,9.74v-8.46l-13.09-10.58l1.44-22.86L-1952.58,69.48z"/>
<g>
	<g>
		<g>
			<g>
				<g>
					<g>
						<rect x="-608.35" y="42.64" class="st2" width="79.95" height="61.47"/>
						<rect x="-608.35" y="42.64" class="st0" width="79.95" height="61.47"/>
					</g>
				</g>
			</g>
		</g>
		<path class="st1" d="M-549.25,91.92h-38.24c-4.08,0-7.39-3.31-7.39-7.39V62.23c0-4.08,3.31-7.39,7.39-7.39h38.24
			c4.08,0,7.39,3.31,7.39,7.39v22.31C-541.86,88.61-545.17,91.92-549.25,91.92z"/>
		<g>
			<line class="st1" x1="-593.96" y1="16.2" x2="-567.79" y2="42.37"/>
			<line class="st1" x1="-542.78" y1="16.2" x2="-568.95" y2="42.37"/>
		</g>
	</g>
</g>
<g>
	<polygon class="st1" points="-1760.61,104.77 -1825.51,104.77 -1825.51,16.65 -1782.61,16.65 -1771.61,27.65 -1760.61,38.65 	"/>
	<polyline class="st1" points="-1782.61,16.65 -1782.61,38.19 -1760.61,38.19 	"/>
</g>
<g>
	
		<rect x="-1200.78" y="45.07" transform="matrix(-1.836970e-16 1 -1 -1.836970e-16 -1127.6038 1261.5605)" class="st1" width="12.39" height="43.82"/>
	<rect x="-1217.71" y="16.35" class="st1" width="12.39" height="88.26"/>
	<rect x="-1179.3" y="60.78" class="st1" width="12.39" height="43.82"/>
</g>
<g>
	<g>
		<polygon class="st1" points="-1352.3,103.92 -1417.36,103.92 -1417.36,15.57 -1374.35,15.57 -1363.33,26.6 -1352.3,37.62 		"/>
		<polyline class="st1" points="-1374.35,15.57 -1374.35,37.16 -1352.3,37.16 		"/>
	</g>
	<line class="st1" x1="-1401.66" y1="57.39" x2="-1369.65" y2="57.39"/>
	<line class="st1" x1="-1401.94" y1="70.63" x2="-1369.93" y2="70.63"/>
	<line class="st1" x1="-1401.94" y1="83.88" x2="-1369.93" y2="83.88"/>
</g>
<g>
	<g>
		<path class="st4" d="M-974.7,66.87v0.37c0,4.38-3.02,7.11-7.37,7.77v3.94h-4.42v-3.9c-5.08-0.7-8.25-3.98-8.25-9.28v-0.81h4.86
			v0.59c0,2.39,1.07,4.13,3.39,4.79v-7c-4.68-1.14-7.29-3.13-7.29-7.37v-0.22c0-4.02,3.09-6.67,7.29-7.26v-3.87h4.42v4.01
			c4.16,0.81,7,3.65,7,7.92v1.11h-4.86v-0.74c0-1.84-0.77-2.95-2.14-3.54v6.15C-977.31,60.69-974.7,62.67-974.7,66.87z
			 M-986.49,58.55v-5.38c-1.47,0.44-2.36,1.44-2.36,2.65C-988.84,57.33-987.92,58.03-986.49,58.55z M-979.63,67.24
			c0-1.47-0.85-2.28-2.43-2.84v5.93C-980.44,69.78-979.63,68.57-979.63,67.24z"/>
	</g>
</g>
<g>
	<circle class="st5" cx="1856.47" cy="-200.15" r="35.69"/>
	<g>
		<circle class="st6" cx="1842.66" cy="-207.2" r="1.7"/>
		<circle class="st6" cx="1870.27" cy="-207.2" r="1.7"/>
	</g>
	<path class="st7" d="M1843.95-192.17c6.92,6.92,18.12,6.92,25.04,0"/>
</g>
<g>
	<circle class="st5" cx="1920.33" cy="-200.15" r="35.69"/>
	<g>
		<circle class="st6" cx="1906.52" cy="-207.2" r="1.7"/>
		<circle class="st6" cx="1934.13" cy="-207.2" r="1.7"/>
	</g>
	<path class="st7" d="M1907.81-192.17c6.92,6.92,18.12,6.92,25.04,0"/>
</g>
<g>
	<circle class="st5" cx="1984.19" cy="-200.15" r="35.69"/>
	<g>
		<circle class="st6" cx="1970.38" cy="-207.2" r="1.7"/>
		<circle class="st6" cx="1997.99" cy="-207.2" r="1.7"/>
	</g>
	<path class="st7" d="M1971.67-192.17c6.92,6.92,18.12,6.92,25.04,0"/>
</g>
<polygon class="st1" points="-764.58,79.47 -746.61,97.11 -746.61,79.47 -728.98,79.47 -746.61,61.51 -728.98,43.55 -746.61,43.55 
	-746.61,25.91 -764.58,43.55 -782.54,25.91 -782.54,43.55 -800.18,43.55 -782.54,61.51 -800.18,79.47 -782.54,79.47 -782.54,97.11 
	"/>
<path class="st0" d="M2275.43,37.24c-19.42-11.08-39.69,1.39-38.74,22.03c1.04,22.68,19.59,51.75,37.54,44.64
	c2.43-0.97,5.14-0.97,7.57,0c17.95,7.11,36.49-21.97,37.54-44.64c0.95-20.59-19.24-33.06-38.63-22.09L2275.43,37.24z"/>
<path class="st0" d="M2285.12,15.96c-8.08,8.08-9.27,20.42-3.57,29.75"/>
<path class="st0" d="M2490.53,19.97c-15.65,1.49-19.56,16.36-22.4,32.85c-0.54,3.15-2.3,6.02-4.34,9.34
	c-3.7,6.02-8.29,13.51-5.89,25.26c1.08,5.52,4.51,10.3,9.39,13.1c6.38,3.78,15.19,4.62,22.99,2.21c1.59-0.51,3.3-0.44,4.84,0.2
	c3.02,1.27,6.28,1.91,9.56,1.88c3.96,0.01,7.88-0.85,11.47-2.52c6.07-2.82,10.57-8.21,12.26-14.69c3.27-11.72-1.68-19.37-5.65-25.52
	c-2.06-3.18-4-6.18-4.53-9.27c-2.83-16.42-6.72-31.25-22.22-32.84L2490.53,19.97z"/>
<path class="st0" d="M2499.29,3.09c-8.32,8.32-10.13,20.68-5.43,30.75"/>
<g>
	<rect x="1014.97" y="24.88" class="st1" width="99.16" height="71.2"/>
	<rect x="1014.97" y="60.48" class="st8" width="99.16" height="35.6"/>
	<rect x="1014.97" y="24.88" class="st9" width="35.6" height="35.6"/>
</g>
<polygon class="st1" points="2104.56,97.58 2053.51,105.27 2053.51,16.4 2104.56,8.71 "/>
<rect x="2053.51" y="17.36" class="st1" width="63.23" height="88.87"/>
<g>
	<polygon class="st0" points="1452.43,111.13 1452.43,122.28 1441.27,111.13 1421.35,111.13 1421.35,20.84 1517.42,20.84 
		1517.42,111.13 	"/>
</g>
<g>
	<g>
		<circle class="st0" cx="1244.14" cy="48.25" r="20.4"/>
		<line class="st0" x1="1259.19" y1="63.29" x2="1266.93" y2="71.03"/>
	</g>
	
		<rect x="1272.96" y="65.94" transform="matrix(0.7071 -0.7071 0.7071 0.7071 315.8856 928.3588)" class="st0" width="11.21" height="33.86"/>
</g>
<g>
	<path class="st0" d="M859.51,54c-0.63,4.55-2.69,8.93-6.18,12.43c-8.52,8.52-22.33,8.52-30.85,0c-8.52-8.52-8.52-22.33,0-30.85
		c8.52-8.52,22.33-8.52,30.85,0C858.35,40.6,860.41,47.46,859.51,54"/>
	<polyline class="st0" points="860.51,53.84 893.75,92.07 880.28,105.54 842.05,72.29 	"/>
	<line class="st0" x1="886.49" y1="99.33" x2="904.79" y2="117.63"/>
	<line class="st0" x1="822.47" y1="66.43" x2="852.53" y2="36.37"/>
</g>
<g>
	<rect x="1644.25" y="16.15" class="st0" width="65.29" height="88.66"/>
	<g>
		<polyline class="st0" points="1656.74,39.15 1662.62,43.44 1670.02,31.73 		"/>
		<polyline class="st0" points="1683.77,62.8 1689.65,67.1 1697.05,55.38 		"/>
		<g>
			<line class="st0" x1="1696.82" y1="32.91" x2="1684" y2="45.74"/>
			<line class="st0" x1="1684" y1="32.91" x2="1696.82" y2="45.74"/>
		</g>
		<g>
			<line class="st0" x1="1669.8" y1="76.4" x2="1656.97" y2="89.23"/>
			<line class="st0" x1="1656.97" y1="76.4" x2="1669.8" y2="89.23"/>
		</g>
		<line class="st0" x1="1657.54" y1="61.24" x2="1669.23" y2="61.24"/>
		<line class="st0" x1="1684.56" y1="82.82" x2="1696.26" y2="82.82"/>
	</g>
</g>
<polygon class="st0" points="656.32,27.73 667.89,51.17 693.75,54.92 675.04,73.17 679.45,98.93 656.32,86.76 633.19,98.93 
	637.61,73.17 618.89,54.92 644.75,51.17 "/>
<g>
	<rect x="394.14" y="35.72" class="st0" width="116.13" height="71.69"/>
	<polyline class="st0" points="394.25,35.72 453.01,71.56 510.17,35.72 	"/>
</g>
<g>
	<g>
		<polygon class="st0" points="237.54,107.26 172.14,107.26 172.14,18.44 215.38,18.44 226.46,29.53 237.54,40.61 		"/>
		<polyline class="st0" points="215.38,18.44 215.38,40.15 237.54,40.15 		"/>
	</g>
	<line class="st0" x1="187.92" y1="60.48" x2="220.1" y2="60.48"/>
	<line class="st10" x1="187.64" y1="73.8" x2="219.82" y2="73.8"/>
	<line class="st10" x1="187.64" y1="87.11" x2="219.82" y2="87.11"/>
</g>
<g>
	<g>
		<polygon class="st0" points="324.04,107.26 258.64,107.26 258.64,18.44 301.88,18.44 312.96,29.53 324.04,40.61 		"/>
		<polyline class="st0" points="301.88,18.44 301.88,40.15 324.04,40.15 		"/>
	</g>
	<line class="st0" x1="274.42" y1="60.48" x2="306.6" y2="60.48"/>
	<line class="st10" x1="274.14" y1="73.8" x2="306.32" y2="73.8"/>
	<line class="st10" x1="274.14" y1="87.11" x2="306.32" y2="87.11"/>
</g>
<polyline class="st0" points="276.24,38.21 282.13,42.52 289.54,30.78 "/>
<g>
	<line class="st0" x1="201.46" y1="30.22" x2="188.61" y2="43.08"/>
	<line class="st0" x1="188.61" y1="30.22" x2="201.46" y2="43.08"/>
</g>
<g>
	<g>
		<g>
			<polygon class="st0" points="6.09,97.43 70.5,97.43 70.5,8.64 27.92,8.64 17,19.72 6.09,30.8 			"/>
			<polyline class="st0" points="27.92,8.64 27.92,30.34 6.09,30.34 			"/>
		</g>
	</g>
</g>
<g>
	<g>
		<circle class="st1" cx="59.07" cy="45.66" r="20.88"/>
		<line class="st1" x1="74.48" y1="61.07" x2="82.4" y2="68.99"/>
	</g>
	
		<rect x="88.58" y="63.78" transform="matrix(0.7071 -0.7071 0.7071 0.7071 -29.7305 90.4503)" class="st1" width="11.48" height="34.67"/>
</g>
<g>
	<path class="st0" d="M-101.75,63.62c0,0-17.48,41.31-58.39,41.31s-58.39-41.31-58.39-41.31v-0.77c0,0,12.46-21.34,25.4-27.36
		s32.99,4.23,32.99,4.23l0,0c0,0,19.92-10.25,32.87-4.23s25.4,27.36,25.4,27.36L-101.75,63.62z"/>
	<path class="st0" d="M-218.53,62.85c0,0,48.67,12.89,116.79,0.77"/>
</g>
<g>
	<path class="st0" d="M-319.47,63.16c0,0-17.47,35.88-58.34,35.88s-58.34-35.88-58.34-35.88s17.47-35.88,58.34-35.88
		S-319.47,63.16-319.47,63.16z"/>
	<circle class="st0" cx="-377.8" cy="62.18" r="17.39"/>
</g>
<g>
	<circle class="st5" cx="2697.47" cy="65.43" r="35.69"/>
	<g>
		<circle class="st6" cx="2683.67" cy="58.37" r="1.7"/>
		<circle class="st6" cx="2711.27" cy="58.37" r="1.7"/>
	</g>
	<path class="st7" d="M2684.95,73.41c6.92,6.92,18.12,6.92,25.04,0"/>
</g>
<g>
	<circle class="st1" cx="2908.99" cy="40.47" r="22.82"/>
	<line class="st1" x1="2908.99" y1="63.29" x2="2908.99" y2="106.63"/>
	<line class="st1" x1="2890.89" y1="82.48" x2="2927.09" y2="82.48"/>
</g>
<g>
	<circle class="st1" cx="3086.85" cy="82.18" r="22.82"/>
	<line class="st1" x1="3103.06" y1="65.49" x2="3142.7" y2="25.86"/>
	<polyline class="st0" points="3116.28,25.86 3142.7,25.86 3142.7,52.28 	"/>
</g>
</svg>
