<?xml version="1.0" encoding="utf-8"?>
<!-- Generator: Adobe Illustrator 24.2.0, SVG Export Plug-In . SVG Version: 6.00 Build 0)  -->
<svg version="1.1" id="Capa_1" xmlns="http://www.w3.org/2000/svg" xmlns:xlink="http://www.w3.org/1999/xlink" x="0px" y="0px"
	 viewBox="0 0 68.46 100.4" style="enable-background:new 0 0 68.46 100.4;" xml:space="preserve">
<style type="text/css">
	.st0{fill:none;stroke:#000000;stroke-width:6.5;stroke-miterlimit:10;}
	.st1{fill:#FFFFFF;stroke:#000000;stroke-width:6.5;stroke-miterlimit:10;}
	.st2{fill:#FFFFFF;}
	.st3{stroke:#000000;stroke-width:6.5;stroke-miterlimit:10;}
	.st4{fill:#1D1D1B;}
	.st5{fill:#FFFFFF;stroke:#1D1D1B;stroke-width:6.5;stroke-miterlimit:10;}
	.st6{fill:#1D1D1B;stroke:#1D1D1B;stroke-width:6.5;stroke-miterlimit:10;}
	.st7{fill:none;stroke:#1D1D1B;stroke-width:6.5;stroke-miterlimit:10;}
	.st8{fill:#FC5439;stroke:#000000;stroke-width:6.5;stroke-miterlimit:10;}
	.st9{fill:#3A90FD;stroke:#000000;stroke-width:6.5;stroke-miterlimit:10;}
	.st10{fill:#F1CD08;stroke:#000000;stroke-width:6.5;stroke-miterlimit:10;}
</style>
<g>
	<path class="st0" d="M-3454.26,90.27V15.93c0-4.23,3.43-7.65,7.65-7.65h54.6v77.9"/>
	<path class="st0" d="M-3430.69,97.01h38.68V83.52h-55.51c-3.72,0-6.74,3.02-6.74,6.74v0c0,3.72,3.02,6.74,6.74,6.74h1.52"/>
	<rect x="-3436.6" y="29.05" class="st0" width="26.92" height="15.7"/>
	<polygon class="st0" points="-3432.88,110.16 -3438.14,115.47 -3443.4,110.16 -3443.4,93.21 -3432.88,93.21 	"/>
</g>
<polygon class="st0" points="-3784.97,52.89 -3820.64,17.22 -3820.64,32.72 -3877.76,32.72 -3877.76,74.46 -3820.64,74.46 
	-3820.64,88.56 "/>
<g>
	<polyline class="st0" points="-3612.03,26.27 -3588.39,26.27 -3588.39,97.47 -3665.26,97.47 -3665.26,26.27 -3635.12,26.27 	"/>
	<polygon class="st0" points="-3629.77,38.08 -3638.35,29.5 -3617.16,8.31 -3605.61,19.86 -3623.84,38.08 	"/>
	<polyline class="st0" points="-3639.72,38.08 -3629.77,38.08 -3623.84,38.08 -3613.93,38.08 	"/>
</g>
<g>
	<polygon class="st0" points="-4000.19,-1.41 -4076.21,50.15 -4083.94,69.56 -4063.05,69.56 -3987.03,18 	"/>
	<line class="st0" x1="-4076.21" y1="50.15" x2="-4063.05" y2="69.56"/>
</g>
<g>
	<g>
		<path class="st1" d="M-3214.37,85.85h24.01c19.62,0,35.53-15.91,35.53-35.53v0c0-19.62-15.91-35.53-35.53-35.53l-3.72,0h-78.89
			c-4.91,0-8.88,3.98-8.88,8.88v0c0,4.91,3.98,8.88,8.88,8.88h68.05v0"/>
		<path class="st1" d="M-3204.93,32.56h-21.09c-4.91,0-8.88,3.98-8.88,8.88v0c0,4.91,3.98,8.88,8.88,8.88h19.4h1.7
			c4.91,0,8.88-3.98,8.88-8.88v0C-3196.05,36.54-3200.02,32.56-3204.93,32.56z"/>
		<path class="st1" d="M-3204.29,50.32h-21.1c-4.91,0-8.88,3.98-8.88,8.88v0c0,4.91,3.98,8.88,8.88,8.88h19.4h1.7
			c4.91,0,8.88-3.98,8.88-8.88v0C-3195.41,54.3-3199.39,50.32-3204.29,50.32z"/>
		<path class="st1" d="M-3204.29,68.09h-21.1c-4.91,0-8.88,3.98-8.88,8.88v0c0,4.91,3.98,8.88,8.88,8.88h19.4h1.7
			c4.91,0,8.88-3.98,8.88-8.88v0C-3195.41,72.06-3199.39,68.09-3204.29,68.09z"/>
	</g>
	<path class="st1" d="M-3190.84,16.67l-11.69,23.48c-2.15,4.41-0.32,9.73,4.09,11.88v0c4.41,2.15,9.73,0.32,11.88-4.09l8.54-17.14"
		/>
</g>
<g>
	<ellipse class="st2" cx="-3009.11" cy="55.9" rx="28.07" ry="18.08"/>
	<g>
		<path class="st1" d="M-2989.75,51.17V36.54c0-3.72,3.01-6.73,6.73-6.73l0,0c3.72,0,6.73,3.01,6.73,6.73v22.75
			c0,18.59-15.07,33.66-33.66,33.66l0,0c-18.59,0-33.66-15.07-33.66-33.66V36.18l0,0c7.43,0,13.45,6.02,13.45,13.45v8.75l0,0
			c7.42,0,13.44,6.02,13.44,13.44v0.83"/>
		<path class="st1" d="M-2989.82,51.17V18.4c0-3.72-3.01-6.73-6.73-6.73l0,0c-3.72,0-6.73,3.01-6.73,6.73v25.15"/>
		<path class="st1" d="M-3003.27,47.34V11.57c0-3.72-3.01-6.73-6.73-6.73l0,0c-3.72,0-6.73,3.01-6.73,6.73v25.15"/>
		<path class="st1" d="M-3016.72,46.56V16.79c0-3.72-3.01-6.73-6.73-6.73l0,0c-3.72,0-6.73,3.01-6.73,6.73v37.79"/>
	</g>
</g>
<g>
	<line class="st0" x1="-2823.83" y1="-163.45" x2="-2747.28" y2="-182.43"/>
	<circle class="st1" cx="-2823.83" cy="-163.45" r="25.98"/>
	<line class="st0" x1="-2670.47" y1="-163.44" x2="-2747.03" y2="-182.42"/>
	<circle class="st1" cx="-2670.47" cy="-163.45" r="25.98"/>
	<circle class="st1" cx="-2747.28" cy="-182.43" r="25.98"/>
</g>
<g>
	<circle class="st0" cx="-2601.3" cy="47.34" r="35.6"/>
	<g>
		<circle class="st3" cx="-2615.07" cy="40.3" r="1.69"/>
		<circle class="st3" cx="-2587.54" cy="40.3" r="1.69"/>
	</g>
	<path class="st0" d="M-2613.79,55.3c6.9,6.9,18.07,6.9,24.98,0"/>
</g>
<g>
	<line class="st0" x1="-2368.5" y1="14.7" x2="-2368.5" y2="86.55"/>
	<line class="st0" x1="-2438.81" y1="50.62" x2="-2489.73" y2="50.62"/>
	<line class="st0" x1="-2328.89" y1="50.62" x2="-2379.81" y2="50.62"/>
	<rect x="-2458.21" y="31.37" class="st1" width="89.71" height="38.51"/>
	<line class="st0" x1="-2330.51" y1="34.86" x2="-2330.51" y2="66.38"/>
	<line class="st0" x1="-2416.99" y1="32.11" x2="-2416.99" y2="47.06"/>
	<line class="st0" x1="-2403.36" y1="33.32" x2="-2403.36" y2="54.74"/>
</g>
<circle class="st1" cx="242.82" cy="50.66" r="35.26"/>
<g>
	<rect x="-2232.32" y="4.49" class="st1" width="70.6" height="50.69"/>
	<line class="st1" x1="-2232.32" y1="-3.23" x2="-2232.32" y2="86.16"/>
	<rect x="-2232.32" y="29.84" class="st1" width="70.6" height="25.35"/>
	<rect x="-2232.32" y="4.49" class="st1" width="25.35" height="25.35"/>
</g>
<g transform="translate(0,-952.36218)">
	<path class="st1" d="M-2023.38,1025.69c0,18.4,13.01,33.32,29.05,33.32s29.05-14.92,29.05-33.32c0-18.4-13.96-38.93-29.05-56.24
		C-1994.33,969.45-2023.38,1002.47-2023.38,1025.69z"/>
</g>
<g>
	<polyline class="st1" points="-1846.39,47.76 -1801.66,3.03 -1756.93,47.76 	"/>
	<path class="st1" d="M-1801.66,40.01"/>
	<polygon class="st1" points="-1771.37,91.66 -1831.95,91.66 -1831.95,33.35 -1801.66,3.03 -1771.37,33.35 	"/>
	<polyline class="st0" points="-1814.78,91.66 -1814.78,56.31 -1788.54,56.31 -1788.54,91.66 	"/>
</g>
<g>
	<circle class="st1" cx="-361.41" cy="52.89" r="35.29"/>
	<polyline class="st1" points="-374.97,52.51 -366.79,62.31 -347.85,43.47 	"/>
</g>
<g>
	<g>
		<g>
			<rect x="-1620.87" y="22.09" class="st0" width="69.54" height="69.54"/>
			<g>
				<line class="st1" x1="-1605.95" y1="11.29" x2="-1605.95" y2="32.88"/>
				<line class="st1" x1="-1566.25" y1="11.29" x2="-1566.25" y2="32.88"/>
			</g>
		</g>
		<line class="st1" x1="-1620.87" y1="44.79" x2="-1551.33" y2="44.79"/>
	</g>
	<g>
		<path class="st4" d="M-1585.5,57.04v4.07l-6.81,5.54v0.42h0.91c3.4,0,6.46,2.35,6.46,6.81c0,4.98-3.79,8.21-9.26,8.21
			c-5.86,0-9.4-3.47-9.4-8.35v-0.98h4.63v0.84c0,2.39,1.65,4.35,4.77,4.35c2.91,0,4.63-1.72,4.63-4.07s-1.65-3.51-4-3.51h-4.28
			v-4.14l6.07-4.98h-11.12v-4.21H-1585.5z"/>
		<path class="st4" d="M-1570.13,57.04V81.6h-4.63V61.95h-0.42l-3.44,6.18h-4.84l6.32-11.09H-1570.13z"/>
	</g>
</g>
<g>
	<g>
		<circle class="st1" cx="-1383.77" cy="56.81" r="34.11"/>
		<g>
			<path class="st1" d="M-1389.24,23.45c-15.63,19.6-15.53,47.58,0.29,67.07"/>
			<path class="st1" d="M-1377.35,23.45c15.48,19.42,15.53,47.05,0.16,66.52"/>
		</g>
		<line class="st1" x1="-1417.87" y1="56.81" x2="-1349.66" y2="56.81"/>
		<line class="st1" x1="-1383.3" y1="22.9" x2="-1383.3" y2="90.72"/>
	</g>
</g>
<g>
	<circle class="st1" cx="-1191.3" cy="33.16" r="22.82"/>
	<line class="st1" x1="-1191.3" y1="55.98" x2="-1191.3" y2="99.32"/>
	<line class="st1" x1="-1209.4" y1="75.17" x2="-1173.2" y2="75.17"/>
</g>
<g>
	<circle class="st1" cx="-978.83" cy="43.72" r="22.82"/>
	<line class="st1" x1="-962.61" y1="27.03" x2="-922.98" y2="-12.61"/>
	<polyline class="st0" points="-949.4,-12.61 -922.98,-12.61 -922.98,13.82 	"/>
</g>
<path class="st1" d="M-725.05,60.23V48.19l-36.59-13.14l0.48-18.57c0.09-2.9-1.09-5.69-3.23-7.65v0c-3.79-3.47-9.61-3.48-13.41-0.01
	l-0.01,0.01c-2.15,1.96-3.34,4.76-3.24,7.66l0.48,18.55l-33.67,12.17v12.04l34.33-6.35l1.48,23.62l-12.3,10.06v8.46l20.03-9.74
	l20.03,9.74v-8.46l-13.09-10.58l1.45-22.86L-725.05,60.23z"/>
<g>
	<g>
		<g>
			<g>
				<g>
					<g>
						<rect x="619.19" y="31.6" class="st2" width="79.95" height="61.47"/>
						<rect x="619.19" y="31.6" class="st0" width="79.95" height="61.47"/>
					</g>
				</g>
			</g>
		</g>
		<path class="st1" d="M678.29,80.87h-38.24c-4.08,0-7.39-3.31-7.39-7.39V51.18c0-4.08,3.31-7.39,7.39-7.39h38.24
			c4.08,0,7.39,3.31,7.39,7.39v22.31C685.68,77.56,682.37,80.87,678.29,80.87z"/>
		<g>
			<line class="st1" x1="633.58" y1="5.15" x2="659.75" y2="31.32"/>
			<line class="st1" x1="684.75" y1="5.15" x2="658.58" y2="31.32"/>
		</g>
	</g>
</g>
<g>
	<polygon class="st1" points="-533.08,95.52 -597.97,95.52 -597.97,7.4 -555.07,7.4 -544.07,18.4 -533.08,29.39 	"/>
	<polyline class="st1" points="-555.07,7.4 -555.07,28.94 -533.08,28.94 	"/>
</g>
<g>
	
		<rect x="26.76" y="35.82" transform="matrix(-1.836970e-16 1 -1 -1.836970e-16 90.681 24.7739)" class="st1" width="12.39" height="43.82"/>
	<rect x="9.82" y="7.1" class="st1" width="12.39" height="88.26"/>
	<rect x="48.24" y="51.53" class="st1" width="12.39" height="43.82"/>
</g>
<g>
	<g>
		<polygon class="st1" points="-124.76,94.67 -189.82,94.67 -189.82,6.32 -146.81,6.32 -135.79,17.35 -124.76,28.37 		"/>
		<polyline class="st1" points="-146.81,6.32 -146.81,27.91 -124.76,27.91 		"/>
	</g>
	<line class="st1" x1="-174.13" y1="48.14" x2="-142.12" y2="48.14"/>
	<line class="st1" x1="-174.4" y1="61.38" x2="-142.39" y2="61.38"/>
	<line class="st1" x1="-174.4" y1="74.63" x2="-142.39" y2="74.63"/>
</g>
<g>
	<g>
		<path class="st4" d="M252.84,55.74v0.37c0,4.38-3.02,7.11-7.37,7.77v3.94h-4.42v-3.9c-5.08-0.7-8.25-3.98-8.25-9.28v-0.81h4.86
			v0.59c0,2.39,1.07,4.13,3.39,4.79v-7c-4.68-1.14-7.29-3.13-7.29-7.37v-0.22c0-4.02,3.09-6.67,7.29-7.26v-3.87h4.42v4.01
			c4.16,0.81,7,3.65,7,7.92v1.11h-4.86v-0.74c0-1.84-0.77-2.95-2.14-3.54v6.15C250.22,49.55,252.84,51.54,252.84,55.74z
			 M241.05,47.41v-5.38c-1.47,0.44-2.36,1.44-2.36,2.65C238.69,46.2,239.61,46.9,241.05,47.41z M247.9,56.11
			c0-1.47-0.85-2.28-2.43-2.84v5.93C247.09,58.65,247.9,57.43,247.9,56.11z"/>
	</g>
</g>
<g>
	<circle class="st5" cx="3084" cy="-209.4" r="35.69"/>
	<g>
		<circle class="st6" cx="3070.2" cy="-216.46" r="1.7"/>
		<circle class="st6" cx="3097.8" cy="-216.46" r="1.7"/>
	</g>
	<path class="st7" d="M3071.48-201.42c6.92,6.92,18.12,6.92,25.04,0"/>
</g>
<g>
	<circle class="st5" cx="3147.86" cy="-209.4" r="35.69"/>
	<g>
		<circle class="st6" cx="3134.06" cy="-216.46" r="1.7"/>
		<circle class="st6" cx="3161.66" cy="-216.46" r="1.7"/>
	</g>
	<path class="st7" d="M3135.34-201.42c6.92,6.92,18.12,6.92,25.04,0"/>
</g>
<g>
	<circle class="st5" cx="3211.72" cy="-209.4" r="35.69"/>
	<g>
		<circle class="st6" cx="3197.92" cy="-216.46" r="1.7"/>
		<circle class="st6" cx="3225.52" cy="-216.46" r="1.7"/>
	</g>
	<path class="st7" d="M3199.2-201.42c6.92,6.92,18.12,6.92,25.04,0"/>
</g>
<polygon class="st1" points="462.96,70.22 480.92,87.86 480.92,70.22 498.56,70.22 480.92,52.26 498.56,34.3 480.92,34.3 
	480.92,16.66 462.96,34.3 445,16.66 445,34.3 427.36,34.3 445,52.26 427.36,70.22 445,70.22 445,87.86 "/>
<path class="st0" d="M3502.96,27.99c-19.42-11.08-39.69,1.39-38.74,22.03c1.04,22.68,19.59,51.75,37.54,44.64
	c2.43-0.97,5.14-0.97,7.57,0c17.95,7.11,36.49-21.97,37.54-44.64c0.95-20.59-19.24-33.06-38.63-22.09L3502.96,27.99z"/>
<path class="st0" d="M3512.65,6.71c-8.08,8.08-9.27,20.42-3.57,29.75"/>
<path class="st0" d="M3718.07,10.72c-15.65,1.49-19.56,16.36-22.4,32.85c-0.54,3.15-2.3,6.02-4.34,9.34
	c-3.7,6.02-8.29,13.51-5.89,25.26c1.08,5.52,4.51,10.3,9.39,13.1c6.38,3.78,15.19,4.62,22.99,2.21c1.59-0.51,3.3-0.44,4.84,0.2
	c3.02,1.27,6.28,1.91,9.56,1.88c3.96,0.01,7.88-0.85,11.47-2.52c6.07-2.82,10.57-8.21,12.26-14.69c3.27-11.72-1.68-19.37-5.65-25.52
	c-2.06-3.18-4-6.18-4.53-9.27c-2.83-16.42-6.72-31.25-22.22-32.84L3718.07,10.72z"/>
<path class="st0" d="M3726.83-6.16c-8.32,8.32-10.13,20.68-5.43,30.75"/>
<g>
	<rect x="2242.51" y="15.63" class="st1" width="99.16" height="71.2"/>
	<rect x="2242.51" y="51.23" class="st8" width="99.16" height="35.6"/>
	<rect x="2242.51" y="15.63" class="st9" width="35.6" height="35.6"/>
</g>
<polygon class="st1" points="3332.09,88.33 3281.05,96.02 3281.05,7.15 3332.09,-0.54 "/>
<rect x="3281.05" y="8.11" class="st1" width="63.23" height="88.87"/>
<g>
	<polygon class="st0" points="2679.96,101.88 2679.96,113.03 2668.81,101.88 2648.89,101.88 2648.89,11.59 2744.96,11.59 
		2744.96,101.88 	"/>
</g>
<g>
	<g>
		<circle class="st0" cx="2471.68" cy="38.99" r="20.4"/>
		<line class="st0" x1="2486.73" y1="54.04" x2="2494.46" y2="61.78"/>
	</g>
	
		<rect x="2500.5" y="56.69" transform="matrix(0.7071 -0.7071 0.7071 0.7071 681.9639 1793.6481)" class="st0" width="11.21" height="33.86"/>
</g>
<g>
	<path class="st0" d="M2087.04,44.75c-0.63,4.55-2.69,8.93-6.18,12.43c-8.52,8.52-22.33,8.52-30.85,0c-8.52-8.52-8.52-22.33,0-30.85
		c8.52-8.52,22.33-8.52,30.85,0C2085.88,31.35,2087.94,38.21,2087.04,44.75"/>
	<polyline class="st0" points="2088.04,44.59 2121.29,82.82 2107.82,96.29 2069.59,63.04 	"/>
	<line class="st0" x1="2114.03" y1="90.08" x2="2132.33" y2="108.38"/>
	<line class="st0" x1="2050.01" y1="57.18" x2="2080.07" y2="27.12"/>
</g>
<g>
	<rect x="2871.79" y="6.9" class="st0" width="65.29" height="88.66"/>
	<g>
		<polyline class="st0" points="2884.28,29.9 2890.16,34.19 2897.56,22.48 		"/>
		<polyline class="st0" points="2911.3,53.55 2917.19,57.85 2924.59,46.13 		"/>
		<g>
			<line class="st0" x1="2924.36" y1="23.66" x2="2911.53" y2="36.49"/>
			<line class="st0" x1="2911.53" y1="23.66" x2="2924.36" y2="36.49"/>
		</g>
		<g>
			<line class="st0" x1="2897.33" y1="67.15" x2="2884.51" y2="79.98"/>
			<line class="st0" x1="2884.51" y1="67.15" x2="2897.33" y2="79.98"/>
		</g>
		<line class="st0" x1="2885.07" y1="51.99" x2="2896.77" y2="51.99"/>
		<line class="st0" x1="2912.1" y1="73.57" x2="2923.79" y2="73.57"/>
	</g>
</g>
<polygon class="st0" points="1883.86,18.48 1895.42,41.92 1921.29,45.67 1902.57,63.92 1906.99,89.68 1883.86,77.51 1860.72,89.68 
	1865.14,63.92 1846.43,45.67 1872.29,41.92 "/>
<g>
	<rect x="1621.68" y="26.47" class="st0" width="116.13" height="71.69"/>
	<polyline class="st0" points="1621.78,26.47 1680.55,62.31 1737.7,26.47 	"/>
</g>
<g>
	<g>
		<polygon class="st0" points="1465.08,98.01 1399.67,98.01 1399.67,9.19 1442.91,9.19 1453.99,20.28 1465.08,31.36 		"/>
		<polyline class="st0" points="1442.91,9.19 1442.91,30.9 1465.08,30.9 		"/>
	</g>
	<line class="st0" x1="1415.46" y1="51.23" x2="1447.63" y2="51.23"/>
	<line class="st10" x1="1415.18" y1="64.54" x2="1447.35" y2="64.54"/>
	<line class="st10" x1="1415.18" y1="77.86" x2="1447.35" y2="77.86"/>
</g>
<g>
	<g>
		<polygon class="st0" points="1551.58,98.01 1486.17,98.01 1486.17,9.19 1529.41,9.19 1540.5,20.28 1551.58,31.36 		"/>
		<polyline class="st0" points="1529.41,9.19 1529.41,30.9 1551.58,30.9 		"/>
	</g>
	<line class="st0" x1="1501.96" y1="51.23" x2="1534.13" y2="51.23"/>
	<line class="st10" x1="1501.68" y1="64.54" x2="1533.86" y2="64.54"/>
	<line class="st10" x1="1501.68" y1="77.86" x2="1533.86" y2="77.86"/>
</g>
<polyline class="st0" points="1503.77,28.96 1509.67,33.27 1517.08,21.53 "/>
<g>
	<line class="st0" x1="1429" y1="20.97" x2="1416.15" y2="33.83"/>
	<line class="st0" x1="1416.15" y1="20.97" x2="1429" y2="33.83"/>
</g>
<g>
	<g>
		<g>
			<polygon class="st0" points="1233.62,88.18 1298.03,88.18 1298.03,-0.61 1255.45,-0.61 1244.54,10.47 1233.62,21.55 			"/>
			<polyline class="st0" points="1255.45,-0.61 1255.45,21.09 1233.62,21.09 			"/>
		</g>
	</g>
</g>
<g>
	<g>
		<circle class="st1" cx="1286.61" cy="36.41" r="20.88"/>
		<line class="st1" x1="1302.02" y1="51.82" x2="1309.93" y2="59.74"/>
	</g>
	
		<rect x="1316.11" y="54.53" transform="matrix(0.7071 -0.7071 0.7071 0.7071 336.3478 955.7396)" class="st1" width="11.48" height="34.67"/>
</g>
<g>
	<path class="st0" d="M1125.79,54.37c0,0-17.48,41.31-58.39,41.31S1009,54.37,1009,54.37V53.6c0,0,12.46-21.34,25.4-27.36
		c12.94-6.02,32.99,4.23,32.99,4.23l0,0c0,0,19.92-10.25,32.87-4.23s25.4,27.36,25.4,27.36L1125.79,54.37z"/>
	<path class="st0" d="M1009,53.6c0,0,48.67,12.89,116.79,0.77"/>
</g>
<g>
	<path class="st0" d="M908.07,58.6c0,0-17.47,35.88-58.34,35.88S791.39,58.6,791.39,58.6s17.47-35.88,58.34-35.88
		S908.07,58.6,908.07,58.6z"/>
	<circle class="st0" cx="849.73" cy="57.61" r="17.39"/>
</g>
<g>
	<circle class="st5" cx="3925.01" cy="56.18" r="35.69"/>
	<g>
		<circle class="st6" cx="3911.21" cy="49.12" r="1.7"/>
		<circle class="st6" cx="3938.81" cy="49.12" r="1.7"/>
	</g>
	<path class="st7" d="M3912.49,64.16c6.92,6.92,18.12,6.92,25.04,0"/>
</g>
<g>
	<circle class="st1" cx="4136.53" cy="31.22" r="22.82"/>
	<line class="st1" x1="4136.53" y1="54.04" x2="4136.53" y2="97.38"/>
	<line class="st1" x1="4118.43" y1="73.23" x2="4154.63" y2="73.23"/>
</g>
<g>
	<circle class="st1" cx="4314.39" cy="72.93" r="22.82"/>
	<line class="st1" x1="4330.6" y1="56.24" x2="4370.24" y2="16.61"/>
	<polyline class="st0" points="4343.81,16.61 4370.24,16.61 4370.24,43.03 	"/>
</g>
</svg>
