<?xml version="1.0" encoding="utf-8"?>
<!-- Generator: Adobe Illustrator 24.2.0, SVG Export Plug-In . SVG Version: 6.00 Build 0)  -->
<svg version="1.1" id="Capa_1" xmlns="http://www.w3.org/2000/svg" xmlns:xlink="http://www.w3.org/1999/xlink" x="0px" y="0px"
	 viewBox="0 0 207.66 82.93" style="enable-background:new 0 0 207.66 82.93;" xml:space="preserve">
<style type="text/css">
	.st0{fill:none;stroke:#000000;stroke-width:6.5;stroke-miterlimit:10;}
	.st1{fill:#FFFFFF;stroke:#000000;stroke-width:6.5;stroke-miterlimit:10;}
	.st2{fill:#FFFFFF;}
	.st3{stroke:#000000;stroke-width:6.5;stroke-miterlimit:10;}
	.st4{fill:#1D1D1B;}
	.st5{fill:#FFFFFF;stroke:#1D1D1B;stroke-width:6.5;stroke-miterlimit:10;}
	.st6{fill:#1D1D1B;stroke:#1D1D1B;stroke-width:6.5;stroke-miterlimit:10;}
	.st7{fill:none;stroke:#1D1D1B;stroke-width:6.5;stroke-miterlimit:10;}
	.st8{fill:#FC5439;stroke:#000000;stroke-width:6.5;stroke-miterlimit:10;}
	.st9{fill:#3A90FD;stroke:#000000;stroke-width:6.5;stroke-miterlimit:10;}
	.st10{fill:#F1CD08;stroke:#000000;stroke-width:6.5;stroke-miterlimit:10;}
</style>
<g>
	<path class="st0" d="M-6497.55,341.55v-74.34c0-4.23,3.43-7.65,7.65-7.65h54.6v77.9"/>
	<path class="st0" d="M-6473.98,348.3h38.68v-13.49h-55.51c-3.72,0-6.74,3.02-6.74,6.74v0c0,3.72,3.02,6.74,6.74,6.74h1.52"/>
	<rect x="-6479.88" y="280.33" class="st0" width="26.92" height="15.7"/>
	<polygon class="st0" points="-6476.17,361.45 -6481.42,366.75 -6486.68,361.45 -6486.68,344.49 -6476.17,344.49 	"/>
</g>
<polygon class="st0" points="-6828.25,304.18 -6863.93,268.5 -6863.93,284.01 -6921.05,284.01 -6921.05,325.74 -6863.93,325.74 
	-6863.93,339.85 "/>
<g>
	<polyline class="st0" points="-6655.32,277.56 -6631.68,277.56 -6631.68,348.76 -6708.54,348.76 -6708.54,277.56 -6678.41,277.56 	
		"/>
	<polygon class="st0" points="-6673.05,289.37 -6681.64,280.79 -6660.44,259.6 -6648.9,271.14 -6667.13,289.37 	"/>
	<polyline class="st0" points="-6683.01,289.37 -6673.05,289.37 -6667.13,289.37 -6657.22,289.37 	"/>
</g>
<g>
	<polygon class="st0" points="-7043.48,249.88 -7119.49,301.44 -7127.22,320.84 -7106.33,320.84 -7030.31,269.28 	"/>
	<line class="st0" x1="-7119.49" y1="301.44" x2="-7106.33" y2="320.84"/>
</g>
<g>
	<g>
		<path class="st1" d="M-6257.66,337.13h24.01c19.62,0,35.53-15.91,35.53-35.53v0c0-19.62-15.91-35.53-35.53-35.53l-3.72,0h-78.89
			c-4.9,0-8.88,3.98-8.88,8.88l0,0c0,4.91,3.98,8.88,8.88,8.88h68.05l0,0"/>
		<path class="st1" d="M-6248.22,283.85h-21.1c-4.91,0-8.88,3.98-8.88,8.88l0,0c0,4.91,3.98,8.88,8.88,8.88h19.4h1.7
			c4.91,0,8.88-3.98,8.88-8.88l0,0C-6239.33,287.82-6243.31,283.85-6248.22,283.85z"/>
		<path class="st1" d="M-6247.58,301.61h-21.1c-4.9,0-8.88,3.98-8.88,8.88v0c0,4.91,3.98,8.88,8.88,8.88h19.4h1.7
			c4.91,0,8.88-3.98,8.88-8.88v0C-6238.7,305.59-6242.67,301.61-6247.58,301.61z"/>
		<path class="st1" d="M-6247.58,319.37h-21.1c-4.9,0-8.88,3.98-8.88,8.88v0c0,4.91,3.98,8.88,8.88,8.88h19.4h1.7
			c4.91,0,8.88-3.98,8.88-8.88v0C-6238.7,323.35-6242.67,319.37-6247.58,319.37z"/>
	</g>
	<path class="st1" d="M-6234.13,267.96l-11.69,23.48c-2.15,4.41-0.32,9.73,4.09,11.88v0c4.41,2.15,9.73,0.32,11.88-4.09l8.54-17.14"
		/>
</g>
<g>
	<ellipse class="st2" cx="-6052.4" cy="307.19" rx="28.07" ry="18.08"/>
	<g>
		<path class="st1" d="M-6033.03,302.45v-14.63c0-3.72,3.01-6.73,6.73-6.73l0,0c3.72,0,6.73,3.01,6.73,6.73v22.75
			c0,18.59-15.07,33.66-33.66,33.66l0,0c-18.59,0-33.66-15.07-33.66-33.66v-23.11l0,0c7.43,0,13.45,6.02,13.45,13.45v8.75l0,0
			c7.42,0,13.44,6.02,13.44,13.44v0.83"/>
		<path class="st1" d="M-6033.1,302.45v-32.77c0-3.72-3.01-6.73-6.73-6.73h0c-3.71,0-6.73,3.01-6.73,6.73v25.15"/>
		<path class="st1" d="M-6046.56,298.63v-35.77c0-3.72-3.01-6.73-6.73-6.73l0,0c-3.71,0-6.73,3.01-6.73,6.73v25.15"/>
		<path class="st1" d="M-6060.01,297.84v-29.77c0-3.72-3.01-6.73-6.73-6.73l0,0c-3.72,0-6.73,3.01-6.73,6.73v37.79"/>
	</g>
</g>
<g>
	<line class="st0" x1="-5867.12" y1="87.83" x2="-5790.56" y2="68.86"/>
	<circle class="st1" cx="-5867.12" cy="87.83" r="25.98"/>
	<line class="st0" x1="-5713.76" y1="87.85" x2="-5790.32" y2="68.87"/>
	<circle class="st1" cx="-5713.76" cy="87.83" r="25.98"/>
	<circle class="st1" cx="-5790.56" cy="68.86" r="25.98"/>
</g>
<g>
	<circle class="st0" cx="-5644.59" cy="298.63" r="35.6"/>
	<g>
		<circle class="st3" cx="-5658.36" cy="291.59" r="1.69"/>
		<circle class="st3" cx="-5630.82" cy="291.59" r="1.69"/>
	</g>
	<path class="st0" d="M-5657.08,306.59c6.9,6.9,18.07,6.9,24.98,0"/>
</g>
<g>
	<line class="st0" x1="-5411.78" y1="265.99" x2="-5411.78" y2="337.84"/>
	<line class="st0" x1="-5482.1" y1="301.91" x2="-5533.02" y2="301.91"/>
	<line class="st0" x1="-5372.18" y1="301.91" x2="-5423.1" y2="301.91"/>
	<rect x="-5501.49" y="282.65" class="st1" width="89.71" height="38.51"/>
	<line class="st0" x1="-5373.79" y1="286.15" x2="-5373.79" y2="317.67"/>
	<line class="st0" x1="-5460.27" y1="283.4" x2="-5460.27" y2="298.35"/>
	<line class="st0" x1="-5446.64" y1="284.61" x2="-5446.64" y2="306.03"/>
</g>
<circle class="st1" cx="-2800.47" cy="303.83" r="35.26"/>
<g>
	<rect x="-5275.6" y="255.78" class="st1" width="70.6" height="50.69"/>
	<line class="st1" x1="-5275.6" y1="248.05" x2="-5275.6" y2="337.44"/>
	<rect x="-5275.6" y="281.13" class="st1" width="70.6" height="25.35"/>
	<rect x="-5275.6" y="255.78" class="st1" width="25.35" height="25.35"/>
</g>
<g transform="translate(0,-952.36218)">
	<path class="st1" d="M-5066.66,1276.98c0,18.4,13.01,33.32,29.05,33.32s29.05-14.92,29.05-33.32c0-18.4-13.96-38.93-29.05-56.24
		C-5037.62,1220.74-5066.66,1253.76-5066.66,1276.98z"/>
</g>
<g>
	<polyline class="st1" points="-4889.68,299.05 -4844.95,254.31 -4800.21,299.05 	"/>
	<path class="st1" d="M-4844.95,291.3"/>
	<polygon class="st1" points="-4814.66,342.95 -4875.24,342.95 -4875.24,284.64 -4844.95,254.31 -4814.66,284.64 	"/>
	<polyline class="st0" points="-4858.06,342.95 -4858.06,307.6 -4831.83,307.6 -4831.83,342.95 	"/>
</g>
<g>
	<circle class="st1" cx="-3404.7" cy="304.18" r="35.29"/>
	<polyline class="st1" points="-3418.25,303.79 -3410.07,313.6 -3391.14,294.75 	"/>
</g>
<g>
	<g>
		<g>
			<rect x="-4664.16" y="273.38" class="st0" width="69.54" height="69.54"/>
			<g>
				<line class="st1" x1="-4649.24" y1="262.58" x2="-4649.24" y2="284.17"/>
				<line class="st1" x1="-4609.53" y1="262.58" x2="-4609.53" y2="284.17"/>
			</g>
		</g>
		<line class="st1" x1="-4664.16" y1="296.08" x2="-4594.62" y2="296.08"/>
	</g>
	<g>
		<path class="st4" d="M-4628.78,308.33v4.07l-6.81,5.54v0.42h0.91c3.4,0,6.46,2.35,6.46,6.81c0,4.98-3.79,8.21-9.26,8.21
			c-5.86,0-9.4-3.47-9.4-8.35v-0.98h4.63v0.84c0,2.39,1.65,4.35,4.77,4.35c2.91,0,4.63-1.72,4.63-4.07c0-2.35-1.65-3.51-4-3.51
			h-4.28v-4.14l6.07-4.98h-11.12v-4.21H-4628.78z"/>
		<path class="st4" d="M-4613.41,308.33v24.56h-4.63v-19.65h-0.42l-3.44,6.18h-4.84l6.32-11.09H-4613.41z"/>
	</g>
</g>
<g>
	<g>
		<circle class="st1" cx="-4427.05" cy="308.1" r="34.11"/>
		<g>
			<path class="st1" d="M-4432.53,274.74c-15.63,19.6-15.53,47.58,0.29,67.07"/>
			<path class="st1" d="M-4420.64,274.74c15.48,19.42,15.53,47.05,0.16,66.52"/>
		</g>
		<line class="st1" x1="-4461.16" y1="308.1" x2="-4392.95" y2="308.1"/>
		<line class="st1" x1="-4426.58" y1="274.19" x2="-4426.58" y2="342.01"/>
	</g>
</g>
<g>
	<circle class="st1" cx="-4234.58" cy="284.45" r="22.82"/>
	<line class="st1" x1="-4234.58" y1="307.27" x2="-4234.58" y2="350.61"/>
	<line class="st1" x1="-4252.68" y1="326.46" x2="-4216.48" y2="326.46"/>
</g>
<g>
	<circle class="st1" cx="-4022.11" cy="295.01" r="22.82"/>
	<line class="st1" x1="-4005.9" y1="278.32" x2="-3966.26" y2="238.68"/>
	<polyline class="st0" points="-3992.69,238.68 -3966.26,238.68 -3966.26,265.1 	"/>
</g>
<path class="st1" d="M-3768.33,311.52v-12.04l-36.59-13.14l0.48-18.57c0.09-2.9-1.09-5.69-3.23-7.65l0,0
	c-3.79-3.47-9.61-3.48-13.41-0.01l-0.01,0.01c-2.15,1.96-3.34,4.76-3.24,7.66l0.48,18.55l-33.67,12.17v12.04l34.33-6.35l1.48,23.62
	l-12.3,10.06v8.46l20.03-9.74l20.03,9.74v-8.46l-13.09-10.58l1.45-22.86L-3768.33,311.52z"/>
<g>
	<g>
		<g>
			<g>
				<g>
					<g>
						<rect x="-2424.1" y="284.68" class="st2" width="79.95" height="61.47"/>
						<rect x="-2424.1" y="284.68" class="st0" width="79.95" height="61.47"/>
					</g>
				</g>
			</g>
		</g>
		<path class="st1" d="M-2365,333.96h-38.24c-4.08,0-7.39-3.31-7.39-7.39v-22.31c0-4.08,3.31-7.39,7.39-7.39h38.24
			c4.08,0,7.39,3.31,7.39,7.39v22.31C-2357.61,330.65-2360.92,333.96-2365,333.96z"/>
		<g>
			<line class="st1" x1="-2409.71" y1="258.23" x2="-2383.54" y2="284.4"/>
			<line class="st1" x1="-2358.53" y1="258.23" x2="-2384.7" y2="284.4"/>
		</g>
	</g>
</g>
<g>
	<polygon class="st1" points="-3576.36,346.81 -3641.26,346.81 -3641.26,258.69 -3598.36,258.69 -3587.36,269.68 -3576.36,280.68 	
		"/>
	<polyline class="st1" points="-3598.36,258.69 -3598.36,280.22 -3576.36,280.22 	"/>
</g>
<g>
	
		<rect x="-3016.53" y="287.1" transform="matrix(-1.836970e-16 1 -1 -1.836970e-16 -2701.3181 3319.3462)" class="st1" width="12.39" height="43.82"/>
	<rect x="-3033.46" y="258.39" class="st1" width="12.39" height="88.26"/>
	<rect x="-2995.05" y="302.82" class="st1" width="12.39" height="43.82"/>
</g>
<g>
	<g>
		<polygon class="st1" points="-3168.05,345.96 -3233.11,345.96 -3233.11,257.61 -3190.1,257.61 -3179.08,268.63 -3168.05,279.66 		
			"/>
		<polyline class="st1" points="-3190.1,257.61 -3190.1,279.2 -3168.05,279.2 		"/>
	</g>
	<line class="st1" x1="-3217.41" y1="299.43" x2="-3185.4" y2="299.43"/>
	<line class="st1" x1="-3217.69" y1="312.67" x2="-3185.68" y2="312.67"/>
	<line class="st1" x1="-3217.69" y1="325.91" x2="-3185.68" y2="325.91"/>
</g>
<g>
	<g>
		<path class="st4" d="M-2790.45,308.91v0.37c0,4.38-3.02,7.11-7.37,7.77v3.94h-4.42v-3.9c-5.08-0.7-8.25-3.98-8.25-9.28v-0.81h4.86
			v0.59c0,2.39,1.07,4.13,3.39,4.79v-7c-4.68-1.14-7.29-3.13-7.29-7.37v-0.22c0-4.02,3.09-6.67,7.29-7.26v-3.87h4.42v4.01
			c4.16,0.81,7,3.65,7,7.92v1.11h-4.86v-0.74c0-1.84-0.77-2.95-2.14-3.54v6.15C-2793.06,302.72-2790.45,304.71-2790.45,308.91z
			 M-2802.24,300.59v-5.38c-1.47,0.44-2.36,1.44-2.36,2.65C-2804.59,299.37-2803.67,300.07-2802.24,300.59z M-2795.38,309.28
			c0-1.47-0.85-2.28-2.43-2.84v5.93C-2796.19,311.82-2795.38,310.6-2795.38,309.28z"/>
	</g>
</g>
<g>
	<circle class="st5" cx="40.72" cy="41.89" r="35.69"/>
	<g>
		<circle class="st6" cx="26.91" cy="34.83" r="1.7"/>
		<circle class="st6" cx="54.52" cy="34.83" r="1.7"/>
	</g>
	<path class="st7" d="M28.2,49.87c6.92,6.92,18.12,6.92,25.04,0"/>
</g>
<g>
	<circle class="st5" cx="104.58" cy="41.89" r="35.69"/>
	<g>
		<circle class="st6" cx="90.77" cy="34.83" r="1.7"/>
		<circle class="st6" cx="118.38" cy="34.83" r="1.7"/>
	</g>
	<path class="st7" d="M92.06,49.87c6.92,6.92,18.12,6.92,25.04,0"/>
</g>
<g>
	<circle class="st5" cx="168.44" cy="41.89" r="35.69"/>
	<g>
		<circle class="st6" cx="154.63" cy="34.83" r="1.7"/>
		<circle class="st6" cx="182.24" cy="34.83" r="1.7"/>
	</g>
	<path class="st7" d="M155.92,49.87c6.92,6.92,18.12,6.92,25.04,0"/>
</g>
<polygon class="st1" points="-2580.33,321.51 -2562.36,339.15 -2562.36,321.51 -2544.73,321.51 -2562.36,303.55 -2544.73,285.59 
	-2562.36,285.59 -2562.36,267.95 -2580.33,285.59 -2598.29,267.95 -2598.29,285.59 -2615.93,285.59 -2598.29,303.55 
	-2615.93,321.51 -2598.29,321.51 -2598.29,339.15 "/>
<path class="st0" d="M459.68,279.27c-19.42-11.08-39.69,1.39-38.74,22.03c1.04,22.68,19.59,51.75,37.54,44.64
	c2.43-0.97,5.14-0.97,7.57,0c17.95,7.11,36.49-21.97,37.54-44.64c0.95-20.59-19.24-33.06-38.63-22.09L459.68,279.27z"/>
<path class="st0" d="M469.37,258c-8.08,8.08-9.27,20.42-3.57,29.75"/>
<path class="st0" d="M674.78,262.01c-15.65,1.49-19.56,16.36-22.4,32.85c-0.54,3.15-2.3,6.02-4.34,9.34
	c-3.7,6.02-8.29,13.51-5.89,25.26c1.08,5.52,4.51,10.3,9.39,13.1c6.38,3.78,15.19,4.62,22.99,2.21c1.59-0.51,3.3-0.44,4.84,0.2
	c3.02,1.27,6.28,1.91,9.56,1.88c3.96,0.01,7.88-0.85,11.47-2.52c6.07-2.82,10.57-8.21,12.26-14.69c3.27-11.72-1.68-19.37-5.65-25.52
	c-2.06-3.18-4-6.18-4.53-9.27c-2.83-16.42-6.72-31.25-22.22-32.84L674.78,262.01z"/>
<path class="st0" d="M683.54,245.13c-8.32,8.32-10.13,20.68-5.43,30.75"/>
<g>
	<rect x="-800.78" y="266.92" class="st1" width="99.16" height="71.2"/>
	<rect x="-800.78" y="302.52" class="st8" width="99.16" height="35.6"/>
	<rect x="-800.78" y="266.92" class="st9" width="35.6" height="35.6"/>
</g>
<polygon class="st1" points="288.81,339.62 237.76,347.3 237.76,258.43 288.81,250.75 "/>
<rect x="237.76" y="259.4" class="st1" width="63.23" height="88.87"/>
<g>
	<polygon class="st0" points="-363.32,353.16 -363.32,364.32 -374.48,353.16 -394.4,353.16 -394.4,262.88 -298.33,262.88 
		-298.33,353.16 	"/>
</g>
<g>
	<g>
		<circle class="st0" cx="-571.61" cy="290.28" r="20.4"/>
		<line class="st0" x1="-556.56" y1="305.33" x2="-548.82" y2="313.07"/>
	</g>
	
		<rect x="-542.79" y="307.98" transform="matrix(0.7071 -0.7071 0.7071 0.7071 -387.0803 -284.6797)" class="st0" width="11.21" height="33.86"/>
</g>
<g>
	<path class="st0" d="M-956.24,296.03c-0.63,4.55-2.69,8.93-6.18,12.43c-8.52,8.52-22.33,8.52-30.85,0
		c-8.52-8.52-8.52-22.33,0-30.85c8.52-8.52,22.33-8.52,30.85,0C-957.4,282.63-955.34,289.5-956.24,296.03"/>
	<polyline class="st0" points="-955.24,295.87 -922,334.11 -935.47,347.58 -973.7,314.33 	"/>
	<line class="st0" x1="-929.26" y1="341.37" x2="-910.96" y2="359.67"/>
	<line class="st0" x1="-993.28" y1="308.46" x2="-963.22" y2="278.4"/>
</g>
<g>
	<rect x="-171.5" y="258.19" class="st0" width="65.29" height="88.66"/>
	<g>
		<polyline class="st0" points="-159.01,281.18 -153.13,285.48 -145.73,273.77 		"/>
		<polyline class="st0" points="-131.98,304.84 -126.1,309.13 -118.7,297.42 		"/>
		<g>
			<line class="st0" x1="-118.93" y1="274.95" x2="-131.75" y2="287.77"/>
			<line class="st0" x1="-131.75" y1="274.95" x2="-118.93" y2="287.77"/>
		</g>
		<g>
			<line class="st0" x1="-145.95" y1="318.44" x2="-158.78" y2="331.27"/>
			<line class="st0" x1="-158.78" y1="318.44" x2="-145.95" y2="331.27"/>
		</g>
		<line class="st0" x1="-158.21" y1="303.28" x2="-146.52" y2="303.28"/>
		<line class="st0" x1="-131.19" y1="324.85" x2="-119.49" y2="324.85"/>
	</g>
</g>
<polygon class="st0" points="-1159.43,269.77 -1147.86,293.2 -1122,296.96 -1140.71,315.2 -1136.3,340.96 -1159.43,328.8 
	-1182.56,340.96 -1178.14,315.2 -1196.86,296.96 -1171,293.2 "/>
<g>
	<rect x="-1421.61" y="277.75" class="st0" width="116.13" height="71.69"/>
	<polyline class="st0" points="-1421.5,277.75 -1362.74,313.6 -1305.58,277.75 	"/>
</g>
<g>
	<g>
		<polygon class="st0" points="-1578.21,349.29 -1643.61,349.29 -1643.61,260.48 -1600.37,260.48 -1589.29,271.56 -1578.21,282.65 
					"/>
		<polyline class="st0" points="-1600.37,260.48 -1600.37,282.18 -1578.21,282.18 		"/>
	</g>
	<line class="st0" x1="-1627.83" y1="302.52" x2="-1595.65" y2="302.52"/>
	<line class="st10" x1="-1628.11" y1="315.83" x2="-1595.93" y2="315.83"/>
	<line class="st10" x1="-1628.11" y1="329.15" x2="-1595.93" y2="329.15"/>
</g>
<g>
	<g>
		<polygon class="st0" points="-1491.71,349.29 -1557.11,349.29 -1557.11,260.48 -1513.87,260.48 -1502.79,271.56 -1491.71,282.65 
					"/>
		<polyline class="st0" points="-1513.87,260.48 -1513.87,282.18 -1491.71,282.18 		"/>
	</g>
	<line class="st0" x1="-1541.33" y1="302.52" x2="-1509.15" y2="302.52"/>
	<line class="st10" x1="-1541.61" y1="315.83" x2="-1509.43" y2="315.83"/>
	<line class="st10" x1="-1541.61" y1="329.15" x2="-1509.43" y2="329.15"/>
</g>
<polyline class="st0" points="-1539.51,280.25 -1533.62,284.55 -1526.21,272.82 "/>
<g>
	<line class="st0" x1="-1614.29" y1="272.26" x2="-1627.14" y2="285.11"/>
	<line class="st0" x1="-1627.14" y1="272.26" x2="-1614.29" y2="285.11"/>
</g>
<g>
	<g>
		<g>
			<polygon class="st0" points="-1809.66,339.46 -1745.25,339.46 -1745.25,250.68 -1787.83,250.68 -1798.75,261.76 -1809.66,272.84 
							"/>
			<polyline class="st0" points="-1787.83,250.68 -1787.83,272.37 -1809.66,272.37 			"/>
		</g>
	</g>
</g>
<g>
	<g>
		<circle class="st1" cx="-1756.68" cy="287.7" r="20.88"/>
		<line class="st1" x1="-1741.27" y1="303.11" x2="-1733.35" y2="311.03"/>
	</g>
	
		<rect x="-1727.17" y="305.81" transform="matrix(0.7071 -0.7071 0.7071 0.7071 -732.6965 -1122.5883)" class="st1" width="11.48" height="34.67"/>
</g>
<g>
	<path class="st0" d="M-1917.5,305.66c0,0-17.48,41.31-58.39,41.31c-40.91,0-58.39-41.31-58.39-41.31v-0.77
		c0,0,12.46-21.34,25.4-27.36c12.94-6.02,32.99,4.23,32.99,4.23l0,0c0,0,19.92-10.25,32.87-4.23c12.94,6.02,25.4,27.36,25.4,27.36
		L-1917.5,305.66z"/>
	<path class="st0" d="M-2034.28,304.89c0,0,48.67,12.89,116.79,0.77"/>
</g>
<g>
	<path class="st0" d="M-2135.22,305.2c0,0-17.47,35.88-58.34,35.88c-40.87,0-58.34-35.88-58.34-35.88s17.47-35.88,58.34-35.88
		C-2152.69,269.31-2135.22,305.2-2135.22,305.2z"/>
	<circle class="st0" cx="-2193.55" cy="304.21" r="17.39"/>
</g>
<g>
	<circle class="st5" cx="881.72" cy="307.47" r="35.69"/>
	<g>
		<circle class="st6" cx="867.92" cy="300.41" r="1.7"/>
		<circle class="st6" cx="895.52" cy="300.41" r="1.7"/>
	</g>
	<path class="st7" d="M869.2,315.44c6.92,6.92,18.12,6.92,25.04,0"/>
</g>
<g>
	<circle class="st1" cx="1093.24" cy="282.51" r="22.82"/>
	<line class="st1" x1="1093.24" y1="305.33" x2="1093.24" y2="348.66"/>
	<line class="st1" x1="1075.14" y1="324.52" x2="1111.34" y2="324.52"/>
</g>
<g>
	<circle class="st1" cx="1271.1" cy="324.22" r="22.82"/>
	<line class="st1" x1="1287.31" y1="307.53" x2="1326.95" y2="267.89"/>
	<polyline class="st0" points="1300.53,267.89 1326.95,267.89 1326.95,294.32 	"/>
</g>
</svg>
