<?xml version="1.0" encoding="utf-8"?>
<!-- Generator: Adobe Illustrator 24.2.0, SVG Export Plug-In . SVG Version: 6.00 Build 0)  -->
<svg version="1.1" id="Capa_1" xmlns="http://www.w3.org/2000/svg" xmlns:xlink="http://www.w3.org/1999/xlink" x="0px" y="0px"
	 viewBox="0 0 96.43 96.65" style="enable-background:new 0 0 96.43 96.65;" xml:space="preserve">
<style type="text/css">
	.st0{fill:none;stroke:#000000;stroke-width:6.5;stroke-miterlimit:10;}
	.st1{fill:#FFFFFF;stroke:#000000;stroke-width:6.5;stroke-miterlimit:10;}
	.st2{fill:#FFFFFF;}
	.st3{stroke:#000000;stroke-width:6.5;stroke-miterlimit:10;}
	.st4{fill:#1D1D1B;}
	.st5{fill:#FFFFFF;stroke:#1D1D1B;stroke-width:6.5;stroke-miterlimit:10;}
	.st6{fill:#1D1D1B;stroke:#1D1D1B;stroke-width:6.5;stroke-miterlimit:10;}
	.st7{fill:none;stroke:#1D1D1B;stroke-width:6.5;stroke-miterlimit:10;}
	.st8{fill:#FC5439;stroke:#000000;stroke-width:6.5;stroke-miterlimit:10;}
	.st9{fill:#3A90FD;stroke:#000000;stroke-width:6.5;stroke-miterlimit:10;}
	.st10{fill:#F1CD08;stroke:#000000;stroke-width:6.5;stroke-miterlimit:10;}
</style>
<g>
	<path class="st0" d="M-4064.65,87.11V12.78c0-4.23,3.43-7.65,7.65-7.65h54.6v77.9"/>
	<path class="st0" d="M-4041.09,93.86h38.68V80.37h-55.51c-3.72,0-6.74,3.02-6.74,6.74v0c0,3.72,3.02,6.74,6.74,6.74h1.52"/>
	<rect x="-4046.99" y="25.89" class="st0" width="26.92" height="15.7"/>
	<polygon class="st0" points="-4043.27,107.01 -4048.53,112.31 -4053.79,107.01 -4053.79,90.05 -4043.27,90.05 	"/>
</g>
<polygon class="st0" points="-4395.36,49.74 -4431.03,14.06 -4431.03,29.57 -4488.16,29.57 -4488.16,71.3 -4431.03,71.3 
	-4431.03,85.41 "/>
<g>
	<polyline class="st0" points="-4222.43,23.12 -4198.79,23.12 -4198.79,94.32 -4275.65,94.32 -4275.65,23.12 -4245.52,23.12 	"/>
	<polygon class="st0" points="-4240.16,34.93 -4248.74,26.35 -4227.55,5.15 -4216.01,16.7 -4234.24,34.93 	"/>
	<polyline class="st0" points="-4250.11,34.93 -4240.16,34.93 -4234.24,34.93 -4224.32,34.93 	"/>
</g>
<g>
	<polygon class="st0" points="-4610.58,-4.56 -4686.6,47 -4694.33,66.4 -4673.44,66.4 -4597.42,14.84 	"/>
	<line class="st0" x1="-4686.6" y1="47" x2="-4673.44" y2="66.4"/>
</g>
<g>
	<g>
		<path class="st1" d="M-3824.76,82.69h24.01c19.62,0,35.53-15.91,35.53-35.53v0c0-19.62-15.91-35.53-35.53-35.53l-3.72,0h-78.89
			c-4.91,0-8.88,3.98-8.88,8.88v0c0,4.91,3.98,8.88,8.88,8.88h68.05v0"/>
		<path class="st1" d="M-3815.32,29.41l-21.1,0c-4.91,0-8.88,3.98-8.88,8.88v0c0,4.91,3.98,8.88,8.88,8.88h19.4h1.7
			c4.91,0,8.88-3.98,8.88-8.88v0C-3806.44,33.38-3810.42,29.41-3815.32,29.41z"/>
		<path class="st1" d="M-3814.69,47.17h-21.09c-4.91,0-8.88,3.98-8.88,8.88v0c0,4.91,3.98,8.88,8.88,8.88h19.4h1.7
			c4.91,0,8.88-3.98,8.88-8.88v0C-3805.8,51.14-3809.78,47.17-3814.69,47.17z"/>
		<path class="st1" d="M-3814.69,64.93h-21.09c-4.91,0-8.88,3.98-8.88,8.88v0c0,4.91,3.98,8.88,8.88,8.88h19.4h1.7
			c4.91,0,8.88-3.98,8.88-8.88v0C-3805.8,68.91-3809.78,64.93-3814.69,64.93z"/>
	</g>
	<path class="st1" d="M-3801.24,13.52L-3812.93,37c-2.15,4.41-0.32,9.73,4.09,11.88v0c4.41,2.15,9.73,0.32,11.88-4.09l8.54-17.14"/>
</g>
<g>
	<ellipse class="st2" cx="-3619.51" cy="52.75" rx="28.07" ry="18.08"/>
	<g>
		<path class="st1" d="M-3600.14,48.01V33.38c0-3.72,3.01-6.73,6.73-6.73l0,0c3.72,0,6.73,3.01,6.73,6.73v22.75
			c0,18.59-15.07,33.66-33.66,33.66l0,0c-18.59,0-33.66-15.07-33.66-33.66V33.02l0,0c7.43,0,13.45,6.02,13.45,13.45v8.75l0,0
			c7.42,0,13.44,6.02,13.44,13.44v0.83"/>
		<path class="st1" d="M-3600.21,48.01V15.24c0-3.72-3.01-6.73-6.73-6.73l0,0c-3.72,0-6.73,3.01-6.73,6.73v25.15"/>
		<path class="st1" d="M-3613.66,44.19V8.42c0-3.72-3.01-6.73-6.73-6.73l0,0c-3.72,0-6.73,3.01-6.73,6.73v25.15"/>
		<path class="st1" d="M-3627.12,43.4V13.63c0-3.72-3.01-6.73-6.73-6.73l0,0c-3.72,0-6.73,3.01-6.73,6.73v37.79"/>
	</g>
</g>
<g>
	<line class="st0" x1="-3434.23" y1="-166.61" x2="-3357.67" y2="-185.59"/>
	<circle class="st1" cx="-3434.23" cy="-166.61" r="25.98"/>
	<line class="st0" x1="-3280.87" y1="-166.59" x2="-3357.42" y2="-185.57"/>
	<circle class="st1" cx="-3280.87" cy="-166.61" r="25.98"/>
	<circle class="st1" cx="-3357.67" cy="-185.59" r="25.98"/>
</g>
<g>
	<circle class="st0" cx="-3211.7" cy="44.19" r="35.6"/>
	<g>
		<circle class="st3" cx="-3225.47" cy="37.15" r="1.69"/>
		<circle class="st3" cx="-3197.93" cy="37.15" r="1.69"/>
	</g>
	<path class="st0" d="M-3224.19,52.15c6.9,6.9,18.07,6.9,24.98,0"/>
</g>
<g>
	<line class="st0" x1="-2978.89" y1="11.54" x2="-2978.89" y2="83.4"/>
	<line class="st0" x1="-3049.2" y1="47.47" x2="-3100.12" y2="47.47"/>
	<line class="st0" x1="-2939.28" y1="47.47" x2="-2990.2" y2="47.47"/>
	<rect x="-3068.6" y="28.21" class="st1" width="89.71" height="38.51"/>
	<line class="st0" x1="-2940.9" y1="31.71" x2="-2940.9" y2="63.23"/>
	<line class="st0" x1="-3027.38" y1="28.96" x2="-3027.38" y2="43.91"/>
	<line class="st0" x1="-3013.75" y1="30.17" x2="-3013.75" y2="51.59"/>
</g>
<circle class="st1" cx="-367.57" cy="49.39" r="35.26"/>
<g>
	<rect x="-2842.71" y="1.34" class="st1" width="70.6" height="50.69"/>
	<line class="st1" x1="-2842.71" y1="-6.39" x2="-2842.71" y2="83"/>
	<rect x="-2842.71" y="26.69" class="st1" width="70.6" height="25.35"/>
	<rect x="-2842.71" y="1.34" class="st1" width="25.35" height="25.35"/>
</g>
<g transform="translate(0,-952.36218)">
	<path class="st1" d="M-2633.77,1022.54c0,18.4,13.01,33.32,29.05,33.32c16.03,0,29.05-14.92,29.05-33.32s-13.96-38.93-29.05-56.24
		C-2604.72,966.3-2633.77,999.32-2633.77,1022.54z"/>
</g>
<g>
	<polyline class="st1" points="-2456.79,44.61 -2412.05,-0.13 -2367.32,44.61 	"/>
	<path class="st1" d="M-2412.05,36.85"/>
	<polygon class="st1" points="-2381.76,88.51 -2442.34,88.51 -2442.34,30.2 -2412.05,-0.13 -2381.76,30.2 	"/>
	<polyline class="st0" points="-2425.17,88.51 -2425.17,53.15 -2398.93,53.15 -2398.93,88.51 	"/>
</g>
<g>
	<circle class="st1" cx="-971.8" cy="49.74" r="35.29"/>
	<polyline class="st1" points="-985.36,49.35 -977.18,59.16 -958.24,40.31 	"/>
</g>
<g>
	<g>
		<g>
			<rect x="-2231.26" y="18.93" class="st0" width="69.54" height="69.54"/>
			<g>
				<line class="st1" x1="-2216.35" y1="8.14" x2="-2216.35" y2="29.73"/>
				<line class="st1" x1="-2176.64" y1="8.14" x2="-2176.64" y2="29.73"/>
			</g>
		</g>
		<line class="st1" x1="-2231.26" y1="41.64" x2="-2161.72" y2="41.64"/>
	</g>
	<g>
		<path class="st4" d="M-2195.89,53.88v4.07l-6.81,5.54v0.42h0.91c3.4,0,6.46,2.35,6.46,6.81c0,4.98-3.79,8.21-9.26,8.21
			c-5.86,0-9.4-3.47-9.4-8.35v-0.98h4.63v0.84c0,2.39,1.65,4.35,4.77,4.35c2.91,0,4.63-1.72,4.63-4.07s-1.65-3.51-4-3.51h-4.28
			v-4.14l6.07-4.98h-11.12v-4.21H-2195.89z"/>
		<path class="st4" d="M-2180.52,53.88v24.56h-4.63V58.8h-0.42l-3.44,6.18h-4.84l6.32-11.09H-2180.52z"/>
	</g>
</g>
<g>
	<g>
		<circle class="st1" cx="-1994.16" cy="53.66" r="34.11"/>
		<g>
			<path class="st1" d="M-1999.64,20.3c-15.63,19.6-15.53,47.58,0.29,67.07"/>
			<path class="st1" d="M-1987.75,20.3c15.48,19.42,15.53,47.05,0.16,66.52"/>
		</g>
		<line class="st1" x1="-2028.27" y1="53.66" x2="-1960.05" y2="53.66"/>
		<line class="st1" x1="-1993.69" y1="19.75" x2="-1993.69" y2="87.57"/>
	</g>
</g>
<g>
	<circle class="st1" cx="-1801.69" cy="30.01" r="22.82"/>
	<line class="st1" x1="-1801.69" y1="52.83" x2="-1801.69" y2="96.17"/>
	<line class="st1" x1="-1819.79" y1="72.02" x2="-1783.59" y2="72.02"/>
</g>
<g>
	<circle class="st1" cx="-1589.22" cy="40.57" r="22.82"/>
	<line class="st1" x1="-1573" y1="23.88" x2="-1533.37" y2="-15.76"/>
	<polyline class="st0" points="-1559.79,-15.76 -1533.37,-15.76 -1533.37,10.66 	"/>
</g>
<path class="st1" d="M-1335.44,57.08V45.04l-36.59-13.14l0.48-18.57c0.09-2.9-1.09-5.69-3.23-7.65v0
	c-3.79-3.47-9.61-3.48-13.41-0.01l-0.01,0.01c-2.15,1.96-3.34,4.76-3.24,7.66l0.48,18.55l-33.67,12.17V56.1l34.33-6.35l1.48,23.62
	l-12.3,10.06v8.46l20.03-9.74l20.03,9.74v-8.46l-13.09-10.58l1.45-22.86L-1335.44,57.08z"/>
<g>
	<g>
		<g>
			<g>
				<g>
					<g>
						<rect x="8.8" y="30.24" class="st2" width="79.95" height="61.47"/>
						<rect x="8.8" y="30.24" class="st0" width="79.95" height="61.47"/>
					</g>
				</g>
			</g>
		</g>
		<path class="st1" d="M67.89,79.52H29.65c-4.08,0-7.39-3.31-7.39-7.39V49.82c0-4.08,3.31-7.39,7.39-7.39h38.24
			c4.08,0,7.39,3.31,7.39,7.39v22.31C75.29,76.21,71.98,79.52,67.89,79.52z"/>
		<g>
			<line class="st1" x1="23.19" y1="3.79" x2="49.36" y2="29.96"/>
			<line class="st1" x1="74.36" y1="3.79" x2="48.19" y2="29.96"/>
		</g>
	</g>
</g>
<g>
	<polygon class="st1" points="-1143.47,92.37 -1208.36,92.37 -1208.36,4.25 -1165.46,4.25 -1154.47,15.24 -1143.47,26.24 	"/>
	<polyline class="st1" points="-1165.46,4.25 -1165.46,25.78 -1143.47,25.78 	"/>
</g>
<g>
	
		<rect x="-583.64" y="32.66" transform="matrix(-1.836970e-16 1 -1 -1.836970e-16 -522.8661 632.0125)" class="st1" width="12.39" height="43.82"/>
	<rect x="-600.57" y="3.95" class="st1" width="12.39" height="88.26"/>
	<rect x="-562.16" y="48.38" class="st1" width="12.39" height="43.82"/>
</g>
<g>
	<g>
		<polygon class="st1" points="-735.16,91.52 -800.22,91.52 -800.22,3.17 -757.21,3.17 -746.18,14.19 -735.16,25.22 		"/>
		<polyline class="st1" points="-757.21,3.17 -757.21,24.76 -735.16,24.76 		"/>
	</g>
	<line class="st1" x1="-784.52" y1="44.99" x2="-752.51" y2="44.99"/>
	<line class="st1" x1="-784.79" y1="58.23" x2="-752.79" y2="58.23"/>
	<line class="st1" x1="-784.79" y1="71.47" x2="-752.79" y2="71.47"/>
</g>
<g>
	<g>
		<path class="st4" d="M-357.56,54.47v0.37c0,4.38-3.02,7.11-7.37,7.77v3.94h-4.42v-3.9c-5.08-0.7-8.25-3.98-8.25-9.28v-0.81h4.86
			v0.59c0,2.39,1.07,4.13,3.39,4.79v-7c-4.68-1.14-7.29-3.13-7.29-7.37v-0.22c0-4.02,3.09-6.67,7.29-7.26v-3.87h4.42v4.01
			c4.16,0.81,7,3.65,7,7.92v1.11h-4.86v-0.74c0-1.84-0.77-2.95-2.14-3.54v6.15C-360.17,48.28-357.56,50.27-357.56,54.47z
			 M-369.34,46.14v-5.38c-1.47,0.44-2.36,1.44-2.36,2.65C-371.7,44.93-370.78,45.63-369.34,46.14z M-362.49,54.84
			c0-1.47-0.85-2.28-2.43-2.84v5.93C-363.3,57.38-362.49,56.16-362.49,54.84z"/>
	</g>
</g>
<g>
	<circle class="st5" cx="2473.61" cy="-212.55" r="35.69"/>
	<g>
		<circle class="st6" cx="2459.81" cy="-219.61" r="1.7"/>
		<circle class="st6" cx="2487.41" cy="-219.61" r="1.7"/>
	</g>
	<path class="st7" d="M2461.09-204.57c6.92,6.92,18.12,6.92,25.04,0"/>
</g>
<g>
	<circle class="st5" cx="2537.47" cy="-212.55" r="35.69"/>
	<g>
		<circle class="st6" cx="2523.67" cy="-219.61" r="1.7"/>
		<circle class="st6" cx="2551.27" cy="-219.61" r="1.7"/>
	</g>
	<path class="st7" d="M2524.95-204.57c6.92,6.92,18.12,6.92,25.04,0"/>
</g>
<g>
	<circle class="st5" cx="2601.33" cy="-212.55" r="35.69"/>
	<g>
		<circle class="st6" cx="2587.53" cy="-219.61" r="1.7"/>
		<circle class="st6" cx="2615.13" cy="-219.61" r="1.7"/>
	</g>
	<path class="st7" d="M2588.81-204.57c6.92,6.92,18.12,6.92,25.04,0"/>
</g>
<polygon class="st1" points="-147.43,67.07 -129.47,84.7 -129.47,67.07 -111.83,67.07 -129.47,49.11 -111.83,31.14 -129.47,31.14 
	-129.47,13.51 -147.43,31.14 -165.4,13.51 -165.4,31.14 -183.03,31.14 -165.4,49.11 -183.03,67.07 -165.4,67.07 -165.4,84.7 "/>
<path class="st0" d="M2892.57,24.83c-19.42-11.08-39.69,1.39-38.74,22.03c1.04,22.68,19.59,51.75,37.54,44.64
	c2.43-0.97,5.14-0.97,7.57,0c17.95,7.11,36.49-21.97,37.54-44.64c0.95-20.59-19.24-33.06-38.63-22.09L2892.57,24.83z"/>
<path class="st0" d="M2902.26,3.56c-8.08,8.08-9.27,20.42-3.57,29.75"/>
<path class="st0" d="M3107.68,7.56c-15.65,1.49-19.56,16.36-22.4,32.85c-0.54,3.15-2.3,6.02-4.34,9.34
	c-3.7,6.02-8.29,13.51-5.89,25.26c1.08,5.52,4.51,10.3,9.39,13.1c6.38,3.78,15.19,4.62,22.99,2.21c1.59-0.51,3.3-0.44,4.84,0.2
	c3.02,1.27,6.28,1.91,9.56,1.88c3.96,0.01,7.88-0.85,11.47-2.52c6.07-2.82,10.57-8.21,12.26-14.69c3.27-11.72-1.68-19.37-5.65-25.52
	c-2.06-3.18-4-6.18-4.53-9.27c-2.83-16.42-6.72-31.25-22.22-32.84L3107.68,7.56z"/>
<path class="st0" d="M3116.44-9.32c-8.32,8.32-10.13,20.68-5.43,30.75"/>
<g>
	<rect x="1632.11" y="12.48" class="st1" width="99.16" height="71.2"/>
	<rect x="1632.11" y="48.08" class="st8" width="99.16" height="35.6"/>
	<rect x="1632.11" y="12.48" class="st9" width="35.6" height="35.6"/>
</g>
<polygon class="st1" points="2721.7,85.18 2670.66,92.86 2670.66,3.99 2721.7,-3.69 "/>
<rect x="2670.66" y="4.96" class="st1" width="63.23" height="88.87"/>
<g>
	<polygon class="st0" points="2069.57,98.72 2069.57,109.88 2058.41,98.72 2038.49,98.72 2038.49,8.44 2134.56,8.44 2134.56,98.72 	
		"/>
</g>
<g>
	<g>
		<circle class="st0" cx="1861.29" cy="35.84" r="20.4"/>
		<line class="st0" x1="1876.34" y1="50.89" x2="1884.07" y2="58.62"/>
	</g>
	
		<rect x="1890.11" y="53.53" transform="matrix(0.7071 -0.7071 0.7071 0.7071 505.4143 1361.1113)" class="st0" width="11.21" height="33.86"/>
</g>
<g>
	<path class="st0" d="M1476.65,41.59c-0.63,4.55-2.69,8.93-6.18,12.43c-8.52,8.52-22.33,8.52-30.85,0s-8.52-22.33,0-30.85
		s22.33-8.52,30.85,0C1475.49,28.19,1477.55,35.06,1476.65,41.59"/>
	<polyline class="st0" points="1477.65,41.43 1510.9,79.66 1497.43,93.13 1459.19,59.89 	"/>
	<line class="st0" x1="1503.64" y1="86.93" x2="1521.93" y2="105.23"/>
	<line class="st0" x1="1439.61" y1="54.02" x2="1469.67" y2="23.96"/>
</g>
<g>
	<rect x="2261.4" y="3.75" class="st0" width="65.29" height="88.66"/>
	<g>
		<polyline class="st0" points="2273.89,26.74 2279.77,31.04 2287.17,19.33 		"/>
		<polyline class="st0" points="2300.91,50.39 2306.79,54.69 2314.19,42.98 		"/>
		<g>
			<line class="st0" x1="2313.97" y1="20.51" x2="2301.14" y2="33.33"/>
			<line class="st0" x1="2301.14" y1="20.51" x2="2313.97" y2="33.33"/>
		</g>
		<g>
			<line class="st0" x1="2286.94" y1="64" x2="2274.11" y2="76.83"/>
			<line class="st0" x1="2274.11" y1="64" x2="2286.94" y2="76.83"/>
		</g>
		<line class="st0" x1="2274.68" y1="48.84" x2="2286.37" y2="48.84"/>
		<line class="st0" x1="2301.7" y1="70.41" x2="2313.4" y2="70.41"/>
	</g>
</g>
<polygon class="st0" points="1273.46,15.33 1285.03,38.76 1310.89,42.52 1292.18,60.76 1296.6,86.52 1273.46,74.36 1250.33,86.52 
	1254.75,60.76 1236.03,42.52 1261.9,38.76 "/>
<g>
	<rect x="1011.28" y="23.31" class="st0" width="116.13" height="71.69"/>
	<polyline class="st0" points="1011.39,23.31 1070.16,59.16 1127.31,23.31 	"/>
</g>
<g>
	<g>
		<polygon class="st0" points="854.69,94.85 789.28,94.85 789.28,6.04 832.52,6.04 843.6,17.12 854.69,28.2 		"/>
		<polyline class="st0" points="832.52,6.04 832.52,27.74 854.69,27.74 		"/>
	</g>
	<line class="st0" x1="805.06" y1="48.08" x2="837.24" y2="48.08"/>
	<line class="st10" x1="804.78" y1="61.39" x2="836.96" y2="61.39"/>
	<line class="st10" x1="804.78" y1="74.71" x2="836.96" y2="74.71"/>
</g>
<g>
	<g>
		<polygon class="st0" points="941.19,94.85 875.78,94.85 875.78,6.04 919.02,6.04 930.1,17.12 941.19,28.2 		"/>
		<polyline class="st0" points="919.02,6.04 919.02,27.74 941.19,27.74 		"/>
	</g>
	<line class="st0" x1="891.56" y1="48.08" x2="923.74" y2="48.08"/>
	<line class="st10" x1="891.29" y1="61.39" x2="923.46" y2="61.39"/>
	<line class="st10" x1="891.29" y1="74.71" x2="923.46" y2="74.71"/>
</g>
<polyline class="st0" points="893.38,25.81 899.27,30.11 906.69,18.38 "/>
<g>
	<line class="st0" x1="818.61" y1="17.82" x2="805.75" y2="30.67"/>
	<line class="st0" x1="805.75" y1="17.82" x2="818.61" y2="30.67"/>
</g>
<g>
	<g>
		<g>
			<polygon class="st0" points="623.23,85.02 687.64,85.02 687.64,-3.76 645.06,-3.76 634.15,7.32 623.23,18.4 			"/>
			<polyline class="st0" points="645.06,-3.76 645.06,17.93 623.23,17.93 			"/>
		</g>
	</g>
</g>
<g>
	<g>
		<circle class="st1" cx="676.22" cy="33.26" r="20.88"/>
		<line class="st1" x1="691.62" y1="48.67" x2="699.54" y2="56.59"/>
	</g>
	
		<rect x="705.72" y="51.37" transform="matrix(0.7071 -0.7071 0.7071 0.7071 159.7982 523.2028)" class="st1" width="11.48" height="34.67"/>
</g>
<g>
	<path class="st0" d="M515.4,51.22c0,0-17.48,41.31-58.39,41.31s-58.39-41.31-58.39-41.31v-0.77c0,0,12.46-21.34,25.4-27.36
		S457,27.31,457,27.31l0,0c0,0,19.92-10.25,32.87-4.23s25.4,27.36,25.4,27.36L515.4,51.22z"/>
	<path class="st0" d="M398.61,50.45c0,0,48.67,12.89,116.79,0.77"/>
</g>
<g>
	<path class="st0" d="M297.68,55.44c0,0-17.47,35.88-58.34,35.88S181,55.44,181,55.44s17.47-35.88,58.34-35.88
		S297.68,55.44,297.68,55.44z"/>
	<circle class="st0" cx="239.34" cy="54.46" r="17.39"/>
</g>
<g>
	<circle class="st5" cx="3314.61" cy="53.02" r="35.69"/>
	<g>
		<circle class="st6" cx="3300.81" cy="45.97" r="1.7"/>
		<circle class="st6" cx="3328.42" cy="45.97" r="1.7"/>
	</g>
	<path class="st7" d="M3302.09,61c6.92,6.92,18.12,6.92,25.04,0"/>
</g>
<g>
	<circle class="st1" cx="3526.14" cy="28.07" r="22.82"/>
	<line class="st1" x1="3526.14" y1="50.89" x2="3526.14" y2="94.22"/>
	<line class="st1" x1="3508.04" y1="70.07" x2="3544.23" y2="70.07"/>
</g>
<g>
	<circle class="st1" cx="3703.99" cy="69.78" r="22.82"/>
	<line class="st1" x1="3720.21" y1="53.09" x2="3759.84" y2="13.45"/>
	<polyline class="st0" points="3733.42,13.45 3759.84,13.45 3759.84,39.88 	"/>
</g>
</svg>
