<?xml version="1.0" encoding="utf-8"?>
<!-- Generator: Adobe Illustrator 24.2.0, SVG Export Plug-In . SVG Version: 6.00 Build 0)  -->
<svg version="1.1" id="Capa_1" xmlns="http://www.w3.org/2000/svg" xmlns:xlink="http://www.w3.org/1999/xlink" x="0px" y="0px"
	 viewBox="0 0 90.64 101.05" style="enable-background:new 0 0 90.64 101.05;" xml:space="preserve">
<style type="text/css">
	.st0{fill:none;stroke:#000000;stroke-width:6.5;stroke-miterlimit:10;}
	.st1{fill:#FFFFFF;stroke:#000000;stroke-width:6.5;stroke-miterlimit:10;}
	.st2{fill:#FFFFFF;}
	.st3{stroke:#000000;stroke-width:6.5;stroke-miterlimit:10;}
	.st4{fill:#1D1D1B;}
	.st5{fill:#FFFFFF;stroke:#1D1D1B;stroke-width:6.5;stroke-miterlimit:10;}
	.st6{fill:#1D1D1B;stroke:#1D1D1B;stroke-width:6.5;stroke-miterlimit:10;}
	.st7{fill:none;stroke:#1D1D1B;stroke-width:6.5;stroke-miterlimit:10;}
	.st8{fill:#FC5439;stroke:#000000;stroke-width:6.5;stroke-miterlimit:10;}
	.st9{fill:#3A90FD;stroke:#000000;stroke-width:6.5;stroke-miterlimit:10;}
	.st10{fill:#F1CD08;stroke:#000000;stroke-width:6.5;stroke-miterlimit:10;}
</style>
<g>
	<path class="st0" d="M217.74,86.98V12.64c0-4.23,3.43-7.65,7.65-7.65h54.6v77.9"/>
	<path class="st0" d="M241.31,93.73h38.68V80.24h-55.51c-3.72,0-6.74,3.02-6.74,6.74v0c0,3.72,3.02,6.74,6.74,6.74H226"/>
	<rect x="235.4" y="25.76" class="st0" width="26.92" height="15.7"/>
	<polygon class="st0" points="239.12,106.88 233.86,112.18 228.6,106.88 228.6,89.92 239.12,89.92 	"/>
</g>
<polygon class="st0" points="-112.97,49.61 -148.64,13.93 -148.64,29.44 -205.76,29.44 -205.76,71.17 -148.64,71.17 -148.64,85.28 
	"/>
<g>
	<polyline class="st0" points="59.97,22.99 83.61,22.99 83.61,94.19 6.74,94.19 6.74,22.99 36.88,22.99 	"/>
	<polygon class="st0" points="42.23,34.8 33.65,26.22 54.84,5.02 66.39,16.57 48.16,34.8 	"/>
	<polyline class="st0" points="32.28,34.8 42.23,34.8 48.16,34.8 58.07,34.8 	"/>
</g>
<g>
	<polygon class="st0" points="-328.19,-4.69 -404.21,46.86 -411.94,66.27 -391.05,66.27 -315.03,14.71 	"/>
	<line class="st0" x1="-404.21" y1="46.86" x2="-391.05" y2="66.27"/>
</g>
<g>
	<g>
		<path class="st1" d="M457.63,81.51h24.01c19.62,0,35.53-15.91,35.53-35.53v0c0-19.62-15.91-35.53-35.53-35.53l-3.72,0h-78.89
			c-4.91,0-8.88,3.98-8.88,8.88v0c0,4.91,3.98,8.88,8.88,8.88h68.05v0"/>
		<path class="st1" d="M467.07,28.22h-21.1c-4.91,0-8.88,3.98-8.88,8.88v0c0,4.91,3.98,8.88,8.88,8.88h19.4h1.7
			c4.91,0,8.88-3.98,8.88-8.88v0C475.95,32.2,471.98,28.22,467.07,28.22z"/>
		<path class="st1" d="M467.71,45.99h-21.1c-4.91,0-8.88,3.98-8.88,8.88v0c0,4.91,3.98,8.88,8.88,8.88h19.4h1.7
			c4.91,0,8.88-3.98,8.88-8.88v0C476.59,49.96,472.61,45.99,467.71,45.99z"/>
		<path class="st1" d="M467.71,63.75h-21.1c-4.91,0-8.88,3.98-8.88,8.88v0c0,4.91,3.98,8.88,8.88,8.88h19.4h1.7
			c4.91,0,8.88-3.98,8.88-8.88v0C476.59,67.73,472.61,63.75,467.71,63.75z"/>
	</g>
	<path class="st1" d="M481.16,12.34l-11.69,23.48c-2.15,4.41-0.32,9.73,4.09,11.88l0,0c4.41,2.15,9.73,0.32,11.88-4.09l8.54-17.14"
		/>
</g>
<g>
	<ellipse class="st2" cx="662.89" cy="52.62" rx="28.07" ry="18.08"/>
	<g>
		<path class="st1" d="M682.25,47.88V33.25c0-3.72,3.01-6.73,6.73-6.73l0,0c3.72,0,6.73,3.01,6.73,6.73V56
			c0,18.59-15.07,33.66-33.66,33.66h0c-18.59,0-33.66-15.07-33.66-33.66V32.89h0c7.43,0,13.45,6.02,13.45,13.45v8.75h0
			c7.42,0,13.44,6.02,13.44,13.44v0.83"/>
		<path class="st1" d="M682.18,47.88V15.11c0-3.72-3.01-6.73-6.73-6.73l0,0c-3.72,0-6.73,3.01-6.73,6.73v25.15"/>
		<path class="st1" d="M668.73,44.06V8.29c0-3.72-3.01-6.73-6.73-6.73l0,0c-3.72,0-6.73,3.01-6.73,6.73v25.15"/>
		<path class="st1" d="M655.28,43.27V13.5c0-3.72-3.01-6.73-6.73-6.73l0,0c-3.72,0-6.73,3.01-6.73,6.73v37.79"/>
	</g>
</g>
<g>
	<line class="st0" x1="848.17" y1="-166.74" x2="924.72" y2="-185.72"/>
	<circle class="st1" cx="848.17" cy="-166.74" r="25.98"/>
	<line class="st0" x1="1001.53" y1="-166.72" x2="924.97" y2="-185.7"/>
	<circle class="st1" cx="1001.53" cy="-166.74" r="25.98"/>
	<circle class="st1" cx="924.72" cy="-185.72" r="25.98"/>
</g>
<g>
	<circle class="st0" cx="1070.7" cy="44.06" r="35.6"/>
	<g>
		<circle class="st3" cx="1056.93" cy="37.02" r="1.69"/>
		<circle class="st3" cx="1084.46" cy="37.02" r="1.69"/>
	</g>
	<path class="st0" d="M1058.21,52.02c6.9,6.9,18.07,6.9,24.98,0"/>
</g>
<g>
	<line class="st0" x1="1310.25" y1="8.13" x2="1310.25" y2="79.98"/>
	<line class="st0" x1="1239.94" y1="44.06" x2="1189.02" y2="44.06"/>
	<line class="st0" x1="1349.86" y1="44.06" x2="1298.94" y2="44.06"/>
	<rect x="1220.54" y="24.8" class="st1" width="89.71" height="38.51"/>
	<line class="st0" x1="1348.24" y1="28.3" x2="1348.24" y2="59.82"/>
	<line class="st0" x1="1261.76" y1="25.55" x2="1261.76" y2="40.5"/>
	<line class="st0" x1="1275.39" y1="26.76" x2="1275.39" y2="48.18"/>
</g>
<circle class="st1" cx="3914.82" cy="47.37" r="35.26"/>
<g>
	<rect x="1439.68" y="1.21" class="st1" width="70.6" height="50.69"/>
	<line class="st1" x1="1439.68" y1="-6.52" x2="1439.68" y2="82.87"/>
	<rect x="1439.68" y="26.55" class="st1" width="70.6" height="25.35"/>
	<rect x="1439.68" y="1.21" class="st1" width="25.35" height="25.35"/>
</g>
<g transform="translate(0,-952.36218)">
	<path class="st1" d="M1648.62,1022.41c0,18.4,13.01,33.32,29.05,33.32s29.05-14.92,29.05-33.32c0-18.4-13.96-38.93-29.05-56.24
		C1677.67,966.17,1648.62,999.19,1648.62,1022.41z"/>
</g>
<g>
	<polyline class="st1" points="1825.61,44.48 1870.34,-0.26 1915.07,44.48 	"/>
	<path class="st1" d="M1870.34,36.72"/>
	<polygon class="st1" points="1900.63,88.38 1840.05,88.38 1840.05,30.06 1870.34,-0.26 1900.63,30.06 	"/>
	<polyline class="st0" points="1857.22,88.38 1857.22,53.02 1883.46,53.02 1883.46,88.38 	"/>
</g>
<g>
	<circle class="st1" cx="3310.59" cy="49.6" r="35.29"/>
	<polyline class="st1" points="3297.03,49.22 3305.21,59.03 3324.15,40.18 	"/>
</g>
<g>
	<g>
		<g>
			<rect x="2051.13" y="18.8" class="st0" width="69.54" height="69.54"/>
			<g>
				<line class="st1" x1="2066.05" y1="8.01" x2="2066.05" y2="29.6"/>
				<line class="st1" x1="2105.75" y1="8.01" x2="2105.75" y2="29.6"/>
			</g>
		</g>
		<line class="st1" x1="2051.13" y1="41.51" x2="2120.67" y2="41.51"/>
	</g>
	<g>
		<path class="st4" d="M2086.5,53.75v4.07l-6.81,5.54v0.42h0.91c3.4,0,6.46,2.35,6.46,6.81c0,4.98-3.79,8.21-9.26,8.21
			c-5.86,0-9.4-3.47-9.4-8.35v-0.98h4.63v0.84c0,2.39,1.65,4.35,4.77,4.35c2.91,0,4.63-1.72,4.63-4.07s-1.65-3.51-4-3.51h-4.28
			v-4.14l6.07-4.98h-11.12v-4.21H2086.5z"/>
		<path class="st4" d="M2101.87,53.75v24.56h-4.63V58.67h-0.42l-3.44,6.18h-4.84l6.32-11.09H2101.87z"/>
	</g>
</g>
<g>
	<g>
		<circle class="st1" cx="2288.23" cy="53.53" r="34.11"/>
		<g>
			<path class="st1" d="M2282.76,20.17c-15.63,19.6-15.53,47.58,0.29,67.07"/>
			<path class="st1" d="M2294.65,20.17c15.48,19.42,15.53,47.05,0.16,66.52"/>
		</g>
		<line class="st1" x1="2254.13" y1="53.53" x2="2322.34" y2="53.53"/>
		<line class="st1" x1="2288.7" y1="19.62" x2="2288.7" y2="87.44"/>
	</g>
</g>
<g>
	<circle class="st1" cx="2480.7" cy="30.67" r="22.82"/>
	<line class="st1" x1="2480.7" y1="53.49" x2="2480.7" y2="96.83"/>
	<line class="st1" x1="2462.6" y1="72.68" x2="2498.8" y2="72.68"/>
</g>
<g>
	<circle class="st1" cx="2693.17" cy="40.43" r="22.82"/>
	<line class="st1" x1="2709.39" y1="23.74" x2="2749.02" y2="-15.89"/>
	<polyline class="st0" points="2722.6,-15.89 2749.02,-15.89 2749.02,10.53 	"/>
</g>
<path class="st1" d="M2946.95,56.95V44.91l-36.59-13.14l0.48-18.57c0.09-2.9-1.09-5.69-3.23-7.65l0,0
	c-3.79-3.47-9.61-3.48-13.41-0.01l-0.01,0.01c-2.15,1.96-3.34,4.76-3.24,7.66l0.48,18.55l-33.67,12.17v12.04l34.33-6.35l1.48,23.62
	l-12.3,10.06v8.46l20.03-9.74l20.03,9.74V83.3l-13.09-10.58l1.45-22.86L2946.95,56.95z"/>
<g>
	<g>
		<g>
			<g>
				<g>
					<g>
						<rect x="4291.19" y="28.31" class="st2" width="79.95" height="61.47"/>
						<rect x="4291.19" y="28.31" class="st0" width="79.95" height="61.47"/>
					</g>
				</g>
			</g>
		</g>
		<path class="st1" d="M4350.29,77.59h-38.24c-4.08,0-7.39-3.31-7.39-7.39V47.89c0-4.08,3.31-7.39,7.39-7.39h38.24
			c4.08,0,7.39,3.31,7.39,7.39V70.2C4357.68,74.28,4354.37,77.59,4350.29,77.59z"/>
		<g>
			<line class="st1" x1="4305.58" y1="1.86" x2="4331.75" y2="28.03"/>
			<line class="st1" x1="4356.75" y1="1.86" x2="4330.58" y2="28.03"/>
		</g>
	</g>
</g>
<g>
	<polygon class="st1" points="3138.92,92.24 3074.03,92.24 3074.03,4.12 3116.93,4.12 3127.93,15.11 3138.92,26.11 	"/>
	<polyline class="st1" points="3116.93,4.12 3116.93,25.65 3138.92,25.65 	"/>
</g>
<g>
	
		<rect x="3698.76" y="32.53" transform="matrix(-1.836970e-16 1 -1 -1.836970e-16 3759.3962 -3650.511)" class="st1" width="12.39" height="43.82"/>
	<rect x="3681.82" y="3.82" class="st1" width="12.39" height="88.26"/>
	<rect x="3720.24" y="48.25" class="st1" width="12.39" height="43.82"/>
</g>
<g>
	<g>
		<polygon class="st1" points="3547.24,89.66 3482.18,89.66 3482.18,1.31 3525.19,1.31 3536.21,12.34 3547.24,23.36 		"/>
		<polyline class="st1" points="3525.19,1.31 3525.19,22.9 3547.24,22.9 		"/>
	</g>
	<line class="st1" x1="3497.87" y1="43.13" x2="3529.88" y2="43.13"/>
	<line class="st1" x1="3497.6" y1="56.37" x2="3529.61" y2="56.37"/>
	<line class="st1" x1="3497.6" y1="69.62" x2="3529.61" y2="69.62"/>
</g>
<g>
	<g>
		<path class="st4" d="M3924.84,52.45v0.37c0,4.38-3.02,7.11-7.37,7.77v3.94h-4.42v-3.9c-5.08-0.7-8.25-3.98-8.25-9.28v-0.81h4.86
			v0.59c0,2.39,1.07,4.13,3.39,4.79v-7c-4.68-1.14-7.29-3.13-7.29-7.37v-0.22c0-4.02,3.09-6.67,7.29-7.26v-3.87h4.42v4.01
			c4.16,0.81,7,3.65,7,7.92v1.11h-4.86v-0.74c0-1.84-0.77-2.95-2.14-3.54v6.15C3922.22,46.27,3924.84,48.25,3924.84,52.45z
			 M3913.05,44.13v-5.38c-1.47,0.44-2.36,1.44-2.36,2.65C3910.69,42.91,3911.61,43.61,3913.05,44.13z M3919.9,52.82
			c0-1.47-0.85-2.28-2.43-2.84v5.93C3919.09,55.36,3919.9,54.15,3919.9,52.82z"/>
	</g>
</g>
<g>
	<circle class="st5" cx="6756" cy="-212.68" r="35.69"/>
	<g>
		<circle class="st6" cx="6742.2" cy="-219.74" r="1.7"/>
		<circle class="st6" cx="6769.8" cy="-219.74" r="1.7"/>
	</g>
	<path class="st7" d="M6743.48-204.7c6.92,6.92,18.12,6.92,25.04,0"/>
</g>
<g>
	<circle class="st5" cx="6819.86" cy="-212.68" r="35.69"/>
	<g>
		<circle class="st6" cx="6806.06" cy="-219.74" r="1.7"/>
		<circle class="st6" cx="6833.66" cy="-219.74" r="1.7"/>
	</g>
	<path class="st7" d="M6807.34-204.7c6.92,6.92,18.12,6.92,25.04,0"/>
</g>
<g>
	<circle class="st5" cx="6883.72" cy="-212.68" r="35.69"/>
	<g>
		<circle class="st6" cx="6869.92" cy="-219.74" r="1.7"/>
		<circle class="st6" cx="6897.52" cy="-219.74" r="1.7"/>
	</g>
	<path class="st7" d="M6871.2-204.7c6.92,6.92,18.12,6.92,25.04,0"/>
</g>
<polygon class="st1" points="4134.96,66.94 4152.92,84.57 4152.92,66.94 4170.56,66.94 4152.92,48.98 4170.56,31.01 4152.92,31.01 
	4152.92,13.38 4134.96,31.01 4117,13.38 4117,31.01 4099.36,31.01 4117,48.98 4099.36,66.94 4117,66.94 4117,84.57 "/>
<path class="st0" d="M7174.96,24.7c-19.42-11.08-39.69,1.39-38.74,22.03c1.04,22.68,19.59,51.75,37.54,44.64
	c2.43-0.97,5.14-0.97,7.57,0c17.94,7.11,36.49-21.97,37.54-44.64c0.95-20.59-19.24-33.06-38.63-22.09L7174.96,24.7z"/>
<path class="st0" d="M7184.65,3.42c-8.08,8.08-9.27,20.42-3.57,29.75"/>
<path class="st0" d="M7390.07,7.43c-15.65,1.49-19.56,16.36-22.4,32.85c-0.54,3.15-2.3,6.02-4.34,9.34
	c-3.7,6.02-8.29,13.51-5.89,25.26c1.08,5.52,4.51,10.3,9.39,13.1c6.38,3.78,15.19,4.62,22.99,2.21c1.59-0.51,3.3-0.44,4.84,0.2
	c3.02,1.27,6.28,1.91,9.56,1.88c3.96,0.01,7.88-0.85,11.47-2.52c6.07-2.82,10.57-8.21,12.26-14.69c3.27-11.72-1.68-19.37-5.65-25.52
	c-2.06-3.18-4-6.18-4.53-9.27c-2.83-16.42-6.72-31.25-22.22-32.84L7390.07,7.43z"/>
<path class="st0" d="M7398.83-9.45c-8.32,8.32-10.13,20.68-5.43,30.75"/>
<g>
	<rect x="5914.51" y="12.35" class="st1" width="99.16" height="71.2"/>
	<rect x="5914.51" y="47.95" class="st8" width="99.16" height="35.6"/>
	<rect x="5914.51" y="12.35" class="st9" width="35.6" height="35.6"/>
</g>
<polygon class="st1" points="7004.09,85.05 6953.05,92.73 6953.05,3.86 7004.09,-3.82 "/>
<rect x="6953.05" y="4.82" class="st1" width="63.23" height="88.87"/>
<g>
	<polygon class="st0" points="6351.96,98.59 6351.96,109.75 6340.81,98.59 6320.89,98.59 6320.89,8.31 6416.96,8.31 6416.96,98.59 	
		"/>
</g>
<g>
	<g>
		<circle class="st0" cx="6143.68" cy="35.71" r="20.4"/>
		<line class="st0" x1="6158.73" y1="50.76" x2="6166.46" y2="58.49"/>
	</g>
	
		<rect x="6172.5" y="53.4" transform="matrix(0.7071 -0.7071 0.7071 0.7071 1759.7905 4389.1821)" class="st0" width="11.21" height="33.86"/>
</g>
<g>
	<path class="st0" d="M5759.04,41.46c-0.63,4.55-2.69,8.93-6.18,12.43c-8.52,8.52-22.33,8.52-30.85,0c-8.52-8.52-8.52-22.33,0-30.85
		c8.52-8.52,22.33-8.52,30.85,0C5757.88,28.06,5759.94,34.93,5759.04,41.46"/>
	<polyline class="st0" points="5760.04,41.3 5793.29,79.53 5779.82,93 5741.59,59.76 	"/>
	<line class="st0" x1="5786.03" y1="86.8" x2="5804.33" y2="105.1"/>
	<line class="st0" x1="5722.01" y1="53.89" x2="5752.07" y2="23.83"/>
</g>
<g>
	<rect x="6543.79" y="3.62" class="st0" width="65.29" height="88.66"/>
	<g>
		<polyline class="st0" points="6556.28,26.61 6562.16,30.91 6569.56,19.2 		"/>
		<polyline class="st0" points="6583.3,50.26 6589.19,54.56 6596.58,42.85 		"/>
		<g>
			<line class="st0" x1="6596.36" y1="20.37" x2="6583.53" y2="33.2"/>
			<line class="st0" x1="6583.53" y1="20.37" x2="6596.36" y2="33.2"/>
		</g>
		<g>
			<line class="st0" x1="6569.33" y1="63.87" x2="6556.51" y2="76.7"/>
			<line class="st0" x1="6556.51" y1="63.87" x2="6569.33" y2="76.7"/>
		</g>
		<line class="st0" x1="6557.07" y1="48.71" x2="6568.77" y2="48.71"/>
		<line class="st0" x1="6584.1" y1="70.28" x2="6595.79" y2="70.28"/>
	</g>
</g>
<polygon class="st0" points="5555.86,15.19 5567.42,38.63 5593.29,42.39 5574.57,60.63 5578.99,86.39 5555.86,74.23 5532.72,86.39 
	5537.14,60.63 5518.43,42.39 5544.29,38.63 "/>
<g>
	<rect x="5293.68" y="23.18" class="st0" width="116.13" height="71.69"/>
	<polyline class="st0" points="5293.78,23.18 5352.55,59.03 5409.7,23.18 	"/>
</g>
<g>
	<g>
		<polygon class="st0" points="5137.08,94.72 5071.67,94.72 5071.67,5.91 5114.91,5.91 5125.99,16.99 5137.08,28.07 		"/>
		<polyline class="st0" points="5114.91,5.91 5114.91,27.61 5137.08,27.61 		"/>
	</g>
	<line class="st0" x1="5087.46" y1="47.95" x2="5119.63" y2="47.95"/>
	<line class="st10" x1="5087.18" y1="61.26" x2="5119.35" y2="61.26"/>
	<line class="st10" x1="5087.18" y1="74.57" x2="5119.35" y2="74.57"/>
</g>
<g>
	<g>
		<polygon class="st0" points="5223.58,94.72 5158.17,94.72 5158.17,5.91 5201.41,5.91 5212.5,16.99 5223.58,28.07 		"/>
		<polyline class="st0" points="5201.41,5.91 5201.41,27.61 5223.58,27.61 		"/>
	</g>
	<line class="st0" x1="5173.96" y1="47.95" x2="5206.13" y2="47.95"/>
	<line class="st10" x1="5173.68" y1="61.26" x2="5205.86" y2="61.26"/>
	<line class="st10" x1="5173.68" y1="74.57" x2="5205.86" y2="74.57"/>
</g>
<polyline class="st0" points="5175.77,25.68 5181.67,29.98 5189.08,18.25 "/>
<g>
	<line class="st0" x1="5101" y1="17.69" x2="5088.15" y2="30.54"/>
	<line class="st0" x1="5088.15" y1="17.69" x2="5101" y2="30.54"/>
</g>
<g>
	<g>
		<g>
			<polygon class="st0" points="4905.62,84.89 4970.03,84.89 4970.03,-3.9 4927.45,-3.9 4916.54,7.19 4905.62,18.27 			"/>
			<polyline class="st0" points="4927.45,-3.9 4927.45,17.8 4905.62,17.8 			"/>
		</g>
	</g>
</g>
<g>
	<g>
		<circle class="st1" cx="4958.61" cy="33.13" r="20.88"/>
		<line class="st1" x1="4974.02" y1="48.54" x2="4981.93" y2="56.45"/>
	</g>
	
		<rect x="4988.11" y="51.24" transform="matrix(0.7071 -0.7071 0.7071 0.7071 1414.1744 3551.2737)" class="st1" width="11.48" height="34.67"/>
</g>
<g>
	<path class="st0" d="M4797.79,51.08c0,0-17.48,41.31-58.39,41.31S4681,51.08,4681,51.08v-0.77c0,0,12.46-21.34,25.4-27.36
		c12.94-6.02,32.99,4.23,32.99,4.23l0,0c0,0,19.92-10.25,32.87-4.23c12.94,6.02,25.4,27.36,25.4,27.36L4797.79,51.08z"/>
	<path class="st0" d="M4681,50.31c0,0,48.67,12.89,116.79,0.77"/>
</g>
<g>
	<path class="st0" d="M4580.07,55.31c0,0-17.47,35.88-58.34,35.88c-40.87,0-58.34-35.88-58.34-35.88s17.47-35.88,58.34-35.88
		C4562.6,19.43,4580.07,55.31,4580.07,55.31z"/>
	<circle class="st0" cx="4521.73" cy="54.33" r="17.39"/>
</g>
<g>
	<circle class="st5" cx="7597.01" cy="52.89" r="35.69"/>
	<g>
		<circle class="st6" cx="7583.21" cy="45.83" r="1.7"/>
		<circle class="st6" cx="7610.81" cy="45.83" r="1.7"/>
	</g>
	<path class="st7" d="M7584.49,60.87c6.92,6.92,18.12,6.92,25.04,0"/>
</g>
<g>
	<circle class="st1" cx="7808.53" cy="27.94" r="22.82"/>
	<line class="st1" x1="7808.53" y1="50.76" x2="7808.53" y2="94.09"/>
	<line class="st1" x1="7790.43" y1="69.94" x2="7826.63" y2="69.94"/>
</g>
<g>
	<circle class="st1" cx="7986.39" cy="69.65" r="22.82"/>
	<line class="st1" x1="8002.6" y1="52.96" x2="8042.24" y2="13.32"/>
	<polyline class="st0" points="8015.81,13.32 8042.24,13.32 8042.24,39.74 	"/>
</g>
</svg>
