<?xml version="1.0" encoding="utf-8"?>
<!-- Generator: Adobe Illustrator 24.2.0, SVG Export Plug-In . SVG Version: 6.00 Build 0)  -->
<svg version="1.1" id="Capa_1" xmlns="http://www.w3.org/2000/svg" xmlns:xlink="http://www.w3.org/1999/xlink" x="0px" y="0px"
	 viewBox="0 0 171.64 81.67" style="enable-background:new 0 0 171.64 81.67;" xml:space="preserve">
<style type="text/css">
	.st0{fill:none;stroke:#000000;stroke-width:6.5;stroke-miterlimit:10;}
	.st1{fill:#FFFFFF;stroke:#000000;stroke-width:6.5;stroke-miterlimit:10;}
	.st2{fill:#FFFFFF;}
	.st3{stroke:#000000;stroke-width:6.5;stroke-miterlimit:10;}
	.st4{fill:#1D1D1B;}
	.st5{fill:#FFFFFF;stroke:#1D1D1B;stroke-width:6.5;stroke-miterlimit:10;}
	.st6{fill:#1D1D1B;stroke:#1D1D1B;stroke-width:6.5;stroke-miterlimit:10;}
	.st7{fill:none;stroke:#1D1D1B;stroke-width:6.5;stroke-miterlimit:10;}
	.st8{fill:#FC5439;stroke:#000000;stroke-width:6.5;stroke-miterlimit:10;}
	.st9{fill:#3A90FD;stroke:#000000;stroke-width:6.5;stroke-miterlimit:10;}
	.st10{fill:#F1CD08;stroke:#000000;stroke-width:6.5;stroke-miterlimit:10;}
</style>
<g>
	<path class="st0" d="M-959.65,82.49V8.16c0-4.23,3.43-7.65,7.65-7.65h54.6v77.9"/>
	<path class="st0" d="M-936.09,89.24h38.68V75.75h-55.51c-3.72,0-6.74,3.02-6.74,6.74v0c0,3.72,3.02,6.74,6.74,6.74h1.52"/>
	<rect x="-941.99" y="21.27" class="st0" width="26.92" height="15.7"/>
	<polygon class="st0" points="-938.27,102.39 -943.53,107.69 -948.79,102.39 -948.79,85.43 -938.27,85.43 	"/>
</g>
<polygon class="st0" points="-1290.36,45.12 -1326.03,9.44 -1326.03,24.95 -1383.16,24.95 -1383.16,66.68 -1326.03,66.68 
	-1326.03,80.79 "/>
<g>
	<polyline class="st0" points="-1117.43,18.5 -1093.79,18.5 -1093.79,89.7 -1170.65,89.7 -1170.65,18.5 -1140.52,18.5 	"/>
	<polygon class="st0" points="-1135.16,30.31 -1143.74,21.73 -1122.55,0.54 -1111.01,12.08 -1129.24,30.31 	"/>
	<polyline class="st0" points="-1145.11,30.31 -1135.16,30.31 -1129.24,30.31 -1119.32,30.31 	"/>
</g>
<g>
	<polygon class="st0" points="-1505.58,-9.18 -1581.6,42.38 -1589.33,61.78 -1568.44,61.78 -1492.42,10.22 	"/>
	<line class="st0" x1="-1581.6" y1="42.38" x2="-1568.44" y2="61.78"/>
</g>
<g>
	<g>
		<path class="st1" d="M-719.76,78.07h24.01c19.62,0,35.53-15.91,35.53-35.53v0c0-19.62-15.91-35.53-35.53-35.53l-3.72,0h-78.89
			c-4.91,0-8.88,3.98-8.88,8.88v0c0,4.91,3.98,8.88,8.88,8.88h68.05v0"/>
		<path class="st1" d="M-710.32,24.79h-21.1c-4.91,0-8.88,3.98-8.88,8.88v0c0,4.91,3.98,8.88,8.88,8.88h19.4h1.7
			c4.91,0,8.88-3.98,8.88-8.88v0C-701.44,28.76-705.42,24.79-710.32,24.79z"/>
		<path class="st1" d="M-709.69,42.55h-21.1c-4.91,0-8.88,3.98-8.88,8.88v0c0,4.91,3.98,8.88,8.88,8.88h19.4h1.7
			c4.91,0,8.88-3.98,8.88-8.88v0C-700.8,46.53-704.78,42.55-709.69,42.55z"/>
		<path class="st1" d="M-709.69,60.31h-21.1c-4.91,0-8.88,3.98-8.88,8.88v0c0,4.91,3.98,8.88,8.88,8.88h19.4h1.7
			c4.91,0,8.88-3.98,8.88-8.88v0C-700.8,64.29-704.78,60.31-709.69,60.31z"/>
	</g>
	<path class="st1" d="M-696.24,8.9l-11.69,23.48c-2.15,4.41-0.32,9.73,4.09,11.88v0c4.41,2.15,9.73,0.32,11.88-4.09l8.54-17.14"/>
</g>
<g>
	<ellipse class="st2" cx="-514.51" cy="48.13" rx="28.07" ry="18.08"/>
	<g>
		<path class="st1" d="M-495.14,43.39V28.76c0-3.72,3.01-6.73,6.73-6.73h0c3.72,0,6.73,3.01,6.73,6.73v22.75
			c0,18.59-15.07,33.66-33.66,33.66h0c-18.59,0-33.66-15.07-33.66-33.66V28.4l0,0c7.43,0,13.45,6.02,13.45,13.45v8.75l0,0
			c7.42,0,13.44,6.02,13.44,13.44v0.83"/>
		<path class="st1" d="M-495.21,43.39V10.62c0-3.72-3.01-6.73-6.73-6.73h0c-3.72,0-6.73,3.01-6.73,6.73v25.15"/>
		<path class="st1" d="M-508.66,39.57V3.8c0-3.72-3.01-6.73-6.73-6.73l0,0c-3.72,0-6.73,3.01-6.73,6.73v25.15"/>
		<path class="st1" d="M-522.12,38.78V9.01c0-3.72-3.01-6.73-6.73-6.73l0,0c-3.72,0-6.73,3.01-6.73,6.73V46.8"/>
	</g>
</g>
<g>
	<line class="st0" x1="-329.23" y1="-171.23" x2="-252.67" y2="-190.2"/>
	<circle class="st1" cx="-329.23" cy="-171.23" r="25.98"/>
	<line class="st0" x1="-175.87" y1="-171.21" x2="-252.42" y2="-190.19"/>
	<circle class="st1" cx="-175.87" cy="-171.23" r="25.98"/>
	<circle class="st1" cx="-252.67" cy="-190.2" r="25.98"/>
</g>
<g>
	<circle class="st0" cx="-106.7" cy="39.57" r="35.6"/>
	<g>
		<circle class="st3" cx="-120.47" cy="32.53" r="1.69"/>
		<circle class="st3" cx="-92.93" cy="32.53" r="1.69"/>
	</g>
	<path class="st0" d="M-119.19,47.53c6.9,6.9,18.07,6.9,24.98,0"/>
</g>
<g>
	<line class="st0" x1="126.11" y1="6.93" x2="126.11" y2="78.78"/>
	<line class="st0" x1="55.8" y1="42.85" x2="4.88" y2="42.85"/>
	<line class="st0" x1="165.72" y1="42.85" x2="114.8" y2="42.85"/>
	<rect x="36.4" y="23.59" class="st1" width="89.71" height="38.51"/>
	<line class="st0" x1="164.1" y1="27.09" x2="164.1" y2="58.61"/>
	<line class="st0" x1="77.62" y1="24.34" x2="77.62" y2="39.29"/>
	<line class="st0" x1="91.25" y1="25.55" x2="91.25" y2="46.97"/>
</g>
<circle class="st1" cx="2737.43" cy="42.88" r="35.26"/>
<g>
	<rect x="262.29" y="-3.28" class="st1" width="70.6" height="50.69"/>
	<line class="st1" x1="262.29" y1="-11.01" x2="262.29" y2="78.38"/>
	<rect x="262.29" y="22.07" class="st1" width="70.6" height="25.35"/>
	<rect x="262.29" y="-3.28" class="st1" width="25.35" height="25.35"/>
</g>
<g transform="translate(0,-952.36218)">
	<path class="st1" d="M471.23,1017.92c0,18.4,13.01,33.32,29.05,33.32c16.03,0,29.05-14.92,29.05-33.32
		c0-18.4-13.96-38.93-29.05-56.24C500.28,961.68,471.23,994.7,471.23,1017.92z"/>
</g>
<g>
	<polyline class="st1" points="648.21,39.99 692.95,-4.75 737.68,39.99 	"/>
	<path class="st1" d="M692.95,32.24"/>
	<polygon class="st1" points="723.24,83.89 662.66,83.89 662.66,25.58 692.95,-4.75 723.24,25.58 	"/>
	<polyline class="st0" points="679.83,83.89 679.83,48.54 706.07,48.54 706.07,83.89 	"/>
</g>
<g>
	<circle class="st1" cx="2133.2" cy="45.12" r="35.29"/>
	<polyline class="st1" points="2119.64,44.73 2127.82,54.54 2146.76,35.69 	"/>
</g>
<g>
	<g>
		<g>
			<rect x="873.74" y="14.32" class="st0" width="69.54" height="69.54"/>
			<g>
				<line class="st1" x1="888.65" y1="3.52" x2="888.65" y2="25.11"/>
				<line class="st1" x1="928.36" y1="3.52" x2="928.36" y2="25.11"/>
			</g>
		</g>
		<line class="st1" x1="873.74" y1="37.02" x2="943.28" y2="37.02"/>
	</g>
	<g>
		<path class="st4" d="M909.11,49.26v4.07l-6.81,5.54v0.42h0.91c3.4,0,6.46,2.35,6.46,6.81c0,4.98-3.79,8.21-9.26,8.21
			c-5.86,0-9.4-3.47-9.4-8.35v-0.98h4.63v0.84c0,2.39,1.65,4.35,4.77,4.35c2.91,0,4.63-1.72,4.63-4.07c0-2.35-1.65-3.51-4-3.51
			h-4.28v-4.14l6.07-4.98H891.7v-4.21H909.11z"/>
		<path class="st4" d="M924.48,49.26v24.56h-4.63V54.18h-0.42l-3.44,6.18h-4.84l6.32-11.09H924.48z"/>
	</g>
</g>
<g>
	<g>
		<circle class="st1" cx="1110.84" cy="49.04" r="34.11"/>
		<g>
			<path class="st1" d="M1105.36,15.68c-15.63,19.6-15.53,47.58,0.29,67.07"/>
			<path class="st1" d="M1117.25,15.68c15.48,19.42,15.53,47.05,0.16,66.52"/>
		</g>
		<line class="st1" x1="1076.73" y1="49.04" x2="1144.95" y2="49.04"/>
		<line class="st1" x1="1111.31" y1="15.13" x2="1111.31" y2="82.95"/>
	</g>
</g>
<g>
	<circle class="st1" cx="1303.31" cy="26.18" r="22.82"/>
	<line class="st1" x1="1303.31" y1="49" x2="1303.31" y2="92.34"/>
	<line class="st1" x1="1285.21" y1="68.19" x2="1321.41" y2="68.19"/>
</g>
<g>
	<circle class="st1" cx="1515.78" cy="35.95" r="22.82"/>
	<line class="st1" x1="1532" y1="19.26" x2="1571.63" y2="-20.38"/>
	<polyline class="st0" points="1545.21,-20.38 1571.63,-20.38 1571.63,6.04 	"/>
</g>
<path class="st1" d="M1769.56,52.46V40.42l-36.59-13.14l0.48-18.57c0.09-2.9-1.09-5.69-3.23-7.65v0c-3.79-3.47-9.61-3.48-13.41-0.01
	l-0.01,0.01c-2.15,1.96-3.34,4.76-3.24,7.66l0.48,18.55l-33.67,12.17v12.04l34.33-6.35l1.48,23.62l-12.3,10.06v8.46l20.03-9.74
	l20.03,9.74v-8.46l-13.09-10.58l1.45-22.86L1769.56,52.46z"/>
<g>
	<g>
		<g>
			<g>
				<g>
					<g>
						<rect x="3113.8" y="23.82" class="st2" width="79.95" height="61.47"/>
						<rect x="3113.8" y="23.82" class="st0" width="79.95" height="61.47"/>
					</g>
				</g>
			</g>
		</g>
		<path class="st1" d="M3172.89,73.1h-38.24c-4.08,0-7.39-3.31-7.39-7.39V43.4c0-4.08,3.31-7.39,7.39-7.39h38.24
			c4.08,0,7.39,3.31,7.39,7.39v22.31C3180.29,69.79,3176.98,73.1,3172.89,73.1z"/>
		<g>
			<line class="st1" x1="3128.19" y1="-2.63" x2="3154.36" y2="23.54"/>
			<line class="st1" x1="3179.36" y1="-2.63" x2="3153.19" y2="23.54"/>
		</g>
	</g>
</g>
<g>
	<polygon class="st1" points="1961.53,87.75 1896.64,87.75 1896.64,-0.37 1939.54,-0.37 1950.53,10.62 1961.53,21.62 	"/>
	<polyline class="st1" points="1939.54,-0.37 1939.54,21.16 1961.53,21.16 	"/>
</g>
<g>
	
		<rect x="2521.36" y="28.04" transform="matrix(-1.836970e-16 1 -1 -1.836970e-16 2577.5146 -2477.6067)" class="st1" width="12.39" height="43.82"/>
	<rect x="2504.43" y="-0.67" class="st1" width="12.39" height="88.26"/>
	<rect x="2542.84" y="43.76" class="st1" width="12.39" height="43.82"/>
</g>
<g>
	<g>
		<polygon class="st1" points="2369.84,85.17 2304.78,85.17 2304.78,-3.18 2347.79,-3.18 2358.82,7.85 2369.84,18.87 		"/>
		<polyline class="st1" points="2347.79,-3.18 2347.79,18.42 2369.84,18.42 		"/>
	</g>
	<line class="st1" x1="2320.48" y1="38.64" x2="2352.49" y2="38.64"/>
	<line class="st1" x1="2320.21" y1="51.88" x2="2352.21" y2="51.88"/>
	<line class="st1" x1="2320.21" y1="65.13" x2="2352.21" y2="65.13"/>
</g>
<g>
	<g>
		<path class="st4" d="M2747.44,47.97v0.37c0,4.38-3.02,7.11-7.37,7.77v3.94h-4.42v-3.9c-5.08-0.7-8.25-3.98-8.25-9.28v-0.81h4.86
			v0.59c0,2.39,1.07,4.13,3.39,4.79v-7c-4.68-1.14-7.29-3.13-7.29-7.37v-0.22c0-4.02,3.09-6.67,7.29-7.26v-3.87h4.42v4.01
			c4.16,0.81,7,3.65,7,7.92v1.11h-4.86v-0.74c0-1.84-0.77-2.95-2.14-3.54v6.15C2744.83,41.78,2747.44,43.77,2747.44,47.97z
			 M2735.66,39.64v-5.38c-1.47,0.44-2.36,1.44-2.36,2.65C2733.3,38.43,2734.22,39.12,2735.66,39.64z M2742.51,48.33
			c0-1.47-0.85-2.28-2.43-2.84v5.93C2741.7,50.88,2742.51,49.66,2742.51,48.33z"/>
	</g>
</g>
<g>
	<circle class="st5" cx="5578.61" cy="-217.17" r="35.69"/>
	<g>
		<circle class="st6" cx="5564.81" cy="-224.23" r="1.7"/>
		<circle class="st6" cx="5592.41" cy="-224.23" r="1.7"/>
	</g>
	<path class="st7" d="M5566.09-209.19c6.92,6.92,18.12,6.92,25.04,0"/>
</g>
<g>
	<circle class="st5" cx="5642.47" cy="-217.17" r="35.69"/>
	<g>
		<circle class="st6" cx="5628.67" cy="-224.23" r="1.7"/>
		<circle class="st6" cx="5656.27" cy="-224.23" r="1.7"/>
	</g>
	<path class="st7" d="M5629.95-209.19c6.92,6.92,18.12,6.92,25.04,0"/>
</g>
<g>
	<circle class="st5" cx="5706.33" cy="-217.17" r="35.69"/>
	<g>
		<circle class="st6" cx="5692.53" cy="-224.23" r="1.7"/>
		<circle class="st6" cx="5720.13" cy="-224.23" r="1.7"/>
	</g>
	<path class="st7" d="M5693.81-209.19c6.92,6.92,18.12,6.92,25.04,0"/>
</g>
<polygon class="st1" points="2957.57,62.45 2975.53,80.09 2975.53,62.45 2993.17,62.45 2975.53,44.49 2993.17,26.53 2975.53,26.53 
	2975.53,8.89 2957.57,26.53 2939.6,8.89 2939.6,26.53 2921.97,26.53 2939.6,44.49 2921.97,62.45 2939.6,62.45 2939.6,80.09 "/>
<path class="st0" d="M5997.57,20.21c-19.42-11.08-39.69,1.39-38.74,22.03c1.05,22.68,19.59,51.75,37.54,44.64
	c2.43-0.97,5.14-0.97,7.57,0c17.95,7.11,36.5-21.97,37.54-44.64c0.95-20.59-19.24-33.06-38.63-22.09L5997.57,20.21z"/>
<path class="st0" d="M6007.26-1.06c-8.08,8.08-9.27,20.42-3.57,29.75"/>
<path class="st0" d="M6212.68,2.95c-15.65,1.49-19.56,16.36-22.4,32.85c-0.54,3.15-2.3,6.02-4.34,9.34
	c-3.7,6.02-8.29,13.51-5.89,25.26c1.08,5.52,4.51,10.3,9.39,13.1c6.38,3.78,15.19,4.62,22.99,2.21c1.59-0.51,3.3-0.44,4.84,0.2
	c3.02,1.27,6.28,1.91,9.56,1.88c3.96,0.01,7.88-0.85,11.47-2.52c6.07-2.82,10.57-8.21,12.26-14.69c3.27-11.72-1.68-19.37-5.65-25.52
	c-2.06-3.18-4-6.18-4.53-9.27c-2.83-16.42-6.72-31.25-22.22-32.84L6212.68,2.95z"/>
<path class="st0" d="M6221.44-13.93c-8.32,8.32-10.13,20.68-5.43,30.75"/>
<g>
	<rect x="4737.11" y="7.86" class="st1" width="99.16" height="71.2"/>
	<rect x="4737.11" y="43.46" class="st8" width="99.16" height="35.6"/>
	<rect x="4737.11" y="7.86" class="st9" width="35.6" height="35.6"/>
</g>
<polygon class="st1" points="5826.7,80.56 5775.66,88.24 5775.66,-0.63 5826.7,-8.31 "/>
<rect x="5775.66" y="0.34" class="st1" width="63.23" height="88.87"/>
<g>
	<polygon class="st0" points="5174.57,94.1 5174.57,105.26 5163.41,94.1 5143.49,94.1 5143.49,3.82 5239.56,3.82 5239.56,94.1 	"/>
</g>
<g>
	<g>
		<circle class="st0" cx="4966.29" cy="31.22" r="20.4"/>
		<line class="st0" x1="4981.34" y1="46.27" x2="4989.07" y2="54.01"/>
	</g>
	
		<rect x="4995.11" y="48.92" transform="matrix(0.7071 -0.7071 0.7071 0.7071 1418.1141 3555.325)" class="st0" width="11.21" height="33.86"/>
</g>
<g>
	<path class="st0" d="M4581.65,36.97c-0.63,4.55-2.69,8.93-6.18,12.43c-8.52,8.52-22.33,8.52-30.85,0s-8.52-22.33,0-30.85
		s22.33-8.52,30.85,0C4580.49,23.57,4582.55,30.44,4581.65,36.97"/>
	<polyline class="st0" points="4582.65,36.81 4615.9,75.05 4602.43,88.52 4564.19,55.27 	"/>
	<line class="st0" x1="4608.63" y1="82.31" x2="4626.93" y2="100.61"/>
	<line class="st0" x1="4544.61" y1="49.4" x2="4574.67" y2="19.34"/>
</g>
<g>
	<rect x="5366.4" y="-0.87" class="st0" width="65.29" height="88.66"/>
	<g>
		<polyline class="st0" points="5378.89,22.12 5384.77,26.42 5392.17,14.71 		"/>
		<polyline class="st0" points="5405.91,45.78 5411.79,50.07 5419.19,38.36 		"/>
		<g>
			<line class="st0" x1="5418.97" y1="15.89" x2="5406.14" y2="28.71"/>
			<line class="st0" x1="5406.14" y1="15.89" x2="5418.97" y2="28.71"/>
		</g>
		<g>
			<line class="st0" x1="5391.94" y1="59.38" x2="5379.11" y2="72.21"/>
			<line class="st0" x1="5379.11" y1="59.38" x2="5391.94" y2="72.21"/>
		</g>
		<line class="st0" x1="5379.68" y1="44.22" x2="5391.37" y2="44.22"/>
		<line class="st0" x1="5406.7" y1="65.79" x2="5418.4" y2="65.79"/>
	</g>
</g>
<polygon class="st0" points="4378.46,10.71 4390.03,34.14 4415.89,37.9 4397.18,56.14 4401.6,81.9 4378.46,69.74 4355.33,81.9 
	4359.75,56.14 4341.03,37.9 4366.9,34.14 "/>
<g>
	<rect x="4116.28" y="18.69" class="st0" width="116.13" height="71.69"/>
	<polyline class="st0" points="4116.39,18.69 4175.16,54.54 4232.31,18.69 	"/>
</g>
<g>
	<g>
		<polygon class="st0" points="3959.69,90.23 3894.28,90.23 3894.28,1.42 3937.52,1.42 3948.6,12.5 3959.69,23.59 		"/>
		<polyline class="st0" points="3937.52,1.42 3937.52,23.12 3959.69,23.12 		"/>
	</g>
	<line class="st0" x1="3910.06" y1="43.46" x2="3942.24" y2="43.46"/>
	<line class="st10" x1="3909.78" y1="56.77" x2="3941.96" y2="56.77"/>
	<line class="st10" x1="3909.78" y1="70.09" x2="3941.96" y2="70.09"/>
</g>
<g>
	<g>
		<polygon class="st0" points="4046.19,90.23 3980.78,90.23 3980.78,1.42 4024.02,1.42 4035.1,12.5 4046.19,23.59 		"/>
		<polyline class="st0" points="4024.02,1.42 4024.02,23.12 4046.19,23.12 		"/>
	</g>
	<line class="st0" x1="3996.56" y1="43.46" x2="4028.74" y2="43.46"/>
	<line class="st10" x1="3996.29" y1="56.77" x2="4028.46" y2="56.77"/>
	<line class="st10" x1="3996.29" y1="70.09" x2="4028.46" y2="70.09"/>
</g>
<polyline class="st0" points="3998.38,21.19 4004.27,25.49 4011.69,13.76 "/>
<g>
	<line class="st0" x1="3923.61" y1="13.2" x2="3910.75" y2="26.05"/>
	<line class="st0" x1="3910.75" y1="13.2" x2="3923.61" y2="26.05"/>
</g>
<g>
	<g>
		<g>
			<polygon class="st0" points="3728.23,80.4 3792.64,80.4 3792.64,-8.38 3750.06,-8.38 3739.15,2.7 3728.23,13.78 			"/>
			<polyline class="st0" points="3750.06,-8.38 3750.06,13.31 3728.23,13.31 			"/>
		</g>
	</g>
</g>
<g>
	<g>
		<circle class="st1" cx="3781.22" cy="28.64" r="20.88"/>
		<line class="st1" x1="3796.62" y1="44.05" x2="3804.54" y2="51.97"/>
	</g>
	
		<rect x="3810.72" y="46.75" transform="matrix(0.7071 -0.7071 0.7071 0.7071 1072.4979 2717.4165)" class="st1" width="11.48" height="34.67"/>
</g>
<g>
	<path class="st0" d="M3620.4,46.6c0,0-17.49,41.31-58.39,41.31s-58.39-41.31-58.39-41.31v-0.77c0,0,12.46-21.34,25.4-27.36
		c12.94-6.02,32.99,4.23,32.99,4.23l0,0c0,0,19.92-10.25,32.87-4.23c12.94,6.02,25.4,27.36,25.4,27.36L3620.4,46.6z"/>
	<path class="st0" d="M3503.61,45.83c0,0,48.67,12.89,116.79,0.77"/>
</g>
<g>
	<path class="st0" d="M3402.68,50.83c0,0-17.47,35.88-58.34,35.88c-40.87,0-58.34-35.88-58.34-35.88s17.47-35.88,58.34-35.88
		C3385.21,14.94,3402.68,50.83,3402.68,50.83z"/>
	<circle class="st0" cx="3344.34" cy="49.84" r="17.39"/>
</g>
<g>
	<circle class="st5" cx="6419.61" cy="48.41" r="35.69"/>
	<g>
		<circle class="st6" cx="6405.81" cy="41.35" r="1.7"/>
		<circle class="st6" cx="6433.42" cy="41.35" r="1.7"/>
	</g>
	<path class="st7" d="M6407.09,56.38c6.92,6.92,18.12,6.92,25.04,0"/>
</g>
<g>
	<circle class="st1" cx="6631.14" cy="23.45" r="22.82"/>
	<line class="st1" x1="6631.14" y1="46.27" x2="6631.14" y2="89.6"/>
	<line class="st1" x1="6613.04" y1="65.46" x2="6649.23" y2="65.46"/>
</g>
<g>
	<circle class="st1" cx="6808.99" cy="65.16" r="22.82"/>
	<line class="st1" x1="6825.21" y1="48.47" x2="6864.84" y2="8.83"/>
	<polyline class="st0" points="6838.42,8.83 6864.84,8.83 6864.84,35.26 	"/>
</g>
</svg>
