<?xml version="1.0" encoding="utf-8"?>
<!-- Generator: Adobe Illustrator 24.2.0, SVG Export Plug-In . SVG Version: 6.00 Build 0)  -->
<svg version="1.1" id="Capa_1" xmlns="http://www.w3.org/2000/svg" xmlns:xlink="http://www.w3.org/1999/xlink" x="0px" y="0px"
	 viewBox="0 0 81 77.77" style="enable-background:new 0 0 81 77.77;" xml:space="preserve">
<style type="text/css">
	.st0{fill:none;stroke:#000000;stroke-width:6.5;stroke-miterlimit:10;}
	.st1{fill:#FFFFFF;stroke:#000000;stroke-width:6.5;stroke-miterlimit:10;}
	.st2{fill:#FFFFFF;}
	.st3{stroke:#000000;stroke-width:6.5;stroke-miterlimit:10;}
	.st4{fill:#1D1D1B;}
	.st5{fill:#FFFFFF;stroke:#1D1D1B;stroke-width:6.5;stroke-miterlimit:10;}
	.st6{fill:#1D1D1B;stroke:#1D1D1B;stroke-width:6.5;stroke-miterlimit:10;}
	.st7{fill:none;stroke:#1D1D1B;stroke-width:6.5;stroke-miterlimit:10;}
	.st8{fill:#FC5439;stroke:#000000;stroke-width:6.5;stroke-miterlimit:10;}
	.st9{fill:#3A90FD;stroke:#000000;stroke-width:6.5;stroke-miterlimit:10;}
	.st10{fill:#F1CD08;stroke:#000000;stroke-width:6.5;stroke-miterlimit:10;}
</style>
<g>
	<path class="st0" d="M-2030.01,72.74V-1.6c0-4.23,3.43-7.65,7.65-7.65h54.6v77.9"/>
	<path class="st0" d="M-2006.44,79.48h38.68V65.99h-55.51c-3.72,0-6.74,3.02-6.74,6.74v0c0,3.72,3.02,6.74,6.74,6.74h1.52"/>
	<rect x="-2012.35" y="11.52" class="st0" width="26.92" height="15.7"/>
	<polygon class="st0" points="-2008.63,92.63 -2013.89,97.93 -2019.15,92.63 -2019.15,75.68 -2008.63,75.68 	"/>
</g>
<polygon class="st0" points="-2360.72,35.36 -2396.39,-0.31 -2396.39,15.19 -2453.51,15.19 -2453.51,56.92 -2396.39,56.92 
	-2396.39,71.03 "/>
<g>
	<polyline class="st0" points="-2187.78,8.74 -2164.14,8.74 -2164.14,79.94 -2241.01,79.94 -2241.01,8.74 -2210.87,8.74 	"/>
	<polygon class="st0" points="-2205.52,20.55 -2214.1,11.97 -2192.91,-9.22 -2181.36,2.32 -2199.59,20.55 	"/>
	<polyline class="st0" points="-2215.47,20.55 -2205.52,20.55 -2199.59,20.55 -2189.68,20.55 	"/>
</g>
<g>
	<polygon class="st0" points="-2575.94,-18.94 -2651.96,32.62 -2659.69,52.03 -2638.8,52.03 -2562.78,0.47 	"/>
	<line class="st0" x1="-2651.96" y1="32.62" x2="-2638.8" y2="52.03"/>
</g>
<g>
	<g>
		<path class="st1" d="M-1790.12,68.32h24.01c19.62,0,35.53-15.91,35.53-35.53v0c0-19.62-15.91-35.53-35.53-35.53l-3.72,0l-78.89,0
			c-4.91,0-8.88,3.98-8.88,8.88v0c0,4.91,3.98,8.88,8.88,8.88h68.05v0"/>
		<path class="st1" d="M-1780.68,15.03h-21.1c-4.91,0-8.88,3.98-8.88,8.88v0c0,4.91,3.98,8.88,8.88,8.88h19.4h1.7
			c4.91,0,8.88-3.98,8.88-8.88v0C-1771.8,19-1775.77,15.03-1780.68,15.03z"/>
		<path class="st1" d="M-1780.04,32.79h-21.1c-4.91,0-8.88,3.98-8.88,8.88v0c0,4.91,3.98,8.88,8.88,8.88h19.4h1.7
			c4.91,0,8.88-3.98,8.88-8.88v0C-1771.16,36.77-1775.14,32.79-1780.04,32.79z"/>
		<path class="st1" d="M-1780.04,50.55h-21.1c-4.91,0-8.88,3.98-8.88,8.88v0c0,4.91,3.98,8.88,8.88,8.88h19.4h1.7
			c4.91,0,8.88-3.98,8.88-8.88v0C-1771.16,54.53-1775.14,50.55-1780.04,50.55z"/>
	</g>
	<path class="st1" d="M-1766.59-0.86l-11.69,23.48c-2.15,4.41-0.32,9.73,4.09,11.88v0c4.41,2.15,9.73,0.32,11.88-4.09l8.54-17.14"/>
</g>
<g>
	<ellipse class="st2" cx="-1584.86" cy="38.37" rx="28.07" ry="18.08"/>
	<g>
		<path class="st1" d="M-1565.5,33.64V19.01c0-3.72,3.01-6.73,6.73-6.73l0,0c3.72,0,6.73,3.01,6.73,6.73v22.75
			c0,18.59-15.07,33.66-33.66,33.66l0,0c-18.59,0-33.66-15.07-33.66-33.66V18.65l0,0c7.43,0,13.45,6.02,13.45,13.45v8.75l0,0
			c7.42,0,13.44,6.02,13.44,13.44v0.83"/>
		<path class="st1" d="M-1565.57,33.64V0.87c0-3.72-3.01-6.73-6.73-6.73l0,0c-3.72,0-6.73,3.01-6.73,6.73v25.15"/>
		<path class="st1" d="M-1579.02,29.81V-5.96c0-3.72-3.01-6.73-6.73-6.73l0,0c-3.72,0-6.73,3.01-6.73,6.73v25.15"/>
		<path class="st1" d="M-1592.47,29.03V-0.74c0-3.72-3.01-6.73-6.73-6.73l0,0c-3.72,0-6.73,3.01-6.73,6.73v37.79"/>
	</g>
</g>
<g>
	<line class="st0" x1="-1399.58" y1="-180.98" x2="-1323.03" y2="-199.96"/>
	<circle class="st1" cx="-1399.58" cy="-180.98" r="25.98"/>
	<line class="st0" x1="-1246.22" y1="-180.97" x2="-1322.78" y2="-199.95"/>
	<circle class="st1" cx="-1246.22" cy="-180.98" r="25.98"/>
	<circle class="st1" cx="-1323.03" cy="-199.96" r="25.98"/>
</g>
<g>
	<circle class="st0" cx="-1177.05" cy="29.81" r="35.6"/>
	<g>
		<circle class="st3" cx="-1190.82" cy="22.77" r="1.69"/>
		<circle class="st3" cx="-1163.29" cy="22.77" r="1.69"/>
	</g>
	<path class="st0" d="M-1189.54,37.77c6.9,6.9,18.07,6.9,24.98,0"/>
</g>
<g>
	<line class="st0" x1="-944.25" y1="-2.83" x2="-944.25" y2="69.02"/>
	<line class="st0" x1="-1014.56" y1="33.09" x2="-1065.48" y2="33.09"/>
	<line class="st0" x1="-904.64" y1="33.09" x2="-955.56" y2="33.09"/>
	<rect x="-1033.96" y="13.84" class="st1" width="89.71" height="38.51"/>
	<line class="st0" x1="-906.26" y1="17.33" x2="-906.26" y2="48.85"/>
	<line class="st0" x1="-992.74" y1="14.58" x2="-992.74" y2="29.53"/>
	<line class="st0" x1="-979.11" y1="15.79" x2="-979.11" y2="37.21"/>
</g>
<circle class="st1" cx="1667.07" cy="33.12" r="35.26"/>
<g>
	<rect x="-808.07" y="-13.04" class="st1" width="70.6" height="50.69"/>
	<line class="st1" x1="-808.07" y1="-20.76" x2="-808.07" y2="68.63"/>
	<rect x="-808.07" y="12.31" class="st1" width="70.6" height="25.35"/>
	<rect x="-808.07" y="-13.04" class="st1" width="25.35" height="25.35"/>
</g>
<g transform="translate(0,-952.36218)">
	<path class="st1" d="M-599.13,1008.16c0,18.4,13.01,33.32,29.05,33.32c16.03,0,29.05-14.92,29.05-33.32
		c0-18.4-13.96-38.93-29.05-56.24C-570.08,951.92-599.13,984.94-599.13,1008.16z"/>
</g>
<g>
	<polyline class="st1" points="-422.14,30.23 -377.41,-14.5 -332.68,30.23 	"/>
	<path class="st1" d="M-377.41,22.48"/>
	<polygon class="st1" points="-347.12,74.13 -407.7,74.13 -407.7,15.82 -377.41,-14.5 -347.12,15.82 	"/>
	<polyline class="st0" points="-390.53,74.13 -390.53,38.78 -364.29,38.78 -364.29,74.13 	"/>
</g>
<g>
	<circle class="st1" cx="1062.84" cy="35.36" r="35.29"/>
	<polyline class="st1" points="1049.28,34.98 1057.46,44.78 1076.4,25.94 	"/>
</g>
<g>
	<g>
		<g>
			<rect x="-196.62" y="4.56" class="st0" width="69.54" height="69.54"/>
			<g>
				<line class="st1" x1="-181.7" y1="-6.24" x2="-181.7" y2="15.35"/>
				<line class="st1" x1="-142" y1="-6.24" x2="-142" y2="15.35"/>
			</g>
		</g>
		<line class="st1" x1="-196.62" y1="27.26" x2="-127.08" y2="27.26"/>
	</g>
	<g>
		<path class="st4" d="M-161.25,39.51v4.07l-6.81,5.54v0.42h0.91c3.4,0,6.46,2.35,6.46,6.81c0,4.98-3.79,8.21-9.26,8.21
			c-5.86,0-9.4-3.47-9.4-8.35v-0.98h4.63v0.84c0,2.39,1.65,4.35,4.77,4.35c2.91,0,4.63-1.72,4.63-4.07c0-2.35-1.65-3.51-4-3.51
			h-4.28V48.7l6.07-4.98h-11.12v-4.21H-161.25z"/>
		<path class="st4" d="M-145.88,39.51v24.56h-4.63V44.42h-0.42l-3.44,6.18h-4.84l6.32-11.09H-145.88z"/>
	</g>
</g>
<g>
	<g>
		<circle class="st1" cx="40.48" cy="39.28" r="34.11"/>
		<g>
			<path class="st1" d="M35.01,5.92C19.38,25.53,19.48,53.5,35.29,73"/>
			<path class="st1" d="M46.9,5.92c15.48,19.42,15.53,47.05,0.16,66.52"/>
		</g>
		<line class="st1" x1="6.38" y1="39.28" x2="74.59" y2="39.28"/>
		<line class="st1" x1="40.95" y1="5.37" x2="40.95" y2="73.19"/>
	</g>
</g>
<g>
	<circle class="st1" cx="232.95" cy="16.42" r="22.82"/>
	<line class="st1" x1="232.95" y1="39.24" x2="232.95" y2="82.58"/>
	<line class="st1" x1="214.86" y1="58.43" x2="251.05" y2="58.43"/>
</g>
<g>
	<circle class="st1" cx="445.42" cy="26.19" r="22.82"/>
	<line class="st1" x1="461.64" y1="9.5" x2="501.27" y2="-30.14"/>
	<polyline class="st0" points="474.85,-30.14 501.27,-30.14 501.27,-3.71 	"/>
</g>
<path class="st1" d="M699.2,42.7V30.66l-36.59-13.14l0.48-18.57c0.09-2.9-1.09-5.69-3.23-7.65v0c-3.79-3.47-9.61-3.48-13.41-0.01
	l-0.01,0.01c-2.15,1.96-3.34,4.76-3.24,7.66l0.48,18.55l-33.67,12.17v12.04l34.33-6.35L645.83,59l-12.3,10.06v8.46l20.03-9.74
	l20.03,9.74v-8.46l-13.09-10.58l1.45-22.86L699.2,42.7z"/>
<g>
	<g>
		<g>
			<g>
				<g>
					<g>
						<rect x="2043.44" y="14.06" class="st2" width="79.95" height="61.47"/>
						<rect x="2043.44" y="14.06" class="st0" width="79.95" height="61.47"/>
					</g>
				</g>
			</g>
		</g>
		<path class="st1" d="M2102.54,63.34h-38.24c-4.08,0-7.39-3.31-7.39-7.39V33.65c0-4.08,3.31-7.39,7.39-7.39h38.24
			c4.08,0,7.39,3.31,7.39,7.39v22.31C2109.93,60.03,2106.62,63.34,2102.54,63.34z"/>
		<g>
			<line class="st1" x1="2057.83" y1="-12.38" x2="2084" y2="13.79"/>
			<line class="st1" x1="2109" y1="-12.38" x2="2082.83" y2="13.79"/>
		</g>
	</g>
</g>
<g>
	<polygon class="st1" points="891.17,77.99 826.28,77.99 826.28,-10.13 869.18,-10.13 880.18,0.87 891.17,11.86 	"/>
	<polyline class="st1" points="869.18,-10.13 869.18,11.41 891.17,11.41 	"/>
</g>
<g>
	
		<rect x="1451.01" y="18.28" transform="matrix(-1.836970e-16 1 -1 -1.836970e-16 1497.4001 -1417.007)" class="st1" width="12.39" height="43.82"/>
	<rect x="1434.07" y="-10.43" class="st1" width="12.39" height="88.26"/>
	<rect x="1472.49" y="34" class="st1" width="12.39" height="43.82"/>
</g>
<g>
	<g>
		<polygon class="st1" points="1299.49,75.41 1234.43,75.41 1234.43,-12.93 1277.44,-12.93 1288.46,-1.91 1299.49,9.12 		"/>
		<polyline class="st1" points="1277.44,-12.93 1277.44,8.66 1299.49,8.66 		"/>
	</g>
	<line class="st1" x1="1250.12" y1="28.88" x2="1282.13" y2="28.88"/>
	<line class="st1" x1="1249.85" y1="42.13" x2="1281.86" y2="42.13"/>
	<line class="st1" x1="1249.85" y1="55.37" x2="1281.86" y2="55.37"/>
</g>
<g>
	<g>
		<path class="st4" d="M1677.09,38.21v0.37c0,4.38-3.02,7.11-7.37,7.77v3.94h-4.42v-3.9c-5.08-0.7-8.25-3.98-8.25-9.28v-0.81h4.86
			v0.59c0,2.39,1.07,4.13,3.39,4.79v-7c-4.68-1.14-7.29-3.13-7.29-7.37v-0.22c0-4.02,3.09-6.67,7.29-7.26v-3.87h4.42v4.01
			c4.16,0.81,7,3.65,7,7.92V29h-4.86v-0.74c0-1.84-0.77-2.95-2.14-3.54v6.15C1674.47,32.02,1677.09,34.01,1677.09,38.21z
			 M1665.3,29.88V24.5c-1.47,0.44-2.36,1.44-2.36,2.65C1662.94,28.67,1663.86,29.37,1665.3,29.88z M1672.15,38.58
			c0-1.47-0.85-2.28-2.43-2.84v5.93C1671.34,41.12,1672.15,39.9,1672.15,38.58z"/>
	</g>
</g>
<g>
	<circle class="st5" cx="4508.25" cy="-226.93" r="35.69"/>
	<g>
		<circle class="st6" cx="4494.45" cy="-233.99" r="1.7"/>
		<circle class="st6" cx="4522.05" cy="-233.99" r="1.7"/>
	</g>
	<path class="st7" d="M4495.73-218.95c6.92,6.92,18.12,6.92,25.04,0"/>
</g>
<g>
	<circle class="st5" cx="4572.11" cy="-226.93" r="35.69"/>
	<g>
		<circle class="st6" cx="4558.31" cy="-233.99" r="1.7"/>
		<circle class="st6" cx="4585.91" cy="-233.99" r="1.7"/>
	</g>
	<path class="st7" d="M4559.59-218.95c6.92,6.92,18.12,6.92,25.04,0"/>
</g>
<g>
	<circle class="st5" cx="4635.97" cy="-226.93" r="35.69"/>
	<g>
		<circle class="st6" cx="4622.17" cy="-233.99" r="1.7"/>
		<circle class="st6" cx="4649.77" cy="-233.99" r="1.7"/>
	</g>
	<path class="st7" d="M4623.45-218.95c6.92,6.92,18.12,6.92,25.04,0"/>
</g>
<polygon class="st1" points="1887.21,52.69 1905.17,70.33 1905.17,52.69 1922.81,52.69 1905.17,34.73 1922.81,16.77 1905.17,16.77 
	1905.17,-0.87 1887.21,16.77 1869.25,-0.87 1869.25,16.77 1851.61,16.77 1869.25,34.73 1851.61,52.69 1869.25,52.69 1869.25,70.33 
	"/>
<path class="st0" d="M4927.21,10.46c-19.42-11.08-39.69,1.39-38.74,22.03c1.04,22.68,19.59,51.75,37.54,44.64
	c2.43-0.97,5.14-0.97,7.57,0c17.94,7.11,36.49-21.97,37.54-44.64c0.95-20.59-19.24-33.06-38.63-22.09L4927.21,10.46z"/>
<path class="st0" d="M4936.9-10.82c-8.08,8.08-9.27,20.42-3.57,29.75"/>
<path class="st0" d="M5142.32-6.81c-15.65,1.49-19.56,16.36-22.4,32.85c-0.54,3.15-2.3,6.02-4.34,9.34
	c-3.7,6.02-8.29,13.51-5.89,25.26c1.08,5.52,4.51,10.3,9.39,13.1c6.38,3.78,15.19,4.62,22.99,2.21c1.59-0.51,3.3-0.44,4.84,0.2
	c3.02,1.27,6.28,1.91,9.56,1.88c3.96,0.01,7.88-0.85,11.47-2.52c6.07-2.82,10.57-8.21,12.26-14.69c3.27-11.72-1.68-19.37-5.65-25.52
	c-2.06-3.18-4-6.18-4.53-9.27c-2.83-16.42-6.72-31.25-22.22-32.84L5142.32-6.81z"/>
<path class="st0" d="M5151.08-23.69c-8.32,8.32-10.13,20.68-5.43,30.75"/>
<g>
	<rect x="3666.76" y="-1.9" class="st1" width="99.16" height="71.2"/>
	<rect x="3666.76" y="33.7" class="st8" width="99.16" height="35.6"/>
	<rect x="3666.76" y="-1.9" class="st9" width="35.6" height="35.6"/>
</g>
<polygon class="st1" points="4756.34,70.8 4705.3,78.49 4705.3,-10.39 4756.34,-18.07 "/>
<rect x="4705.3" y="-9.42" class="st1" width="63.23" height="88.87"/>
<g>
	<polygon class="st0" points="4104.21,84.35 4104.21,95.5 4093.06,84.35 4073.14,84.35 4073.14,-5.94 4169.21,-5.94 4169.21,84.35 	
		"/>
</g>
<g>
	<g>
		<circle class="st0" cx="3895.93" cy="21.46" r="20.4"/>
		<line class="st0" x1="3910.98" y1="36.51" x2="3918.71" y2="44.25"/>
	</g>
	
		<rect x="3924.75" y="39.16" transform="matrix(0.7071 -0.7071 0.7071 0.7071 1111.5132 2795.6104)" class="st0" width="11.21" height="33.86"/>
</g>
<g>
	<path class="st0" d="M3511.29,27.22c-0.63,4.55-2.69,8.93-6.18,12.43c-8.52,8.52-22.33,8.52-30.85,0c-8.52-8.52-8.52-22.33,0-30.85
		c8.52-8.52,22.33-8.52,30.85,0C3510.13,13.82,3512.19,20.68,3511.29,27.22"/>
	<polyline class="st0" points="3512.29,27.05 3545.54,65.29 3532.07,78.76 3493.84,45.51 	"/>
	<line class="st0" x1="3538.28" y1="72.55" x2="3556.58" y2="90.85"/>
	<line class="st0" x1="3474.26" y1="39.65" x2="3504.32" y2="9.58"/>
</g>
<g>
	<rect x="4296.04" y="-10.63" class="st0" width="65.29" height="88.66"/>
	<g>
		<polyline class="st0" points="4308.53,12.36 4314.41,16.66 4321.81,4.95 		"/>
		<polyline class="st0" points="4335.55,36.02 4341.44,40.32 4348.83,28.6 		"/>
		<g>
			<line class="st0" x1="4348.61" y1="6.13" x2="4335.78" y2="18.96"/>
			<line class="st0" x1="4335.78" y1="6.13" x2="4348.61" y2="18.96"/>
		</g>
		<g>
			<line class="st0" x1="4321.58" y1="49.62" x2="4308.76" y2="62.45"/>
			<line class="st0" x1="4308.76" y1="49.62" x2="4321.58" y2="62.45"/>
		</g>
		<line class="st0" x1="4309.32" y1="34.46" x2="4321.02" y2="34.46"/>
		<line class="st0" x1="4336.35" y1="56.04" x2="4348.04" y2="56.04"/>
	</g>
</g>
<polygon class="st0" points="3308.11,0.95 3319.67,24.38 3345.54,28.14 3326.82,46.39 3331.24,72.14 3308.11,59.98 3284.97,72.14 
	3289.39,46.39 3270.68,28.14 3296.54,24.38 "/>
<g>
	<rect x="3045.93" y="8.94" class="st0" width="116.13" height="71.69"/>
	<polyline class="st0" points="3046.03,8.94 3104.8,44.78 3161.95,8.94 	"/>
</g>
<g>
	<g>
		<polygon class="st0" points="2889.33,80.48 2823.92,80.48 2823.92,-8.34 2867.16,-8.34 2878.24,2.74 2889.33,13.83 		"/>
		<polyline class="st0" points="2867.16,-8.34 2867.16,13.37 2889.33,13.37 		"/>
	</g>
	<line class="st0" x1="2839.71" y1="33.7" x2="2871.88" y2="33.7"/>
	<line class="st10" x1="2839.43" y1="47.01" x2="2871.6" y2="47.01"/>
	<line class="st10" x1="2839.43" y1="60.33" x2="2871.6" y2="60.33"/>
</g>
<g>
	<g>
		<polygon class="st0" points="2975.83,80.48 2910.42,80.48 2910.42,-8.34 2953.66,-8.34 2964.75,2.74 2975.83,13.83 		"/>
		<polyline class="st0" points="2953.66,-8.34 2953.66,13.37 2975.83,13.37 		"/>
	</g>
	<line class="st0" x1="2926.21" y1="33.7" x2="2958.38" y2="33.7"/>
	<line class="st10" x1="2925.93" y1="47.01" x2="2958.11" y2="47.01"/>
	<line class="st10" x1="2925.93" y1="60.33" x2="2958.11" y2="60.33"/>
</g>
<polyline class="st0" points="2928.02,11.43 2933.92,15.74 2941.33,4 "/>
<g>
	<line class="st0" x1="2853.25" y1="3.44" x2="2840.4" y2="16.29"/>
	<line class="st0" x1="2840.4" y1="3.44" x2="2853.25" y2="16.29"/>
</g>
<g>
	<g>
		<g>
			<polygon class="st0" points="2657.87,70.65 2722.28,70.65 2722.28,-18.14 2679.7,-18.14 2668.79,-7.06 2657.87,4.02 			"/>
			<polyline class="st0" points="2679.7,-18.14 2679.7,3.56 2657.87,3.56 			"/>
		</g>
	</g>
</g>
<g>
	<g>
		<circle class="st1" cx="2710.86" cy="18.88" r="20.88"/>
		<line class="st1" x1="2726.27" y1="34.29" x2="2734.18" y2="42.21"/>
	</g>
	
		<rect x="2740.36" y="37" transform="matrix(0.7071 -0.7071 0.7071 0.7071 765.8971 1957.7018)" class="st1" width="11.48" height="34.67"/>
</g>
<g>
	<path class="st0" d="M2550.04,36.84c0,0-17.49,41.31-58.39,41.31c-40.91,0-58.39-41.31-58.39-41.31v-0.77
		c0,0,12.46-21.34,25.4-27.36c12.94-6.02,32.99,4.23,32.99,4.23l0,0c0,0,19.92-10.25,32.87-4.23s25.4,27.36,25.4,27.36
		L2550.04,36.84z"/>
	<path class="st0" d="M2433.25,36.07c0,0,48.67,12.89,116.79,0.77"/>
</g>
<g>
	<path class="st0" d="M2332.32,41.07c0,0-17.47,35.88-58.34,35.88c-40.87,0-58.34-35.88-58.34-35.88s17.47-35.88,58.34-35.88
		C2314.85,5.18,2332.32,41.07,2332.32,41.07z"/>
	<circle class="st0" cx="2273.98" cy="40.08" r="17.39"/>
</g>
<g>
	<circle class="st5" cx="5349.26" cy="38.65" r="35.69"/>
	<g>
		<circle class="st6" cx="5335.46" cy="31.59" r="1.7"/>
		<circle class="st6" cx="5363.06" cy="31.59" r="1.7"/>
	</g>
	<path class="st7" d="M5336.74,46.63c6.92,6.92,18.12,6.92,25.04,0"/>
</g>
<g>
	<circle class="st1" cx="5560.78" cy="13.69" r="22.82"/>
	<line class="st1" x1="5560.78" y1="36.51" x2="5560.78" y2="79.85"/>
	<line class="st1" x1="5542.68" y1="55.7" x2="5578.88" y2="55.7"/>
</g>
<g>
	<circle class="st1" cx="5738.64" cy="55.4" r="22.82"/>
	<line class="st1" x1="5754.85" y1="38.71" x2="5794.49" y2="-0.93"/>
	<polyline class="st0" points="5768.06,-0.93 5794.49,-0.93 5794.49,25.5 	"/>
</g>
</svg>
