<?xml version="1.0" encoding="utf-8"?>
<!-- Generator: Adobe Illustrator 24.2.0, SVG Export Plug-In . SVG Version: 6.00 Build 0)  -->
<svg version="1.1" id="Capa_1" xmlns="http://www.w3.org/2000/svg" xmlns:xlink="http://www.w3.org/1999/xlink" x="0px" y="0px"
	 viewBox="0 0 114.75 88.99" style="enable-background:new 0 0 114.75 88.99;" xml:space="preserve">
<style type="text/css">
	.st0{fill:none;stroke:#000000;stroke-width:6.5;stroke-miterlimit:10;}
	.st1{fill:#FFFFFF;stroke:#000000;stroke-width:6.5;stroke-miterlimit:10;}
	.st2{fill:#FFFFFF;}
	.st3{stroke:#000000;stroke-width:6.5;stroke-miterlimit:10;}
	.st4{fill:#1D1D1B;}
	.st5{fill:#FFFFFF;stroke:#1D1D1B;stroke-width:6.5;stroke-miterlimit:10;}
	.st6{fill:#1D1D1B;stroke:#1D1D1B;stroke-width:6.5;stroke-miterlimit:10;}
	.st7{fill:none;stroke:#1D1D1B;stroke-width:6.5;stroke-miterlimit:10;}
	.st8{fill:#FC5439;stroke:#000000;stroke-width:6.5;stroke-miterlimit:10;}
	.st9{fill:#3A90FD;stroke:#000000;stroke-width:6.5;stroke-miterlimit:10;}
	.st10{fill:#F1CD08;stroke:#000000;stroke-width:6.5;stroke-miterlimit:10;}
</style>
<g>
	<path class="st0" d="M638.17,101.72V27.39c0-4.23,3.43-7.65,7.65-7.65h54.6v77.9"/>
	<path class="st0" d="M661.73,108.47h38.68V94.98h-55.51c-3.72,0-6.74,3.02-6.74,6.74v0c0,3.72,3.02,6.74,6.74,6.74h1.52"/>
	<rect x="655.83" y="40.5" class="st0" width="26.92" height="15.7"/>
	<polygon class="st0" points="659.55,121.62 654.29,126.92 649.03,121.62 649.03,104.66 659.55,104.66 	"/>
</g>
<polygon class="st0" points="307.46,64.35 271.79,28.67 271.79,44.18 214.66,44.18 214.66,85.91 271.79,85.91 271.79,100.02 "/>
<g>
	<polyline class="st0" points="480.4,37.73 504.03,37.73 504.03,108.93 427.17,108.93 427.17,37.73 457.3,37.73 	"/>
	<polygon class="st0" points="462.66,49.54 454.08,40.96 475.27,19.77 486.82,31.31 468.59,49.54 	"/>
	<polyline class="st0" points="452.71,49.54 462.66,49.54 468.59,49.54 478.5,49.54 	"/>
</g>
<g>
	<polygon class="st0" points="92.24,10.05 16.22,61.61 8.49,81.02 29.38,81.01 105.4,29.46 	"/>
	<line class="st0" x1="16.22" y1="61.61" x2="29.38" y2="81.01"/>
</g>
<g>
	<g>
		<path class="st1" d="M878.06,96.26h24.01c19.62,0,35.53-15.91,35.53-35.53v0c0-19.62-15.91-35.53-35.53-35.53l-3.72,0h-78.89
			c-4.91,0-8.88,3.98-8.88,8.88v0c0,4.91,3.98,8.88,8.88,8.88h68.05v0"/>
		<path class="st1" d="M887.5,42.97h-21.1c-4.91,0-8.88,3.98-8.88,8.88v0c0,4.91,3.98,8.88,8.88,8.88h19.4h1.7
			c4.91,0,8.88-3.98,8.88-8.88v0C896.38,46.94,892.4,42.97,887.5,42.97z"/>
		<path class="st1" d="M888.14,60.73h-21.1c-4.91,0-8.88,3.98-8.88,8.88v0c0,4.91,3.98,8.88,8.88,8.88h19.4h1.7
			c4.91,0,8.88-3.98,8.88-8.88v0C897.02,64.71,893.04,60.73,888.14,60.73z"/>
		<path class="st1" d="M888.14,78.49h-21.1c-4.91,0-8.88,3.98-8.88,8.88v0c0,4.91,3.98,8.88,8.88,8.88h19.4h1.7
			c4.91,0,8.88-3.98,8.88-8.88v0C897.02,82.47,893.04,78.49,888.14,78.49z"/>
	</g>
	<path class="st1" d="M901.59,27.08l-11.69,23.48c-2.15,4.41-0.32,9.73,4.09,11.88l0,0c4.41,2.15,9.73,0.32,11.88-4.09l8.54-17.14"
		/>
</g>
<g>
	<ellipse class="st2" cx="1083.32" cy="67.36" rx="28.07" ry="18.08"/>
	<g>
		<path class="st1" d="M1102.68,62.63V47.99c0-3.72,3.01-6.73,6.73-6.73l0,0c3.72,0,6.73,3.01,6.73,6.73v22.75
			c0,18.59-15.07,33.66-33.66,33.66l0,0c-18.59,0-33.66-15.07-33.66-33.66V47.64l0,0c7.43,0,13.45,6.02,13.45,13.45v8.75l0,0
			c7.42,0,13.44,6.02,13.44,13.44v0.83"/>
		<path class="st1" d="M1102.61,62.63V29.85c0-3.72-3.01-6.73-6.73-6.73h0c-3.72,0-6.73,3.01-6.73,6.73V55"/>
		<path class="st1" d="M1089.16,58.8V23.03c0-3.72-3.01-6.73-6.73-6.73l0,0c-3.72,0-6.73,3.01-6.73,6.73v25.15"/>
		<path class="st1" d="M1075.7,58.02V28.24c0-3.72-3.01-6.73-6.73-6.73h0c-3.72,0-6.73,3.01-6.73,6.73v37.79"/>
	</g>
</g>
<g>
	<line class="st0" x1="1268.59" y1="-152" x2="1345.15" y2="-170.97"/>
	<circle class="st1" cx="1268.59" cy="-152" r="25.98"/>
	<line class="st0" x1="1421.96" y1="-151.98" x2="1345.4" y2="-170.96"/>
	<circle class="st1" cx="1421.96" cy="-152" r="25.98"/>
	<circle class="st1" cx="1345.15" cy="-170.97" r="25.98"/>
</g>
<g>
	<circle class="st0" cx="1491.12" cy="58.8" r="35.6"/>
	<g>
		<circle class="st3" cx="1477.36" cy="51.76" r="1.69"/>
		<circle class="st3" cx="1504.89" cy="51.76" r="1.69"/>
	</g>
	<path class="st0" d="M1478.64,66.76c6.9,6.9,18.07,6.9,24.98,0"/>
</g>
<g>
	<line class="st0" x1="1730.68" y1="22.88" x2="1730.68" y2="94.73"/>
	<line class="st0" x1="1660.37" y1="58.8" x2="1609.45" y2="58.8"/>
	<line class="st0" x1="1770.29" y1="58.8" x2="1719.37" y2="58.8"/>
	<rect x="1640.97" y="39.54" class="st1" width="89.71" height="38.51"/>
	<line class="st0" x1="1768.67" y1="43.04" x2="1768.67" y2="74.56"/>
	<line class="st0" x1="1682.19" y1="40.29" x2="1682.19" y2="55.24"/>
	<line class="st0" x1="1695.82" y1="41.5" x2="1695.82" y2="62.92"/>
</g>
<circle class="st1" cx="4335.25" cy="62.11" r="35.26"/>
<g>
	<rect x="1860.11" y="15.95" class="st1" width="70.6" height="50.69"/>
	<line class="st1" x1="1860.11" y1="8.22" x2="1860.11" y2="97.62"/>
	<rect x="1860.11" y="41.3" class="st1" width="70.6" height="25.35"/>
	<rect x="1860.11" y="15.95" class="st1" width="25.35" height="25.35"/>
</g>
<g transform="translate(0,-952.36218)">
	<path class="st1" d="M2069.05,1037.15c0,18.4,13.01,33.32,29.05,33.32c16.03,0,29.05-14.92,29.05-33.32
		c0-18.4-13.96-38.93-29.05-56.24C2098.1,980.91,2069.05,1013.93,2069.05,1037.15z"/>
</g>
<g>
	<polyline class="st1" points="2246.03,59.22 2290.77,14.48 2335.5,59.22 	"/>
	<path class="st1" d="M2290.77,51.47"/>
	<polygon class="st1" points="2321.06,103.12 2260.48,103.12 2260.48,44.81 2290.77,14.48 2321.06,44.81 	"/>
	<polyline class="st0" points="2277.65,103.12 2277.65,67.77 2303.89,67.77 2303.89,103.12 	"/>
</g>
<g>
	<circle class="st1" cx="3731.02" cy="64.35" r="35.29"/>
	<polyline class="st1" points="3717.46,63.96 3725.64,73.77 3744.58,54.93 	"/>
</g>
<g>
	<g>
		<g>
			<rect x="2471.56" y="33.55" class="st0" width="69.54" height="69.54"/>
			<g>
				<line class="st1" x1="2486.47" y1="22.75" x2="2486.47" y2="44.34"/>
				<line class="st1" x1="2526.18" y1="22.75" x2="2526.18" y2="44.34"/>
			</g>
		</g>
		<line class="st1" x1="2471.56" y1="56.25" x2="2541.1" y2="56.25"/>
	</g>
	<g>
		<path class="st4" d="M2506.93,68.5v4.07l-6.81,5.54v0.42h0.91c3.4,0,6.46,2.35,6.46,6.81c0,4.98-3.79,8.21-9.26,8.21
			c-5.86,0-9.4-3.47-9.4-8.35v-0.98h4.63v0.84c0,2.39,1.65,4.35,4.77,4.35c2.91,0,4.63-1.72,4.63-4.07s-1.65-3.51-4-3.51h-4.28
			v-4.14l6.07-4.98h-11.12V68.5H2506.93z"/>
		<path class="st4" d="M2522.3,68.5v24.56h-4.63V73.41h-0.42l-3.44,6.18h-4.84l6.32-11.09H2522.3z"/>
	</g>
</g>
<g>
	<g>
		<circle class="st1" cx="2708.66" cy="68.27" r="34.11"/>
		<g>
			<path class="st1" d="M2703.18,34.91c-15.63,19.6-15.53,47.58,0.29,67.07"/>
			<path class="st1" d="M2715.08,34.91c15.48,19.42,15.53,47.05,0.16,66.52"/>
		</g>
		<line class="st1" x1="2674.56" y1="68.27" x2="2742.77" y2="68.27"/>
		<line class="st1" x1="2709.13" y1="34.36" x2="2709.13" y2="102.18"/>
	</g>
</g>
<g>
	<circle class="st1" cx="2901.13" cy="45.41" r="22.82"/>
	<line class="st1" x1="2901.13" y1="68.23" x2="2901.13" y2="111.57"/>
	<line class="st1" x1="2883.03" y1="87.42" x2="2919.23" y2="87.42"/>
</g>
<g>
	<circle class="st1" cx="3113.6" cy="55.18" r="22.82"/>
	<line class="st1" x1="3129.82" y1="38.49" x2="3169.45" y2="-1.15"/>
	<polyline class="st0" points="3143.03,-1.15 3169.45,-1.15 3169.45,25.28 	"/>
</g>
<path class="st1" d="M3367.38,71.69V59.65l-36.59-13.14l0.48-18.57c0.09-2.9-1.09-5.69-3.23-7.65v0c-3.79-3.47-9.61-3.48-13.41-0.01
	l-0.01,0.01c-2.15,1.96-3.34,4.76-3.24,7.66l0.48,18.55l-33.67,12.17v12.04l34.33-6.35l1.48,23.62l-12.3,10.06v8.46l20.03-9.74
	l20.03,9.74v-8.46l-13.09-10.58l1.44-22.86L3367.38,71.69z"/>
<g>
	<g>
		<g>
			<g>
				<g>
					<g>
						<rect x="4711.62" y="43.05" class="st2" width="79.95" height="61.47"/>
						<rect x="4711.62" y="43.05" class="st0" width="79.95" height="61.47"/>
					</g>
				</g>
			</g>
		</g>
		<path class="st1" d="M4770.71,92.33h-38.24c-4.08,0-7.39-3.31-7.39-7.39V62.63c0-4.08,3.31-7.39,7.39-7.39h38.24
			c4.08,0,7.39,3.31,7.39,7.39v22.31C4778.11,89.02,4774.8,92.33,4770.71,92.33z"/>
		<g>
			<line class="st1" x1="4726.01" y1="16.6" x2="4752.18" y2="42.77"/>
			<line class="st1" x1="4777.18" y1="16.6" x2="4751.01" y2="42.77"/>
		</g>
	</g>
</g>
<g>
	<polygon class="st1" points="3559.35,106.98 3494.46,106.98 3494.46,18.86 3537.36,18.86 3548.35,29.86 3559.35,40.85 	"/>
	<polyline class="st1" points="3537.36,18.86 3537.36,40.39 3559.35,40.39 	"/>
</g>
<g>
	
		<rect x="4119.19" y="47.27" transform="matrix(-1.836970e-16 1 -1 -1.836970e-16 4194.5674 -4056.1968)" class="st1" width="12.39" height="43.82"/>
	<rect x="4102.25" y="18.56" class="st1" width="12.39" height="88.26"/>
	<rect x="4140.67" y="62.99" class="st1" width="12.39" height="43.82"/>
</g>
<g>
	<g>
		<polygon class="st1" points="3967.66,104.4 3902.6,104.4 3902.6,16.06 3945.61,16.06 3956.64,27.08 3967.66,38.11 		"/>
		<polyline class="st1" points="3945.61,16.06 3945.61,37.65 3967.66,37.65 		"/>
	</g>
	<line class="st1" x1="3918.3" y1="57.87" x2="3950.31" y2="57.87"/>
	<line class="st1" x1="3918.03" y1="71.12" x2="3950.03" y2="71.12"/>
	<line class="st1" x1="3918.03" y1="84.36" x2="3950.03" y2="84.36"/>
</g>
<g>
	<g>
		<path class="st4" d="M4345.27,67.2v0.37c0,4.38-3.02,7.11-7.37,7.77v3.94h-4.42v-3.9c-5.08-0.7-8.25-3.98-8.25-9.28v-0.81h4.86
			v0.59c0,2.39,1.07,4.13,3.39,4.79v-7c-4.68-1.14-7.29-3.13-7.29-7.37v-0.22c0-4.02,3.09-6.67,7.29-7.26v-3.87h4.42v4.01
			c4.16,0.81,7,3.65,7,7.92v1.11h-4.86v-0.74c0-1.84-0.77-2.95-2.14-3.54v6.15C4342.65,61.01,4345.27,63,4345.27,67.2z
			 M4333.48,58.87v-5.38c-1.47,0.44-2.36,1.44-2.36,2.65C4331.12,57.66,4332.04,58.36,4333.48,58.87z M4340.33,67.56
			c0-1.47-0.85-2.28-2.43-2.84v5.93C4339.52,70.11,4340.33,68.89,4340.33,67.56z"/>
	</g>
</g>
<g>
	<circle class="st5" cx="7176.43" cy="-197.94" r="35.69"/>
	<g>
		<circle class="st6" cx="7162.63" cy="-205" r="1.7"/>
		<circle class="st6" cx="7190.23" cy="-205" r="1.7"/>
	</g>
	<path class="st7" d="M7163.91-189.96c6.92,6.92,18.12,6.92,25.04,0"/>
</g>
<g>
	<circle class="st5" cx="7240.29" cy="-197.94" r="35.69"/>
	<g>
		<circle class="st6" cx="7226.49" cy="-205" r="1.7"/>
		<circle class="st6" cx="7254.09" cy="-205" r="1.7"/>
	</g>
	<path class="st7" d="M7227.77-189.96c6.92,6.92,18.12,6.92,25.04,0"/>
</g>
<g>
	<circle class="st5" cx="7304.15" cy="-197.94" r="35.69"/>
	<g>
		<circle class="st6" cx="7290.35" cy="-205" r="1.7"/>
		<circle class="st6" cx="7317.95" cy="-205" r="1.7"/>
	</g>
	<path class="st7" d="M7291.63-189.96c6.92,6.92,18.12,6.92,25.04,0"/>
</g>
<polygon class="st1" points="4555.39,81.68 4573.35,99.32 4573.35,81.68 4590.99,81.68 4573.35,63.72 4590.99,45.76 4573.35,45.76 
	4573.35,28.12 4555.39,45.76 4537.43,28.12 4537.43,45.76 4519.79,45.76 4537.43,63.72 4519.79,81.68 4537.43,81.68 4537.43,99.32 
	"/>
<path class="st0" d="M7595.39,39.44c-19.42-11.08-39.69,1.39-38.74,22.03c1.04,22.68,19.59,51.75,37.54,44.64
	c2.43-0.97,5.14-0.97,7.57,0c17.95,7.11,36.5-21.97,37.54-44.64c0.95-20.59-19.24-33.06-38.63-22.09L7595.39,39.44z"/>
<path class="st0" d="M7605.08,18.17c-8.08,8.08-9.27,20.42-3.57,29.75"/>
<path class="st0" d="M7810.5,22.18c-15.65,1.49-19.56,16.36-22.4,32.85c-0.54,3.15-2.3,6.02-4.34,9.34
	c-3.7,6.02-8.29,13.51-5.89,25.26c1.08,5.52,4.51,10.3,9.39,13.1c6.38,3.78,15.19,4.62,22.99,2.21c1.59-0.51,3.3-0.44,4.84,0.2
	c3.02,1.27,6.28,1.91,9.56,1.88c3.96,0.01,7.88-0.85,11.47-2.52c6.07-2.82,10.57-8.21,12.26-14.69c3.27-11.72-1.68-19.37-5.65-25.52
	c-2.06-3.18-4-6.18-4.53-9.27c-2.83-16.42-6.72-31.25-22.22-32.84L7810.5,22.18z"/>
<path class="st0" d="M7819.26,5.3c-8.32,8.32-10.13,20.68-5.43,30.75"/>
<g>
	<rect x="6334.94" y="27.09" class="st1" width="99.16" height="71.2"/>
	<rect x="6334.94" y="62.69" class="st8" width="99.16" height="35.6"/>
	<rect x="6334.94" y="27.09" class="st9" width="35.6" height="35.6"/>
</g>
<polygon class="st1" points="7424.52,99.79 7373.48,107.47 7373.48,18.6 7424.52,10.92 "/>
<rect x="7373.48" y="19.57" class="st1" width="63.23" height="88.87"/>
<g>
	<polygon class="st0" points="6772.39,113.33 6772.39,124.49 6761.23,113.33 6741.31,113.33 6741.31,23.05 6837.38,23.05 
		6837.38,113.33 	"/>
</g>
<g>
	<g>
		<circle class="st0" cx="6564.11" cy="50.45" r="20.4"/>
		<line class="st0" x1="6579.16" y1="65.5" x2="6586.89" y2="73.24"/>
	</g>
	
		<rect x="6592.93" y="68.15" transform="matrix(0.7071 -0.7071 0.7071 0.7071 1872.5066 4690.7881)" class="st0" width="11.21" height="33.86"/>
</g>
<g>
	<path class="st0" d="M6179.47,56.2c-0.63,4.55-2.69,8.93-6.18,12.43c-8.52,8.52-22.33,8.52-30.85,0c-8.52-8.52-8.52-22.33,0-30.85
		c8.52-8.52,22.33-8.52,30.85,0C6178.31,42.81,6180.37,49.67,6179.47,56.2"/>
	<polyline class="st0" points="6180.47,56.04 6213.72,94.28 6200.25,107.75 6162.02,74.5 	"/>
	<line class="st0" x1="6206.46" y1="101.54" x2="6224.76" y2="119.84"/>
	<line class="st0" x1="6142.43" y1="68.63" x2="6172.5" y2="38.57"/>
</g>
<g>
	<rect x="6964.22" y="18.36" class="st0" width="65.29" height="88.66"/>
	<g>
		<polyline class="st0" points="6976.71,41.35 6982.59,45.65 6989.99,33.94 		"/>
		<polyline class="st0" points="7003.73,65.01 7009.61,69.3 7017.01,57.59 		"/>
		<g>
			<line class="st0" x1="7016.79" y1="35.12" x2="7003.96" y2="47.94"/>
			<line class="st0" x1="7003.96" y1="35.12" x2="7016.79" y2="47.94"/>
		</g>
		<g>
			<line class="st0" x1="6989.76" y1="78.61" x2="6976.93" y2="91.44"/>
			<line class="st0" x1="6976.93" y1="78.61" x2="6989.76" y2="91.44"/>
		</g>
		<line class="st0" x1="6977.5" y1="63.45" x2="6989.19" y2="63.45"/>
		<line class="st0" x1="7004.53" y1="85.02" x2="7016.22" y2="85.02"/>
	</g>
</g>
<polygon class="st0" points="5976.29,29.94 5987.85,53.37 6013.72,57.13 5995,75.37 5999.42,101.13 5976.29,88.97 5953.15,101.13 
	5957.57,75.37 5938.85,57.13 5964.72,53.37 "/>
<g>
	<rect x="5714.1" y="37.93" class="st0" width="116.13" height="71.69"/>
	<polyline class="st0" points="5714.21,37.93 5772.98,73.77 5830.13,37.93 	"/>
</g>
<g>
	<g>
		<polygon class="st0" points="5557.51,109.47 5492.1,109.47 5492.1,20.65 5535.34,20.65 5546.42,31.73 5557.51,42.82 		"/>
		<polyline class="st0" points="5535.34,20.65 5535.34,42.35 5557.51,42.35 		"/>
	</g>
	<line class="st0" x1="5507.88" y1="62.69" x2="5540.06" y2="62.69"/>
	<line class="st10" x1="5507.61" y1="76" x2="5539.78" y2="76"/>
	<line class="st10" x1="5507.61" y1="89.32" x2="5539.78" y2="89.32"/>
</g>
<g>
	<g>
		<polygon class="st0" points="5644.01,109.47 5578.6,109.47 5578.6,20.65 5621.84,20.65 5632.92,31.73 5644.01,42.82 		"/>
		<polyline class="st0" points="5621.84,20.65 5621.84,42.35 5644.01,42.35 		"/>
	</g>
	<line class="st0" x1="5594.38" y1="62.69" x2="5626.56" y2="62.69"/>
	<line class="st10" x1="5594.11" y1="76" x2="5626.28" y2="76"/>
	<line class="st10" x1="5594.11" y1="89.32" x2="5626.28" y2="89.32"/>
</g>
<polyline class="st0" points="5596.2,40.42 5602.09,44.73 5609.51,32.99 "/>
<g>
	<line class="st0" x1="5521.43" y1="32.43" x2="5508.58" y2="45.28"/>
	<line class="st0" x1="5508.58" y1="32.43" x2="5521.43" y2="45.28"/>
</g>
<g>
	<g>
		<g>
			<polygon class="st0" points="5326.05,99.64 5390.46,99.64 5390.46,10.85 5347.88,10.85 5336.97,21.93 5326.05,33.01 			"/>
			<polyline class="st0" points="5347.88,10.85 5347.88,32.55 5326.05,32.55 			"/>
		</g>
	</g>
</g>
<g>
	<g>
		<circle class="st1" cx="5379.04" cy="47.87" r="20.88"/>
		<line class="st1" x1="5394.44" y1="63.28" x2="5402.36" y2="71.2"/>
	</g>
	
		<rect x="5408.54" y="65.99" transform="matrix(0.7071 -0.7071 0.7071 0.7071 1526.8905 3852.8794)" class="st1" width="11.48" height="34.67"/>
</g>
<g>
	<path class="st0" d="M5218.22,65.83c0,0-17.48,41.31-58.39,41.31s-58.39-41.31-58.39-41.31v-0.77c0,0,12.46-21.34,25.4-27.36
		s32.99,4.23,32.99,4.23l0,0c0,0,19.92-10.25,32.87-4.23c12.94,6.02,25.4,27.36,25.4,27.36L5218.22,65.83z"/>
	<path class="st0" d="M5101.43,65.06c0,0,48.67,12.89,116.79,0.77"/>
</g>
<g>
	<path class="st0" d="M5000.5,70.06c0,0-17.47,35.88-58.34,35.88s-58.34-35.88-58.34-35.88s17.47-35.88,58.34-35.88
		S5000.5,70.06,5000.5,70.06z"/>
	<circle class="st0" cx="4942.16" cy="69.07" r="17.39"/>
</g>
<g>
	<circle class="st5" cx="8017.44" cy="67.64" r="35.69"/>
	<g>
		<circle class="st6" cx="8003.63" cy="60.58" r="1.7"/>
		<circle class="st6" cx="8031.24" cy="60.58" r="1.7"/>
	</g>
	<path class="st7" d="M8004.92,75.62c6.92,6.92,18.12,6.92,25.04,0"/>
</g>
<g>
	<circle class="st1" cx="8228.96" cy="42.68" r="22.82"/>
	<line class="st1" x1="8228.96" y1="65.5" x2="8228.96" y2="108.84"/>
	<line class="st1" x1="8210.86" y1="84.69" x2="8247.06" y2="84.69"/>
</g>
<g>
	<circle class="st1" cx="8406.81" cy="84.39" r="22.82"/>
	<line class="st1" x1="8423.03" y1="67.7" x2="8462.66" y2="28.06"/>
	<polyline class="st0" points="8436.24,28.06 8462.66,28.06 8462.66,54.49 	"/>
</g>
</svg>
