<svg width="74" height="94" viewBox="0 0 74 94" fill="none" xmlns="http://www.w3.org/2000/svg">
<path d="M73.3733 40.3865H42.7865C42.8962 40.0055 43.0499 39.6292 43.366 39.2915C43.9148 38.6982 42.9401 37.7286 43.344 37.0629C43.5679 36.6915 43.4714 36.2236 43.7962 35.8859C44.7138 34.9308 44.9596 33.8165 45.1484 32.678C45.2757 31.9014 45.4294 31.1296 45.6226 30.3674C45.6972 30.0635 45.7411 29.7307 46.1011 29.5232C46.7465 29.1518 46.865 28.6501 46.9704 28.134C47.1636 27.2078 47.4753 26.3106 47.4884 25.3506C47.5016 24.381 48.1733 23.5899 48.6343 22.7506C49.1304 21.8485 49.2709 20.8644 49.5343 19.9045C49.644 19.5041 49.7362 19.0796 50.1489 18.7757C50.6318 18.4139 50.847 17.9894 50.9392 17.5263C51.084 16.8076 51.2245 16.084 51.3694 15.3652C51.5143 15.0324 51.4397 14.6175 51.8479 14.3812C52.5504 13.9808 52.6777 13.4405 52.7918 12.8858C52.9894 11.9307 53.1694 10.9659 53.3582 10.0059C53.5689 9.977 53.9157 9.98665 53.9728 9.90947C54.6884 8.98329 55.8211 8.17771 55.8562 7.04893C55.8957 5.8912 56.2601 4.80102 56.4796 3.67706C56.5279 3.4214 56.5631 3.16573 56.5806 2.90042C56.6026 2.62546 56.2821 2.32638 55.8255 2.00801C54.9431 1.39538 53.7226 0.995 52.2738 0.68145C50.8953 0.382372 50.0216 0.430609 49.3236 0.676625C48.845 0.84546 48.1865 0.937112 47.6992 1.10112C47.4665 1.1783 47.4357 1.34714 47.3172 1.47738C47.1943 1.48221 47.0318 1.47256 46.9572 1.49668C45.1572 2.16237 43.7392 2.94866 43.8709 4.24145C43.906 4.55982 43.7699 4.84925 43.7084 5.15316C43.4362 5.22069 43.0543 5.25446 42.9226 5.37023C42.7338 5.52941 42.7162 5.74649 42.6504 5.94427C42.3343 6.88492 42.4616 7.94134 41.6714 8.76622C41.5616 8.87716 41.8557 9.11354 41.9655 9.29202C41.7943 9.45603 41.3992 9.58627 41.5001 9.78887C41.7987 10.3822 41.667 10.8742 41.5748 11.3807C41.3245 12.7507 41.0567 14.1207 40.7977 15.4907C40.6572 16.1564 40.5474 16.8269 40.3718 17.4829C40.2928 17.782 40.2753 18.1245 39.9109 18.3271C39.1909 18.7323 39.1075 19.2967 38.9977 19.8562C38.5982 21.8581 38.225 23.86 37.8167 25.8571C37.7333 26.2671 37.786 26.7351 37.3382 27.0245C36.5523 27.5262 36.4601 28.1919 36.324 28.8527C36.0782 30.0297 35.8411 31.2068 35.604 32.3838C35.1123 32.4175 34.7392 32.5092 34.6777 32.7214C34.5592 33.1218 34.467 33.5318 34.3835 33.9419C33.9621 36.0885 33.545 38.2351 33.1235 40.3817H0.631348V52.4992H28.7948C28.6762 52.7404 28.4831 52.9623 28.1187 53.1456C27.7982 53.3048 27.7982 53.5991 27.8114 53.8644C27.8245 54.1297 27.9606 54.4143 27.8157 54.6555C27.5348 55.1186 27.3548 55.6106 27.2406 56.1219C26.9553 57.3954 26.7357 58.6834 26.4811 59.9665C26.3889 60.4248 26.3801 60.9072 25.6953 61.2014C25.1992 61.4185 25.7611 61.8382 26.007 62.1903C25.5153 62.2241 25.1421 62.3158 25.0894 62.5328C24.9138 63.2468 24.6855 63.951 24.6284 64.6891C24.567 65.4754 23.825 66.088 24.0577 66.9611C24.2377 67.622 23.9216 68.2057 23.4562 68.7459C22.8153 69.4888 22.4684 70.3233 22.3982 71.2254C22.3499 71.8622 22.1479 72.4603 22.0382 73.0826C21.946 73.5987 21.867 74.1101 22.2796 74.7323C22.5474 75.1375 22.6221 75.5862 22.2533 75.8322C21.5465 76.3049 21.226 76.8404 21.5948 77.5688C21.0196 77.9016 21.4631 78.4853 21.1294 78.8953C20.664 79.4694 20.8923 80.2412 20.4972 80.8393C20.0933 81.4471 20.0845 82.1273 20.1416 82.8268C19.8694 82.8943 19.4479 82.9136 19.3557 83.0342C19.1538 83.2947 19.0967 83.6034 19.0133 83.8976C18.7587 84.8383 18.8114 85.8561 17.6918 86.5749C17.3714 86.7823 17.3231 87.1537 17.5953 87.4866C18.3284 88.3742 17.8762 89.0109 17.8587 89.7393C17.806 90.2072 17.7357 90.6752 17.7182 91.1527C17.7138 91.2492 17.8104 91.3987 18.0035 91.5097C18.965 92.0451 19.8782 92.6095 21.1996 93.0533C22.0865 93.3524 23.0084 93.526 23.8338 93.5164C24.6196 93.5068 25.3353 93.444 25.6645 93.2029C26.2967 92.7398 27.1309 92.3394 27.1133 91.664C27.1045 91.2926 27.1001 90.8778 27.5348 90.651C28.4918 90.1445 28.4655 89.3968 28.6148 88.6829C28.8738 87.3419 29.1328 86.0009 29.3918 84.6598C29.7431 83.4635 29.5718 82.1369 30.4104 81.0564C30.5114 80.9262 30.507 80.7621 30.4631 80.5933C30.1645 79.4597 30.6914 78.5094 30.8187 77.4771C30.8494 77.2214 31.0031 76.9803 31.306 76.8018C31.8855 76.4737 31.9909 76.0203 32.0831 75.562C32.2411 74.7951 32.3948 74.0281 32.544 73.2611C32.6626 72.6484 32.7767 72.031 32.8953 71.4184C33.005 70.854 33.1192 70.2944 33.2289 69.73C33.3518 69.1174 33.2596 68.442 33.6592 67.9066C34.0587 67.3711 34.2562 66.7875 34.6777 66.2665C34.9543 65.924 34.4933 65.4995 34.1421 65.075C34.4231 65.0123 34.8577 64.993 34.9499 64.8724C35.1518 64.6071 35.2221 64.2984 35.2792 63.9896C35.7796 61.4812 36.2538 58.968 36.7718 56.4644C36.8553 56.0592 36.864 55.6058 37.3074 55.3212C37.9616 54.8967 38.045 54.3371 38.2075 53.7872C38.3392 53.3482 38.2777 52.8417 38.7255 52.5089H73.3733V40.3865ZM52.1026 1.91153C52.1333 1.95012 52.1684 1.98871 52.2167 2.0273C52.186 2.01283 52.1553 1.99353 52.1201 1.97906C52.1245 1.95494 52.1157 1.93565 52.0894 1.91635C52.0938 1.91635 52.0982 1.91153 52.1026 1.91153Z" fill="white"/>
</svg>
