<svg width="280" height="158" viewBox="0 0 280 158" fill="none" xmlns="http://www.w3.org/2000/svg">
<path d="M95.4454 106.246V115.423L104.622 106.246H121.001V32H42V106.246H95.4454Z" fill="white" stroke="black" stroke-width="4" stroke-miterlimit="10"/>
<path d="M174.011 116.767V125.944L183.182 116.767H192V42.5209H112.999V116.767H174.011Z" fill="white" stroke="black" stroke-width="4" stroke-miterlimit="10"/>
<path d="M152.348 61.3362C159.576 61.3362 164.972 65.6143 164.972 71.9237V72.1289C164.972 78.1356 161.104 80.5825 157.488 82.1573L156.57 82.5625C155.349 83.1216 154.939 83.7833 154.939 85.2607V86.5841H148.219V84.7528C148.219 81.2904 149.44 79.1 152.646 77.674L153.564 77.2687C156.621 75.894 158.247 74.7758 158.247 72.2263C158.247 69.4769 155.903 67.6456 152.343 67.6456C148.675 67.6456 145.926 69.4769 145.926 72.9394V74.1602H139.206V72.6316C139.211 65.6143 145.018 61.3362 152.348 61.3362ZM151.584 90.0158C154.333 90.0158 156.421 92.001 156.421 94.853C156.421 97.7051 154.333 99.6903 151.584 99.6903C148.834 99.6903 146.747 97.7051 146.747 94.853C146.747 92.001 148.834 90.0158 151.584 90.0158Z" fill="white" stroke="black" stroke-width="3" stroke-miterlimit="10"/>
<path d="M79.4306 87.0817C72.203 87.0817 66.8066 82.8036 66.8066 76.4942V76.289C66.8066 70.2823 70.6744 67.8354 74.2907 66.2607L75.2089 65.8554C76.4298 65.2963 76.8402 64.6346 76.8402 63.1572V61.8338H83.5599V63.6651C83.5599 67.1276 82.3391 69.3179 79.1331 70.7439L78.2149 71.1492C75.1576 72.5239 73.5316 73.6422 73.5316 76.1916C73.5316 78.941 75.8758 80.7723 79.4357 80.7723C83.1034 80.7723 85.8529 78.941 85.8529 75.4786V74.2577H92.5727V75.7863C92.5675 82.8088 86.7608 87.0817 79.4306 87.0817ZM80.1949 58.4072C77.4454 58.4072 75.3577 56.4221 75.3577 53.57C75.3577 50.7179 77.4454 48.7328 80.1949 48.7328C82.9444 48.7328 85.0321 50.7179 85.0321 53.57C85.0321 56.4221 82.9444 58.4072 80.1949 58.4072Z" fill="white" stroke="black" stroke-width="3" stroke-miterlimit="10"/>
</svg>
