<svg width="160" height="98" viewBox="0 0 160 98" fill="none" xmlns="http://www.w3.org/2000/svg">
<path d="M156.859 7.14819H3V95.3275H156.859V7.14819Z" fill="white" stroke="black" stroke-width="5" stroke-miterlimit="10"/>
<path d="M3 23.1226H156.853" stroke="black" stroke-width="5" stroke-miterlimit="10"/>
<path d="M28.98 3H20.4165V11.5635H28.98V3Z" fill="white" stroke="black" stroke-width="5" stroke-miterlimit="10"/>
<path d="M139.437 3H130.873V11.5635H139.437V3Z" fill="white" stroke="black" stroke-width="5" stroke-miterlimit="10"/>
<path d="M24.5423 33.2617H12.8998V44.9043H24.5423V33.2617Z" fill="white" stroke="black" stroke-width="5" stroke-miterlimit="10"/>
<path d="M44.6258 33.2617H32.9833V44.9043H44.6258V33.2617Z" fill="white" stroke="black" stroke-width="5" stroke-miterlimit="10"/>
<path d="M64.7093 33.2617H53.0668V44.9043H64.7093V33.2617Z" fill="white" stroke="black" stroke-width="5" stroke-miterlimit="10"/>
<path d="M84.7928 33.2617H73.1503V44.9043H84.7928V33.2617Z" fill="white" stroke="black" stroke-width="5" stroke-miterlimit="10"/>
<path d="M104.871 33.2617H93.2283V44.9043H104.871V33.2617Z" fill="white" stroke="black" stroke-width="5" stroke-miterlimit="10"/>
<path d="M24.5423 53.2729H12.8998V64.9155H24.5423V53.2729Z" fill="white" stroke="black" stroke-width="5" stroke-miterlimit="10"/>
<path d="M44.6258 53.2729H32.9833V64.9155H44.6258V53.2729Z" fill="white" stroke="black" stroke-width="5" stroke-miterlimit="10"/>
<path d="M64.7093 53.2729H53.0668V64.9155H64.7093V53.2729Z" fill="white" stroke="black" stroke-width="5" stroke-miterlimit="10"/>
<path d="M84.7928 53.2729H73.1503V64.9155H84.7928V53.2729Z" fill="white" stroke="black" stroke-width="5" stroke-miterlimit="10"/>
<path d="M104.871 53.2729H93.2283V64.9155H104.871V53.2729Z" fill="white" stroke="black" stroke-width="5" stroke-miterlimit="10"/>
<path d="M24.5423 73.2839H12.8998V84.9265H24.5423V73.2839Z" fill="white" stroke="black" stroke-width="5" stroke-miterlimit="10"/>
<path d="M44.6258 73.2839H32.9833V84.9265H44.6258V73.2839Z" fill="white" stroke="black" stroke-width="5" stroke-miterlimit="10"/>
<path d="M64.7093 73.2839H53.0668V84.9265H64.7093V73.2839Z" fill="white" stroke="black" stroke-width="5" stroke-miterlimit="10"/>
<path d="M84.7928 73.2839H73.1503V84.9265H84.7928V73.2839Z" fill="white" stroke="black" stroke-width="5" stroke-miterlimit="10"/>
<path d="M104.871 73.2839H93.2283V84.9265H104.871V73.2839Z" fill="white" stroke="black" stroke-width="5" stroke-miterlimit="10"/>
<path d="M129.988 84.9266C139.699 84.9266 147.571 77.0541 147.571 67.343C147.571 57.6319 139.699 49.7595 129.988 49.7595C120.277 49.7595 112.404 57.6319 112.404 67.343C112.404 77.0541 120.277 84.9266 129.988 84.9266Z" fill="white" stroke="black" stroke-width="5" stroke-miterlimit="10"/>
<path d="M129.988 59.0913V67.343H137.866" fill="white"/>
<path d="M129.988 59.0913V67.343H137.866" stroke="black" stroke-width="5" stroke-miterlimit="10"/>
</svg>
