<svg width="125" height="77" viewBox="0 0 125 77" fill="none" xmlns="http://www.w3.org/2000/svg">
<path d="M123.651 5.27979H2V75H123.651V5.27979Z" fill="white" stroke="black" stroke-width="2.5" stroke-miterlimit="10"/>
<path d="M2 17.9102H123.646" stroke="black" stroke-width="2.5" stroke-miterlimit="10"/>
<path d="M22.5413 2H15.7705V8.77084H22.5413V2Z" fill="white" stroke="black" stroke-width="2.5" stroke-miterlimit="10"/>
<path d="M109.876 2H103.105V8.77084H109.876V2Z" fill="white" stroke="black" stroke-width="2.5" stroke-miterlimit="10"/>
<path d="M19.033 25.9268H9.82764V35.1321H19.033V25.9268Z" fill="white" stroke="black" stroke-width="2.5" stroke-miterlimit="10"/>
<path d="M34.9121 25.9268H25.7068V35.1321H34.9121V25.9268Z" fill="white" stroke="black" stroke-width="2.5" stroke-miterlimit="10"/>
<path d="M50.7915 25.9268H41.5862V35.1321H50.7915V25.9268Z" fill="white" stroke="black" stroke-width="2.5" stroke-miterlimit="10"/>
<path d="M66.6709 25.9268H57.4656V35.1321H66.6709V25.9268Z" fill="white" stroke="black" stroke-width="2.5" stroke-miterlimit="10"/>
<path d="M82.5457 25.9268H73.3403V35.1321H82.5457V25.9268Z" fill="white" stroke="black" stroke-width="2.5" stroke-miterlimit="10"/>
<path d="M19.0327 41.749H9.82739V50.9544H19.0327V41.749Z" fill="white" stroke="black" stroke-width="2.5" stroke-miterlimit="10"/>
<path d="M34.9121 41.749H25.7068V50.9544H34.9121V41.749Z" fill="white" stroke="black" stroke-width="2.5" stroke-miterlimit="10"/>
<path d="M50.7915 41.749H41.5862V50.9544H50.7915V41.749Z" fill="white" stroke="black" stroke-width="2.5" stroke-miterlimit="10"/>
<path d="M66.6709 41.749H57.4656V50.9544H66.6709V41.749Z" fill="white" stroke="black" stroke-width="2.5" stroke-miterlimit="10"/>
<path d="M82.5457 41.749H73.3403V50.9544H82.5457V41.749Z" fill="white" stroke="black" stroke-width="2.5" stroke-miterlimit="10"/>
<path d="M19.0327 57.571H9.82739V66.7764H19.0327V57.571Z" fill="white" stroke="black" stroke-width="2.5" stroke-miterlimit="10"/>
<path d="M34.9121 57.571H25.7068V66.7764H34.9121V57.571Z" fill="white" stroke="black" stroke-width="2.5" stroke-miterlimit="10"/>
<path d="M50.7915 57.571H41.5862V66.7764H50.7915V57.571Z" fill="white" stroke="black" stroke-width="2.5" stroke-miterlimit="10"/>
<path d="M66.6709 57.571H57.4656V66.7764H66.6709V57.571Z" fill="white" stroke="black" stroke-width="2.5" stroke-miterlimit="10"/>
<path d="M82.5457 57.571H73.3403V66.7764H82.5457V57.571Z" fill="white" stroke="black" stroke-width="2.5" stroke-miterlimit="10"/>
<path d="M102.405 66.7763C110.083 66.7763 116.307 60.5519 116.307 52.8736C116.307 45.1954 110.083 38.9709 102.405 38.9709C94.7264 38.9709 88.502 45.1954 88.502 52.8736C88.502 60.5519 94.7264 66.7763 102.405 66.7763Z" fill="white" stroke="black" stroke-width="2.5" stroke-miterlimit="10"/>
<path d="M102.405 46.3494V52.8737H108.634" fill="white"/>
<path d="M102.405 46.3494V52.8737H108.634" stroke="black" stroke-width="2.5" stroke-miterlimit="10"/>
</svg>
