<svg width="232" height="129" viewBox="0 0 232 129" fill="none" xmlns="http://www.w3.org/2000/svg">
<g clip-path="url(#clip0)">
<path d="M133.07 36.8801C133.07 37.4401 132.61 37.85 131.18 38.03C130.44 38.13 129.65 38.1701 128.7 38.0801L125.97 37.8401C121.96 37.5101 117.94 37.2901 113.91 37.3801C109.95 37.4501 106.25 37.2 102.45 37.21C102.14 37.21 101.89 37.1001 101.61 37.0401C98.1301 37.2501 94.6701 37.5501 91.2301 37.9701C89.2501 38.2201 87.31 38.5 85.35 38.6C84.21 38.67 82.87 38.9701 81.63 39.2001C79.1 39.7201 76.6101 40.3701 74.1501 41.0901C73.3701 41.3401 72.6 41.58 71.82 41.8C71.05 42.03 70.2901 42.2801 69.5101 42.4801C68.2001 42.8701 66.82 43.43 65.53 44.05C62.46 45.51 59.5801 47.2801 57.0401 49.4001C54.6601 51.3501 52.5401 53.63 51.1301 56.42C49.7401 59.18 48.8501 62.21 48.5001 65.35C48.2801 67.09 48.2801 68.85 48.1601 70.52C48.1501 71.45 48.2801 72.55 48.5401 73.53C49.1101 76.0201 50.25 78.3301 51.92 80.2601C53.11 81.7001 54.5601 82.9401 56.1301 84.0401C57.7001 85.1501 59.3801 86.14 61.1501 87.03C61.7701 87.37 62.44 87.6401 63.14 87.9001C63.82 88.1701 64.53 88.4101 65.21 88.6601C67.66 89.5601 70.2501 89.8001 72.6601 90.4401C75.1901 91.1301 77.7401 91.52 80.3301 91.88C83.1101 92.28 85.91 92.48 88.63 93.02C89.63 93.21 90.86 93.2701 91.99 93.3301C95.01 93.5401 98.0401 93.6501 101.07 93.75C105.79 93.89 110.51 93.93 115.23 93.93C117.67 93.9201 120.08 93.89 122.5 94.06C124.06 94.17 125.86 94.0401 127.55 93.9801C129.62 93.9001 131.65 93.78 133.7 93.82C135.09 93.87 136.68 93.6801 138.17 93.5501C142.77 93.1001 147.36 92.4701 151.88 91.5801C156.41 90.7001 160.88 89.5401 165.18 87.9101C166.23 87.5201 167.27 87.0801 168.29 86.6901C168.74 86.5001 169.19 86.4701 169.64 86.3601C170.15 86.05 170.61 85.68 171.11 85.34C171.62 85.01 172.15 84.6701 172.77 84.3301C174.67 83.3101 176.48 82.0401 178.09 80.57C179.72 79.1101 181.05 77.21 182.01 75.21C182.9 73.37 183.46 71.38 183.67 69.35C183.87 67.13 183.7 64.87 183.23 62.69C182.62 59.96 181.48 57.3601 179.94 55.0201C179.04 53.59 177.97 52.32 177.02 50.98C176.5 50.29 175.82 49.57 175.14 48.94C172.33 46.43 169.21 44.2001 165.8 42.6101C165.31 42.3601 164.77 42.14 164.3 41.87C160.35 39.66 155.97 38.2701 151.61 37.0901C146.81 35.8201 141.91 34.9901 136.97 34.5601C134.34 34.3001 131.72 34.2701 129.13 33.9101C127.96 33.7401 126.49 33.81 125.18 33.85C124 33.93 122.87 33.91 121.77 33.89C120.67 33.87 119.59 33.8501 118.5 33.8301C117.37 33.8501 116.52 33.6801 115.81 33.4701C115.06 33.2501 114.87 32.9201 115.16 32.5401C115.59 31.9801 116.82 31.47 117.93 30.97C118.15 30.87 118.61 30.7801 118.97 30.7501L121.61 30.5301L124.26 30.39C126.95 30.24 129.66 30.3801 132.31 30.1501C133.31 30.0901 134.72 30.1301 135.75 30.3201C139.32 30.9301 142.99 31.3301 146.62 32.0401C147.77 32.2501 148.92 32.5101 150.03 32.8201C150.53 32.9601 150.92 33.2001 151.36 33.4101C153.85 33.9701 156.29 34.63 158.71 35.6C161.08 36.55 163.63 37.4401 165.86 38.7001C166.68 39.1201 167.48 39.54 168.27 39.96C169.07 40.37 169.85 40.82 170.54 41.37C172.72 42.47 174.59 43.9301 176.3 45.6801C177.2 46.5801 178.44 47.7001 179.45 48.5601C180.2 49.2801 180.96 49.98 181.6 50.82C181.93 51.23 182.26 51.64 182.57 52.07C182.86 52.5201 183.16 52.96 183.45 53.41C184.82 55.6101 185.91 58.0301 186.66 60.5601C187.68 64.1901 187.83 68.0101 186.99 71.6601C186.35 74.3001 185.23 76.82 183.92 79.0401C182.21 82 179.69 84.06 177.2 85.92C174.84 87.67 172.28 89.0501 169.69 90.1901C168.91 90.5301 168.24 90.66 167.66 90.71C166.68 91.25 165.75 91.8101 164.54 92.0801C163.7 92.2301 162.86 92.46 162.02 92.7C161.18 92.92 160.33 93.1701 159.49 93.4101C154.76 94.6701 149.99 95.58 145.21 96.2401C143.3 96.4901 141.39 96.7001 139.49 96.8201C138.5 96.9001 137.61 97.0301 136.67 97.1501C135.74 97.2601 134.68 97.3701 133.84 97.3201C131.98 97.2401 130.09 97.3501 128.18 97.4401C125.69 97.5301 123.2 97.6101 120.72 97.7001C117.29 97.8601 113.92 97.5601 110.5 97.6901C109.67 97.7201 108.74 97.4901 107.86 97.3801L103.37 97.2901C102.39 97.2601 101.55 97.1501 100.92 96.8901C100.55 96.8901 100.19 96.87 99.82 96.8501C93.2401 96.62 86.64 96.2201 80.06 95.3601C73.49 94.4801 66.8801 93.2301 60.5701 90.6601C59.85 90.3401 59.1201 90.0301 58.4001 89.6901C57.7201 89.3401 57.0001 89 56.3101 88.6C55.5901 88.16 55.0801 87.73 54.7201 87.28C50.8801 84.83 47.53 81.1901 45.89 76.7601C44.96 74.2901 44.52 71.66 44.76 69.13C44.89 67.69 44.9001 66.0301 45.1101 64.4801C45.5501 60.6801 46.8 56.9401 48.76 53.6301C50.69 50.2801 53.42 47.4901 56.42 45.1501C58.12 43.8601 59.91 42.69 61.85 41.92C62.81 41.51 63.91 40.96 64.95 40.4801C67.23 39.47 69.5601 38.54 71.93 37.8C76.7901 36.21 81.79 35.1801 86.81 34.3801C88.66 34.1001 90.51 33.85 92.34 33.51C92.97 33.39 93.7701 33.4201 94.5 33.4101C95.0401 33.3101 95.62 33.13 96.1101 33.12C99.71 33.04 103.32 32.7001 106.93 32.6301C107.69 32.6101 108.47 32.5901 109.2 32.6301C109.72 32.6601 110.15 32.79 110.62 32.87C111.74 32.85 112.87 32.8801 113.98 32.8401C118.45 32.6801 122.41 33.3301 126.16 34.2501C126.31 34.2901 126.39 34.3501 126.51 34.4101C127.05 34.4901 127.66 34.55 128.12 34.67C129.08 34.93 129.9 35.26 130.86 35.53C132.26 35.92 133.07 36.3601 133.07 36.8801ZM128.43 36.4001C128.53 36.3901 128.63 36.3801 128.74 36.3801L128.72 36.37C128.68 36.38 128.61 36.37 128.53 36.37L128.43 36.4001Z" fill="black"/>
</g>
<defs>
<clipPath id="clip0">
<rect width="231.14" height="128.52" fill="white"/>
</clipPath>
</defs>
</svg>
