<svg width="143" height="68" viewBox="0 0 143 68" fill="none" xmlns="http://www.w3.org/2000/svg">
<path d="M88.3746 6.75578C88.3746 7.31578 87.9146 7.72578 86.4846 7.90578C85.7446 8.00578 84.9546 8.04578 84.0046 7.95578L81.2746 7.71578C77.2646 7.38578 73.2446 7.16578 69.2146 7.25578C65.2546 7.32578 61.5546 7.07578 57.7546 7.08578C57.4446 7.08578 57.1946 6.97578 56.9146 6.91578C53.4346 7.12578 49.9746 7.42578 46.5346 7.84578C44.5546 8.09578 42.6146 8.37578 40.6546 8.47578C39.5146 8.54578 38.1746 8.84578 36.9346 9.07578C34.4046 9.59578 31.9146 10.2458 29.4546 10.9658C28.6746 11.2158 27.9046 11.4558 27.1246 11.6758C26.3546 11.9058 25.5946 12.1558 24.8146 12.3558C23.5046 12.7458 22.1246 13.3058 20.8346 13.9258C17.7646 15.3858 14.8846 17.1558 12.3446 19.2758C9.96462 21.2258 7.84462 23.5058 6.43462 26.2958C5.04462 29.0558 4.15462 32.0858 3.80462 35.2258C3.58462 36.9658 3.58462 38.7258 3.46462 40.3958C3.45462 41.3258 3.58462 42.4258 3.84462 43.4058C4.41462 45.8958 5.55461 48.2058 7.22461 50.1358C8.41461 51.5758 9.86462 52.8158 11.4346 53.9158C13.0046 55.0258 14.6846 56.0158 16.4546 56.9058C17.0746 57.2458 17.7446 57.5158 18.4446 57.7758C19.1246 58.0458 19.8346 58.2858 20.5146 58.5358C22.9646 59.4358 25.5546 59.6758 27.9646 60.3158C30.4946 61.0058 33.0446 61.3958 35.6346 61.7558C38.4146 62.1558 41.2146 62.3558 43.9346 62.8958C44.9346 63.0858 46.1646 63.1458 47.2946 63.2058C50.3146 63.4158 53.3446 63.5258 56.3746 63.6258C61.0946 63.7658 65.8146 63.8058 70.5346 63.8058C72.9746 63.7958 75.3846 63.7658 77.8046 63.9358C79.3646 64.0458 81.1646 63.9158 82.8546 63.8558C84.9246 63.7758 86.9546 63.6558 89.0046 63.6958C90.3946 63.7458 91.9846 63.5558 93.4746 63.4258C98.0746 62.9758 102.665 62.3458 107.185 61.4558C111.715 60.5758 116.185 59.4158 120.485 57.7858C121.535 57.3958 122.575 56.9558 123.595 56.5658C124.045 56.3758 124.495 56.3458 124.945 56.2358C125.455 55.9258 125.915 55.5558 126.415 55.2158C126.925 54.8858 127.455 54.5458 128.075 54.2058C129.975 53.1858 131.785 51.9158 133.395 50.4458C135.025 48.9858 136.355 47.0858 137.315 45.0858C138.205 43.2458 138.765 41.2558 138.975 39.2258C139.175 37.0058 139.005 34.7458 138.535 32.5658C137.925 29.8358 136.785 27.2358 135.245 24.8958C134.345 23.4658 133.275 22.1958 132.325 20.8558C131.805 20.1658 131.125 19.4458 130.445 18.8158C127.635 16.3058 124.515 14.0758 121.105 12.4858C120.615 12.2358 120.075 12.0158 119.605 11.7458C115.655 9.53578 111.275 8.14578 106.915 6.96578C102.115 5.69578 97.2146 4.86578 92.2746 4.43578C89.6446 4.17578 87.0246 4.14578 84.4346 3.78578C83.2646 3.61578 81.7946 3.68578 80.4846 3.72578C79.3046 3.80578 78.1746 3.78578 77.0746 3.76578C75.9746 3.74578 74.8946 3.72578 73.8046 3.70578C72.6746 3.72578 71.8246 3.55578 71.1146 3.34578C70.3646 3.12578 70.1746 2.79578 70.4646 2.41578C70.8946 1.85578 72.1246 1.34578 73.2346 0.845782C73.4546 0.745782 73.9146 0.655783 74.2746 0.625783L76.9146 0.405784L79.5646 0.265782C82.2546 0.115782 84.9646 0.255782 87.6146 0.0257824C88.6146 -0.0342176 90.0246 0.0057825 91.0546 0.195782C94.6246 0.805782 98.2946 1.20578 101.925 1.91578C103.075 2.12578 104.225 2.38578 105.335 2.69578C105.835 2.83578 106.225 3.07578 106.665 3.28578C109.155 3.84578 111.595 4.50578 114.015 5.47578C116.385 6.42578 118.935 7.31578 121.165 8.57578C121.985 8.99578 122.785 9.41578 123.575 9.83578C124.375 10.2458 125.155 10.6958 125.845 11.2458C128.025 12.3458 129.895 13.8058 131.605 15.5558C132.505 16.4558 133.745 17.5758 134.755 18.4358C135.505 19.1558 136.265 19.8558 136.905 20.6958C137.235 21.1058 137.565 21.5158 137.875 21.9458C138.165 22.3958 138.465 22.8358 138.755 23.2858C140.125 25.4858 141.215 27.9058 141.965 30.4358C142.985 34.0658 143.135 37.8858 142.295 41.5358C141.655 44.1758 140.535 46.6958 139.225 48.9158C137.515 51.8758 134.995 53.9358 132.505 55.7958C130.145 57.5458 127.585 58.9258 124.995 60.0658C124.215 60.4058 123.545 60.5358 122.965 60.5858C121.985 61.1258 121.055 61.6858 119.845 61.9558C119.005 62.1058 118.165 62.3358 117.325 62.5758C116.485 62.7958 115.635 63.0458 114.795 63.2858C110.065 64.5458 105.295 65.4558 100.515 66.1158C98.6046 66.3658 96.6946 66.5758 94.7946 66.6958C93.8046 66.7758 92.9146 66.9058 91.9746 67.0258C91.0446 67.1358 89.9846 67.2458 89.1446 67.1958C87.2846 67.1158 85.3946 67.2258 83.4846 67.3158C80.9946 67.4058 78.5046 67.4858 76.0246 67.5758C72.5946 67.7358 69.2246 67.4358 65.8046 67.5658C64.9746 67.5958 64.0446 67.3658 63.1646 67.2558L58.6746 67.1658C57.6946 67.1358 56.8546 67.0258 56.2246 66.7658C55.8546 66.7658 55.4946 66.7458 55.1246 66.7258C48.5446 66.4958 41.9446 66.0958 35.3646 65.2358C28.7946 64.3558 22.1846 63.1058 15.8746 60.5358C15.1546 60.2158 14.4246 59.9058 13.7046 59.5658C13.0246 59.2158 12.3046 58.8758 11.6146 58.4758C10.8946 58.0358 10.3846 57.6058 10.0246 57.1558C6.18462 54.7058 2.83462 51.0658 1.19462 46.6358C0.264615 44.1658 -0.175386 41.5358 0.0646141 39.0058C0.194614 37.5658 0.204616 35.9058 0.414616 34.3558C0.854616 30.5558 2.10461 26.8158 4.06461 23.5058C5.99461 20.1558 8.72461 17.3658 11.7246 15.0258C13.4246 13.7358 15.2146 12.5658 17.1546 11.7958C18.1146 11.3858 19.2146 10.8358 20.2546 10.3558C22.5346 9.34578 24.8646 8.41578 27.2346 7.67578C32.0946 6.08578 37.0946 5.05578 42.1146 4.25578C43.9646 3.97578 45.8146 3.72578 47.6446 3.38578C48.2746 3.26578 49.0746 3.29578 49.8046 3.28578C50.3446 3.18578 50.9246 3.00578 51.4146 2.99578C55.0146 2.91578 58.6246 2.57578 62.2346 2.50578C62.9946 2.48578 63.7746 2.46578 64.5046 2.50578C65.0246 2.53578 65.4546 2.66578 65.9246 2.74578C67.0446 2.72578 68.1746 2.75578 69.2846 2.71578C73.7546 2.55578 77.7146 3.20578 81.4646 4.12578C81.6146 4.16578 81.6946 4.22578 81.8146 4.28578C82.3546 4.36578 82.9646 4.42578 83.4246 4.54578C84.3846 4.80578 85.2046 5.13578 86.1646 5.40578C87.5646 5.79578 88.3746 6.23578 88.3746 6.75578ZM83.7346 6.27578C83.8346 6.26578 83.9346 6.25578 84.0446 6.25578L84.0246 6.24578C83.9846 6.25578 83.9146 6.24578 83.8346 6.24578L83.7346 6.27578Z" fill="black"/>
</svg>
