<svg width="36" height="127" viewBox="0 0 36 127" fill="none" xmlns="http://www.w3.org/2000/svg">
<path d="M34.9393 44.8155C34.4693 45.1055 33.9994 45.2355 33.4894 45.0655C33.2194 44.9755 32.9994 44.8455 32.8495 44.6155L32.4495 43.9455C31.8895 42.9454 31.3696 41.9054 30.7496 40.9454C30.1497 40.0053 29.9497 38.9153 29.5897 37.8852C29.5598 37.8052 29.6397 37.6752 29.6697 37.5752L28.2299 34.9952C27.9499 34.4951 27.6899 34.0051 27.6099 33.4151C27.5699 33.0651 27.33 32.7551 27.18 32.4251L26.1001 30.485C25.8701 30.065 25.6801 29.645 25.5901 29.165C25.5101 28.7549 25.3001 28.3749 25.1002 28.0049C24.6402 27.1249 24.1302 26.2649 23.7503 25.3348C23.3903 24.4648 23.1003 23.5648 22.5804 22.7647C22.0604 21.9647 21.6405 21.1147 21.1805 20.2846C20.9205 19.8246 20.6806 19.3646 20.6106 18.8146C20.5706 18.5046 20.4006 18.2146 20.2506 17.9446C19.8806 17.2445 19.4907 16.5545 19.1007 15.8645C18.5208 14.8645 17.9708 13.8444 17.6408 12.7244C17.5308 12.3444 17.2109 11.9044 17.1809 11.7343C17.0309 11.2543 16.5409 11.2543 16.4609 10.7843C16.351 10.2543 16.121 9.90429 15.921 9.49427C15.691 9.03426 15.481 8.80425 15.261 7.75421C15.1711 7.3642 15.0611 7.24419 14.9611 7.06419L14.5411 6.30416L14.3311 5.93415C14.2611 5.81414 14.2111 5.65414 14.0512 5.63414C13.9412 5.61414 13.8212 5.65414 13.7612 5.74414C13.7012 5.83414 13.7012 5.95415 13.6712 6.06415L13.5612 6.71417L13.3012 8.00422C13.2212 8.41423 13.1412 8.80425 12.9213 8.97425L12.8613 9.01426C12.6813 9.12426 12.6613 9.58427 12.5713 9.90429C12.4713 10.3143 12.4013 10.7143 12.1213 11.0243C11.9313 11.2443 11.8914 11.6343 11.8214 11.9744L10.3315 19.4446C10.2715 19.7546 10.2015 20.0646 10.0915 20.3546C10.0415 20.4846 9.86154 20.5647 9.74155 20.6747C9.83154 21.0347 9.96153 21.3747 9.81154 21.7547C9.58156 22.3247 9.43158 22.9347 9.2016 23.5148C8.98162 24.0948 8.93162 24.7448 8.81163 25.3548L8.47167 27.0549L8.1117 28.9049L7.65174 31.225C7.56174 31.685 7.46175 32.1451 7.19178 32.5551C7.05179 32.7751 6.9618 33.0351 6.91181 33.2851C6.73182 34.3151 6.41185 35.3252 6.39186 36.3852C6.39186 36.5352 6.37186 36.7052 6.31186 36.8452C5.8419 38.0253 5.75192 39.2953 5.47194 40.5253L4.67201 44.5755C4.53202 45.2955 4.45203 46.0155 4.00207 46.6656C3.80209 46.9556 3.7521 47.3556 3.7121 47.7156C3.64211 48.3656 3.25214 48.8856 2.94216 49.4357C2.78218 49.7157 2.48221 49.8957 2.17224 50.0257C1.84227 50.1657 1.4923 50.1357 1.17233 49.9757C0.692372 49.7457 0.4024 49.3357 0.0724295 48.9556C0.012435 48.8856 -0.00756291 48.7456 0.00243618 48.6556L0.232411 47.2556C0.322403 46.5456 0.582377 45.8555 0.402394 45.0955C0.3324 44.8155 0.402395 44.4455 0.552382 44.1955C1.09233 43.3254 1.19232 42.3354 1.4023 41.3854C1.4723 41.0854 1.5323 40.7754 1.64229 40.4853C1.69228 40.3553 1.86226 40.2653 1.98225 40.1653C2.04225 39.4853 2.13224 38.8253 2.36222 38.1653C2.5922 37.5252 2.5922 36.8052 2.85218 36.1752C3.03216 35.7252 2.93217 35.2252 3.20214 34.8151C3.14215 34.1551 3.33213 33.5851 3.6721 33.0151C3.85209 32.7151 3.87208 32.2951 3.81209 31.935C3.7221 31.385 3.81209 30.875 3.91208 30.365C4.03207 29.745 4.18206 29.1249 4.28205 28.4949C4.42203 27.6049 4.66201 26.7349 5.00198 25.9148C5.25196 25.3148 5.45194 24.7048 5.46194 24.0848C5.47194 23.2747 5.84191 22.5547 5.96189 21.7847C6.07188 21.0547 6.25186 20.3346 6.40185 19.6146C6.45184 19.3946 6.61183 19.2546 6.81182 19.1446C6.75182 18.8346 6.58183 18.5146 6.80181 18.2246C7.11179 17.8246 7.17178 17.3545 7.27177 16.8945L8.04171 13.0244C8.0917 12.7644 8.1517 12.5144 8.22169 12.2644C8.31168 11.9444 8.40167 11.6243 8.49166 11.3043C8.61165 10.8843 8.62165 10.4643 8.68165 10.0343C8.74164 9.60428 8.82163 9.11426 8.98162 8.81425C9.35158 8.15423 9.49157 7.3642 9.66156 6.55417C9.84154 5.67414 10.0415 4.84411 10.1915 3.94408L10.3015 3.41406C10.6715 2.07401 11.3314 1.78401 11.6814 0.943976C11.7714 0.75397 11.9613 0.873972 12.0913 0.84397L12.5613 0.113946C12.6613 -0.0460599 13.0313 -0.0560601 13.2412 0.203949C13.3512 0.203949 13.4512 0.24395 13.5112 0.293952L15.0611 1.81401C15.631 2.42403 16.311 3.06405 16.9409 4.25409L20.5906 10.7743L21.1905 11.8844C21.2905 12.0844 21.2605 12.2944 21.1805 12.5044L22.9404 15.6745C23.2703 16.2745 23.6103 16.8545 23.7203 17.5546C23.7803 17.9546 24.0503 18.3246 24.2502 18.6946L27.25 24.0648C27.5299 24.5648 27.8199 25.0648 27.8899 25.6648C27.9299 25.9648 28.1099 26.2548 28.2499 26.5349L29.2398 28.3349L31.2996 32.005C31.5496 32.4551 31.7895 32.9151 32.1795 33.2851C32.3095 33.4151 32.2995 33.6751 32.3495 33.8751C32.4695 33.9851 32.6595 34.0651 32.6995 34.1951C32.9894 35.1752 33.5794 35.9852 34.0293 36.8852C34.1193 37.0752 34.2393 37.2552 34.2793 37.4652C34.3093 37.6052 34.2493 37.7852 34.2293 37.9353C34.3793 38.2053 34.5093 38.4953 34.6893 38.7453C35.4192 39.7553 35.5492 40.9354 35.5392 42.1654C35.5392 42.2154 35.4992 42.2654 35.4792 42.3154C35.5192 42.4654 35.6092 42.6154 35.5992 42.7654C35.5892 43.0854 35.4992 43.4054 35.4992 43.7255C35.5392 44.1755 35.3892 44.5455 34.9393 44.8155ZM34.2393 43.6955C34.2693 43.7055 34.2993 43.7255 34.3293 43.7455C34.3093 43.7355 34.2993 43.7255 34.2893 43.7055L34.2393 43.6955Z" fill="black"/>
<path d="M12.8014 126.988C12.2615 126.918 11.8115 126.698 11.5315 126.138C11.3815 125.848 11.2916 125.548 11.3315 125.208L11.4615 124.238C11.6815 122.818 11.9615 121.398 12.1215 119.968C12.2715 118.578 12.8214 117.338 13.2314 116.038C13.2614 115.938 13.4014 115.868 13.4914 115.778L13.7713 113.948L13.9813 112.108C14.0613 111.398 14.1513 110.708 14.4613 110.038C14.6413 109.648 14.6413 109.158 14.7212 108.708L15.0412 105.938C15.1112 105.348 15.2212 104.768 15.4412 104.208C15.6212 103.728 15.6912 103.178 15.7611 102.658C15.9511 101.417 15.9711 100.157 16.2011 98.9174C16.4011 97.7573 16.6711 96.6073 16.7011 95.3973C16.7311 94.2072 16.871 93.0072 16.961 91.8171C17.011 91.1571 17.071 90.5071 17.321 89.8671C17.451 89.5171 17.461 89.087 17.481 88.697C17.531 87.697 17.571 86.697 17.601 85.7069C17.641 84.2469 17.711 82.7968 18.0309 81.3568C18.1409 80.8468 18.1009 80.2967 18.1709 79.7667C18.3209 78.8267 17.891 77.8967 18.0509 77.0066C18.2209 76.0766 18.1909 75.1566 18.2209 74.2265C18.2509 73.2365 18.1809 72.2365 18.5009 71.2664C18.6209 70.9064 18.5709 70.4764 18.5809 70.0764C18.5909 69.0063 18.6109 67.9363 18.5609 66.8763L18.4109 61.8961C18.3909 61.0361 18.3509 60.186 18.5709 59.326C18.7009 58.776 18.6309 58.136 18.6209 57.5459C18.6009 56.8159 18.5409 56.1059 18.7109 55.3759C18.8209 54.8859 18.7609 54.3258 18.7309 53.7958L18.4409 48.9157C18.3209 47.2856 18.1509 45.6655 18.0209 44.0455C17.9809 43.6455 17.951 43.2454 17.971 42.8554C17.981 42.6754 18.1209 42.5154 18.2009 42.3454C18.0009 41.9354 17.771 41.5654 17.801 41.0554C17.851 40.2754 17.811 39.4853 17.821 38.7053C17.841 37.9153 17.661 37.1152 17.571 36.3252L17.311 34.1451L17.021 31.7651L16.5911 28.805C16.5111 28.2149 16.4311 27.6249 16.5311 27.0249C16.5811 26.7149 16.5711 26.3549 16.5211 26.0349C16.3211 24.7248 16.1911 23.3848 15.7911 22.1147C15.7312 21.9247 15.6812 21.7247 15.6812 21.5347C15.6412 19.9246 15.2212 18.3746 14.9412 16.8045C14.6113 15.0945 14.2813 13.3744 13.8913 11.6744C13.6913 10.7643 13.4514 9.87429 13.5414 8.91426C13.5813 8.48424 13.4314 7.98423 13.3014 7.54421C13.0614 6.74418 13.1414 5.96416 13.1414 5.16413C13.1414 4.75411 13.3114 4.4041 13.5214 4.08409C13.7413 3.75408 14.0613 3.60408 14.4213 3.62408C14.9612 3.65408 15.4512 4.02409 15.9211 4.3141C16.0111 4.3741 16.1011 4.5141 16.1411 4.64411C16.3211 5.24413 16.4911 5.84415 16.6411 6.43417C16.901 7.3342 17.011 8.28424 17.531 9.09426C17.721 9.40428 17.831 9.87429 17.811 10.2443C17.721 11.5344 18.1009 12.7644 18.3109 14.0144C18.3809 14.4045 18.4609 14.8045 18.4809 15.2045C18.4909 15.3845 18.3709 15.5645 18.3109 15.7345C18.5409 16.5745 18.7609 17.4146 18.8209 18.3046C18.8709 19.1746 19.1508 20.0546 19.1708 20.9247C19.1808 21.5447 19.4808 22.1047 19.4008 22.7247C19.7208 23.4948 19.7808 24.2648 19.6708 25.0948C19.6208 25.5248 19.7508 26.0549 19.9408 26.4649C20.2307 27.0949 20.3307 27.7549 20.4307 28.4249C20.5507 29.235 20.6407 30.045 20.7807 30.845C20.9807 31.9851 21.0307 33.1451 20.9907 34.2851C20.9607 35.1152 20.9807 35.9352 21.1807 36.7052C21.4406 37.7153 21.3506 38.7153 21.4806 39.7153C21.6006 40.6554 21.6506 41.6054 21.7206 42.5554C21.7406 42.8354 21.6306 43.0754 21.4706 43.2755C21.6206 43.6355 21.8806 43.9755 21.7606 44.4055C21.5806 44.9955 21.6706 45.5955 21.7206 46.2056C21.8906 47.8856 21.9906 49.5657 22.0806 51.2457C22.1206 51.9158 22.1306 52.5858 22.1006 53.2558C22.0906 53.6058 22.1706 53.9158 22.2206 54.2458C22.2606 54.5758 22.3106 54.9459 22.2206 55.2359C22.0306 55.8959 22.0806 56.5559 22.1106 57.2259C22.1606 58.096 22.1206 58.976 22.2006 59.846C22.3106 61.0461 22.0706 62.2461 22.2406 63.4462C22.2806 63.7362 22.0806 64.0762 21.9906 64.3862L22.0306 65.9662C22.0406 66.3063 21.9606 66.6163 21.7306 66.8363C21.7406 66.9663 21.7406 67.0963 21.7406 67.2263C21.7806 69.5464 21.7406 71.8664 21.7406 74.1865C21.7306 76.5066 21.7606 78.8267 21.6306 81.1368L21.5506 82.7468C21.5306 83.0268 21.3906 83.2468 21.2107 83.4269L21.0207 88.057C20.9807 88.927 20.9807 89.7871 20.6707 90.6271C20.4907 91.1071 20.5007 91.6771 20.4607 92.2072L19.8708 100.027C19.8108 100.757 19.7708 101.487 19.4808 102.178C19.3208 102.528 19.2908 102.948 19.2408 103.348L18.9309 105.938L18.3309 111.258C18.2609 111.908 18.1709 112.558 18.2409 113.228C18.2709 113.458 18.1009 113.718 18.0209 113.968C18.0509 114.168 18.1509 114.388 18.1009 114.558C17.691 115.778 17.601 117.048 17.361 118.298C17.311 118.558 17.271 118.838 17.181 119.078C17.111 119.248 16.951 119.378 16.831 119.528C16.7711 119.918 16.6811 120.308 16.6511 120.698C16.5511 122.268 15.8711 123.578 15.0712 124.808C15.0412 124.858 14.9712 124.878 14.9212 124.908C14.8612 125.098 14.8212 125.308 14.7212 125.458C14.5013 125.768 14.2313 126.028 14.0113 126.348C13.6813 126.808 13.3214 127.058 12.8014 126.988ZM12.9914 125.338C13.0014 125.378 13.0114 125.418 13.0214 125.458L13.0314 125.448C13.0214 125.428 13.0214 125.408 13.0314 125.378L12.9914 125.338Z" fill="black"/>
<path d="M34.9393 44.8155C34.4693 45.1055 33.9994 45.2355 33.4894 45.0655C33.2194 44.9755 32.9994 44.8455 32.8495 44.6155L32.4495 43.9455C31.8895 42.9454 31.3696 41.9054 30.7496 40.9454C30.1497 40.0053 29.9497 38.9153 29.5897 37.8852C29.5598 37.8052 29.6397 37.6752 29.6697 37.5752L28.2299 34.9952C27.9499 34.4951 27.6899 34.0051 27.6099 33.4151C27.5699 33.0651 27.33 32.7551 27.18 32.4251L26.1001 30.485C25.8701 30.065 25.6801 29.645 25.5901 29.165C25.5101 28.7549 25.3001 28.3749 25.1002 28.0049C24.6402 27.1249 24.1302 26.2649 23.7503 25.3348C23.3903 24.4648 23.1003 23.5648 22.5804 22.7647C22.0604 21.9647 21.6405 21.1147 21.1805 20.2846C20.9205 19.8246 20.6806 19.3646 20.6106 18.8146C20.5706 18.5046 20.4006 18.2146 20.2506 17.9446C19.8806 17.2445 19.4907 16.5545 19.1007 15.8645C18.5208 14.8645 17.9708 13.8444 17.6408 12.7244C17.5308 12.3444 17.2109 11.9044 17.1809 11.7343C17.0309 11.2543 16.5409 11.2543 16.4609 10.7843C16.351 10.2543 16.121 9.90429 15.921 9.49427C15.691 9.03426 15.481 8.80425 15.261 7.75421C15.1711 7.3642 15.0611 7.24419 14.9611 7.06419L14.5411 6.30416L14.3311 5.93415C14.2611 5.81414 14.2111 5.65414 14.0512 5.63414C13.9412 5.61414 13.8212 5.65414 13.7612 5.74414C13.7012 5.83414 13.7012 5.95415 13.6712 6.06415L13.5612 6.71417L13.3012 8.00422C13.2212 8.41423 13.1412 8.80425 12.9213 8.97425L12.8613 9.01426C12.6813 9.12426 12.6613 9.58427 12.5713 9.90429C12.4713 10.3143 12.4013 10.7143 12.1213 11.0243C11.9313 11.2443 11.8914 11.6343 11.8214 11.9744L10.3315 19.4446C10.2715 19.7546 10.2015 20.0646 10.0915 20.3546C10.0415 20.4846 9.86154 20.5647 9.74155 20.6747C9.83154 21.0347 9.96153 21.3747 9.81154 21.7547C9.58156 22.3247 9.43158 22.9347 9.2016 23.5148C8.98162 24.0948 8.93162 24.7448 8.81163 25.3548L8.47167 27.0549L8.1117 28.9049L7.65174 31.225C7.56174 31.685 7.46175 32.1451 7.19178 32.5551C7.05179 32.7751 6.9618 33.0351 6.91181 33.2851C6.73182 34.3151 6.41185 35.3252 6.39186 36.3852C6.39186 36.5352 6.37186 36.7052 6.31186 36.8452C5.8419 38.0253 5.75192 39.2953 5.47194 40.5253L4.67201 44.5755C4.53202 45.2955 4.45203 46.0155 4.00207 46.6656C3.80209 46.9556 3.7521 47.3556 3.7121 47.7156C3.64211 48.3656 3.25214 48.8856 2.94216 49.4357C2.78218 49.7157 2.48221 49.8957 2.17224 50.0257C1.84227 50.1657 1.4923 50.1357 1.17233 49.9757C0.692372 49.7457 0.4024 49.3357 0.0724295 48.9556C0.012435 48.8856 -0.00756291 48.7456 0.00243618 48.6556L0.232411 47.2556C0.322403 46.5456 0.582377 45.8555 0.402394 45.0955C0.3324 44.8155 0.402395 44.4455 0.552382 44.1955C1.09233 43.3254 1.19232 42.3354 1.4023 41.3854C1.4723 41.0854 1.5323 40.7754 1.64229 40.4853C1.69228 40.3553 1.86226 40.2653 1.98225 40.1653C2.04225 39.4853 2.13224 38.8253 2.36222 38.1653C2.5922 37.5252 2.5922 36.8052 2.85218 36.1752C3.03216 35.7252 2.93217 35.2252 3.20214 34.8151C3.14215 34.1551 3.33213 33.5851 3.6721 33.0151C3.85209 32.7151 3.87208 32.2951 3.81209 31.935C3.7221 31.385 3.81209 30.875 3.91208 30.365C4.03207 29.745 4.18206 29.1249 4.28205 28.4949C4.42203 27.6049 4.66201 26.7349 5.00198 25.9148C5.25196 25.3148 5.45194 24.7048 5.46194 24.0848C5.47194 23.2747 5.84191 22.5547 5.96189 21.7847C6.07188 21.0547 6.25186 20.3346 6.40185 19.6146C6.45184 19.3946 6.61183 19.2546 6.81182 19.1446C6.75182 18.8346 6.58183 18.5146 6.80181 18.2246C7.11179 17.8246 7.17178 17.3545 7.27177 16.8945L8.04171 13.0244C8.0917 12.7644 8.1517 12.5144 8.22169 12.2644C8.31168 11.9444 8.40167 11.6243 8.49166 11.3043C8.61165 10.8843 8.62165 10.4643 8.68165 10.0343C8.74164 9.60428 8.82163 9.11426 8.98162 8.81425C9.35158 8.15423 9.49157 7.3642 9.66156 6.55417C9.84154 5.67414 10.0415 4.84411 10.1915 3.94408L10.3015 3.41406C10.6715 2.07401 11.3314 1.78401 11.6814 0.943976C11.7714 0.75397 11.9613 0.873972 12.0913 0.84397L12.5613 0.113946C12.6613 -0.0460599 13.0313 -0.0560601 13.2412 0.203949C13.3512 0.203949 13.4512 0.24395 13.5112 0.293952L15.0611 1.81401C15.631 2.42403 16.311 3.06405 16.9409 4.25409L20.5906 10.7743L21.1905 11.8844C21.2905 12.0844 21.2605 12.2944 21.1805 12.5044L22.9404 15.6745C23.2703 16.2745 23.6103 16.8545 23.7203 17.5546C23.7803 17.9546 24.0503 18.3246 24.2502 18.6946L27.25 24.0648C27.5299 24.5648 27.8199 25.0648 27.8899 25.6648C27.9299 25.9648 28.1099 26.2548 28.2499 26.5349L29.2398 28.3349L31.2996 32.005C31.5496 32.4551 31.7895 32.9151 32.1795 33.2851C32.3095 33.4151 32.2995 33.6751 32.3495 33.8751C32.4695 33.9851 32.6595 34.0651 32.6995 34.1951C32.9894 35.1752 33.5794 35.9852 34.0293 36.8852C34.1193 37.0752 34.2393 37.2552 34.2793 37.4652C34.3093 37.6052 34.2493 37.7852 34.2293 37.9353C34.3793 38.2053 34.5093 38.4953 34.6893 38.7453C35.4192 39.7553 35.5492 40.9354 35.5392 42.1654C35.5392 42.2154 35.4992 42.2654 35.4792 42.3154C35.5192 42.4654 35.6092 42.6154 35.5992 42.7654C35.5892 43.0854 35.4992 43.4054 35.4992 43.7255C35.5392 44.1755 35.3892 44.5455 34.9393 44.8155ZM34.2393 43.6955C34.2693 43.7055 34.2993 43.7255 34.3293 43.7455C34.3093 43.7355 34.2993 43.7255 34.2893 43.7055L34.2393 43.6955Z" fill="black"/>
<path d="M12.8014 126.988C12.2615 126.918 11.8115 126.698 11.5315 126.138C11.3815 125.848 11.2916 125.548 11.3315 125.208L11.4615 124.238C11.6815 122.818 11.9615 121.398 12.1215 119.968C12.2715 118.578 12.8214 117.338 13.2314 116.038C13.2614 115.938 13.4014 115.868 13.4914 115.778L13.7713 113.948L13.9813 112.108C14.0613 111.398 14.1513 110.708 14.4613 110.038C14.6413 109.648 14.6413 109.158 14.7212 108.708L15.0412 105.938C15.1112 105.348 15.2212 104.768 15.4412 104.208C15.6212 103.728 15.6912 103.178 15.7611 102.658C15.9511 101.417 15.9711 100.157 16.2011 98.9174C16.4011 97.7573 16.6711 96.6073 16.7011 95.3973C16.7311 94.2072 16.871 93.0072 16.961 91.8171C17.011 91.1571 17.071 90.5071 17.321 89.8671C17.451 89.5171 17.461 89.087 17.481 88.697C17.531 87.697 17.571 86.697 17.601 85.7069C17.641 84.2469 17.711 82.7968 18.0309 81.3568C18.1409 80.8468 18.1009 80.2967 18.1709 79.7667C18.3209 78.8267 17.891 77.8967 18.0509 77.0066C18.2209 76.0766 18.1909 75.1566 18.2209 74.2265C18.2509 73.2365 18.1809 72.2365 18.5009 71.2664C18.6209 70.9064 18.5709 70.4764 18.5809 70.0764C18.5909 69.0063 18.6109 67.9363 18.5609 66.8763L18.4109 61.8961C18.3909 61.0361 18.3509 60.186 18.5709 59.326C18.7009 58.776 18.6309 58.136 18.6209 57.5459C18.6009 56.8159 18.5409 56.1059 18.7109 55.3759C18.8209 54.8859 18.7609 54.3258 18.7309 53.7958L18.4409 48.9157C18.3209 47.2856 18.1509 45.6655 18.0209 44.0455C17.9809 43.6455 17.951 43.2454 17.971 42.8554C17.981 42.6754 18.1209 42.5154 18.2009 42.3454C18.0009 41.9354 17.771 41.5654 17.801 41.0554C17.851 40.2754 17.811 39.4853 17.821 38.7053C17.841 37.9153 17.661 37.1152 17.571 36.3252L17.311 34.1451L17.021 31.7651L16.5911 28.805C16.5111 28.2149 16.4311 27.6249 16.5311 27.0249C16.5811 26.7149 16.5711 26.3549 16.5211 26.0349C16.3211 24.7248 16.1911 23.3848 15.7911 22.1147C15.7312 21.9247 15.6812 21.7247 15.6812 21.5347C15.6412 19.9246 15.2212 18.3746 14.9412 16.8045C14.6113 15.0945 14.2813 13.3744 13.8913 11.6744C13.6913 10.7643 13.4514 9.87429 13.5414 8.91426C13.5813 8.48424 13.4314 7.98423 13.3014 7.54421C13.0614 6.74418 13.1414 5.96416 13.1414 5.16413C13.1414 4.75411 13.3114 4.4041 13.5214 4.08409C13.7413 3.75408 14.0613 3.60408 14.4213 3.62408C14.9612 3.65408 15.4512 4.02409 15.9211 4.3141C16.0111 4.3741 16.1011 4.5141 16.1411 4.64411C16.3211 5.24413 16.4911 5.84415 16.6411 6.43417C16.901 7.3342 17.011 8.28424 17.531 9.09426C17.721 9.40428 17.831 9.87429 17.811 10.2443C17.721 11.5344 18.1009 12.7644 18.3109 14.0144C18.3809 14.4045 18.4609 14.8045 18.4809 15.2045C18.4909 15.3845 18.3709 15.5645 18.3109 15.7345C18.5409 16.5745 18.7609 17.4146 18.8209 18.3046C18.8709 19.1746 19.1508 20.0546 19.1708 20.9247C19.1808 21.5447 19.4808 22.1047 19.4008 22.7247C19.7208 23.4948 19.7808 24.2648 19.6708 25.0948C19.6208 25.5248 19.7508 26.0549 19.9408 26.4649C20.2307 27.0949 20.3307 27.7549 20.4307 28.4249C20.5507 29.235 20.6407 30.045 20.7807 30.845C20.9807 31.9851 21.0307 33.1451 20.9907 34.2851C20.9607 35.1152 20.9807 35.9352 21.1807 36.7052C21.4406 37.7153 21.3506 38.7153 21.4806 39.7153C21.6006 40.6554 21.6506 41.6054 21.7206 42.5554C21.7406 42.8354 21.6306 43.0754 21.4706 43.2755C21.6206 43.6355 21.8806 43.9755 21.7606 44.4055C21.5806 44.9955 21.6706 45.5955 21.7206 46.2056C21.8906 47.8856 21.9906 49.5657 22.0806 51.2457C22.1206 51.9158 22.1306 52.5858 22.1006 53.2558C22.0906 53.6058 22.1706 53.9158 22.2206 54.2458C22.2606 54.5758 22.3106 54.9459 22.2206 55.2359C22.0306 55.8959 22.0806 56.5559 22.1106 57.2259C22.1606 58.096 22.1206 58.976 22.2006 59.846C22.3106 61.0461 22.0706 62.2461 22.2406 63.4462C22.2806 63.7362 22.0806 64.0762 21.9906 64.3862L22.0306 65.9662C22.0406 66.3063 21.9606 66.6163 21.7306 66.8363C21.7406 66.9663 21.7406 67.0963 21.7406 67.2263C21.7806 69.5464 21.7406 71.8664 21.7406 74.1865C21.7306 76.5066 21.7606 78.8267 21.6306 81.1368L21.5506 82.7468C21.5306 83.0268 21.3906 83.2468 21.2107 83.4269L21.0207 88.057C20.9807 88.927 20.9807 89.7871 20.6707 90.6271C20.4907 91.1071 20.5007 91.6771 20.4607 92.2072L19.8708 100.027C19.8108 100.757 19.7708 101.487 19.4808 102.178C19.3208 102.528 19.2908 102.948 19.2408 103.348L18.9309 105.938L18.3309 111.258C18.2609 111.908 18.1709 112.558 18.2409 113.228C18.2709 113.458 18.1009 113.718 18.0209 113.968C18.0509 114.168 18.1509 114.388 18.1009 114.558C17.691 115.778 17.601 117.048 17.361 118.298C17.311 118.558 17.271 118.838 17.181 119.078C17.111 119.248 16.951 119.378 16.831 119.528C16.7711 119.918 16.6811 120.308 16.6511 120.698C16.5511 122.268 15.8711 123.578 15.0712 124.808C15.0412 124.858 14.9712 124.878 14.9212 124.908C14.8612 125.098 14.8212 125.308 14.7212 125.458C14.5013 125.768 14.2313 126.028 14.0113 126.348C13.6813 126.808 13.3214 127.058 12.8014 126.988ZM12.9914 125.338C13.0014 125.378 13.0114 125.418 13.0214 125.458L13.0314 125.448C13.0214 125.428 13.0214 125.408 13.0314 125.378L12.9914 125.338Z" fill="black"/>
</svg>
