<svg width="232" height="129" viewBox="0 0 232 129" fill="none" xmlns="http://www.w3.org/2000/svg">
<g clip-path="url(#clip0)">
<path d="M95.77 49.62C96.06 50.09 96.19 50.56 96.02 51.07C95.93 51.34 95.8 51.56 95.57 51.71L94.9 52.11C93.9 52.67 92.86 53.19 91.9 53.81C90.96 54.41 89.87 54.61 88.84 54.97C88.76 55 88.63 54.92 88.53 54.89L85.95 56.33C85.45 56.61 84.96 56.87 84.37 56.95C84.02 56.99 83.71 57.23 83.38 57.38L81.44 58.46C81.02 58.69 80.6 58.88 80.12 58.97C79.71 59.05 79.33 59.26 78.96 59.46C78.08 59.92 77.22 60.43 76.29 60.81C75.42 61.17 74.52 61.46 73.72 61.98C72.92 62.5 72.07 62.92 71.24 63.38C70.78 63.64 70.32 63.88 69.77 63.95C69.46 63.99 69.17 64.16 68.9 64.31C68.2 64.68 67.51 65.07 66.82 65.46C65.82 66.04 64.8 66.59 63.68 66.92C63.3 67.03 62.86 67.35 62.69 67.38C62.21 67.53 62.21 68.02 61.74 68.1C61.21 68.21 60.86 68.44 60.45 68.64C59.99 68.87 59.76 69.08 58.71 69.3C58.32 69.39 58.2 69.5 58.02 69.6L57.26 70.02L56.89 70.23C56.77 70.3 56.61 70.35 56.59 70.51C56.57 70.62 56.61 70.74 56.7 70.8C56.79 70.86 56.91 70.86 57.02 70.89L57.67 71L58.96 71.26C59.37 71.34 59.76 71.42 59.93 71.64L59.97 71.7C60.08 71.88 60.54 71.9 60.86 71.99C61.27 72.09 61.67 72.16 61.98 72.44C62.2 72.63 62.59 72.67 62.93 72.74L70.4 74.23C70.71 74.29 71.02 74.36 71.31 74.47C71.44 74.52 71.52 74.7 71.63 74.82C71.99 74.73 72.33 74.6 72.71 74.75C73.28 74.98 73.89 75.13 74.47 75.36C75.05 75.58 75.7 75.63 76.31 75.75L78.01 76.09L79.86 76.45L82.18 76.91C82.64 77 83.1 77.1 83.51 77.37C83.73 77.51 83.99 77.6 84.24 77.65C85.27 77.83 86.28 78.15 87.34 78.17C87.49 78.17 87.66 78.19 87.8 78.25C88.98 78.72 90.25 78.81 91.48 79.09L95.53 79.89C96.25 80.03 96.97 80.11 97.62 80.56C97.91 80.76 98.31 80.81 98.67 80.85C99.32 80.92 99.84 81.31 100.39 81.62C100.67 81.78 100.85 82.08 100.98 82.39C101.12 82.72 101.09 83.07 100.93 83.39C100.7 83.87 100.29 84.16 99.91 84.49C99.84 84.55 99.7 84.57 99.61 84.56L98.21 84.33C97.5 84.24 96.81 83.98 96.05 84.16C95.77 84.23 95.4 84.16 95.15 84.01C94.28 83.47 93.29 83.37 92.34 83.16C92.04 83.09 91.73 83.03 91.44 82.92C91.31 82.87 91.22 82.7 91.12 82.58C90.44 82.52 89.78 82.43 89.12 82.2C88.48 81.97 87.76 81.97 87.13 81.71C86.68 81.53 86.18 81.63 85.77 81.36C85.11 81.42 84.54 81.23 83.97 80.89C83.67 80.71 83.25 80.69 82.89 80.75C82.34 80.84 81.83 80.75 81.32 80.65C80.7 80.53 80.08 80.38 79.45 80.28C78.56 80.14 77.69 79.9 76.87 79.56C76.27 79.31 75.66 79.11 75.04 79.1C74.23 79.09 73.51 78.72 72.74 78.6C72.01 78.49 71.29 78.31 70.57 78.16C70.35 78.11 70.21 77.95 70.1 77.75C69.79 77.81 69.47 77.98 69.18 77.76C68.78 77.45 68.31 77.39 67.85 77.29L63.98 76.52C63.72 76.47 63.47 76.41 63.22 76.34C62.9 76.25 62.58 76.16 62.26 76.07C61.84 75.95 61.42 75.94 60.99 75.88C60.56 75.82 60.07 75.74 59.77 75.58C59.11 75.21 58.32 75.07 57.51 74.9C56.63 74.72 55.8 74.52 54.9 74.37L54.37 74.26C53.03 73.89 52.74 73.23 51.9 72.88C51.71 72.79 51.83 72.6 51.8 72.47L51.07 72C50.91 71.9 50.9 71.53 51.16 71.32C51.16 71.21 51.2 71.11 51.25 71.05L52.77 69.5C53.38 68.93 54.02 68.25 55.21 67.62L61.73 63.97L62.84 63.37C63.04 63.27 63.25 63.3 63.46 63.38L66.63 61.62C67.23 61.29 67.81 60.95 68.51 60.84C68.91 60.78 69.28 60.51 69.65 60.31L75.02 57.31C75.52 57.03 76.02 56.74 76.62 56.67C76.92 56.63 77.21 56.45 77.49 56.31L79.29 55.32L82.96 53.26C83.41 53.01 83.87 52.77 84.24 52.38C84.37 52.25 84.63 52.26 84.83 52.21C84.94 52.09 85.02 51.9 85.15 51.86C86.13 51.57 86.94 50.98 87.84 50.53C88.03 50.44 88.21 50.32 88.42 50.28C88.56 50.25 88.74 50.31 88.89 50.33C89.16 50.18 89.45 50.05 89.7 49.87C90.71 49.14 91.89 49.01 93.12 49.02C93.17 49.02 93.22 49.06 93.27 49.08C93.42 49.04 93.57 48.95 93.72 48.96C94.04 48.97 94.36 49.06 94.68 49.06C95.13 49.02 95.5 49.17 95.77 49.62ZM94.65 50.32C94.66 50.29 94.68 50.26 94.7 50.23C94.69 50.25 94.68 50.26 94.66 50.27L94.65 50.32Z" fill="black"/>
<path d="M177.94 71.76C177.87 72.3 177.65 72.75 177.09 73.03C176.8 73.18 176.5 73.27 176.16 73.23L175.19 73.1C173.77 72.88 172.35 72.6 170.92 72.44C169.53 72.29 168.29 71.74 166.99 71.33C166.89 71.3 166.82 71.16 166.73 71.07L164.9 70.79L163.06 70.58C162.35 70.5 161.66 70.41 160.99 70.1C160.6 69.92 160.11 69.92 159.66 69.84L156.89 69.52C156.3 69.45 155.72 69.34 155.16 69.12C154.68 68.94 154.13 68.87 153.61 68.8C152.37 68.61 151.11 68.59 149.87 68.36C148.71 68.16 147.56 67.89 146.35 67.86C145.16 67.83 143.96 67.69 142.77 67.6C142.11 67.55 141.46 67.49 140.82 67.24C140.47 67.11 140.04 67.1 139.65 67.08C138.65 67.03 137.65 66.99 136.66 66.96C135.2 66.92 133.75 66.85 132.31 66.53C131.8 66.42 131.25 66.46 130.72 66.39C129.78 66.24 128.85 66.67 127.96 66.51C127.03 66.34 126.11 66.37 125.18 66.34C124.19 66.31 123.19 66.38 122.22 66.06C121.86 65.94 121.43 65.99 121.03 65.98C119.96 65.97 118.89 65.95 117.83 66L112.85 66.15C111.99 66.17 111.14 66.21 110.28 65.99C109.73 65.86 109.09 65.93 108.5 65.94C107.77 65.96 107.06 66.02 106.33 65.85C105.84 65.74 105.28 65.8 104.75 65.83L99.87 66.12C98.24 66.24 96.62 66.41 95 66.54C94.6 66.58 94.2 66.61 93.81 66.59C93.63 66.58 93.47 66.44 93.3 66.36C92.89 66.56 92.52 66.79 92.01 66.76C91.23 66.71 90.44 66.75 89.66 66.74C88.87 66.72 88.07 66.9 87.28 66.99L85.1 67.25L82.72 67.54L79.76 67.97C79.17 68.05 78.58 68.13 77.98 68.03C77.67 67.98 77.31 67.99 76.99 68.04C75.68 68.24 74.34 68.37 73.07 68.77C72.88 68.83 72.68 68.88 72.49 68.88C70.88 68.92 69.33 69.34 67.76 69.62C66.05 69.95 64.33 70.28 62.63 70.67C61.72 70.87 60.83 71.11 59.87 71.02C59.44 70.98 58.94 71.13 58.5 71.26C57.7 71.5 56.92 71.42 56.12 71.42C55.71 71.42 55.36 71.25 55.04 71.04C54.71 70.82 54.56 70.5 54.58 70.14C54.61 69.6 54.98 69.11 55.27 68.64C55.33 68.55 55.47 68.46 55.6 68.42C56.2 68.24 56.8 68.07 57.39 67.92C58.29 67.66 59.24 67.55 60.05 67.03C60.36 66.84 60.83 66.73 61.2 66.75C62.49 66.84 63.72 66.46 64.97 66.25C65.36 66.18 65.76 66.1 66.16 66.08C66.34 66.07 66.52 66.19 66.69 66.25C67.53 66.02 68.37 65.8 69.26 65.74C70.13 65.69 71.01 65.41 71.88 65.39C72.5 65.38 73.06 65.08 73.68 65.16C74.45 64.84 75.22 64.78 76.05 64.89C76.48 64.94 77.01 64.81 77.42 64.62C78.05 64.33 78.71 64.23 79.38 64.13C80.19 64.01 81 63.92 81.8 63.78C82.94 63.58 84.1 63.53 85.24 63.57C86.07 63.6 86.89 63.58 87.66 63.38C88.67 63.12 89.67 63.21 90.67 63.08C91.61 62.96 92.56 62.91 93.51 62.84C93.79 62.82 94.03 62.93 94.23 63.09C94.59 62.94 94.93 62.68 95.36 62.8C95.95 62.98 96.55 62.89 97.16 62.84C98.84 62.67 100.52 62.57 102.2 62.48C102.87 62.44 103.54 62.43 104.21 62.46C104.56 62.47 104.87 62.39 105.2 62.34C105.53 62.3 105.9 62.25 106.19 62.34C106.85 62.53 107.51 62.48 108.18 62.45C109.05 62.4 109.93 62.44 110.8 62.36C112 62.25 113.2 62.49 114.4 62.32C114.69 62.28 115.03 62.48 115.34 62.57L116.92 62.53C117.26 62.52 117.57 62.6 117.79 62.83C117.92 62.82 118.05 62.82 118.18 62.82C120.5 62.78 122.82 62.82 125.14 62.82C127.46 62.83 129.78 62.8 132.09 62.93L133.7 63.01C133.98 63.03 134.2 63.17 134.38 63.35L139.01 63.54C139.88 63.58 140.74 63.58 141.58 63.89C142.06 64.07 142.63 64.06 143.16 64.1L150.98 64.69C151.71 64.75 152.44 64.79 153.13 65.08C153.48 65.24 153.9 65.27 154.3 65.32L156.89 65.63L162.21 66.23C162.86 66.3 163.51 66.39 164.18 66.32C164.41 66.29 164.67 66.46 164.92 66.54C165.12 66.51 165.34 66.41 165.51 66.46C166.73 66.87 168 66.96 169.25 67.2C169.51 67.25 169.79 67.29 170.03 67.38C170.2 67.45 170.33 67.61 170.48 67.73C170.87 67.79 171.26 67.88 171.65 67.91C173.22 68.01 174.53 68.69 175.76 69.49C175.81 69.52 175.83 69.59 175.86 69.64C176.05 69.7 176.26 69.74 176.41 69.84C176.72 70.06 176.98 70.33 177.3 70.55C177.76 70.88 178.01 71.24 177.94 71.76ZM176.29 71.57C176.33 71.56 176.37 71.55 176.41 71.54L176.4 71.53C176.38 71.54 176.36 71.54 176.33 71.53L176.29 71.57Z" fill="black"/>
</g>
<defs>
<clipPath id="clip0">
<rect width="231.14" height="128.52" fill="white"/>
</clipPath>
</defs>
</svg>
