<svg width="127" height="36" viewBox="0 0 127 36" fill="none" xmlns="http://www.w3.org/2000/svg">
<path d="M44.8139 0.66077C45.1039 1.13077 45.2339 1.60077 45.0639 2.11077C44.9739 2.38077 44.8439 2.60077 44.6139 2.75077L43.9439 3.15077C42.9439 3.71077 41.9039 4.23077 40.9439 4.85077C40.0039 5.45077 38.9139 5.65077 37.8839 6.01077C37.8039 6.04077 37.6739 5.96077 37.5739 5.93077L34.9939 7.37077C34.4939 7.65077 34.0039 7.91077 33.4139 7.99077C33.0639 8.03077 32.7539 8.27077 32.4239 8.42077L30.4839 9.50077C30.0639 9.73077 29.6439 9.92077 29.1639 10.0108C28.7539 10.0908 28.3739 10.3008 28.0039 10.5008C27.1239 10.9608 26.2639 11.4708 25.3339 11.8508C24.4639 12.2108 23.5639 12.5008 22.7639 13.0208C21.9639 13.5408 21.1139 13.9608 20.2839 14.4208C19.8239 14.6808 19.3639 14.9208 18.8139 14.9908C18.5039 15.0308 18.2139 15.2008 17.9439 15.3508C17.2439 15.7208 16.5539 16.1108 15.8639 16.5008C14.8639 17.0808 13.8439 17.6308 12.7239 17.9608C12.3439 18.0708 11.9039 18.3908 11.7339 18.4208C11.2539 18.5708 11.2539 19.0608 10.7839 19.1408C10.2539 19.2508 9.90394 19.4808 9.49394 19.6808C9.03394 19.9108 8.80394 20.1208 7.75394 20.3408C7.36394 20.4308 7.24394 20.5408 7.06394 20.6408L6.30394 21.0608L5.93394 21.2708C5.81394 21.3408 5.65394 21.3908 5.63394 21.5508C5.61394 21.6608 5.65394 21.7808 5.74394 21.8408C5.83394 21.9008 5.95394 21.9008 6.06394 21.9308L6.71394 22.0408L8.00394 22.3008C8.41394 22.3808 8.80394 22.4608 8.97394 22.6808L9.01394 22.7408C9.12394 22.9208 9.58394 22.9408 9.90394 23.0308C10.3139 23.1308 10.7139 23.2008 11.0239 23.4808C11.2439 23.6708 11.6339 23.7108 11.9739 23.7808L19.4439 25.2708C19.7539 25.3308 20.0639 25.4008 20.3539 25.5108C20.4839 25.5608 20.5639 25.7408 20.6739 25.8608C21.0339 25.7708 21.3739 25.6408 21.7539 25.7908C22.3239 26.0208 22.9339 26.1708 23.5139 26.4008C24.0939 26.6208 24.7439 26.6708 25.3539 26.7908L27.0539 27.1308L28.9039 27.4908L31.2239 27.9508C31.6839 28.0408 32.1439 28.1408 32.5539 28.4108C32.7739 28.5508 33.0339 28.6408 33.2839 28.6908C34.3139 28.8708 35.3239 29.1908 36.3839 29.2108C36.5339 29.2108 36.7039 29.2308 36.8439 29.2908C38.0239 29.7608 39.2939 29.8508 40.5239 30.1308L44.5739 30.9308C45.2939 31.0708 46.0139 31.1508 46.6639 31.6008C46.9539 31.8008 47.3539 31.8508 47.7139 31.8908C48.3639 31.9608 48.8839 32.3508 49.4339 32.6608C49.7139 32.8208 49.8939 33.1208 50.0239 33.4308C50.1639 33.7608 50.1339 34.1108 49.9739 34.4308C49.7439 34.9108 49.3339 35.2008 48.9539 35.5308C48.8839 35.5908 48.7439 35.6108 48.6539 35.6008L47.2539 35.3708C46.5439 35.2808 45.8539 35.0208 45.0939 35.2008C44.8139 35.2708 44.4439 35.2008 44.1939 35.0508C43.3239 34.5108 42.3339 34.4108 41.3839 34.2008C41.0839 34.1308 40.7739 34.0708 40.4839 33.9608C40.3539 33.9108 40.2639 33.7408 40.1639 33.6208C39.4839 33.5608 38.8239 33.4708 38.1639 33.2408C37.5239 33.0108 36.8039 33.0108 36.1739 32.7508C35.7239 32.5708 35.2239 32.6708 34.8139 32.4008C34.1539 32.4608 33.5839 32.2708 33.0139 31.9308C32.7139 31.7508 32.2939 31.7308 31.9339 31.7908C31.3839 31.8808 30.8739 31.7908 30.3639 31.6908C29.7439 31.5708 29.1239 31.4208 28.4939 31.3208C27.6039 31.1808 26.7339 30.9408 25.9139 30.6008C25.3139 30.3508 24.7039 30.1508 24.0839 30.1408C23.2739 30.1308 22.5539 29.7608 21.7839 29.6408C21.0539 29.5308 20.3339 29.3508 19.6139 29.2008C19.3939 29.1508 19.2539 28.9908 19.1439 28.7908C18.8339 28.8508 18.5139 29.0208 18.2239 28.8008C17.8239 28.4908 17.3539 28.4308 16.8939 28.3308L13.0239 27.5608C12.7639 27.5108 12.5139 27.4508 12.2639 27.3808C11.9439 27.2908 11.6239 27.2008 11.3039 27.1108C10.8839 26.9908 10.4639 26.9808 10.0339 26.9208C9.60394 26.8608 9.11394 26.7808 8.81394 26.6208C8.15394 26.2508 7.36394 26.1108 6.55394 25.9408C5.67394 25.7608 4.84394 25.5608 3.94394 25.4108L3.41394 25.3008C2.07394 24.9308 1.78394 24.2708 0.943944 23.9208C0.753944 23.8308 0.873941 23.6408 0.843941 23.5108L0.113942 23.0408C-0.0460583 22.9408 -0.0560581 22.5708 0.203942 22.3608C0.203942 22.2508 0.243942 22.1508 0.293942 22.0908L1.81394 20.5408C2.42394 19.9708 3.06394 19.2908 4.25394 18.6608L10.7739 15.0108L11.8839 14.4108C12.0839 14.3108 12.2939 14.3408 12.5039 14.4208L15.6739 12.6608C16.2739 12.3308 16.8539 11.9908 17.5539 11.8808C17.9539 11.8208 18.3239 11.5508 18.6939 11.3508L24.0639 8.35077C24.5639 8.07077 25.0639 7.78077 25.6639 7.71077C25.9639 7.67077 26.2539 7.49077 26.5339 7.35077L28.3339 6.36077L32.0039 4.30077C32.4539 4.05077 32.9139 3.81077 33.2839 3.42077C33.4139 3.29077 33.6739 3.30077 33.8739 3.25077C33.9839 3.13077 34.0639 2.94077 34.1939 2.90077C35.1739 2.61077 35.9839 2.02077 36.8839 1.57077C37.0739 1.48077 37.2539 1.36077 37.4639 1.32077C37.6039 1.29077 37.7839 1.35077 37.9339 1.37077C38.2039 1.22077 38.4939 1.09077 38.7439 0.91077C39.7539 0.18077 40.9339 0.0507712 42.1639 0.0607712C42.2139 0.0607712 42.2639 0.100773 42.3139 0.120773C42.4639 0.0807726 42.6139 -0.00923013 42.7639 0.00076987C43.0839 0.0107699 43.4039 0.100772 43.7239 0.100772C44.1739 0.0607722 44.5439 0.21077 44.8139 0.66077ZM43.6939 1.36077C43.7039 1.33077 43.7239 1.30077 43.7439 1.27077C43.7339 1.29077 43.7239 1.30077 43.7039 1.31077L43.6939 1.36077Z" fill="black"/>
<path d="M126.984 22.8008C126.914 23.3408 126.694 23.7908 126.134 24.0708C125.844 24.2208 125.544 24.3108 125.204 24.2708L124.234 24.1408C122.814 23.9208 121.394 23.6408 119.964 23.4808C118.574 23.3308 117.334 22.7808 116.034 22.3708C115.934 22.3408 115.864 22.2008 115.774 22.1108L113.944 21.8308L112.104 21.6208C111.394 21.5408 110.704 21.4508 110.034 21.1408C109.644 20.9608 109.154 20.9608 108.704 20.8808L105.934 20.5608C105.344 20.4908 104.764 20.3808 104.204 20.1608C103.724 19.9808 103.174 19.9108 102.654 19.8408C101.414 19.6508 100.154 19.6308 98.9139 19.4008C97.7539 19.2008 96.604 18.9308 95.394 18.9008C94.204 18.8708 93.004 18.7308 91.814 18.6408C91.154 18.5908 90.504 18.5308 89.864 18.2808C89.514 18.1508 89.0839 18.1408 88.6939 18.1208C87.6939 18.0708 86.694 18.0308 85.704 18.0008C84.244 17.9608 82.794 17.8908 81.354 17.5708C80.844 17.4608 80.294 17.5008 79.764 17.4308C78.824 17.2808 77.894 17.7108 77.004 17.5508C76.074 17.3808 75.154 17.4108 74.224 17.3808C73.234 17.3508 72.234 17.4208 71.264 17.1008C70.904 16.9808 70.474 17.0308 70.074 17.0208C69.004 17.0108 67.934 16.9908 66.874 17.0408L61.894 17.1908C61.034 17.2108 60.184 17.2508 59.324 17.0308C58.774 16.9008 58.134 16.9708 57.544 16.9808C56.814 17.0008 56.104 17.0608 55.374 16.8908C54.884 16.7808 54.324 16.8408 53.794 16.8708L48.914 17.1608C47.284 17.2808 45.664 17.4508 44.044 17.5808C43.644 17.6208 43.244 17.6508 42.854 17.6308C42.674 17.6208 42.514 17.4808 42.344 17.4008C41.934 17.6008 41.564 17.8308 41.054 17.8008C40.274 17.7508 39.484 17.7908 38.704 17.7808C37.914 17.7608 37.114 17.9408 36.324 18.0308L34.144 18.2908L31.764 18.5808L28.804 19.0108C28.214 19.0908 27.624 19.1708 27.024 19.0708C26.714 19.0208 26.354 19.0308 26.034 19.0808C24.724 19.2808 23.384 19.4108 22.114 19.8108C21.924 19.8708 21.724 19.9208 21.534 19.9208C19.924 19.9608 18.374 20.3808 16.804 20.6608C15.094 20.9908 13.374 21.3208 11.674 21.7108C10.764 21.9108 9.87395 22.1508 8.91395 22.0608C8.48395 22.0208 7.98395 22.1708 7.54395 22.3008C6.74395 22.5408 5.96395 22.4608 5.16395 22.4608C4.75395 22.4608 4.40395 22.2908 4.08395 22.0808C3.75395 21.8608 3.60396 21.5408 3.62396 21.1808C3.65396 20.6408 4.02395 20.1508 4.31395 19.6808C4.37395 19.5908 4.51395 19.5008 4.64395 19.4608C5.24395 19.2808 5.84395 19.1108 6.43395 18.9608C7.33395 18.7008 8.28395 18.5908 9.09395 18.0708C9.40395 17.8808 9.87395 17.7708 10.244 17.7908C11.534 17.8808 12.764 17.5008 14.014 17.2908C14.404 17.2208 14.804 17.1408 15.204 17.1208C15.384 17.1108 15.564 17.2308 15.734 17.2908C16.574 17.0608 17.414 16.8408 18.304 16.7808C19.174 16.7308 20.054 16.4508 20.924 16.4308C21.544 16.4208 22.104 16.1208 22.724 16.2008C23.494 15.8808 24.264 15.8208 25.094 15.9308C25.524 15.9808 26.054 15.8508 26.464 15.6608C27.094 15.3708 27.754 15.2708 28.424 15.1708C29.234 15.0508 30.044 14.9608 30.844 14.8208C31.984 14.6208 33.144 14.5708 34.284 14.6108C35.114 14.6408 35.934 14.6208 36.704 14.4208C37.714 14.1608 38.714 14.2508 39.714 14.1208C40.654 14.0008 41.604 13.9508 42.554 13.8808C42.834 13.8608 43.074 13.9708 43.274 14.1308C43.634 13.9808 43.974 13.7208 44.404 13.8408C44.994 14.0208 45.594 13.9308 46.204 13.8808C47.884 13.7108 49.5639 13.6108 51.2439 13.5208C51.9139 13.4808 52.584 13.4708 53.254 13.5008C53.604 13.5108 53.9139 13.4308 54.2439 13.3808C54.5739 13.3408 54.944 13.2908 55.234 13.3808C55.894 13.5708 56.554 13.5208 57.224 13.4908C58.094 13.4408 58.974 13.4808 59.844 13.4008C61.044 13.2908 62.244 13.5308 63.444 13.3608C63.734 13.3208 64.0739 13.5208 64.3839 13.6108L65.964 13.5708C66.304 13.5608 66.614 13.6408 66.834 13.8708C66.964 13.8608 67.094 13.8608 67.224 13.8608C69.544 13.8208 71.864 13.8608 74.184 13.8608C76.504 13.8708 78.8239 13.8408 81.1339 13.9708L82.7439 14.0508C83.0239 14.0708 83.244 14.2108 83.424 14.3908L88.0539 14.5808C88.9239 14.6208 89.784 14.6208 90.624 14.9308C91.104 15.1108 91.674 15.1008 92.204 15.1408L100.024 15.7308C100.754 15.7908 101.484 15.8308 102.174 16.1208C102.524 16.2808 102.944 16.3108 103.344 16.3608L105.934 16.6708L111.254 17.2708C111.904 17.3408 112.554 17.4308 113.224 17.3608C113.454 17.3308 113.714 17.5008 113.964 17.5808C114.164 17.5508 114.384 17.4508 114.554 17.5008C115.774 17.9108 117.044 18.0008 118.294 18.2408C118.554 18.2908 118.834 18.3308 119.074 18.4208C119.244 18.4908 119.374 18.6508 119.524 18.7708C119.914 18.8308 120.304 18.9208 120.694 18.9508C122.264 19.0508 123.574 19.7308 124.804 20.5308C124.854 20.5608 124.874 20.6308 124.904 20.6808C125.094 20.7408 125.304 20.7808 125.454 20.8808C125.764 21.1008 126.024 21.3708 126.344 21.5908C126.804 21.9208 127.054 22.2808 126.984 22.8008ZM125.334 22.6108C125.374 22.6008 125.414 22.5908 125.454 22.5808L125.444 22.5708C125.424 22.5808 125.404 22.5808 125.374 22.5708L125.334 22.6108Z" fill="black"/>
</svg>
