<svg width="36" height="127" viewBox="0 0 36 127" fill="none" xmlns="http://www.w3.org/2000/svg">
<path d="M0.660709 44.8155C1.13067 45.1055 1.60062 45.2355 2.11058 45.0655C2.38055 44.9755 2.60053 44.8455 2.75052 44.6155L3.15048 43.9455C3.71043 42.9454 4.23039 41.9054 4.85033 40.9454C5.45027 40.0053 5.65026 38.9153 6.01022 37.8852C6.04022 37.8052 5.96023 37.6752 5.93023 37.5752L7.3701 34.9952C7.65007 34.4951 7.91005 34.0051 7.99004 33.4151C8.03004 33.0651 8.27002 32.7551 8.42 32.4251L9.4999 30.485C9.72988 30.065 9.91987 29.645 10.0099 29.165C10.0898 28.7549 10.2998 28.3749 10.4998 28.0049C10.9598 27.1249 11.4697 26.2649 11.8497 25.3348C12.2097 24.4648 12.4996 23.5648 13.0196 22.7647C13.5395 21.9647 13.9595 21.1147 14.4195 20.2846C14.6794 19.8246 14.9194 19.3646 14.9894 18.8146C15.0294 18.5046 15.1994 18.2146 15.3494 17.9446C15.7193 17.2445 16.1093 16.5545 16.4993 15.8645C17.0792 14.8645 17.6292 13.8444 17.9591 12.7244C18.0691 12.3444 18.3891 11.9044 18.4191 11.7343C18.5691 11.2543 19.059 11.2543 19.139 10.7843C19.249 10.2543 19.479 9.90429 19.679 9.49427C19.909 9.03426 20.1189 8.80425 20.3389 7.75421C20.4289 7.3642 20.5389 7.24419 20.6389 7.06419L21.0588 6.30416L21.2688 5.93415C21.3388 5.81414 21.3888 5.65414 21.5488 5.63414C21.6588 5.61414 21.7788 5.65414 21.8388 5.74414C21.8988 5.83414 21.8988 5.95415 21.9288 6.06415L22.0388 6.71417L22.2987 8.00422C22.3787 8.41423 22.4587 8.80425 22.6787 8.97425L22.7387 9.01426C22.9187 9.12426 22.9387 9.58427 23.0287 9.90429C23.1287 10.3143 23.1987 10.7143 23.4786 11.0243C23.6686 11.2443 23.7086 11.6343 23.7786 11.9744L25.2685 19.4446C25.3285 19.7546 25.3985 20.0646 25.5084 20.3546C25.5584 20.4846 25.7384 20.5647 25.8584 20.6747C25.7684 21.0347 25.6384 21.3747 25.7884 21.7547C26.0184 22.3247 26.1684 22.9347 26.3984 23.5148C26.6183 24.0948 26.6683 24.7448 26.7883 25.3548L27.1283 27.0549L27.4883 28.9049L27.9482 31.225C28.0382 31.685 28.1382 32.1451 28.4082 32.5551C28.5482 32.7751 28.6382 33.0351 28.6882 33.2851C28.8681 34.3151 29.1881 35.3252 29.2081 36.3852C29.2081 36.5352 29.2281 36.7052 29.2881 36.8452C29.7581 38.0253 29.848 39.2953 30.128 40.5253L30.9279 44.5755C31.0679 45.2955 31.1479 46.0155 31.5979 46.6656C31.7979 46.9556 31.8479 47.3556 31.8879 47.7156C31.9578 48.3656 32.3478 48.8856 32.6578 49.4357C32.8178 49.7157 33.1177 49.8957 33.4277 50.0257C33.7577 50.1657 34.1077 50.1357 34.4276 49.9757C34.9076 49.7457 35.1976 49.3357 35.5275 48.9556C35.5875 48.8856 35.6075 48.7456 35.5975 48.6556L35.3675 47.2556C35.2775 46.5456 35.0176 45.8555 35.1976 45.0955C35.2676 44.8155 35.1976 44.4455 35.0476 44.1955C34.5076 43.3254 34.4076 42.3354 34.1977 41.3854C34.1277 41.0854 34.0677 40.7754 33.9577 40.4853C33.9077 40.3553 33.7377 40.2653 33.6177 40.1653C33.5577 39.4853 33.4677 38.8253 33.2377 38.1653C33.0078 37.5252 33.0078 36.8052 32.7478 36.1752C32.5678 35.7252 32.6678 35.2252 32.3978 34.8151C32.4578 34.1551 32.2678 33.5851 31.9279 33.0151C31.7479 32.7151 31.7279 32.2951 31.7879 31.935C31.8779 31.385 31.7879 30.875 31.6879 30.365C31.5679 29.745 31.4179 29.1249 31.3179 28.4949C31.1779 27.6049 30.9379 26.7349 30.598 25.9148C30.348 25.3148 30.148 24.7048 30.138 24.0848C30.128 23.2747 29.7581 22.5547 29.6381 21.7847C29.5281 21.0547 29.3481 20.3346 29.1981 19.6146C29.1481 19.3946 28.9881 19.2546 28.7881 19.1446C28.8481 18.8346 29.0181 18.5146 28.7981 18.2246C28.4882 17.8246 28.4282 17.3545 28.3282 16.8945L27.5582 13.0244C27.5083 12.7644 27.4483 12.5144 27.3783 12.2644C27.2883 11.9444 27.1983 11.6243 27.1083 11.3043C26.9883 10.8843 26.9783 10.4643 26.9183 10.0343C26.8583 9.60428 26.7783 9.11426 26.6183 8.81425C26.2484 8.15423 26.1084 7.3642 25.9384 6.55417C25.7584 5.67414 25.5584 4.84411 25.4085 3.94408L25.2985 3.41406C24.9285 2.07401 24.2686 1.78401 23.9186 0.943976C23.8286 0.75397 23.6386 0.873972 23.5086 0.84397L23.0387 0.113946C22.9387 -0.0460599 22.5687 -0.0560601 22.3587 0.203949C22.2487 0.203949 22.1488 0.24395 22.0888 0.293952L20.5389 1.81401C19.9689 2.42403 19.289 3.06405 18.6591 4.25409L15.0094 10.7743L14.4095 11.8844C14.3095 12.0844 14.3395 12.2944 14.4195 12.5044L12.6596 15.6745C12.3296 16.2745 11.9897 16.8545 11.8797 17.5546C11.8197 17.9546 11.5497 18.3246 11.3497 18.6946L8.35001 24.0648C8.07003 24.5648 7.78006 25.0648 7.71006 25.6648C7.67007 25.9648 7.49009 26.2548 7.3501 26.5349L6.36019 28.3349L4.30038 32.005C4.0504 32.4551 3.81042 32.9151 3.42046 33.2851C3.29047 33.4151 3.30047 33.6751 3.25047 33.8751C3.13048 33.9851 2.9405 34.0651 2.90051 34.1951C2.61053 35.1752 2.02058 35.9852 1.57063 36.8852C1.48063 37.0752 1.36065 37.2552 1.32065 37.4652C1.29065 37.6052 1.35065 37.7852 1.37065 37.9353C1.22066 38.2053 1.09067 38.4953 0.910686 38.7453C0.180753 39.7553 0.0507666 40.9354 0.0607657 42.1654C0.0607657 42.2154 0.100763 42.2654 0.120762 42.3154C0.0807652 42.4654 -0.00922929 42.6154 0.0007698 42.7654C0.0107689 43.0854 0.100763 43.4054 0.100763 43.7255C0.0607666 44.1755 0.21075 44.5455 0.660709 44.8155ZM1.36065 43.6955C1.33065 43.7055 1.30065 43.7255 1.27065 43.7455C1.29065 43.7355 1.30065 43.7255 1.31065 43.7055L1.36065 43.6955Z" fill="black"/>
<path d="M22.7986 126.988C23.3385 126.918 23.7885 126.698 24.0684 126.138C24.2184 125.848 24.3084 125.548 24.2684 125.208L24.1384 124.238C23.9184 122.818 23.6385 121.398 23.4785 119.968C23.3285 118.578 22.7786 117.338 22.3686 116.038C22.3386 115.938 22.1986 115.868 22.1086 115.778L21.8286 113.948L21.6187 112.108C21.5387 111.398 21.4487 110.708 21.1387 110.038C20.9587 109.648 20.9587 109.158 20.8787 108.708L20.5588 105.938C20.4888 105.348 20.3788 104.768 20.1588 104.208C19.9788 103.728 19.9088 103.178 19.8388 102.658C19.6488 101.417 19.6288 100.157 19.3989 98.9174C19.1989 97.7573 18.9289 96.6073 18.8989 95.3973C18.8689 94.2072 18.7289 93.0072 18.6389 91.8171C18.5889 91.1571 18.5289 90.5071 18.279 89.8671C18.149 89.5171 18.139 89.087 18.119 88.697C18.069 87.697 18.029 86.697 17.999 85.7069C17.959 84.2469 17.889 82.7968 17.569 81.3568C17.459 80.8468 17.499 80.2967 17.429 79.7667C17.2791 78.8267 17.709 77.8967 17.549 77.0066C17.379 76.0766 17.409 75.1566 17.379 74.2265C17.349 73.2365 17.419 72.2365 17.0991 71.2664C16.9791 70.9064 17.0291 70.4764 17.0191 70.0764C17.0091 69.0063 16.9891 67.9363 17.0391 66.8763L17.1891 61.8961C17.2091 61.0361 17.2491 60.186 17.0291 59.326C16.8991 58.776 16.9691 58.136 16.9791 57.5459C16.9991 56.8159 17.0591 56.1059 16.8891 55.3759C16.7791 54.8859 16.8391 54.3258 16.8691 53.7958L17.1591 48.9157C17.2791 47.2856 17.449 45.6655 17.579 44.0455C17.619 43.6455 17.649 43.2454 17.629 42.8554C17.619 42.6754 17.479 42.5154 17.399 42.3454C17.599 41.9354 17.829 41.5654 17.799 41.0554C17.749 40.2754 17.789 39.4853 17.779 38.7053C17.759 37.9153 17.939 37.1152 18.029 36.3252L18.289 34.1451L18.5789 31.7651L19.0089 28.805C19.0889 28.2149 19.1689 27.6249 19.0689 27.0249C19.0189 26.7149 19.0289 26.3549 19.0789 26.0349C19.2789 24.7248 19.4089 23.3848 19.8088 22.1147C19.8688 21.9247 19.9188 21.7247 19.9188 21.5347C19.9588 19.9246 20.3788 18.3746 20.6588 16.8045C20.9887 15.0945 21.3187 13.3744 21.7087 11.6744C21.9086 10.7643 22.1486 9.87429 22.0586 8.91426C22.0186 8.48424 22.1686 7.98423 22.2986 7.54421C22.5386 6.74418 22.4586 5.96416 22.4586 5.16413C22.4586 4.75411 22.2886 4.4041 22.0786 4.08409C21.8586 3.75408 21.5387 3.60408 21.1787 3.62408C20.6387 3.65408 20.1488 4.02409 19.6788 4.3141C19.5888 4.3741 19.4989 4.5141 19.4589 4.64411C19.2789 5.24413 19.1089 5.84415 18.9589 6.43417C18.6989 7.3342 18.5889 8.28424 18.069 9.09426C17.879 9.40428 17.769 9.87429 17.789 10.2443C17.879 11.5344 17.499 12.7644 17.2891 14.0144C17.2191 14.4045 17.1391 14.8045 17.1191 15.2045C17.1091 15.3845 17.2291 15.5645 17.2891 15.7345C17.0591 16.5745 16.8391 17.4146 16.7791 18.3046C16.7291 19.1746 16.4491 20.0546 16.4291 20.9247C16.4191 21.5447 16.1192 22.1047 16.1992 22.7247C15.8792 23.4948 15.8192 24.2648 15.9292 25.0948C15.9792 25.5248 15.8492 26.0549 15.6592 26.4649C15.3692 27.0949 15.2692 27.7549 15.1692 28.4249C15.0493 29.235 14.9593 30.045 14.8193 30.845C14.6193 31.9851 14.5693 33.1451 14.6093 34.2851C14.6393 35.1152 14.6193 35.9352 14.4193 36.7052C14.1593 37.7153 14.2493 38.7153 14.1193 39.7153C13.9994 40.6554 13.9494 41.6054 13.8794 42.5554C13.8594 42.8354 13.9694 43.0754 14.1293 43.2755C13.9794 43.6355 13.7194 43.9755 13.8394 44.4055C14.0194 44.9955 13.9294 45.5955 13.8794 46.2056C13.7094 47.8856 13.6094 49.5657 13.5194 51.2457C13.4794 51.9158 13.4694 52.5858 13.4994 53.2558C13.5094 53.6058 13.4294 53.9158 13.3794 54.2458C13.3394 54.5758 13.2894 54.9459 13.3794 55.2359C13.5694 55.8959 13.5194 56.5559 13.4894 57.2259C13.4394 58.096 13.4794 58.976 13.3994 59.846C13.2894 61.0461 13.5294 62.2461 13.3594 63.4462C13.3194 63.7362 13.5194 64.0762 13.6094 64.3862L13.5694 65.9662C13.5594 66.3063 13.6394 66.6163 13.8694 66.8363C13.8594 66.9663 13.8594 67.0963 13.8594 67.2263C13.8194 69.5464 13.8594 71.8664 13.8594 74.1865C13.8694 76.5066 13.8394 78.8267 13.9694 81.1368L14.0493 82.7468C14.0693 83.0268 14.2093 83.2468 14.3893 83.4269L14.5793 88.057C14.6193 88.927 14.6193 89.7871 14.9293 90.6271C15.1093 91.1071 15.0993 91.6771 15.1393 92.2072L15.7292 100.027C15.7892 100.757 15.8292 101.487 16.1192 102.178C16.2791 102.528 16.3091 102.948 16.3591 103.348L16.6691 105.938L17.2691 111.258C17.3391 111.908 17.429 112.558 17.359 113.228C17.3291 113.458 17.499 113.718 17.579 113.968C17.549 114.168 17.449 114.388 17.499 114.558C17.909 115.778 17.999 117.048 18.239 118.298C18.289 118.558 18.329 118.838 18.4189 119.078C18.4889 119.248 18.6489 119.378 18.7689 119.528C18.8289 119.918 18.9189 120.308 18.9489 120.698C19.0489 122.268 19.7288 123.578 20.5288 124.808C20.5588 124.858 20.6288 124.878 20.6787 124.908C20.7387 125.098 20.7787 125.308 20.8787 125.458C21.0987 125.768 21.3687 126.028 21.5887 126.348C21.9186 126.808 22.2786 127.058 22.7986 126.988ZM22.6086 125.338C22.5986 125.378 22.5886 125.418 22.5786 125.458L22.5686 125.448C22.5786 125.428 22.5786 125.408 22.5686 125.378L22.6086 125.338Z" fill="black"/>
</svg>
