<svg width="44" height="13" viewBox="0 0 44 13" fill="none" xmlns="http://www.w3.org/2000/svg">
<path d="M28.6279 12.7765C28.5298 12.6176 28.4859 12.4586 28.5434 12.2862C28.5738 12.1948 28.6178 12.1204 28.6956 12.0697L28.9221 11.9344C29.2603 11.745 29.6121 11.5692 29.9367 11.3595C30.2546 11.1566 30.6233 11.0889 30.9716 10.9672C30.9987 10.9571 31.0426 10.9841 31.0764 10.9943L31.949 10.5073C32.1181 10.4126 32.2838 10.3246 32.4833 10.2976C32.6017 10.284 32.7065 10.2029 32.8181 10.1522L33.4742 9.7869C33.6163 9.70912 33.7583 9.64486 33.9206 9.61442C34.0593 9.58737 34.1878 9.51635 34.313 9.44871C34.6106 9.29314 34.9014 9.12066 35.2159 8.99215C35.5102 8.8704 35.8145 8.77232 36.0851 8.59646C36.3556 8.4206 36.6431 8.27856 36.9238 8.12299C37.0794 8.03506 37.2349 7.9539 37.4209 7.93022C37.5258 7.9167 37.6239 7.8592 37.7152 7.80847C37.9519 7.68334 38.1853 7.55145 38.4186 7.41955C38.7568 7.2234 39.1018 7.03739 39.4805 6.92579C39.6091 6.88859 39.7579 6.78037 39.8154 6.77022C39.9777 6.71949 39.9777 6.55378 40.1366 6.52672C40.3159 6.48952 40.4342 6.41174 40.5729 6.3441C40.7285 6.26631 40.8063 6.19529 41.1614 6.12089C41.2933 6.09045 41.3338 6.05325 41.3947 6.01943L41.6517 5.87739L41.7769 5.80637C41.8175 5.7827 41.8716 5.76579 41.8783 5.71168C41.8851 5.67447 41.8716 5.63389 41.8411 5.6136C41.8107 5.59331 41.7701 5.59331 41.7329 5.58316L41.5131 5.54596L41.0768 5.45803C40.9382 5.43097 40.8063 5.40392 40.7488 5.32952L40.7352 5.30923C40.698 5.24835 40.5425 5.24159 40.4342 5.21115C40.2956 5.17733 40.1603 5.15366 40.0555 5.05896C39.9811 4.99471 39.8492 4.98118 39.7342 4.95751L37.2079 4.4536C37.103 4.4333 36.9982 4.40963 36.9001 4.37243C36.8562 4.35552 36.8291 4.29465 36.7919 4.25406C36.6702 4.2845 36.5552 4.32847 36.4267 4.27774C36.2339 4.19995 36.0276 4.14922 35.8314 4.07144C35.6353 3.99704 35.4155 3.98013 35.2092 3.93954L34.6342 3.82456L34.0086 3.70281L33.224 3.54724C33.0684 3.5168 32.9128 3.48298 32.7742 3.39167C32.6998 3.34432 32.6118 3.31388 32.5273 3.29698C32.179 3.2361 31.8374 3.12788 31.4789 3.12112C31.4282 3.12112 31.3707 3.11435 31.3233 3.09406C30.9243 2.93511 30.4947 2.90467 30.0788 2.80998L28.7091 2.53942C28.4656 2.49208 28.2221 2.46502 28.0023 2.31283C27.9042 2.2452 27.7689 2.22829 27.6472 2.21476C27.4273 2.19108 27.2515 2.05919 27.0655 1.95435C26.9708 1.90024 26.9099 1.79878 26.8659 1.69394C26.8186 1.58234 26.8287 1.46397 26.8828 1.35575C26.9606 1.19341 27.0993 1.09534 27.2278 0.983735C27.2515 0.963443 27.2988 0.95668 27.3293 0.960062L27.8027 1.03784C28.0428 1.06828 28.2762 1.15621 28.5332 1.09534C28.6279 1.07166 28.7531 1.09534 28.8376 1.14607C29.1318 1.32869 29.4666 1.36251 29.7879 1.43353C29.8894 1.4572 29.9942 1.4775 30.0923 1.5147C30.1363 1.53161 30.1667 1.5891 30.2005 1.62968C30.4305 1.64997 30.6537 1.68041 30.8769 1.7582C31.0934 1.83598 31.3369 1.83598 31.5499 1.92391C31.7021 1.98479 31.8712 1.95097 32.0099 2.04228C32.2331 2.02199 32.4258 2.08624 32.6186 2.20123C32.7201 2.2621 32.8621 2.26887 32.9839 2.24858C33.1699 2.21814 33.3423 2.24858 33.5148 2.2824C33.7245 2.32298 33.9342 2.37371 34.1472 2.40753C34.4482 2.45488 34.7425 2.53604 35.0198 2.65103C35.2227 2.73558 35.429 2.80321 35.6387 2.8066C35.9126 2.80998 36.1561 2.93511 36.4165 2.97569C36.6634 3.01289 36.9069 3.07377 37.1504 3.1245C37.2248 3.14141 37.2721 3.19552 37.3093 3.26316C37.4142 3.24287 37.5224 3.18537 37.6205 3.25977C37.7558 3.36461 37.9147 3.38491 38.0703 3.41873L39.3791 3.67914C39.467 3.69605 39.5516 3.71634 39.6361 3.74001C39.7443 3.77045 39.8526 3.80088 39.9608 3.83132C40.1028 3.87191 40.2449 3.87529 40.3903 3.89558C40.5357 3.91587 40.7014 3.94293 40.8029 3.99704C41.0261 4.12217 41.2933 4.16951 41.5672 4.22701C41.8648 4.28788 42.1455 4.35552 42.4499 4.40625L42.6291 4.44345C43.0823 4.56858 43.1804 4.79179 43.4645 4.91016C43.5287 4.9406 43.4881 5.00485 43.4983 5.04882L43.7452 5.20777C43.7993 5.24159 43.8027 5.36672 43.7147 5.43774C43.7147 5.47494 43.7012 5.50876 43.6843 5.52905L43.1702 6.05325C42.9639 6.24602 42.7475 6.47599 42.345 6.68905L40.14 7.92346L39.7646 8.12638C39.697 8.16019 39.626 8.15005 39.5549 8.12299L38.4829 8.71821C38.28 8.82982 38.0838 8.9448 37.8471 8.982C37.7118 9.0023 37.5867 9.09361 37.4615 9.16125L35.6454 10.1758C35.4763 10.2705 35.3072 10.3686 35.1043 10.3923C35.0029 10.4058 34.9048 10.4667 34.8101 10.514L34.2013 10.8488L32.9602 11.5455C32.808 11.6301 32.6524 11.7112 32.5273 11.8431C32.4833 11.8871 32.3954 11.8837 32.3278 11.9006C32.2906 11.9412 32.2635 12.0055 32.2195 12.019C31.8881 12.1171 31.6142 12.3166 31.3098 12.4688C31.2455 12.4992 31.1847 12.5398 31.1136 12.5533C31.0663 12.5635 31.0054 12.5432 30.9547 12.5364C30.8634 12.5871 30.7653 12.6311 30.6808 12.692C30.3392 12.9389 29.9401 12.9828 29.5241 12.9794C29.5072 12.9794 29.4903 12.9659 29.4734 12.9592C29.4227 12.9727 29.3719 13.0031 29.3212 12.9997C29.213 12.9964 29.1048 12.9659 28.9966 12.9659C28.8444 12.9794 28.7192 12.9287 28.6279 12.7765ZM29.0067 12.5398C29.0033 12.5499 28.9966 12.5601 28.9898 12.5702C28.9932 12.5635 28.9966 12.5601 29.0033 12.5567L29.0067 12.5398Z" fill="black"/>
<path d="M0.83897 5.28895C0.862644 5.10632 0.93705 4.95414 1.12644 4.85944C1.22451 4.80872 1.32597 4.77828 1.44096 4.7918L1.76901 4.83577C2.24924 4.91017 2.72947 5.00487 3.21309 5.05898C3.68318 5.10971 4.10254 5.29571 4.54219 5.43437C4.576 5.44452 4.59968 5.49187 4.63012 5.5223L5.24902 5.617L5.87129 5.68802C6.1114 5.71507 6.34476 5.74551 6.57135 5.85035C6.70324 5.91123 6.86896 5.91123 7.02115 5.93828L7.95794 6.0465C8.15747 6.07018 8.35362 6.10738 8.54301 6.18178C8.70535 6.24265 8.89135 6.26633 9.06721 6.29C9.48657 6.35426 9.9127 6.36102 10.3321 6.43881C10.7244 6.50645 11.1133 6.59776 11.5225 6.6079C11.9249 6.61805 12.3308 6.6654 12.7332 6.69583C12.9564 6.71274 13.1763 6.73304 13.3927 6.81758C13.5111 6.86155 13.6565 6.86493 13.7884 6.87169C14.1266 6.8886 14.4648 6.90213 14.7996 6.91228C15.2933 6.92581 15.7837 6.94948 16.2707 7.0577C16.4432 7.0949 16.6292 7.08138 16.8085 7.10505C17.1264 7.15578 17.4409 7.01035 17.7419 7.06446C18.0564 7.12196 18.3675 7.11181 18.682 7.12196C19.0169 7.13211 19.3551 7.10843 19.6831 7.21665C19.8048 7.25724 19.9503 7.24032 20.0855 7.24371C20.4474 7.24709 20.8093 7.25385 21.1678 7.23694L22.852 7.18621C23.1428 7.17945 23.4303 7.16592 23.7211 7.24033C23.9071 7.28429 24.1236 7.26062 24.3231 7.25724C24.57 7.25047 24.8101 7.23018 25.057 7.28767C25.2227 7.32488 25.4121 7.30458 25.5913 7.29444L27.2417 7.19636C27.793 7.15578 28.3408 7.09829 28.8887 7.05432C29.024 7.04079 29.1593 7.03065 29.2912 7.03741C29.352 7.04079 29.4062 7.08814 29.4636 7.11519C29.6023 7.04756 29.7274 6.96977 29.8999 6.97992C30.1637 6.99683 30.4309 6.9833 30.6947 6.98668C30.9618 6.99345 31.2324 6.93257 31.4996 6.90213L32.2368 6.8142L33.0417 6.71613L34.0428 6.5707C34.2423 6.54365 34.4418 6.51659 34.6448 6.55041C34.7496 6.56732 34.8714 6.56394 34.9796 6.54703C35.4226 6.47939 35.8758 6.43543 36.3053 6.30015C36.3696 6.27986 36.4372 6.26295 36.5014 6.26295C37.0459 6.24942 37.5701 6.10738 38.1011 6.01269C38.6794 5.90108 39.2611 5.78948 39.836 5.65758C40.1438 5.58995 40.4448 5.50878 40.7694 5.53922C40.9149 5.55274 41.084 5.50201 41.2328 5.45805C41.5033 5.37688 41.7671 5.40394 42.0377 5.40394C42.1763 5.40394 42.2947 5.46143 42.4029 5.53245C42.5145 5.60685 42.5653 5.71508 42.5585 5.83683C42.5483 6.01945 42.4232 6.18517 42.3251 6.34412C42.3048 6.37455 42.2575 6.40499 42.2135 6.41852C42.0106 6.47939 41.8077 6.53689 41.6082 6.58762C41.3038 6.67555 40.9825 6.71275 40.7086 6.88861C40.6037 6.95286 40.4448 6.99006 40.3196 6.9833C39.8834 6.95286 39.4674 7.08138 39.0447 7.1524C38.9128 7.17607 38.7775 7.20313 38.6422 7.20989C38.5813 7.21327 38.5205 7.17269 38.463 7.1524C38.1789 7.23018 37.8948 7.30458 37.5938 7.32488C37.2996 7.34179 37.002 7.43648 36.7077 7.44324C36.4981 7.44663 36.3087 7.54808 36.099 7.52103C35.8386 7.62925 35.5782 7.64954 35.2975 7.61234C35.1521 7.59543 34.9728 7.63939 34.8342 7.70365C34.6211 7.80173 34.3979 7.83555 34.1713 7.86937C33.8974 7.90995 33.6234 7.94039 33.3529 7.98773C32.9673 8.05537 32.575 8.07228 32.1895 8.05875C31.9088 8.04861 31.6315 8.05537 31.3711 8.12301C31.0295 8.21094 30.6913 8.1805 30.3531 8.22447C30.0352 8.26505 29.7139 8.28196 29.3926 8.30564C29.2979 8.3124 29.2168 8.2752 29.1491 8.22109C29.0274 8.27182 28.9124 8.35975 28.767 8.31916C28.5674 8.25829 28.3645 8.28873 28.1582 8.30564C27.5901 8.36313 27.0219 8.39695 26.4537 8.42738C26.2271 8.44091 26.0005 8.44429 25.774 8.43415C25.6556 8.43077 25.5508 8.45782 25.4391 8.47473C25.3275 8.48826 25.2024 8.50517 25.1043 8.47473C24.8811 8.41047 24.6579 8.42738 24.4313 8.43753C24.1371 8.45444 23.8395 8.44091 23.5453 8.46797C23.1394 8.50517 22.7336 8.424 22.3278 8.4815C22.2297 8.49502 22.1147 8.42738 22.0099 8.39695L21.4755 8.41047C21.3605 8.41386 21.2557 8.3868 21.1813 8.30902C21.1373 8.3124 21.0934 8.3124 21.0494 8.3124C20.2648 8.32593 19.4802 8.3124 18.6956 8.3124C17.911 8.30902 17.1264 8.31916 16.3451 8.2752L15.8006 8.24814C15.7059 8.24138 15.6315 8.19403 15.5707 8.13316L14.0048 8.0689C13.7106 8.05537 13.4198 8.05537 13.1357 7.95053C12.9733 7.88966 12.7806 7.89304 12.6013 7.87951L9.95666 7.67998C9.70978 7.65968 9.4629 7.64616 9.22955 7.54808C9.11118 7.49397 8.96914 7.48382 8.83386 7.46691L7.95794 7.36208L6.15875 7.15916C5.93892 7.13548 5.7191 7.10505 5.49251 7.12872C5.41473 7.13887 5.3268 7.08137 5.24225 7.05432C5.17461 7.06446 5.10021 7.09828 5.04272 7.08137C4.63012 6.94271 4.20061 6.91228 3.77787 6.83111C3.68994 6.8142 3.59525 6.80067 3.51408 6.77024C3.45659 6.74656 3.41262 6.69245 3.3619 6.65187C3.23 6.63158 3.09811 6.60114 2.96621 6.59099C2.43525 6.55717 1.99221 6.3272 1.57624 6.05665C1.55933 6.0465 1.55256 6.02283 1.54242 6.00592C1.47816 5.98563 1.40714 5.9721 1.35641 5.93828C1.25157 5.86388 1.16364 5.77256 1.05542 5.69816C0.899845 5.58656 0.8153 5.46481 0.83897 5.28895ZM1.39699 5.35321C1.38347 5.35659 1.36993 5.35997 1.35641 5.36335L1.35979 5.36673C1.36655 5.36335 1.37332 5.36335 1.38347 5.36673L1.39699 5.35321Z" fill="black"/>
</svg>
