<svg width="36" height="127" viewBox="0 0 36 127" fill="none" xmlns="http://www.w3.org/2000/svg">
<path d="M34.9393 82.1845C34.4693 81.8945 33.9994 81.7645 33.4894 81.9345C33.2194 82.0245 32.9994 82.1545 32.8495 82.3845L32.4495 83.0545C31.8895 84.0546 31.3696 85.0946 30.7496 86.0546C30.1497 86.9947 29.9497 88.0847 29.5898 89.1148C29.5598 89.1948 29.6397 89.3248 29.6697 89.4248L28.2299 92.0048C27.9499 92.5049 27.6899 92.9949 27.6099 93.5849C27.5699 93.9349 27.33 94.2449 27.18 94.5749L26.1001 96.515C25.8701 96.935 25.6801 97.355 25.5901 97.835C25.5101 98.2451 25.3001 98.6251 25.1002 98.9951C24.6402 99.8751 24.1303 100.735 23.7503 101.665C23.3903 102.535 23.1003 103.435 22.5804 104.235C22.0604 105.035 21.6405 105.885 21.1805 106.715C20.9205 107.175 20.6806 107.635 20.6106 108.185C20.5706 108.495 20.4006 108.785 20.2506 109.055C19.8806 109.755 19.4907 110.445 19.1007 111.136C18.5208 112.136 17.9708 113.156 17.6408 114.276C17.5309 114.656 17.2109 115.096 17.1809 115.266C17.0309 115.746 16.5409 115.746 16.461 116.216C16.351 116.746 16.121 117.096 15.921 117.506C15.691 117.966 15.481 118.196 15.2611 119.246C15.1711 119.636 15.0611 119.756 14.9611 119.936L14.5411 120.696L14.3311 121.066C14.2611 121.186 14.2112 121.346 14.0512 121.366C13.9412 121.386 13.8212 121.346 13.7612 121.256C13.7012 121.166 13.7012 121.046 13.6712 120.936L13.5612 120.286L13.3012 118.996C13.2212 118.586 13.1413 118.196 12.9213 118.026L12.8613 117.986C12.6813 117.876 12.6613 117.416 12.5713 117.096C12.4713 116.686 12.4013 116.286 12.1213 115.976C11.9314 115.756 11.8914 115.366 11.8214 115.026L10.3315 107.555C10.2715 107.245 10.2015 106.935 10.0915 106.645C10.0415 106.515 9.86155 106.435 9.74156 106.325C9.83156 105.965 9.96154 105.625 9.81156 105.245C9.58158 104.675 9.43159 104.065 9.20161 103.485C8.98163 102.905 8.93164 102.255 8.81165 101.645L8.47168 99.9451L8.11172 98.0951L7.65175 95.775C7.56176 95.315 7.46177 94.8549 7.19179 94.4449C7.05181 94.2249 6.96182 93.9649 6.91182 93.7149C6.73184 92.6849 6.41187 91.6748 6.39187 90.6148C6.39187 90.4648 6.37187 90.2948 6.31188 90.1548C5.84192 88.9747 5.75193 87.7047 5.47196 86.4747L4.67203 82.4245C4.53204 81.7045 4.45205 80.9845 4.00209 80.3344C3.80211 80.0444 3.75211 79.6444 3.71212 79.2844C3.64212 78.6344 3.25215 78.1144 2.94218 77.5643C2.7822 77.2843 2.48223 77.1043 2.17226 76.9743C1.84229 76.8343 1.49232 76.8643 1.17235 77.0243C0.69239 77.2543 0.402418 77.6643 0.0724486 78.0444C0.0124541 78.1144 -0.00754381 78.2544 0.00245528 78.3444L0.23243 79.7444C0.322422 80.4544 0.582396 81.1445 0.402413 81.9045C0.332419 82.1845 0.402414 82.5545 0.552401 82.8045C1.09235 83.6746 1.19234 84.6646 1.40232 85.6146C1.47232 85.9146 1.53232 86.2246 1.64231 86.5147C1.6923 86.6447 1.86228 86.7347 1.98227 86.8347C2.04226 87.5147 2.13226 88.1747 2.36224 88.8347C2.59222 89.4748 2.59222 90.1948 2.85219 90.8248C3.03218 91.2748 2.93218 91.7748 3.20216 92.1849C3.14217 92.8449 3.33215 93.4149 3.67212 93.9849C3.8521 94.2849 3.8721 94.7049 3.81211 95.065C3.72211 95.615 3.8121 96.125 3.91209 96.635C4.03208 97.255 4.18207 97.8751 4.28206 98.5051C4.42205 99.3951 4.66203 100.265 5.002 101.085C5.25198 101.685 5.45196 102.295 5.46196 102.915C5.47196 103.725 5.84192 104.445 5.96191 105.215C6.0719 105.945 6.25188 106.665 6.40187 107.385C6.45186 107.605 6.61185 107.745 6.81183 107.855C6.75184 108.165 6.58185 108.485 6.80183 108.775C7.1118 109.175 7.1718 109.645 7.27179 110.105L8.04172 113.976C8.09172 114.236 8.15171 114.486 8.22171 114.736C8.3117 115.056 8.40169 115.376 8.49168 115.696C8.61167 116.116 8.62167 116.536 8.68166 116.966C8.74166 117.396 8.82165 117.886 8.98163 118.186C9.3516 118.846 9.49159 119.636 9.66157 120.446C9.84155 121.326 10.0415 122.156 10.1915 123.056L10.3015 123.586C10.6715 124.926 11.3314 125.216 11.6814 126.056C11.7714 126.246 11.9614 126.126 12.0913 126.156L12.5613 126.886C12.6613 127.046 13.0313 127.056 13.2412 126.796C13.3512 126.796 13.4512 126.756 13.5112 126.706L15.0611 125.186C15.631 124.576 16.311 123.936 16.9409 122.746L20.5906 116.226L21.1905 115.116C21.2905 114.916 21.2605 114.706 21.1805 114.496L22.9404 111.326C23.2703 110.725 23.6103 110.145 23.7203 109.445C23.7803 109.045 24.0503 108.675 24.2502 108.305L27.25 102.935C27.5299 102.435 27.8199 101.935 27.8899 101.335C27.9299 101.035 28.1099 100.745 28.2499 100.465L29.2398 98.6651L31.2996 94.995C31.5496 94.5449 31.7896 94.0849 32.1795 93.7149C32.3095 93.5849 32.2995 93.3249 32.3495 93.1249C32.4695 93.0149 32.6595 92.9349 32.6995 92.8049C32.9894 91.8248 33.5794 91.0148 34.0293 90.1148C34.1193 89.9248 34.2393 89.7448 34.2793 89.5348C34.3093 89.3948 34.2493 89.2148 34.2293 89.0647C34.3793 88.7947 34.5093 88.5047 34.6893 88.2547C35.4192 87.2447 35.5492 86.0646 35.5392 84.8346C35.5392 84.7846 35.4992 84.7346 35.4792 84.6846C35.5192 84.5346 35.6092 84.3846 35.5992 84.2346C35.5892 83.9146 35.4992 83.5946 35.4992 83.2745C35.5392 82.8245 35.3892 82.4545 34.9393 82.1845ZM34.2393 83.3045C34.2693 83.2945 34.2993 83.2745 34.3293 83.2545C34.3093 83.2645 34.2993 83.2745 34.2893 83.2945L34.2393 83.3045Z" fill="black"/>
<path d="M12.8014 0.0116358C12.2615 0.0816382 11.8115 0.301652 11.5315 0.861671C11.3816 1.15168 11.2916 1.45168 11.3316 1.7917L11.4615 2.76173C11.6815 4.18178 11.9615 5.60183 12.1215 7.03188C12.2715 8.42193 12.8214 9.66197 13.2314 10.962C13.2614 11.062 13.4014 11.132 13.4914 11.222L13.7713 13.0521L13.9813 14.8922C14.0613 15.6022 14.1513 16.2922 14.4613 16.9622C14.6413 17.3522 14.6413 17.8423 14.7213 18.2923L15.0412 21.0624C15.1112 21.6524 15.2212 22.2324 15.4412 22.7924C15.6212 23.2724 15.6912 23.8225 15.7612 24.3425C15.9511 25.5825 15.9711 26.8426 16.2011 28.0826C16.4011 29.2427 16.6711 30.3927 16.7011 31.6027C16.7311 32.7928 16.8711 33.9928 16.961 35.1829C17.011 35.8429 17.071 36.4929 17.321 37.1329C17.451 37.4829 17.461 37.913 17.481 38.303C17.531 39.303 17.571 40.303 17.601 41.2931C17.641 42.7531 17.711 44.2032 18.0309 45.6432C18.1409 46.1532 18.1009 46.7033 18.1709 47.2333C18.3209 48.1733 17.891 49.1033 18.0509 49.9934C18.2209 50.9234 18.1909 51.8434 18.2209 52.7735C18.2509 53.7635 18.1809 54.7635 18.5009 55.7336C18.6209 56.0936 18.5709 56.5236 18.5809 56.9236C18.5909 57.9937 18.6109 59.0637 18.5609 60.1237L18.4109 65.1039C18.3909 65.9639 18.3509 66.814 18.5709 67.674C18.7009 68.224 18.6309 68.864 18.6209 69.4541C18.6009 70.1841 18.5409 70.8941 18.7109 71.6241C18.8209 72.1141 18.7609 72.6742 18.7309 73.2042L18.4409 78.0843C18.3209 79.7144 18.1509 81.3345 18.0209 82.9545C17.9809 83.3545 17.951 83.7546 17.971 84.1446C17.981 84.3246 18.1209 84.4846 18.2009 84.6546C18.0009 85.0646 17.771 85.4346 17.801 85.9446C17.851 86.7246 17.811 87.5147 17.821 88.2947C17.841 89.0847 17.661 89.8848 17.571 90.6748L17.311 92.8549L17.021 95.2349L16.5911 98.195C16.5111 98.7851 16.4311 99.3751 16.5311 99.9751C16.5811 100.285 16.5711 100.645 16.5211 100.965C16.3211 102.275 16.1911 103.615 15.7912 104.885C15.7312 105.075 15.6812 105.275 15.6812 105.465C15.6412 107.075 15.2212 108.625 14.9412 110.195C14.6113 111.906 14.2813 113.626 13.8913 115.326C13.6913 116.236 13.4514 117.126 13.5414 118.086C13.5814 118.516 13.4314 119.016 13.3014 119.456C13.0614 120.256 13.1414 121.036 13.1414 121.836C13.1414 122.246 13.3114 122.596 13.5214 122.916C13.7413 123.246 14.0613 123.396 14.4213 123.376C14.9612 123.346 15.4512 122.976 15.9211 122.686C16.0111 122.626 16.1011 122.486 16.1411 122.356C16.3211 121.756 16.4911 121.156 16.6411 120.566C16.9011 119.666 17.011 118.716 17.531 117.906C17.721 117.596 17.831 117.126 17.811 116.756C17.721 115.466 18.1009 114.236 18.3109 112.986C18.3809 112.596 18.4609 112.196 18.4809 111.796C18.4909 111.616 18.3709 111.436 18.3109 111.266C18.5409 110.425 18.7609 109.585 18.8209 108.695C18.8709 107.825 19.1508 106.945 19.1708 106.075C19.1808 105.455 19.4808 104.895 19.4008 104.275C19.7208 103.505 19.7808 102.735 19.6708 101.905C19.6208 101.475 19.7508 100.945 19.9408 100.535C20.2307 99.9051 20.3307 99.2451 20.4307 98.5751C20.5507 97.765 20.6407 96.955 20.7807 96.155C20.9807 95.0149 21.0307 93.8549 20.9907 92.7149C20.9607 91.8848 20.9807 91.0648 21.1807 90.2948C21.4406 89.2847 21.3506 88.2847 21.4806 87.2847C21.6006 86.3446 21.6506 85.3946 21.7206 84.4446C21.7406 84.1646 21.6306 83.9246 21.4706 83.7245C21.6206 83.3645 21.8806 83.0245 21.7606 82.5945C21.5806 82.0045 21.6706 81.4045 21.7206 80.7944C21.8906 79.1144 21.9906 77.4343 22.0806 75.7543C22.1206 75.0842 22.1306 74.4142 22.1006 73.7442C22.0906 73.3942 22.1706 73.0842 22.2206 72.7542C22.2606 72.4242 22.3106 72.0541 22.2206 71.7641C22.0306 71.1041 22.0806 70.4441 22.1106 69.7741C22.1606 68.904 22.1206 68.024 22.2006 67.154C22.3106 65.9539 22.0706 64.7539 22.2406 63.5538C22.2806 63.2638 22.0806 62.9238 21.9906 62.6138L22.0306 61.0338C22.0406 60.6937 21.9606 60.3837 21.7306 60.1637C21.7406 60.0337 21.7406 59.9037 21.7406 59.7737C21.7806 57.4536 21.7406 55.1336 21.7406 52.8135C21.7306 50.4934 21.7606 48.1733 21.6306 45.8632L21.5506 44.2532C21.5306 43.9732 21.3906 43.7532 21.2107 43.5731L21.0207 38.943C20.9807 38.073 20.9807 37.2129 20.6707 36.3729C20.4907 35.8929 20.5007 35.3229 20.4607 34.7928L19.8708 26.9726C19.8108 26.2426 19.7708 25.5125 19.4808 24.8225C19.3208 24.4725 19.2908 24.0525 19.2408 23.6525L18.9309 21.0624L18.3309 15.7422C18.2609 15.0922 18.1709 14.4421 18.2409 13.7721C18.2709 13.5421 18.1009 13.2821 18.0209 13.0321C18.0509 12.8321 18.1509 12.6121 18.1009 12.4421C17.691 11.222 17.601 9.95198 17.361 8.70194C17.311 8.44193 17.271 8.16192 17.181 7.92191C17.111 7.75191 16.951 7.62191 16.8311 7.4719C16.7711 7.08189 16.6811 6.69188 16.6511 6.30186C16.5511 4.73181 15.8711 3.42176 15.0712 2.19172C15.0412 2.14172 14.9712 2.12171 14.9212 2.09171C14.8612 1.9017 14.8212 1.69169 14.7213 1.54169C14.5013 1.23168 14.2313 0.971669 14.0113 0.651657C13.6813 0.191641 13.3214 -0.0583666 12.8014 0.0116358ZM12.9914 1.6617C13.0014 1.6217 13.0114 1.58169 13.0214 1.54169L13.0314 1.5517C13.0214 1.5717 13.0214 1.59169 13.0314 1.62169L12.9914 1.6617Z" fill="black"/>
</svg>
