<svg width="127" height="36" viewBox="0 0 127 36" fill="none" xmlns="http://www.w3.org/2000/svg">
<path d="M82.1845 0.66071C81.8945 1.13067 81.7645 1.60063 81.9345 2.11058C82.0245 2.38055 82.1545 2.60053 82.3845 2.75052L83.0545 3.15049C84.0546 3.71043 85.0946 4.23039 86.0546 4.85033C86.9947 5.45028 88.0847 5.65026 89.1147 6.01023C89.1947 6.04022 89.3247 5.96023 89.4248 5.93023L92.0048 7.3701C92.5049 7.65008 92.9949 7.91005 93.5849 7.99005C93.9349 8.03004 94.2449 8.27002 94.5749 8.42001L96.515 9.49991C96.935 9.72989 97.355 9.91987 97.835 10.0099C98.2451 10.0899 98.6251 10.2998 98.9951 10.4998C99.8751 10.9598 100.735 11.4697 101.665 11.8497C102.535 12.2097 103.435 12.4996 104.235 13.0196C105.035 13.5395 105.885 13.9595 106.715 14.4195C107.175 14.6794 107.635 14.9194 108.185 14.9894C108.495 15.0294 108.785 15.1994 109.055 15.3494C109.755 15.7193 110.445 16.1093 111.136 16.4993C112.136 17.0792 113.156 17.6292 114.276 17.9591C114.656 18.0691 115.096 18.3891 115.266 18.4191C115.746 18.5691 115.746 19.059 116.216 19.139C116.746 19.249 117.096 19.479 117.506 19.679C117.966 19.909 118.196 20.119 119.246 20.3389C119.636 20.4289 119.756 20.5389 119.936 20.6389L120.696 21.0589L121.066 21.2688C121.186 21.3388 121.346 21.3888 121.366 21.5488C121.386 21.6588 121.346 21.7788 121.256 21.8388C121.166 21.8988 121.046 21.8988 120.936 21.9288L120.286 22.0388L118.996 22.2988C118.586 22.3787 118.196 22.4587 118.026 22.6787L117.986 22.7387C117.876 22.9187 117.416 22.9387 117.096 23.0287C116.686 23.1287 116.286 23.1987 115.976 23.4786C115.756 23.6686 115.366 23.7086 115.026 23.7786L107.555 25.2685C107.245 25.3285 106.935 25.3985 106.645 25.5085C106.515 25.5585 106.435 25.7384 106.325 25.8584C105.965 25.7684 105.625 25.6384 105.245 25.7884C104.675 26.0184 104.065 26.1684 103.485 26.3984C102.905 26.6184 102.255 26.6684 101.645 26.7883L99.9451 27.1283L98.0951 27.4883L95.775 27.9482C95.315 28.0382 94.8549 28.1382 94.4449 28.4082C94.2249 28.5482 93.9649 28.6382 93.7149 28.6882C92.6849 28.8682 91.6748 29.1881 90.6148 29.2081C90.4648 29.2081 90.2948 29.2281 90.1548 29.2881C88.9747 29.7581 87.7047 29.8481 86.4746 30.128L82.4245 30.928C81.7045 31.068 80.9845 31.1479 80.3344 31.5979C80.0444 31.7979 79.6444 31.8479 79.2844 31.8879C78.6344 31.9579 78.1144 32.3478 77.5643 32.6578C77.2843 32.8178 77.1043 33.1178 76.9743 33.4277C76.8343 33.7577 76.8643 34.1077 77.0243 34.4276C77.2543 34.9076 77.6643 35.1976 78.0444 35.5275C78.1144 35.5875 78.2544 35.6075 78.3444 35.5975L79.7444 35.3676C80.4544 35.2776 81.1445 35.0176 81.9045 35.1976C82.1845 35.2676 82.5545 35.1976 82.8045 35.0476C83.6745 34.5076 84.6646 34.4077 85.6146 34.1977C85.9146 34.1277 86.2246 34.0677 86.5146 33.9577C86.6447 33.9077 86.7347 33.7377 86.8347 33.6177C87.5147 33.5577 88.1747 33.4677 88.8347 33.2378C89.4747 33.0078 90.1948 33.0078 90.8248 32.7478C91.2748 32.5678 91.7748 32.6678 92.1849 32.3978C92.8449 32.4578 93.4149 32.2678 93.9849 31.9279C94.2849 31.7479 94.7049 31.7279 95.0649 31.7879C95.615 31.8779 96.125 31.7879 96.635 31.6879C97.255 31.5679 97.875 31.4179 98.5051 31.3179C99.3951 31.1779 100.265 30.938 101.085 30.598C101.685 30.348 102.295 30.148 102.915 30.138C103.725 30.128 104.445 29.7581 105.215 29.6381C105.945 29.5281 106.665 29.3481 107.385 29.1981C107.605 29.1481 107.745 28.9881 107.855 28.7882C108.165 28.8482 108.485 29.0181 108.775 28.7982C109.175 28.4882 109.645 28.4282 110.105 28.3282L113.976 27.5583C114.236 27.5083 114.486 27.4483 114.736 27.3783C115.056 27.2883 115.376 27.1983 115.696 27.1083C116.116 26.9883 116.536 26.9783 116.966 26.9183C117.396 26.8583 117.886 26.7783 118.186 26.6184C118.846 26.2484 119.636 26.1084 120.446 25.9384C121.326 25.7584 122.156 25.5585 123.056 25.4085L123.586 25.2985C124.926 24.9285 125.216 24.2686 126.056 23.9186C126.246 23.8286 126.126 23.6386 126.156 23.5086L126.886 23.0387C127.046 22.9387 127.056 22.5687 126.796 22.3587C126.796 22.2488 126.756 22.1488 126.706 22.0888L125.186 20.5389C124.576 19.969 123.936 19.289 122.746 18.6591L116.226 15.0094L115.116 14.4095C114.916 14.3095 114.706 14.3395 114.496 14.4195L111.326 12.6596C110.725 12.3297 110.145 11.9897 109.445 11.8797C109.045 11.8197 108.675 11.5497 108.305 11.3497L102.935 8.35001C102.435 8.07004 101.935 7.78006 101.335 7.71007C101.035 7.67007 100.745 7.49009 100.465 7.35011L98.6651 6.36019L94.9949 4.30038C94.5449 4.0504 94.0849 3.81043 93.7149 3.42046C93.5849 3.29047 93.3249 3.30047 93.1249 3.25048C93.0149 3.13049 92.9349 2.9405 92.8049 2.90051C91.8248 2.61053 91.0148 2.02059 90.1148 1.57063C89.9248 1.48064 89.7448 1.36065 89.5348 1.32065C89.3948 1.29065 89.2147 1.35065 89.0647 1.37065C88.7947 1.22066 88.5047 1.09067 88.2547 0.910687C87.2447 0.180753 86.0646 0.0507666 84.8346 0.0607657C84.7846 0.0607657 84.7346 0.100763 84.6846 0.120762C84.5346 0.0807653 84.3846 -0.00922929 84.2346 0.0007698C83.9146 0.0107689 83.5945 0.100763 83.2745 0.100763C82.8245 0.0607666 82.4545 0.210751 82.1845 0.66071ZM83.3045 1.36065C83.2945 1.33065 83.2745 1.30065 83.2545 1.27066C83.2645 1.29065 83.2745 1.30065 83.2945 1.31065L83.3045 1.36065Z" fill="black"/>
<path d="M0.0116137 22.7987C0.0816162 23.3386 0.30163 23.7886 0.86165 24.0686C1.15166 24.2186 1.45166 24.3085 1.79167 24.2686L2.76171 24.1386C4.18176 23.9186 5.60181 23.6386 7.03186 23.4786C8.42191 23.3286 9.66195 22.7787 10.962 22.3687C11.062 22.3387 11.132 22.1987 11.222 22.1087L13.0521 21.8288L14.8921 21.6188C15.6022 21.5388 16.2922 21.4488 16.9622 21.1388C17.3522 20.9588 17.8422 20.9588 18.2923 20.8789L21.0624 20.5589C21.6524 20.4889 22.2324 20.3789 22.7924 20.1589C23.2724 19.9789 23.8224 19.9089 24.3425 19.839C25.5825 19.649 26.8426 19.629 28.0826 19.399C29.2426 19.199 30.3927 18.929 31.6027 18.899C32.7928 18.869 33.9928 18.729 35.1828 18.6391C35.8429 18.5891 36.4929 18.5291 37.1329 18.2791C37.4829 18.1491 37.9129 18.1391 38.303 18.1191C39.303 18.0691 40.303 18.0291 41.2931 17.9991C42.7531 17.9591 44.2032 17.8891 45.6432 17.5692C46.1532 17.4592 46.7032 17.4992 47.2333 17.4292C48.1733 17.2792 49.1033 17.7091 49.9934 17.5492C50.9234 17.3792 51.8434 17.4092 52.7735 17.3792C53.7635 17.3492 54.7635 17.4192 55.7336 17.0992C56.0936 16.9792 56.5236 17.0292 56.9236 17.0192C57.9936 17.0092 59.0637 16.9892 60.1237 17.0392L65.1039 17.1892C65.9639 17.2092 66.814 17.2492 67.674 17.0292C68.224 16.8992 68.864 16.9692 69.454 16.9792C70.1841 16.9992 70.8941 17.0592 71.6241 16.8892C72.1141 16.7792 72.6742 16.8392 73.2042 16.8692L78.0843 17.1592C79.7144 17.2792 81.3345 17.4492 82.9545 17.5792C83.3545 17.6192 83.7545 17.6491 84.1446 17.6291C84.3246 17.6191 84.4846 17.4792 84.6546 17.3992C85.0646 17.5992 85.4346 17.8291 85.9446 17.7991C86.7246 17.7491 87.5147 17.7891 88.2947 17.7791C89.0847 17.7591 89.8848 17.9391 90.6748 18.0291L92.8549 18.2891L95.2349 18.5791L98.195 19.009C98.7851 19.089 99.3751 19.169 99.9751 19.069C100.285 19.019 100.645 19.029 100.965 19.079C102.275 19.279 103.615 19.409 104.885 19.8089C105.075 19.8689 105.275 19.9189 105.465 19.9189C107.075 19.9589 108.625 20.3789 110.195 20.6589C111.906 20.9888 113.626 21.3188 115.326 21.7088C116.236 21.9088 117.126 22.1487 118.086 22.0587C118.516 22.0187 119.016 22.1687 119.456 22.2987C120.256 22.5387 121.036 22.4587 121.836 22.4587C122.246 22.4587 122.596 22.2887 122.916 22.0787C123.246 21.8588 123.396 21.5388 123.376 21.1788C123.346 20.6389 122.976 20.1489 122.686 19.679C122.626 19.589 122.486 19.499 122.356 19.459C121.756 19.279 121.156 19.109 120.566 18.959C119.666 18.6991 118.716 18.5891 117.906 18.0691C117.596 17.8791 117.126 17.7691 116.756 17.7891C115.466 17.8791 114.236 17.4992 112.986 17.2892C112.596 17.2192 112.196 17.1392 111.796 17.1192C111.616 17.1092 111.436 17.2292 111.265 17.2892C110.425 17.0592 109.585 16.8392 108.695 16.7792C107.825 16.7292 106.945 16.4493 106.075 16.4293C105.455 16.4193 104.895 16.1193 104.275 16.1993C103.505 15.8793 102.735 15.8193 101.905 15.9293C101.475 15.9793 100.945 15.8493 100.535 15.6593C99.9051 15.3694 99.2451 15.2694 98.5751 15.1694C97.765 15.0494 96.955 14.9594 96.155 14.8194C95.0149 14.6194 93.8549 14.5694 92.7149 14.6094C91.8848 14.6394 91.0648 14.6194 90.2948 14.4194C89.2847 14.1595 88.2847 14.2495 87.2847 14.1195C86.3446 13.9995 85.3946 13.9495 84.4446 13.8795C84.1646 13.8595 83.9245 13.9695 83.7245 14.1295C83.3645 13.9795 83.0245 13.7195 82.5945 13.8395C82.0045 14.0195 81.4045 13.9295 80.7944 13.8795C79.1144 13.7095 77.4343 13.6095 75.7543 13.5195C75.0842 13.4795 74.4142 13.4695 73.7442 13.4995C73.3942 13.5095 73.0842 13.4295 72.7542 13.3795C72.4241 13.3395 72.0541 13.2895 71.7641 13.3795C71.1041 13.5695 70.4441 13.5195 69.7741 13.4895C68.904 13.4395 68.024 13.4795 67.154 13.3995C65.9539 13.2895 64.7539 13.5295 63.5538 13.3595C63.2638 13.3195 62.9238 13.5195 62.6138 13.6095L61.0337 13.5695C60.6937 13.5595 60.3837 13.6395 60.1637 13.8695C60.0337 13.8595 59.9037 13.8595 59.7737 13.8595C57.4536 13.8195 55.1335 13.8595 52.8135 13.8595C50.4934 13.8695 48.1733 13.8395 45.8632 13.9695L44.2532 14.0495C43.9732 14.0695 43.7531 14.2095 43.5731 14.3894L38.943 14.5794C38.073 14.6194 37.2129 14.6194 36.3729 14.9294C35.8929 15.1094 35.3228 15.0994 34.7928 15.1394L26.9726 15.7293C26.2425 15.7893 25.5125 15.8293 24.8225 16.1193C24.4725 16.2793 24.0525 16.3093 23.6524 16.3593L21.0624 16.6692L15.7422 17.2692C15.0921 17.3392 14.4421 17.4292 13.7721 17.3592C13.5421 17.3292 13.2821 17.4992 13.0321 17.5792C12.8321 17.5492 12.6121 17.4492 12.4421 17.4992C11.222 17.9091 9.95196 17.9991 8.70192 18.2391C8.44191 18.2891 8.1619 18.3291 7.92189 18.4191C7.75189 18.4891 7.62189 18.6491 7.47188 18.7691C7.08187 18.829 6.69186 18.919 6.30184 18.949C4.73179 19.049 3.42174 19.729 2.1917 20.5289C2.1417 20.5589 2.12169 20.6289 2.09169 20.6789C1.90168 20.7389 1.69167 20.7789 1.54167 20.8789C1.23166 21.0988 0.971647 21.3688 0.651635 21.5888C0.191619 21.9188 -0.0583887 22.2787 0.0116137 22.7987ZM1.66168 22.6087C1.62168 22.5987 1.58167 22.5887 1.54167 22.5787L1.55168 22.5687C1.57168 22.5787 1.59167 22.5787 1.62167 22.5687L1.66168 22.6087Z" fill="black"/>
</svg>
