<svg width="36" height="127" viewBox="0 0 36 127" fill="none" xmlns="http://www.w3.org/2000/svg">
<path d="M0.660709 82.1845C1.13067 81.8945 1.60062 81.7645 2.11058 81.9345C2.38055 82.0245 2.60053 82.1545 2.75052 82.3845L3.15048 83.0545C3.71043 84.0546 4.23039 85.0946 4.85033 86.0546C5.45027 86.9947 5.65026 88.0847 6.01022 89.1148C6.04022 89.1948 5.96023 89.3248 5.93023 89.4248L7.3701 92.0048C7.65007 92.5049 7.91005 92.9949 7.99004 93.5849C8.03004 93.9349 8.27002 94.2449 8.42 94.5749L9.4999 96.515C9.72988 96.935 9.91987 97.355 10.0099 97.835C10.0898 98.2451 10.2998 98.6251 10.4998 98.9951C10.9598 99.8751 11.4697 100.735 11.8497 101.665C12.2097 102.535 12.4996 103.435 13.0196 104.235C13.5395 105.035 13.9595 105.885 14.4195 106.715C14.6794 107.175 14.9194 107.635 14.9894 108.185C15.0294 108.495 15.1994 108.785 15.3494 109.055C15.7193 109.755 16.1093 110.445 16.4993 111.136C17.0792 112.136 17.6292 113.156 17.9591 114.276C18.0691 114.656 18.3891 115.096 18.4191 115.266C18.5691 115.746 19.059 115.746 19.139 116.216C19.249 116.746 19.479 117.096 19.679 117.506C19.909 117.966 20.1189 118.196 20.3389 119.246C20.4289 119.636 20.5389 119.756 20.6389 119.936L21.0588 120.696L21.2688 121.066C21.3388 121.186 21.3888 121.346 21.5488 121.366C21.6588 121.386 21.7788 121.346 21.8388 121.256C21.8988 121.166 21.8988 121.046 21.9288 120.936L22.0388 120.286L22.2987 118.996C22.3787 118.586 22.4587 118.196 22.6787 118.026L22.7387 117.986C22.9187 117.876 22.9387 117.416 23.0287 117.096C23.1287 116.686 23.1987 116.286 23.4786 115.976C23.6686 115.756 23.7086 115.366 23.7786 115.026L25.2685 107.555C25.3285 107.245 25.3985 106.935 25.5084 106.645C25.5584 106.515 25.7384 106.435 25.8584 106.325C25.7684 105.965 25.6384 105.625 25.7884 105.245C26.0184 104.675 26.1684 104.065 26.3984 103.485C26.6183 102.905 26.6683 102.255 26.7883 101.645L27.1283 99.9451L27.4883 98.0951L27.9482 95.775C28.0382 95.315 28.1382 94.8549 28.4082 94.4449C28.5482 94.2249 28.6382 93.9649 28.6882 93.7149C28.8681 92.6849 29.1881 91.6748 29.2081 90.6148C29.2081 90.4648 29.2281 90.2948 29.2881 90.1548C29.7581 88.9747 29.848 87.7047 30.128 86.4747L30.9279 82.4245C31.0679 81.7045 31.1479 80.9845 31.5979 80.3344C31.7979 80.0444 31.8479 79.6444 31.8879 79.2844C31.9578 78.6344 32.3478 78.1144 32.6578 77.5643C32.8178 77.2843 33.1177 77.1043 33.4277 76.9743C33.7577 76.8343 34.1077 76.8643 34.4276 77.0243C34.9076 77.2543 35.1976 77.6643 35.5275 78.0444C35.5875 78.1144 35.6075 78.2544 35.5975 78.3444L35.3675 79.7444C35.2775 80.4544 35.0176 81.1445 35.1976 81.9045C35.2676 82.1845 35.1976 82.5545 35.0476 82.8045C34.5076 83.6746 34.4076 84.6646 34.1977 85.6146C34.1277 85.9146 34.0677 86.2246 33.9577 86.5147C33.9077 86.6447 33.7377 86.7347 33.6177 86.8347C33.5577 87.5147 33.4677 88.1747 33.2377 88.8347C33.0078 89.4748 33.0078 90.1948 32.7478 90.8248C32.5678 91.2748 32.6678 91.7748 32.3978 92.1849C32.4578 92.8449 32.2678 93.4149 31.9279 93.9849C31.7479 94.2849 31.7279 94.7049 31.7879 95.065C31.8779 95.615 31.7879 96.125 31.6879 96.635C31.5679 97.255 31.4179 97.8751 31.3179 98.5051C31.1779 99.3951 30.9379 100.265 30.598 101.085C30.348 101.685 30.148 102.295 30.138 102.915C30.128 103.725 29.7581 104.445 29.6381 105.215C29.5281 105.945 29.3481 106.665 29.1981 107.385C29.1481 107.605 28.9881 107.745 28.7881 107.855C28.8481 108.165 29.0181 108.485 28.7981 108.775C28.4882 109.175 28.4282 109.645 28.3282 110.105L27.5582 113.976C27.5083 114.236 27.4483 114.486 27.3783 114.736C27.2883 115.056 27.1983 115.376 27.1083 115.696C26.9883 116.116 26.9783 116.536 26.9183 116.966C26.8583 117.396 26.7783 117.886 26.6183 118.186C26.2484 118.846 26.1084 119.636 25.9384 120.446C25.7584 121.326 25.5584 122.156 25.4085 123.056L25.2985 123.586C24.9285 124.926 24.2686 125.216 23.9186 126.056C23.8286 126.246 23.6386 126.126 23.5086 126.156L23.0387 126.886C22.9387 127.046 22.5687 127.056 22.3587 126.796C22.2487 126.796 22.1488 126.756 22.0888 126.706L20.5389 125.186C19.9689 124.576 19.289 123.936 18.6591 122.746L15.0094 116.226L14.4095 115.116C14.3095 114.916 14.3395 114.706 14.4195 114.496L12.6596 111.326C12.3296 110.725 11.9897 110.145 11.8797 109.445C11.8197 109.045 11.5497 108.675 11.3497 108.305L8.35001 102.935C8.07003 102.435 7.78006 101.935 7.71006 101.335C7.67007 101.035 7.49009 100.745 7.3501 100.465L6.36019 98.6651L4.30038 94.995C4.0504 94.5449 3.81042 94.0849 3.42046 93.7149C3.29047 93.5849 3.30047 93.3249 3.25047 93.1249C3.13048 93.0149 2.9405 92.9349 2.90051 92.8049C2.61053 91.8248 2.02058 91.0148 1.57063 90.1148C1.48063 89.9248 1.36065 89.7448 1.32065 89.5348C1.29065 89.3948 1.35065 89.2148 1.37065 89.0647C1.22066 88.7947 1.09067 88.5047 0.910686 88.2547C0.180753 87.2447 0.0507666 86.0646 0.0607657 84.8346C0.0607657 84.7846 0.100763 84.7346 0.120762 84.6846C0.0807652 84.5346 -0.00922929 84.3846 0.0007698 84.2346C0.0107689 83.9146 0.100763 83.5946 0.100763 83.2745C0.0607666 82.8245 0.21075 82.4545 0.660709 82.1845ZM1.36065 83.3045C1.33065 83.2945 1.30065 83.2745 1.27065 83.2545C1.29065 83.2645 1.30065 83.2745 1.31065 83.2945L1.36065 83.3045Z" fill="black"/>
<path d="M22.7986 0.0116358C23.3385 0.0816382 23.7885 0.301652 24.0684 0.861671C24.2184 1.15168 24.3084 1.45168 24.2684 1.7917L24.1384 2.76173C23.9184 4.18178 23.6385 5.60183 23.4785 7.03188C23.3285 8.42193 22.7786 9.66197 22.3686 10.962C22.3386 11.062 22.1986 11.132 22.1086 11.222L21.8286 13.0521L21.6187 14.8922C21.5387 15.6022 21.4487 16.2922 21.1387 16.9622C20.9587 17.3522 20.9587 17.8423 20.8787 18.2923L20.5588 21.0624C20.4888 21.6524 20.3788 22.2324 20.1588 22.7924C19.9788 23.2724 19.9088 23.8225 19.8388 24.3425C19.6488 25.5825 19.6288 26.8426 19.3989 28.0826C19.1989 29.2427 18.9289 30.3927 18.8989 31.6027C18.8689 32.7928 18.7289 33.9928 18.6389 35.1829C18.5889 35.8429 18.5289 36.4929 18.279 37.1329C18.149 37.4829 18.139 37.913 18.119 38.303C18.069 39.303 18.029 40.303 17.999 41.2931C17.959 42.7531 17.889 44.2032 17.569 45.6432C17.459 46.1532 17.499 46.7033 17.429 47.2333C17.2791 48.1733 17.709 49.1033 17.549 49.9934C17.379 50.9234 17.409 51.8434 17.379 52.7735C17.349 53.7635 17.419 54.7635 17.0991 55.7336C16.9791 56.0936 17.0291 56.5236 17.0191 56.9236C17.0091 57.9937 16.9891 59.0637 17.0391 60.1237L17.1891 65.1039C17.2091 65.9639 17.2491 66.814 17.0291 67.674C16.8991 68.224 16.9691 68.864 16.9791 69.4541C16.9991 70.1841 17.0591 70.8941 16.8891 71.6241C16.7791 72.1141 16.8391 72.6742 16.8691 73.2042L17.1591 78.0843C17.2791 79.7144 17.449 81.3345 17.579 82.9545C17.619 83.3545 17.649 83.7546 17.629 84.1446C17.619 84.3246 17.479 84.4846 17.399 84.6546C17.599 85.0646 17.829 85.4346 17.799 85.9446C17.749 86.7246 17.789 87.5147 17.779 88.2947C17.759 89.0847 17.939 89.8848 18.029 90.6748L18.289 92.8549L18.5789 95.2349L19.0089 98.195C19.0889 98.7851 19.1689 99.3751 19.0689 99.9751C19.0189 100.285 19.0289 100.645 19.0789 100.965C19.2789 102.275 19.4089 103.615 19.8088 104.885C19.8688 105.075 19.9188 105.275 19.9188 105.465C19.9588 107.075 20.3788 108.625 20.6587 110.195C20.9887 111.906 21.3187 113.626 21.7086 115.326C21.9086 116.236 22.1486 117.126 22.0586 118.086C22.0186 118.516 22.1686 119.016 22.2986 119.456C22.5386 120.256 22.4586 121.036 22.4586 121.836C22.4586 122.246 22.2886 122.596 22.0786 122.916C21.8586 123.246 21.5387 123.396 21.1787 123.376C20.6387 123.346 20.1488 122.976 19.6788 122.686C19.5888 122.626 19.4989 122.486 19.4589 122.356C19.2789 121.756 19.1089 121.156 18.9589 120.566C18.6989 119.666 18.5889 118.716 18.069 117.906C17.879 117.596 17.769 117.126 17.789 116.756C17.879 115.466 17.499 114.236 17.2891 112.986C17.2191 112.596 17.1391 112.196 17.1191 111.796C17.1091 111.616 17.2291 111.436 17.2891 111.266C17.0591 110.425 16.8391 109.585 16.7791 108.695C16.7291 107.825 16.4491 106.945 16.4291 106.075C16.4191 105.455 16.1192 104.895 16.1992 104.275C15.8792 103.505 15.8192 102.735 15.9292 101.905C15.9792 101.475 15.8492 100.945 15.6592 100.535C15.3692 99.9051 15.2692 99.2451 15.1692 98.5751C15.0493 97.765 14.9593 96.955 14.8193 96.155C14.6193 95.0149 14.5693 93.8549 14.6093 92.7149C14.6393 91.8848 14.6193 91.0648 14.4193 90.2948C14.1593 89.2847 14.2493 88.2847 14.1193 87.2847C13.9994 86.3446 13.9494 85.3946 13.8794 84.4446C13.8594 84.1646 13.9694 83.9246 14.1293 83.7245C13.9794 83.3645 13.7194 83.0245 13.8394 82.5945C14.0194 82.0045 13.9294 81.4045 13.8794 80.7944C13.7094 79.1144 13.6094 77.4343 13.5194 75.7543C13.4794 75.0842 13.4694 74.4142 13.4994 73.7442C13.5094 73.3942 13.4294 73.0842 13.3794 72.7542C13.3394 72.4242 13.2894 72.0541 13.3794 71.7641C13.5694 71.1041 13.5194 70.4441 13.4894 69.7741C13.4394 68.904 13.4794 68.024 13.3994 67.154C13.2894 65.9539 13.5294 64.7539 13.3594 63.5538C13.3194 63.2638 13.5194 62.9238 13.6094 62.6138L13.5694 61.0338C13.5594 60.6937 13.6394 60.3837 13.8694 60.1637C13.8594 60.0337 13.8594 59.9037 13.8594 59.7737C13.8194 57.4536 13.8594 55.1336 13.8594 52.8135C13.8694 50.4934 13.8394 48.1733 13.9694 45.8632L14.0493 44.2532C14.0693 43.9732 14.2093 43.7532 14.3893 43.5731L14.5793 38.943C14.6193 38.073 14.6193 37.2129 14.9293 36.3729C15.1093 35.8929 15.0993 35.3229 15.1393 34.7928L15.7292 26.9726C15.7892 26.2426 15.8292 25.5125 16.1192 24.8225C16.2791 24.4725 16.3091 24.0525 16.3591 23.6525L16.6691 21.0624L17.2691 15.7422C17.3391 15.0922 17.429 14.4421 17.359 13.7721C17.3291 13.5421 17.499 13.2821 17.579 13.0321C17.549 12.8321 17.449 12.6121 17.499 12.4421C17.909 11.222 17.999 9.95198 18.239 8.70194C18.289 8.44193 18.329 8.16192 18.4189 7.92191C18.4889 7.75191 18.6489 7.62191 18.7689 7.4719C18.8289 7.08189 18.9189 6.69188 18.9489 6.30186C19.0489 4.73181 19.7288 3.42176 20.5288 2.19172C20.5588 2.14172 20.6287 2.12171 20.6787 2.09171C20.7387 1.9017 20.7787 1.69169 20.8787 1.54169C21.0987 1.23168 21.3687 0.971669 21.5887 0.651657C21.9186 0.191641 22.2786 -0.0583666 22.7986 0.0116358ZM22.6086 1.6617C22.5986 1.6217 22.5886 1.58169 22.5786 1.54169L22.5686 1.5517C22.5786 1.5717 22.5786 1.59169 22.5686 1.62169L22.6086 1.6617Z" fill="black"/>
</svg>
