<svg width="127" height="36" viewBox="0 0 127 36" fill="none" xmlns="http://www.w3.org/2000/svg">
<path d="M44.8139 34.9394C45.1039 34.4694 45.2339 33.9995 45.0639 33.4895C44.9739 33.2195 44.8439 32.9996 44.6139 32.8496L43.9439 32.4496C42.9439 31.8897 41.9039 31.3697 40.9439 30.7498C40.0039 30.1498 38.9139 29.9498 37.8839 29.5899C37.8039 29.5599 37.6739 29.6399 37.5739 29.6699L34.9939 28.23C34.4939 27.95 34.0039 27.69 33.4139 27.6101C33.0639 27.5701 32.7539 27.3301 32.4239 27.1801L30.4839 26.1002C30.0639 25.8702 29.6439 25.6802 29.1639 25.5902C28.7539 25.5102 28.3739 25.3003 28.0039 25.1003C27.1239 24.6403 26.2639 24.1304 25.3339 23.7504C24.4639 23.3904 23.5639 23.1005 22.7639 22.5805C21.9639 22.0606 21.1139 21.6406 20.2839 21.1806C19.8239 20.9207 19.3639 20.6807 18.8139 20.6107C18.5039 20.5707 18.2139 20.4007 17.9439 20.2507C17.2439 19.8808 16.5539 19.4908 15.8639 19.1008C14.8639 18.5209 13.8439 17.9709 12.7239 17.641C12.3439 17.531 11.9039 17.211 11.7339 17.181C11.2539 17.031 11.2539 16.5411 10.7839 16.4611C10.2539 16.3511 9.90394 16.1211 9.49394 15.9211C9.03394 15.6911 8.80394 15.4811 7.75394 15.2612C7.36394 15.1712 7.24394 15.0612 7.06394 14.9612L6.30394 14.5412L5.93394 14.3313C5.81394 14.2613 5.65394 14.2113 5.63394 14.0513C5.61394 13.9413 5.65394 13.8213 5.74394 13.7613C5.83394 13.7013 5.95394 13.7013 6.06394 13.6713L6.71394 13.5613L8.00394 13.3013C8.41394 13.2214 8.80394 13.1414 8.97394 12.9214L9.01394 12.8614C9.12394 12.6814 9.58394 12.6614 9.90394 12.5714C10.3139 12.4714 10.7139 12.4014 11.0239 12.1215C11.2439 11.9315 11.6339 11.8915 11.9739 11.8215L19.4439 10.3316C19.7539 10.2716 20.0639 10.2016 20.3539 10.0916C20.4839 10.0416 20.5639 9.86166 20.6739 9.74167C21.0339 9.83166 21.3739 9.96165 21.7539 9.81166C22.3239 9.58169 22.9339 9.4317 23.5139 9.20172C24.0939 8.98174 24.7439 8.93174 25.3539 8.81175L27.0539 8.47179L28.9039 8.11182L31.2239 7.65186C31.6839 7.56186 32.1439 7.46187 32.5539 7.1919C32.7739 7.05191 33.0339 6.96192 33.2839 6.91193C34.3139 6.73194 35.3239 6.41197 36.3839 6.39198C36.5339 6.39198 36.7039 6.37198 36.8439 6.31198C38.0239 5.84202 39.2939 5.75204 40.5239 5.47206L44.5739 4.67213C45.2939 4.53214 46.0139 4.45215 46.6639 4.00219C46.9539 3.80221 47.3539 3.75222 47.7139 3.71222C48.3639 3.64223 48.8839 3.25226 49.4339 2.94228C49.7139 2.7823 49.8939 2.48233 50.0239 2.17236C50.1639 1.84239 50.1339 1.49242 49.9739 1.17245C49.7439 0.692492 49.3339 0.40252 48.9539 0.0725495C48.8839 0.0125549 48.7439 -0.00744296 48.6539 0.00255613L47.2539 0.232531C46.5439 0.322523 45.8539 0.582497 45.0939 0.402514C44.8139 0.33252 44.4439 0.402515 44.1939 0.552502C43.3239 1.09245 42.3339 1.19244 41.3839 1.40242C41.0839 1.47242 40.7739 1.53242 40.4839 1.64241C40.3539 1.6924 40.2639 1.86238 40.1639 1.98237C39.4839 2.04237 38.8239 2.13236 38.1639 2.36234C37.5239 2.59232 36.8039 2.59232 36.1739 2.8523C35.7239 3.03228 35.2239 2.93229 34.8139 3.20226C34.1539 3.14227 33.5839 3.33225 33.0139 3.67222C32.7139 3.85221 32.2939 3.8722 31.9339 3.81221C31.3839 3.72222 30.8739 3.81221 30.3639 3.9122C29.7439 4.03219 29.1239 4.18218 28.4939 4.28217C27.6039 4.42215 26.7339 4.66213 25.9139 5.0021C25.3139 5.25208 24.7039 5.45206 24.0839 5.46206C23.2739 5.47206 22.5539 5.84203 21.7839 5.96201C21.0539 6.072 20.3339 6.25198 19.6139 6.40197C19.3939 6.45197 19.2539 6.61195 19.1439 6.81194C18.8339 6.75194 18.5139 6.58196 18.2239 6.80194C17.8239 7.11191 17.3539 7.1719 16.8939 7.27189L13.0239 8.04183C12.7639 8.09182 12.5139 8.15182 12.2639 8.22181C11.9439 8.3118 11.6239 8.40179 11.3039 8.49178C10.8839 8.61177 10.4639 8.62177 10.0339 8.68177C9.60394 8.74176 9.11394 8.82175 8.81394 8.98174C8.15394 9.3517 7.36394 9.49169 6.55394 9.66168C5.67394 9.84166 4.84394 10.0416 3.94394 10.1916L3.41394 10.3016C2.07394 10.6716 1.78394 11.3315 0.943944 11.6815C0.753944 11.7715 0.873941 11.9615 0.843941 12.0915L0.113942 12.5614C-0.0460583 12.6614 -0.0560581 13.0314 0.203942 13.2414C0.203942 13.3513 0.243942 13.4513 0.293942 13.5113L1.81394 15.0612C2.42394 15.6311 3.06394 16.3111 4.25394 16.941L10.7739 20.5907L11.8839 21.1906C12.0839 21.2906 12.2939 21.2606 12.5039 21.1806L15.6739 22.9405C16.2739 23.2704 16.8539 23.6104 17.5539 23.7204C17.9539 23.7804 18.3239 24.0504 18.6939 24.2504L24.0639 27.2501C24.5639 27.5301 25.0639 27.82 25.6639 27.89C25.9639 27.93 26.2539 28.11 26.5339 28.25L28.3339 29.2399L32.0039 31.2997C32.4539 31.5497 32.9139 31.7897 33.2839 32.1796C33.4139 32.3096 33.6739 32.2996 33.8739 32.3496C33.9839 32.4696 34.0639 32.6596 34.1939 32.6996C35.1739 32.9896 35.9839 33.5795 36.8839 34.0295C37.0739 34.1195 37.2539 34.2395 37.4639 34.2794C37.6039 34.3094 37.7839 34.2494 37.9339 34.2294C38.2039 34.3794 38.4939 34.5094 38.7439 34.6894C39.7539 35.4193 40.9339 35.5493 42.1639 35.5393C42.2139 35.5393 42.2639 35.4993 42.3139 35.4793C42.4639 35.5193 42.6139 35.6093 42.7639 35.5993C43.0839 35.5893 43.4039 35.4993 43.7239 35.4993C44.1739 35.5393 44.5439 35.3893 44.8139 34.9394ZM43.6939 34.2395C43.7039 34.2694 43.7239 34.2994 43.7439 34.3294C43.7339 34.3094 43.7239 34.2994 43.7039 34.2894L43.6939 34.2395Z" fill="black"/>
<path d="M126.984 12.8014C126.914 12.2615 126.694 11.8115 126.134 11.5315C125.844 11.3815 125.544 11.2915 125.204 11.3315L124.234 11.4615C122.814 11.6815 121.394 11.9615 119.964 12.1215C118.574 12.2715 117.334 12.8214 116.034 13.2314C115.934 13.2614 115.864 13.4014 115.774 13.4914L113.944 13.7713L112.104 13.9813C111.394 14.0613 110.704 14.1513 110.034 14.4613C109.644 14.6413 109.154 14.6413 108.704 14.7212L105.934 15.0412C105.344 15.1112 104.764 15.2212 104.204 15.4412C103.724 15.6212 103.174 15.6912 102.654 15.7611C101.414 15.9511 100.154 15.9711 98.9139 16.2011C97.7539 16.4011 96.604 16.6711 95.394 16.7011C94.204 16.7311 93.004 16.871 91.814 16.961C91.154 17.011 90.504 17.071 89.864 17.321C89.514 17.451 89.0839 17.461 88.6939 17.481C87.6939 17.531 86.694 17.571 85.704 17.601C84.244 17.641 82.794 17.711 81.354 18.0309C80.844 18.1409 80.294 18.1009 79.764 18.1709C78.824 18.3209 77.894 17.891 77.004 18.0509C76.074 18.2209 75.154 18.1909 74.224 18.2209C73.234 18.2509 72.234 18.1809 71.264 18.5009C70.904 18.6209 70.474 18.5709 70.074 18.5809C69.004 18.5909 67.934 18.6109 66.874 18.5609L61.894 18.4109C61.034 18.3909 60.184 18.3509 59.324 18.5709C58.774 18.7009 58.134 18.6309 57.544 18.6209C56.814 18.6009 56.104 18.5409 55.374 18.7109C54.884 18.8209 54.324 18.7609 53.794 18.7309L48.914 18.4409C47.284 18.3209 45.664 18.1509 44.044 18.0209C43.644 17.9809 43.244 17.951 42.854 17.971C42.674 17.981 42.514 18.1209 42.344 18.2009C41.934 18.0009 41.564 17.771 41.054 17.801C40.274 17.851 39.484 17.811 38.704 17.821C37.914 17.841 37.114 17.661 36.324 17.571L34.144 17.311L31.764 17.021L28.804 16.5911C28.214 16.5111 27.624 16.4311 27.024 16.5311C26.714 16.5811 26.354 16.5711 26.034 16.5211C24.724 16.3211 23.384 16.1911 22.114 15.7911C21.924 15.7312 21.724 15.6812 21.534 15.6812C19.924 15.6412 18.374 15.2212 16.804 14.9412C15.094 14.6112 13.374 14.2813 11.674 13.8913C10.764 13.6913 9.87395 13.4514 8.91395 13.5414C8.48395 13.5813 7.98395 13.4314 7.54395 13.3014C6.74395 13.0614 5.96395 13.1414 5.16395 13.1414C4.75395 13.1414 4.40395 13.3114 4.08395 13.5214C3.75395 13.7413 3.60396 14.0613 3.62396 14.4213C3.65396 14.9612 4.02395 15.4512 4.31395 15.9211C4.37395 16.0111 4.51395 16.1011 4.64395 16.1411C5.24395 16.3211 5.84395 16.4911 6.43395 16.6411C7.33395 16.901 8.28395 17.011 9.09395 17.531C9.40395 17.721 9.87395 17.831 10.244 17.811C11.534 17.721 12.764 18.1009 14.014 18.3109C14.404 18.3809 14.804 18.4609 15.204 18.4809C15.384 18.4909 15.564 18.3709 15.734 18.3109C16.574 18.5409 17.414 18.7609 18.304 18.8209C19.174 18.8709 20.054 19.1508 20.924 19.1708C21.544 19.1808 22.104 19.4808 22.724 19.4008C23.494 19.7208 24.264 19.7808 25.094 19.6708C25.524 19.6208 26.054 19.7508 26.464 19.9408C27.094 20.2307 27.754 20.3307 28.424 20.4307C29.234 20.5507 30.044 20.6407 30.844 20.7807C31.984 20.9807 33.144 21.0307 34.284 20.9907C35.114 20.9607 35.934 20.9807 36.704 21.1807C37.714 21.4406 38.714 21.3506 39.714 21.4806C40.654 21.6006 41.604 21.6506 42.554 21.7206C42.834 21.7406 43.074 21.6306 43.274 21.4706C43.634 21.6206 43.974 21.8806 44.404 21.7606C44.994 21.5806 45.594 21.6706 46.204 21.7206C47.884 21.8906 49.5639 21.9906 51.2439 22.0806C51.9139 22.1206 52.584 22.1306 53.254 22.1006C53.604 22.0906 53.9139 22.1706 54.2439 22.2206C54.5739 22.2606 54.944 22.3106 55.234 22.2206C55.894 22.0306 56.554 22.0806 57.224 22.1106C58.094 22.1606 58.974 22.1206 59.844 22.2006C61.044 22.3106 62.244 22.0706 63.444 22.2406C63.734 22.2806 64.0739 22.0806 64.3839 21.9906L65.964 22.0306C66.304 22.0406 66.614 21.9606 66.834 21.7306C66.964 21.7406 67.094 21.7406 67.224 21.7406C69.544 21.7806 71.864 21.7406 74.184 21.7406C76.504 21.7306 78.8239 21.7606 81.1339 21.6306L82.7439 21.5506C83.0239 21.5306 83.244 21.3906 83.424 21.2107L88.0539 21.0207C88.9239 20.9807 89.784 20.9807 90.624 20.6707C91.104 20.4907 91.674 20.5007 92.204 20.4607L100.024 19.8708C100.754 19.8108 101.484 19.7708 102.174 19.4808C102.524 19.3208 102.944 19.2908 103.344 19.2408L105.934 18.9309L111.254 18.3309C111.904 18.2609 112.554 18.1709 113.224 18.2409C113.454 18.2709 113.714 18.1009 113.964 18.0209C114.164 18.0509 114.384 18.1509 114.554 18.1009C115.774 17.691 117.044 17.601 118.294 17.361C118.554 17.311 118.834 17.271 119.074 17.181C119.244 17.111 119.374 16.951 119.524 16.831C119.914 16.7711 120.304 16.6811 120.694 16.6511C122.264 16.5511 123.574 15.8711 124.804 15.0712C124.854 15.0412 124.874 14.9712 124.904 14.9212C125.094 14.8612 125.304 14.8212 125.454 14.7212C125.764 14.5013 126.024 14.2313 126.344 14.0113C126.804 13.6813 127.054 13.3214 126.984 12.8014ZM125.334 12.9914C125.374 13.0014 125.414 13.0114 125.454 13.0214L125.444 13.0314C125.424 13.0214 125.404 13.0214 125.374 13.0314L125.334 12.9914Z" fill="black"/>
</svg>
