<svg width="127" height="36" viewBox="0 0 127 36" fill="none" xmlns="http://www.w3.org/2000/svg">
<path d="M82.1845 34.9394C81.8945 34.4694 81.7645 33.9995 81.9345 33.4895C82.0245 33.2195 82.1545 32.9996 82.3845 32.8496L83.0545 32.4496C84.0546 31.8897 85.0946 31.3697 86.0546 30.7498C86.9947 30.1498 88.0847 29.9498 89.1147 29.5899C89.1948 29.5599 89.3248 29.6399 89.4248 29.6699L92.0048 28.23C92.5049 27.95 92.9949 27.69 93.5849 27.6101C93.9349 27.5701 94.2449 27.3301 94.5749 27.1801L96.515 26.1002C96.935 25.8702 97.355 25.6802 97.835 25.5902C98.2451 25.5102 98.6251 25.3003 98.9951 25.1003C99.8751 24.6403 100.735 24.1304 101.665 23.7504C102.535 23.3904 103.435 23.1005 104.235 22.5805C105.035 22.0606 105.885 21.6406 106.715 21.1806C107.175 20.9207 107.635 20.6807 108.185 20.6107C108.495 20.5707 108.785 20.4007 109.055 20.2507C109.755 19.8808 110.445 19.4908 111.136 19.1008C112.136 18.5209 113.156 17.9709 114.276 17.641C114.656 17.531 115.096 17.211 115.266 17.181C115.746 17.031 115.746 16.5411 116.216 16.4611C116.746 16.3511 117.096 16.1211 117.506 15.9211C117.966 15.6911 118.196 15.4811 119.246 15.2612C119.636 15.1712 119.756 15.0612 119.936 14.9612L120.696 14.5412L121.066 14.3313C121.186 14.2613 121.346 14.2113 121.366 14.0513C121.386 13.9413 121.346 13.8213 121.256 13.7613C121.166 13.7013 121.046 13.7013 120.936 13.6713L120.286 13.5613L118.996 13.3013C118.586 13.2214 118.196 13.1414 118.026 12.9214L117.986 12.8614C117.876 12.6814 117.416 12.6614 117.096 12.5714C116.686 12.4714 116.286 12.4014 115.976 12.1215C115.756 11.9315 115.366 11.8915 115.026 11.8215L107.555 10.3316C107.245 10.2716 106.935 10.2016 106.645 10.0916C106.515 10.0416 106.435 9.86166 106.325 9.74167C105.965 9.83166 105.625 9.96165 105.245 9.81166C104.675 9.58169 104.065 9.4317 103.485 9.20172C102.905 8.98174 102.255 8.93174 101.645 8.81175L99.9451 8.47179L98.0951 8.11182L95.775 7.65186C95.315 7.56186 94.8549 7.46187 94.4449 7.1919C94.2249 7.05191 93.9649 6.96192 93.7149 6.91193C92.6849 6.73194 91.6748 6.41197 90.6148 6.39198C90.4648 6.39198 90.2948 6.37198 90.1548 6.31198C88.9747 5.84202 87.7047 5.75204 86.4746 5.47206L82.4245 4.67213C81.7045 4.53214 80.9845 4.45215 80.3344 4.00219C80.0444 3.80221 79.6444 3.75222 79.2844 3.71222C78.6344 3.64223 78.1144 3.25226 77.5643 2.94228C77.2843 2.7823 77.1043 2.48233 76.9743 2.17236C76.8343 1.84239 76.8643 1.49242 77.0243 1.17245C77.2543 0.692492 77.6643 0.40252 78.0444 0.0725495C78.1144 0.0125549 78.2544 -0.00744296 78.3444 0.00255613L79.7444 0.232531C80.4544 0.322523 81.1445 0.582497 81.9045 0.402514C82.1845 0.33252 82.5545 0.402515 82.8045 0.552502C83.6746 1.09245 84.6646 1.19244 85.6146 1.40242C85.9146 1.47242 86.2246 1.53242 86.5147 1.64241C86.6447 1.6924 86.7347 1.86238 86.8347 1.98237C87.5147 2.04237 88.1747 2.13236 88.8347 2.36234C89.4748 2.59232 90.1948 2.59232 90.8248 2.8523C91.2748 3.03228 91.7748 2.93229 92.1849 3.20226C92.8449 3.14227 93.4149 3.33225 93.9849 3.67222C94.2849 3.85221 94.7049 3.8722 95.065 3.81221C95.615 3.72222 96.125 3.81221 96.635 3.9122C97.255 4.03219 97.8751 4.18218 98.5051 4.28217C99.3951 4.42215 100.265 4.66213 101.085 5.0021C101.685 5.25208 102.295 5.45206 102.915 5.46206C103.725 5.47206 104.445 5.84203 105.215 5.96201C105.945 6.072 106.665 6.25198 107.385 6.40197C107.605 6.45197 107.745 6.61195 107.855 6.81194C108.165 6.75194 108.485 6.58196 108.775 6.80194C109.175 7.11191 109.645 7.1719 110.105 7.27189L113.976 8.04183C114.236 8.09182 114.486 8.15182 114.736 8.22181C115.056 8.3118 115.376 8.40179 115.696 8.49178C116.116 8.61177 116.536 8.62177 116.966 8.68177C117.396 8.74176 117.886 8.82175 118.186 8.98174C118.846 9.3517 119.636 9.49169 120.446 9.66168C121.326 9.84166 122.156 10.0416 123.056 10.1916L123.586 10.3016C124.926 10.6716 125.216 11.3315 126.056 11.6815C126.246 11.7715 126.126 11.9615 126.156 12.0915L126.886 12.5614C127.046 12.6614 127.056 13.0314 126.796 13.2414C126.796 13.3513 126.756 13.4513 126.706 13.5113L125.186 15.0612C124.576 15.6311 123.936 16.3111 122.746 16.941L116.226 20.5907L115.116 21.1906C114.916 21.2906 114.706 21.2606 114.496 21.1806L111.326 22.9405C110.725 23.2704 110.145 23.6104 109.445 23.7204C109.045 23.7804 108.675 24.0504 108.305 24.2504L102.935 27.2501C102.435 27.5301 101.935 27.82 101.335 27.89C101.035 27.93 100.745 28.11 100.465 28.25L98.6651 29.2399L94.9949 31.2997C94.5449 31.5497 94.0849 31.7897 93.7149 32.1796C93.5849 32.3096 93.3249 32.2996 93.1249 32.3496C93.0149 32.4696 92.9349 32.6596 92.8049 32.6996C91.8248 32.9896 91.0148 33.5795 90.1148 34.0295C89.9248 34.1195 89.7448 34.2395 89.5348 34.2794C89.3948 34.3094 89.2147 34.2494 89.0647 34.2294C88.7947 34.3794 88.5047 34.5094 88.2547 34.6894C87.2447 35.4193 86.0646 35.5493 84.8346 35.5393C84.7846 35.5393 84.7346 35.4993 84.6846 35.4793C84.5346 35.5193 84.3846 35.6093 84.2346 35.5993C83.9146 35.5893 83.5946 35.4993 83.2745 35.4993C82.8245 35.5393 82.4545 35.3893 82.1845 34.9394ZM83.3045 34.2395C83.2945 34.2694 83.2745 34.2994 83.2545 34.3294C83.2645 34.3094 83.2745 34.2994 83.2945 34.2894L83.3045 34.2395Z" fill="black"/>
<path d="M0.0116284 12.8014C0.0816309 12.2615 0.301645 11.8115 0.861664 11.5315C1.15167 11.3815 1.45168 11.2915 1.79169 11.3315L2.76172 11.4615C4.18177 11.6815 5.60183 11.9615 7.03188 12.1215C8.42193 12.2715 9.66196 12.8214 10.962 13.2314C11.062 13.2614 11.132 13.4014 11.222 13.4914L13.0521 13.7713L14.8922 13.9813C15.6022 14.0613 16.2922 14.1513 16.9622 14.4613C17.3522 14.6413 17.8422 14.6413 18.2923 14.7212L21.0624 15.0412C21.6524 15.1112 22.2324 15.2212 22.7924 15.4412C23.2724 15.6212 23.8225 15.6912 24.3425 15.7611C25.5825 15.9511 26.8426 15.9711 28.0826 16.2011C29.2427 16.4011 30.3927 16.6711 31.6027 16.7011C32.7928 16.7311 33.9928 16.871 35.1829 16.961C35.8429 17.011 36.4929 17.071 37.1329 17.321C37.4829 17.451 37.913 17.461 38.303 17.481C39.303 17.531 40.303 17.571 41.2931 17.601C42.7531 17.641 44.2032 17.711 45.6432 18.0309C46.1532 18.1409 46.7033 18.1009 47.2333 18.1709C48.1733 18.3209 49.1033 17.891 49.9934 18.0509C50.9234 18.2209 51.8434 18.1909 52.7735 18.2209C53.7635 18.2509 54.7635 18.1809 55.7336 18.5009C56.0936 18.6209 56.5236 18.5709 56.9236 18.5809C57.9937 18.5909 59.0637 18.6109 60.1237 18.5609L65.1039 18.4109C65.9639 18.3909 66.814 18.3509 67.674 18.5709C68.224 18.7009 68.864 18.6309 69.454 18.6209C70.1841 18.6009 70.8941 18.5409 71.6241 18.7109C72.1141 18.8209 72.6742 18.7609 73.2042 18.7309L78.0843 18.4409C79.7144 18.3209 81.3345 18.1509 82.9545 18.0209C83.3545 17.9809 83.7545 17.951 84.1446 17.971C84.3246 17.981 84.4846 18.1209 84.6546 18.2009C85.0646 18.0009 85.4346 17.771 85.9446 17.801C86.7246 17.851 87.5147 17.811 88.2947 17.821C89.0847 17.841 89.8848 17.661 90.6748 17.571L92.8549 17.311L95.2349 17.021L98.195 16.5911C98.7851 16.5111 99.3751 16.4311 99.9751 16.5311C100.285 16.5811 100.645 16.5711 100.965 16.5211C102.275 16.3211 103.615 16.1911 104.885 15.7911C105.075 15.7312 105.275 15.6812 105.465 15.6812C107.075 15.6412 108.625 15.2212 110.195 14.9412C111.906 14.6112 113.626 14.2813 115.326 13.8913C116.236 13.6913 117.126 13.4514 118.086 13.5414C118.516 13.5813 119.016 13.4314 119.456 13.3014C120.256 13.0614 121.036 13.1414 121.836 13.1414C122.246 13.1414 122.596 13.3114 122.916 13.5214C123.246 13.7413 123.396 14.0613 123.376 14.4213C123.346 14.9612 122.976 15.4512 122.686 15.9211C122.626 16.0111 122.486 16.1011 122.356 16.1411C121.756 16.3211 121.156 16.4911 120.566 16.6411C119.666 16.901 118.716 17.011 117.906 17.531C117.596 17.721 117.126 17.831 116.756 17.811C115.466 17.721 114.236 18.1009 112.986 18.3109C112.596 18.3809 112.196 18.4609 111.796 18.4809C111.616 18.4909 111.436 18.3709 111.266 18.3109C110.425 18.5409 109.585 18.7609 108.695 18.8209C107.825 18.8709 106.945 19.1508 106.075 19.1708C105.455 19.1808 104.895 19.4808 104.275 19.4008C103.505 19.7208 102.735 19.7808 101.905 19.6708C101.475 19.6208 100.945 19.7508 100.535 19.9408C99.9051 20.2307 99.2451 20.3307 98.5751 20.4307C97.765 20.5507 96.955 20.6407 96.155 20.7807C95.0149 20.9807 93.8549 21.0307 92.7149 20.9907C91.8848 20.9607 91.0648 20.9807 90.2948 21.1807C89.2847 21.4406 88.2847 21.3506 87.2847 21.4806C86.3446 21.6006 85.3946 21.6506 84.4446 21.7206C84.1646 21.7406 83.9245 21.6306 83.7245 21.4706C83.3645 21.6206 83.0245 21.8806 82.5945 21.7606C82.0045 21.5806 81.4045 21.6706 80.7944 21.7206C79.1144 21.8906 77.4343 21.9906 75.7543 22.0806C75.0842 22.1206 74.4142 22.1306 73.7442 22.1006C73.3942 22.0906 73.0842 22.1706 72.7542 22.2206C72.4242 22.2606 72.0541 22.3106 71.7641 22.2206C71.1041 22.0306 70.4441 22.0806 69.7741 22.1106C68.904 22.1606 68.024 22.1206 67.154 22.2006C65.9539 22.3106 64.7539 22.0706 63.5538 22.2406C63.2638 22.2806 62.9238 22.0806 62.6138 21.9906L61.0338 22.0306C60.6937 22.0406 60.3837 21.9606 60.1637 21.7306C60.0337 21.7406 59.9037 21.7406 59.7737 21.7406C57.4536 21.7806 55.1336 21.7406 52.8135 21.7406C50.4934 21.7306 48.1733 21.7606 45.8632 21.6306L44.2532 21.5506C43.9732 21.5306 43.7531 21.3906 43.5731 21.2107L38.943 21.0207C38.073 20.9807 37.2129 20.9807 36.3729 20.6707C35.8929 20.4907 35.3229 20.5007 34.7928 20.4607L26.9726 19.8708C26.2425 19.8108 25.5125 19.7708 24.8225 19.4808C24.4725 19.3208 24.0525 19.2908 23.6525 19.2408L21.0624 18.9309L15.7422 18.3309C15.0921 18.2609 14.4421 18.1709 13.7721 18.2409C13.5421 18.2709 13.2821 18.1009 13.0321 18.0209C12.8321 18.0509 12.6121 18.1509 12.4421 18.1009C11.222 17.691 9.95198 17.601 8.70193 17.361C8.44192 17.311 8.16192 17.271 7.92191 17.181C7.7519 17.111 7.6219 16.951 7.47189 16.831C7.08188 16.7711 6.69187 16.6811 6.30186 16.6511C4.7318 16.5511 3.42176 15.8711 2.19171 15.0712C2.14171 15.0412 2.1217 14.9712 2.0917 14.9212C1.9017 14.8612 1.69169 14.8212 1.54168 14.7212C1.23167 14.5013 0.971661 14.2313 0.65165 14.0113C0.191634 13.6813 -0.058374 13.3214 0.0116284 12.8014ZM1.6617 12.9914C1.62169 13.0014 1.58168 13.0114 1.54168 13.0214L1.55169 13.0314C1.57169 13.0214 1.59168 13.0214 1.62169 13.0314L1.6617 12.9914Z" fill="black"/>
</svg>
