<svg width="94" height="16" viewBox="0 0 94 16" fill="none" xmlns="http://www.w3.org/2000/svg">
<path d="M92.0307 4.3335C92.0607 4.3035 92.0807 4.2735 92.1107 4.2535L92.1007 4.2435C92.0907 4.2635 92.0707 4.2735 92.0507 4.2735L92.0307 4.3335ZM93.2807 4.1135C93.3707 4.9235 93.3207 5.6335 92.9907 6.1935C92.8207 6.4835 92.6207 6.7135 92.3607 6.7435C92.1107 6.7835 91.8607 6.8135 91.6107 6.8335C90.5107 6.9235 89.3907 6.9335 88.3007 7.1335C87.2407 7.3235 86.1907 6.8835 85.1407 6.6835C85.0607 6.6635 84.9707 6.4835 84.8907 6.3835L82.0707 6.6235C81.5307 6.6635 80.9907 6.7035 80.4307 6.4135C80.1007 6.2435 79.7407 6.3635 79.3907 6.3435L77.2807 6.5335C76.8307 6.5735 76.3807 6.5435 75.9107 6.3635C75.5207 6.2135 75.1007 6.2435 74.7007 6.2635C73.7507 6.3135 72.8007 6.4335 71.8307 6.3535C70.9307 6.2835 70.0207 6.0935 69.1207 6.2835C68.2307 6.4635 67.3207 6.4935 66.4207 6.5835C65.9207 6.6335 65.4307 6.6835 64.9007 6.4235C64.6107 6.2835 64.2907 6.3235 63.9907 6.3535C63.2407 6.4235 62.4907 6.5035 61.7407 6.6135C60.6407 6.7635 59.5507 6.8935 58.4207 6.6435C58.0207 6.5535 57.6207 6.7135 57.2107 6.6735C56.4907 6.6235 55.8807 7.3435 55.1907 7.2035C54.4607 7.0635 53.7707 7.2035 53.0807 7.2735C52.3307 7.3435 51.6107 7.5735 50.8107 7.2135C50.5207 7.0835 50.2007 7.2035 49.9007 7.2435L47.5107 7.6335L43.8107 8.2935C43.1707 8.4035 42.5407 8.5335 41.8507 8.3135C41.4007 8.1735 40.9507 8.3635 40.5007 8.4235C39.9607 8.5035 39.4307 8.6235 38.8307 8.4335C38.4307 8.3035 38.0207 8.4435 37.6307 8.5235C35.2207 9.0235 32.8307 9.6035 30.4307 10.2135C30.1407 10.2835 29.8407 10.3635 29.5407 10.3535C29.4007 10.3535 29.2307 10.1535 29.0807 10.0435C28.8307 10.3535 28.6107 10.7135 28.2107 10.6935C27.6007 10.6735 27.0207 10.7835 26.4007 10.7835C25.7907 10.7835 25.2207 11.0635 24.6407 11.2135L23.0307 11.6435L21.2807 12.1235L19.0807 12.7035C18.6407 12.8135 18.2007 12.9235 17.7107 12.7735C17.4507 12.6935 17.1807 12.7035 16.9407 12.7735C15.9807 13.0735 14.9507 13.1335 14.0407 13.6535C13.9107 13.7335 13.7607 13.7835 13.6107 13.7835C12.3607 13.7435 11.2307 14.2535 10.0407 14.4535C8.75068 14.7535 7.46068 15.0335 6.16068 15.2835C5.47068 15.4135 4.80068 15.6435 4.04068 15.3035C3.70068 15.1535 3.32068 15.2635 2.99068 15.3635C2.39068 15.5535 1.77068 15.2235 1.16068 15.0235C0.850678 14.9235 0.580678 14.5735 0.340678 14.1835C0.0906782 13.7735 -0.00932189 13.2635 0.000678107 12.7535C0.0206781 11.9835 0.250677 11.3935 0.440677 10.7835C0.480677 10.6635 0.580678 10.5735 0.660678 10.5535C1.08068 10.4635 1.50068 10.3735 1.92068 10.2835C2.55068 10.1035 3.24068 10.1635 3.78068 9.5735C3.98068 9.3435 4.32068 9.2735 4.59068 9.3735C5.55068 9.7235 6.42068 9.4135 7.31068 9.2535C7.59068 9.2035 7.87068 9.1435 8.17068 9.1635C8.30068 9.1735 8.46068 9.3635 8.60068 9.4735C9.19068 9.2235 9.78068 9.0335 10.4407 9.0335C11.0907 9.0335 11.6907 8.6735 12.3407 8.7135C12.8107 8.7335 13.1707 8.3335 13.6507 8.4935C14.1607 8.0835 14.7407 8.0535 15.3907 8.2235C15.7307 8.3135 16.1007 8.1235 16.3607 7.8635C16.7607 7.4635 17.2407 7.3235 17.7207 7.1835C18.3007 7.0235 18.9007 6.9135 19.4807 6.7135C20.3007 6.4335 21.1507 6.3035 22.0407 6.3435C22.6807 6.3735 23.3107 6.3135 23.8307 6.0035C24.5207 5.5935 25.3307 5.7235 26.0607 5.4735C26.7407 5.2435 27.4507 5.1035 28.1607 4.9435C28.3707 4.8935 28.5907 5.0335 28.7907 5.2535C29.0207 5.0235 29.2007 4.6135 29.5707 4.7735C30.0807 4.9935 30.5207 4.8435 30.9707 4.7335C32.2207 4.4235 33.4807 4.1135 34.7407 3.8535C35.2407 3.7535 35.7607 3.6835 36.2807 3.6735C36.5507 3.6635 36.7707 3.5135 37.0107 3.4235C37.2507 3.3335 37.5207 3.2435 37.7707 3.3435C38.3307 3.5835 38.8207 3.4735 39.3307 3.3735C39.9907 3.2535 40.6607 3.1835 41.2907 2.9735C42.1707 2.6935 43.1407 2.9335 44.0107 2.5635C44.2207 2.4735 44.5307 2.7435 44.7907 2.8435L45.9807 2.6535C46.2407 2.6135 46.4907 2.7035 46.7107 3.0235C46.8107 3.0035 46.9007 2.9835 47.0007 2.9835C50.4807 2.3835 53.9707 1.8835 57.4607 1.4235C57.8707 1.3735 58.2707 1.3235 58.6807 1.2935C58.8907 1.2735 59.0907 1.4435 59.2607 1.6835L62.7507 1.2735C63.4107 1.2035 64.0507 1.1035 64.7407 1.4035C65.1307 1.5735 65.5507 1.4535 65.9607 1.4035L71.8707 0.7935C72.4307 0.7435 72.9707 0.673498 73.5507 0.963498C73.8407 1.1135 74.1607 1.0535 74.4607 1.0335L76.4307 0.873498L80.4607 0.503499C80.9607 0.453499 81.4507 0.433498 81.9207 0.163498C82.0807 0.0734984 82.3107 0.2535 82.5107 0.3135C82.6507 0.2235 82.7907 0.0335 82.9207 0.0635C83.9007 0.3235 84.8507 0.0534995 85.8107 0.0434995C86.0107 0.0434995 86.2207 0.0135004 86.4207 0.0835004C86.5607 0.1335 86.6907 0.323499 86.8307 0.453499C87.1307 0.423499 87.4307 0.443498 87.7207 0.373498C88.8907 0.0634975 90.0007 0.6535 91.0907 1.4735C91.1307 1.5035 91.1707 1.5935 91.2007 1.6535C91.3507 1.6935 91.5107 1.6735 91.6507 1.7835C91.9307 2.0035 92.1907 2.3335 92.4807 2.5435C92.9207 2.9035 93.2007 3.3535 93.2807 4.1135Z" fill="#1D1D1B"/>
</svg>
