<svg width="146" height="9" viewBox="0 0 146 9" fill="none" xmlns="http://www.w3.org/2000/svg">
<path d="M145.706 6.59523C145.716 7.14523 145.526 7.61523 144.926 7.95523C144.616 8.13523 144.276 8.25523 143.866 8.25523L142.706 8.23523C140.996 8.17523 139.296 8.05523 137.586 8.06523C135.926 8.07523 134.386 7.65523 132.796 7.43523C132.666 7.41523 132.566 7.28523 132.456 7.20523L128.066 7.09523C127.226 7.07523 126.386 7.04523 125.566 6.79523C125.086 6.65523 124.506 6.69522 123.966 6.65522L120.666 6.59523C119.956 6.58523 119.276 6.52523 118.576 6.36523C117.986 6.22523 117.346 6.21522 116.716 6.19522C115.226 6.14522 113.746 6.13523 112.256 5.99523C110.866 5.85523 109.486 5.66523 108.066 5.71523C106.656 5.76523 105.236 5.70523 103.816 5.68523C103.026 5.67523 102.256 5.66522 101.496 5.44522C101.066 5.32522 100.566 5.32523 100.106 5.31523C98.9256 5.28523 97.7456 5.28523 96.5656 5.28523C94.8356 5.29523 93.1156 5.27523 91.4156 5.00523C90.8056 4.90523 90.1556 4.97523 89.5356 4.91523C88.4256 4.81523 87.3356 5.22523 86.2856 5.07523C85.1856 4.91523 84.0956 4.94523 83.0056 4.92523C81.8356 4.89523 80.6556 4.97522 79.5056 4.65522C79.0856 4.53522 78.5756 4.58522 78.1056 4.58522H74.3256L68.4456 4.62523C67.4356 4.62523 66.4356 4.64522 65.4256 4.40522C64.7756 4.25522 64.0356 4.32523 63.3256 4.31523C62.4656 4.29523 61.6256 4.31523 60.7756 4.11523C60.2056 3.97523 59.5356 4.01522 58.9156 4.01522L47.4256 4.13523C46.9556 4.14523 46.4856 4.14523 46.0256 4.09523C45.8156 4.07523 45.6456 3.91523 45.4556 3.82523C44.9556 3.99523 44.4956 4.19523 43.8956 4.12523C42.9856 4.02523 42.0656 4.00522 41.1456 3.90522C40.2256 3.81522 39.2756 3.90523 38.3356 3.92523L35.7556 3.96523L32.9356 4.01522L29.4156 4.06523C28.7156 4.07523 28.0156 4.08522 27.3256 3.90522C26.9656 3.81522 26.5556 3.78523 26.1756 3.79523C24.6156 3.85523 23.0456 3.75522 21.4956 3.97522C21.2656 4.00522 21.0256 4.02523 20.8056 4.00523C18.9356 3.81523 17.0556 4.00523 15.1856 4.00523L9.03564 4.14523C7.94564 4.16523 6.85564 4.25522 5.78564 3.97522C5.29564 3.84522 4.69564 3.89523 4.15564 3.93523C3.17564 4.01523 2.30564 3.76522 1.40564 3.58522C0.945644 3.49522 0.595641 3.24522 0.305641 2.97522C0.00564137 2.68522 -0.0643586 2.33523 0.0556414 1.98523C0.245641 1.46523 0.745641 1.08523 1.19564 0.68523C1.28564 0.60523 1.46564 0.555231 1.61564 0.545231L3.73564 0.445225C4.80564 0.375225 5.89564 0.465231 6.93564 0.115231C7.32564 -0.0147694 7.88564 -0.0347746 8.30564 0.0552254C9.74564 0.375225 11.2156 0.255228 12.6856 0.245228C13.1456 0.245228 13.6156 0.235227 14.0756 0.275227C14.2756 0.295227 14.4556 0.445229 14.6456 0.535229C15.6556 0.445229 16.6556 0.375229 17.6856 0.465229C18.6956 0.545229 19.7456 0.385228 20.7556 0.495228C21.4756 0.575228 22.1656 0.355227 22.8556 0.525227C23.7956 0.325227 24.6956 0.385226 25.6256 0.595226C26.1156 0.705226 26.7456 0.635228 27.2456 0.495228C28.0156 0.285228 28.7856 0.265228 29.5756 0.245228C30.5256 0.225228 31.4756 0.235225 32.4156 0.195225C33.7556 0.135225 35.0956 0.185226 36.4056 0.345226C37.3556 0.465226 38.3156 0.515229 39.2256 0.395229C40.4156 0.225229 41.5756 0.435229 42.7456 0.395229C43.8456 0.345229 44.9556 0.365231 46.0556 0.365231C46.3856 0.365231 46.6556 0.495226 46.8756 0.665226C47.3056 0.545226 47.7256 0.305229 48.2156 0.465229C48.8856 0.685229 49.5956 0.645227 50.2956 0.635227L56.1856 0.57523C56.9656 0.57523 57.7556 0.595224 58.5256 0.655224C58.9256 0.685224 59.2956 0.615224 59.6856 0.585224C60.0656 0.555224 60.5056 0.535227 60.8456 0.635227C61.6056 0.865227 62.3756 0.845226 63.1656 0.845226C64.1856 0.845226 65.2156 0.88523 66.2256 0.82523C67.6356 0.74523 69.0156 1.01523 70.4256 0.865231C70.7656 0.825231 71.1556 1.04523 71.5156 1.13523H73.3656C73.7656 1.13523 74.1156 1.22523 74.3856 1.45523C74.5356 1.45523 74.6856 1.45523 74.8356 1.45523H91.1056L92.9956 1.48523C93.3256 1.49523 93.5856 1.62523 93.8056 1.80523L99.2256 1.83522C100.246 1.84522 101.246 1.84523 102.246 2.10523C102.816 2.25523 103.486 2.20523 104.116 2.21523L113.306 2.31523C114.166 2.33523 115.026 2.33522 115.856 2.58522C116.276 2.70522 116.776 2.70523 117.246 2.71523L120.306 2.77523L126.586 2.89523C127.356 2.91523 128.126 2.94523 128.896 2.81523C129.156 2.77523 129.486 2.91522 129.786 2.97522C130.016 2.92522 130.256 2.81523 130.456 2.84523C131.926 3.11523 133.426 3.02523 134.916 3.11523C135.226 3.13523 135.556 3.13523 135.846 3.20523C136.056 3.25523 136.226 3.39523 136.426 3.49523C136.886 3.51523 137.356 3.55523 137.816 3.53523C139.666 3.46523 141.286 3.97523 142.846 4.64523C142.906 4.67523 142.946 4.73523 142.996 4.77523C143.226 4.81523 143.476 4.82523 143.666 4.91523C144.066 5.09523 144.416 5.34522 144.816 5.51522C145.346 5.74522 145.696 6.07523 145.706 6.59523ZM143.746 6.59523C143.786 6.57523 143.836 6.56523 143.876 6.55523H143.866C143.846 6.56523 143.816 6.56523 143.786 6.56523L143.746 6.59523Z" fill="black"/>
</svg>
