<svg width="116" height="15" viewBox="0 0 116 15" fill="none" xmlns="http://www.w3.org/2000/svg">
<path d="M115.256 5.0339C115.206 5.5839 115.026 6.0339 114.576 6.34389C114.346 6.50389 114.106 6.6139 113.826 6.6039L113.026 6.55389C111.846 6.46389 110.626 6.3739 109.386 6.4339C108.186 6.5039 107.026 6.17389 105.806 6.01389C105.706 6.00389 105.626 5.87389 105.536 5.80389L102.166 5.9339C101.506 5.9539 100.856 5.97389 100.196 5.76389C99.8161 5.64389 99.3561 5.70389 98.9261 5.69389L96.3861 5.76389C95.8461 5.77389 95.3161 5.7439 94.7761 5.6139C94.3161 5.5039 93.8261 5.51389 93.3461 5.51389C92.2061 5.51389 91.0561 5.57389 89.9161 5.48389C88.8461 5.40389 87.7761 5.2439 86.6861 5.34389C85.6061 5.4339 84.5061 5.41389 83.4261 5.44389C82.8261 5.45389 82.2261 5.4739 81.6361 5.2739C81.3061 5.1639 80.9261 5.18389 80.5661 5.19389C79.6561 5.20389 78.7561 5.22389 77.8461 5.26389C76.5161 5.31389 75.1961 5.3439 73.8861 5.1139C73.4161 5.0339 72.9161 5.1039 72.4461 5.0639C71.5861 4.9839 70.7661 5.4139 69.9461 5.2739C69.0961 5.1239 68.2661 5.17389 67.4261 5.16389C66.5261 5.15389 65.6161 5.2439 64.7361 4.9339C64.4061 4.8239 64.0161 4.8739 63.6561 4.8839L60.7561 4.9239L56.2461 5.01389C55.4661 5.02389 54.6961 5.0539 53.9261 4.8239C53.4261 4.6839 52.8561 4.7539 52.3161 4.7539C51.6561 4.7439 51.0061 4.77389 50.3561 4.58389C49.9161 4.45389 49.4061 4.4939 48.9261 4.5039L40.0861 4.7539C39.7261 4.7639 39.3661 4.77389 39.0061 4.73389C38.8461 4.71389 38.7061 4.5639 38.5561 4.4739C38.1761 4.6439 37.8361 4.85389 37.3661 4.80389C36.6661 4.71389 35.9561 4.7139 35.2461 4.6339C34.5361 4.5539 33.8061 4.6639 33.0861 4.7039L31.1061 4.7939L28.9461 4.9039L26.2461 5.0439C25.7061 5.0739 25.1761 5.09389 24.6361 4.94389C24.3561 4.86389 24.0361 4.84389 23.7461 4.87389C22.5461 4.97389 21.3361 4.91389 20.1561 5.19389C19.9861 5.23389 19.7961 5.2639 19.6261 5.2439C18.1761 5.1239 16.7461 5.3739 15.3061 5.4539L10.5961 5.8639C9.7561 5.9339 8.9361 6.07389 8.0861 5.84389C7.7061 5.7439 7.2461 5.8239 6.8361 5.8939C6.0961 6.0239 5.3961 5.8239 4.6961 5.7039C4.3361 5.6439 4.0461 5.4139 3.7961 5.1539C3.5361 4.8839 3.4561 4.5339 3.5161 4.1839C3.6161 3.6539 3.9661 3.2439 4.2861 2.8239C4.3461 2.7439 4.4861 2.67389 4.5961 2.66389L6.2261 2.44389C7.0461 2.31389 7.8961 2.34389 8.6761 1.94389C8.9661 1.79389 9.4061 1.7439 9.7261 1.8139C10.8661 2.0639 11.9961 1.86389 13.1261 1.80389C13.4861 1.78389 13.8461 1.7539 14.1961 1.7739C14.3561 1.7839 14.5061 1.9239 14.6561 2.0039C15.4261 1.8739 16.1961 1.75389 16.9961 1.80389C17.7861 1.85389 18.5861 1.6539 19.3661 1.7239C19.9261 1.7739 20.4461 1.5339 20.9861 1.6839C21.6961 1.4539 22.3961 1.49389 23.1361 1.66389C23.5161 1.75389 24.0061 1.66389 24.3761 1.51389C24.9661 1.28389 25.5561 1.2339 26.1661 1.2039C26.8961 1.1639 27.6261 1.15389 28.3561 1.08389C29.3861 0.983893 30.4261 1.0039 31.4461 1.1439C32.1861 1.2439 32.9261 1.2839 33.6261 1.1339C34.5461 0.943896 35.4361 1.1439 36.3361 1.0739C37.1861 1.0139 38.0361 1.0039 38.8861 0.993896C39.1461 0.993896 39.3461 1.1139 39.5261 1.2839C39.8561 1.1539 40.1761 0.913896 40.5561 1.0639C41.0761 1.2739 41.6261 1.2239 42.1661 1.2139L46.6961 1.08389C47.2961 1.07389 47.9061 1.0839 48.4961 1.1439C48.8061 1.1739 49.0861 1.0939 49.3861 1.0639C49.6761 1.0339 50.0161 1.0039 50.2761 1.1039C50.8661 1.3239 51.4561 1.2939 52.0561 1.2939C52.8361 1.2839 53.6261 1.3139 54.4061 1.2439C55.4861 1.1439 56.5561 1.4039 57.6361 1.2439C57.8961 1.2039 58.1961 1.41389 58.4761 1.51389L59.8961 1.4939C60.2061 1.4939 60.4761 1.5739 60.6761 1.8139C60.7961 1.8039 60.9061 1.8039 61.0261 1.8139L73.5161 1.59389L74.9661 1.5739C75.2161 1.5739 75.4161 1.69389 75.5961 1.87389L79.7561 1.7739C80.5361 1.7539 81.3061 1.72389 82.0861 1.94389C82.5261 2.07389 83.0361 2.0039 83.5261 1.9939L90.5761 1.80389C91.2361 1.78389 91.8961 1.7539 92.5461 1.9739C92.8761 2.0839 93.2561 2.05389 93.6161 2.05389L95.9661 2.0039L100.776 1.8639C101.366 1.8439 101.956 1.83389 102.536 1.66389C102.736 1.60389 102.996 1.7339 103.226 1.7739C103.396 1.7139 103.576 1.5839 103.736 1.6039C104.886 1.7839 106.026 1.6239 107.176 1.6439C107.416 1.6439 107.666 1.63389 107.896 1.69389C108.056 1.73389 108.196 1.8639 108.346 1.9539C108.706 1.9539 109.066 1.97389 109.416 1.94389C110.836 1.80389 112.106 2.3139 113.256 3.0039C113.306 3.0339 113.326 3.0939 113.356 3.1439C113.526 3.1839 113.716 3.21389 113.856 3.30389C114.146 3.50389 114.386 3.7539 114.666 3.9539C115.086 4.1639 115.306 4.5139 115.256 5.0339ZM113.846 4.94389C113.876 4.92389 113.906 4.9139 113.946 4.9039H113.936C113.926 4.9139 113.896 4.91389 113.876 4.91389L113.846 4.94389Z" fill="black"/>
<path d="M87.1561 2.54393C87.2261 3.09393 87.1661 3.57393 86.8361 3.96393C86.6661 4.16393 86.4761 4.32393 86.2361 4.35393L85.5361 4.43393C84.5061 4.52393 83.4661 4.55393 82.4361 4.71393C81.4361 4.86393 80.4761 4.59393 79.4961 4.48393C79.4161 4.47393 79.3461 4.35393 79.2661 4.28393L76.6161 4.51393C76.1061 4.55393 75.6061 4.59393 75.0861 4.41393C74.7861 4.30393 74.4361 4.39393 74.1161 4.39393L72.1361 4.57393C71.7061 4.61393 71.2961 4.60393 70.8661 4.49393C70.4961 4.40393 70.1061 4.43393 69.7361 4.45393C68.8461 4.51393 67.9561 4.61393 67.0461 4.58393C66.2061 4.55393 65.3561 4.46393 64.5061 4.61393C63.6661 4.76393 62.8161 4.80393 61.9661 4.89393C61.4961 4.94393 61.0361 4.98393 60.5561 4.83393C60.2861 4.74393 59.9861 4.78393 59.7061 4.81393C58.9961 4.88393 58.2961 4.96393 57.5961 5.05393C56.5661 5.18393 55.5461 5.31393 54.4961 5.18393C54.1261 5.13393 53.7461 5.25393 53.3661 5.24393C52.6861 5.23393 52.1061 5.75393 51.4561 5.68393C50.7761 5.61393 50.1361 5.73393 49.4861 5.80393C48.7861 5.88393 48.0961 6.06393 47.3661 5.85393C47.0961 5.77393 46.7961 5.87393 46.5161 5.91393L44.2761 6.28393L40.8061 6.90394C40.2061 7.01394 39.6161 7.12393 38.9861 7.01393C38.5761 6.94393 38.1461 7.09394 37.7261 7.15394C37.2161 7.23394 36.7161 7.34393 36.1761 7.24393C35.8061 7.18393 35.4261 7.29393 35.0561 7.37393C32.7961 7.84393 30.5461 8.39393 28.3061 8.96393C28.0361 9.03393 27.7561 9.10393 27.4761 9.11393C27.3461 9.12393 27.2061 8.99393 27.0761 8.93393C26.8261 9.16393 26.6061 9.42393 26.2361 9.44393C25.6761 9.47393 25.1261 9.58393 24.5661 9.62393C24.0061 9.66393 23.4661 9.89394 22.9161 10.0439L21.4061 10.4539L19.7661 10.9039L17.7061 11.4539C17.2961 11.5639 16.8861 11.6639 16.4361 11.5939C16.2061 11.5539 15.9561 11.5839 15.7361 11.6439C14.8261 11.9139 13.8861 12.0239 13.0161 12.4339C12.8861 12.4939 12.7561 12.5439 12.6161 12.5539C11.4661 12.5939 10.3961 13.0239 9.28606 13.2239C8.07606 13.5039 6.86606 13.7639 5.64606 14.0039C4.99606 14.1239 4.36606 14.3239 3.67606 14.1139C3.36606 14.0239 3.01606 14.1139 2.69606 14.2039C2.12606 14.3639 1.56606 14.1539 1.00606 14.0439C0.716062 13.9839 0.476063 13.7639 0.276063 13.5039C0.0560628 13.2339 -0.0239377 12.8939 0.00606232 12.5439C0.0460623 12.0139 0.296064 11.6039 0.496064 11.1839C0.536064 11.1039 0.636061 11.0339 0.716061 11.0239L1.91606 10.7839C2.51606 10.6339 3.16606 10.6439 3.70606 10.2139C3.90606 10.0439 4.22606 9.97393 4.47606 10.0339C5.36606 10.2239 6.18606 9.96393 7.03606 9.80393C7.30606 9.75393 7.56607 9.70393 7.84607 9.69393C7.96607 9.69393 8.10607 9.81393 8.23607 9.88393C8.80607 9.67393 9.36606 9.51393 9.97606 9.46393C10.5761 9.42393 11.1561 9.14393 11.7661 9.12393C12.1961 9.10393 12.5561 8.81393 12.9961 8.89393C13.4961 8.57393 14.0261 8.52393 14.6261 8.59393C14.9361 8.63393 15.2861 8.48393 15.5461 8.28393C15.9461 7.97393 16.3861 7.85394 16.8461 7.72394C17.3961 7.57394 17.9461 7.45393 18.4961 7.28393C19.2661 7.03393 20.0661 6.89393 20.8761 6.85393C21.4661 6.83393 22.0361 6.75393 22.5461 6.49393C23.2061 6.16393 23.9361 6.20393 24.6261 5.98393C25.2661 5.78393 25.9261 5.64393 26.5861 5.48393C26.7861 5.43393 26.9661 5.52393 27.1461 5.66393C27.3761 5.48393 27.5661 5.19393 27.8961 5.28393C28.3461 5.40393 28.7661 5.27393 29.1761 5.17393C30.3361 4.88393 31.5161 4.59393 32.6861 4.34393C33.1561 4.24393 33.6261 4.17393 34.1061 4.13393C34.3561 4.11393 34.5561 4.00393 34.7861 3.92393C35.0061 3.85393 35.2661 3.77393 35.4861 3.83393C35.9861 3.96393 36.4461 3.86393 36.9161 3.77393C37.5261 3.65393 38.1461 3.57394 38.7461 3.40394C39.5761 3.16394 40.4561 3.29393 41.2761 3.00393C41.4761 2.93393 41.7461 3.10393 41.9761 3.16393L43.0861 2.97394C43.3261 2.93394 43.5561 2.99393 43.7461 3.19393C43.8361 3.17393 43.9261 3.16394 44.0161 3.15394C47.2661 2.59394 50.5261 2.12393 53.7961 1.69393C54.1761 1.64393 54.5561 1.60393 54.9361 1.56393C55.1361 1.54393 55.3061 1.65393 55.4661 1.81393L58.7261 1.42393C59.3361 1.35393 59.9461 1.27393 60.5761 1.45393C60.9361 1.55393 61.3361 1.46393 61.7061 1.42393L67.2361 0.853932C67.7561 0.803932 68.2661 0.743932 68.7961 0.923932C69.0661 1.01393 69.3661 0.973931 69.6461 0.953931L71.4861 0.793935L75.2661 0.443929C75.7261 0.403929 76.1961 0.373934 76.6461 0.183934C76.7961 0.123934 77.0061 0.23393 77.1961 0.27393C77.3261 0.21393 77.4661 0.0739302 77.5861 0.0939302C78.4961 0.24393 79.3861 0.0439283 80.2861 0.0139283C80.4761 0.00392834 80.6661 -0.0160695 80.8561 0.0239305C80.9861 0.0539305 81.1061 0.183928 81.2261 0.263928C81.5061 0.243928 81.7861 0.243934 82.0661 0.183934C83.1661 -0.0460659 84.1861 0.323932 85.1961 0.853932C85.2361 0.873932 85.2661 0.933935 85.2961 0.973935C85.4361 0.993935 85.5861 0.983929 85.7161 1.05393C85.9761 1.19393 86.2061 1.41393 86.4661 1.55393C86.8461 1.73393 87.0861 2.02393 87.1561 2.54393ZM85.9761 2.71393C85.9961 2.69393 86.0261 2.67394 86.0461 2.65394H86.0361C86.0261 2.66394 86.0061 2.67393 85.9861 2.67393L85.9761 2.71393Z" fill="black"/>
</svg>
