<svg width="231" height="158" viewBox="0 0 231 158" fill="none" xmlns="http://www.w3.org/2000/svg">
<g clip-path="url(#clip0)">
<path d="M169.51 62.11C169.54 62.08 169.58 62.06 169.61 62.05L169.6 62.04C169.59 62.06 169.56 62.06 169.54 62.06L169.51 62.11ZM170.97 62.17C170.88 62.98 170.66 63.66 170.19 64.14C169.94 64.39 169.7 64.56 169.41 64.56L168.59 64.51C167.38 64.42 166.12 64.3 164.83 64.4C163.57 64.5 162.35 64 161.07 63.75C160.97 63.73 160.88 63.55 160.78 63.44L157.19 63.58C156.48 63.6 155.78 63.62 155.07 63.3C154.66 63.12 154.16 63.21 153.7 63.18L151 63.24C150.42 63.26 149.85 63.2 149.28 62.99C148.79 62.81 148.26 62.82 147.75 62.82C146.53 62.81 145.31 62.87 144.08 62.74C142.94 62.61 141.79 62.36 140.63 62.49C139.47 62.62 138.31 62.57 137.15 62.6C136.51 62.62 135.87 62.62 135.24 62.33C134.89 62.17 134.48 62.19 134.09 62.19C133.12 62.19 132.15 62.22 131.19 62.26C129.77 62.32 128.36 62.34 126.96 61.99C126.46 61.86 125.93 61.97 125.42 61.9C124.51 61.77 123.62 62.41 122.76 62.19C121.85 61.96 120.96 62.03 120.06 62C119.1 61.97 118.13 62.1 117.18 61.64C116.83 61.47 116.41 61.55 116.03 61.55L112.93 61.59L108.11 61.68C107.28 61.7 106.46 61.72 105.63 61.38C105.09 61.16 104.48 61.27 103.91 61.26C103.21 61.24 102.51 61.28 101.81 60.98C101.34 60.78 100.79 60.84 100.28 60.85L90.85 61.11C90.47 61.12 90.08 61.13 89.7 61.06C89.53 61.03 89.38 60.8 89.22 60.66C88.82 60.91 88.45 61.22 87.96 61.12C87.21 60.98 86.45 60.96 85.7 60.83C84.94 60.7 84.16 60.85 83.4 60.89L81.29 60.98L78.98 61.1L76.1 61.25C75.52 61.28 74.95 61.3 74.38 61.06C74.08 60.93 73.74 60.9 73.43 60.93C72.15 61.05 70.86 60.94 69.61 61.31C69.43 61.36 69.23 61.4 69.04 61.37C67.49 61.14 65.97 61.48 64.43 61.54L59.38 62C58.49 62.08 57.61 62.25 56.69 61.87C56.27 61.7 55.79 61.8 55.35 61.89C54.56 62.05 53.81 61.72 53.04 61.51C52.65 61.4 52.33 61.05 52.05 60.66C51.76 60.24 51.65 59.74 51.71 59.22C51.79 58.45 52.15 57.86 52.47 57.25C52.53 57.13 52.68 57.04 52.8 57.02C53.38 56.94 53.96 56.85 54.54 56.76C55.42 56.6 56.33 56.68 57.16 56.12C57.47 55.91 57.93 55.85 58.29 55.97C59.53 56.39 60.73 56.13 61.95 56.07C62.33 56.05 62.72 56.02 63.1 56.07C63.27 56.09 63.44 56.31 63.6 56.43C64.43 56.26 65.25 56.12 66.11 56.21C66.96 56.3 67.81 56.03 68.65 56.17C69.25 56.26 69.81 55.92 70.39 56.16C71.15 55.84 71.9 55.91 72.69 56.19C73.1 56.34 73.62 56.22 74.02 56.01C74.64 55.68 75.28 55.63 75.93 55.6C76.71 55.55 77.5 55.56 78.28 55.47C79.39 55.35 80.5 55.4 81.59 55.62C82.38 55.78 83.17 55.85 83.92 55.65C84.9 55.39 85.86 55.69 86.82 55.6C87.73 55.52 88.64 55.53 89.55 55.52C89.82 55.52 90.04 55.7 90.23 55.96C90.58 55.78 90.92 55.42 91.33 55.65C91.89 55.97 92.47 55.91 93.05 55.89L97.89 55.76C98.53 55.75 99.18 55.78 99.82 55.87C100.15 55.91 100.45 55.8 100.77 55.76C101.08 55.72 101.44 55.68 101.72 55.83C102.35 56.16 102.99 56.13 103.63 56.12C104.47 56.11 105.31 56.16 106.14 56.07C107.29 55.93 108.44 56.33 109.59 56.1C109.87 56.05 110.19 56.36 110.49 56.5L112.01 56.48C112.34 56.48 112.63 56.61 112.85 56.95C112.97 56.94 113.1 56.94 113.22 56.95L126.55 56.72C127.07 56.71 127.58 56.7 128.1 56.71C128.37 56.71 128.59 56.9 128.77 57.16L133.21 57.05C134.04 57.03 134.87 56.99 135.69 57.34C136.16 57.54 136.71 57.45 137.22 57.43L144.75 57.23C145.46 57.21 146.16 57.18 146.85 57.5C147.2 57.66 147.61 57.63 147.99 57.63L150.5 57.58L155.63 57.43C156.26 57.41 156.89 57.4 157.5 57.16C157.71 57.07 157.99 57.27 158.23 57.33C158.41 57.25 158.61 57.06 158.77 57.09C160 57.38 161.22 57.16 162.45 57.2C162.71 57.21 162.98 57.19 163.23 57.27C163.41 57.33 163.56 57.53 163.72 57.66C164.1 57.66 164.49 57.7 164.87 57.65C166.39 57.45 167.75 58.18 168.96 59.17C169.01 59.21 169.03 59.3 169.07 59.37C169.25 59.43 169.45 59.45 169.6 59.58C169.9 59.86 170.15 60.22 170.44 60.5C170.84 60.91 171.06 61.4 170.97 62.17Z" fill="#1D1D1B"/>
<path d="M139.94 59.74C139.97 59.71 139.99 59.68 140.02 59.66L140.01 59.65C140 59.67 139.98 59.68 139.96 59.68L139.94 59.74ZM141.19 59.52C141.28 60.33 141.23 61.04 140.9 61.6C140.73 61.89 140.53 62.12 140.27 62.15C140.02 62.19 139.77 62.22 139.52 62.24C138.42 62.33 137.3 62.34 136.21 62.54C135.15 62.73 134.1 62.29 133.05 62.09C132.97 62.07 132.88 61.89 132.8 61.79L129.98 62.03C129.44 62.07 128.9 62.11 128.34 61.82C128.01 61.65 127.65 61.77 127.3 61.75L125.19 61.94C124.74 61.98 124.29 61.95 123.82 61.77C123.43 61.62 123.01 61.65 122.61 61.67C121.66 61.72 120.71 61.84 119.74 61.76C118.84 61.69 117.93 61.5 117.03 61.69C116.14 61.87 115.23 61.9 114.33 61.99C113.83 62.04 113.34 62.09 112.81 61.83C112.52 61.69 112.2 61.73 111.9 61.76C111.15 61.83 110.4 61.91 109.65 62.02C108.55 62.17 107.46 62.3 106.33 62.05C105.93 61.96 105.53 62.12 105.12 62.08C104.4 62.03 103.79 62.75 103.1 62.61C102.37 62.47 101.68 62.61 100.99 62.68C100.24 62.75 99.52 62.98 98.72 62.62C98.43 62.49 98.11 62.61 97.81 62.65L95.42 63.04L91.72 63.7C91.08 63.81 90.45 63.94 89.76 63.72C89.31 63.58 88.86 63.77 88.41 63.83C87.87 63.91 87.34 64.03 86.74 63.84C86.34 63.71 85.93 63.85 85.54 63.93C83.13 64.43 80.74 65.01 78.34 65.62C78.05 65.69 77.75 65.77 77.45 65.76C77.31 65.76 77.14 65.56 76.99 65.45C76.74 65.76 76.52 66.12 76.12 66.1C75.51 66.08 74.93 66.19 74.31 66.19C73.7 66.19 73.13 66.47 72.55 66.62L70.94 67.05L69.19 67.53L66.99 68.11C66.55 68.22 66.11 68.33 65.62 68.18C65.36 68.1 65.09 68.11 64.85 68.18C63.89 68.48 62.86 68.54 61.95 69.06C61.82 69.14 61.67 69.19 61.52 69.19C60.27 69.15 59.14 69.66 57.95 69.86C56.66 70.16 55.37 70.44 54.07 70.69C53.38 70.82 52.71 71.05 51.95 70.71C51.61 70.56 51.23 70.67 50.9 70.77C50.3 70.96 49.68 70.63 49.07 70.43C48.76 70.33 48.49 69.98 48.25 69.59C48 69.18 47.9 68.67 47.91 68.16C47.93 67.39 48.16 66.8 48.35 66.19C48.39 66.07 48.49 65.98 48.57 65.96C48.99 65.87 49.41 65.78 49.83 65.69C50.46 65.51 51.15 65.57 51.69 64.98C51.89 64.75 52.23 64.68 52.5 64.78C53.46 65.13 54.33 64.82 55.22 64.66C55.5 64.61 55.78 64.55 56.08 64.57C56.21 64.58 56.37 64.77 56.51 64.88C57.1 64.63 57.69 64.44 58.35 64.44C59 64.44 59.6 64.08 60.25 64.12C60.72 64.14 61.08 63.74 61.56 63.9C62.07 63.49 62.65 63.46 63.3 63.63C63.64 63.72 64.01 63.53 64.27 63.27C64.67 62.87 65.15 62.73 65.63 62.59C66.21 62.43 66.81 62.32 67.39 62.12C68.21 61.84 69.06 61.71 69.95 61.75C70.59 61.78 71.22 61.72 71.74 61.41C72.43 61 73.24 61.13 73.97 60.88C74.65 60.65 75.36 60.51 76.07 60.35C76.28 60.3 76.5 60.44 76.7 60.66C76.93 60.43 77.11 60.02 77.48 60.18C77.99 60.4 78.43 60.25 78.88 60.14C80.13 59.83 81.39 59.52 82.65 59.26C83.15 59.16 83.67 59.09 84.19 59.08C84.46 59.07 84.68 58.92 84.92 58.83C85.16 58.74 85.43 58.65 85.68 58.75C86.24 58.99 86.73 58.88 87.24 58.78C87.9 58.66 88.57 58.59 89.2 58.38C90.08 58.1 91.05 58.34 91.92 57.97C92.13 57.88 92.44 58.15 92.7 58.25L93.89 58.06C94.15 58.02 94.4 58.11 94.62 58.43C94.72 58.41 94.81 58.39 94.91 58.39C98.39 57.79 101.88 57.29 105.37 56.83C105.78 56.78 106.18 56.73 106.59 56.7C106.8 56.68 107 56.85 107.17 57.09L110.66 56.68C111.32 56.61 111.96 56.51 112.65 56.81C113.04 56.98 113.46 56.86 113.87 56.81L119.78 56.2C120.34 56.15 120.88 56.08 121.46 56.37C121.75 56.52 122.07 56.46 122.37 56.44L124.34 56.28L128.37 55.91C128.87 55.86 129.36 55.84 129.83 55.57C129.99 55.48 130.22 55.66 130.42 55.72C130.56 55.63 130.7 55.44 130.83 55.47C131.81 55.73 132.76 55.46 133.72 55.45C133.92 55.45 134.13 55.42 134.33 55.49C134.47 55.54 134.6 55.73 134.74 55.86C135.04 55.83 135.34 55.85 135.63 55.78C136.8 55.47 137.91 56.06 139 56.88C139.04 56.91 139.08 57 139.11 57.06C139.26 57.1 139.42 57.08 139.56 57.19C139.84 57.41 140.1 57.74 140.39 57.95C140.83 58.31 141.11 58.76 141.19 59.52Z" fill="#1D1D1B"/>
</g>
<defs>
<clipPath id="clip0">
<rect width="230.4" height="157.09" fill="white"/>
</clipPath>
</defs>
</svg>
