<svg width="437" height="74" viewBox="0 0 437 74" fill="none" xmlns="http://www.w3.org/2000/svg">
<path d="M21.73 14.9453C33.36 14.9453 40.43 21.7653 42.28 31.1153L32 33.3053C31.41 28.2553 28.29 24.2053 21.89 24.2053C15.49 24.2053 10.6 28.9253 10.6 37.0053C10.6 45.0953 15.49 49.8053 21.89 49.8053C28.29 49.8053 31.41 46.0153 32.34 40.6253L42.62 43.0653C40.26 52.2453 33.44 59.0653 21.73 59.0653C9.6 59.0653 0 49.9653 0 36.9953C0 24.0453 9.6 14.9453 21.73 14.9453Z" fill="white"/>
<path d="M70.67 14.9453C83.14 14.9453 92.57 23.3653 92.57 37.0153C92.57 50.6653 83.14 59.0853 70.67 59.0853C58.2 59.0853 48.77 50.6653 48.77 37.0153C48.77 23.3653 58.21 14.9453 70.67 14.9453ZM70.67 49.8153C77.24 49.8153 81.96 45.0953 81.96 37.0153C81.96 28.9253 77.24 24.2153 70.67 24.2153C64.1 24.2153 59.38 28.9353 59.38 37.0153C59.39 45.1053 64.1 49.8153 70.67 49.8153Z" fill="white"/>
<path d="M112.04 16.1253V22.3553H112.88C114.56 18.8153 118.1 15.4453 125.77 15.4453C135.54 15.4453 142.03 22.6053 142.03 32.9653V57.8953H131.42V33.4653C131.42 27.1453 128.22 24.0353 122.49 24.0353C116 24.0353 112.21 28.5853 112.21 36.3353V57.8953H101.6V16.1153H112.04V16.1253Z" fill="white"/>
<path d="M147.85 16.1253H158.3V3.15527H168.91V16.1253H180.37V24.7153H168.91V46.7853C168.91 48.4653 169.75 49.3153 171.27 49.3153H179.36V57.9053H167.57C162.01 57.9053 158.3 54.1953 158.3 48.4753V24.7153H147.85V16.1253Z" fill="white"/>
<path d="M207.16 14.9453C219.46 14.9453 227.46 23.7053 227.46 36.5053V40.1253H197.05C197.3 45.8553 201.77 49.9853 207.66 49.9853C213.56 49.9853 216 46.7853 217.43 43.5853L226.11 48.1353C223.75 52.5953 218.78 59.0853 207.33 59.0853C194.86 59.0853 186.19 50.3253 186.19 37.0153C186.19 23.7053 194.86 14.9453 207.16 14.9453ZM216.67 32.2153C216.16 27.4153 212.54 24.0453 207.07 24.0453C201.34 24.0453 197.8 27.5853 197.13 32.2153H216.67Z" fill="white"/>
<path d="M243.38 16.1254L253.24 30.5254H254.08L263.94 16.1254H276.24L261.58 36.8454L276.41 57.9054H263.85L254.08 43.3354H253.24L243.47 57.9054H230.92L245.75 36.8454L231.09 16.1254H243.38Z" fill="white"/>
<path d="M280.03 16.1253H290.48V3.15527H301.09V16.1253H312.55V24.7153H301.09V46.7853C301.09 48.4653 301.93 49.3153 303.45 49.3153H311.54V57.9053H299.75C294.19 57.9053 290.48 54.1953 290.48 48.4753V24.7153H280.03V16.1253Z" fill="white"/>
<path d="M340.27 14.9453C352.74 14.9453 362.17 23.3653 362.17 37.0153C362.17 50.6653 352.74 59.0853 340.27 59.0853C327.8 59.0853 318.37 50.6653 318.37 37.0153C318.37 23.3653 327.8 14.9453 340.27 14.9453ZM340.27 49.8153C346.84 49.8153 351.56 45.0953 351.56 37.0153C351.56 28.9253 346.84 24.2153 340.27 24.2153C333.7 24.2153 328.98 28.9353 328.98 37.0153C328.98 45.1053 333.7 49.8153 340.27 49.8153Z" fill="white"/>
<path d="M436.3 31.6253H409.66C409.76 31.3253 409.89 31.0253 410.17 30.7553C410.65 30.2853 409.8 29.5153 410.15 28.9853C410.35 28.6953 410.26 28.3153 410.54 28.0553C411.34 27.2953 411.55 26.4153 411.72 25.5153C411.83 24.8953 411.97 24.2853 412.13 23.6853C412.2 23.4453 412.23 23.1853 412.55 23.0153C413.11 22.7253 413.21 22.3253 413.31 21.9153C413.48 21.1853 413.75 20.4753 413.76 19.7053C413.77 18.9353 414.36 18.3053 414.76 17.6453C415.19 16.9253 415.31 16.1453 415.54 15.3953C415.64 15.0753 415.72 14.7453 416.07 14.4953C416.49 14.2053 416.68 13.8753 416.76 13.5053C416.89 12.9353 417.01 12.3653 417.14 11.7953C417.26 11.5253 417.2 11.2053 417.56 11.0153C418.17 10.6953 418.28 10.2653 418.38 9.83534C418.55 9.07534 418.71 8.31534 418.87 7.55534C419.05 7.53534 419.36 7.53534 419.41 7.47534C420.03 6.73534 421.02 6.10533 421.05 5.20533C421.08 4.28533 421.4 3.42533 421.59 2.53533C421.63 2.33533 421.66 2.12533 421.68 1.92533C421.7 1.70533 421.42 1.46534 421.02 1.21534C420.25 0.725343 419.19 0.41534 417.93 0.16534C416.73 -0.0746605 415.97 -0.0346605 415.36 0.16534C414.94 0.29534 414.37 0.375336 413.95 0.505336C413.75 0.565336 413.72 0.705339 413.62 0.805339C413.51 0.805339 413.37 0.795333 413.31 0.815333C411.74 1.34533 410.51 1.96533 410.62 2.98533C410.65 3.23533 410.53 3.46533 410.48 3.70533C410.24 3.75533 409.91 3.78533 409.79 3.87533C409.63 4.00533 409.61 4.17534 409.55 4.32534C409.27 5.07534 409.39 5.90533 408.7 6.56533C408.61 6.65533 408.86 6.84533 408.96 6.98533C408.81 7.11533 408.47 7.21534 408.55 7.38534C408.81 7.85534 408.69 8.24534 408.61 8.64534C408.39 9.73534 408.16 10.8153 407.93 11.9053C407.81 12.4353 407.71 12.9653 407.56 13.4853C407.49 13.7253 407.47 13.9953 407.16 14.1553C406.53 14.4753 406.46 14.9253 406.36 15.3653C406.01 16.9453 405.69 18.5353 405.33 20.1253C405.26 20.4453 405.3 20.8253 404.91 21.0453C404.23 21.4453 404.15 21.9653 404.03 22.4953C403.81 23.4253 403.61 24.3653 403.4 25.2953C402.97 25.3253 402.65 25.3953 402.59 25.5653C402.49 25.8853 402.4 26.2053 402.33 26.5353C401.96 28.2353 401.6 29.9353 401.23 31.6353H372.93V41.2353H397.46C397.36 41.4253 397.19 41.6053 396.87 41.7453C396.59 41.8753 396.59 42.1053 396.6 42.3153C396.61 42.5253 396.73 42.7453 396.6 42.9453C396.36 43.3153 396.2 43.7053 396.1 44.1053C395.85 45.1153 395.66 46.1353 395.44 47.1553C395.36 47.5153 395.35 47.8953 394.75 48.1353C394.32 48.3053 394.81 48.6353 395.02 48.9153C394.59 48.9453 394.27 49.0153 394.22 49.1853C394.07 49.7553 393.87 50.3053 393.82 50.8953C393.77 51.5153 393.12 52.0053 393.32 52.6953C393.48 53.2253 393.2 53.6853 392.8 54.1053C392.24 54.6953 391.94 55.3553 391.88 56.0653C391.84 56.5653 391.66 57.0453 391.57 57.5353C391.49 57.9453 391.42 58.3453 391.78 58.8453C392.01 59.1653 392.08 59.5253 391.76 59.7153C391.15 60.0853 390.87 60.5153 391.19 61.0953C390.69 61.3553 391.07 61.8253 390.78 62.1453C390.38 62.5953 390.57 63.2153 390.23 63.6853C389.88 64.1653 389.87 64.7053 389.92 65.2653C389.68 65.3153 389.32 65.3353 389.24 65.4253C389.06 65.6353 389.01 65.8753 388.94 66.1153C388.72 66.8653 388.76 67.6653 387.79 68.2353C387.51 68.3953 387.47 68.6953 387.71 68.9553C388.35 69.6553 387.96 70.1653 387.94 70.7353C387.89 71.1053 387.83 71.4753 387.82 71.8553C387.82 71.9353 387.9 72.0553 388.07 72.1353C388.91 72.5653 389.7 73.0053 390.85 73.3553C391.62 73.5953 392.42 73.7253 393.15 73.7253C393.83 73.7153 394.46 73.6653 394.74 73.4753C395.29 73.1053 396.02 72.7853 396 72.2553C395.99 71.9653 395.99 71.6353 396.37 71.4553C397.2 71.0553 397.18 70.4553 397.31 69.8953C397.54 68.8353 397.76 67.7653 397.99 66.7053C398.3 65.7553 398.15 64.7053 398.88 63.8453C398.97 63.7453 398.97 63.6153 398.93 63.4753C398.67 62.5753 399.13 61.8253 399.24 61.0053C399.27 60.8053 399.4 60.6053 399.66 60.4753C400.16 60.2153 400.26 59.8553 400.34 59.4953C400.48 58.8853 400.61 58.2853 400.74 57.6753C400.85 57.1853 400.94 56.7053 401.05 56.2153C401.15 55.7653 401.24 55.3253 401.34 54.8753C401.45 54.3853 401.37 53.8553 401.71 53.4353C402.06 53.0153 402.23 52.5453 402.6 52.1353C402.84 51.8653 402.44 51.5253 402.13 51.1953C402.37 51.1453 402.75 51.1253 402.83 51.0353C403.01 50.8253 403.07 50.5753 403.12 50.3353C403.56 48.3453 403.97 46.3553 404.42 44.3753C404.49 44.0553 404.5 43.6953 404.89 43.4653C405.46 43.1253 405.53 42.6853 405.67 42.2453C405.78 41.8953 405.73 41.4953 406.12 41.2353H436.29V31.6253H436.3ZM417.78 1.13534C417.81 1.16534 417.84 1.19534 417.88 1.22534C417.85 1.21534 417.83 1.19534 417.8 1.18534C417.8 1.16534 417.8 1.15534 417.77 1.13534H417.78Z" fill="white"/>
</svg>
