<svg width="122" height="106" viewBox="0 0 122 106" fill="none" xmlns="http://www.w3.org/2000/svg">
<path d="M54.7283 103.118C83.2971 103.118 106.457 80.7062 106.457 53.0592C106.457 25.4123 83.2971 3 54.7283 3C26.1595 3 3 25.4123 3 53.0592C3 80.7062 26.1595 103.118 54.7283 103.118Z" fill="white" stroke="black" stroke-width="5" stroke-miterlimit="10"/>
<path d="M46.423 4.09595C22.7186 32.8639 22.8679 73.9257 46.862 102.549" stroke="black" stroke-width="5" stroke-miterlimit="10"/>
<path d="M64.4558 4.09595C87.932 32.592 88.011 73.1525 64.6929 101.734" stroke="black" stroke-width="5" stroke-miterlimit="10"/>
<path d="M90.0478 15.073C68.6436 26.6023 42.5336 26.8571 20.9099 15.8546" stroke="black" stroke-width="5" stroke-miterlimit="10"/>
<path d="M20.9099 89.6945C42.3141 78.1653 68.4241 77.9104 90.0478 88.9129" stroke="black" stroke-width="5" stroke-miterlimit="10"/>
<path d="M3 53.0593H106.457" stroke="black" stroke-width="5" stroke-miterlimit="10"/>
<path d="M55.4395 3.28882V102.83" stroke="black" stroke-width="5" stroke-miterlimit="10"/>
<path d="M107.493 55.0304L74.605 43.2803L86.264 75.2682L93.0066 68.8451L109.731 85.2682L117.475 77.885L100.75 61.462L107.493 55.0304Z" fill="white" stroke="black" stroke-width="5" stroke-miterlimit="10"/>
</svg>
