<svg width="154" height="101" viewBox="0 0 154 101" fill="none" xmlns="http://www.w3.org/2000/svg">
<path d="M55.4454 76.2459V85.4228L64.6223 76.2459H81.0011V2H2V76.2459H55.4454Z" fill="white" stroke="black" stroke-width="4" stroke-miterlimit="10"/>
<path d="M134.011 86.7668V95.9437L143.182 86.7668H152V12.5209H72.999V86.7668H134.011Z" fill="white" stroke="black" stroke-width="4" stroke-miterlimit="10"/>
<path d="M112.348 31.3362C119.576 31.3362 124.972 35.6143 124.972 41.9237V42.1289C124.972 48.1356 121.104 50.5825 117.488 52.1573L116.57 52.5625C115.349 53.1216 114.939 53.7833 114.939 55.2607V56.5841H108.219V54.7528C108.219 51.2904 109.44 49.1 112.646 47.674L113.564 47.2687C116.621 45.894 118.247 44.7758 118.247 42.2263C118.247 39.4769 115.903 37.6456 112.343 37.6456C108.675 37.6456 105.926 39.4769 105.926 42.9394V44.1602H99.2061V42.6316C99.2112 35.6143 105.018 31.3362 112.348 31.3362ZM111.584 60.0158C114.333 60.0158 116.421 62.001 116.421 64.853C116.421 67.7051 114.333 69.6903 111.584 69.6903C108.834 69.6903 106.747 67.7051 106.747 64.853C106.747 62.001 108.834 60.0158 111.584 60.0158Z" fill="white" stroke="black" stroke-width="3" stroke-miterlimit="10"/>
<path d="M39.4306 57.0817C32.203 57.0817 26.8066 52.8036 26.8066 46.4942V46.289C26.8066 40.2823 30.6744 37.8354 34.2907 36.2607L35.2089 35.8554C36.4298 35.2963 36.8402 34.6346 36.8402 33.1572V31.8338H43.5599V33.6651C43.5599 37.1276 42.3391 39.3179 39.1331 40.7439L38.2149 41.1492C35.1576 42.5239 33.5316 43.6422 33.5316 46.1916C33.5316 48.941 35.8758 50.7723 39.4357 50.7723C43.1034 50.7723 45.8529 48.941 45.8529 45.4786V44.2577H52.5727V45.7863C52.5675 52.8088 46.7608 57.0817 39.4306 57.0817ZM40.1949 28.4072C37.4454 28.4072 35.3577 26.4221 35.3577 23.57C35.3577 20.7179 37.4454 18.7328 40.1949 18.7328C42.9444 18.7328 45.0321 20.7179 45.0321 23.57C45.0321 26.4221 42.9444 28.4072 40.1949 28.4072Z" fill="white" stroke="black" stroke-width="3" stroke-miterlimit="10"/>
</svg>
