<svg width="156" height="103" viewBox="0 0 156 103" fill="none" xmlns="http://www.w3.org/2000/svg">
<path d="M56.4454 77.2459V86.4228L65.6223 77.2459H82.0011V3H3V77.2459H56.4454Z" fill="white" stroke="black" stroke-width="5" stroke-miterlimit="10"/>
<path d="M135.011 87.7667V96.9436L144.182 87.7667H153V13.5208H73.999V87.7667H135.011Z" fill="white" stroke="black" stroke-width="5" stroke-miterlimit="10"/>
<path d="M113.348 32.3362C120.576 32.3362 125.972 36.6143 125.972 42.9237V43.1289C125.972 49.1356 122.104 51.5825 118.488 53.1573L117.57 53.5625C116.349 54.1216 115.939 54.7833 115.939 56.2607V57.5841H109.219V55.7528C109.219 52.2904 110.44 50.1 113.646 48.674L114.564 48.2687C117.621 46.894 119.247 45.7758 119.247 43.2263C119.247 40.4769 116.903 38.6456 113.343 38.6456C109.675 38.6456 106.926 40.4769 106.926 43.9394V45.1602H100.206V43.6316C100.211 36.6143 106.018 32.3362 113.348 32.3362ZM112.584 61.0158C115.333 61.0158 117.421 63.001 117.421 65.853C117.421 68.7051 115.333 70.6903 112.584 70.6903C109.834 70.6903 107.747 68.7051 107.747 65.853C107.747 63.001 109.834 61.0158 112.584 61.0158Z" fill="white" stroke="black" stroke-width="5" stroke-miterlimit="10"/>
<path d="M40.4306 58.0816C33.203 58.0816 27.8066 53.8035 27.8066 47.4941V47.2889C27.8066 41.2821 31.6744 38.8353 35.2907 37.2605L36.2089 36.8553C37.4298 36.2962 37.8402 35.6345 37.8402 34.1571V32.8337H44.5599V34.665C44.5599 38.1274 43.3391 40.3178 40.1331 41.7438L39.2149 42.1491C36.1576 43.5238 34.5316 44.642 34.5316 47.1915C34.5316 49.9409 36.8758 51.7722 40.4357 51.7722C44.1034 51.7722 46.8529 49.9409 46.8529 46.4784V45.2576H53.5727V46.7862C53.5675 53.8087 47.7608 58.0816 40.4306 58.0816ZM41.1949 29.4071C38.4454 29.4071 36.3577 27.4219 36.3577 24.5699C36.3577 21.7178 38.4454 19.7327 41.1949 19.7327C43.9444 19.7327 46.0321 21.7178 46.0321 24.5699C46.0321 27.4219 43.9444 29.4071 41.1949 29.4071Z" fill="white" stroke="black" stroke-width="5" stroke-miterlimit="10"/>
</svg>
