<svg width="121" height="10" viewBox="0 0 121 10" fill="none" xmlns="http://www.w3.org/2000/svg">
<path d="M118.601 6.70353C118.631 6.67353 118.671 6.65353 118.701 6.64353L118.691 6.63353C118.681 6.65353 118.651 6.65353 118.631 6.65353L118.601 6.70353ZM120.061 6.76353C119.971 7.57353 119.751 8.25353 119.281 8.73353C119.031 8.98353 118.791 9.15353 118.501 9.15353L117.681 9.10353C116.471 9.01353 115.211 8.89353 113.921 8.99353C112.661 9.09353 111.441 8.59353 110.161 8.34353C110.061 8.32353 109.971 8.14353 109.871 8.03353L106.281 8.17353C105.571 8.19353 104.871 8.21353 104.161 7.89353C103.751 7.71353 103.251 7.80353 102.791 7.77353L100.091 7.83353C99.5107 7.85353 98.9407 7.79353 98.3707 7.58353C97.8807 7.40353 97.3507 7.41353 96.8407 7.41353C95.6207 7.40353 94.4007 7.46353 93.1707 7.33353C92.0307 7.20353 90.8808 6.95353 89.7207 7.08353C88.5607 7.21353 87.4007 7.16353 86.2407 7.19353C85.6007 7.21353 84.9607 7.21353 84.3307 6.92353C83.9808 6.76353 83.5707 6.78353 83.1807 6.78353C82.2107 6.78353 81.2407 6.81353 80.2807 6.85353C78.8607 6.91353 77.4507 6.93353 76.0507 6.58353C75.5507 6.45353 75.0207 6.56353 74.5107 6.49353C73.6007 6.36353 72.7107 7.00353 71.8507 6.78353C70.9407 6.55353 70.0507 6.62353 69.1507 6.59353C68.1907 6.56353 67.2207 6.69353 66.2707 6.23353C65.9207 6.06353 65.5007 6.14353 65.1207 6.14353L62.0207 6.18353L57.2007 6.27353C56.3707 6.29353 55.5507 6.31353 54.7207 5.97353C54.1807 5.75353 53.5707 5.86353 53.0007 5.85353C52.3007 5.83353 51.6007 5.87353 50.9007 5.57353C50.4307 5.37353 49.8807 5.43353 49.3707 5.44353L39.9407 5.70353C39.5607 5.71353 39.1707 5.72353 38.7907 5.65353C38.6207 5.62353 38.4707 5.39353 38.3107 5.25353C37.9107 5.50353 37.5407 5.81353 37.0507 5.71353C36.3007 5.57353 35.5407 5.55353 34.7907 5.42353C34.0307 5.29353 33.2507 5.44353 32.4907 5.48353L30.3807 5.57353L28.0707 5.69353L25.1907 5.84353C24.6107 5.87353 24.0407 5.89353 23.4707 5.65353C23.1707 5.52353 22.8307 5.49353 22.5207 5.52353C21.2407 5.64353 19.9507 5.53353 18.7007 5.90353C18.5207 5.95353 18.3207 5.99353 18.1307 5.96353C16.5807 5.73353 15.0607 6.07353 13.5207 6.13353L8.47074 6.59353C7.58074 6.67353 6.70074 6.84353 5.78074 6.46353C5.36074 6.29353 4.88074 6.39353 4.44074 6.48353C3.65074 6.64353 2.90074 6.31353 2.13074 6.10353C1.74074 5.99353 1.42074 5.64353 1.14074 5.25353C0.85074 4.83353 0.74074 4.33353 0.80074 3.81353C0.88074 3.04353 1.24074 2.45353 1.56074 1.84353C1.62074 1.72353 1.77074 1.63353 1.89074 1.61353C2.47074 1.53353 3.05074 1.44353 3.63074 1.35353C4.51074 1.19353 5.42074 1.27353 6.25074 0.713528C6.56074 0.503528 7.02074 0.44353 7.38074 0.56353C8.62074 0.98353 9.82074 0.723529 11.0407 0.663529C11.4207 0.643529 11.8107 0.613529 12.1907 0.663529C12.3607 0.683529 12.5307 0.903529 12.6907 1.02353C13.5207 0.853529 14.3407 0.713528 15.2007 0.803528C16.0507 0.893528 16.9007 0.623527 17.7407 0.763527C18.3407 0.853527 18.9007 0.513529 19.4807 0.753529C20.2407 0.433529 20.9907 0.503528 21.7807 0.783527C22.1907 0.933527 22.7107 0.813527 23.1107 0.603527C23.7307 0.273527 24.3707 0.223527 25.0207 0.193527C25.8007 0.143527 26.5907 0.15353 27.3707 0.0635301C28.4807 -0.0564699 29.5907 -0.00647223 30.6807 0.213528C31.4707 0.373528 32.2607 0.44353 33.0107 0.24353C33.9907 -0.0164696 34.9507 0.283527 35.9107 0.193527C36.8207 0.113527 37.7307 0.123529 38.6407 0.113529C38.9107 0.113529 39.1307 0.293528 39.3207 0.553528C39.6707 0.373528 40.0107 0.0135304 40.4207 0.24353C40.9807 0.56353 41.5607 0.503528 42.1407 0.483528L46.9807 0.353527C47.6207 0.343527 48.2707 0.373528 48.9107 0.463528C49.2407 0.503528 49.5407 0.393527 49.8607 0.353527C50.1707 0.313527 50.5307 0.273531 50.8107 0.423531C51.4407 0.753531 52.0807 0.723528 52.7207 0.713528C53.5607 0.703528 54.4007 0.753529 55.2307 0.663529C56.3807 0.523529 57.5307 0.923527 58.6807 0.693527C58.9607 0.643527 59.2807 0.953529 59.5807 1.09353L61.1007 1.07353C61.4307 1.07353 61.7207 1.20353 61.9407 1.54353C62.0607 1.53353 62.1907 1.53353 62.3107 1.54353L75.6407 1.31353C76.1607 1.30353 76.6708 1.29353 77.1908 1.30353C77.4607 1.30353 77.6807 1.49353 77.8607 1.75353L82.3008 1.64353C83.1308 1.62353 83.9607 1.58353 84.7807 1.93353C85.2507 2.13353 85.8007 2.04353 86.3107 2.02353L93.8407 1.82353C94.5507 1.80353 95.2507 1.77353 95.9408 2.09353C96.2907 2.25353 96.7008 2.22353 97.0807 2.22353L99.5907 2.17353L104.721 2.02353C105.351 2.00353 105.981 1.99353 106.591 1.75353C106.801 1.66353 107.081 1.86353 107.321 1.92353C107.501 1.84353 107.701 1.65353 107.861 1.68353C109.091 1.97353 110.311 1.75353 111.541 1.79353C111.801 1.80353 112.071 1.78353 112.321 1.86353C112.501 1.92353 112.651 2.12353 112.811 2.25353C113.191 2.25353 113.581 2.29353 113.961 2.24353C115.481 2.04353 116.841 2.77353 118.051 3.76353C118.101 3.80353 118.121 3.89353 118.161 3.96353C118.341 4.02353 118.541 4.04353 118.691 4.17353C118.991 4.45353 119.241 4.81353 119.531 5.09353C119.931 5.50353 120.151 5.99353 120.061 6.76353Z" fill="#1D1D1B"/>
</svg>
