<svg width="200" height="144" viewBox="0 0 200 144" fill="none" xmlns="http://www.w3.org/2000/svg">
<g clip-path="url(#clip0)">
<path d="M176.932 29.5435H23.0735V117.723H176.932V29.5435Z" fill="white" stroke="black" stroke-width="5" stroke-miterlimit="10"/>
<path d="M23.0735 45.5178H176.926" stroke="black" stroke-width="5" stroke-miterlimit="10"/>
<path d="M49.0535 25.3954H40.49V33.9589H49.0535V25.3954Z" fill="white" stroke="black" stroke-width="5" stroke-miterlimit="10"/>
<path d="M159.51 25.3954H150.947V33.9589H159.51V25.3954Z" fill="white" stroke="black" stroke-width="5" stroke-miterlimit="10"/>
<path d="M44.6158 55.6571H32.9733V67.2996H44.6158V55.6571Z" fill="white" stroke="black" stroke-width="5" stroke-miterlimit="10"/>
<path d="M64.6993 55.6571H53.0568V67.2996H64.6993V55.6571Z" fill="white" stroke="black" stroke-width="5" stroke-miterlimit="10"/>
<path d="M84.7828 55.6571H73.1403V67.2996H84.7828V55.6571Z" fill="white" stroke="black" stroke-width="5" stroke-miterlimit="10"/>
<path d="M104.866 55.6571H93.2238V67.2996H104.866V55.6571Z" fill="white" stroke="black" stroke-width="5" stroke-miterlimit="10"/>
<path d="M124.944 55.6571H113.302V67.2996H124.944V55.6571Z" fill="white" stroke="black" stroke-width="5" stroke-miterlimit="10"/>
<path d="M44.6158 75.6682H32.9733V87.3108H44.6158V75.6682Z" fill="white" stroke="black" stroke-width="5" stroke-miterlimit="10"/>
<path d="M64.6993 75.6682H53.0568V87.3108H64.6993V75.6682Z" fill="white" stroke="black" stroke-width="5" stroke-miterlimit="10"/>
<path d="M84.7828 75.6682H73.1403V87.3108H84.7828V75.6682Z" fill="white" stroke="black" stroke-width="5" stroke-miterlimit="10"/>
<path d="M104.866 75.6682H93.2238V87.3108H104.866V75.6682Z" fill="white" stroke="black" stroke-width="5" stroke-miterlimit="10"/>
<path d="M124.944 75.6682H113.302V87.3108H124.944V75.6682Z" fill="white" stroke="black" stroke-width="5" stroke-miterlimit="10"/>
<path d="M44.6158 95.6793H32.9733V107.322H44.6158V95.6793Z" fill="white" stroke="black" stroke-width="5" stroke-miterlimit="10"/>
<path d="M64.6993 95.6793H53.0568V107.322H64.6993V95.6793Z" fill="white" stroke="black" stroke-width="5" stroke-miterlimit="10"/>
<path d="M84.7828 95.6793H73.1403V107.322H84.7828V95.6793Z" fill="white" stroke="black" stroke-width="5" stroke-miterlimit="10"/>
<path d="M104.866 95.6793H93.2238V107.322H104.866V95.6793Z" fill="white" stroke="black" stroke-width="5" stroke-miterlimit="10"/>
<path d="M124.944 95.6793H113.302V107.322H124.944V95.6793Z" fill="white" stroke="black" stroke-width="5" stroke-miterlimit="10"/>
<path d="M150.061 107.322C159.772 107.322 167.645 99.4495 167.645 89.7384C167.645 80.0273 159.772 72.1549 150.061 72.1549C140.35 72.1549 132.478 80.0273 132.478 89.7384C132.478 99.4495 140.35 107.322 150.061 107.322Z" fill="white" stroke="black" stroke-width="5" stroke-miterlimit="10"/>
<path d="M150.061 81.4867V89.7384H157.94" fill="white"/>
<path d="M150.061 81.4867V89.7384H157.94" stroke="black" stroke-width="5" stroke-miterlimit="10"/>
</g>
<defs>
<clipPath id="clip0">
<rect width="200" height="143.118" fill="white"/>
</clipPath>
</defs>
</svg>
