<svg width="232" height="129" viewBox="0 0 232 129" fill="none" xmlns="http://www.w3.org/2000/svg">
<g clip-path="url(#clip0)">
<path d="M187.79 79.96C187.8 80.51 187.61 80.98 187.01 81.32C186.7 81.5 186.36 81.62 185.95 81.62L184.79 81.6C183.08 81.54 181.38 81.42 179.67 81.43C178.01 81.44 176.47 81.02 174.88 80.8C174.75 80.78 174.65 80.65 174.54 80.57L170.15 80.46C169.31 80.44 168.47 80.41 167.65 80.16C167.17 80.02 166.59 80.06 166.05 80.02L162.75 79.96C162.04 79.95 161.36 79.89 160.66 79.73C160.07 79.59 159.43 79.58 158.8 79.56C157.31 79.51 155.83 79.5 154.34 79.36C152.95 79.22 151.57 79.03 150.15 79.08C148.74 79.13 147.32 79.07 145.9 79.05C145.11 79.04 144.34 79.03 143.58 78.81C143.15 78.69 142.65 78.69 142.19 78.68C141.01 78.65 139.83 78.65 138.65 78.65C136.92 78.66 135.2 78.64 133.5 78.37C132.89 78.27 132.24 78.34 131.62 78.28C130.51 78.18 129.42 78.59 128.37 78.44C127.27 78.28 126.18 78.31 125.09 78.29C123.92 78.26 122.74 78.34 121.59 78.02C121.17 77.9 120.66 77.95 120.19 77.95H116.41L110.53 77.99C109.52 77.99 108.52 78.01 107.51 77.77C106.86 77.62 106.12 77.69 105.41 77.68C104.55 77.66 103.71 77.68 102.86 77.48C102.29 77.34 101.62 77.38 101 77.38L89.51 77.5C89.04 77.51 88.57 77.51 88.11 77.46C87.9 77.44 87.73 77.28 87.54 77.19C87.04 77.36 86.58 77.56 85.98 77.49C85.07 77.39 84.15 77.37 83.23 77.27C82.31 77.18 81.36 77.27 80.42 77.29L77.84 77.33L75.02 77.38L71.5 77.43C70.8 77.44 70.1 77.45 69.41 77.27C69.05 77.18 68.64 77.15 68.26 77.16C66.7 77.22 65.13 77.12 63.58 77.34C63.35 77.37 63.11 77.39 62.89 77.37C61.02 77.18 59.14 77.37 57.27 77.37L51.12 77.51C50.03 77.53 48.94 77.62 47.87 77.34C47.38 77.21 46.78 77.26 46.24 77.3C45.26 77.38 44.39 77.13 43.49 76.95C43.03 76.86 42.68 76.61 42.39 76.34C42.09 76.05 42.02 75.7 42.14 75.35C42.33 74.83 42.83 74.45 43.28 74.05C43.37 73.97 43.55 73.92 43.7 73.91L45.82 73.81C46.89 73.74 47.98 73.83 49.02 73.48C49.41 73.35 49.97 73.33 50.39 73.42C51.83 73.74 53.3 73.62 54.77 73.61C55.23 73.61 55.7 73.6 56.16 73.64C56.36 73.66 56.54 73.81 56.73 73.9C57.74 73.81 58.74 73.74 59.77 73.83C60.78 73.91 61.83 73.75 62.84 73.86C63.56 73.94 64.25 73.72 64.94 73.89C65.88 73.69 66.78 73.75 67.71 73.96C68.2 74.07 68.83 74 69.33 73.86C70.1 73.65 70.87 73.63 71.66 73.61C72.61 73.59 73.56 73.6 74.5 73.56C75.84 73.5 77.18 73.55 78.49 73.71C79.44 73.83 80.4 73.88 81.31 73.76C82.5 73.59 83.66 73.8 84.83 73.76C85.93 73.71 87.04 73.73 88.14 73.73C88.47 73.73 88.74 73.86 88.96 74.03C89.39 73.91 89.81 73.67 90.3 73.83C90.97 74.05 91.68 74.01 92.38 74L98.27 73.94C99.05 73.94 99.84 73.96 100.61 74.02C101.01 74.05 101.38 73.98 101.77 73.95C102.15 73.92 102.59 73.9 102.93 74C103.69 74.23 104.46 74.21 105.25 74.21C106.27 74.21 107.3 74.25 108.31 74.19C109.72 74.11 111.1 74.38 112.51 74.23C112.85 74.19 113.24 74.41 113.6 74.5H115.45C115.85 74.5 116.2 74.59 116.47 74.82C116.62 74.82 116.77 74.82 116.92 74.82H133.19L135.08 74.85C135.41 74.86 135.67 74.99 135.89 75.17L141.31 75.2C142.33 75.21 143.33 75.21 144.33 75.47C144.9 75.62 145.57 75.57 146.2 75.58L155.39 75.68C156.25 75.7 157.11 75.7 157.94 75.95C158.36 76.07 158.86 76.07 159.33 76.08L162.39 76.14L168.67 76.26C169.44 76.28 170.21 76.31 170.98 76.18C171.24 76.14 171.57 76.28 171.87 76.34C172.1 76.29 172.34 76.18 172.54 76.21C174.01 76.48 175.51 76.39 177 76.48C177.31 76.5 177.64 76.5 177.93 76.57C178.14 76.62 178.31 76.76 178.51 76.86C178.97 76.88 179.44 76.92 179.9 76.9C181.75 76.83 183.37 77.34 184.93 78.01C184.99 78.04 185.03 78.1 185.08 78.14C185.31 78.18 185.56 78.19 185.75 78.28C186.15 78.46 186.5 78.71 186.9 78.88C187.43 79.11 187.78 79.44 187.79 79.96ZM185.83 79.96C185.87 79.94 185.92 79.93 185.96 79.92H185.95C185.93 79.93 185.9 79.93 185.87 79.93L185.83 79.96Z" fill="black"/>
</g>
<defs>
<clipPath id="clip0">
<rect width="231.14" height="128.52" fill="white"/>
</clipPath>
</defs>
</svg>
