<svg width="232" height="129" viewBox="0 0 232 129" fill="none" xmlns="http://www.w3.org/2000/svg">
<g clip-path="url(#clip0)">
<path d="M172.32 72.54C172.27 73.09 172.09 73.54 171.64 73.85C171.41 74.01 171.17 74.12 170.89 74.11L170.09 74.06C168.91 73.97 167.69 73.88 166.45 73.94C165.25 74.01 164.09 73.68 162.87 73.52C162.77 73.51 162.69 73.38 162.6 73.31L159.23 73.44C158.57 73.46 157.92 73.48 157.26 73.27C156.88 73.15 156.42 73.21 155.99 73.2L153.45 73.27C152.91 73.28 152.38 73.25 151.84 73.12C151.38 73.01 150.89 73.02 150.41 73.02C149.27 73.02 148.12 73.08 146.98 72.99C145.91 72.91 144.84 72.75 143.75 72.85C142.67 72.94 141.57 72.92 140.49 72.95C139.89 72.96 139.29 72.98 138.7 72.78C138.37 72.67 137.99 72.69 137.63 72.7C136.72 72.71 135.82 72.73 134.91 72.77C133.58 72.82 132.26 72.85 130.95 72.62C130.48 72.54 129.98 72.61 129.51 72.57C128.65 72.49 127.83 72.92 127.01 72.78C126.16 72.63 125.33 72.68 124.49 72.67C123.59 72.66 122.68 72.75 121.8 72.44C121.47 72.33 121.08 72.38 120.72 72.39L117.82 72.43L113.31 72.52C112.53 72.53 111.76 72.56 110.99 72.33C110.49 72.19 109.92 72.26 109.38 72.26C108.72 72.25 108.07 72.28 107.42 72.09C106.98 71.96 106.47 72 105.99 72.01L97.15 72.26C96.79 72.27 96.43 72.28 96.07 72.24C95.91 72.22 95.77 72.07 95.62 71.98C95.24 72.15 94.9 72.36 94.43 72.31C93.73 72.22 93.02 72.22 92.31 72.14C91.6 72.06 90.87 72.17 90.15 72.21L88.17 72.3L86.01 72.41L83.31 72.55C82.77 72.58 82.24 72.6 81.7 72.45C81.42 72.37 81.1 72.35 80.81 72.38C79.61 72.48 78.4 72.42 77.22 72.7C77.05 72.74 76.86 72.77 76.69 72.75C75.24 72.63 73.81 72.88 72.37 72.96L67.66 73.37C66.82 73.44 66 73.58 65.15 73.35C64.77 73.25 64.31 73.33 63.9 73.4C63.16 73.53 62.46 73.33 61.76 73.21C61.4 73.15 61.11 72.92 60.86 72.66C60.6 72.39 60.52 72.04 60.58 71.69C60.68 71.16 61.03 70.75 61.35 70.33C61.41 70.25 61.55 70.18 61.66 70.17L63.29 69.95C64.11 69.82 64.96 69.85 65.74 69.45C66.03 69.3 66.47 69.25 66.79 69.32C67.93 69.57 69.06 69.37 70.19 69.31C70.55 69.29 70.91 69.26 71.26 69.28C71.42 69.29 71.57 69.43 71.72 69.51C72.49 69.38 73.26 69.26 74.06 69.31C74.85 69.36 75.65 69.16 76.43 69.23C76.99 69.28 77.51 69.04 78.05 69.19C78.76 68.96 79.46 69 80.2 69.17C80.58 69.26 81.07 69.17 81.44 69.02C82.03 68.79 82.62 68.74 83.23 68.71C83.96 68.67 84.69 68.66 85.42 68.59C86.45 68.49 87.49 68.51 88.51 68.65C89.25 68.75 89.99 68.79 90.69 68.64C91.61 68.45 92.5 68.65 93.4 68.58C94.25 68.52 95.1 68.51 95.95 68.5C96.21 68.5 96.41 68.62 96.59 68.79C96.92 68.66 97.24 68.42 97.62 68.57C98.14 68.78 98.69 68.73 99.23 68.72L103.76 68.59C104.36 68.58 104.97 68.59 105.56 68.65C105.87 68.68 106.15 68.6 106.45 68.57C106.74 68.54 107.08 68.51 107.34 68.61C107.93 68.83 108.52 68.8 109.12 68.8C109.9 68.79 110.69 68.82 111.47 68.75C112.55 68.65 113.62 68.91 114.7 68.75C114.96 68.71 115.26 68.92 115.54 69.02L116.96 69C117.27 69 117.54 69.08 117.74 69.32C117.86 69.31 117.97 69.31 118.09 69.32L130.58 69.1L132.03 69.08C132.28 69.08 132.48 69.2 132.66 69.38L136.82 69.28C137.6 69.26 138.37 69.23 139.15 69.45C139.59 69.58 140.1 69.51 140.59 69.5L147.64 69.31C148.3 69.29 148.96 69.26 149.61 69.48C149.94 69.59 150.32 69.56 150.68 69.56L153.03 69.51L157.84 69.37C158.43 69.35 159.02 69.34 159.6 69.17C159.8 69.11 160.06 69.24 160.29 69.28C160.46 69.22 160.64 69.09 160.8 69.11C161.95 69.29 163.09 69.13 164.24 69.15C164.48 69.15 164.73 69.14 164.96 69.2C165.12 69.24 165.26 69.37 165.41 69.46C165.77 69.46 166.13 69.48 166.48 69.45C167.9 69.31 169.17 69.82 170.32 70.51C170.37 70.54 170.39 70.6 170.42 70.65C170.59 70.69 170.78 70.72 170.92 70.81C171.21 71.01 171.45 71.26 171.73 71.46C172.15 71.67 172.37 72.02 172.32 72.54ZM170.91 72.45C170.94 72.43 170.97 72.42 171.01 72.41H171C170.99 72.42 170.96 72.42 170.94 72.42L170.91 72.45Z" fill="black"/>
<path d="M144.22 70.05C144.29 70.6 144.23 71.08 143.9 71.47C143.73 71.67 143.54 71.83 143.3 71.86L142.6 71.94C141.57 72.03 140.53 72.06 139.5 72.22C138.5 72.37 137.54 72.1 136.56 71.99C136.48 71.98 136.41 71.86 136.33 71.79L133.68 72.02C133.17 72.06 132.67 72.1 132.15 71.92C131.85 71.81 131.5 71.9 131.18 71.9L129.2 72.08C128.77 72.12 128.36 72.11 127.93 72C127.56 71.91 127.17 71.94 126.8 71.96C125.91 72.02 125.02 72.12 124.11 72.09C123.27 72.06 122.42 71.97 121.57 72.12C120.73 72.27 119.88 72.31 119.03 72.4C118.56 72.45 118.1 72.49 117.62 72.34C117.35 72.25 117.05 72.29 116.77 72.32C116.06 72.39 115.36 72.47 114.66 72.56C113.63 72.69 112.61 72.82 111.56 72.69C111.19 72.64 110.81 72.76 110.43 72.75C109.75 72.74 109.17 73.26 108.52 73.19C107.84 73.12 107.2 73.24 106.55 73.31C105.85 73.39 105.16 73.57 104.43 73.36C104.16 73.28 103.86 73.38 103.58 73.42L101.34 73.79L97.87 74.41C97.27 74.52 96.68 74.63 96.05 74.52C95.64 74.45 95.21 74.6 94.79 74.66C94.28 74.74 93.78 74.85 93.24 74.75C92.87 74.69 92.49 74.8 92.12 74.88C89.86 75.35 87.61 75.9 85.37 76.47C85.1 76.54 84.82 76.61 84.54 76.62C84.41 76.63 84.27 76.5 84.14 76.44C83.89 76.67 83.67 76.93 83.3 76.95C82.74 76.98 82.19 77.09 81.63 77.13C81.07 77.17 80.53 77.4 79.98 77.55L78.47 77.96L76.83 78.41L74.77 78.96C74.36 79.07 73.95 79.17 73.5 79.1C73.27 79.06 73.02 79.09 72.8 79.15C71.89 79.42 70.95 79.53 70.08 79.94C69.95 80 69.82 80.05 69.68 80.06C68.53 80.1 67.46 80.53 66.35 80.73C65.14 81.01 63.93 81.27 62.71 81.51C62.06 81.63 61.43 81.83 60.74 81.62C60.43 81.53 60.08 81.62 59.76 81.71C59.19 81.87 58.63 81.66 58.07 81.55C57.78 81.49 57.54 81.27 57.34 81.01C57.12 80.74 57.04 80.4 57.07 80.05C57.11 79.52 57.36 79.11 57.56 78.69C57.6 78.61 57.7 78.54 57.78 78.53L58.98 78.29C59.58 78.14 60.23 78.15 60.77 77.72C60.97 77.55 61.29 77.48 61.54 77.54C62.43 77.73 63.25 77.47 64.1 77.31C64.37 77.26 64.63 77.21 64.91 77.2C65.03 77.2 65.17 77.32 65.3 77.39C65.87 77.18 66.43 77.02 67.04 76.97C67.64 76.93 68.22 76.65 68.83 76.63C69.26 76.61 69.62 76.32 70.06 76.4C70.56 76.08 71.09 76.03 71.69 76.1C72 76.14 72.35 75.99 72.61 75.79C73.01 75.48 73.45 75.36 73.91 75.23C74.46 75.08 75.01 74.96 75.56 74.79C76.33 74.54 77.13 74.4 77.94 74.36C78.53 74.34 79.1 74.26 79.61 74C80.27 73.67 81 73.71 81.69 73.49C82.33 73.29 82.99 73.15 83.65 72.99C83.85 72.94 84.03 73.03 84.21 73.17C84.44 72.99 84.63 72.7 84.96 72.79C85.41 72.91 85.83 72.78 86.24 72.68C87.4 72.39 88.58 72.1 89.75 71.85C90.22 71.75 90.69 71.68 91.17 71.64C91.42 71.62 91.62 71.51 91.85 71.43C92.07 71.36 92.33 71.28 92.55 71.34C93.05 71.47 93.51 71.37 93.98 71.28C94.59 71.16 95.21 71.08 95.81 70.91C96.64 70.67 97.52 70.8 98.34 70.51C98.54 70.44 98.81 70.61 99.04 70.67L100.15 70.48C100.39 70.44 100.62 70.5 100.81 70.7C100.9 70.68 100.99 70.67 101.08 70.66C104.33 70.1 107.59 69.63 110.86 69.2C111.24 69.15 111.62 69.11 112 69.07C112.2 69.05 112.37 69.16 112.53 69.32L115.79 68.93C116.4 68.86 117.01 68.78 117.64 68.96C118 69.06 118.4 68.97 118.77 68.93L124.3 68.36C124.82 68.31 125.33 68.25 125.86 68.43C126.13 68.52 126.43 68.48 126.71 68.46L128.55 68.3L132.33 67.95C132.79 67.91 133.26 67.88 133.71 67.69C133.86 67.63 134.07 67.74 134.26 67.78C134.39 67.72 134.53 67.58 134.65 67.6C135.56 67.75 136.45 67.55 137.35 67.52C137.54 67.51 137.73 67.49 137.92 67.53C138.05 67.56 138.17 67.69 138.29 67.77C138.57 67.75 138.85 67.75 139.13 67.69C140.23 67.46 141.25 67.83 142.26 68.36C142.3 68.38 142.33 68.44 142.36 68.48C142.5 68.5 142.65 68.49 142.78 68.56C143.04 68.7 143.27 68.92 143.53 69.06C143.91 69.24 144.15 69.53 144.22 70.05ZM143.04 70.22C143.06 70.2 143.09 70.18 143.11 70.16H143.1C143.09 70.17 143.07 70.18 143.05 70.18L143.04 70.22Z" fill="black"/>
</g>
<defs>
<clipPath id="clip0">
<rect width="231.14" height="128.52" fill="white"/>
</clipPath>
</defs>
</svg>
